<svg width="43" height="39" viewBox="0 0 43 39" fill="none" xmlns="http://www.w3.org/2000/svg">
<g id="refresh 1" clip-path="url(#clip0_275_7989)">
<g id="objects">
<path id="Vector" d="M42.8776 17.3292L40.0203 21.1886L38.6403 23.0529C38.3866 23.395 37.8646 23.4009 37.603 23.0638L36.1436 21.1859L33.2306 17.4378C32.9117 17.0277 33.2085 16.4388 33.7375 16.4329L35.9237 16.4083C35.7113 15.3696 35.3905 14.3547 34.9628 13.3713C34.1473 11.4966 32.9801 9.81249 31.4936 8.36653C30.0071 6.92056 28.2757 5.78477 26.3479 4.992C24.3526 4.17095 22.2325 3.75495 20.0472 3.75495C17.862 3.75495 15.7419 4.17095 13.7465 4.992C11.8192 5.78523 10.0879 6.92056 8.60084 8.36653C7.1143 9.81249 5.94711 11.4966 5.13162 13.3713C4.28753 15.3122 3.85985 17.3744 3.85985 19.5C3.85985 21.6256 4.28753 23.6878 5.13162 25.6287C5.94711 27.5034 7.1143 29.1875 8.60084 30.6339C10.0879 32.0799 11.8187 33.2152 13.7465 34.0085C15.7419 34.8295 17.862 35.2455 20.0472 35.2455C22.2325 35.2455 24.3526 34.8295 26.3479 34.0085C28.2753 33.2152 30.0066 32.0799 31.4936 30.6339L34.2228 33.2887C30.5951 36.8174 25.5835 39 20.0472 39C8.97553 39 0 30.2695 0 19.5C0 8.73053 8.97553 0 20.0472 0C30.0216 0 38.2946 7.08568 39.8365 16.3645L42.3477 16.3362C42.8757 16.3303 43.1866 16.9123 42.8776 17.3288V17.3292Z" fill="#1E9CD6"/>
</g>
</g>
<defs>
<clipPath id="clip0_275_7989">
<rect width="43" height="39" fill="white"/>
</clipPath>
</defs>
</svg>
