<svg width="52" height="62" viewBox="0 0 52 62" fill="none" xmlns="http://www.w3.org/2000/svg">
<g clip-path="url(#clip0_208_1226)">
<mask id="mask0_208_1226" style="mask-type:luminance" maskUnits="userSpaceOnUse" x="0" y="0" width="52" height="62">
<path d="M51.5 0H0.5V61.5H51.5V0Z" fill="white"/>
</mask>
<g mask="url(#mask0_208_1226)">
<path d="M41.3749 15.5651C41.3749 15.8334 41.3749 16.1003 41.3749 16.3657C41.3749 16.6311 41.3559 16.895 41.3178 17.1574C41.2797 17.551 41.227 17.9386 41.1597 18.3203C41.085 18.7362 40.9971 19.1477 40.8917 19.5547C40.6906 20.3286 40.4307 21.0852 40.1142 21.8179L39.9736 22.131C39.8067 22.4948 39.6281 22.8497 39.4377 23.1955L39.262 23.5042C38.5417 24.7319 37.6593 25.8531 36.6395 26.8363L36.3496 27.1137C36.1827 27.2687 36.0114 27.4178 35.8356 27.5609L35.4886 27.8472C35.228 28.0529 34.9615 28.2512 34.6891 28.4421L34.5705 28.5226C34.2103 28.7671 33.8384 28.9967 33.4548 29.2114C33.0711 29.4261 32.7197 29.6065 32.4005 29.7526L32.3346 29.7839C31.617 30.1121 30.8753 30.3828 30.1163 30.5934L29.6287 30.7187C28.8503 30.9067 28.0586 31.0323 27.261 31.0944C27.0018 31.0944 26.7426 31.1302 26.4791 31.1346H25.6884C25.4248 31.1346 25.1656 31.1346 24.9064 31.0944C24.1088 31.0323 23.3171 30.9067 22.5388 30.7187L22.0512 30.5934C21.2921 30.3828 20.5504 30.1121 19.8328 29.7839L19.7669 29.7526C19.4448 29.6035 19.13 29.4439 18.8225 29.274C18.4037 29.0444 17.9966 28.7939 17.6013 28.5226L17.4871 28.4331C17.2147 28.2453 16.9482 28.047 16.6876 27.8382L16.3406 27.552C16.1648 27.4059 15.9935 27.2568 15.8266 27.1047C15.6597 26.9526 15.481 26.7752 15.2907 26.5725C14.3877 25.6531 13.6011 24.6223 12.9493 23.5042L12.7736 23.1955C12.5833 22.8497 12.4046 22.4948 12.2377 22.131L12.0971 21.8179C11.7806 21.0853 11.5206 20.3286 11.3196 19.5547C11.2142 19.1492 11.1249 18.7377 11.0517 18.3203C10.9785 17.9028 10.9272 17.5152 10.8979 17.1574C10.8716 16.895 10.8525 16.6311 10.8408 16.3657C10.8408 16.1018 10.8408 15.8334 10.8408 15.5651C10.8408 15.2967 10.8145 15.0283 10.8408 14.7645C10.8408 14.6034 10.8408 14.4379 10.8408 14.2769C10.8408 14.1785 10.8891 14.0757 10.8979 13.9773C10.9067 13.8789 10.8979 13.776 10.8979 13.6821C10.9331 13.3913 10.9814 13.1006 11.0341 12.8099C11.1088 12.3939 11.201 11.9824 11.3064 11.5754C11.5088 10.8014 11.7702 10.0447 12.0884 9.3122L12.1586 9.15565L12.2289 8.99911C12.3959 8.63533 12.5745 8.28049 12.7648 7.9346L12.9406 7.62598C13.6537 6.40332 14.5271 5.28529 15.5367 4.30275L15.8222 4.02544C15.9921 3.87038 16.1634 3.72129 16.3362 3.57816L16.6832 3.29191C16.9438 3.08318 17.2118 2.88042 17.4871 2.68362L17.6057 2.60311C18.2939 2.13837 19.0182 1.73149 19.7713 1.38653L19.8372 1.3418C20.5552 1.0181 21.2969 0.751914 22.0555 0.545655L22.5431 0.420419C23.3215 0.232367 24.1132 0.106746 24.9108 0.0447101C25.17 0.0447101 25.4292 0.00892829 25.6928 0.00445557H26.4835C26.747 0.00445557 27.0062 0.00445557 27.2654 0.0447101C28.063 0.106746 28.8547 0.232367 29.6331 0.420419L30.1207 0.545655C30.8778 0.752169 31.618 1.01835 32.3346 1.3418L32.4005 1.37311C33.1556 1.72213 33.8814 2.1335 34.5705 2.60311L34.6891 2.68362C34.9615 2.87147 35.228 3.06976 35.4886 3.27849L35.8356 3.57816C36.0114 3.72427 36.1827 3.87336 36.3496 4.02544L36.6395 4.29827C37.651 5.28023 38.5259 6.39832 39.24 7.62151L39.4158 7.93013C39.609 8.27602 39.7877 8.63085 39.9517 8.99464L40.0922 9.30773C40.4087 10.0404 40.6687 10.7971 40.8698 11.5709C40.9752 11.9779 41.0674 12.3894 41.1377 12.8054C41.208 13.2214 41.2607 13.5747 41.2958 13.9683C41.2958 14.0891 41.3178 14.2143 41.3266 14.3351C41.3354 14.4558 41.3266 14.6169 41.353 14.76C41.353 15.0254 41.353 15.2922 41.353 15.5606" fill="white"/>
<path d="M10.5684 14.1293H10.6079C10.6818 14.1766 10.7597 14.217 10.8407 14.2501L10.7924 14.2188C10.7265 14.1785 10.6386 14.1428 10.5684 14.107" fill="white"/>
<path d="M10.5684 14.1293C10.6386 14.1651 10.7265 14.2054 10.7924 14.2412L10.6079 14.1517H10.5684" fill="white"/>
<path d="M51.4956 45.1164V61.2182C51.4956 61.5492 51.3682 61.4732 51.0563 61.4732H1.11059C0.798708 61.4732 0.5 61.5492 0.5 61.2182V45.1164C0.5 44.857 0.5 44.5975 0.5 44.3426C0.665182 40.6495 2.10038 37.1332 4.55452 34.4087L4.76538 34.1805C5.9409 32.9292 7.32003 31.8942 8.84186 31.1212L9.11861 30.9826C9.53738 30.7828 9.96641 30.6039 10.4057 30.4459L10.7 30.3429C11.0924 30.2117 11.4922 30.097 11.8992 29.9986C12.3932 30.4824 12.9108 30.9407 13.4499 31.3717C14.821 32.4644 16.3202 33.3794 17.9129 34.0956C18.2058 34.2298 18.5074 34.3565 18.8178 34.4758C22.4498 35.937 26.4303 36.2487 30.239 35.3703C30.4103 35.3345 32.8176 34.7397 33.4589 34.4758C33.7137 34.3729 33.9685 34.1493 34.2189 34.0285C35.5221 33.5629 36.718 32.8308 37.7331 31.8771C37.8697 31.8567 37.9969 31.7943 38.0977 31.6982C38.8261 31.1624 39.5201 30.5798 40.1755 29.9539C43.3341 30.7776 46.1447 32.6232 48.1846 35.2132C50.2244 37.8032 51.3833 40.9975 51.4868 44.3158C51.4868 44.5707 51.4868 44.8525 51.4868 45.1119" fill="white"/>
<path d="M17.922 34.1001C18.2149 34.2373 18.5136 34.3655 18.8269 34.4847C19.9903 34.944 21.1933 35.2914 22.4202 35.5224" fill="white"/>
</g>
</g>
<defs>
<clipPath id="clip0_208_1226">
<rect width="51" height="61.5" fill="white" transform="translate(0.5)"/>
</clipPath>
</defs>
</svg>
