<svg width="1512" height="422" viewBox="0 0 1512 422" fill="none" xmlns="http://www.w3.org/2000/svg">
<g style="mix-blend-mode:overlay">
<path opacity="0.5" d="M383.426 340.014C305.148 340.014 241.691 403.471 241.691 481.749C241.691 560.027 305.148 623.484 383.426 623.484C461.704 623.484 525.161 560.027 525.161 481.749C525.161 403.471 461.704 340.014 383.426 340.014Z" fill="url(#paint0_radial_22_18814)"/>
<path opacity="0.5" d="M519.031 223.709C399.145 223.709 301.958 320.896 301.958 440.783C301.958 560.669 399.145 657.856 519.031 657.856C638.918 657.856 736.105 560.669 736.105 440.783C736.105 320.896 638.918 223.709 519.031 223.709Z" fill="url(#paint1_radial_22_18814)"/>
<path opacity="0.24" d="M432.959 93.9454C385.422 141.483 385.422 218.556 432.959 266.093C480.496 313.631 557.57 313.631 605.107 266.093C652.644 218.556 652.644 141.483 605.107 93.9453C557.57 46.408 480.496 46.408 432.959 93.9454Z" fill="url(#paint2_radial_22_18814)"/>
<path opacity="0.5" d="M175.335 206.128C48.2422 206.128 -54.787 309.158 -54.787 436.251C-54.787 563.343 48.2422 666.373 175.335 666.373C302.428 666.373 405.457 563.344 405.457 436.251C405.457 309.158 302.428 206.129 175.335 206.128Z" fill="url(#paint3_radial_22_18814)"/>
<path d="M1034.71 280.921C1018.84 280.921 1005.98 293.783 1005.98 309.648C1005.98 325.514 1018.84 338.376 1034.71 338.376C1050.57 338.376 1063.43 325.514 1063.43 309.648C1063.43 293.783 1050.57 280.921 1034.71 280.921Z" fill="url(#paint4_radial_22_18814)"/>
<path opacity="0.6" d="M1317.49 437.845C1293.93 461.405 1293.93 499.602 1317.49 523.161C1341.05 546.72 1379.25 546.721 1402.81 523.161C1426.37 499.602 1426.37 461.405 1402.81 437.845C1379.25 414.286 1341.05 414.286 1317.49 437.845Z" fill="url(#paint5_radial_22_18814)"/>
<path opacity="0.5" d="M1266.63 339.994C1229.6 339.994 1199.59 370.011 1199.59 407.038C1199.59 444.065 1229.6 474.082 1266.63 474.082C1303.66 474.082 1333.67 444.065 1333.67 407.038C1333.67 370.011 1303.66 339.994 1266.63 339.994Z" fill="url(#paint6_radial_22_18814)"/>
<path d="M373.039 312.184C370.858 325.572 379.943 338.192 393.331 340.372C406.719 342.553 419.339 333.467 421.519 320.08C423.7 306.692 414.614 294.072 401.227 291.891C387.839 289.711 375.219 298.796 373.039 312.184Z" fill="url(#paint7_radial_22_18814)"/>
<path d="M522.49 390.865C494.925 418.43 494.925 463.121 522.49 490.686C550.054 518.251 594.746 518.251 622.311 490.686C649.876 463.121 649.876 418.43 622.311 390.865C594.746 363.3 550.054 363.3 522.49 390.865Z" fill="url(#paint8_radial_22_18814)"/>
<path opacity="0.6" d="M1047.78 350.534C1016.57 350.534 991.272 375.832 991.272 407.038C991.272 438.244 1016.57 463.542 1047.78 463.542C1078.98 463.542 1104.28 438.244 1104.28 407.038C1104.28 375.832 1078.98 350.534 1047.78 350.534Z" fill="url(#paint9_radial_22_18814)"/>
<path d="M122.948 404.838C110.963 416.823 110.963 436.255 122.948 448.24C134.933 460.225 154.364 460.225 166.349 448.24C178.335 436.255 178.335 416.823 166.35 404.838C154.364 392.853 134.933 392.853 122.948 404.838Z" fill="url(#paint10_radial_22_18814)"/>
<path d="M930.055 316.142C883.776 316.142 846.26 353.658 846.26 399.937C846.26 446.216 883.776 483.732 930.055 483.732C976.333 483.732 1013.85 446.216 1013.85 399.937C1013.85 353.658 976.333 316.142 930.055 316.142Z" fill="url(#paint11_radial_22_18814)"/>
<path d="M949.462 243.497C941.629 278.394 963.569 313.032 998.466 320.864C1033.36 328.697 1068 306.757 1075.83 271.86C1083.67 236.964 1061.73 202.325 1026.83 194.493C991.933 186.66 957.294 208.6 949.462 243.497Z" fill="url(#paint12_radial_22_18814)"/>
<path opacity="0.6" d="M1066.23 341.532C1048.7 341.532 1034.48 355.743 1034.48 373.273C1034.48 390.804 1048.7 405.015 1066.23 405.015C1083.76 405.015 1097.97 390.804 1097.97 373.273C1097.97 355.743 1083.76 341.532 1066.23 341.532Z" fill="url(#paint13_radial_22_18814)"/>
<path d="M1092.78 459.65C1064.02 488.408 1064.02 535.033 1092.78 563.791C1121.54 592.549 1168.16 592.549 1196.92 563.791C1225.68 535.033 1225.68 488.408 1196.92 459.65C1168.16 430.892 1121.54 430.892 1092.78 459.65Z" fill="url(#paint14_radial_22_18814)"/>
<path d="M1113.1 301.415C1108.52 329.797 1127.83 356.511 1156.21 361.083C1184.59 365.654 1211.31 346.352 1215.88 317.97C1220.45 289.587 1201.15 262.873 1172.76 258.301C1144.38 253.73 1117.67 273.032 1113.1 301.415Z" fill="url(#paint15_radial_22_18814)"/>
<path opacity="0.3" d="M637.784 203.539C583.55 203.539 539.585 247.504 539.585 301.738C539.585 355.972 583.55 399.937 637.784 399.937C692.018 399.937 735.983 355.972 735.983 301.738C735.983 247.504 692.018 203.539 637.784 203.539Z" fill="url(#paint16_radial_22_18814)"/>
<path d="M435.281 385.592C431.141 402.028 441.108 418.709 457.544 422.849C473.98 426.99 490.66 417.023 494.801 400.587C498.942 384.151 488.974 367.47 472.538 363.33C456.102 359.189 439.422 369.156 435.281 385.592Z" fill="url(#paint17_radial_22_18814)"/>
<path opacity="0.5" d="M735.983 357.493C708.621 357.493 686.439 379.675 686.439 407.038C686.439 434.401 708.621 456.582 735.983 456.582C763.346 456.582 785.528 434.401 785.528 407.038C785.528 379.675 763.346 357.493 735.983 357.493Z" fill="url(#paint18_radial_22_18814)"/>
<path opacity="0.6" d="M498.639 398.48C464.126 398.48 436.147 426.459 436.147 460.973C436.147 495.486 464.126 523.465 498.639 523.465C533.152 523.465 561.131 495.486 561.131 460.973C561.131 426.459 533.152 398.48 498.639 398.48Z" fill="url(#paint19_radial_22_18814)"/>
<path opacity="0.3" d="M82.313 385.526C47.8905 419.948 47.8905 475.758 82.313 510.181C116.735 544.603 172.545 544.603 206.968 510.181C241.39 475.758 241.39 419.948 206.968 385.526C172.545 351.103 116.736 351.103 82.313 385.526Z" fill="url(#paint20_radial_22_18814)"/>
<path d="M1355.08 143.657C1339.21 143.657 1326.35 156.519 1326.35 172.384C1326.35 188.25 1339.21 201.112 1355.08 201.112C1370.94 201.112 1383.8 188.25 1383.8 172.384C1383.8 156.519 1370.94 143.657 1355.08 143.657Z" fill="url(#paint21_radial_22_18814)"/>
<path d="M1368.17 385.27C1345.43 385.27 1327 403.702 1327 426.439C1327 449.176 1345.43 467.608 1368.17 467.608C1390.9 467.608 1409.34 449.176 1409.34 426.439C1409.34 403.702 1390.9 385.27 1368.17 385.27Z" fill="url(#paint22_radial_22_18814)"/>
<path opacity="0.6" d="M1328.21 229.809C1306.14 251.875 1306.14 287.651 1328.21 309.717C1350.28 331.783 1386.05 331.783 1408.12 309.717C1430.19 287.651 1430.19 251.875 1408.12 229.809C1386.05 207.743 1350.28 207.743 1328.21 229.809Z" fill="url(#paint23_radial_22_18814)"/>
<path d="M1229.32 254.823C1183.05 254.823 1145.53 292.34 1145.53 338.618C1145.53 384.897 1183.05 422.413 1229.32 422.413C1275.6 422.413 1313.12 384.897 1313.12 338.618C1313.12 292.34 1275.6 254.823 1229.32 254.823Z" fill="url(#paint24_radial_22_18814)"/>
<path d="M1377.01 244.992C1332.13 244.992 1295.74 281.376 1295.74 326.258C1295.74 371.14 1332.13 407.524 1377.01 407.524C1421.89 407.524 1458.27 371.14 1458.27 326.258C1458.27 281.376 1421.89 244.992 1377.01 244.992Z" fill="url(#paint25_radial_22_18814)"/>
<path opacity="0.5" d="M1368.94 334.876C1331.07 334.876 1300.37 365.572 1300.37 403.437C1300.37 441.302 1331.07 471.998 1368.94 471.998C1406.8 471.998 1437.5 441.302 1437.5 403.437C1437.5 365.572 1406.8 334.876 1368.94 334.876Z" fill="url(#paint26_radial_22_18814)"/>
<path d="M1212.69 169.54C1206.91 204.835 1230.84 238.132 1266.13 243.912C1301.43 249.691 1334.73 225.765 1340.51 190.47C1346.29 155.175 1322.36 121.878 1287.06 116.098C1251.77 110.319 1218.47 134.245 1212.69 169.54Z" fill="url(#paint27_radial_22_18814)"/>
<path d="M1266.63 297.672C1218.25 297.672 1179.03 336.891 1179.03 385.27C1179.03 433.649 1218.25 472.868 1266.63 472.868C1315.01 472.868 1354.23 433.649 1354.23 385.27C1354.23 336.891 1315.01 297.672 1266.63 297.672Z" fill="url(#paint28_radial_22_18814)"/>
<path opacity="0.6" d="M1364.16 213.553C1351.76 225.949 1351.76 246.046 1364.16 258.442C1376.55 270.838 1396.65 270.838 1409.05 258.442C1421.44 246.046 1421.44 225.949 1409.05 213.553C1396.65 201.157 1376.55 201.157 1364.16 213.553Z" fill="url(#paint29_radial_22_18814)"/>
<path d="M1393.62 357.216C1384.15 396.769 1408.54 436.507 1448.09 445.973C1487.64 455.44 1527.38 431.05 1536.85 391.498C1546.32 351.945 1521.93 312.207 1482.37 302.741C1442.82 293.274 1403.08 317.664 1393.62 357.216Z" fill="url(#paint30_radial_22_18814)"/>
<path d="M1445.64 240.323C1419.01 251.144 1406.19 281.507 1417.01 308.141C1427.83 334.775 1458.2 347.594 1484.83 336.774C1511.46 325.953 1524.28 295.591 1513.46 268.957C1502.64 242.322 1472.28 229.503 1445.64 240.323Z" fill="url(#paint31_radial_22_18814)"/>
<path opacity="0.3" d="M1116.62 226.42C1071.05 226.42 1034.1 263.366 1034.1 308.94C1034.1 354.515 1071.05 391.461 1116.62 391.461C1162.2 391.461 1199.14 354.515 1199.14 308.94C1199.14 263.366 1162.2 226.42 1116.62 226.42Z" fill="url(#paint32_radial_22_18814)"/>
<path opacity="0.5" d="M1498.13 408.575C1449.04 408.575 1409.25 448.365 1409.25 497.448C1409.25 546.531 1449.04 586.32 1498.13 586.32C1547.21 586.32 1587 546.531 1587 497.448C1587 448.365 1547.21 408.575 1498.13 408.575Z" fill="url(#paint33_radial_22_18814)"/>
<path opacity="0.3" d="M310.819 140.299C264.753 140.299 227.409 177.643 227.409 223.709C227.408 269.775 264.753 307.119 310.819 307.119C356.885 307.12 394.229 269.775 394.229 223.709C394.229 177.643 356.885 140.299 310.819 140.299Z" fill="url(#paint34_radial_22_18814)"/>
<path opacity="0.6" d="M235.667 378.821C221.215 438.699 258.039 498.955 317.916 513.408C377.793 527.86 438.049 491.036 452.502 431.159C466.955 371.282 430.131 311.026 370.254 296.573C310.376 282.12 250.12 318.944 235.667 378.821Z" fill="url(#paint35_radial_22_18814)"/>
<path opacity="0.6" d="M785.528 -1.50703e-05C690.323 -2.33934e-05 613.144 77.179 613.144 172.384C613.144 267.589 690.323 344.768 785.528 344.768C880.733 344.768 957.912 267.589 957.912 172.384C957.912 77.1791 880.733 -6.74721e-06 785.528 -1.50703e-05Z" fill="url(#paint36_radial_22_18814)"/>
<path d="M91.9524 283.508C64.7115 310.749 64.7115 354.916 91.9524 382.157C119.193 409.397 163.36 409.398 190.601 382.157C217.842 354.916 217.842 310.749 190.601 283.508C163.36 256.267 119.193 256.267 91.9524 283.508Z" fill="url(#paint37_radial_22_18814)"/>
<path opacity="0.5" d="M741.288 293.252C728.771 298.478 722.861 312.861 728.086 325.378C733.312 337.895 747.695 343.806 760.212 338.58C772.729 333.355 778.64 318.971 773.414 306.454C768.189 293.937 753.805 288.027 741.288 293.252Z" fill="url(#paint38_radial_22_18814)"/>
</g>
<defs>
<radialGradient id="paint0_radial_22_18814" cx="0" cy="0" r="1" gradientUnits="userSpaceOnUse" gradientTransform="translate(383.446 481.749) scale(141.735)">
<stop offset="0.71" stop-color="white" stop-opacity="0.5"/>
<stop offset="0.75" stop-color="white" stop-opacity="0.48"/>
<stop offset="0.81" stop-color="white" stop-opacity="0.41"/>
<stop offset="0.87" stop-color="white" stop-opacity="0.31"/>
<stop offset="0.94" stop-color="white" stop-opacity="0.17"/>
<stop offset="1" stop-color="white" stop-opacity="0"/>
</radialGradient>
<radialGradient id="paint1_radial_22_18814" cx="0" cy="0" r="1" gradientUnits="userSpaceOnUse" gradientTransform="translate(519.031 440.803) rotate(-180) scale(217.073 217.073)">
<stop offset="0.71" stop-color="white" stop-opacity="0.5"/>
<stop offset="0.75" stop-color="white" stop-opacity="0.48"/>
<stop offset="0.81" stop-color="white" stop-opacity="0.41"/>
<stop offset="0.87" stop-color="white" stop-opacity="0.31"/>
<stop offset="0.94" stop-color="white" stop-opacity="0.17"/>
<stop offset="1" stop-color="white" stop-opacity="0"/>
</radialGradient>
<radialGradient id="paint2_radial_22_18814" cx="0" cy="0" r="1" gradientUnits="userSpaceOnUse" gradientTransform="translate(519.047 180.033) rotate(-180) scale(121.727)">
<stop offset="0.71" stop-color="white" stop-opacity="0.5"/>
<stop offset="0.75" stop-color="white" stop-opacity="0.48"/>
<stop offset="0.81" stop-color="white" stop-opacity="0.41"/>
<stop offset="0.87" stop-color="white" stop-opacity="0.31"/>
<stop offset="0.94" stop-color="white" stop-opacity="0.17"/>
<stop offset="1" stop-color="white" stop-opacity="0"/>
</radialGradient>
<radialGradient id="paint3_radial_22_18814" cx="0" cy="0" r="1" gradientUnits="userSpaceOnUse" gradientTransform="translate(175.335 436.251) rotate(-180) scale(230.122)">
<stop offset="0.71" stop-color="white" stop-opacity="0.5"/>
<stop offset="0.75" stop-color="white" stop-opacity="0.48"/>
<stop offset="0.81" stop-color="white" stop-opacity="0.41"/>
<stop offset="0.87" stop-color="white" stop-opacity="0.31"/>
<stop offset="0.94" stop-color="white" stop-opacity="0.17"/>
<stop offset="1" stop-color="white" stop-opacity="0"/>
</radialGradient>
<radialGradient id="paint4_radial_22_18814" cx="0" cy="0" r="1" gradientUnits="userSpaceOnUse" gradientTransform="translate(1034.71 309.669) scale(28.7274 28.7273)">
<stop offset="0.71" stop-color="white" stop-opacity="0.5"/>
<stop offset="0.75" stop-color="white" stop-opacity="0.48"/>
<stop offset="0.81" stop-color="white" stop-opacity="0.41"/>
<stop offset="0.87" stop-color="white" stop-opacity="0.31"/>
<stop offset="0.94" stop-color="white" stop-opacity="0.17"/>
<stop offset="1" stop-color="white" stop-opacity="0"/>
</radialGradient>
<radialGradient id="paint5_radial_22_18814" cx="0" cy="0" r="1" gradientUnits="userSpaceOnUse" gradientTransform="translate(1360.14 480.514) scale(60.3274)">
<stop offset="0.89" stop-color="white" stop-opacity="0.3"/>
<stop offset="0.92" stop-color="white" stop-opacity="0.19"/>
<stop offset="0.95" stop-color="white" stop-opacity="0.09"/>
<stop offset="0.98" stop-color="white" stop-opacity="0.02"/>
<stop offset="1" stop-color="white" stop-opacity="0"/>
</radialGradient>
<radialGradient id="paint6_radial_22_18814" cx="0" cy="0" r="1" gradientUnits="userSpaceOnUse" gradientTransform="translate(1266.63 407.058) scale(67.0439)">
<stop offset="0.71" stop-color="white" stop-opacity="0.5"/>
<stop offset="0.75" stop-color="white" stop-opacity="0.48"/>
<stop offset="0.81" stop-color="white" stop-opacity="0.41"/>
<stop offset="0.87" stop-color="white" stop-opacity="0.31"/>
<stop offset="0.94" stop-color="white" stop-opacity="0.17"/>
<stop offset="1" stop-color="white" stop-opacity="0"/>
</radialGradient>
<radialGradient id="paint7_radial_22_18814" cx="0" cy="0" r="1" gradientUnits="userSpaceOnUse" gradientTransform="translate(397.304 316.052) scale(24.5598 24.5599)">
<stop offset="0.71" stop-color="white" stop-opacity="0.5"/>
<stop offset="0.75" stop-color="white" stop-opacity="0.48"/>
<stop offset="0.81" stop-color="white" stop-opacity="0.41"/>
<stop offset="0.87" stop-color="white" stop-opacity="0.31"/>
<stop offset="0.94" stop-color="white" stop-opacity="0.17"/>
<stop offset="1" stop-color="white" stop-opacity="0"/>
</radialGradient>
<radialGradient id="paint8_radial_22_18814" cx="0" cy="0" r="1" gradientUnits="userSpaceOnUse" gradientTransform="translate(572.389 440.794) scale(70.5842)">
<stop offset="0.89" stop-color="white" stop-opacity="0.3"/>
<stop offset="0.92" stop-color="white" stop-opacity="0.19"/>
<stop offset="0.95" stop-color="white" stop-opacity="0.09"/>
<stop offset="0.98" stop-color="white" stop-opacity="0.02"/>
<stop offset="1" stop-color="white" stop-opacity="0"/>
</radialGradient>
<radialGradient id="paint9_radial_22_18814" cx="0" cy="0" r="1" gradientUnits="userSpaceOnUse" gradientTransform="translate(1047.8 407.058) scale(56.5038 56.5038)">
<stop offset="0.89" stop-color="white" stop-opacity="0.3"/>
<stop offset="0.92" stop-color="white" stop-opacity="0.19"/>
<stop offset="0.95" stop-color="white" stop-opacity="0.09"/>
<stop offset="0.98" stop-color="white" stop-opacity="0.02"/>
<stop offset="1" stop-color="white" stop-opacity="0"/>
</radialGradient>
<radialGradient id="paint10_radial_22_18814" cx="0" cy="0" r="1" gradientUnits="userSpaceOnUse" gradientTransform="translate(144.656 426.534) scale(30.6897)">
<stop offset="0.71" stop-color="white" stop-opacity="0.5"/>
<stop offset="0.75" stop-color="white" stop-opacity="0.48"/>
<stop offset="0.81" stop-color="white" stop-opacity="0.41"/>
<stop offset="0.87" stop-color="white" stop-opacity="0.31"/>
<stop offset="0.94" stop-color="white" stop-opacity="0.17"/>
<stop offset="1" stop-color="white" stop-opacity="0"/>
</radialGradient>
<radialGradient id="paint11_radial_22_18814" cx="0" cy="0" r="1" gradientUnits="userSpaceOnUse" gradientTransform="translate(930.055 399.937) rotate(-180) scale(83.7948 83.7948)">
<stop offset="0.84" stop-color="white" stop-opacity="0.5"/>
<stop offset="0.86" stop-color="white" stop-opacity="0.48"/>
<stop offset="0.89" stop-color="white" stop-opacity="0.41"/>
<stop offset="0.93" stop-color="white" stop-opacity="0.31"/>
<stop offset="0.96" stop-color="white" stop-opacity="0.17"/>
<stop offset="1" stop-color="white" stop-opacity="0"/>
</radialGradient>
<radialGradient id="paint12_radial_22_18814" cx="0" cy="0" r="1" gradientUnits="userSpaceOnUse" gradientTransform="translate(1012.72 257.606) rotate(180) scale(64.7579 64.7579)">
<stop offset="0.93" stop-color="white" stop-opacity="0.5"/>
<stop offset="0.94" stop-color="white" stop-opacity="0.48"/>
<stop offset="0.95" stop-color="white" stop-opacity="0.41"/>
<stop offset="0.97" stop-color="white" stop-opacity="0.31"/>
<stop offset="0.98" stop-color="white" stop-opacity="0.17"/>
<stop offset="1" stop-color="white" stop-opacity="0"/>
</radialGradient>
<radialGradient id="paint13_radial_22_18814" cx="0" cy="0" r="1" gradientUnits="userSpaceOnUse" gradientTransform="translate(1066.21 373.273) rotate(-180) scale(31.7417 31.7417)">
<stop offset="0.49" stop-color="white" stop-opacity="0.1"/>
<stop offset="0.59" stop-color="white" stop-opacity="0.12"/>
<stop offset="0.73" stop-color="white" stop-opacity="0.19"/>
<stop offset="0.88" stop-color="white" stop-opacity="0.3"/>
<stop offset="0.89" stop-color="white" stop-opacity="0.3"/>
<stop offset="0.91" stop-color="white" stop-opacity="0.19"/>
<stop offset="0.95" stop-color="white" stop-opacity="0.09"/>
<stop offset="0.98" stop-color="white" stop-opacity="0.02"/>
<stop offset="1" stop-color="white" stop-opacity="0"/>
</radialGradient>
<radialGradient id="paint14_radial_22_18814" cx="0" cy="0" r="1" gradientUnits="userSpaceOnUse" gradientTransform="translate(1144.85 511.706) rotate(180) scale(73.6391)">
<stop offset="0.89" stop-color="white" stop-opacity="0.3"/>
<stop offset="0.92" stop-color="white" stop-opacity="0.19"/>
<stop offset="0.95" stop-color="white" stop-opacity="0.09"/>
<stop offset="0.98" stop-color="white" stop-opacity="0.02"/>
<stop offset="1" stop-color="white" stop-opacity="0"/>
</radialGradient>
<radialGradient id="paint15_radial_22_18814" cx="0" cy="0" r="1" gradientUnits="userSpaceOnUse" gradientTransform="translate(1164.52 309.663) rotate(-180) scale(52.0531 52.0531)">
<stop offset="0.54" stop-color="white" stop-opacity="0.1"/>
<stop offset="0.93" stop-color="white" stop-opacity="0.3"/>
<stop offset="0.95" stop-color="white" stop-opacity="0.19"/>
<stop offset="0.97" stop-color="white" stop-opacity="0.09"/>
<stop offset="0.99" stop-color="white" stop-opacity="0.02"/>
<stop offset="1" stop-color="white" stop-opacity="0"/>
</radialGradient>
<radialGradient id="paint16_radial_22_18814" cx="0" cy="0" r="1" gradientUnits="userSpaceOnUse" gradientTransform="translate(637.784 301.758) rotate(-180) scale(98.1989)">
<stop offset="0.49" stop-color="white" stop-opacity="0.1"/>
<stop offset="0.59" stop-color="white" stop-opacity="0.12"/>
<stop offset="0.73" stop-color="white" stop-opacity="0.19"/>
<stop offset="0.88" stop-color="white" stop-opacity="0.3"/>
<stop offset="0.89" stop-color="white" stop-opacity="0.3"/>
<stop offset="0.91" stop-color="white" stop-opacity="0.19"/>
<stop offset="0.95" stop-color="white" stop-opacity="0.09"/>
<stop offset="0.98" stop-color="white" stop-opacity="0.02"/>
<stop offset="1" stop-color="white" stop-opacity="0"/>
</radialGradient>
<radialGradient id="paint17_radial_22_18814" cx="0" cy="0" r="1" gradientUnits="userSpaceOnUse" gradientTransform="translate(464.999 393.363) scale(30.6897 30.6897)">
<stop offset="0.71" stop-color="white" stop-opacity="0.5"/>
<stop offset="0.75" stop-color="white" stop-opacity="0.48"/>
<stop offset="0.81" stop-color="white" stop-opacity="0.41"/>
<stop offset="0.87" stop-color="white" stop-opacity="0.31"/>
<stop offset="0.94" stop-color="white" stop-opacity="0.17"/>
<stop offset="1" stop-color="white" stop-opacity="0"/>
</radialGradient>
<radialGradient id="paint18_radial_22_18814" cx="0" cy="0" r="1" gradientUnits="userSpaceOnUse" gradientTransform="translate(735.983 407.058) scale(49.5445 49.5445)">
<stop offset="0.71" stop-color="white" stop-opacity="0.5"/>
<stop offset="0.75" stop-color="white" stop-opacity="0.48"/>
<stop offset="0.81" stop-color="white" stop-opacity="0.41"/>
<stop offset="0.87" stop-color="white" stop-opacity="0.31"/>
<stop offset="0.94" stop-color="white" stop-opacity="0.17"/>
<stop offset="1" stop-color="white" stop-opacity="0"/>
</radialGradient>
<radialGradient id="paint19_radial_22_18814" cx="0" cy="0" r="1" gradientUnits="userSpaceOnUse" gradientTransform="translate(498.639 460.973) rotate(-180) scale(62.4921)">
<stop offset="0.49" stop-color="white" stop-opacity="0.1"/>
<stop offset="0.59" stop-color="white" stop-opacity="0.12"/>
<stop offset="0.73" stop-color="white" stop-opacity="0.19"/>
<stop offset="0.88" stop-color="white" stop-opacity="0.3"/>
<stop offset="0.89" stop-color="white" stop-opacity="0.3"/>
<stop offset="0.91" stop-color="white" stop-opacity="0.19"/>
<stop offset="0.95" stop-color="white" stop-opacity="0.09"/>
<stop offset="0.98" stop-color="white" stop-opacity="0.02"/>
<stop offset="1" stop-color="white" stop-opacity="0"/>
</radialGradient>
<radialGradient id="paint20_radial_22_18814" cx="0" cy="0" r="1" gradientUnits="userSpaceOnUse" gradientTransform="translate(144.648 447.864) rotate(-180) scale(88.1444)">
<stop offset="0.49" stop-color="white" stop-opacity="0.1"/>
<stop offset="0.59" stop-color="white" stop-opacity="0.12"/>
<stop offset="0.73" stop-color="white" stop-opacity="0.19"/>
<stop offset="0.88" stop-color="white" stop-opacity="0.3"/>
<stop offset="0.89" stop-color="white" stop-opacity="0.3"/>
<stop offset="0.91" stop-color="white" stop-opacity="0.19"/>
<stop offset="0.95" stop-color="white" stop-opacity="0.09"/>
<stop offset="0.98" stop-color="white" stop-opacity="0.02"/>
<stop offset="1" stop-color="white" stop-opacity="0"/>
</radialGradient>
<radialGradient id="paint21_radial_22_18814" cx="0" cy="0" r="1" gradientUnits="userSpaceOnUse" gradientTransform="translate(1355.1 172.384) scale(28.7273)">
<stop offset="0.71" stop-color="white" stop-opacity="0.5"/>
<stop offset="0.75" stop-color="white" stop-opacity="0.48"/>
<stop offset="0.81" stop-color="white" stop-opacity="0.41"/>
<stop offset="0.87" stop-color="white" stop-opacity="0.31"/>
<stop offset="0.94" stop-color="white" stop-opacity="0.17"/>
<stop offset="1" stop-color="white" stop-opacity="0"/>
</radialGradient>
<radialGradient id="paint22_radial_22_18814" cx="0" cy="0" r="1" gradientUnits="userSpaceOnUse" gradientTransform="translate(1368.17 426.459) scale(41.1691 41.1691)">
<stop offset="0.54" stop-color="white" stop-opacity="0.1"/>
<stop offset="0.93" stop-color="white" stop-opacity="0.3"/>
<stop offset="0.95" stop-color="white" stop-opacity="0.19"/>
<stop offset="0.97" stop-color="white" stop-opacity="0.09"/>
<stop offset="0.99" stop-color="white" stop-opacity="0.02"/>
<stop offset="1" stop-color="white" stop-opacity="0"/>
</radialGradient>
<radialGradient id="paint23_radial_22_18814" cx="0" cy="0" r="1" gradientUnits="userSpaceOnUse" gradientTransform="translate(1368.16 269.756) scale(56.5038)">
<stop offset="0.89" stop-color="white" stop-opacity="0.3"/>
<stop offset="0.92" stop-color="white" stop-opacity="0.19"/>
<stop offset="0.95" stop-color="white" stop-opacity="0.09"/>
<stop offset="0.98" stop-color="white" stop-opacity="0.02"/>
<stop offset="1" stop-color="white" stop-opacity="0"/>
</radialGradient>
<radialGradient id="paint24_radial_22_18814" cx="0" cy="0" r="1" gradientUnits="userSpaceOnUse" gradientTransform="translate(1229.32 338.618) rotate(-180) scale(83.7948)">
<stop offset="0.84" stop-color="white" stop-opacity="0.5"/>
<stop offset="0.86" stop-color="white" stop-opacity="0.48"/>
<stop offset="0.89" stop-color="white" stop-opacity="0.41"/>
<stop offset="0.93" stop-color="white" stop-opacity="0.31"/>
<stop offset="0.96" stop-color="white" stop-opacity="0.17"/>
<stop offset="1" stop-color="white" stop-opacity="0"/>
</radialGradient>
<radialGradient id="paint25_radial_22_18814" cx="0" cy="0" r="1" gradientUnits="userSpaceOnUse" gradientTransform="translate(1377.01 326.278) rotate(-180) scale(81.266)">
<stop offset="0.89" stop-color="white" stop-opacity="0.3"/>
<stop offset="0.92" stop-color="white" stop-opacity="0.19"/>
<stop offset="0.95" stop-color="white" stop-opacity="0.09"/>
<stop offset="0.98" stop-color="white" stop-opacity="0.02"/>
<stop offset="1" stop-color="white" stop-opacity="0"/>
</radialGradient>
<radialGradient id="paint26_radial_22_18814" cx="0" cy="0" r="1" gradientUnits="userSpaceOnUse" gradientTransform="translate(1368.94 403.457) rotate(-180) scale(68.5612)">
<stop offset="0.71" stop-color="white" stop-opacity="0.5"/>
<stop offset="0.75" stop-color="white" stop-opacity="0.48"/>
<stop offset="0.81" stop-color="white" stop-opacity="0.41"/>
<stop offset="0.87" stop-color="white" stop-opacity="0.31"/>
<stop offset="0.94" stop-color="white" stop-opacity="0.17"/>
<stop offset="1" stop-color="white" stop-opacity="0"/>
</radialGradient>
<radialGradient id="paint27_radial_22_18814" cx="0" cy="0" r="1" gradientUnits="userSpaceOnUse" gradientTransform="translate(1276.61 180.02) rotate(180) scale(64.7578 64.7579)">
<stop offset="0.93" stop-color="white" stop-opacity="0.5"/>
<stop offset="0.94" stop-color="white" stop-opacity="0.48"/>
<stop offset="0.95" stop-color="white" stop-opacity="0.41"/>
<stop offset="0.97" stop-color="white" stop-opacity="0.31"/>
<stop offset="0.98" stop-color="white" stop-opacity="0.17"/>
<stop offset="1" stop-color="white" stop-opacity="0"/>
</radialGradient>
<radialGradient id="paint28_radial_22_18814" cx="0" cy="0" r="1" gradientUnits="userSpaceOnUse" gradientTransform="translate(1266.61 385.27) rotate(-180) scale(87.5981 87.5981)">
<stop offset="0.89" stop-color="white" stop-opacity="0.3"/>
<stop offset="0.92" stop-color="white" stop-opacity="0.19"/>
<stop offset="0.95" stop-color="white" stop-opacity="0.09"/>
<stop offset="0.98" stop-color="white" stop-opacity="0.02"/>
<stop offset="1" stop-color="white" stop-opacity="0"/>
</radialGradient>
<radialGradient id="paint29_radial_22_18814" cx="0" cy="0" r="1" gradientUnits="userSpaceOnUse" gradientTransform="translate(1386.62 235.993) rotate(-180) scale(31.7417)">
<stop offset="0.49" stop-color="white" stop-opacity="0.1"/>
<stop offset="0.59" stop-color="white" stop-opacity="0.12"/>
<stop offset="0.73" stop-color="white" stop-opacity="0.19"/>
<stop offset="0.88" stop-color="white" stop-opacity="0.3"/>
<stop offset="0.89" stop-color="white" stop-opacity="0.3"/>
<stop offset="0.91" stop-color="white" stop-opacity="0.19"/>
<stop offset="0.95" stop-color="white" stop-opacity="0.09"/>
<stop offset="0.98" stop-color="white" stop-opacity="0.02"/>
<stop offset="1" stop-color="white" stop-opacity="0"/>
</radialGradient>
<radialGradient id="paint30_radial_22_18814" cx="0" cy="0" r="1" gradientUnits="userSpaceOnUse" gradientTransform="translate(1465.19 374.417) rotate(-180) scale(73.6391 73.6391)">
<stop offset="0.89" stop-color="white" stop-opacity="0.3"/>
<stop offset="0.92" stop-color="white" stop-opacity="0.19"/>
<stop offset="0.95" stop-color="white" stop-opacity="0.09"/>
<stop offset="0.98" stop-color="white" stop-opacity="0.02"/>
<stop offset="1" stop-color="white" stop-opacity="0"/>
</radialGradient>
<radialGradient id="paint31_radial_22_18814" cx="0" cy="0" r="1" gradientUnits="userSpaceOnUse" gradientTransform="translate(1465.2 288.583) rotate(-180) scale(52.0531 52.0531)">
<stop offset="0.54" stop-color="white" stop-opacity="0.1"/>
<stop offset="0.93" stop-color="white" stop-opacity="0.3"/>
<stop offset="0.95" stop-color="white" stop-opacity="0.19"/>
<stop offset="0.97" stop-color="white" stop-opacity="0.09"/>
<stop offset="0.99" stop-color="white" stop-opacity="0.02"/>
<stop offset="1" stop-color="white" stop-opacity="0"/>
</radialGradient>
<radialGradient id="paint32_radial_22_18814" cx="0" cy="0" r="1" gradientUnits="userSpaceOnUse" gradientTransform="translate(1116.62 308.94) rotate(-180) scale(82.5202)">
<stop offset="0.49" stop-color="white" stop-opacity="0.1"/>
<stop offset="0.59" stop-color="white" stop-opacity="0.12"/>
<stop offset="0.73" stop-color="white" stop-opacity="0.19"/>
<stop offset="0.88" stop-color="white" stop-opacity="0.3"/>
<stop offset="0.89" stop-color="white" stop-opacity="0.3"/>
<stop offset="0.91" stop-color="white" stop-opacity="0.19"/>
<stop offset="0.95" stop-color="white" stop-opacity="0.09"/>
<stop offset="0.98" stop-color="white" stop-opacity="0.02"/>
<stop offset="1" stop-color="white" stop-opacity="0"/>
</radialGradient>
<radialGradient id="paint33_radial_22_18814" cx="0" cy="0" r="1" gradientUnits="userSpaceOnUse" gradientTransform="translate(1498.13 497.448) rotate(-180) scale(88.8726 88.8727)">
<stop offset="0.71" stop-color="white" stop-opacity="0.5"/>
<stop offset="0.75" stop-color="white" stop-opacity="0.48"/>
<stop offset="0.81" stop-color="white" stop-opacity="0.41"/>
<stop offset="0.87" stop-color="white" stop-opacity="0.31"/>
<stop offset="0.94" stop-color="white" stop-opacity="0.17"/>
<stop offset="1" stop-color="white" stop-opacity="0"/>
</radialGradient>
<radialGradient id="paint34_radial_22_18814" cx="0" cy="0" r="1" gradientUnits="userSpaceOnUse" gradientTransform="translate(310.819 223.729) scale(83.4104 83.4104)">
<stop offset="0.49" stop-color="white" stop-opacity="0.1"/>
<stop offset="0.59" stop-color="white" stop-opacity="0.12"/>
<stop offset="0.73" stop-color="white" stop-opacity="0.19"/>
<stop offset="0.88" stop-color="white" stop-opacity="0.3"/>
<stop offset="0.89" stop-color="white" stop-opacity="0.3"/>
<stop offset="0.91" stop-color="white" stop-opacity="0.19"/>
<stop offset="0.95" stop-color="white" stop-opacity="0.09"/>
<stop offset="0.98" stop-color="white" stop-opacity="0.02"/>
<stop offset="1" stop-color="white" stop-opacity="0"/>
</radialGradient>
<radialGradient id="paint35_radial_22_18814" cx="0" cy="0" r="1" gradientUnits="userSpaceOnUse" gradientTransform="translate(344.093 404.948) scale(111.531)">
<stop offset="0.89" stop-color="white" stop-opacity="0.3"/>
<stop offset="0.92" stop-color="white" stop-opacity="0.19"/>
<stop offset="0.95" stop-color="white" stop-opacity="0.09"/>
<stop offset="0.98" stop-color="white" stop-opacity="0.02"/>
<stop offset="1" stop-color="white" stop-opacity="0"/>
</radialGradient>
<radialGradient id="paint36_radial_22_18814" cx="0" cy="0" r="1" gradientUnits="userSpaceOnUse" gradientTransform="translate(785.528 172.384) scale(172.384)">
<stop offset="0.89" stop-color="white" stop-opacity="0.3"/>
<stop offset="0.92" stop-color="white" stop-opacity="0.19"/>
<stop offset="0.95" stop-color="white" stop-opacity="0.09"/>
<stop offset="0.98" stop-color="white" stop-opacity="0.02"/>
<stop offset="1" stop-color="white" stop-opacity="0"/>
</radialGradient>
<radialGradient id="paint37_radial_22_18814" cx="0" cy="0" r="1" gradientUnits="userSpaceOnUse" gradientTransform="translate(141.268 332.84) rotate(-180) scale(69.7548)">
<stop offset="0.54" stop-color="white" stop-opacity="0.1"/>
<stop offset="0.93" stop-color="white" stop-opacity="0.3"/>
<stop offset="0.95" stop-color="white" stop-opacity="0.19"/>
<stop offset="0.97" stop-color="white" stop-opacity="0.09"/>
<stop offset="0.99" stop-color="white" stop-opacity="0.02"/>
<stop offset="1" stop-color="white" stop-opacity="0"/>
</radialGradient>
<radialGradient id="paint38_radial_22_18814" cx="0" cy="0" r="1" gradientUnits="userSpaceOnUse" gradientTransform="translate(750.706 316.209) scale(24.5598)">
<stop offset="0.71" stop-color="white" stop-opacity="0.5"/>
<stop offset="0.75" stop-color="white" stop-opacity="0.48"/>
<stop offset="0.81" stop-color="white" stop-opacity="0.41"/>
<stop offset="0.87" stop-color="white" stop-opacity="0.31"/>
<stop offset="0.94" stop-color="white" stop-opacity="0.17"/>
<stop offset="1" stop-color="white" stop-opacity="0"/>
</radialGradient>
</defs>
</svg>
