<svg width="64" height="64" viewBox="0 0 64 64" fill="none" xmlns="http://www.w3.org/2000/svg">
<path d="M48.4419 10.7227V36.7377L58.253 27.0489C57.093 20.5899 53.6017 14.7816 48.4419 10.7267" fill="#727270"/>
<path d="M47.0016 9.66373C42.55 6.61023 37.2763 4.9799 31.878 4.98831C30.8778 4.98891 29.8783 5.04491 28.8843 5.15607L47.0016 23.4671V9.66373Z" fill="#727270"/>
<path d="M9.75992 16.6582C6.70643 21.1099 5.07609 26.3835 5.08451 31.7818C5.08465 32.8966 5.15367 34.0104 5.29117 35.1167L23.5868 16.6582H9.75992Z" fill="#727270"/>
<path d="M53.9964 46.9065C57.0497 42.4547 58.68 37.1812 58.6718 31.7829C58.672 30.7925 58.6179 29.8029 58.5097 28.8184L40.1938 46.9065H53.9964Z" fill="#727270"/>
<path d="M16.7544 53.9021C21.2061 56.9556 26.4797 58.586 31.878 58.5776C32.9204 58.577 33.9619 58.5161 34.9973 58.3952L16.7544 40.0898V53.9021Z" fill="#727270"/>
<path d="M27.1107 5.41406C20.6626 6.5793 14.8655 10.0682 10.8169 15.2204H36.8133L27.1107 5.41406Z" fill="#727270"/>
<path d="M36.7671 58.1304C43.1674 56.9432 48.9161 53.4655 52.9386 48.3477H27.0176L36.7671 58.1304Z" fill="#727270"/>
<path d="M15.3139 52.8441V27.0527L5.5708 36.8817C6.79451 43.2015 10.2532 48.8691 15.3139 52.8473" fill="#727270"/>
<path d="M61.0747 19.4479C58.0156 12.1837 52.3666 6.3154 45.2242 2.98209C38.0818 -0.35123 29.9556 -0.911701 22.4231 1.40948C14.8907 3.73066 8.48952 8.76789 4.46219 15.5433C0.434859 22.3186 -0.93125 30.3488 0.629069 38.0747C2.18939 45.8007 6.56481 52.6713 12.9059 57.3527C19.247 62.034 27.1014 64.1922 34.9443 63.4083C42.7872 62.6243 50.0589 58.9541 55.3479 53.1101C60.6369 47.2662 63.5658 39.6655 63.5659 31.7835C63.5713 27.5464 62.7241 23.3507 61.0747 19.4479ZM31.8778 60.5905C26.1803 60.5905 20.6108 58.901 15.8735 55.7357C11.1362 52.5703 7.44397 48.0713 5.26363 42.8075C3.0833 37.5437 2.51282 31.7516 3.62435 26.1636C4.73587 20.5756 7.47947 15.4426 11.5082 11.4139C15.5369 7.38518 20.6699 4.64158 26.2579 3.53006C31.8459 2.41853 37.638 2.98901 42.9018 5.16934C48.1656 7.34967 52.6646 11.0419 55.83 15.7792C58.9953 20.5165 60.6848 26.0861 60.6848 31.7835C60.6848 39.4236 57.6498 46.7508 52.2475 52.1532C46.8451 57.5555 39.5179 60.5905 31.8778 60.5905Z" fill="#727270"/>
</svg>
