<svg width="108" height="108" viewBox="0 0 108 108" fill="none" xmlns="http://www.w3.org/2000/svg">
<path d="M54 106H56V105.96C62.3091 105.724 68.4387 104.365 74.2422 101.91C80.4345 99.2909 85.9975 95.5399 90.7693 90.7682C95.541 85.9964 99.292 80.4334 101.911 74.2411L101.911 74.2409C104.623 67.8262 105.999 61.013 105.999 53.9989C105.999 46.9851 104.624 40.1717 101.911 33.7567C99.292 27.5644 95.541 22.0014 90.7693 17.2296C85.9975 12.4579 80.4345 8.70688 74.2422 6.08801L74.242 6.08794C67.8274 3.37576 61.0141 2 54 2C46.9859 2 40.1726 3.37577 33.7567 6.08911L33.7567 6.08911C27.5644 8.70798 22.0014 12.459 17.2297 17.2308C12.4579 22.0025 8.70688 27.5655 6.08801 33.7578L6.08794 33.758C3.37576 40.1726 2 46.9859 2 54C2 61.0141 3.37577 67.8274 6.08911 74.2433L7.92591 73.4665L6.08911 74.2433C8.70798 80.4356 12.459 85.9986 17.2308 90.7703C22.0025 95.5421 27.5655 99.2931 33.7578 101.912L33.758 101.912C40.1726 104.624 46.9859 106 54 106Z" fill="#12C28C" stroke="white" stroke-width="4"/>
<path d="M81.3686 32.4969L103.49 58.5799C103.49 58.5799 102.279 79.2701 87.8618 90.6058C73.4446 101.941 63.0995 103.152 63.0995 103.152L40.4866 77.4102L81.3686 32.4969Z" fill="url(#paint0_linear_304_11301)"/>
<path d="M80.9016 31.8545C78.6114 29.8757 75.1502 30.1255 73.1703 32.418L44.6342 65.4409L37.8868 57.6337C35.9069 55.3423 32.4446 55.0903 30.1555 57.0702C27.8652 59.0501 27.6121 62.5113 29.592 64.8015L40.4863 77.4094C41.5274 78.6145 43.0418 79.3067 44.6342 79.3067C46.2267 79.3067 47.7411 78.6145 48.7822 77.4094L81.4662 39.5869C83.4461 37.2967 83.193 33.8355 80.9027 31.8556L80.9016 31.8545Z" fill="white"/>
<defs>
<linearGradient id="paint0_linear_304_11301" x1="54.6836" y1="50.9564" x2="100.927" y2="95.4019" gradientUnits="userSpaceOnUse">
<stop stop-color="#14AB7D"/>
<stop offset="1" stop-color="#12C28C"/>
</linearGradient>
</defs>
</svg>
