<svg width="76" height="14" viewBox="0 0 76 14" fill="none" xmlns="http://www.w3.org/2000/svg">
<path d="M6.646 0.399999H22.504V2.38H6.646C6.118 2.368 5.614 2.446 5.134 2.614C4.654 2.782 4.216 3.022 3.82 3.334C3.436 3.634 3.106 3.994 2.83 4.414C2.554 4.834 2.362 5.284 2.254 5.764L2.2 6.016C2.176 6.112 2.158 6.214 2.146 6.322C2.134 6.43 2.122 6.55 2.11 6.682C2.11 7.246 2.224 7.792 2.452 8.32C2.692 8.836 3.01 9.298 3.406 9.706C3.814 10.102 4.294 10.42 4.846 10.66C5.41 10.9 6.016 11.02 6.664 11.02H22.522V12.982H6.664C5.776 12.982 4.93 12.82 4.126 12.496C3.322 12.172 2.614 11.728 2.002 11.164C1.402 10.588 0.922 9.922 0.562 9.166C0.214 8.398 0.04 7.57 0.04 6.682C0.04 5.806 0.22 4.984 0.58 4.216C0.94 3.448 1.42 2.782 2.02 2.218C2.632 1.654 3.334 1.21 4.126 0.885999C4.93 0.561999 5.77 0.399999 6.646 0.399999ZM27.5049 0.399999H42.8589C43.3389 0.399999 43.7949 0.489999 44.2269 0.669999C44.6589 0.838 45.0369 1.078 45.3609 1.39C45.6849 1.69 45.9369 2.044 46.1169 2.452C46.3089 2.86 46.4049 3.298 46.4049 3.766V9.67C46.4049 10.138 46.3089 10.576 46.1169 10.984C45.9369 11.392 45.6849 11.752 45.3609 12.064C45.0369 12.364 44.6589 12.604 44.2269 12.784C43.7949 12.952 43.3389 13.036 42.8589 13.036H27.5049C27.0129 13.036 26.5509 12.952 26.1189 12.784C25.6989 12.604 25.3269 12.364 25.0029 12.064C24.6789 11.752 24.4209 11.392 24.2289 10.984C24.0489 10.576 23.9589 10.138 23.9589 9.67V3.766C23.9589 3.298 24.0489 2.86 24.2289 2.452C24.4209 2.044 24.6789 1.69 25.0029 1.39C25.3269 1.078 25.6989 0.838 26.1189 0.669999C26.5509 0.489999 27.0129 0.399999 27.5049 0.399999ZM27.4869 11.038H42.8409C43.0569 11.038 43.2549 11.002 43.4349 10.93C43.6149 10.846 43.7709 10.744 43.9029 10.624C44.0469 10.492 44.1549 10.342 44.2269 10.174C44.3109 10.006 44.3529 9.832 44.3529 9.652V3.748C44.3529 3.568 44.3109 3.394 44.2269 3.226C44.1549 3.058 44.0469 2.914 43.9029 2.794C43.7709 2.662 43.6149 2.56 43.4349 2.488C43.2549 2.416 43.0569 2.38 42.8409 2.38H27.4869C27.2709 2.38 27.0729 2.416 26.8929 2.488C26.7129 2.56 26.5509 2.662 26.4069 2.794C26.2749 2.914 26.1669 3.058 26.0829 3.226C26.0109 3.394 25.9749 3.568 25.9749 3.748V9.652C25.9749 9.832 26.0109 10.006 26.0829 10.174C26.1669 10.342 26.2749 10.492 26.4069 10.624C26.5509 10.744 26.7129 10.846 26.8929 10.93C27.0729 11.002 27.2709 11.038 27.4869 11.038ZM48.5683 13V0.399999H50.6383V13H48.5683ZM52.8046 12.91V0.327999L73.2166 9.85V0.399999H75.2686V13C75.2686 13 75.2386 12.988 75.1786 12.964C75.1306 12.94 75.0106 12.886 74.8186 12.802C74.6386 12.706 74.3566 12.568 73.9726 12.388C73.5886 12.208 73.0666 11.962 72.4066 11.65C71.7466 11.338 70.9186 10.954 69.9226 10.498C68.9386 10.03 67.7386 9.466 66.3226 8.806C64.9066 8.146 63.2566 7.378 61.3726 6.502C59.4886 5.614 57.3226 4.6 54.8746 3.46V12.91H52.8046Z" fill="#BE3F50"/>
</svg>
