<svg width="61" height="61" viewBox="0 0 61 61" fill="none" xmlns="http://www.w3.org/2000/svg">
<path d="M30.4998 60.9996C26.3832 60.9996 22.3888 60.1926 18.6273 58.6023C14.9955 57.0663 11.7335 54.867 8.93337 52.0669C6.13326 49.2668 3.93398 46.0048 2.39798 42.3729C0.806937 38.6108 0 34.6164 0 30.4998C0 26.3832 0.806937 22.3888 2.39731 18.6273C3.93331 14.9955 6.13258 11.7335 8.93269 8.93337C11.7328 6.13326 14.9948 3.93398 18.6267 2.39798C22.3888 0.806936 26.3832 0 30.4998 0C34.6164 0 38.6108 0.806936 42.3722 2.39731C46.0041 3.93331 49.2661 6.13258 52.0662 8.93269C54.8663 11.7328 57.0656 14.9948 58.6016 18.6267C60.1926 22.3881 60.9989 26.3825 60.9989 30.4991C60.9989 34.6157 60.192 38.6101 58.6016 42.3715C57.0656 46.0034 54.8663 49.2654 52.0662 52.0655C49.2661 54.8656 46.0041 57.0649 42.3722 58.6009C38.6108 60.192 34.6164 60.9982 30.4998 60.9982V60.9996Z" fill="#12C28C"/>
<path d="M47.1947 17.3828L60.6884 33.2933C60.6884 33.2933 59.9499 45.9143 51.1555 52.8289C42.3611 59.7436 36.0506 60.4821 36.0506 60.4821L22.2568 44.7797L47.1947 17.3828Z" fill="url(#paint0_linear_282_1122)"/>
<path d="M46.9094 16.9918C45.5123 15.7847 43.401 15.9371 42.1933 17.3355L24.7864 37.4793L20.6705 32.7169C19.4628 31.3192 17.3508 31.1655 15.9544 32.3732C14.5574 33.5809 14.403 35.6923 15.6107 37.0893L22.2562 44.78C22.8913 45.5151 23.815 45.9374 24.7864 45.9374C25.7578 45.9374 26.6816 45.5151 27.3167 44.78L47.2538 21.7085C48.4615 20.3115 48.3071 18.2001 46.9101 16.9924L46.9094 16.9918Z" fill="white"/>
<defs>
<linearGradient id="paint0_linear_282_1122" x1="30.917" y1="28.643" x2="59.1255" y2="55.7546" gradientUnits="userSpaceOnUse">
<stop stop-color="#14AB7D"/>
<stop offset="1" stop-color="#12C28C"/>
</linearGradient>
</defs>
</svg>
