<svg width="100" height="100" viewBox="0 0 100 100" fill="none" xmlns="http://www.w3.org/2000/svg">
<path d="M50 100C43.2515 100 36.7032 98.6771 30.5368 96.0699C24.5829 93.5519 19.2353 89.9465 14.645 85.3561C10.0546 80.7658 6.4492 75.4182 3.93115 69.4642C1.32286 63.2968 0 56.7485 0 50C0 43.2515 1.32286 36.7032 3.93005 30.5368C6.4481 24.5829 10.0535 19.2353 14.6439 14.645C19.2342 10.0546 24.5818 6.4492 30.5357 3.93115C36.7032 1.32286 43.2515 0 50 0C56.7486 0 63.2968 1.32286 69.4632 3.93005C75.4171 6.4481 80.7647 10.0535 85.355 14.6439C89.9454 19.2342 93.5508 24.5818 96.0688 30.5357C98.6771 36.7021 99.9989 43.2504 99.9989 49.9989C99.9989 56.7474 98.676 63.2957 96.0688 69.462C93.5508 75.416 89.9454 80.7636 85.355 85.3539C80.7647 89.9443 75.4171 93.5497 69.4632 96.0677C63.2968 98.676 56.7486 99.9978 50 99.9978V100Z" fill="#12C28C"/>
<path d="M77.3686 28.4971L99.4895 54.58C99.4895 54.58 98.2789 75.2703 83.8618 86.6059C69.4446 97.9415 59.0995 99.1521 59.0995 99.1521L36.4866 73.4103L77.3686 28.4971Z" fill="url(#paint0_linear_275_7188)"/>
<path d="M76.9016 27.855C74.6114 25.8762 71.1502 26.126 69.1703 28.4185L40.6342 61.4414L33.8868 53.6342C31.9069 51.3428 28.4446 51.0908 26.1555 53.0707C23.8652 55.0506 23.6121 58.5118 25.592 60.802L36.4863 73.4099C37.5274 74.615 39.0418 75.3072 40.6342 75.3072C42.2267 75.3072 43.7411 74.615 44.7822 73.4099L77.4662 35.5874C79.4461 33.2972 79.193 29.836 76.9027 27.8561L76.9016 27.855Z" fill="white"/>
<defs>
<linearGradient id="paint0_linear_275_7188" x1="50.6836" y1="46.9565" x2="96.9274" y2="91.4021" gradientUnits="userSpaceOnUse">
<stop stop-color="#14AB7D"/>
<stop offset="1" stop-color="#12C28C"/>
</linearGradient>
</defs>
</svg>
