<svg width="169" height="338" viewBox="0 0 169 338" fill="none" xmlns="http://www.w3.org/2000/svg">
<g clip-path="url(#clip0_270_5498)">
<g clip-path="url(#clip1_270_5498)">
<mask id="mask0_270_5498" style="mask-type:luminance" maskUnits="userSpaceOnUse" x="0" y="0" width="169" height="169">
<path d="M14.4604 0H154.534C162.514 0 168.994 6.48071 168.994 14.4604V154.534C168.994 162.514 162.514 168.994 154.534 168.994H14.4604C6.48071 168.994 0 162.514 0 154.534V14.4604C0 6.48071 6.48071 0 14.4604 0Z" fill="white"/>
</mask>
<g mask="url(#mask0_270_5498)">
<path opacity="0.41" d="M14.4603 0.550781H154.534C162.211 0.550781 168.443 6.78351 168.443 14.4601V154.534C168.443 162.21 162.211 168.443 154.534 168.443H14.4603C6.78375 168.443 0.551025 162.21 0.551025 154.534V14.4601C0.551025 6.78351 6.78375 0.550781 14.4603 0.550781Z" fill="url(#paint0_linear_270_5498)"/>
<path d="M14.4603 0.550781H154.534C162.211 0.550781 168.443 6.78351 168.443 14.4601V154.534C168.443 162.21 162.211 168.443 154.534 168.443H14.4603C6.78375 168.443 0.551025 162.21 0.551025 154.534V14.4601C0.551025 6.78351 6.78375 0.550781 14.4603 0.550781Z" stroke="url(#paint1_linear_270_5498)" stroke-width="2" stroke-miterlimit="10"/>
<path opacity="0.2" d="M132.265 49.7788C144.637 49.7788 156.733 50.9526 168.449 53.19V14.4601C168.449 6.778 162.222 0.550781 154.54 0.550781H14.4603C6.77824 0.550781 0.551025 6.778 0.551025 14.4601V102.236C34.8834 69.7225 81.2458 49.7788 132.265 49.7788Z" fill="url(#paint2_linear_270_5498)"/>
<path opacity="0.72" d="M69.6566 176.473C110.476 176.473 143.568 172.881 143.568 168.45C143.568 164.018 110.476 160.426 69.6566 160.426C28.8367 160.426 -4.25439 164.018 -4.25439 168.45C-4.25439 172.881 28.8367 176.473 69.6566 176.473Z" fill="url(#paint3_radial_270_5498)"/>
<path opacity="0.61" d="M114.873 168.449C114.873 170.378 94.6261 171.938 69.6566 171.938C44.6871 171.938 24.4404 170.373 24.4404 168.449C24.4404 166.526 44.6871 164.961 69.6566 164.961C94.6261 164.961 114.873 166.526 114.873 168.449Z" fill="url(#paint4_radial_270_5498)"/>
<path opacity="0.61" d="M34.8117 4.95987C53.7334 4.95987 69.0724 2.98605 69.0724 0.551226C69.0724 -1.8836 53.7334 -3.85742 34.8117 -3.85742C15.8901 -3.85742 0.551025 -1.8836 0.551025 0.551226C0.551025 2.98605 15.8901 4.95987 34.8117 4.95987Z" fill="url(#paint5_radial_270_5498)"/>
</g>
</g>
<path d="M19.9231 201.146C19.7335 202.399 18.5399 203.962 18.2833 204.46C18.0323 204.959 17.4021 204.649 16.0802 205.774C14.7583 206.899 16.0802 209.027 16.2085 209.276C16.3367 209.525 16.0188 210.024 19.6721 210.09C23.3254 210.151 23.9557 209.342 24.268 209.154C24.5804 208.966 24.268 207.968 24.5804 206.466C24.8983 204.965 25.4616 203.274 25.9023 203.341C26.3429 203.402 26.2146 209.847 26.2146 209.847H27.5365C27.6648 207.159 28.295 202.587 28.7357 201.34C29.1763 200.088 29.5556 197.273 29.4273 195.522C29.299 193.771 26.8449 192.081 26.8449 192.081C26.7222 190.579 27.0959 183.635 28.4847 179.318C29.8679 175.002 30.3755 172.813 30.3755 169.371C30.3755 165.93 29.3715 164.24 29.8065 163.176C30.2472 162.112 31.0671 157.795 31.4463 155.856C31.8256 153.916 31.7643 150.913 32.0766 149.538C32.389 148.164 33.3371 145.72 33.7108 144.595C33.8893 144.069 34.079 143.232 34.2295 142.484C35.4678 142.484 36.7618 142.478 38.0948 142.451C38.4295 144.745 39.0764 148.934 39.6956 151.345C39.6956 151.345 40.0135 154.16 40.0748 155.977C40.1362 157.79 40.2645 159.419 41.0844 160.854C41.9043 162.295 42.3449 164.168 42.6572 165.925C42.9752 167.676 43.9178 175.245 44.1074 177.246C44.297 179.246 45.6189 186.877 45.1783 188.634C44.7377 190.385 44.3584 192.263 44.0461 193.072C43.7281 193.887 43.6668 195.638 43.6054 196.137C43.5441 196.636 42.3449 199.14 42.2835 199.955C42.2222 200.77 40.1418 205.02 39.8908 205.707C39.6398 206.394 39.5728 208.96 40.4541 209.647C41.3354 210.334 48.0731 209.897 48.0731 209.897C48.0731 209.897 48.5137 208.583 48.893 207.519C49.2722 206.455 49.0826 203.956 49.5846 202.765C50.0865 201.579 51.1574 198.946 51.0347 198.01C50.9064 197.073 49.6515 192.13 49.6515 191.565C49.6515 191 49.5901 190.252 49.8411 189.315C50.0921 188.379 51.665 182.122 51.9829 179.806C52.2953 177.49 53.8068 166.983 52.6745 162.855C51.5423 158.726 50.0308 156.975 50.912 153.661C51.6817 150.763 52.4068 143.598 52.7415 141.725C53.9016 141.619 54.794 141.481 55.3239 141.304C55.4075 141.292 55.4856 141.281 55.5693 141.276C55.5693 141.276 55.5247 141.276 55.4298 141.265C55.5581 141.215 55.6585 141.165 55.7255 141.11C55.7255 141.11 55.1231 124.391 54.1191 120.844C54.1916 119.581 54.3924 115.63 54.1805 114.233C53.9295 112.565 53.3383 111.811 53.0036 110.648C52.8307 110.044 52.4514 109.213 52.1279 108.409C52.1837 108.149 52.2618 107.722 52.2841 107.4C52.3287 106.902 52.2841 107.4 52.6188 106.397C52.9534 105.394 53.249 104.269 53.2936 102.934C53.3327 101.598 53.3773 101.848 53.5893 100.307C53.8012 98.7667 54.2195 97.7194 54.8888 95.137C55.5637 92.5491 56.6123 88.2157 56.5677 85.9215C56.523 83.6273 56.59 82.4913 56.3334 80.7734C56.1717 79.6983 55.4745 76.8334 55.1398 75.8747C54.8052 74.916 53.2825 73.7356 53.0371 73.7966C53.0371 73.7966 53.0315 73.7966 53.0259 73.7966C52.9869 73.7024 52.9088 73.6137 52.747 73.453C52.2451 72.9543 47.6268 70.6989 46.8739 70.6158C46.74 70.5991 46.2938 70.5437 45.6189 70.4717C45.0165 70.1558 42.2947 68.6873 41.96 67.906C41.5808 67.0304 41.2071 65.1518 41.7091 65.0299C42.211 64.9025 44.2245 62.4032 44.7321 60.9015C45.2341 59.3997 46.9966 53.6476 45.3624 50.1454C43.7226 46.6431 39.8238 43.1409 35.161 43.889C30.4982 44.6371 30.6264 45.7676 30.6264 45.7676C29.1149 45.6401 26.8504 47.0199 25.3389 49.1423C23.8274 51.2703 23.6991 53.6476 24.2067 55.8975C24.7087 58.1529 26.3485 63.2788 27.86 64.5312C29.3715 65.7836 31.2623 65.9055 31.5133 66.5317C31.7643 67.1579 32.2662 68.4102 31.385 69.2858L30.6822 69.8677C30.4703 69.8954 30.2695 69.9231 30.0798 69.9563C30.0798 69.9563 29.8289 69.8732 28.8193 70.2888L25.8799 71.4581C25.8799 71.4581 25.8967 71.5467 25.9246 71.6964C25.8967 71.6853 25.8688 71.6687 25.8409 71.6631C25.3222 71.508 22.1876 72.1951 21.2729 72.7603C20.3582 73.3256 19.6665 73.3256 19.3207 74.2953C18.9749 75.2651 18.0602 78.7674 17.904 82.3971C17.7479 86.0268 17.9375 89.4015 18.2164 92.6544C18.5008 95.9073 19.4434 99.7864 19.7614 101.759C20.0793 103.732 19.7614 105.699 21.2729 106.481C22.0035 106.857 22.3494 107.007 22.5836 107.001C22.4274 107.184 22.3828 107.184 22.433 107.744C22.5167 108.658 22.0984 108.409 22.0147 109.08C21.931 109.744 21.7637 109.911 21.68 110.748C21.5964 111.579 21.5127 111.751 21.1781 112.748C20.8434 113.751 20.3359 112.914 20.5032 114.167C20.6705 115.419 20.5868 114.998 20.2522 116.755C19.9622 118.267 20.0458 119.276 20.0737 119.531C19.9789 119.819 19.8952 120.124 19.8618 120.362C19.7781 121.027 19.6108 121.614 19.2761 122.196C18.9415 122.778 18.6068 123.615 18.6068 124.114C18.6068 124.612 18.7741 126.286 18.9415 127.283C19.1088 128.286 18.7741 131.789 18.8578 132.952C18.9415 134.116 18.7741 138.876 18.7741 139.375V141.852C18.7741 141.852 18.7518 141.852 18.7407 141.852C18.7407 141.852 18.7518 141.852 18.7741 141.852V141.952C18.7741 141.952 18.8522 141.952 18.9917 141.963C19.0753 143.548 19.4156 149.887 19.4156 152.237C19.4156 154.925 20.1685 158.804 20.0458 164.683C19.1032 171.128 19.2929 173.943 19.5438 176.631C19.7948 179.318 20.6761 188.019 20.8657 189.953C21.0554 191.892 20.994 196.957 20.6147 197.583C20.2355 198.209 20.1128 199.9 19.9231 201.152V201.146Z" fill="#F7C98D"/>
<path d="M55.5136 278.855C55.6084 278.849 55.6531 278.844 55.6531 278.844C55.5694 278.833 55.4913 278.827 55.4076 278.816C54.8778 278.639 53.9854 278.5 52.8252 278.395C52.4906 276.522 51.7655 269.362 50.9958 266.459C50.1145 263.145 51.6261 261.394 52.7583 257.265C53.8906 253.137 52.379 242.625 52.0667 240.314C51.7543 237.997 50.1759 231.746 49.9249 230.804C49.6739 229.868 49.7353 229.114 49.7353 228.555C49.7353 227.995 50.9958 223.052 51.1185 222.11C51.2412 221.168 50.1759 218.541 49.6683 217.355C49.1664 216.164 49.356 213.664 48.9767 212.601C48.5975 211.537 48.1568 210.223 48.1568 210.223C48.1568 210.223 41.4191 209.785 40.5379 210.473C39.6566 211.16 39.718 213.725 39.9745 214.413C40.2255 215.1 42.3004 219.356 42.3673 220.165C42.4287 220.979 43.6279 223.479 43.6892 223.983C43.7506 224.482 43.8175 226.233 44.1298 227.047C44.4422 227.862 44.8214 229.735 45.2621 231.486C45.7027 233.237 44.3808 240.868 44.1912 242.874C44.0015 244.874 43.0589 252.444 42.741 254.195C42.4231 255.946 41.988 257.825 41.1681 259.266C40.3482 260.707 40.2255 262.33 40.1586 264.142C40.0973 265.954 39.7793 268.775 39.7793 268.775C39.1602 271.186 38.5132 275.38 38.1786 277.669C36.8455 277.647 35.5571 277.636 34.3189 277.636C34.1683 276.893 33.9787 276.051 33.8002 275.525C33.4209 274.4 32.4783 271.961 32.166 270.582C31.848 269.207 31.915 266.204 31.5357 264.264C31.1564 262.325 30.3421 258.008 29.9015 256.944C29.4609 255.88 30.4648 254.19 30.4648 250.748C30.4648 247.307 29.9628 245.118 28.574 240.801C27.1908 236.484 26.8115 229.541 26.9342 228.039C26.9342 228.039 29.3883 226.349 29.5166 224.598C29.6449 222.847 29.2656 220.032 28.825 218.779C28.3844 217.527 27.7541 212.961 27.6258 210.273H26.304C26.304 210.273 26.4267 216.718 25.9916 216.779C25.551 216.84 24.9821 215.155 24.6697 213.653C24.3574 212.152 24.6697 211.154 24.3574 210.966C24.0395 210.777 23.4148 209.963 19.7615 210.029C16.1082 210.09 16.4261 210.594 16.2978 210.844C16.1695 211.093 14.8477 213.221 16.1695 214.346C17.4914 215.471 18.1217 215.161 18.3727 215.659C18.6237 216.158 19.8228 217.721 20.0125 218.973C20.2021 220.226 20.3248 221.916 20.7041 222.542C21.0834 223.168 21.1447 228.233 20.9551 230.173C20.7654 232.112 19.8842 240.807 19.6332 243.495C19.3822 246.182 19.1926 248.997 20.1352 255.442C20.2635 261.322 19.5049 265.201 19.5049 267.888C19.5049 270.232 19.1703 276.577 19.081 278.162L18.8635 278.173V278.273H18.83C18.8412 278.273 18.8523 278.273 18.8635 278.273V280.75C18.8635 281.249 19.0308 286.004 18.9472 287.173C18.8635 288.342 19.1981 291.844 19.0308 292.842C18.8635 293.845 18.6962 295.513 18.6962 296.012C18.6962 296.51 19.0308 297.347 19.3655 297.929C19.7001 298.511 19.8675 299.098 19.9511 299.763C19.979 300.007 20.0682 300.306 20.1631 300.594C20.1352 300.844 20.0515 301.858 20.3415 303.371C20.6762 305.122 20.7599 304.706 20.5925 305.959C20.4252 307.211 20.9272 306.374 21.2618 307.377C21.5965 308.38 21.6802 308.547 21.7638 309.378C21.8475 310.209 22.0148 310.381 22.0985 311.046C22.1821 311.716 22.6005 311.461 22.5168 312.381C22.4666 312.947 22.5112 312.941 22.6674 313.124C22.4331 313.118 22.0873 313.268 21.3567 313.645C19.8451 314.426 20.1631 316.399 19.8451 318.366L54.967 324.972C54.2977 322.389 53.8738 321.342 53.6675 319.801C53.4555 318.255 53.4165 318.51 53.3718 317.175C53.3272 315.839 53.0372 314.714 52.697 313.711C52.3623 312.708 52.4013 313.212 52.3623 312.708C52.3344 312.387 52.2563 311.96 52.2006 311.7C52.5241 310.891 52.8978 310.065 53.0762 309.461C53.4109 308.292 54.0021 307.544 54.2531 305.876C54.465 304.479 54.2643 300.528 54.1917 299.264C55.1957 295.718 55.7981 278.999 55.7981 278.999C55.7312 278.944 55.6252 278.894 55.4969 278.844L55.5136 278.855Z" fill="url(#paint6_linear_270_5498)"/>
<path d="M104.356 132.919C104.356 133.252 104.724 133.423 105.042 133.445C105.053 133.639 105.07 133.778 105.098 133.85C105.416 134.615 106.057 136.831 106.565 137.408C107.078 137.978 107.909 138.993 108.93 139.569C109.95 140.14 110.017 140.838 110.525 140.583C111.038 140.328 111.099 140.201 111.417 140.073C111.735 139.946 111.099 138.677 111.161 138.422C111.228 138.167 111.417 138.167 111.546 137.851C111.674 137.535 111.356 136.582 111.356 136.139C111.356 135.695 111.356 134.105 111.417 133.218C111.417 133.152 111.417 133.058 111.406 132.941C111.679 132.88 111.841 132.841 111.841 132.841C111.841 132.841 111.328 126.325 111.328 124.718C111.328 123.111 111.495 121.925 111.585 121.249C111.668 120.572 111.501 119.049 111.841 118.456C112.181 117.868 111.93 118.112 112.349 117.031C112.287 118.029 112.22 119.032 112.181 119.813C112.098 121.675 111.925 122.523 112.009 122.944C112.009 122.944 112.131 122.795 112.466 122.562C112.343 122.8 112.432 122.944 112.432 122.944C112.432 122.944 111.836 126.585 112.26 130.902C112.683 135.219 114.474 141.143 114.814 142.755C115.154 144.362 116.348 148.258 116.515 149.106C116.515 149.106 116.788 149.089 117.29 149.045C117.435 149.605 117.765 150.796 118.306 152.409C119.07 154.692 120.86 159.518 121.373 160.194C121.886 160.87 121.713 162.732 122.054 163.835C122.394 164.938 122.394 171.455 123.164 175.007C123.933 178.565 125.211 185.841 126.148 189.143C127.085 192.446 127.938 195.156 127.258 197.522C126.577 199.894 124.446 203.363 124.106 204.294C123.766 205.225 122.913 205.99 122.913 205.99C122.913 205.99 120.782 207.342 119.672 207.176C118.562 207.004 117.625 207.004 117.201 207.768C116.777 208.533 117.285 208.783 117.285 208.783C117.285 208.783 119.075 209.459 119.499 209.459C119.923 209.459 125.635 210.306 127.592 209.459L127.509 209.88C127.509 209.88 130.576 209.797 130.916 209.797C131.257 209.797 136.795 209.714 136.795 209.714C136.795 209.714 136.622 206.583 136.622 205.907C136.622 205.23 136.963 204.299 136.706 203.28C136.449 202.26 135.512 198.287 134.748 195.998C134.748 195.998 133.811 195.15 135.005 192.695C136.198 190.241 140.287 178.98 140.884 172.297C141.48 165.609 140.03 161.63 140.711 156.975C141.324 152.769 142.289 147.044 142.596 145.665C143.516 145.509 144.308 145.371 144.95 145.26C145.764 145.138 146.428 145.027 146.679 144.955L147.275 144.534C147.275 144.534 147.32 142.949 147.381 140.627C148.268 140.206 151.581 137.291 152 136.87C152.429 136.449 152.429 136.067 152.725 135.474C153.026 134.881 153.45 132.847 153.494 132.381C153.494 132.348 153.467 132.315 153.422 132.282C153.556 132.271 153.667 132.26 153.751 132.254C154.604 132.171 154.604 131.999 154.688 130.902C154.772 129.799 153.322 121.254 153.322 119.98C153.322 118.705 153.578 119.132 153.751 117.696C153.918 116.256 153.494 113.296 153.322 111.939C153.204 111.024 153.093 110.842 153.004 110.321C153.165 110.31 153.26 110.304 153.26 110.304C153.26 110.304 153.121 110.116 152.937 109.794C152.92 109.634 152.909 109.451 152.898 109.223C152.814 107.616 152.641 107.361 152.814 106.431C152.987 105.5 152.647 103.638 152.133 102.535C151.62 101.432 151.28 98.9772 150.6 98.3011C149.919 97.625 149.406 98.218 149.406 96.694C149.406 95.1701 149.233 95.087 149.149 93.3913C149.066 91.6956 148.809 91.6125 148.982 90.8533C149.149 90.0941 149.322 90.0941 149.149 89.3293C148.982 88.5646 149.066 87.2125 148.898 86.7027C148.726 86.1928 148.642 85.5999 148.642 84.076C148.642 82.5521 148.726 80.607 147.789 79.2493C146.852 77.8972 145.574 77.2156 145.145 76.4564C144.721 75.6916 145.485 75.6085 144.464 74.9325C143.444 74.2564 139.863 72.8987 138.669 72.1395C137.476 71.3748 137.308 71.4635 136.622 70.6156C135.942 69.7678 135.769 70.1945 135.602 69.1748C135.546 68.8368 135.434 68.4378 135.323 68.0333C135.468 68.0166 135.618 68.0499 135.775 68.1552C136.371 68.5763 136.204 67.9003 135.775 67.3073C135.624 67.0967 135.351 66.9471 135.055 66.8197C135.022 66.5038 135.044 66.2544 135.178 66.1214C135.607 65.7003 135.351 64.9355 135.094 64.9355C135.049 64.9355 134.687 64.8302 134.096 64.6695C134.012 64.5809 133.917 64.5033 133.817 64.4257C133.477 64.1708 133.644 63.5779 133.9 63.4116C134.157 63.2454 133.728 62.2257 133.728 62.2257C133.728 62.2257 134.241 62.2257 134.748 61.7159C135.261 61.2061 136.366 58.7512 136.449 57.9089C136.533 57.061 136.366 55.9638 136.366 55.7089C136.366 55.454 136.449 52.7442 136.539 52.1512C136.622 51.5583 135.685 47.6626 135.005 46.9865C134.324 46.3105 132.958 43.6007 129.723 43.9387C128.362 44.0828 127.336 42.9246 125.121 45.2077C122.907 47.4908 121.2 49.1034 120.86 51.9794C120.52 54.861 120.52 56.6343 120.52 57.8202C120.52 59.0061 120.353 59.6822 120.949 60.1033C121.546 60.5245 121.117 60.8681 121.546 61.5441C121.97 62.2202 122.227 62.3033 122.656 62.6469L123.08 62.9849C123.08 62.9849 120.525 62.2202 119.075 63.8328C119.075 63.8328 117.201 65.1849 116.008 66.3708C114.814 67.5567 113.453 70.0947 113.71 70.0116C113.966 69.9285 116.861 69.5018 117.201 69.5904C117.285 69.6126 117.385 69.6957 117.475 69.8065C117.341 69.9008 117.196 69.9728 117.034 70.0116C116.348 70.1667 115.701 70.6489 115.361 71.2307C114.452 71.4136 113.509 71.6519 113.118 71.9567C112.349 72.5496 109.621 74.1566 108.857 77.5425C108.093 80.9284 106.727 89.6452 106.386 91.3409C106.046 93.0311 104.769 102.939 104.512 104.546C104.256 106.153 104.429 112.249 104.429 114.111C104.429 115.973 104.685 119.448 104.942 120.628C105.198 121.814 105.282 123.338 105.025 124.773C104.769 126.214 104.345 132.476 104.345 132.897L104.356 132.919ZM147.638 121.576C147.694 121.825 147.688 122.163 147.655 122.567C147.655 122.512 147.644 122.462 147.638 122.423C147.577 121.997 147.56 121.609 147.56 121.26C147.588 121.376 147.616 121.487 147.638 121.576ZM139.712 95.1646C140.309 94.3167 140.309 94.1505 140.566 93.0477C140.822 91.945 140.482 91.945 140.822 91.945C141.162 91.945 141.402 93.0643 141.575 93.5908C141.676 94.5328 141.793 95.7187 141.91 96.2618C142.066 96.9933 142.228 99.0547 142.523 99.7253C142.479 100.939 142.362 102.202 142.953 103.372C143.717 104.896 143.466 104.136 143.89 106.165C144.314 108.198 143.974 107.434 144.487 108.703C145 109.972 145.68 111.922 145.764 112.681C145.797 112.975 145.753 113.402 145.719 113.867C145.619 113.607 145.519 113.374 145.424 113.186C144.66 111.662 144.743 111.662 144.314 110.31C143.89 108.957 143.46 108.193 143.036 107.007C142.613 105.821 141.759 104.469 141.162 103.959C140.566 103.449 140.225 103.959 140.225 102.945C140.225 101.931 140.398 102.435 140.398 101.338C140.398 100.241 139.885 100.407 140.225 99.559C140.566 98.7112 139.969 97.8688 139.802 96.9323C139.629 96.0014 139.121 96.0014 139.718 95.1535L139.712 95.1646ZM114.15 108.453C114.491 107.522 114.323 106.929 114.407 105.915C114.491 104.901 114.323 104.308 114.663 103.294C114.836 103.527 115.327 103.82 115.132 105.095C115.115 105.217 115.104 105.317 115.099 105.4C115.026 105.838 114.903 106.309 114.747 106.852C114.647 107.195 114.418 107.783 114.145 108.475V108.459L114.15 108.453Z" fill="#F7C98D"/>
<path d="M153.868 287.251C153.785 287.24 153.673 287.234 153.539 287.223C153.589 287.195 153.617 287.162 153.612 287.123C153.567 286.658 153.143 284.624 152.842 284.031C152.546 283.438 152.546 283.056 152.117 282.635C151.693 282.213 148.38 279.299 147.499 278.877C147.437 276.556 147.387 274.971 147.387 274.971L146.79 274.55C146.539 274.478 145.876 274.361 145.061 274.245C144.425 274.134 143.628 273.995 142.707 273.84C142.401 272.46 141.436 266.736 140.822 262.53C140.142 257.875 141.592 253.896 140.995 247.208C140.398 240.519 136.31 229.259 135.116 226.809C133.923 224.354 134.86 223.507 134.86 223.507C135.624 221.223 136.561 217.245 136.818 216.225C137.074 215.211 136.734 214.28 136.734 213.598C136.734 212.917 136.907 209.791 136.907 209.791C136.907 209.791 131.368 209.708 131.028 209.708C130.688 209.708 127.62 209.625 127.62 209.625L127.704 210.046C125.746 209.198 120.035 210.046 119.611 210.046C119.187 210.046 117.397 210.722 117.397 210.722C117.397 210.722 116.883 210.977 117.313 211.736C117.737 212.501 118.674 212.501 119.784 212.329C120.894 212.157 123.024 213.515 123.024 213.515C123.024 213.515 123.878 214.28 124.218 215.211C124.558 216.142 126.689 219.611 127.369 221.983C128.05 224.354 127.196 227.064 126.259 230.361C125.322 233.664 124.045 240.94 123.275 244.498C122.506 248.056 122.506 254.572 122.165 255.67C121.825 256.772 121.992 258.634 121.485 259.31C120.972 259.986 119.187 264.813 118.417 267.096C117.876 268.709 117.547 269.895 117.402 270.46C116.906 270.421 116.632 270.399 116.632 270.399C116.459 271.247 115.271 275.137 114.931 276.75C114.591 278.357 112.801 284.286 112.377 288.603C111.953 292.92 112.55 296.56 112.55 296.56C112.55 296.56 112.46 296.699 112.583 296.943C112.248 296.71 112.126 296.56 112.126 296.56C112.042 296.982 112.209 297.83 112.299 299.691C112.332 300.473 112.399 301.47 112.46 302.473C112.042 301.393 112.293 301.637 111.953 301.049C111.613 300.456 111.78 298.932 111.696 298.256C111.613 297.58 111.44 296.394 111.44 294.787C111.44 293.18 111.953 286.663 111.953 286.663C111.953 286.663 111.791 286.625 111.518 286.564C111.529 286.447 111.529 286.347 111.529 286.281C111.468 285.394 111.468 283.804 111.468 283.361C111.468 282.917 111.785 281.964 111.657 281.648C111.529 281.332 111.339 281.332 111.272 281.077C111.211 280.823 111.847 279.554 111.529 279.426C111.211 279.299 111.144 279.171 110.637 278.916C110.123 278.661 110.062 279.36 109.041 279.93C108.021 280.501 107.19 281.515 106.676 282.092C106.163 282.662 105.527 284.885 105.204 285.644C105.176 285.716 105.154 285.854 105.148 286.048C104.825 286.07 104.462 286.242 104.462 286.575C104.462 286.996 104.886 293.263 105.143 294.699C105.399 296.139 105.316 297.663 105.053 298.844C104.797 300.03 104.546 303.498 104.546 305.36C104.546 307.222 104.825 329.272 105.076 330.879L149.44 329.383C149.523 327.693 149.529 324.324 149.529 322.8C149.529 321.276 150.042 321.869 150.722 321.193C151.403 320.517 151.743 318.062 152.256 316.959C152.769 315.862 153.11 313.994 152.937 313.063C152.769 312.132 152.937 311.877 153.02 310.27C153.032 310.049 153.048 309.86 153.059 309.699C153.238 309.384 153.383 309.19 153.383 309.19C153.383 309.19 153.288 309.19 153.126 309.173C153.216 308.658 153.333 308.475 153.444 307.56C153.617 306.208 154.041 303.244 153.874 301.803C153.701 300.362 153.444 300.789 153.444 299.52C153.444 298.251 154.894 289.7 154.811 288.597C154.727 287.495 154.727 287.328 153.874 287.245L153.868 287.251ZM114.758 316.2C114.418 315.186 114.591 314.593 114.502 313.579C114.418 312.564 114.585 311.971 114.245 311.041C114.245 311.041 114.245 311.029 114.24 311.024C114.513 311.717 114.742 312.304 114.842 312.648C114.998 313.191 115.121 313.667 115.193 314.099C115.193 314.177 115.205 314.277 115.227 314.404C115.416 315.673 114.931 315.972 114.758 316.205V316.2ZM145.859 306.801C145.775 307.56 145.095 309.511 144.582 310.78C144.068 312.049 144.409 311.29 143.985 313.318C143.555 315.352 143.812 314.587 143.048 316.111C142.462 317.275 142.574 318.544 142.618 319.757C142.317 320.433 142.161 322.495 142.005 323.221C141.888 323.758 141.77 324.95 141.67 325.892L139.813 324.324C139.216 323.476 139.729 323.476 139.896 322.545C140.064 321.614 140.666 320.766 140.32 319.918C139.98 319.07 140.493 319.242 140.493 318.139C140.493 317.036 140.32 317.546 140.32 316.532C140.32 315.518 140.661 316.022 141.257 315.518C141.854 315.008 142.707 313.656 143.131 312.47C143.561 311.284 143.985 310.525 144.409 309.167C144.838 307.815 144.749 307.815 145.519 306.291C145.613 306.103 145.708 305.876 145.814 305.61C145.853 306.075 145.898 306.502 145.864 306.796L145.859 306.801ZM147.733 297.913C147.711 298.001 147.683 298.112 147.655 298.229C147.655 297.879 147.672 297.491 147.733 297.065C147.733 297.026 147.744 296.976 147.75 296.921C147.789 297.32 147.794 297.663 147.733 297.913Z" fill="url(#paint7_linear_270_5498)"/>
<path d="M108.573 257.758C109.32 249.058 111.93 221.461 112.299 220.907C112.672 220.353 112.114 218.497 111.741 217.571C110.53 214.584 114.948 214.673 113.475 211.481C113.386 211.287 113.977 211.149 113.844 210.683C113.743 210.65 113.922 209.797 113.771 209.774C111.479 209.475 102.337 209.558 100.904 209.558C100.814 209.603 100.837 210.384 100.786 210.45C100.658 210.639 101.032 210.811 100.87 211.027C100.033 212.202 100.19 212.911 101.495 215.97C102.147 217.494 101.735 217.46 99.5092 217.76C98.7005 220.608 98.0423 229.53 97.9531 230.533C97.769 232.572 94.785 251.829 94.4113 253.126C94.0376 254.422 91.9907 262.757 91.9907 262.757C91.9907 262.757 89.1963 275.347 89.0067 279.237C88.8226 283.128 87.8856 289.052 85.8386 286.092C83.7861 283.128 79.6866 261.649 78.6993 255.536C77.7121 249.424 78.571 243.129 78.9447 238.867C79.3184 234.612 76.8922 228.499 76.7081 225.906C76.5241 223.312 76.1727 216.978 76.9201 214.756C77.344 213.487 77.9575 211.797 77.4611 210.683C77.1265 209.941 77.6284 210.229 77.2547 209.819C77.0874 209.725 73.4564 209.647 71.6158 209.586C71.482 209.586 71.7776 209.979 71.3147 209.979C71.1752 209.979 70.7625 209.713 70.333 209.536C69.9258 209.37 70.0095 209.403 68.7044 209.403C65.2184 209.403 64.9674 209.42 64.9674 209.42C64.9674 209.42 63.2718 209.403 58.4305 209.486C58.3245 209.486 58.5142 209.73 58.3468 209.858C57.9174 210.168 57.9174 210.556 57.8839 210.716C57.5102 212.75 61.13 213.642 61.9834 214.052C63.5451 214.801 64.7778 216.829 64.7778 217.571C64.7778 218.314 63.0989 219.051 61.7938 219.976C60.4886 220.902 63.0989 223.124 63.283 224.604C63.467 226.083 61.7938 233.492 61.7938 235.714C61.7938 237.936 63.283 248.676 63.4726 250.715C63.5284 251.292 63.7571 252.998 64.0694 255.232L51.8657 254.916C51.8657 254.916 51.5534 254.112 51.057 254.173C50.5606 254.234 50.5606 254.849 50.5606 254.849L47.2698 254.722C47.2698 254.722 47.3312 254.029 46.8348 254.029C46.3383 254.029 46.3383 254.749 46.3383 254.749H43.293C43.293 254.749 42.7966 270.51 42.7966 277.115C42.7966 283.721 42.7352 285.283 43.2316 285.904C43.7281 286.519 47.4539 286.586 47.4539 286.586L47.5766 287.14L48.8204 287.45L49.0714 287.76L50.5606 287.943L51.1797 287.262L54.2864 287.572C54.4091 289.484 55.5915 290.969 55.2792 291.462C55.1955 291.595 55.1286 291.928 55.0728 292.376C54.8943 293.634 54.7772 296.001 55.0282 297.375C55.1844 298.239 55.1174 299.165 55.0114 299.846C54.5318 299.808 53.9573 299.464 53.723 301.332C53.472 303.31 54.0967 315.158 54.4704 319.602C54.8441 324.046 56.707 334.293 56.5843 337.994L105.695 336.354C105.79 333.301 108.584 325.432 110.168 321.913C111.752 318.394 118.055 297.015 118.055 297.015C118.055 297.015 112.332 295.38 108.021 294.316C108.004 291.324 107.881 265.943 108.584 257.758H108.573ZM60.5723 289.705C60.5723 289.705 60.2599 289.744 60.0647 289.705C60.0201 289.683 59.9811 289.667 59.9253 289.644C59.797 289.517 59.3731 289.262 59.0496 289.323C58.7261 289.39 58.3691 289.711 58.2687 289.999L56.9078 290.11C56.8297 290.11 56.7572 290.11 56.6791 290.127C56.3222 289.029 56.774 287.71 56.774 287.71C56.774 287.71 61.0185 288.226 60.985 288.32C60.9515 288.414 60.8233 288.675 61.0519 289.124C61.2806 289.572 61.3085 289.766 61.1133 289.927C61.0073 289.927 60.9292 289.927 60.8512 289.927C60.7006 289.855 60.5611 289.705 60.5611 289.705H60.5723ZM62.1396 295.845C62.0949 295.856 62.0503 295.873 62.0001 295.884C61.3531 296.034 61.1691 295.657 61.1189 295.385C61.236 295.175 61.3476 294.981 61.7101 295.014C62.1005 295.047 62.2623 295.142 62.2623 295.463C62.2623 295.596 62.2177 295.735 62.1451 295.84L62.1396 295.845ZM65.2742 328.119C65.5251 325.282 64.4041 317.258 63.6622 314.415C62.9148 311.578 63.2885 304.789 64.1586 302.811C65.0287 300.833 63.4113 300.833 63.4113 300.833C63.2941 300.744 63.2495 300.611 63.2383 300.478L63.2607 300.29C63.2607 300.29 63.2551 300.317 63.2383 300.367C63.2383 300.184 63.2941 300.029 63.2941 300.029C63.6957 299.88 64.008 299.63 64.259 299.326C64.3092 299.519 64.3594 299.697 64.4152 299.846C64.9116 301.204 65.0343 307.255 64.7889 310.586C64.5379 313.922 65.659 316.637 66.0327 320.09C66.4064 323.548 65.2853 328.114 65.2853 328.114L65.2742 328.119ZM64.3873 293.136C64.2144 292.753 64.0638 292.526 63.7961 292.16C63.5228 291.301 63.3499 290.659 63.3499 290.659L63.3387 290.564C63.1101 290.243 63.071 289.489 63.2328 289.384C63.3053 289.334 63.4949 289.317 63.7013 289.323C63.8073 289.295 63.9244 289.279 64.0359 289.295C64.4096 289.356 65.6534 288.802 65.6534 288.802L66.9642 288.858C66.9976 291.163 67.0144 292.759 67.0144 292.759L67.0255 292.775C65.8988 292.859 64.9841 292.98 64.3985 293.136H64.3873Z" fill="url(#paint8_linear_270_5498)"/>
<path d="M51.1741 134.765L50.5549 134.083L49.0657 134.266L48.8147 134.576L47.571 134.887L47.4482 135.441C47.4482 135.441 43.7224 135.502 43.226 136.117C42.7296 136.732 42.791 138.3 42.791 144.906C42.791 151.511 43.2874 167.271 43.2874 167.271H46.3327C46.3327 167.271 46.3327 167.992 46.8291 167.992C47.3255 167.992 47.2642 167.299 47.2642 167.299L50.5549 167.172C50.5549 167.172 50.5549 167.787 51.0513 167.848C51.5477 167.909 51.8601 167.105 51.8601 167.105L64.0638 166.789C63.7514 169.017 63.5228 170.729 63.467 171.306C63.2829 173.339 61.7881 184.084 61.7881 186.307C61.7881 188.529 63.467 195.938 63.2774 197.417C63.0877 198.897 60.483 201.119 61.7881 202.044C63.0933 202.97 64.7721 203.712 64.7721 204.449C64.7721 205.186 63.5339 207.22 61.9778 207.968C61.1188 208.378 57.5046 209.265 57.8783 211.304C57.9062 211.46 57.9062 211.847 58.3412 212.163C58.5085 212.285 58.3189 212.529 58.4249 212.535C63.2662 212.618 64.9618 212.601 64.9618 212.601C64.9618 212.601 65.2128 212.618 68.6987 212.618C70.0039 212.618 69.9258 212.656 70.3274 212.485C70.7569 212.307 71.1696 212.041 71.309 212.041C71.772 212.041 71.4819 212.44 71.6102 212.435C73.4508 212.374 77.0818 212.296 77.2491 212.202C77.6228 211.792 77.1208 212.08 77.4555 211.338C77.9519 210.224 77.344 208.534 76.9145 207.265C76.1671 205.042 76.5185 198.708 76.7025 196.115C76.8866 193.522 79.3128 187.409 78.9391 183.153C78.5654 178.892 77.7065 172.597 78.6937 166.484C79.6809 160.372 83.7805 138.893 85.833 135.928C87.8855 132.964 88.817 138.893 89.0011 142.783C89.1907 146.673 91.985 159.264 91.985 159.264C91.985 159.264 94.032 167.598 94.4057 168.895C94.7794 170.192 97.7634 189.449 97.9474 191.488C98.0423 192.491 98.6948 201.413 99.5036 204.261C101.729 204.56 102.142 204.527 101.489 206.051C100.184 209.104 100.028 209.819 100.865 210.994C101.021 211.216 100.653 211.382 100.781 211.57C100.831 211.642 100.809 212.418 100.898 212.463C102.331 212.463 111.467 212.546 113.765 212.246C113.922 212.224 113.738 211.371 113.838 211.338C113.972 210.872 113.381 210.734 113.47 210.54C114.942 207.348 110.53 207.436 111.735 204.449C112.109 203.524 112.667 201.673 112.293 201.113C111.919 200.559 109.309 172.968 108.567 164.262C107.864 156.077 107.987 130.697 108.004 127.705C112.315 126.646 118.038 125.006 118.038 125.006C118.038 125.006 111.735 103.621 110.151 100.108C108.567 96.5891 105.773 88.7202 105.678 85.6668C105.583 82.6134 105.862 77.5208 105.862 77.5208C105.862 77.5208 107.262 80.8512 109.683 81.1283C112.109 81.4054 115.924 80.1087 117.045 79.9258C118.161 79.7429 119.466 77.5208 119.839 74.9273C120.213 72.3339 119.092 68.9092 115.924 66.1329C112.756 63.3566 113.782 65.3017 113.035 62.4312C112.421 60.076 112.103 60.7632 111.546 60.4861C110.988 60.209 111.361 55.9476 109.777 55.9476C108.193 55.9476 108.846 56.2247 108.193 55.9476C107.541 55.6705 106.609 55.1164 106.236 55.0222C105.862 54.9279 102.415 51.3204 101.952 50.9491C102.354 51.0045 100.892 49.525 100.892 49.525C100.892 49.525 100.892 49.7078 100.719 49.7909C100.719 49.7743 100.719 49.7632 100.719 49.7466C100.563 49.0428 100.876 48.8821 101.216 48.267C101.333 48.0509 101.366 47.7905 101.366 47.5023C101.4 47.1089 101.322 46.6544 101.294 46.2222C101.294 46.189 101.294 46.1502 101.294 46.1169C101.294 46.1003 101.294 46.0892 101.294 46.0726C101.294 45.9507 101.294 45.8288 101.305 45.7124C101.512 44.1497 100.892 43.7341 100.892 43.7341C100.736 43.4958 100.602 43.263 100.485 43.0414C100.296 42.5759 100.112 41.9441 99.8717 41.1683C99.5259 40.0323 99.0016 39.8993 98.416 39.9603C97.8303 39.9603 97.2056 40.1099 97.2056 40.1099C97.2056 40.1099 97.2056 39.6555 96.9993 39.1235C96.7929 38.5915 95.5937 38.7522 95.5937 38.7522C97.2056 35.2555 96.9602 32.8505 96.9156 31.7976C96.8989 31.3543 95.8001 25.9956 89.252 25.3805C82.7096 24.7654 80.802 29.3704 80.3893 30.4399C79.9766 31.5094 80.1829 36.2807 80.1829 36.2807C79.3965 35.4993 79.2292 36.0757 79.2292 36.0757C78.8555 37.3114 79.3128 40.2318 79.5582 40.8913C79.8092 41.5507 80.6347 41.6726 80.6347 41.6726C80.6347 42.5371 80.8857 46.2832 80.9247 46.732C80.9638 47.1864 80.222 47.7628 80.222 47.7628C80.2276 47.7738 80.2387 47.796 80.2499 47.8071C80.222 47.8292 80.1997 47.8514 80.1718 47.8736C80.1885 47.8348 80.2052 47.796 80.222 47.7628C78.8555 47.7295 77.3216 50.9325 75.2133 51.5476C73.0994 52.1627 63.6566 54.6342 61.5427 56.2413C60.9236 57.2277 61.0463 59.5718 60.2989 61.3007C60.2989 61.3007 59.5515 65.3737 58.6814 69.5687C57.8113 73.7636 56.4448 80.3082 56.5676 84.0099C56.6903 87.7116 54.8274 97.9579 54.4537 102.402C54.08 106.847 53.4609 118.694 53.7063 120.673C53.9405 122.546 54.515 122.202 54.9947 122.158C55.0951 122.839 55.1676 123.765 55.0114 124.629C54.7604 126.004 54.8776 128.375 55.056 129.628C55.1062 130.077 55.1787 130.409 55.2624 130.542C55.5747 131.035 54.3923 132.52 54.2696 134.432L51.1629 134.743L51.1741 134.765ZM101.188 51.4368C100.77 51.8413 100.212 52.4343 99.5594 53.005C100.112 52.462 100.714 51.8524 101.188 51.4368ZM92.8942 46.9149C93.3515 46.4605 93.4743 45.391 93.887 45.2691C93.9316 45.258 93.9651 45.2635 93.9985 45.2801C93.9762 45.8897 93.8758 46.4549 94.428 46.5048C94.5005 46.5214 94.5786 46.5214 94.6623 46.5048C94.785 46.4827 94.8798 46.4272 94.9523 46.3441C95.1921 46.128 95.3706 45.6902 95.2981 44.9477C95.2814 44.7648 95.2758 44.6041 95.2814 44.46C95.3874 43.529 95.5045 43.8504 95.8168 44.3713C96.1515 44.931 95.9841 45.657 95.761 46.5492C95.6272 47.0922 95.5379 47.4413 94.6344 49.065C94.4838 49.3365 94.4057 49.6247 94.3722 49.9184C94.1101 49.5637 93.675 49.1038 93.0782 48.799C92.9053 48.5386 92.6822 48.2504 92.5986 48.195C92.5986 48.195 92.4312 47.3748 92.8886 46.9204L92.8942 46.9149ZM63.2327 121.543C63.2439 121.41 63.2941 121.277 63.4056 121.188C63.4056 121.188 65.0231 121.188 64.153 119.215C63.2829 117.237 62.9092 110.449 63.6566 107.611C64.404 104.774 65.5195 96.7499 65.2685 93.9071C65.2685 93.9071 66.3896 98.4733 66.0159 101.931C65.6422 105.389 64.5267 108.104 64.7721 111.435C65.0231 114.765 64.8948 120.817 64.3984 122.174C64.3427 122.318 64.2925 122.501 64.2423 122.695C63.9969 122.391 63.6845 122.141 63.2774 121.992C63.2774 121.992 63.2272 121.836 63.2216 121.653C63.2383 121.703 63.2439 121.737 63.2439 121.737L63.2216 121.548L63.2327 121.543ZM63.3331 131.462L63.3443 131.368C63.3443 131.368 63.5172 130.725 63.7905 129.866C64.0526 129.5 64.2088 129.273 64.3817 128.891C64.9729 129.046 65.8876 129.168 67.0087 129.251L66.9976 129.268C66.9976 129.268 66.9809 130.858 66.9474 133.169L65.6367 133.224C65.6367 133.224 64.3929 132.67 64.0192 132.731C63.9076 132.748 63.7905 132.731 63.6845 132.703C63.4781 132.703 63.2885 132.692 63.216 132.642C63.0598 132.537 63.0989 131.789 63.322 131.462H63.3331ZM61.9945 126.137C62.0447 126.148 62.0893 126.164 62.134 126.175C62.2065 126.286 62.2511 126.419 62.2511 126.552C62.2511 126.874 62.0893 126.973 61.6989 127.001C61.3364 127.034 61.2248 126.835 61.1077 126.63C61.1579 126.358 61.3419 125.987 61.9889 126.131L61.9945 126.137ZM56.6847 131.9C56.7572 131.916 56.8353 131.922 56.9134 131.916L58.2743 132.027C58.3691 132.315 58.7261 132.637 59.0551 132.703C59.3786 132.764 59.797 132.509 59.9308 132.382C59.981 132.36 60.0256 132.343 60.0703 132.321C60.271 132.277 60.5778 132.321 60.5778 132.321C60.5778 132.321 60.7173 132.171 60.8678 132.094C60.9404 132.094 61.024 132.094 61.13 132.094C61.3252 132.254 61.2917 132.448 61.0686 132.897C60.84 133.346 60.9682 133.607 61.0017 133.701C61.0352 133.801 56.7907 134.316 56.7907 134.316C56.7907 134.316 56.3389 132.997 56.6958 131.9H56.6847Z" fill="#EEC17B"/>
<path d="M154.404 0H14.5965C6.54805 0 0 6.50575 0 14.5022V153.412C0 161.408 6.54805 167.914 14.5965 167.914H17.5693V166.251H14.5965C7.47393 166.251 1.67327 160.494 1.67327 153.412V14.5022C1.67327 7.42011 7.46835 1.66246 14.5965 1.66246H154.409C161.532 1.66246 167.332 7.42011 167.332 14.5022V153.412C167.332 160.488 161.537 166.251 154.409 166.251H151.436V167.914H154.409C162.458 167.914 169.006 161.408 169.006 153.412V14.5022C169.006 6.50575 162.458 0 154.409 0H154.404Z" fill="white"/>
</g>
<defs>
<linearGradient id="paint0_linear_270_5498" x1="84.4972" y1="168.449" x2="84.4972" y2="0.550781" gradientUnits="userSpaceOnUse">
<stop stop-color="white" stop-opacity="0.1"/>
<stop offset="0.72" stop-color="white"/>
<stop offset="1" stop-color="white" stop-opacity="0.24"/>
</linearGradient>
<linearGradient id="paint1_linear_270_5498" x1="4.23776" y1="4.23751" x2="164.762" y2="164.762" gradientUnits="userSpaceOnUse">
<stop stop-color="white" stop-opacity="0.2"/>
<stop offset="0.03" stop-color="#F1F1F1" stop-opacity="0.32"/>
<stop offset="0.12" stop-color="#CECECE" stop-opacity="0.61"/>
<stop offset="0.2" stop-color="#B5B5B5" stop-opacity="0.82"/>
<stop offset="0.26" stop-color="#A6A6A6" stop-opacity="0.95"/>
<stop offset="0.31" stop-color="#A1A1A1"/>
<stop offset="0.38" stop-color="#A7A7A7"/>
<stop offset="0.47" stop-color="#B8B8B8"/>
<stop offset="0.57" stop-color="#D5D5D5"/>
<stop offset="0.69" stop-color="white"/>
<stop offset="0.72" stop-color="#F4F4F4" stop-opacity="0.89"/>
<stop offset="0.77" stop-color="#E4E4E4" stop-opacity="0.71"/>
<stop offset="0.82" stop-color="#D6D6D6" stop-opacity="0.57"/>
<stop offset="0.87" stop-color="#CBCBCB" stop-opacity="0.45"/>
<stop offset="0.91" stop-color="#C3C3C3" stop-opacity="0.37"/>
<stop offset="0.96" stop-color="#BEBEBE" stop-opacity="0.32"/>
<stop offset="0.99" stop-color="#BDBDBD" stop-opacity="0.3"/>
</linearGradient>
<linearGradient id="paint2_linear_270_5498" x1="84.4972" y1="69.1714" x2="84.4972" y2="-6.80064" gradientUnits="userSpaceOnUse">
<stop stop-color="white"/>
<stop offset="1" stop-color="white" stop-opacity="0"/>
</linearGradient>
<radialGradient id="paint3_radial_270_5498" cx="0" cy="0" r="1" gradientUnits="userSpaceOnUse" gradientTransform="translate(69.5616 168.447) scale(73.9681 8.01625)">
<stop stop-color="white"/>
<stop offset="0.12" stop-color="white" stop-opacity="0.77"/>
<stop offset="0.25" stop-color="white" stop-opacity="0.56"/>
<stop offset="0.37" stop-color="white" stop-opacity="0.39"/>
<stop offset="0.5" stop-color="white" stop-opacity="0.25"/>
<stop offset="0.62" stop-color="white" stop-opacity="0.14"/>
<stop offset="0.75" stop-color="white" stop-opacity="0.06"/>
<stop offset="0.87" stop-color="white" stop-opacity="0.02"/>
<stop offset="1" stop-color="white" stop-opacity="0"/>
</radialGradient>
<radialGradient id="paint4_radial_270_5498" cx="0" cy="0" r="1" gradientUnits="userSpaceOnUse" gradientTransform="translate(69.5616 168.141) scale(45.2624 3.56748)">
<stop stop-color="white"/>
<stop offset="0.12" stop-color="white" stop-opacity="0.77"/>
<stop offset="0.25" stop-color="white" stop-opacity="0.56"/>
<stop offset="0.37" stop-color="white" stop-opacity="0.39"/>
<stop offset="0.5" stop-color="white" stop-opacity="0.25"/>
<stop offset="0.62" stop-color="white" stop-opacity="0.14"/>
<stop offset="0.75" stop-color="white" stop-opacity="0.06"/>
<stop offset="0.87" stop-color="white" stop-opacity="0.02"/>
<stop offset="1" stop-color="white" stop-opacity="0"/>
</radialGradient>
<radialGradient id="paint5_radial_270_5498" cx="0" cy="0" r="1" gradientUnits="userSpaceOnUse" gradientTransform="translate(35.1142 -0.348194) scale(34.1725 4.51335)">
<stop stop-color="white"/>
<stop offset="0.12" stop-color="white" stop-opacity="0.77"/>
<stop offset="0.25" stop-color="white" stop-opacity="0.56"/>
<stop offset="0.37" stop-color="white" stop-opacity="0.39"/>
<stop offset="0.5" stop-color="white" stop-opacity="0.25"/>
<stop offset="0.62" stop-color="white" stop-opacity="0.14"/>
<stop offset="0.75" stop-color="white" stop-opacity="0.06"/>
<stop offset="0.87" stop-color="white" stop-opacity="0.02"/>
<stop offset="1" stop-color="white" stop-opacity="0"/>
</radialGradient>
<linearGradient id="paint6_linear_270_5498" x1="35.7021" y1="341.857" x2="35.7021" y2="193.044" gradientUnits="userSpaceOnUse">
<stop stop-color="#EEC17B" stop-opacity="0"/>
<stop offset="0.11" stop-color="#EEC17B" stop-opacity="0.05"/>
<stop offset="0.3" stop-color="#EEC17B" stop-opacity="0.17"/>
<stop offset="0.54" stop-color="#EEC17B" stop-opacity="0.37"/>
<stop offset="0.84" stop-color="#EEC17B" stop-opacity="0.64"/>
<stop offset="1" stop-color="#EEC17B" stop-opacity="0.8"/>
</linearGradient>
<linearGradient id="paint7_linear_270_5498" x1="129.628" y1="338.582" x2="129.628" y2="194.214" gradientUnits="userSpaceOnUse">
<stop stop-color="#EEC17B" stop-opacity="0"/>
<stop offset="0.11" stop-color="#EEC17B" stop-opacity="0.05"/>
<stop offset="0.3" stop-color="#EEC17B" stop-opacity="0.17"/>
<stop offset="0.54" stop-color="#EEC17B" stop-opacity="0.37"/>
<stop offset="0.84" stop-color="#EEC17B" stop-opacity="0.64"/>
<stop offset="1" stop-color="#EEC17B" stop-opacity="0.8"/>
</linearGradient>
<linearGradient id="paint8_linear_270_5498" x1="80.4117" y1="399.954" x2="80.4117" y2="212.069" gradientUnits="userSpaceOnUse">
<stop stop-color="#EEC17B" stop-opacity="0"/>
<stop offset="0.13" stop-color="#EEC17B" stop-opacity="0.02"/>
<stop offset="0.27" stop-color="#EEC17B" stop-opacity="0.08"/>
<stop offset="0.43" stop-color="#EEC17B" stop-opacity="0.17"/>
<stop offset="0.59" stop-color="#EEC17B" stop-opacity="0.31"/>
<stop offset="0.76" stop-color="#EEC17B" stop-opacity="0.48"/>
<stop offset="0.92" stop-color="#EEC17B" stop-opacity="0.69"/>
<stop offset="1" stop-color="#EEC17B" stop-opacity="0.8"/>
</linearGradient>
<clipPath id="clip0_270_5498">
<rect width="169" height="338" fill="white"/>
</clipPath>
<clipPath id="clip1_270_5498">
<rect width="169" height="169" fill="white"/>
</clipPath>
</defs>
</svg>
