<svg width="60" height="60" viewBox="0 0 60 60" fill="none" xmlns="http://www.w3.org/2000/svg">
<rect width="60" height="60" rx="30" fill="#524A4C"/>
<g clip-path="url(#clip0_36_801)">
<mask id="mask0_36_801" style="mask-type:luminance" maskUnits="userSpaceOnUse" x="14" y="9" width="32" height="39">
<path d="M45.9375 9.375H14.0625V47.8125H45.9375V9.375Z" fill="white"/>
</mask>
<g mask="url(#mask0_36_801)">
<path d="M39.6091 19.1032C39.6091 19.2709 39.6091 19.4377 39.6091 19.6036C39.6091 19.7694 39.5972 19.9344 39.5735 20.0984C39.5497 20.3444 39.5167 20.5866 39.4746 20.8252C39.4279 21.0852 39.373 21.3424 39.3071 21.5967C39.1815 22.0804 39.019 22.5533 38.8212 23.0112L38.7333 23.2069C38.629 23.4343 38.5174 23.6561 38.3984 23.8722L38.2886 24.0651C37.8384 24.8324 37.2869 25.5332 36.6495 26.1477L36.4683 26.3211C36.364 26.418 36.2569 26.5111 36.1471 26.6006L35.9302 26.7795C35.7673 26.9081 35.6007 27.032 35.4305 27.1513L35.3564 27.2016C35.1313 27.3544 34.8988 27.4979 34.659 27.6321C34.4193 27.7663 34.1996 27.8791 34.0001 27.9704L33.959 27.9899C33.5104 28.1951 33.0469 28.3643 32.5725 28.4959L32.2677 28.5742C31.7813 28.6917 31.2865 28.7702 30.7879 28.809C30.6259 28.809 30.464 28.8314 30.2992 28.8342H29.805C29.6403 28.8342 29.4783 28.8342 29.3163 28.809C28.8178 28.7702 28.323 28.6917 27.8365 28.5742L27.5318 28.4959C27.0574 28.3643 26.5938 28.1951 26.1453 27.9899L26.1041 27.9704C25.9028 27.8772 25.706 27.7775 25.5139 27.6713C25.2521 27.5278 24.9977 27.3712 24.7506 27.2016L24.6792 27.1457C24.509 27.0283 24.3425 26.9044 24.1796 26.7739L23.9627 26.595C23.8528 26.5037 23.7458 26.4105 23.6415 26.3155C23.5371 26.2204 23.4255 26.1095 23.3065 25.9828C22.7421 25.4082 22.2505 24.764 21.8432 24.0651L21.7333 23.8722C21.6144 23.6561 21.5027 23.4343 21.3984 23.2069L21.3105 23.0112C21.1127 22.5533 20.9502 22.0804 20.8246 21.5967C20.7587 21.3433 20.7029 21.0861 20.6571 20.8252C20.6114 20.5643 20.5793 20.322 20.561 20.0984C20.5445 19.9344 20.5326 19.7694 20.5253 19.6036C20.5253 19.4386 20.5253 19.2709 20.5253 19.1032C20.5253 18.9355 20.5089 18.7677 20.5253 18.6028C20.5253 18.5022 20.5253 18.3987 20.5253 18.2981C20.5253 18.2366 20.5555 18.1723 20.561 18.1108C20.5665 18.0493 20.561 17.985 20.561 17.9263C20.583 17.7446 20.6132 17.5629 20.6461 17.3812C20.6928 17.1212 20.7505 16.864 20.8163 16.6096C20.9428 16.1259 21.1062 15.653 21.305 15.1951L21.349 15.0973L21.3929 14.9995C21.4972 14.7721 21.6089 14.5503 21.7278 14.3341L21.8377 14.1413C22.2834 13.3771 22.8292 12.6783 23.4602 12.0642L23.6387 11.8909C23.7449 11.794 23.8519 11.7008 23.9599 11.6114L24.1768 11.4325C24.3397 11.302 24.5072 11.1753 24.6792 11.0523L24.7534 11.002C25.1835 10.7115 25.6362 10.4572 26.1069 10.2416L26.1481 10.2136C26.5968 10.0113 27.0604 9.84497 27.5345 9.71606L27.8393 9.63778C28.3258 9.52025 28.8205 9.44174 29.3191 9.40297C29.4811 9.40297 29.6431 9.3806 29.8078 9.37781H30.302C30.4667 9.37781 30.6287 9.37781 30.7907 9.40297C31.2892 9.44174 31.784 9.52025 32.2705 9.63778L32.5752 9.71606C33.0484 9.84513 33.5111 10.0115 33.959 10.2136L34.0001 10.2332C34.4721 10.4514 34.9257 10.7085 35.3564 11.002L35.4305 11.0523C35.6007 11.1697 35.7673 11.2936 35.9302 11.4241L36.1471 11.6114C36.2569 11.7027 36.364 11.7959 36.4683 11.8909L36.6495 12.0614C37.2817 12.6752 37.8285 13.374 38.2748 14.1385L38.3847 14.3314C38.5055 14.5475 38.6171 14.7693 38.7196 14.9967L38.8075 15.1924C39.0053 15.6503 39.1677 16.1232 39.2934 16.6069C39.3593 16.8612 39.417 17.1184 39.4609 17.3784C39.5048 17.6384 39.5378 17.8592 39.5597 18.1052C39.5597 18.1807 39.5734 18.259 39.5789 18.3344C39.5844 18.4099 39.5789 18.5106 39.5954 18.6C39.5954 18.7659 39.5954 18.9327 39.5954 19.1004" fill="white"/>
<path d="M20.3552 18.2059H20.3799C20.4261 18.2354 20.4748 18.2607 20.5254 18.2813L20.4952 18.2618C20.454 18.2366 20.3991 18.2143 20.3552 18.1919" fill="white"/>
<path d="M20.3552 18.2059C20.3991 18.2282 20.454 18.2534 20.4952 18.2758L20.3799 18.2199H20.3552" fill="white"/>
<path d="M45.9348 37.5728V47.6364C45.9348 47.8433 45.8551 47.7958 45.6602 47.7958H14.4441C14.2492 47.7958 14.0625 47.8433 14.0625 47.6364V37.5728C14.0625 37.4106 14.0625 37.2485 14.0625 37.0892C14.1657 34.781 15.0627 32.5833 16.5966 30.8805L16.7284 30.7379C17.4631 29.9558 18.325 29.3089 19.2762 28.8258L19.4491 28.7391C19.7109 28.6143 19.979 28.5025 20.2536 28.4037L20.4375 28.3394C20.6828 28.2574 20.9326 28.1856 21.187 28.1241C21.4958 28.4265 21.8192 28.713 22.1562 28.9824C23.0131 29.6653 23.9501 30.2371 24.9456 30.6848C25.1286 30.7686 25.3171 30.8479 25.5111 30.9224C27.7812 31.8356 30.2689 32.0305 32.6494 31.4815C32.7565 31.4591 34.261 31.0873 34.6618 30.9224C34.8211 30.8581 34.9803 30.7183 35.1368 30.6428C35.9513 30.3518 36.6988 29.8943 37.3332 29.2982C37.4186 29.2855 37.4981 29.2465 37.561 29.1864C38.0163 28.8516 38.45 28.4874 38.8597 28.0962C40.8338 28.611 42.5904 29.7645 43.8653 31.3833C45.1403 33.002 45.8645 34.9985 45.9293 37.0724C45.9293 37.2317 45.9293 37.4078 45.9293 37.57" fill="white"/>
<path d="M24.9511 30.6876C25.1341 30.7733 25.3208 30.8534 25.5167 30.928C26.2437 31.215 26.9956 31.4322 27.7624 31.5765" fill="white"/>
</g>
</g>
<defs>
<clipPath id="clip0_36_801">
<rect width="31.875" height="38.4375" fill="white" transform="translate(14.0625 9.375)"/>
</clipPath>
</defs>
</svg>
