<svg width="16" height="26" viewBox="0 0 16 26" fill="none" xmlns="http://www.w3.org/2000/svg">
<path d="M7.202 25.12V0.679999H9.802V25.12H7.202ZM8.138 22.312C6.682 22.312 5.28667 22.1213 3.952 21.74C2.61733 21.3413 1.54267 20.83 0.728 20.206L2.158 17.034C2.938 17.5887 3.85667 18.048 4.914 18.412C5.98867 18.7587 7.072 18.932 8.164 18.932C8.996 18.932 9.66333 18.854 10.166 18.698C10.686 18.5247 11.0673 18.2907 11.31 17.996C11.5527 17.7013 11.674 17.3633 11.674 16.982C11.674 16.4967 11.4833 16.1153 11.102 15.838C10.7207 15.5433 10.218 15.3093 9.594 15.136C8.97 14.9453 8.27667 14.772 7.514 14.616C6.76867 14.4427 6.01467 14.2347 5.252 13.992C4.50667 13.7493 3.822 13.4373 3.198 13.056C2.574 12.6747 2.06267 12.172 1.664 11.548C1.28267 10.924 1.092 10.1267 1.092 9.156C1.092 8.116 1.36933 7.17133 1.924 6.322C2.496 5.45533 3.34533 4.77067 4.472 4.268C5.616 3.748 7.046 3.488 8.762 3.488C9.906 3.488 11.0327 3.62667 12.142 3.904C13.2513 4.164 14.2307 4.56267 15.08 5.1L13.78 8.298C12.9307 7.81267 12.0813 7.45733 11.232 7.232C10.3827 6.98933 9.55067 6.868 8.736 6.868C7.92133 6.868 7.254 6.96333 6.734 7.154C6.214 7.34467 5.84133 7.596 5.616 7.908C5.39067 8.20267 5.278 8.54933 5.278 8.948C5.278 9.416 5.46867 9.79733 5.85 10.092C6.23133 10.3693 6.734 10.5947 7.358 10.768C7.982 10.9413 8.66667 11.1147 9.412 11.288C10.1747 11.4613 10.9287 11.6607 11.674 11.886C12.4367 12.1113 13.13 12.4147 13.754 12.796C14.378 13.1773 14.8807 13.68 15.262 14.304C15.6607 14.928 15.86 15.7167 15.86 16.67C15.86 17.6927 15.574 18.6287 15.002 19.478C14.43 20.3273 13.572 21.012 12.428 21.532C11.3013 22.052 9.87133 22.312 8.138 22.312Z" fill="#1E9CD6"/>
</svg>
