<svg width="362" height="315" viewBox="0 0 362 315" fill="none" xmlns="http://www.w3.org/2000/svg">
<g clip-path="url(#clip0_300_5025)">
<path d="M55.0291 240.639L55.0733 244.597C55.3944 247.283 57.5087 250.068 61.339 252.29L164.146 311.364C165.939 312.403 167.943 313.221 170.091 313.796C176.068 315.509 182.876 315.399 187.891 313.398C188.611 313.11 189.319 312.79 189.972 312.436L357.484 215.823C360.495 214.109 361.956 211.788 361.956 209.389H361.989L361.878 202.956L358.48 205.465C357.661 204.746 356.731 204.105 355.657 203.464L252.85 144.39C245.189 139.991 233.621 139.493 226.99 143.318L115.482 207.609L59.4792 239.899C59.3685 239.965 59.2689 240.042 59.1582 240.12L55.0291 240.661V240.639Z" fill="#B3B3B3"/>
<path d="M55.0068 238.881L55.0733 244.596C55.3943 247.282 57.5087 250.068 61.3389 252.29L164.146 311.363C165.939 312.402 167.943 313.22 170.091 313.795V207.598H115.482L59.4791 239.887C59.3684 239.953 59.2688 240.031 59.1581 240.108L55.0068 238.892V238.881Z" fill="#4D4D4D"/>
<path d="M137.711 295.976L145.936 300.73V295.866L137.711 291.102V295.976Z" fill="#303030"/>
<path d="M138.63 295.468V291.643L137.711 291.102V295.976L145.936 300.73V299.702L138.63 295.468Z" fill="#F9F9F9"/>
<path d="M138.63 295.468L137.711 295.976V291.102L138.63 291.643V295.468Z" fill="#DCDEDD"/>
<path d="M138.63 295.468L141.774 294.131L145.936 296.563V299.702L138.63 295.468Z" fill="#666666"/>
<path d="M141.774 294.13L141.785 293.455L138.63 291.643V295.467L141.774 294.13Z" fill="#404040"/>
<path d="M187.891 296.197V313.409C182.888 315.42 176.08 315.509 170.08 313.807V296.208H187.891V296.197Z" fill="#999999"/>
<path d="M357.495 210.483L189.972 307.075C183.352 310.889 171.784 310.413 164.146 306.003L90.0545 263.422L61.339 246.918C58.8039 245.448 57.0217 243.745 56.0032 241.966C53.9663 238.406 55.0733 234.582 59.4903 232.039L227.013 135.437C233.632 131.623 245.201 132.098 252.839 136.509L355.646 195.571C356.1 195.837 356.543 196.113 356.952 196.4C363.362 200.778 363.716 206.891 357.495 210.472V210.483Z" fill="#F2F2F2"/>
<path d="M235.393 271.844L307.491 230.28L262.724 204.469L190.625 246.044L235.393 271.844Z" fill="#F0F0F0"/>
<path d="M262.724 206.934L192.762 247.271L190.625 246.044L262.724 204.469L307.491 230.28L305.366 231.507L262.724 206.934Z" fill="#DCDEDD"/>
<path d="M262.724 206.934V204.469L307.491 230.28L305.366 231.507L262.724 206.934Z" fill="#808080"/>
<path d="M128.213 262.969L136.836 267.91L128.168 272.884L127.471 274.266L125.434 274.454L116.811 269.513L128.213 262.969Z" fill="#CCCCCC"/>
<path d="M127.471 272.884L138.862 266.34L130.238 261.398L118.847 267.943L127.471 272.884Z" fill="#999999"/>
<path d="M127.471 272.264L138.331 266.029L138.862 266.339L127.471 272.883L118.847 267.942L119.379 267.632L127.471 272.264Z" fill="white"/>
<path d="M118.847 267.943V269.325L127.471 274.266V272.885L118.847 267.943Z" fill="#1A1A1A"/>
<path d="M138.862 266.34V267.722L127.471 274.266V272.884L138.862 266.34Z" fill="#4D4D4D"/>
<path d="M143.323 254.17L151.947 259.122L143.279 264.097L142.582 265.478L140.556 265.666L131.921 260.714L143.323 254.17Z" fill="#CCCCCC"/>
<path d="M142.582 264.096L153.984 257.552L145.349 252.6L133.958 259.144L142.582 264.096Z" fill="#999999"/>
<path d="M142.582 263.477L153.441 257.242L153.984 257.552L142.582 264.096L133.958 259.143L134.5 258.834L142.582 263.477Z" fill="white"/>
<path d="M133.958 259.145V260.537L142.582 265.479V264.097L133.958 259.145Z" fill="#1A1A1A"/>
<path d="M153.984 257.553V258.935L142.582 265.479V264.097L153.984 257.553Z" fill="#4D4D4D"/>
<path d="M158.434 245.381L167.057 250.322L158.401 255.296L157.692 256.689L155.666 256.866L147.043 251.925L158.434 245.381Z" fill="#CCCCCC"/>
<path d="M157.692 255.296L169.094 248.752L160.471 243.811L149.069 250.355L157.692 255.296Z" fill="#999999"/>
<path d="M157.692 254.676L168.552 248.441L169.094 248.751L157.692 255.295L149.069 250.354L149.611 250.044L157.692 254.676Z" fill="white"/>
<path d="M149.069 250.355V251.737L157.692 256.69V255.297L149.069 250.355Z" fill="#1A1A1A"/>
<path d="M169.094 248.752V250.134L157.692 256.689V255.296L169.094 248.752Z" fill="#4D4D4D"/>
<path d="M250.525 191.283L259.149 196.224L250.481 201.199L249.783 202.581L247.747 202.768L239.123 197.827L250.525 191.283Z" fill="#CCCCCC"/>
<path d="M249.783 201.198L261.174 194.654L252.551 189.713L241.16 196.257L249.783 201.198Z" fill="#999999"/>
<path d="M249.783 200.578L260.643 194.344L261.174 194.653L249.783 201.197L241.16 196.256L241.691 195.947L249.783 200.578Z" fill="white"/>
<path d="M241.16 196.258V197.64L249.783 202.592V201.199L241.16 196.258Z" fill="#1A1A1A"/>
<path d="M261.174 194.654V196.036L249.783 202.591V201.198L261.174 194.654Z" fill="#4D4D4D"/>
<path d="M265.636 182.482L274.259 187.435L265.591 192.409L264.894 193.791L262.868 193.979L254.234 189.038L265.636 182.482Z" fill="#CCCCCC"/>
<path d="M264.894 192.408L276.296 185.864L267.673 180.912L256.271 187.467L264.894 192.408Z" fill="#999999"/>
<path d="M264.894 191.789L275.754 185.555L276.296 185.864L264.894 192.408L256.271 187.467L256.813 187.158L264.894 191.789Z" fill="white"/>
<path d="M256.271 187.467V188.849L264.894 193.79V192.408L256.271 187.467Z" fill="#1A1A1A"/>
<path d="M276.296 185.865V187.247L264.894 193.791V192.409L276.296 185.865Z" fill="#4D4D4D"/>
<path d="M288.274 169.406L296.897 174.347L280.713 183.622L280.016 185.004L277.979 185.181L269.355 180.239L288.274 169.406Z" fill="#CCCCCC"/>
<path d="M280.016 183.621L298.934 172.777L290.311 167.836L271.381 178.669L280.016 183.621Z" fill="#999999"/>
<path d="M280.016 182.99L298.392 172.467L298.934 172.776L280.016 183.62L271.381 178.668L271.924 178.359L280.016 182.99Z" fill="white"/>
<path d="M271.381 178.67V180.052L280.016 185.004V183.622L271.381 178.67Z" fill="#1A1A1A"/>
<path d="M298.934 172.777V174.159L280.016 185.003V183.621L298.934 172.777Z" fill="#4D4D4D"/>
<path d="M180.43 232.604L189.053 237.545L173.511 246.51L172.814 247.891L170.777 248.079L162.153 243.138L180.43 232.604Z" fill="#CCCCCC"/>
<path d="M172.814 246.509L191.09 235.974L182.467 231.033L164.19 241.568L172.814 246.509Z" fill="#999999"/>
<path d="M172.814 245.889L190.548 235.664L191.09 235.974L172.814 246.508L164.19 241.567L164.722 241.257L172.814 245.889Z" fill="white"/>
<path d="M164.19 241.568V242.95L172.814 247.891V246.51L164.19 241.568Z" fill="#1A1A1A"/>
<path d="M191.09 235.975V237.356L172.814 247.891V246.509L191.09 235.975Z" fill="#4D4D4D"/>
<path d="M199.371 205.84L207.994 210.781L199.327 215.755L198.629 217.137L196.592 217.325L187.969 212.384L199.371 205.84Z" fill="#CCCCCC"/>
<path d="M198.629 215.755L210.031 209.211L201.397 204.27L190.006 210.814L198.629 215.755Z" fill="#999999"/>
<path d="M198.629 215.135L209.489 208.9L210.031 209.21L198.629 215.754L190.006 210.813L190.537 210.503L198.629 215.135Z" fill="white"/>
<path d="M190.006 210.814V212.196L198.629 217.137V215.756L190.006 210.814Z" fill="#1A1A1A"/>
<path d="M210.031 209.211V210.593L198.629 217.137V215.755L210.031 209.211Z" fill="#4D4D4D"/>
<path d="M138.884 240.881L147.519 245.822L138.851 250.796L138.154 252.189L136.117 252.366L127.493 247.425L138.884 240.881Z" fill="#CCCCCC"/>
<path d="M138.154 250.796L149.545 244.252L140.921 239.311L129.519 245.855L138.154 250.796Z" fill="#999999"/>
<path d="M138.154 250.187L149.002 243.941L149.545 244.251L138.154 250.795L129.519 245.854L130.061 245.544L138.154 250.187Z" fill="white"/>
<path d="M129.519 245.855V247.237L138.154 252.19V250.797L129.519 245.855Z" fill="#1A1A1A"/>
<path d="M149.545 244.252V245.634L138.154 252.189V250.796L149.545 244.252Z" fill="#4D4D4D"/>
<path d="M154.006 232.082L162.629 237.034L153.962 242.009L153.264 243.39L151.227 243.578L142.604 238.637L154.006 232.082Z" fill="#CCCCCC"/>
<path d="M153.264 242.009L164.655 235.465L156.032 230.523L144.641 237.068L153.264 242.009Z" fill="#999999"/>
<path d="M153.264 241.389L164.124 235.154L164.655 235.464L153.264 242.008L144.641 237.067L145.172 236.757L153.264 241.389Z" fill="white"/>
<path d="M144.641 237.068V238.45L153.264 243.391V242.01L144.641 237.068Z" fill="#1A1A1A"/>
<path d="M164.655 235.465V236.847L153.264 243.391V242.009L164.655 235.465Z" fill="#4D4D4D"/>
<path d="M169.116 223.295L177.74 228.247L169.072 233.222L168.375 234.603L166.349 234.791L157.714 229.839L169.116 223.295Z" fill="#CCCCCC"/>
<path d="M168.375 233.221L179.777 226.677L171.142 221.725L159.751 228.269L168.375 233.221Z" fill="#999999"/>
<path d="M168.375 232.602L179.234 226.367L179.777 226.677L168.375 233.221L159.751 228.269L160.294 227.959L168.375 232.602Z" fill="white"/>
<path d="M159.751 228.27V229.662L168.375 234.604V233.222L159.751 228.27Z" fill="#1A1A1A"/>
<path d="M179.777 226.678V228.06L168.375 234.604V233.222L179.777 226.678Z" fill="#4D4D4D"/>
<path d="M184.249 214.629L192.873 219.57L184.216 224.556L183.519 225.937L181.482 226.114L172.858 221.173L184.249 214.629Z" fill="#CCCCCC"/>
<path d="M183.519 224.555L194.91 218L186.286 213.059L174.884 219.603L183.519 224.555Z" fill="#999999"/>
<path d="M183.519 223.935L194.367 217.689L194.91 217.999L183.519 224.554L174.884 219.602L175.426 219.292L183.519 223.935Z" fill="white"/>
<path d="M174.884 219.604V220.996L183.519 225.938V224.556L174.884 219.604Z" fill="#1A1A1A"/>
<path d="M194.91 218V219.393L183.519 225.937V224.555L194.91 218Z" fill="#4D4D4D"/>
<path d="M214.481 197.041L223.105 201.993L214.437 206.968L213.74 208.349L211.714 208.537L203.079 203.596L214.481 197.041Z" fill="#CCCCCC"/>
<path d="M213.74 206.967L225.142 200.423L216.507 195.471L205.116 202.026L213.74 206.967Z" fill="#999999"/>
<path d="M213.74 206.348L224.599 200.113L225.142 200.423L213.74 206.967L205.116 202.026L205.658 201.716L213.74 206.348Z" fill="white"/>
<path d="M205.116 202.025V203.407L213.74 208.348V206.967L205.116 202.025Z" fill="#1A1A1A"/>
<path d="M225.142 200.424V201.806L213.74 208.35V206.968L225.142 200.424Z" fill="#4D4D4D"/>
<path d="M230.599 188.131L239.223 193.083L230.555 198.058L229.858 199.439L227.832 199.627L219.208 194.675L230.599 188.131Z" fill="#CCCCCC"/>
<path d="M229.858 198.057L241.26 191.513L232.636 186.561L221.234 193.105L229.858 198.057Z" fill="#999999"/>
<path d="M229.858 197.437L240.717 191.191L241.26 191.512L229.858 198.056L221.234 193.104L221.777 192.794L229.858 197.437Z" fill="white"/>
<path d="M221.234 193.105V194.498L229.858 199.44V198.058L221.234 193.105Z" fill="#1A1A1A"/>
<path d="M241.26 191.514V192.895L229.858 199.44V198.058L241.26 191.514Z" fill="#4D4D4D"/>
<path d="M245.71 179.344L254.333 184.285L245.677 189.259L244.979 190.652L242.942 190.829L234.319 185.888L245.71 179.344Z" fill="#CCCCCC"/>
<path d="M244.979 189.259L256.37 182.715L247.747 177.773L236.345 184.318L244.979 189.259Z" fill="#999999"/>
<path d="M244.979 188.639L255.828 182.404L256.37 182.714L244.979 189.258L236.345 184.317L236.887 184.007L244.979 188.639Z" fill="white"/>
<path d="M236.345 184.318V185.7L244.979 190.652V189.26L236.345 184.318Z" fill="#1A1A1A"/>
<path d="M256.37 182.715V184.097L244.979 190.652V189.259L256.37 182.715Z" fill="#4D4D4D"/>
<path d="M260.455 170.709L269.079 175.65L260.422 180.625L259.713 182.017L257.687 182.205L249.064 177.253L260.455 170.709Z" fill="#CCCCCC"/>
<path d="M259.713 180.624L271.115 174.08L262.492 169.139L251.09 175.683L259.713 180.624Z" fill="#999999"/>
<path d="M259.713 180.004L270.573 173.77L271.115 174.079L259.713 180.623L251.09 175.682L251.632 175.372L259.713 180.004Z" fill="white"/>
<path d="M251.09 175.684V177.065L259.713 182.018V180.625L251.09 175.684Z" fill="#1A1A1A"/>
<path d="M271.115 174.08V175.462L259.713 182.017V180.624L271.115 174.08Z" fill="#4D4D4D"/>
<path d="M275.023 161.822L283.647 166.763L274.979 171.749L274.282 173.131L272.245 173.319L263.621 168.366L275.023 161.822Z" fill="#CCCCCC"/>
<path d="M274.281 171.748L285.673 165.193L277.049 160.252L265.658 166.796L274.281 171.748Z" fill="#999999"/>
<path d="M274.281 171.128L285.141 164.883L285.673 165.192L274.281 171.747L265.658 166.795L266.2 166.486L274.281 171.128Z" fill="white"/>
<path d="M265.658 166.797V168.179L274.281 173.131V171.749L265.658 166.797Z" fill="#1A1A1A"/>
<path d="M285.673 165.193V166.586L274.281 173.13V171.748L285.673 165.193Z" fill="#4D4D4D"/>
<path d="M121.936 250.555L130.56 255.496L115.017 264.461L114.309 265.843L112.283 266.031L103.66 261.078L121.936 250.555Z" fill="#CCCCCC"/>
<path d="M114.309 264.46L132.585 253.926L123.962 248.984L105.685 259.519L114.309 264.46Z" fill="#999999"/>
<path d="M114.309 263.84L132.054 253.615L132.585 253.925L114.309 264.459L105.685 259.518L106.228 259.209L114.309 263.84Z" fill="white"/>
<path d="M105.685 259.52V260.901L114.309 265.843V264.461L105.685 259.52Z" fill="#1A1A1A"/>
<path d="M132.585 253.926V255.308L114.309 265.842V264.46L132.585 253.926Z" fill="#4D4D4D"/>
<path d="M186.651 197.881L195.275 202.822L186.607 207.808L185.91 209.189L183.873 209.377L175.249 204.425L186.651 197.881Z" fill="#CCCCCC"/>
<path d="M185.91 207.807L197.312 201.252L188.677 196.311L177.286 202.855L185.91 207.807Z" fill="#999999"/>
<path d="M185.91 207.187L196.769 200.941L197.312 201.251L185.91 207.806L177.286 202.854L177.829 202.544L185.91 207.187Z" fill="white"/>
<path d="M177.286 202.855V204.248L185.91 209.19V207.808L177.286 202.855Z" fill="#1A1A1A"/>
<path d="M197.312 201.252V202.645L185.91 209.189V207.807L197.312 201.252Z" fill="#4D4D4D"/>
<path d="M127.095 232.604L135.718 237.545L127.05 242.519L126.353 243.912L124.327 244.089L115.693 239.148L127.095 232.604Z" fill="#CCCCCC"/>
<path d="M126.353 242.518L137.755 235.974L129.132 231.033L117.729 237.577L126.353 242.518Z" fill="#999999"/>
<path d="M126.353 241.899L137.213 235.664L137.755 235.974L126.353 242.518L117.729 237.576L118.272 237.267L126.353 241.899Z" fill="white"/>
<path d="M117.729 237.578V238.96L126.353 243.912V242.519L117.729 237.578Z" fill="#1A1A1A"/>
<path d="M137.755 235.975V237.356L126.353 243.912V242.519L137.755 235.975Z" fill="#4D4D4D"/>
<path d="M112.792 240.893L121.416 245.845L112.748 250.819L112.051 252.201L110.014 252.389L101.39 247.448L112.792 240.893Z" fill="#CCCCCC"/>
<path d="M112.051 250.819L123.442 244.275L114.818 239.322L103.427 245.877L112.051 250.819Z" fill="#999999"/>
<path d="M112.051 250.199L122.91 243.965L123.442 244.274L112.051 250.818L103.427 245.877L103.958 245.568L112.051 250.199Z" fill="white"/>
<path d="M103.427 245.877V247.259L112.051 252.2V250.818L103.427 245.877Z" fill="#1A1A1A"/>
<path d="M123.442 244.275V245.657L112.051 252.201V250.819L123.442 244.275Z" fill="#4D4D4D"/>
<path d="M141.685 224.146L150.309 229.099L141.641 234.073L140.943 235.455L138.918 235.643L130.283 230.702L141.685 224.146Z" fill="#CCCCCC"/>
<path d="M140.943 234.073L152.334 227.528L143.711 222.576L132.32 229.131L140.943 234.073Z" fill="#999999"/>
<path d="M140.943 233.453L151.803 227.219L152.334 227.528L140.943 234.072L132.32 229.131L132.862 228.822L140.943 233.453Z" fill="white"/>
<path d="M132.32 229.131V230.513L140.943 235.454V234.072L132.32 229.131Z" fill="#1A1A1A"/>
<path d="M152.334 227.529V228.911L140.943 235.455V234.073L152.334 227.529Z" fill="#4D4D4D"/>
<path d="M156.397 215.336L165.02 220.288L156.353 225.263L155.655 226.644L153.629 226.832L145.006 221.891L156.397 215.336Z" fill="#CCCCCC"/>
<path d="M155.655 225.263L167.057 218.719L158.434 213.777L147.032 220.321L155.655 225.263Z" fill="#999999"/>
<path d="M155.655 224.643L166.515 218.408L167.057 218.718L155.655 225.262L147.032 220.321L147.574 220.011L155.655 224.643Z" fill="white"/>
<path d="M147.032 220.322V221.704L155.655 226.645V225.263L147.032 220.322Z" fill="#1A1A1A"/>
<path d="M167.057 218.719V220.101L155.655 226.645V225.263L167.057 218.719Z" fill="#4D4D4D"/>
<path d="M171.53 206.67L180.164 211.622L171.496 216.597L170.799 217.978L168.762 218.166L160.139 213.225L171.53 206.67Z" fill="#CCCCCC"/>
<path d="M170.799 216.596L182.19 210.052L173.567 205.1L162.176 211.655L170.799 216.596Z" fill="#999999"/>
<path d="M170.799 215.977L181.648 209.742L182.19 210.052L170.799 216.596L162.176 211.655L162.707 211.345L170.799 215.977Z" fill="white"/>
<path d="M162.176 211.654V213.036L170.799 217.977V216.596L162.176 211.654Z" fill="#1A1A1A"/>
<path d="M182.19 210.053V211.435L170.799 217.979V216.597L182.19 210.053Z" fill="#4D4D4D"/>
<path d="M201.762 189.094L210.385 194.035L201.729 199.009L201.02 200.402L198.994 200.579L190.371 195.638L201.762 189.094Z" fill="#CCCCCC"/>
<path d="M201.02 199.009L212.422 192.465L203.799 187.523L192.397 194.068L201.02 199.009Z" fill="#999999"/>
<path d="M201.02 198.389L211.88 192.154L212.422 192.464L201.02 199.008L192.397 194.067L192.939 193.757L201.02 198.389Z" fill="white"/>
<path d="M192.397 194.068V195.45L201.02 200.402V199.01L192.397 194.068Z" fill="#1A1A1A"/>
<path d="M212.422 192.465V193.847L201.02 200.402V199.009L212.422 192.465Z" fill="#4D4D4D"/>
<path d="M217.88 180.184L226.503 185.125L217.847 190.099L217.138 191.481L215.112 191.669L206.489 186.728L217.88 180.184Z" fill="#CCCCCC"/>
<path d="M217.138 190.099L228.54 183.555L219.917 178.613L208.515 185.157L217.138 190.099Z" fill="#999999"/>
<path d="M217.138 189.479L227.998 183.244L228.54 183.554L217.138 190.098L208.515 185.157L209.057 184.847L217.138 189.479Z" fill="white"/>
<path d="M208.515 185.158V186.54L217.138 191.481V190.099L208.515 185.158Z" fill="#1A1A1A"/>
<path d="M228.54 183.555V184.936L217.138 191.481V190.099L228.54 183.555Z" fill="#4D4D4D"/>
<path d="M232.99 171.385L241.614 176.337L232.957 181.311L232.26 182.693L230.223 182.881L221.599 177.94L232.99 171.385Z" fill="#CCCCCC"/>
<path d="M232.26 181.311L243.651 174.767L235.027 169.814L223.625 176.37L232.26 181.311Z" fill="#999999"/>
<path d="M232.26 180.692L243.108 174.457L243.651 174.767L232.26 181.311L223.625 176.369L224.167 176.049L232.26 180.692Z" fill="white"/>
<path d="M223.625 176.369V177.751L232.26 182.692V181.31L223.625 176.369Z" fill="#1A1A1A"/>
<path d="M243.651 174.768V176.149L232.26 182.693V181.312L243.651 174.768Z" fill="#4D4D4D"/>
<path d="M247.736 162.752L256.359 167.693L247.702 172.679L247.005 174.06L244.968 174.248L236.344 169.296L247.736 162.752Z" fill="#CCCCCC"/>
<path d="M247.005 172.678L258.396 166.134L249.772 161.182L238.37 167.726L247.005 172.678Z" fill="#999999"/>
<path d="M247.005 172.059L257.854 165.824L258.396 166.134L247.005 172.678L238.37 167.726L238.913 167.427L247.005 172.059Z" fill="white"/>
<path d="M238.37 167.727V169.119L247.005 174.061V172.679L238.37 167.727Z" fill="#1A1A1A"/>
<path d="M258.396 166.135V167.517L247.005 174.061V172.679L258.396 166.135Z" fill="#4D4D4D"/>
<path d="M262.304 153.863L270.927 158.816L262.259 163.79L261.562 165.172L259.536 165.36L250.902 160.418L262.304 153.863Z" fill="#CCCCCC"/>
<path d="M261.562 163.79L272.964 157.246L264.329 152.305L252.938 158.849L261.562 163.79Z" fill="#999999"/>
<path d="M261.562 163.17L272.422 156.936L272.964 157.245L261.562 163.789L252.938 158.848L253.481 158.538L261.562 163.17Z" fill="white"/>
<path d="M252.938 158.85V160.231L261.562 165.173V163.791L252.938 158.85Z" fill="#1A1A1A"/>
<path d="M272.964 157.246V158.628L261.562 165.172V163.79L272.964 157.246Z" fill="#4D4D4D"/>
<path d="M115.526 224.887L124.15 229.828L115.482 234.802L114.785 236.195L112.748 236.372L104.124 231.431L115.526 224.887Z" fill="#CCCCCC"/>
<path d="M114.785 234.802L126.176 228.258L117.552 223.316L106.161 229.86L114.785 234.802Z" fill="#999999"/>
<path d="M114.785 234.182L125.644 227.947L126.176 228.257L114.785 234.801L106.161 229.86L106.693 229.55L114.785 234.182Z" fill="white"/>
<path d="M106.161 229.861V231.243L114.785 236.195V234.803L106.161 229.861Z" fill="#1A1A1A"/>
<path d="M126.176 228.258V229.64L114.785 236.195V234.802L126.176 228.258Z" fill="#4D4D4D"/>
<path d="M101.213 233.178L109.837 238.13L101.18 243.104L100.471 244.486L98.4456 244.674L89.822 239.733L101.213 233.178Z" fill="#CCCCCC"/>
<path d="M100.482 243.104L111.873 236.56L103.25 231.607L91.8478 238.163L100.482 243.104Z" fill="#999999"/>
<path d="M100.471 242.485L111.331 236.25L111.873 236.56L100.471 243.104L91.8478 238.162L92.3902 237.853L100.471 242.485Z" fill="white"/>
<path d="M91.8478 238.162V239.544L100.482 244.485V243.103L91.8478 238.162Z" fill="#1A1A1A"/>
<path d="M111.873 236.561V237.942L100.482 244.486V243.105L111.873 236.561Z" fill="#4D4D4D"/>
<path d="M243.706 141.627L248.389 144.192L239.721 149.166L239.023 150.548L236.998 150.736L232.315 148.171L243.706 141.627Z" fill="#CCCCCC"/>
<path d="M239.023 149.165L250.426 142.621L245.743 140.057L234.341 146.601L239.023 149.165Z" fill="#999999"/>
<path d="M239.023 148.547L249.883 142.312L250.426 142.622L239.023 149.166L234.341 146.602L234.883 146.292L239.023 148.547Z" fill="white"/>
<path d="M234.341 146.602V147.983L239.023 150.548V149.166L234.341 146.602Z" fill="#1A1A1A"/>
<path d="M250.426 142.621V144.003L239.023 150.547V149.165L250.426 142.621Z" fill="#4D4D4D"/>
<path d="M229.027 150.217L233.71 152.781L225.042 157.767L224.345 159.149L222.319 159.336L217.636 156.772L229.027 150.217Z" fill="#CCCCCC"/>
<path d="M224.345 157.766L235.747 151.211L231.064 148.646L219.662 155.202L224.345 157.766Z" fill="#999999"/>
<path d="M224.345 157.148L235.204 150.902L235.747 151.212L224.345 157.767L219.662 155.202L220.205 154.893L224.345 157.148Z" fill="white"/>
<path d="M219.662 155.201V156.583L224.345 159.148V157.766L219.662 155.201Z" fill="#1A1A1A"/>
<path d="M235.747 151.211V152.593L224.345 159.148V157.766L235.747 151.211Z" fill="#4D4D4D"/>
<path d="M214.348 158.816L219.031 161.381L210.363 166.355L209.666 167.737L207.64 167.925L202.957 165.36L214.348 158.816Z" fill="#CCCCCC"/>
<path d="M209.666 166.355L221.068 159.811L216.385 157.246L204.983 163.79L209.666 166.355Z" fill="#999999"/>
<path d="M209.666 165.737L220.525 159.502L221.068 159.811L209.666 166.356L204.983 163.791L205.526 163.481L209.666 165.737Z" fill="white"/>
<path d="M204.983 163.791V165.173L209.666 167.737V166.356L204.983 163.791Z" fill="#1A1A1A"/>
<path d="M221.068 159.811V161.192L209.666 167.736V166.355L221.068 159.811Z" fill="#4D4D4D"/>
<path d="M199.67 167.406L204.352 169.971L195.684 174.956L194.987 176.338L192.961 176.526L188.279 173.961L199.67 167.406Z" fill="#CCCCCC"/>
<path d="M194.987 174.956L206.389 168.4L201.707 165.836L190.304 172.391L194.987 174.956Z" fill="#999999"/>
<path d="M194.987 174.337L205.847 168.092L206.389 168.401L194.987 174.956L190.304 172.392L190.847 172.082L194.987 174.337Z" fill="white"/>
<path d="M190.304 172.391V173.772L194.987 176.337V174.955L190.304 172.391Z" fill="#1A1A1A"/>
<path d="M206.389 168.4V169.793L194.987 176.337V174.956L206.389 168.4Z" fill="#4D4D4D"/>
<path d="M184.991 176.006L189.673 178.57L181.006 183.545L180.308 184.927L178.282 185.115L173.6 182.55L184.991 176.006Z" fill="#CCCCCC"/>
<path d="M180.308 183.544L191.71 177L187.028 174.436L175.626 180.98L180.308 183.544Z" fill="#999999"/>
<path d="M180.308 182.926L191.168 176.691L191.71 177.001L180.308 183.545L175.626 180.98L176.168 180.671L180.308 182.926Z" fill="white"/>
<path d="M175.626 180.98V182.362L180.308 184.927V183.545L175.626 180.98Z" fill="#1A1A1A"/>
<path d="M191.71 177V178.382L180.308 184.926V183.544L191.71 177Z" fill="#4D4D4D"/>
<path d="M170.312 184.594L174.995 187.158L166.338 192.144L165.629 193.526L163.604 193.713L158.921 191.149L170.312 184.594Z" fill="#CCCCCC"/>
<path d="M165.629 192.143L177.031 185.588L172.349 183.023L160.947 189.579L165.629 192.143Z" fill="#999999"/>
<path d="M165.629 191.524L176.489 185.289L177.031 185.588L165.629 192.143L160.947 189.578L161.489 189.269L165.629 191.524Z" fill="white"/>
<path d="M160.947 189.578V190.96L165.629 193.524V192.143L160.947 189.578Z" fill="#1A1A1A"/>
<path d="M177.031 185.588V186.981L165.629 193.525V192.143L177.031 185.588Z" fill="#4D4D4D"/>
<path d="M155.633 193.195L160.316 195.76L151.648 200.734L150.951 202.116L148.925 202.304L144.242 199.739L155.633 193.195Z" fill="#CCCCCC"/>
<path d="M150.951 200.734L162.353 194.19L157.67 191.625L146.268 198.169L150.951 200.734Z" fill="#999999"/>
<path d="M150.951 200.115L161.81 193.881L162.353 194.19L150.951 200.734L146.268 198.17L146.81 197.86L150.951 200.115Z" fill="white"/>
<path d="M146.268 198.17V199.552L150.951 202.127V200.734L146.268 198.17Z" fill="#1A1A1A"/>
<path d="M162.353 194.189V195.571L150.951 202.126V200.734L162.353 194.189Z" fill="#4D4D4D"/>
<path d="M140.954 201.783L145.637 204.359L136.98 209.333L136.272 210.715L134.246 210.903L129.563 208.338L140.954 201.783Z" fill="#CCCCCC"/>
<path d="M136.272 209.333L147.674 202.789L142.991 200.225L131.589 206.769L136.272 209.333Z" fill="#999999"/>
<path d="M136.272 208.715L147.131 202.48L147.674 202.79L136.272 209.334L131.589 206.769L132.132 206.46L136.272 208.715Z" fill="white"/>
<path d="M131.589 206.77V208.151L136.272 210.716V209.334L131.589 206.77Z" fill="#1A1A1A"/>
<path d="M147.674 202.789V204.171L136.272 210.715V209.333L147.674 202.789Z" fill="#4D4D4D"/>
<path d="M126.276 210.385L130.958 212.949L122.301 217.924L121.593 219.317L119.567 219.493L114.885 216.929L126.276 210.385Z" fill="#CCCCCC"/>
<path d="M121.593 217.923L132.995 211.379L128.312 208.814L116.91 215.359L121.593 217.923Z" fill="#999999"/>
<path d="M121.593 217.305L132.453 211.07L132.995 211.38L121.593 217.924L116.91 215.359L117.453 215.05L121.593 217.305Z" fill="white"/>
<path d="M116.91 215.359V216.752L121.593 219.317V217.924L116.91 215.359Z" fill="#1A1A1A"/>
<path d="M132.995 211.379V212.761L121.593 219.316V217.923L132.995 211.379Z" fill="#4D4D4D"/>
<path d="M111.597 218.984L116.279 221.549L107.623 226.523L106.914 227.905L104.888 228.093L100.206 225.528L111.597 218.984Z" fill="#CCCCCC"/>
<path d="M106.914 226.523L118.316 219.979L113.634 217.414L102.231 223.958L106.914 226.523Z" fill="#999999"/>
<path d="M106.914 225.904L117.774 219.67L118.316 219.979L106.914 226.524L102.231 223.959L102.774 223.649L106.914 225.904Z" fill="white"/>
<path d="M102.231 223.959V225.341L106.914 227.905V226.524L102.231 223.959Z" fill="#1A1A1A"/>
<path d="M118.316 219.979V221.36L106.914 227.904V226.523L118.316 219.979Z" fill="#4D4D4D"/>
<path d="M96.9179 227.572L101.6 230.137L92.9438 235.122L92.2353 236.504L90.2095 236.681L85.5269 234.116L96.9179 227.572Z" fill="#CCCCCC"/>
<path d="M92.2352 235.122L103.637 228.567L98.9547 226.002L87.5526 232.557L92.2352 235.122Z" fill="#999999"/>
<path d="M92.2352 234.503L103.095 228.258L103.637 228.567L92.2352 235.122L87.5526 232.558L88.095 232.237L92.2352 234.503Z" fill="white"/>
<path d="M87.5526 232.557V233.938L92.2352 236.503V235.121L87.5526 232.557Z" fill="#1A1A1A"/>
<path d="M103.637 228.566V229.948L92.2352 236.503V235.122L103.637 228.566Z" fill="#4D4D4D"/>
<path d="M82.2391 236.174L86.9217 238.738L78.2649 243.713L77.5564 245.095L75.5306 245.282L70.848 242.718L82.2391 236.174Z" fill="#CCCCCC"/>
<path d="M77.5563 243.712L88.9584 237.168L84.2758 234.604L72.8848 241.148L77.5563 243.712Z" fill="#999999"/>
<path d="M77.5564 243.094L88.4161 236.859L88.9585 237.169L77.5564 243.713L72.8738 241.148L73.4162 240.839L77.5564 243.094Z" fill="white"/>
<path d="M72.8849 241.148V242.53L77.5564 245.095V243.713L72.8849 241.148Z" fill="#1A1A1A"/>
<path d="M88.9585 237.168V238.55L77.5564 245.094V243.712L88.9585 237.168Z" fill="#4D4D4D"/>
<path d="M130.106 216.43L138.74 221.382L130.072 226.356L129.375 227.738L127.338 227.926L118.715 222.985L130.106 216.43Z" fill="#CCCCCC"/>
<path d="M129.375 226.356L140.766 219.812L132.142 214.859L120.751 221.415L129.375 226.356Z" fill="#999999"/>
<path d="M129.375 225.737L140.235 219.502L140.766 219.811L129.375 226.356L120.751 221.414L121.283 221.105L129.375 225.737Z" fill="white"/>
<path d="M120.751 221.414V222.796L129.375 227.737V226.355L120.751 221.414Z" fill="#1A1A1A"/>
<path d="M140.766 219.812V221.194L129.375 227.738V226.357L140.766 219.812Z" fill="#4D4D4D"/>
<path d="M144.829 207.631L153.452 212.572L144.785 217.546L144.087 218.928L142.05 219.116L133.427 214.175L144.829 207.631Z" fill="#CCCCCC"/>
<path d="M144.087 217.546L155.478 211.002L146.855 206.061L135.464 212.605L144.087 217.546Z" fill="#999999"/>
<path d="M144.087 216.926L154.947 210.691L155.478 211.001L144.087 217.545L135.464 212.604L136.006 212.294L144.087 216.926Z" fill="white"/>
<path d="M135.464 212.605V213.987L144.087 218.928V217.547L135.464 212.605Z" fill="#1A1A1A"/>
<path d="M155.478 211.002V212.384L144.087 218.928V217.546L155.478 211.002Z" fill="#4D4D4D"/>
<path d="M159.962 198.953L168.585 203.905L159.928 208.88L159.22 210.262L157.194 210.449L148.571 205.508L159.962 198.953Z" fill="#CCCCCC"/>
<path d="M159.22 208.879L170.622 202.335L161.999 197.383L150.596 203.938L159.22 208.879Z" fill="#999999"/>
<path d="M159.22 208.26L170.08 202.025L170.622 202.335L159.22 208.879L150.596 203.938L151.139 203.628L159.22 208.26Z" fill="white"/>
<path d="M150.596 203.938V205.319L159.22 210.26V208.879L150.596 203.938Z" fill="#1A1A1A"/>
<path d="M170.622 202.336V203.718L159.22 210.262V208.88L170.622 202.336Z" fill="#4D4D4D"/>
<path d="M175.26 189.955L183.884 194.896L175.216 199.871L174.519 201.252L172.482 201.44L163.858 196.499L175.26 189.955Z" fill="#CCCCCC"/>
<path d="M174.519 199.87L185.91 193.326L177.286 188.385L165.895 194.929L174.519 199.87Z" fill="#999999"/>
<path d="M174.519 199.25L185.378 193.016L185.921 193.325L174.519 199.869L165.895 194.928L166.437 194.618L174.519 199.25Z" fill="white"/>
<path d="M165.895 194.93V196.311L174.519 201.253V199.871L165.895 194.93Z" fill="#1A1A1A"/>
<path d="M185.91 193.326V194.708L174.519 201.252V199.87L185.91 193.326Z" fill="#4D4D4D"/>
<path d="M190.194 181.377L198.817 186.318L190.149 191.293L189.452 192.685L187.415 192.862L178.792 187.921L190.194 181.377Z" fill="#CCCCCC"/>
<path d="M189.452 191.292L200.843 184.748L192.219 179.807L180.828 186.351L189.452 191.292Z" fill="#999999"/>
<path d="M189.452 190.672L200.312 184.438L200.843 184.747L189.452 191.291L180.828 186.35L181.36 186.04L189.452 190.672Z" fill="white"/>
<path d="M180.828 186.352V187.733L189.452 192.686V191.293L180.828 186.352Z" fill="#1A1A1A"/>
<path d="M200.843 184.748V186.13L189.452 192.685V191.292L200.843 184.748Z" fill="#4D4D4D"/>
<path d="M206.312 172.469L214.935 177.41L206.267 182.384L205.57 183.766L203.533 183.954L194.909 179.013L206.312 172.469Z" fill="#CCCCCC"/>
<path d="M205.57 182.384L216.961 175.84L208.337 170.898L196.946 177.443L205.57 182.384Z" fill="#999999"/>
<path d="M205.57 181.764L216.429 175.529L216.972 175.839L205.57 182.383L196.946 177.442L197.489 177.132L205.57 181.764Z" fill="white"/>
<path d="M196.946 177.443V178.825L205.57 183.766V182.385L196.946 177.443Z" fill="#1A1A1A"/>
<path d="M216.961 175.84V177.222L205.57 183.766V182.384L216.961 175.84Z" fill="#4D4D4D"/>
<path d="M221.422 163.67L230.046 168.622L221.389 173.597L220.68 174.978L218.655 175.166L210.031 170.214L221.422 163.67Z" fill="#CCCCCC"/>
<path d="M220.68 173.596L232.083 167.052L223.459 162.1L212.057 168.655L220.68 173.596Z" fill="#999999"/>
<path d="M220.68 172.977L231.54 166.742L232.083 167.052L220.68 173.596L212.057 168.655L212.599 168.334L220.68 172.977Z" fill="white"/>
<path d="M212.057 168.654V170.036L220.68 174.977V173.596L212.057 168.654Z" fill="#1A1A1A"/>
<path d="M232.083 167.053V168.435L220.68 174.979V173.597L232.083 167.053Z" fill="#4D4D4D"/>
<path d="M236.167 155.035L244.791 159.976L236.123 164.962L235.426 166.344L233.4 166.531L224.776 161.59L236.167 155.035Z" fill="#CCCCCC"/>
<path d="M235.426 164.961L246.828 158.406L238.193 153.465L226.802 160.009L235.426 164.961Z" fill="#999999"/>
<path d="M235.426 164.341L246.285 158.096L246.828 158.405L235.426 164.96L226.802 160.008L227.345 159.699L235.426 164.341Z" fill="white"/>
<path d="M226.802 160.01V161.403L235.426 166.344V164.962L226.802 160.01Z" fill="#1A1A1A"/>
<path d="M246.828 158.406V159.799L235.426 166.343V164.961L246.828 158.406Z" fill="#4D4D4D"/>
<path d="M250.736 146.146L259.359 151.099L250.691 156.073L249.994 157.455L247.957 157.643L239.333 152.702L250.736 146.146Z" fill="#CCCCCC"/>
<path d="M249.994 156.073L261.385 149.529L252.761 144.588L241.37 151.132L249.994 156.073Z" fill="#999999"/>
<path d="M249.994 155.453L260.854 149.219L261.385 149.528L249.994 156.072L241.37 151.131L241.902 150.822L249.994 155.453Z" fill="white"/>
<path d="M241.37 151.133V152.515L249.994 157.456V156.074L241.37 151.133Z" fill="#1A1A1A"/>
<path d="M261.385 149.529V150.911L249.994 157.455V156.073L261.385 149.529Z" fill="#4D4D4D"/>
<path d="M85.7703 241.977L107.113 254.147L101.955 257.132L101.257 258.514L99.2204 258.702L77.8663 246.531L85.7703 241.977Z" fill="#CCCCCC"/>
<path d="M101.257 257.131L109.15 252.577L87.7961 240.406L79.9032 244.961L101.257 257.131Z" fill="#999999"/>
<path d="M101.257 256.512L108.608 252.267L109.15 252.576L101.257 257.131L79.9032 244.96L80.4456 244.65L101.257 256.512Z" fill="white"/>
<path d="M79.9032 244.961V246.354L101.257 258.513V257.132L79.9032 244.961Z" fill="#1A1A1A"/>
<path d="M109.15 252.576V253.958L101.257 258.512V257.13L109.15 252.576Z" fill="#4D4D4D"/>
<path d="M234.905 200.59L243.54 205.531L195.662 233.697L194.965 235.079L192.928 235.267L184.304 230.326L234.905 200.59Z" fill="#CCCCCC"/>
<path d="M194.965 233.697L245.566 203.961L236.942 199.02L186.33 228.755L194.965 233.697Z" fill="#999999"/>
<path d="M194.965 233.077L245.023 203.65L245.566 203.96L194.965 233.696L186.33 228.754L186.873 228.445L194.965 233.077Z" fill="white"/>
<path d="M186.33 228.756V230.138L194.965 235.079V233.697L186.33 228.756Z" fill="#1A1A1A"/>
<path d="M245.566 203.961V205.354L194.965 235.078V233.697L245.566 203.961Z" fill="#4D4D4D"/>
<path d="M216.352 13.2434L215.035 13.4866L212.278 14.0061C212.356 14.2825 212.444 14.5809 212.522 14.8794C212.699 15.6311 212.832 16.427 212.909 17.2892L215.223 45.0794L221.234 116.832C221.865 124.238 217.858 132.805 212.267 135.978L54.387 227.274C54.2984 227.33 54.1988 227.374 54.0881 227.429L55.9035 232.171L52.4276 230.303C50.3021 229.187 48.7191 226.799 48.1435 223.383C48.066 222.963 48.0217 222.532 47.9885 222.09L39.6971 122.757L39.6749 122.547C39.2211 117.44 40.9923 111.791 43.9701 107.735C45.3096 105.911 46.8926 104.385 48.6416 103.401L206.511 12.1159C208.957 10.7451 211.282 10.6346 213.186 11.541V11.5189L215.555 12.8233L216.352 13.2434Z" fill="#4D4D4D"/>
<path d="M215.566 12.8233L215.035 13.4866L212.522 14.8794L47.435 109.227L43.9701 107.746C45.3096 105.922 46.8926 104.396 48.6416 103.412L206.511 12.1159C208.957 10.7451 211.282 10.6346 213.186 11.541V11.5189L215.555 12.8233H215.566Z" fill="#F2F2F2"/>
<path d="M55.6379 112.643L50.4018 128.241L39.6971 122.769L39.6749 122.559C39.2211 117.452 40.9923 111.803 43.9701 107.746L55.6268 112.643H55.6379Z" fill="#999999"/>
<path d="M220.869 21.4686L223.182 49.2589L229.193 121.012C229.824 128.418 225.817 136.985 220.215 140.157L103.195 206.792L62.3463 231.454C57.7744 234.052 53.5788 232.217 51.8519 227.43C51.5862 226.712 51.3759 225.938 51.2431 225.076C51.1656 224.645 51.1324 224.224 51.0881 223.771L42.7634 124.228C42.1324 116.822 46.1619 108.255 51.7412 105.082L109.504 72.0084L164.102 39.5533H164.124L209.622 13.786C213.352 11.6746 216.839 12.5148 218.931 15.4994C219.972 16.9917 220.658 19.0146 220.88 21.4797L220.869 21.4686Z" fill="#B3B3B3"/>
<path d="M48.1434 118.105L58.2503 226.358L223.725 129.015L213.629 20.7617L48.1434 118.105Z" fill="#FFABAB"/>
<path d="M48.1544 118.115L49.9478 137.438L215.61 41.9409L213.629 20.75L48.1544 118.115Z" fill="#7A1313"/>
<g style="mix-blend-mode:screen">
<path d="M48.542 122.35L53.125 171.541L114.01 193.561L164.046 164.123L48.542 122.35Z" fill="#896E64"/>
</g>
<g style="mix-blend-mode:screen">
<path d="M78.1099 100.484L197.61 144.369L223.736 129.015L223.548 127.059L106.194 83.9473L78.1099 100.484Z" fill="#896E64"/>
</g>
<g style="mix-blend-mode:screen">
<path d="M151.903 57.0638L219.319 81.8251L216.74 54.057L179.987 40.5488L151.903 57.0638Z" fill="#896E64"/>
</g>
<path d="M211.094 22.2417L220.924 127.643L57.9846 223.505L58.2392 226.357L223.736 129.025L213.64 20.7715L211.094 22.2417Z" fill="#DCDEDD"/>
<path d="M58.2392 226.358L223.736 129.026L220.924 127.645L57.9846 223.506L58.2392 226.358Z" fill="#F9F9F9"/>
<path d="M131.943 64.7126C132.098 66.3265 131.235 68.1394 129.995 68.869C129.63 69.079 129.231 69.1785 128.855 69.1785C128.633 69.1785 128.39 69.1453 128.168 69.0569C127.416 68.7916 126.774 68.0731 126.652 66.8129C126.497 65.199 127.36 63.3861 128.6 62.6565C128.965 62.4465 129.353 62.3359 129.74 62.3359C129.973 62.3359 130.227 62.3802 130.46 62.4796H130.482C131.213 62.7671 131.833 63.4856 131.954 64.7126H131.943Z" fill="#F2F2F2"/>
<path d="M127.227 66.8136C127.25 67.0125 127.283 67.2005 127.338 67.3773V67.3994C127.504 67.9853 127.858 68.3943 128.334 68.5601C128.489 68.6154 128.644 68.6486 128.799 68.6486C129.087 68.6486 129.386 68.5601 129.652 68.3943C130.725 67.7753 131.489 66.1282 131.356 64.7243C131.279 63.8732 130.936 63.2652 130.36 63.022L130.283 62.9888C130.128 62.9336 129.951 62.9004 129.796 62.9004C129.508 62.9004 129.231 62.9778 128.943 63.1546C128.91 63.1767 128.855 63.2099 128.821 63.2431H128.799C127.814 63.9174 127.106 65.476 127.238 66.8246L127.227 66.8136Z" fill="#518E90"/>
<path d="M127.227 66.8126C127.25 67.0116 127.283 67.1995 127.338 67.3764V67.3985C127.493 67.6306 127.703 67.8185 127.958 67.907C128.08 67.9401 128.213 67.9733 128.346 67.9733C128.578 67.9733 128.822 67.907 129.054 67.7522C129.951 67.2437 130.582 65.8841 130.471 64.7013C130.405 64.0159 130.106 63.5074 129.63 63.2863L129.552 63.2642C129.43 63.2089 129.298 63.1758 129.165 63.1758C129.032 63.1758 128.921 63.1979 128.81 63.2311H128.788C127.803 63.9054 127.095 65.464 127.227 66.8126Z" fill="#333333"/>
<path d="M169.614 25.2808L153.231 15.7742C152.323 15.2436 151.072 15.3209 149.688 16.1169L166.072 25.6234C167.456 24.8275 168.707 24.7502 169.614 25.2808Z" fill="#FFF642"/>
<path d="M94.6706 102.738L111.054 112.244C110.158 111.725 109.604 110.619 109.593 109.05L93.2094 99.543C93.2094 101.113 93.7739 102.218 94.6706 102.738Z" fill="#FC912D"/>
<path d="M109.46 64.0027L93.0876 54.4961L93.2094 99.5419L109.593 109.048L109.46 64.0027Z" fill="#CC883E"/>
<path d="M166.072 25.6238L149.689 16.1172L98.047 45.8972L114.431 55.4038L166.072 25.6238Z" fill="#FFDCA4"/>
<path d="M130.836 26.9938H155.312V18.1836H146.113L130.836 26.9938Z" fill="#FCAA2D"/>
<path d="M98.047 45.8851L107.302 51.2574H113.213V42.4473H104.025L98.047 45.8851Z" fill="#FCAA2D"/>
<path d="M114.431 55.4031L98.047 45.8965C95.3016 47.4772 93.0765 51.3351 93.0765 54.4966L109.46 64.0032C109.46 60.8417 111.674 56.9838 114.431 55.4031Z" fill="#FFC764"/>
<path d="M114.431 55.4041C111.685 56.9849 109.46 60.8428 109.46 64.0043L109.593 109.05C109.593 112.212 111.84 113.494 114.597 111.902L166.238 82.1331C168.984 80.5524 171.209 76.6945 171.209 73.533L171.076 28.4872C171.076 25.3257 168.829 24.0434 166.072 25.6352L114.431 55.4041Z" fill="#FFC764"/>
<path d="M150.098 60.4876C150.098 55.4027 146.423 53.424 141.939 56.1986C137.755 58.7963 134.357 64.854 134.401 69.6294C134.423 72.5919 135.729 74.4711 137.7 74.9465V90.7429C137.7 91.7156 138.386 92.1025 139.238 91.6162L145.272 88.1341C146.124 87.6477 146.81 86.4649 146.81 85.4921V69.6957C148.803 66.9101 150.109 63.4943 150.109 60.4765L150.098 60.4876Z" fill="#FF6D40"/>
<path d="M146.08 54.972C146.688 55.9005 147.043 57.1607 147.043 58.7194C147.043 61.7371 145.736 65.1639 143.744 67.9385V83.735C143.744 84.7077 143.058 85.8905 142.205 86.3769L137.711 88.9747V90.7544C137.711 91.7271 138.397 92.114 139.249 91.6277L145.283 88.1456C146.135 87.6592 146.821 86.4764 146.821 85.5036V69.7072C148.814 66.9326 150.12 63.5058 150.12 60.488C150.12 57.1165 148.493 55.1157 146.091 54.9609L146.08 54.972Z" fill="#FFF642"/>
<path d="M155.301 22.428L149.257 18.9238L149.279 23.4892L155.312 26.9823L155.301 22.428Z" fill="#CC883E"/>
<path d="M149.788 10.3362L143.755 6.83203C147.142 8.79968 149.246 12.9782 149.268 18.9143L155.301 22.4184C155.279 16.4823 153.175 12.3039 149.788 10.3362Z" fill="#996128"/>
<path d="M113.213 46.6917L107.169 43.1875L107.191 47.7529L113.224 51.2571L113.213 46.6917Z" fill="#FC912D"/>
<path d="M152.866 5.07365L146.833 1.56947C142.604 -0.884555 136.759 -0.541875 130.327 3.17233L136.36 6.67651C142.803 2.9623 148.648 2.61962 152.866 5.07365Z" fill="#FFDCA4"/>
<path d="M136.349 6.66629L130.316 3.16211C117.519 10.5463 107.124 28.4983 107.169 43.1783L113.202 46.6824C113.157 31.9914 123.541 14.0394 136.349 6.66629Z" fill="#EFCD9C"/>
<path d="M136.349 6.66592C123.552 14.0501 113.158 32.0021 113.202 46.6821V51.2474L117.552 48.7492V44.1838C117.508 32.2342 125.943 17.6427 136.36 11.6403C146.766 5.63788 155.257 10.4796 155.29 22.4181V26.9835L159.64 24.4853V19.9199C159.585 5.22887 149.135 -0.707222 136.338 6.66592H136.349Z" fill="#CC883E"/>
<g style="mix-blend-mode:multiply">
<path d="M219.894 207.763L277.99 174.324C282.54 171.704 281.975 167.116 276.717 164.088L266.344 158.107C261.086 155.078 253.138 154.747 248.577 157.367L190.481 190.806C185.932 193.425 186.496 198.013 191.754 201.042L202.127 207.022C207.385 210.051 215.334 210.382 219.894 207.763Z" fill="#ABABAB"/>
</g>
<path d="M217.038 41.3868L257.466 33.4609L250.426 59.4825C250.426 79.2031 242.964 102.262 229.957 122.69L210.596 153.111L225.252 161.557V164.387L215.079 160.131C214.337 159.821 213.607 159.479 212.909 159.114L211.182 158.108L194.854 148.734L193.105 147.728C189.795 145.683 186.939 142.953 184.581 139.625C179.412 132.363 176.611 122.259 176.611 110.177V80.0433L217.038 41.3536V41.3868Z" fill="#CC883E"/>
<path d="M194.622 90.4007L235.049 51.711L275.477 43.7852V73.9189C275.477 93.6395 268.016 116.699 255.008 137.127L235.049 168.487L215.09 160.141C202.094 154.703 194.622 140.255 194.622 120.534V90.4007Z" fill="#FFAF40"/>
<path d="M201.341 93.6731L235.049 61.417L268.758 54.8066V79.9328C268.758 96.3814 262.536 115.605 251.688 132.639L235.038 158.793L218.389 151.84C207.551 147.308 201.319 135.259 201.319 118.81V93.6842L201.341 93.6731Z" fill="#CC883E"/>
<path d="M238.47 127.488L230.046 126.084C228.153 125.774 227.167 124.282 227.843 122.768L246.839 79.7559C247.514 78.2414 249.584 77.2576 251.477 77.5782L259.901 78.9821C261.794 79.2916 262.78 80.7839 262.104 82.2983L243.108 125.31C242.433 126.825 240.363 127.808 238.47 127.488Z" fill="white"/>
<path d="M242.699 125.774L239.997 130.395C239.389 131.434 237.44 131.434 235.636 130.395L208.913 115.085C207.108 114.046 206.134 112.377 206.743 111.337L209.444 106.717C210.053 105.678 212.001 105.678 213.806 106.717L240.529 122.027C242.333 123.066 243.307 124.735 242.699 125.774Z" fill="white"/>
<path d="M247.625 131.102C258.462 114.067 264.695 94.8442 264.695 78.3956V55.5908L268.757 54.7949V79.9211C268.757 96.3697 262.536 115.593 251.687 132.627L235.038 158.782L231.064 157.124L247.625 131.113V131.102Z" fill="#FFC764"/>
<path d="M275.477 43.7849L235.049 51.6997L217.027 41.3751L257.455 33.4492L275.477 43.7849Z" fill="#FFDCA4"/>
<path d="M194.622 90.4003L176.6 80.0757L217.027 41.375L235.049 51.6996L194.622 90.4003Z" fill="#FFC764"/>
<path d="M8.57925 186.473L156.541 101.167C158.633 99.9625 160.548 99.852 162.032 100.648L166.437 102.781L164.832 104.683L164.777 104.661C164.998 105.545 165.12 106.529 165.12 107.634V193.569C165.12 199.881 161.279 207.199 156.541 209.941L8.57925 295.246C8.10324 295.522 7.62723 295.732 7.17336 295.887L7.1955 298.12L3.22137 295.821C1.25091 294.859 0 292.372 0 288.768V202.833C0 196.521 3.84129 189.203 8.57925 186.462V186.473Z" fill="#FFDCA4"/>
<path d="M12.7416 297.645L160.714 212.34C165.452 209.61 169.294 202.281 169.294 195.969V110.045C169.294 103.733 165.452 100.836 160.714 103.567L12.7416 188.872C8.00364 191.602 4.16235 198.931 4.16235 205.243V291.178C4.16235 297.49 8.00364 300.387 12.7416 297.656V297.645Z" fill="#FFC764"/>
<path d="M152.133 197.154C163.972 176.931 164.092 155.004 152.401 148.179C140.71 141.355 121.636 152.216 109.797 172.44C97.9576 192.663 97.8375 214.589 109.528 221.414C121.219 228.238 140.294 217.377 152.133 197.154Z" fill="white"/>
<path d="M135.663 155.686C135.663 155.686 148.205 151.231 146.212 177.507C146.091 179.077 144.984 180.856 143.677 181.608L131.268 188.76L135.663 155.686Z" fill="#636363"/>
<path d="M126.574 160.938C126.574 160.938 114.032 170.953 116.025 194.929C116.146 196.355 117.253 196.864 118.56 196.101L130.969 188.949L126.574 160.938Z" fill="#636363"/>
<path d="M119.024 181.819C119.024 191.049 124.449 195.404 131.124 191.546C137.81 187.688 143.223 177.087 143.223 167.868C143.223 158.649 137.799 154.283 131.124 158.141C124.438 161.998 119.024 172.599 119.024 181.819Z" fill="#FAD3AA"/>
<path d="M119.556 175.97L121.294 174.975L122.335 171.759V174.378L124.715 173.008L125.6 170.333L125.722 172.433L128.578 170.786L130.061 167.801V169.935L133.239 168.1L133.77 163.28L134.257 167.514L134.434 167.414L134.965 165.756L135.331 166.895L137.877 165.425L138.364 163.755L139.039 164.75L139.205 164.651V160.34L140.545 163.877L142.692 162.639C142.692 159.444 141.563 157.211 139.737 156.183C137.91 155.144 135.386 155.299 132.608 156.913L129.63 158.626C124.061 161.843 119.545 169.603 119.545 175.992L119.556 175.97Z" fill="#636363"/>
<path d="M127.405 199.725L135.12 195.281V183.199L127.405 187.643V199.725Z" fill="#FAD3AA"/>
<path d="M111.431 222.321C116.689 224.466 123.519 223.626 130.969 219.325C138.419 215.025 145.26 207.995 150.508 199.793C149.943 191.204 143.456 187.932 135.541 192.486L126.386 197.759C118.46 202.324 111.984 213.08 111.419 222.321H111.431Z" fill="#A83939"/>
<path d="M135.12 192.729L131.268 203.341L127.405 197.172L135.12 192.729Z" fill="#FAD3AA"/>
<path d="M127.404 197.172L131.268 203.341L135.12 192.729L138.22 196.863L131.268 219.137L124.316 204.877L127.404 197.172Z" fill="#FFC764"/>
<path d="M4.16235 203.651V216.098L169.282 120.899V108.452C169.282 103.024 165.441 100.836 160.703 103.566L12.7416 188.882C8.00364 191.613 4.16235 198.234 4.16235 203.662V203.651Z" fill="#602222"/>
<path d="M15.5312 229.363L89.6559 186.628C91.3164 185.677 92.6559 183.113 92.6559 180.902V179.564C92.6559 177.354 91.3164 176.337 89.6559 177.298L15.5312 220.034C13.8707 220.984 12.5312 223.549 12.5312 225.76V227.097C12.5312 229.308 13.8707 230.325 15.5312 229.363Z" fill="white"/>
<path d="M15.5312 246.819L89.6559 204.083C91.3164 203.132 92.6559 200.568 92.6559 198.357V197.019C92.6559 194.809 91.3164 193.792 89.6559 194.753L15.5312 237.478C13.8707 238.428 12.5312 240.993 12.5312 243.204V244.541C12.5312 246.752 13.8707 247.769 15.5312 246.808V246.819Z" fill="white"/>
<path d="M15.5312 264.261L89.6559 221.526C91.3164 220.575 92.6559 218.01 92.6559 215.8V214.462C92.6559 212.251 91.3164 211.245 89.6559 212.196L15.5312 254.92C13.8707 255.871 12.5312 258.436 12.5312 260.646V261.984C12.5312 264.195 13.8707 265.212 15.5312 264.25V264.261Z" fill="white"/>
<path d="M15.5312 281.705L89.6559 238.97C91.3164 238.019 92.6559 235.455 92.6559 233.244V231.906C92.6559 229.695 91.3164 228.678 89.6559 229.64L15.5312 272.364C13.8707 273.315 12.5312 275.88 12.5312 278.091V279.428C12.5312 281.639 13.8707 282.656 15.5312 281.694V281.705Z" fill="white"/>
<path d="M161.221 118.647C162.992 115.622 163.011 112.343 161.264 111.323C159.517 110.303 156.665 111.929 154.894 114.954C153.123 117.979 153.104 121.258 154.851 122.278C156.598 123.298 159.45 121.672 161.221 118.647Z" fill="white"/>
<path d="M150.65 124.749C152.421 121.723 152.44 118.444 150.693 117.424C148.946 116.404 146.094 118.03 144.323 121.055C142.552 124.081 142.533 127.36 144.28 128.38C146.027 129.4 148.879 127.774 150.65 124.749Z" fill="white"/>
<path d="M132.408 131.6C132.408 134.452 134.423 135.602 136.914 134.165C139.405 132.727 141.419 129.256 141.419 126.404C141.419 123.553 139.405 122.403 136.914 123.84C134.423 125.277 132.408 128.748 132.408 131.6Z" fill="white"/>
<path d="M121.825 137.702C121.825 140.553 123.84 141.703 126.331 140.266C128.822 138.829 130.836 135.358 130.836 132.506C130.836 129.654 128.822 128.504 126.331 129.941C123.84 131.379 121.825 134.85 121.825 137.702Z" fill="white"/>
</g>
<defs>
<clipPath id="clip0_300_5025">
<rect width="362" height="315" fill="white"/>
</clipPath>
</defs>
</svg>
