<svg width="170" height="156" viewBox="0 0 170 156" fill="none" xmlns="http://www.w3.org/2000/svg">
<g clip-path="url(#clip0_270_4178)">
<path d="M85.0004 119.835L63.9715 101.559L3.83496 152.734C6.02285 154.747 8.97308 155.999 12.2282 155.999H157.773C161.016 155.999 163.951 154.747 166.128 152.734L106.033 101.562L85.0042 119.839L85.0004 119.835Z" fill="url(#paint0_linear_270_4178)"/>
<path d="M166.162 38.7178C163.978 36.6933 161.039 35.4521 157.772 35.4521H12.2279C8.9842 35.4521 6.04922 36.7047 3.86133 38.7442L84.9963 107.78L166.162 38.7178Z" fill="url(#paint1_linear_270_4178)"/>
<path d="M0 46.0361V146.188L58.6881 96.6777L0 46.0361Z" fill="url(#paint2_linear_270_4178)"/>
<path d="M111.312 96.6775L170 146.188V46.002L111.312 96.6775Z" fill="url(#paint3_linear_270_4178)"/>
<path d="M59.1871 12.6656L58.1885 7.68201C58.8822 7.8485 59.4006 7.93175 59.7474 7.93175C60.0943 7.93175 60.6432 7.84472 61.3636 7.66309L60.4983 12.6466L65.0571 10.2589C65.1066 11.3298 65.4078 12.3136 65.9604 13.218L60.8795 13.8689L64.4777 17.441C63.5172 17.8724 62.7091 18.5043 62.0535 19.333L59.7627 14.7316L57.529 19.3141C56.8353 18.5005 55.9968 17.8799 55.0095 17.4599L58.6649 13.8689L53.584 13.218C54.1595 12.3515 54.5064 11.379 54.6246 10.2968L59.1833 12.6656H59.1871Z" fill="white"/>
<path d="M76.2135 12.6656L75.2148 7.68201C75.9086 7.8485 76.4269 7.93175 76.7738 7.93175C77.1207 7.93175 77.6695 7.84472 78.3899 7.66309L77.5247 12.6466L82.0834 10.2589C82.133 11.3298 82.4341 12.3136 82.9868 13.218L77.9059 13.8689L81.5041 17.441C80.5435 17.8724 79.7355 18.5043 79.0799 19.333L76.7891 14.7316L74.5554 19.3141C73.8617 18.5005 73.0231 17.8799 72.0359 17.4599L75.6913 13.8689L70.6104 13.218C71.1859 12.3515 71.5328 11.379 71.6509 10.2968L76.2097 12.6656H76.2135Z" fill="white"/>
<path d="M93.2369 12.6656L92.2383 7.68201C92.932 7.8485 93.4504 7.93175 93.7972 7.93175C94.1441 7.93175 94.693 7.84472 95.4134 7.66309L94.5481 12.6466L99.1069 10.2589C99.1564 11.3298 99.4576 12.3136 100.01 13.218L94.9293 13.8689L98.5275 17.441C97.567 17.8724 96.7589 18.5043 96.1033 19.333L93.8125 14.7316L91.5789 19.3141C90.8851 18.5005 90.0466 17.8799 89.0593 17.4599L92.7147 13.8689L87.6338 13.218C88.2093 12.3515 88.5562 11.379 88.6744 10.2968L93.2331 12.6656H93.2369Z" fill="white"/>
<path d="M110.263 12.6656L109.265 7.68201C109.958 7.8485 110.477 7.93175 110.824 7.93175C111.17 7.93175 111.719 7.84472 112.44 7.66309L111.575 12.6466L116.133 10.2589C116.183 11.3298 116.484 12.3136 117.037 13.218L111.956 13.8689L115.554 17.441C114.593 17.8724 113.785 18.5043 113.13 19.333L110.839 14.7316L108.605 19.3141C107.912 18.5005 107.073 17.8799 106.086 17.4599L109.741 13.8689L104.66 13.218C105.236 12.3515 105.583 11.379 105.701 10.2968L110.259 12.6656H110.263Z" fill="white"/>
<path d="M127.29 12.6656L126.291 7.68201C126.985 7.8485 127.503 7.93175 127.85 7.93175C128.197 7.93175 128.746 7.84472 129.466 7.66309L128.601 12.6466L133.16 10.2589C133.209 11.3298 133.51 12.3136 134.063 13.218L128.982 13.8689L132.58 17.441C131.62 17.8724 130.812 18.5043 130.156 19.333L127.865 14.7316L125.632 19.3141C124.938 18.5005 124.099 17.8799 123.112 17.4599L126.767 13.8689L121.687 13.218C122.262 12.3515 122.609 11.379 122.727 10.2968L127.286 12.6656H127.29Z" fill="white"/>
<path d="M144.317 12.6656L143.318 7.68201C144.012 7.8485 144.53 7.93175 144.877 7.93175C145.224 7.93175 145.773 7.84472 146.493 7.66309L145.628 12.6466L150.187 10.2589C150.237 11.3298 150.538 12.3136 151.09 13.218L146.009 13.8689L149.608 17.441C148.647 17.8724 147.839 18.5043 147.183 19.333L144.893 14.7316L142.659 19.3141C141.965 18.5005 141.127 17.8799 140.139 17.4599L143.795 13.8689L138.714 13.218C139.289 12.3515 139.636 11.379 139.754 10.2968L144.313 12.6656H144.317Z" fill="white"/>
<path d="M28.614 20.5282H38.3414C38.7835 20.5282 39.1418 20.1725 39.1418 19.7335V11.9725C39.1418 11.5336 38.7835 11.1779 38.3414 11.1779H30.9772V10.353C31.0077 9.03233 32.1055 7.98416 33.4358 8.01064C34.503 8.00308 35.4521 8.67663 35.7914 9.6794C35.8943 10.0048 36.2411 10.1865 36.569 10.0843C36.6109 10.0691 36.6528 10.054 36.6947 10.0313L37.0149 9.84589C37.2703 9.69832 37.3885 9.39181 37.2932 9.11558C36.5423 7.00788 34.2095 5.90673 32.0903 6.65596C30.5046 7.216 29.4259 8.6842 29.3802 10.3567V11.1817H28.6178C28.1757 11.1817 27.8174 11.5373 27.8174 11.9763V19.7373C27.8174 20.1763 28.1757 20.532 28.6178 20.532L28.614 20.5282ZM32.6772 14.6705C32.6772 14.2316 33.0355 13.8759 33.4777 13.8759C33.9198 13.8759 34.2781 14.2316 34.2781 14.6705V17.0317C34.2781 17.4707 33.9198 17.8264 33.4777 17.8264C33.0355 17.8264 32.6772 17.4707 32.6772 17.0317V14.6705Z" fill="white"/>
<path d="M45.2446 2.45583C45.1607 2.38015 45.0655 2.3196 44.9625 2.27798L44.5051 2.10013C37.4231 -0.700044 29.5329 -0.700044 22.4509 2.10013L22.3441 2.14175C21.5399 2.45961 21.0177 3.23155 21.0215 4.09053V21.3154C21.0215 21.9587 21.3417 22.5641 21.8791 22.9236L32.4565 29.9997C33.0702 30.4122 33.8744 30.4122 34.4881 29.9997L45.035 22.9463C45.5953 22.5717 45.9269 21.9435 45.9269 21.2738V3.34886C45.9269 2.93262 45.6448 2.56557 45.2408 2.45961L45.2446 2.45583ZM22.8511 4.03376C22.8511 3.96187 22.8968 3.89376 22.9655 3.86727C29.7197 1.19953 37.2439 1.19953 43.9982 3.86727L44.1125 3.91268V21.27C44.1125 21.3305 44.082 21.3873 44.0325 21.4175L33.5809 28.4066C33.5199 28.4483 33.4437 28.4483 33.3827 28.4066L22.9311 21.4175C22.8816 21.3835 22.8511 21.3267 22.8511 21.27V4.03755V4.03376Z" fill="white"/>
</g>
<defs>
<linearGradient id="paint0_linear_270_4178" x1="84.9814" y1="-16.6617" x2="84.9814" y2="273.043" gradientUnits="userSpaceOnUse">
<stop stop-color="white"/>
<stop offset="1" stop-color="white" stop-opacity="0"/>
</linearGradient>
<linearGradient id="paint1_linear_270_4178" x1="85.0116" y1="-16.6614" x2="85.0116" y2="273.043" gradientUnits="userSpaceOnUse">
<stop stop-color="white"/>
<stop offset="1" stop-color="white" stop-opacity="0"/>
</linearGradient>
<linearGradient id="paint2_linear_270_4178" x1="29.3421" y1="-16.6613" x2="29.3421" y2="273.043" gradientUnits="userSpaceOnUse">
<stop stop-color="white"/>
<stop offset="1" stop-color="white" stop-opacity="0"/>
</linearGradient>
<linearGradient id="paint3_linear_270_4178" x1="140.657" y1="-16.6614" x2="140.657" y2="273.043" gradientUnits="userSpaceOnUse">
<stop stop-color="white"/>
<stop offset="1" stop-color="white" stop-opacity="0"/>
</linearGradient>
<clipPath id="clip0_270_4178">
<rect width="170" height="156" fill="white"/>
</clipPath>
</defs>
</svg>
