<svg width="108" height="108" viewBox="0 0 108 108" fill="none" xmlns="http://www.w3.org/2000/svg">
<path d="M33.7576 101.912L33.7574 101.912C27.5649 99.293 22.0018 95.5419 17.23 90.77C12.4581 85.9982 8.70702 80.4351 6.0881 74.2426C3.37459 67.8275 2 61.014 2 54C2 46.9858 3.37579 40.1723 6.08802 33.7576L6.0881 33.7574C8.70702 27.5649 12.4581 22.0018 17.23 17.23C22.0018 12.4581 27.5649 8.70702 33.7574 6.08809M33.7576 101.912L33.7574 6.08809M33.7576 101.912C40.1723 104.624 46.9858 106 54 106C61.014 106 67.8275 104.625 74.2426 101.912C80.4351 99.293 85.9982 95.5419 90.77 90.77C95.5419 85.9982 99.293 80.4351 101.912 74.2426L101.912 74.2424C104.624 67.8277 106 61.0143 106 54C106 46.986 104.625 40.1725 101.912 33.7574C99.293 27.5649 95.5419 22.0018 90.77 17.23C85.9982 12.4581 80.4351 8.70702 74.2426 6.08809L74.2424 6.08802M33.7576 101.912L74.2424 6.08802M33.7574 6.08809C40.1725 3.37456 46.986 2 54 2C61.0142 2 67.8277 3.37579 74.2424 6.08802M33.7574 6.08809L74.2424 6.08802" fill="#C62C2C" stroke="white" stroke-width="4"/>
<path d="M77.5434 30.4277L103.231 60.8662C103.231 60.8662 100.51 81.569 84.5992 93.5675C69.003 105.329 53.0447 103.898 53.0447 103.898L33.1211 79.2292L77.5434 30.4277Z" fill="url(#paint0_linear_304_11312)"/>
<path d="M60.2599 53.9999L77.7216 36.5382C79.4506 34.8092 79.4506 32.0072 77.7216 30.2782C75.9926 28.5492 73.1905 28.5492 71.4615 30.2782L53.9999 47.7398L36.5382 30.2782C34.8092 28.5492 32.0072 28.5492 30.2782 30.2782C28.5492 32.0072 28.5492 34.8092 30.2782 36.5382L47.7398 53.9999L30.2782 71.4615C28.5492 73.1905 28.5492 75.9926 30.2782 77.7216C31.1421 78.5855 32.2746 79.018 33.4082 79.018C34.5418 79.018 35.6743 78.5855 36.5382 77.7216L53.9999 60.2599L71.4615 77.7216C72.3255 78.5855 73.4591 79.018 74.5916 79.018C75.724 79.018 76.8576 78.5855 77.7216 77.7216C79.4506 75.9926 79.4506 73.1905 77.7216 71.4615L60.2599 53.9999Z" fill="white"/>
<defs>
<linearGradient id="paint0_linear_304_11312" x1="48.2396" y1="50.7718" x2="98.66" y2="99.231" gradientUnits="userSpaceOnUse">
<stop stop-color="#932C2C"/>
<stop offset="1" stop-color="#C62C2C"/>
</linearGradient>
</defs>
</svg>
