<svg width="100" height="100" viewBox="0 0 100 100" fill="none" xmlns="http://www.w3.org/2000/svg">
<path d="M50 100C43.2513 100 36.7029 98.6771 30.5364 96.0699C24.5823 93.5518 19.2347 89.9463 14.6442 85.3558C10.0537 80.7653 6.44824 75.4177 3.93014 69.4636C1.32178 63.2971 0 56.7487 0 50C0 43.2513 1.32289 36.7029 3.93014 30.5364C6.44824 24.5823 10.0537 19.2347 14.6442 14.6442C19.2347 10.0537 24.5823 6.44824 30.5364 3.93013C36.7029 1.32178 43.2513 0 50 0C56.7487 0 63.2971 1.32288 69.4636 3.93013C75.4177 6.44824 80.7653 10.0537 85.3558 14.6442C89.9463 19.2347 93.5518 24.5823 96.0699 30.5364C98.6782 36.7029 100 43.2513 100 50C100 56.7487 98.6771 63.2971 96.0699 69.4636C93.5518 75.4177 89.9463 80.7653 85.3558 85.3558C80.7653 89.9463 75.4177 93.5518 69.4636 96.0699C63.2971 98.6782 56.7487 100 50 100Z" fill="#C62C2C"/>
<path d="M73.5434 26.4277L99.2307 56.8662C99.2307 56.8662 96.5101 77.569 80.5992 89.5675C65.003 101.329 49.0447 99.8985 49.0447 99.8985L29.1211 75.2292L73.5434 26.4277Z" fill="url(#paint0_linear_275_7231)"/>
<path d="M56.2599 49.9999L73.7216 32.5382C75.4506 30.8092 75.4506 28.0072 73.7216 26.2782C71.9926 24.5492 69.1905 24.5492 67.4615 26.2782L49.9999 43.7398L32.5382 26.2782C30.8092 24.5492 28.0072 24.5492 26.2782 26.2782C24.5492 28.0072 24.5492 30.8092 26.2782 32.5382L43.7398 49.9999L26.2782 67.4615C24.5492 69.1905 24.5492 71.9926 26.2782 73.7216C27.1421 74.5855 28.2746 75.018 29.4082 75.018C30.5418 75.018 31.6743 74.5855 32.5382 73.7216L49.9999 56.2599L67.4615 73.7216C68.3255 74.5855 69.4591 75.018 70.5916 75.018C71.724 75.018 72.8576 74.5855 73.7216 73.7216C75.4506 71.9926 75.4506 69.1905 73.7216 67.4615L56.2599 49.9999Z" fill="white"/>
<defs>
<linearGradient id="paint0_linear_275_7231" x1="44.2396" y1="46.7718" x2="94.66" y2="95.231" gradientUnits="userSpaceOnUse">
<stop stop-color="#932C2C"/>
<stop offset="1" stop-color="#C62C2C"/>
</linearGradient>
</defs>
</svg>
