<svg width="47" height="42" viewBox="0 0 47 42" fill="none" xmlns="http://www.w3.org/2000/svg">
<g filter="url(#filter0_d_36_1187)">
<path d="M29.9142 24.3803C36.0367 24.3803 41 19.5942 41 13.6902C41 7.78615 36.0367 3 29.9142 3C23.7917 3 18.8284 7.78615 18.8284 13.6902C18.8284 19.5942 23.7917 24.3803 29.9142 24.3803Z" fill="white"/>
</g>
<mask id="mask0_36_1187" style="mask-type:luminance" maskUnits="userSpaceOnUse" x="20" y="4" width="20" height="20">
<path d="M30.0091 23.278C35.3034 23.2251 39.5524 18.8903 39.4994 13.596C39.4465 8.30169 35.1117 4.05273 29.8174 4.10568C24.5231 4.15862 20.2741 8.49341 20.3271 13.7877C20.38 19.082 24.7148 23.331 30.0091 23.278Z" fill="white"/>
</mask>
<g mask="url(#mask0_36_1187)">
<path d="M46.3722 3.8512H14.875V7.16314H46.3722V3.8512Z" fill="#ED1C24"/>
<path d="M46.3722 7.16315H14.875V10.4751H46.3722V7.16315Z" fill="white"/>
<path d="M46.3722 10.4744H14.875V13.7864H46.3722V10.4744Z" fill="#241D4F"/>
<path d="M46.3722 13.5627H14.875V17.0975H46.3722V13.5627Z" fill="#241D4F"/>
<path d="M46.3722 17.0983H14.875V20.4102H46.3722V17.0983Z" fill="white"/>
<path d="M46.3722 20.4095H14.875V23.7214H46.3722V20.4095Z" fill="#ED1C24"/>
</g>
<g filter="url(#filter1_d_36_1187)">
<path d="M17.0858 32.8667C23.2083 32.8667 28.1716 27.9034 28.1716 21.7809C28.1716 15.6584 23.2083 10.6951 17.0858 10.6951C10.9633 10.6951 6 15.6584 6 21.7809C6 27.9034 10.9633 32.8667 17.0858 32.8667Z" fill="white"/>
</g>
<path fill-rule="evenodd" clip-rule="evenodd" d="M26.4017 21.5747C26.4011 23.4627 25.8407 25.3082 24.7914 26.8778C23.742 28.4473 22.2509 29.6705 20.5064 30.3926C18.7619 31.1147 16.8425 31.3033 14.9908 30.9346C13.1391 30.5659 11.4384 29.6564 10.1036 28.3211C8.76879 26.9858 7.85991 25.2847 7.49186 23.4329C7.12382 21.5811 7.31313 19.6617 8.03587 17.9175C8.75861 16.1733 9.98231 14.6826 11.5523 13.6338C13.1222 12.585 14.9679 12.0253 16.8559 12.0255C18.1101 12.0244 19.3521 12.2706 20.511 12.7502C21.6699 13.2297 22.7228 13.9331 23.6095 14.8201C24.4961 15.7071 25.1992 16.7603 25.6783 17.9193C26.1574 19.0784 26.4032 20.3205 26.4017 21.5747Z" fill="white"/>
<path fill-rule="evenodd" clip-rule="evenodd" d="M21.9126 13.4157H18.9413V12.1933C19.9957 12.4234 21.0015 12.8372 21.9126 13.4157Z" fill="#A91F27"/>
<path fill-rule="evenodd" clip-rule="evenodd" d="M24.9055 16.3243H18.9413V14.8491H23.7034C24.1491 15.3022 24.5514 15.7961 24.9048 16.3243H24.9055Z" fill="#A91F27"/>
<path fill-rule="evenodd" clip-rule="evenodd" d="M26.1697 19.2532H18.9413V17.7571H25.6856C25.8827 18.2439 26.0456 18.7438 26.1732 19.2532H26.1697Z" fill="#A91F27"/>
<path fill-rule="evenodd" clip-rule="evenodd" d="M26.4441 22.0776H18.9413V20.6024H26.4225C26.4434 20.897 26.4643 21.2139 26.4643 21.5294C26.4679 21.7124 26.4609 21.8954 26.4434 22.0776H26.4441Z" fill="#A91F27"/>
<path fill-rule="evenodd" clip-rule="evenodd" d="M25.8326 24.9856H7.89935C7.70786 24.5081 7.5596 24.0144 7.45636 23.5104H26.2547C26.1683 24.0161 26.0268 24.5108 25.8326 24.9856Z" fill="#A91F27"/>
<path fill-rule="evenodd" clip-rule="evenodd" d="M23.9179 28.0621H9.79532C9.37136 27.6123 8.99768 27.1176 8.68089 26.5869H25.0532C24.722 27.1137 24.3411 27.6077 23.9158 28.0621H23.9179Z" fill="#A91F27"/>
<path fill-rule="evenodd" clip-rule="evenodd" d="M11.7978 29.7261H21.9342C20.4096 30.6628 18.6553 31.1587 16.866 31.1587C15.0767 31.1587 13.3223 30.6628 11.7978 29.7261Z" fill="#A91F27"/>
<path fill-rule="evenodd" clip-rule="evenodd" d="M18.9838 22.0776H7.26694V21.574C7.26399 19.0279 8.27257 16.5848 10.0708 14.7822C11.8691 12.9797 14.3097 11.9652 16.8559 11.9621C17.5714 11.9627 18.2848 12.0402 18.9838 12.1933V22.0776Z" fill="#1F2352"/>
<path fill-rule="evenodd" clip-rule="evenodd" d="M13.0195 12.7631V12.784H13.4416L13.126 13.0793L13.2312 13.5216L12.8516 13.2687L12.4936 13.5216L12.5988 13.0793L12.5145 13.0159L13.0209 12.7631H13.0195Z" fill="white"/>
<path fill-rule="evenodd" clip-rule="evenodd" d="M14.6855 12.7839H15.1034L15.272 12.3409L15.4406 12.7839H15.8626L15.5457 13.0793L15.6516 13.5215L15.272 13.2687L14.9133 13.5215L15.0192 13.0793L14.6855 12.7839Z" fill="white"/>
<path fill-rule="evenodd" clip-rule="evenodd" d="M17.1505 12.7839H17.5935L17.7412 12.3409L17.9097 12.7839H18.3276L18.0121 13.0793L18.1382 13.5215L17.7384 13.2687L17.3797 13.5215L17.4848 13.0793L17.1505 12.7839Z" fill="white"/>
<path fill-rule="evenodd" clip-rule="evenodd" d="M11.1437 13.8593H11.4816L11.5867 13.5438C11.61 13.5217 11.6394 13.5072 11.671 13.502L11.8187 13.8607H12.2408L11.9043 14.1553L12.0304 14.5983L11.6508 14.3455L11.2928 14.5983L11.398 14.1553L11.1033 13.9018L11.1451 13.86L11.1437 13.8593Z" fill="white"/>
<path fill-rule="evenodd" clip-rule="evenodd" d="M13.4631 13.8594H13.881L14.0496 13.4164L14.2182 13.8594H14.6403L14.3247 14.1541L14.4299 14.597L14.0503 14.3435L13.6923 14.597L13.7975 14.1541L13.4631 13.8594Z" fill="white"/>
<path fill-rule="evenodd" clip-rule="evenodd" d="M15.8857 13.8594H16.3105L16.4791 13.4164L16.6476 13.8594H17.0697L16.7528 14.1541L16.8587 14.597L16.4791 14.3435L16.1204 14.597L16.2262 14.1541L15.8857 13.8594Z" fill="white"/>
<path fill-rule="evenodd" clip-rule="evenodd" d="M10.0481 14.8066H10.2794L10.3845 14.4688L10.4479 14.4054L10.6165 14.8059H11.0386L10.7022 15.1005L10.8282 15.5428L10.4493 15.29L10.0697 15.5428L10.1749 15.1005L9.96594 14.8916L10.0502 14.8073L10.0481 14.8066Z" fill="white"/>
<path fill-rule="evenodd" clip-rule="evenodd" d="M12.2617 14.8067H12.6837L12.8523 14.3428L13.0209 14.8067H13.4388L13.1233 15.1013L13.2284 15.5443L12.8495 15.2914L12.4908 15.5443L12.596 15.1013L12.2617 14.8067Z" fill="white"/>
<path fill-rule="evenodd" clip-rule="evenodd" d="M14.6855 14.8067H15.1034L15.272 14.3428L15.4406 14.8067H15.8626L15.5457 15.1013L15.6516 15.5443L15.272 15.2914L14.9133 15.5443L15.0192 15.1013L14.6855 14.8067Z" fill="white"/>
<path fill-rule="evenodd" clip-rule="evenodd" d="M17.1505 14.8067H17.5935L17.7412 14.3428L17.9097 14.8067H18.3276L18.0121 15.1013L18.1382 15.5443L17.7384 15.2914L17.3797 15.5443L17.4848 15.1013L17.1505 14.8067Z" fill="white"/>
<path fill-rule="evenodd" clip-rule="evenodd" d="M9.2478 15.7128L9.31118 15.8814H9.75347L9.41566 16.1767L9.54312 16.619L9.14263 16.3661L8.78392 16.619L8.8891 16.2185C8.99427 16.0499 9.12173 15.8807 9.24711 15.7121L9.2478 15.7128Z" fill="white"/>
<path fill-rule="evenodd" clip-rule="evenodd" d="M11.0602 15.8813H11.4822L11.6299 15.4182L11.8194 15.8813H12.2414L11.905 16.1767L12.0311 16.6189L11.6515 16.3661L11.2928 16.6189L11.3987 16.1767L11.0602 15.8813Z" fill="white"/>
<path fill-rule="evenodd" clip-rule="evenodd" d="M13.4631 15.8813H13.881L14.0496 15.4182L14.2182 15.8813H14.6403L14.3247 16.1767L14.4299 16.6189L14.0503 16.3661L13.6923 16.6189L13.7975 16.1767L13.4631 15.8813Z" fill="white"/>
<path fill-rule="evenodd" clip-rule="evenodd" d="M15.8857 15.8813H16.3105L16.4791 15.4182L16.6476 15.8813H17.0697L16.7528 16.1767L16.8587 16.6189L16.4791 16.3661L16.1204 16.6189L16.2262 16.1767L15.8857 15.8813Z" fill="white"/>
<path fill-rule="evenodd" clip-rule="evenodd" d="M8.4893 16.8516H8.5311L8.44682 16.9359L8.4893 16.8516ZM8.25806 17.2946L8.34234 17.5892L8.17378 17.4841C8.19468 17.4207 8.23717 17.358 8.25806 17.2946Z" fill="white"/>
<path fill-rule="evenodd" clip-rule="evenodd" d="M9.85867 16.8516H10.2808L10.4284 16.4086L10.6179 16.8516H11.04L10.7036 17.1462L10.8296 17.5892L10.45 17.3356L10.0711 17.5892L10.1763 17.1462L9.85867 16.8516Z" fill="white"/>
<path fill-rule="evenodd" clip-rule="evenodd" d="M12.2617 16.8516H12.6837L12.8523 16.4086L13.0209 16.8516H13.4388L13.1233 17.1462L13.2284 17.5892L12.8495 17.3356L12.4908 17.5892L12.596 17.1462L12.2617 16.8516Z" fill="white"/>
<path fill-rule="evenodd" clip-rule="evenodd" d="M14.6855 16.8516H15.1034L15.272 16.4086L15.4406 16.8516H15.8626L15.5457 17.1462L15.6516 17.5892L15.272 17.3356L14.9133 17.5892L15.0192 17.1462L14.6855 16.8516Z" fill="white"/>
<path fill-rule="evenodd" clip-rule="evenodd" d="M17.1505 16.8516H17.5935L17.7412 16.4086L17.9097 16.8516H18.3276L18.0121 17.1462L18.1382 17.5892L17.7384 17.3356L17.3797 17.5892L17.4848 17.1462L17.1505 16.8516Z" fill="white"/>
<path fill-rule="evenodd" clip-rule="evenodd" d="M8.5527 17.9257H8.99499L9.14335 17.4834L9.31191 17.9257H9.7542L9.41778 18.221L9.54385 18.6633L9.14405 18.4105L8.78534 18.6633L8.89051 18.221L8.5527 17.9257Z" fill="white"/>
<path fill-rule="evenodd" clip-rule="evenodd" d="M11.0602 17.9257H11.4822L11.6299 17.4834L11.8194 17.9257H12.2414L11.905 18.221L12.0311 18.6633L11.6515 18.4105L11.2928 18.6633L11.3987 18.221L11.0602 17.9257Z" fill="white"/>
<path fill-rule="evenodd" clip-rule="evenodd" d="M13.4631 17.9257H13.881L14.0496 17.4834L14.2182 17.9257H14.6403L14.3247 18.221L14.4299 18.6633L14.0503 18.4105L13.6923 18.6633L13.7975 18.221L13.4631 17.9257Z" fill="white"/>
<path fill-rule="evenodd" clip-rule="evenodd" d="M15.8857 17.9257H16.3105L16.4791 17.4834L16.6476 17.9257H17.0697L16.7528 18.221L16.8587 18.6633L16.4791 18.4105L16.1204 18.6633L16.2262 18.221L15.8857 17.9257Z" fill="white"/>
<path fill-rule="evenodd" clip-rule="evenodd" d="M7.64584 18.8743H7.7935L7.94116 18.4313L8.10972 18.8743H8.52903L8.21211 19.1696L8.33957 19.6119L7.93907 19.3591L7.58037 19.6119L7.68554 19.1696L7.58037 19.0854C7.60126 19.0011 7.62216 18.9377 7.64375 18.8764L7.64584 18.8743Z" fill="white"/>
<path fill-rule="evenodd" clip-rule="evenodd" d="M9.85867 18.8743H10.2808L10.4284 18.4313L10.6179 18.8743H11.04L10.7036 19.169L10.8296 19.6119L10.45 19.3584L10.0711 19.6119L10.1763 19.169L9.85867 18.8743Z" fill="white"/>
<path fill-rule="evenodd" clip-rule="evenodd" d="M12.2617 18.8743H12.6837L12.8523 18.4313L13.0209 18.8743H13.4388L13.1233 19.169L13.2284 19.6119L12.8495 19.3584L12.4908 19.6119L12.596 19.169L12.2617 18.8743Z" fill="white"/>
<path fill-rule="evenodd" clip-rule="evenodd" d="M14.6855 18.8743H15.1034L15.272 18.4313L15.4406 18.8743H15.8626L15.5457 19.169L15.6516 19.6119L15.272 19.3584L14.9133 19.6119L15.0192 19.169L14.6855 18.8743Z" fill="white"/>
<path fill-rule="evenodd" clip-rule="evenodd" d="M17.1505 18.8743H17.5935L17.7412 18.4313L17.9097 18.8743H18.3276L18.0121 19.169L18.1382 19.6119L17.7384 19.3584L17.3797 19.6119L17.4848 19.169L17.1505 18.8743Z" fill="white"/>
<path fill-rule="evenodd" clip-rule="evenodd" d="M7.35118 20.8761H7.79417L7.94183 20.4338L8.11039 20.8761H8.53248L8.21556 21.1714L8.34302 21.6137L7.94252 21.3609L7.58451 21.6137L7.68969 21.1714L7.35118 20.8761Z" fill="white"/>
<path fill-rule="evenodd" clip-rule="evenodd" d="M9.85867 20.8761H10.2808L10.4284 20.4338L10.6179 20.8761H11.04L10.7036 21.1714L10.8296 21.6137L10.45 21.3609L10.0711 21.6137L10.1763 21.1714L9.85867 20.8761Z" fill="white"/>
<path fill-rule="evenodd" clip-rule="evenodd" d="M12.2617 20.8761H12.6837L12.8523 20.4338L13.0209 20.8761H13.4388L13.1233 21.1714L13.2284 21.6137L12.8495 21.3609L12.4908 21.6137L12.596 21.1714L12.2617 20.8761Z" fill="white"/>
<path fill-rule="evenodd" clip-rule="evenodd" d="M14.6855 20.8761H15.1034L15.272 20.4338L15.4406 20.8761H15.8626L15.5457 21.1714L15.6516 21.6137L15.272 21.3609L14.9133 21.6137L15.0192 21.1714L14.6855 20.8761Z" fill="white"/>
<path fill-rule="evenodd" clip-rule="evenodd" d="M17.1505 20.8761H17.5935L17.7412 20.4338L17.9097 20.8761H18.3276L18.0121 21.1714L18.1382 21.6137L17.7384 21.3609L17.3797 21.6137L17.4848 21.1714L17.1505 20.8761Z" fill="white"/>
<path fill-rule="evenodd" clip-rule="evenodd" d="M8.5527 19.949H8.99499L9.14335 19.506L9.31191 19.949H9.7542L9.41778 20.2437L9.54385 20.6866L9.14405 20.4338L8.78534 20.6866L8.89051 20.2437L8.5527 19.949Z" fill="white"/>
<path fill-rule="evenodd" clip-rule="evenodd" d="M11.0602 19.949H11.4822L11.6299 19.506L11.8194 19.949H12.2414L11.905 20.2437L12.0311 20.6866L11.6515 20.4338L11.2928 20.6866L11.3987 20.2437L11.0602 19.949Z" fill="white"/>
<path fill-rule="evenodd" clip-rule="evenodd" d="M13.4631 19.949H13.881L14.0496 19.506L14.2182 19.949H14.6403L14.3247 20.2437L14.4299 20.6866L14.0503 20.4338L13.6923 20.6866L13.7975 20.2437L13.4631 19.949Z" fill="white"/>
<path fill-rule="evenodd" clip-rule="evenodd" d="M15.8857 19.949H16.3105L16.4791 19.506L16.6476 19.949H17.0697L16.7528 20.2437L16.8587 20.6866L16.4791 20.4338L16.1204 20.6866L16.2262 20.2437L15.8857 19.949Z" fill="white"/>
<defs>
<filter id="filter0_d_36_1187" x="12.8284" y="0" width="34.1716" height="33.3803" filterUnits="userSpaceOnUse" color-interpolation-filters="sRGB">
<feFlood flood-opacity="0" result="BackgroundImageFix"/>
<feColorMatrix in="SourceAlpha" type="matrix" values="0 0 0 0 0 0 0 0 0 0 0 0 0 0 0 0 0 0 127 0" result="hardAlpha"/>
<feOffset dy="3"/>
<feGaussianBlur stdDeviation="3"/>
<feColorMatrix type="matrix" values="0 0 0 0 0 0 0 0 0 0 0 0 0 0 0 0 0 0 0.161 0"/>
<feBlend mode="normal" in2="BackgroundImageFix" result="effect1_dropShadow_36_1187"/>
<feBlend mode="normal" in="SourceGraphic" in2="effect1_dropShadow_36_1187" result="shape"/>
</filter>
<filter id="filter1_d_36_1187" x="0" y="7.69513" width="34.1716" height="34.1716" filterUnits="userSpaceOnUse" color-interpolation-filters="sRGB">
<feFlood flood-opacity="0" result="BackgroundImageFix"/>
<feColorMatrix in="SourceAlpha" type="matrix" values="0 0 0 0 0 0 0 0 0 0 0 0 0 0 0 0 0 0 127 0" result="hardAlpha"/>
<feOffset dy="3"/>
<feGaussianBlur stdDeviation="3"/>
<feColorMatrix type="matrix" values="0 0 0 0 0 0 0 0 0 0 0 0 0 0 0 0 0 0 0.161 0"/>
<feBlend mode="normal" in2="BackgroundImageFix" result="effect1_dropShadow_36_1187"/>
<feBlend mode="normal" in="SourceGraphic" in2="effect1_dropShadow_36_1187" result="shape"/>
</filter>
</defs>
</svg>
