<?xml version="1.0" encoding="UTF-8"?><svg id="a" xmlns="http://www.w3.org/2000/svg" viewBox="0 0 484.3 484.3"><defs><style>.b{fill:none;stroke:#fff;stroke-miterlimit:10;stroke-width:14.54px;}.c{fill:#fff;}.d{opacity:.3;}</style></defs><circle class="d" cx="242.15" cy="242.15" r="234.88"/><circle class="b" cx="242.15" cy="242.15" r="234.88"/><path class="c" d="M359.21,113.82H125.09c-10.15,0-18.36,8.21-18.36,18.36v219.93c0,10.15,8.22,18.37,18.36,18.37h234.11c10.15,0,18.37-8.22,18.37-18.37V132.18c0-10.15-8.22-18.36-18.37-18.36Zm-234.11,18.36h234.11v211.16H125.09V132.18Zm224.94,201.98H134.27v-58.89c0-6.45,2.26-12.69,6.39-17.64l53.52-64.17c5.74-6.7,16.25-6.29,21.48,.83l60.92,82.49,31.3-33.05c5.46-5.74,14.55-5.74,20.02,0l15.61,18.47c4.2,4.97,6.52,11.27,6.52,17.78v54.18Zm-59.68-153.78c0-13.96,11.29-25.25,25.24-25.25s25.25,11.29,25.25,25.25-11.29,25.25-25.25,25.25-25.24-11.29-25.24-25.25Z"/></svg>