<svg width="30" height="18" viewBox="0 0 30 18" fill="none" xmlns="http://www.w3.org/2000/svg">
<g id="GOLD BAR 1" clip-path="url(#clip0_275_7973)">
<g id="Clip path group">
<mask id="mask0_275_7973" style="mask-type:luminance" maskUnits="userSpaceOnUse" x="0" y="0" width="30" height="18">
<g id="clip-path">
<path id="Rectangle 1558" d="M30 0H0V18H30V0Z" fill="white"/>
</g>
</mask>
<g mask="url(#mask0_275_7973)">
<g id="Group 2807">
<path id="Path 887" d="M15.174 11.6534C15.1614 11.4557 15.1614 11.2575 15.174 11.0599C16.0707 6.42741 16.0713 6.42741 20.0498 6.42676C23.4688 6.42676 23.4715 6.42676 24.4306 10.2915C24.5248 10.6734 24.556 11.0776 24.6443 11.6514L15.174 11.6534Z" fill="#D9A52C"/>
<path id="Path 888" d="M4.66016 11.6318C5.07964 10.0387 5.3843 8.61859 5.8476 7.28033C5.95009 7.0662 6.10405 6.88002 6.29608 6.738C6.48811 6.59598 6.71239 6.50242 6.94942 6.46545C8.65189 6.37838 10.3578 6.37838 12.0603 6.46545C12.2978 6.49713 12.524 6.5852 12.7195 6.72211C12.915 6.85902 13.0739 7.04068 13.1827 7.25151C13.6718 8.58714 14.0037 10.0027 14.4637 11.6305L4.66016 11.6318Z" fill="#D9A52C"/>
<path id="Path 889" d="M19.6548 5.22004H9.73975C10.1785 3.58964 10.5469 2.09351 11.0009 0.634724C11.074 0.479916 11.1852 0.345579 11.3243 0.243891C11.4634 0.142204 11.626 0.0763804 11.7974 0.0523887C13.7001 -0.00700211 15.6055 -0.0170461 17.5135 0.0222566C17.6838 0.0347005 17.8482 0.0887568 17.992 0.179553C18.1358 0.27035 18.2545 0.395032 18.3373 0.542363C18.8072 2.01032 19.1875 3.51758 19.6561 5.21939" fill="#D9A52C"/>
<path id="Path 890" d="M30.0007 17.9764H20.2383C20.6578 16.3388 20.9883 14.8722 21.433 13.4566C21.5151 13.2821 21.6398 13.1305 21.796 13.0153C21.9522 12.9002 22.1349 12.8252 22.3278 12.797C24.1765 12.735 26.0259 12.735 27.876 12.797C28.0675 12.8391 28.2457 12.9268 28.395 13.0523C28.5444 13.1779 28.6604 13.3376 28.7329 13.5175C29.1975 14.9207 29.5559 16.3696 30.002 17.9751" fill="#D9A52C"/>
<path id="Path 891" d="M19.6284 17.9994H9.98682C10.4236 16.3205 10.7707 14.8146 11.232 13.3584C11.3256 13.0623 11.8427 12.82 12.1805 12.7879C13.0261 12.7067 13.881 12.7577 14.7319 12.7584C18.8239 12.7584 18.8239 12.7584 19.6251 17.9988" fill="#D9A52C"/>
<path id="Path 892" d="M0.0084235 17.8848C-0.00476096 17.7158 -0.00476096 17.5461 0.0084235 17.3771C1.02196 12.7636 1.02263 12.7636 5.05289 12.759C8.2183 12.7551 8.21963 12.7551 9.17874 16.2963C9.29821 16.7378 9.39446 17.1878 9.56172 17.8835L0.0084235 17.8848Z" fill="#D9A52C"/>
</g>
</g>
</g>
</g>
<defs>
<clipPath id="clip0_275_7973">
<rect width="30" height="18" fill="white"/>
</clipPath>
</defs>
</svg>
