<svg width="44" height="44" viewBox="0 0 44 44" fill="none" xmlns="http://www.w3.org/2000/svg">
<g filter="url(#filter0_d_36_1126)">
<path d="M22 35C30.8366 35 38 27.8366 38 19C38 10.1634 30.8366 3 22 3C13.1634 3 6 10.1634 6 19C6 27.8366 13.1634 35 22 35Z" fill="#FFB200"/>
</g>
<path d="M28.4262 18.566C28.0044 18.566 27.9033 18.776 27.6627 19.4224L26.3897 23.9011C26.378 24.1158 26.4517 24.3264 26.5947 24.487C26.7378 24.6476 26.9386 24.745 27.1532 24.758H34.0268C34.2421 24.7458 34.4439 24.6488 34.5878 24.4882C34.7317 24.3275 34.8062 24.1165 34.7948 23.9011L33.5212 19.4211C33.4175 19.0019 33.1737 18.566 32.7545 18.566H28.4262Z" fill="white"/>
<path d="M24.0371 11.9689C23.6153 11.9689 23.5142 12.1789 23.2736 12.8253L22.0006 17.304C21.9889 17.5187 22.0626 17.7293 22.2056 17.8899C22.3487 18.0505 22.5495 18.1479 22.7641 18.1609H29.6377C29.853 18.1487 30.0548 18.0517 30.1987 17.8911C30.3426 17.7304 30.4171 17.5193 30.4057 17.304L29.1321 12.824C29.0284 12.4048 28.7846 11.9689 28.3654 11.9689H24.0371Z" fill="white"/>
<path d="M19.8361 18.566C19.4143 18.566 19.3132 18.776 19.0726 19.4224L17.7996 23.9011C17.7879 24.1158 17.8616 24.3264 18.0047 24.487C18.1477 24.6476 18.3485 24.745 18.5631 24.758H25.4367C25.6521 24.7458 25.8538 24.6488 25.9977 24.4882C26.1416 24.3275 26.2161 24.1165 26.2047 23.9011L24.9311 19.4211C24.8275 19.0019 24.5836 18.566 24.1644 18.566H19.8361Z" fill="white"/>
<path d="M15.4464 11.9689C15.0246 11.9689 14.9235 12.1789 14.6829 12.8253L13.4099 17.304C13.3982 17.5187 13.4719 17.7293 13.6149 17.8899C13.758 18.0505 13.9588 18.1479 14.1734 18.1609H21.047C21.2623 18.1487 21.4641 18.0517 21.608 17.8911C21.7519 17.7304 21.8264 17.5193 21.815 17.304L20.5414 12.824C20.4377 12.4048 20.1939 11.9689 19.7747 11.9689H15.4464Z" fill="white"/>
<path d="M11.2454 18.566C10.8236 18.566 10.7225 18.776 10.4819 19.4224L9.20891 23.9011C9.19719 24.1158 9.27091 24.3264 9.41396 24.487C9.55701 24.6476 9.75779 24.745 9.97243 24.758H16.846C17.0614 24.7458 17.2631 24.6488 17.407 24.4882C17.5509 24.3275 17.6254 24.1165 17.614 23.9011L16.3404 19.4211C16.2368 19.0019 15.9929 18.566 15.5737 18.566H11.2454Z" fill="white"/>
<defs>
<filter id="filter0_d_36_1126" x="0" y="0" width="44" height="44" filterUnits="userSpaceOnUse" color-interpolation-filters="sRGB">
<feFlood flood-opacity="0" result="BackgroundImageFix"/>
<feColorMatrix in="SourceAlpha" type="matrix" values="0 0 0 0 0 0 0 0 0 0 0 0 0 0 0 0 0 0 127 0" result="hardAlpha"/>
<feOffset dy="3"/>
<feGaussianBlur stdDeviation="3"/>
<feColorMatrix type="matrix" values="0 0 0 0 0 0 0 0 0 0 0 0 0 0 0 0 0 0 0.161 0"/>
<feBlend mode="normal" in2="BackgroundImageFix" result="effect1_dropShadow_36_1126"/>
<feBlend mode="normal" in="SourceGraphic" in2="effect1_dropShadow_36_1126" result="shape"/>
</filter>
</defs>
</svg>
