<svg width="350" height="329" viewBox="0 0 350 329" fill="none" xmlns="http://www.w3.org/2000/svg">
<g clip-path="url(#clip0_208_1338)">
<path d="M51.2549 303.043C119.6 336.564 230.4 336.572 298.745 303.043C367.09 269.513 367.09 215.158 298.745 181.636C230.4 148.114 119.6 148.114 51.2549 181.636C-17.0902 215.158 -17.0902 269.521 51.2549 303.043Z" fill="#F5F5F5"/>
<path d="M115.785 293.466C101.259 300.384 77.7182 300.384 63.1923 293.466C48.6664 286.548 48.6664 275.332 63.1923 268.406C77.7182 261.488 101.259 261.488 115.785 268.406C130.311 275.324 130.311 286.548 115.785 293.466Z" fill="#E0E0E0"/>
<path d="M302.847 241.34C288.321 248.258 264.78 248.258 250.254 241.34C235.728 234.423 235.728 223.206 250.254 216.28C264.78 209.363 288.321 209.363 302.847 216.28C317.373 223.198 317.373 234.423 302.847 241.34Z" fill="#E0E0E0"/>
<path d="M135.392 152.532L103.848 170.738C102.677 171.415 101.538 173.039 101.307 174.368L93.4708 219.608C93.2399 220.937 94.0044 222.569 95.1751 223.238L115.515 234.972C116.685 235.648 118.581 235.648 119.751 234.972L163.218 209.888C164.388 209.211 165.336 207.635 165.336 206.37C165.336 205.104 164.388 203.528 163.218 202.851L147.577 193.824C146.406 193.147 145.347 191.515 145.211 190.17L141.731 156.035C141.596 154.69 140.593 153.09 139.494 152.453C138.395 151.816 136.555 151.856 135.384 152.532H135.392Z" fill="#263238"/>
<path d="M117.633 227.019V235.481C118.397 235.481 119.17 235.314 119.751 234.972L163.218 209.888C164.388 209.211 165.336 207.635 165.336 206.37C165.336 205.629 165.009 204.785 164.5 204.077H157.38L117.625 227.019H117.633Z" fill="#455A64"/>
<path d="M139.366 154.825L107.821 173.031C106.651 173.707 105.512 175.331 105.281 176.661L98.1613 217.729C97.9303 219.059 98.6948 220.691 99.8655 221.359L115.506 230.387C116.677 231.063 118.572 231.063 119.743 230.387L163.209 205.303C164.38 204.626 164.38 203.536 163.209 202.859L147.569 193.832C146.398 193.155 145.339 191.523 145.203 190.178L141.723 156.043C141.588 154.698 140.529 154.156 139.358 154.833L139.366 154.825Z" fill="#263238"/>
<path d="M163.217 202.851L147.576 193.824C147.003 193.489 146.454 192.924 146.024 192.271L98.4639 219.719C98.7665 220.404 99.2602 221.009 99.8655 221.359L115.506 230.387C116.677 231.063 118.572 231.063 119.743 230.387L163.209 205.303C164.38 204.626 164.38 203.536 163.209 202.859L163.217 202.851Z" fill="#37474F"/>
<path d="M35.1601 242.503L33.1373 241.34C31.4968 240.393 30.1748 238.092 30.1748 236.206V100.805C30.1748 98.9099 31.5048 96.6173 33.1453 95.678L198.625 0.700542C200.265 -0.238804 202.925 -0.238804 204.566 0.700542L206.103 1.59212C207.743 2.53943 209.073 4.84003 209.073 6.72668V142.136C209.073 144.03 207.743 146.323 206.103 147.27L41.0931 242.503C39.4526 243.45 36.8007 243.45 35.1601 242.503Z" fill="#455A64"/>
<path d="M42.0966 104.259L31.0429 97.8751C30.5013 98.8064 30.1748 99.8493 30.1748 100.797V236.198C30.1748 238.092 31.5048 240.385 33.1453 241.332L35.1681 242.495C36.8086 243.442 39.4606 243.442 41.1011 242.495L42.1125 241.913V104.259H42.0966Z" fill="#263238"/>
<path d="M38.123 240.791V105.39C38.123 103.495 39.453 101.203 41.0935 100.255L206.103 5.02313C207.744 4.07582 209.073 4.848 209.073 6.73465V142.136C209.073 144.03 207.744 146.323 206.103 147.27L41.0935 242.503C39.453 243.45 38.123 242.678 38.123 240.791Z" fill="#37474F"/>
<path d="M115.611 190.321L131.251 181.294C132.422 180.617 133.37 181.095 133.37 182.368C133.37 183.642 132.422 185.21 131.251 185.887L115.611 194.914C114.44 195.591 113.492 195.113 113.492 193.84C113.492 192.574 114.44 190.998 115.611 190.321Z" fill="#E0E0E0"/>
<path d="M45.7285 104.395L201.134 14.4564C202.065 13.9151 202.83 14.3529 202.83 15.4355V133.443C202.83 134.525 202.073 135.839 201.134 136.38L45.7285 226.064C44.7888 226.605 44.0322 226.167 44.0322 225.085V107.332C44.0322 106.25 44.7888 104.936 45.7285 104.395Z" fill="white"/>
<path d="M51.5174 106.664L194.109 24.3832C196.697 22.8866 198.815 24.1125 198.815 27.0978V129.558C198.815 130.943 197.836 132.647 196.633 133.339L50.6733 217.562C49.4708 218.255 48.4912 217.689 48.4912 216.304V111.902C48.4912 109.983 49.853 107.619 51.5174 106.656V106.664Z" fill="#E6E6E6"/>
<path d="M109.987 88.7602L188.558 43.4169L188.566 59.1867L109.987 104.538V88.7602Z" fill="#F5F5F5"/>
<path d="M109.987 110.779L188.558 65.4358L188.566 104.952L109.987 150.295V110.779Z" fill="#F0F0F0"/>
<path d="M198.815 29.5496V27.0978C198.815 24.1125 196.697 22.8866 194.109 24.3832L51.5174 106.664C49.853 107.627 48.4912 109.983 48.4912 111.91V116.304L198.815 29.5496Z" fill="#FFD59A"/>
<path d="M179.082 35.1459C178.19 35.6633 177.457 36.9211 177.457 37.948C177.457 38.9749 178.182 39.3968 179.082 38.8873C179.974 38.3699 180.706 37.1121 180.706 36.0852C180.706 35.0583 179.982 34.6364 179.082 35.1538V35.1459Z" fill="white"/>
<path d="M185.508 31.4283C184.616 31.9457 183.892 33.2035 183.892 34.2304C183.892 35.2573 184.616 35.6792 185.508 35.1697C186.4 34.6523 187.125 33.3945 187.125 32.3676C187.125 31.3407 186.4 30.9188 185.508 31.4362V31.4283Z" fill="white"/>
<path d="M191.943 27.7187C191.051 28.2361 190.318 29.4939 190.318 30.5208C190.318 31.5477 191.043 31.9696 191.943 31.4601C192.835 30.9427 193.56 29.6849 193.56 28.658C193.56 27.6311 192.835 27.2092 191.943 27.7266V27.7187Z" fill="white"/>
<path d="M55.3237 172.41C55.1803 172.41 55.037 172.37 54.9016 172.298C54.6388 172.147 54.4795 171.868 54.4795 171.566V120.3C54.4795 119.997 54.6388 119.719 54.9016 119.576L99.2439 93.9027C99.5067 93.7515 99.8252 93.7515 100.088 93.9027C100.351 94.054 100.51 94.3326 100.51 94.6351V145.941C100.51 146.243 100.351 146.522 100.088 146.665L55.7457 172.298C55.6183 172.37 55.467 172.41 55.3237 172.41ZM56.1678 120.794V170.117L98.8298 145.455V96.0919L56.1678 120.794Z" fill="#FAFAFA"/>
<path d="M70.599 153.909C68.9903 153.909 67.4931 153.527 66.1711 152.763C62.9856 150.924 61.2256 147.111 61.2256 142.032C61.2256 131.93 68.3372 119.599 77.0735 114.544C81.4615 112.005 85.6266 111.615 88.8121 113.454C92.0056 115.293 93.7576 119.106 93.7576 124.193C93.7576 134.303 86.646 146.633 77.9097 151.68C75.3454 153.161 72.8607 153.909 70.599 153.909ZM84.3843 113.995C82.4172 113.995 80.2192 114.672 77.9177 116.001C69.6433 120.794 62.9139 132.472 62.9139 142.04C62.9139 146.498 64.3713 149.786 67.0153 151.314C69.6592 152.835 73.227 152.453 77.0735 150.232C85.3479 145.447 92.0773 133.769 92.0773 124.193C92.0773 119.735 90.6199 116.439 87.9679 114.911C86.9088 114.298 85.6983 113.995 84.3763 113.995H84.3843Z" fill="#FAFAFA"/>
<path d="M245.102 179.288L242.02 177.513C241.892 177.441 241.725 177.441 241.534 177.52L235.959 180.028C235.569 180.203 235.163 180.012 235.028 179.598C234.701 178.571 234.287 177.656 233.785 176.836C233.562 176.47 233.506 175.873 233.698 175.491L237.409 168.008C237.6 167.618 237.456 167.132 237.082 166.917L233.053 164.593C232.678 164.378 232.184 164.497 231.946 164.855L227.319 171.813C227.08 172.171 226.538 172.426 226.108 172.418C225.582 172.402 225.041 172.434 224.491 172.489V167.403L221.402 165.619C221.266 165.548 221.083 165.556 220.892 165.667L214.632 169.281C214.258 169.496 213.924 170.022 213.884 170.451L213.255 177.409C213.215 177.839 212.92 178.42 212.602 178.707C211.383 179.829 210.22 181.063 209.121 182.384C208.843 182.719 208.301 182.878 207.895 182.735L203.881 181.334C203.475 181.19 202.965 181.381 202.75 181.755L198.147 189.724C197.932 190.098 198.02 190.632 198.346 190.91L201.572 193.688C201.898 193.967 202.034 194.524 201.882 194.93C201.285 196.538 200.799 198.162 200.433 199.778C200.337 200.2 199.987 200.741 199.629 200.988L193.911 205.008C193.56 205.255 193.273 205.804 193.273 206.242V213.462C193.273 213.685 193.361 213.845 193.496 213.924L196.578 215.699L201.158 213.534C201.333 213.908 201.524 214.266 201.731 214.601C201.954 214.967 202.01 215.564 201.819 215.946L198.107 223.429C197.916 223.819 198.06 224.305 198.434 224.52L202.464 226.844C202.838 227.059 203.332 226.94 203.571 226.581L208.198 219.624C208.436 219.266 208.978 219.011 209.408 219.019C210.364 219.043 211.375 218.947 212.418 218.716C212.84 218.621 213.215 218.876 213.255 219.305L213.868 225.379C213.892 225.586 213.979 225.73 214.107 225.809L217.181 227.584L220.876 222.155C221.25 221.94 221.585 221.415 221.624 220.985L222.254 214.028C222.293 213.598 222.66 213.144 223.058 212.977C224.842 212.229 226.65 210.931 227.916 209.57C228.211 209.251 228.752 209.092 229.166 209.235L231.635 210.103C232.041 210.246 232.543 210.063 232.766 209.689L237.369 201.721C237.584 201.346 237.496 200.813 237.17 200.534L235.051 198.711C234.725 198.433 234.59 197.876 234.709 197.462C235.219 195.679 235.33 193.346 235.282 191.69C235.266 191.26 235.529 190.711 235.88 190.464L241.598 186.444C241.948 186.197 242.235 185.648 242.235 185.21L244.966 181.939L245.094 179.296L245.102 179.288ZM217.77 207.922C211.933 211.289 208.301 208.901 208.301 202.158C208.301 195.416 213.127 187.161 218.965 183.793C224.802 180.426 228.338 182.878 228.338 189.613C228.338 196.347 223.607 204.547 217.762 207.922H217.77Z" fill="#C19D46"/>
<path opacity="0.1" d="M245.102 179.288L242.02 177.513C241.892 177.441 241.725 177.441 241.534 177.52L235.959 180.028C235.569 180.203 235.163 180.012 235.028 179.598C234.701 178.571 234.287 177.656 233.785 176.836C233.562 176.47 233.506 175.873 233.698 175.491L237.409 168.008C237.6 167.618 237.456 167.132 237.082 166.917L233.053 164.593C232.678 164.378 232.184 164.497 231.946 164.855L227.319 171.813C227.08 172.171 226.538 172.426 226.108 172.418C225.582 172.402 225.041 172.434 224.491 172.489V167.403L221.402 165.619C221.266 165.548 221.083 165.556 220.892 165.667L214.632 169.281C214.258 169.496 213.924 170.022 213.884 170.451L213.255 177.409C213.215 177.839 212.92 178.42 212.602 178.707C211.383 179.829 210.22 181.063 209.121 182.384C208.843 182.719 208.301 182.878 207.895 182.735L203.881 181.334C203.475 181.19 202.965 181.381 202.75 181.755L198.147 189.724C197.932 190.098 198.02 190.632 198.346 190.91L201.572 193.688C201.898 193.967 202.034 194.524 201.882 194.93C201.285 196.538 200.799 198.162 200.433 199.778C200.337 200.2 199.987 200.741 199.629 200.988L193.911 205.008C193.56 205.255 193.273 205.804 193.273 206.242V213.462C193.273 213.685 193.361 213.845 193.496 213.924L196.578 215.699L201.158 213.534C201.333 213.908 201.524 214.266 201.731 214.601C201.954 214.967 202.01 215.564 201.819 215.946L198.107 223.429C197.916 223.819 198.06 224.305 198.434 224.52L202.464 226.844C202.838 227.059 203.332 226.94 203.571 226.581L208.198 219.624C208.436 219.266 208.978 219.011 209.408 219.019C210.364 219.043 211.375 218.947 212.418 218.716C212.84 218.621 213.215 218.876 213.255 219.305L213.868 225.379C213.892 225.586 213.979 225.73 214.107 225.809L217.181 227.584L220.876 222.155C221.25 221.94 221.585 221.415 221.624 220.985L222.254 214.028C222.293 213.598 222.66 213.144 223.058 212.977C224.842 212.229 226.65 210.931 227.916 209.57C228.211 209.251 228.752 209.092 229.166 209.235L231.635 210.103C232.041 210.246 232.543 210.063 232.766 209.689L237.369 201.721C237.584 201.346 237.496 200.813 237.17 200.534L235.051 198.711C234.725 198.433 234.59 197.876 234.709 197.462C235.219 195.679 235.33 193.346 235.282 191.69C235.266 191.26 235.529 190.711 235.88 190.464L241.598 186.444C241.948 186.197 242.235 185.648 242.235 185.21L244.966 181.939L245.094 179.296L245.102 179.288ZM217.77 207.922C211.933 211.289 208.301 208.901 208.301 202.158C208.301 195.416 213.127 187.161 218.965 183.793C224.802 180.426 228.338 182.878 228.338 189.613C228.338 196.347 223.607 204.547 217.762 207.922H217.77Z" fill="black"/>
<path d="M236.191 170.483L237.417 168.008C237.608 167.618 237.465 167.132 237.091 166.917L233.061 164.593C232.687 164.378 232.193 164.497 231.954 164.855L227.327 171.813C227.256 171.924 227.144 172.02 227.017 172.107L232.193 175.092L236.191 170.483Z" fill="#F4DEA8"/>
<path d="M200.099 200.503C199.963 200.694 199.812 200.861 199.661 200.972L193.943 204.992C193.799 205.096 193.672 205.255 193.568 205.422L197.056 207.436L204.646 203.122L200.107 200.503H200.099Z" fill="#F4DEA8"/>
<path d="M203.571 181.278C203.253 181.294 202.926 181.461 202.767 181.74L198.164 189.708C198.06 189.883 198.036 190.09 198.06 190.289L202.026 192.582L208.326 184.064L203.571 181.278Z" fill="#F4DEA8"/>
<path d="M214.02 170.03L218.925 172.864L224.5 169.647V167.403L221.41 165.619C221.275 165.548 221.091 165.556 220.9 165.667L214.641 169.281C214.386 169.433 214.155 169.727 214.02 170.038V170.03Z" fill="#F4DEA8"/>
<path d="M245.102 179.288C244.975 179.208 244.799 179.208 244.608 179.288L239.034 181.795C238.643 181.97 238.237 181.779 238.11 181.365C237.895 180.665 237.624 180.012 237.313 179.407L241.534 177.505C241.725 177.425 241.893 177.425 242.02 177.505L245.11 179.28L245.102 179.288Z" fill="#F4DEA8"/>
<g opacity="0.4">
<path d="M236.191 170.483L237.417 168.008C237.608 167.618 237.465 167.132 237.091 166.917L233.061 164.593C232.687 164.378 232.193 164.497 231.954 164.855L227.327 171.813C227.256 171.924 227.144 172.02 227.017 172.107L232.193 175.092L236.191 170.483Z" fill="white"/>
<path d="M200.099 200.503C199.963 200.694 199.812 200.861 199.661 200.972L193.943 204.992C193.799 205.096 193.672 205.255 193.568 205.422L197.056 207.436L204.646 203.122L200.107 200.503H200.099Z" fill="white"/>
<path d="M203.571 181.278C203.253 181.294 202.926 181.461 202.767 181.74L198.164 189.708C198.06 189.883 198.036 190.09 198.06 190.289L202.026 192.582L208.326 184.064L203.571 181.278Z" fill="white"/>
<path d="M214.02 170.03L218.925 172.864L224.5 169.647V167.403L221.41 165.619C221.275 165.548 221.091 165.556 220.9 165.667L214.641 169.281C214.386 169.433 214.155 169.727 214.02 170.038V170.03Z" fill="white"/>
<path d="M245.102 179.288C244.975 179.208 244.799 179.208 244.608 179.288L239.034 181.795C238.643 181.97 238.237 181.779 238.11 181.365C237.895 180.665 237.624 180.012 237.313 179.407L241.534 177.505C241.725 177.425 241.893 177.425 242.02 177.505L245.11 179.28L245.102 179.288Z" fill="white"/>
</g>
<path d="M245.325 186.978V179.749C245.325 179.32 245.006 179.113 244.616 179.288L239.041 181.795C238.651 181.97 238.245 181.779 238.11 181.365C237.783 180.339 237.369 179.423 236.867 178.603C236.644 178.237 236.589 177.64 236.78 177.258L240.491 169.775C240.682 169.385 240.539 168.899 240.164 168.684L236.135 166.36C235.76 166.145 235.267 166.264 235.028 166.622L230.401 173.58C230.162 173.938 229.62 174.193 229.19 174.185C228.235 174.161 227.223 174.257 226.18 174.487C225.758 174.583 225.384 174.328 225.344 173.898L224.731 167.825C224.691 167.395 224.348 167.22 223.974 167.434L217.714 171.049C217.34 171.263 217.006 171.789 216.966 172.219L216.337 179.176C216.297 179.606 216.002 180.187 215.684 180.474C214.465 181.596 213.303 182.83 212.204 184.152C211.925 184.486 211.383 184.645 210.977 184.502L206.955 183.101C206.549 182.958 206.04 183.149 205.825 183.523L201.221 191.491C201.006 191.865 201.094 192.399 201.421 192.677L204.646 195.456C204.972 195.734 205.108 196.291 204.956 196.697C204.359 198.305 203.873 199.929 203.507 201.545C203.412 201.967 203.061 202.509 202.703 202.755L196.985 206.776C196.634 207.022 196.348 207.572 196.348 208.009V215.23C196.348 215.659 196.666 215.866 197.056 215.691L202.631 213.184C203.021 213.009 203.427 213.2 203.563 213.614C203.889 214.641 204.303 215.556 204.805 216.376C205.028 216.742 205.084 217.339 204.893 217.729L201.182 225.212C200.991 225.602 201.134 226.088 201.508 226.303L205.538 228.627C205.912 228.842 206.406 228.723 206.645 228.365L211.272 221.407C211.511 221.049 212.052 220.794 212.482 220.802C213.438 220.826 214.449 220.73 215.493 220.5C215.915 220.404 216.289 220.659 216.329 221.089L216.942 227.162C216.982 227.592 217.324 227.768 217.699 227.553L223.958 223.938C224.332 223.724 224.667 223.198 224.707 222.768L225.336 215.811C225.376 215.381 225.67 214.8 225.989 214.513C227.207 213.391 228.37 212.157 229.461 210.835C229.74 210.501 230.281 210.342 230.687 210.485L234.701 211.886C235.107 212.029 235.617 211.838 235.832 211.464L240.435 203.496C240.65 203.122 240.563 202.588 240.236 202.31L237.011 199.531C236.684 199.253 236.549 198.696 236.7 198.29C237.297 196.682 237.783 195.058 238.15 193.442C238.245 193.02 238.595 192.478 238.954 192.232L244.672 188.211C245.022 187.965 245.309 187.415 245.309 186.978H245.325ZM220.852 209.697C215.015 213.064 210.276 210.334 210.276 203.591C210.276 196.849 215.007 188.657 220.852 185.282C226.69 181.915 231.428 184.645 231.428 191.388C231.428 198.13 226.698 206.322 220.852 209.697Z" fill="#FFD59A"/>
<path d="M214.29 235.911C214.138 235.824 213.947 235.832 213.748 235.967L211.112 237.702C210.754 237.941 210.3 237.814 210.053 237.463C209.894 237.233 209.727 237.026 209.543 236.835C209.249 236.524 209.081 235.983 209.233 235.585L213.422 232.934L210.3 231.135C210.236 231.103 210.173 231.071 210.093 231.055L208.11 230.609C207.688 230.514 207.186 230.745 206.987 231.127L205.123 234.685C204.924 235.067 204.415 235.426 203.993 235.537C203.953 235.545 203.913 235.561 203.881 235.569C203.993 235.235 204.048 234.741 204.048 234.741L200.919 232.934C200.751 232.838 200.536 232.854 200.329 233.021L197.351 235.362C197.008 235.625 196.762 236.19 196.785 236.62L196.961 239.446C196.985 239.876 196.777 240.481 196.499 240.815C196.013 241.396 195.551 242.009 195.121 242.646C194.874 243.004 194.341 243.283 193.91 243.259L191.999 243.163C191.569 243.139 191.075 243.442 190.9 243.84L189.1 247.868C188.941 248.226 189.076 248.64 189.411 248.839L191.529 250.065C191.601 250.24 191.617 250.431 191.577 250.614C191.434 251.259 191.322 251.904 191.243 252.533C191.195 252.963 190.916 253.544 190.598 253.838L187.962 256.258C187.643 256.553 187.444 257.134 187.516 257.556L188.009 260.43C188.041 260.621 188.129 260.748 188.248 260.82L191.394 262.635L191.434 259.037C191.792 258.798 192.246 258.925 192.493 259.275C192.652 259.506 192.819 259.713 193.003 259.904C193.297 260.215 193.465 260.756 193.313 261.162L191.967 264.792C191.848 265.11 191.967 265.437 192.23 265.596L195.368 267.411L196.22 265.071L197.43 262.062C197.63 261.679 198.139 261.321 198.561 261.218C198.96 261.114 199.366 260.979 199.78 260.812C200.178 260.653 200.592 260.828 200.72 261.242L201.388 263.471C201.436 263.638 201.532 263.749 201.643 263.821L204.789 265.636L204.239 262.157L205.203 261.401C205.546 261.138 205.792 260.573 205.769 260.143L205.593 257.317C205.569 256.887 205.777 256.282 206.055 255.948C206.541 255.367 207.282 255.056 207.712 254.419C207.959 254.061 208.213 253.488 208.643 253.504L210.555 253.6C210.985 253.623 211.479 253.321 211.654 252.923L213.454 248.895C213.629 248.505 213.454 248.043 213.055 247.876L211.51 247.215C211.112 247.048 210.881 246.57 210.977 246.148C211.128 245.504 211.232 244.859 211.311 244.23C211.359 243.8 211.638 243.219 211.956 242.924L214.592 240.504C214.815 240.297 214.975 239.947 215.03 239.605L217.428 237.742L214.306 235.943L214.29 235.911ZM202.32 254.491C199.095 257.023 196.013 256.338 195.424 252.947C194.842 249.563 197.478 245.265 200.704 242.725C203.929 240.194 206.517 240.385 207.098 243.768C207.68 247.151 205.538 251.952 202.32 254.483V254.491Z" fill="#C19D46"/>
<path opacity="0.1" d="M214.29 235.911C214.138 235.824 213.947 235.832 213.748 235.967L211.112 237.702C210.754 237.941 210.3 237.814 210.053 237.463C209.894 237.233 209.727 237.026 209.543 236.835C209.249 236.524 209.081 235.983 209.233 235.585L213.422 232.934L210.3 231.135C210.236 231.103 210.173 231.071 210.093 231.055L208.11 230.609C207.688 230.514 207.186 230.745 206.987 231.127L205.123 234.685C204.924 235.067 204.415 235.426 203.993 235.537C203.953 235.545 203.913 235.561 203.881 235.569C203.993 235.235 204.048 234.741 204.048 234.741L200.919 232.934C200.751 232.838 200.536 232.854 200.329 233.021L197.351 235.362C197.008 235.625 196.762 236.19 196.785 236.62L196.961 239.446C196.985 239.876 196.777 240.481 196.499 240.815C196.013 241.396 195.551 242.009 195.121 242.646C194.874 243.004 194.341 243.283 193.91 243.259L191.999 243.163C191.569 243.139 191.075 243.442 190.9 243.84L189.1 247.868C188.941 248.226 189.076 248.64 189.411 248.839L191.529 250.065C191.601 250.24 191.617 250.431 191.577 250.614C191.434 251.259 191.322 251.904 191.243 252.533C191.195 252.963 190.916 253.544 190.598 253.838L187.962 256.258C187.643 256.553 187.444 257.134 187.516 257.556L188.009 260.43C188.041 260.621 188.129 260.748 188.248 260.82L191.394 262.635L191.434 259.037C191.792 258.798 192.246 258.925 192.493 259.275C192.652 259.506 192.819 259.713 193.003 259.904C193.297 260.215 193.465 260.756 193.313 261.162L191.967 264.792C191.848 265.11 191.967 265.437 192.23 265.596L195.368 267.411L196.22 265.071L197.43 262.062C197.63 261.679 198.139 261.321 198.561 261.218C198.96 261.114 199.366 260.979 199.78 260.812C200.178 260.653 200.592 260.828 200.72 261.242L201.388 263.471C201.436 263.638 201.532 263.749 201.643 263.821L204.789 265.636L204.239 262.157L205.203 261.401C205.546 261.138 205.792 260.573 205.769 260.143L205.593 257.317C205.569 256.887 205.777 256.282 206.055 255.948C206.541 255.367 207.282 255.056 207.712 254.419C207.959 254.061 208.213 253.488 208.643 253.504L210.555 253.6C210.985 253.623 211.479 253.321 211.654 252.923L213.454 248.895C213.629 248.505 213.454 248.043 213.055 247.876L211.51 247.215C211.112 247.048 210.881 246.57 210.977 246.148C211.128 245.504 211.232 244.859 211.311 244.23C211.359 243.8 211.638 243.219 211.956 242.924L214.592 240.504C214.815 240.297 214.975 239.947 215.03 239.605L217.428 237.742L214.306 235.943L214.29 235.911ZM202.32 254.491C199.095 257.023 196.013 256.338 195.424 252.947C194.842 249.563 197.478 245.265 200.704 242.725C203.929 240.194 206.517 240.385 207.098 243.768C207.68 247.151 205.538 251.952 202.32 254.483V254.491Z" fill="black"/>
<path d="M190.55 253.854L187.946 256.25C187.755 256.425 187.612 256.712 187.548 256.999L191.418 259.236V259.029C191.785 258.79 192.231 258.917 192.477 259.267L196.204 257.118L190.55 253.854Z" fill="#F4DEA8"/>
<path d="M197.192 246.602C197.487 246.148 197.805 245.703 198.148 245.281L194.437 243.139C194.254 243.211 194.062 243.267 193.887 243.259L191.976 243.163C191.705 243.147 191.41 243.267 191.188 243.45L196.905 246.753L197.192 246.618V246.602Z" fill="#F4DEA8"/>
<path d="M217.412 237.71C217.268 237.631 217.077 237.639 216.878 237.774L214.242 239.509C213.884 239.74 213.438 239.621 213.183 239.27C213.024 239.04 212.856 238.833 212.665 238.642C212.371 238.331 212.203 237.79 212.355 237.384L212.602 236.715L213.732 235.975C213.931 235.847 214.131 235.832 214.282 235.919L217.404 237.718L217.412 237.71Z" fill="#F4DEA8"/>
<path d="M209.624 236.938C209.624 236.938 209.568 236.866 209.536 236.835C209.242 236.524 209.074 235.983 209.226 235.585L213.415 232.934L210.293 231.135C210.229 231.103 210.165 231.071 210.086 231.055L208.103 230.609C207.681 230.514 207.179 230.745 206.98 231.127L205.116 234.685C205.029 234.86 204.87 235.02 204.694 235.163L208.915 237.599L209.648 236.954L209.624 236.938Z" fill="#F4DEA8"/>
<path d="M196.842 236.126L200.712 238.363L203.898 235.449C203.985 235.123 204.025 234.733 204.025 234.733L200.895 232.926C200.728 232.83 200.513 232.846 200.306 233.013L197.328 235.354C197.105 235.529 196.929 235.824 196.842 236.134V236.126Z" fill="#F4DEA8"/>
<g opacity="0.4">
<path d="M190.55 253.854L187.946 256.25C187.755 256.425 187.612 256.712 187.548 256.999L191.418 259.236V259.029C191.785 258.79 192.231 258.917 192.477 259.267L196.204 257.118L190.55 253.854Z" fill="white"/>
<path d="M197.192 246.602C197.487 246.148 197.805 245.703 198.148 245.281L194.437 243.139C194.254 243.211 194.062 243.267 193.887 243.259L191.976 243.163C191.705 243.147 191.41 243.267 191.188 243.45L196.905 246.753L197.192 246.618V246.602Z" fill="white"/>
<path d="M217.412 237.71C217.268 237.631 217.077 237.639 216.878 237.774L214.242 239.509C213.884 239.74 213.438 239.621 213.183 239.27C213.024 239.04 212.856 238.833 212.665 238.642C212.371 238.331 212.203 237.79 212.355 237.384L212.602 236.715L213.732 235.975C213.931 235.847 214.131 235.832 214.282 235.919L217.404 237.718L217.412 237.71Z" fill="white"/>
<path d="M209.624 236.938C209.624 236.938 209.568 236.866 209.536 236.835C209.242 236.524 209.074 235.983 209.226 235.585L213.415 232.934L210.293 231.135C210.229 231.103 210.165 231.071 210.086 231.055L208.103 230.609C207.681 230.514 207.179 230.745 206.98 231.127L205.116 234.685C205.029 234.86 204.87 235.02 204.694 235.163L208.915 237.599L209.648 236.954L209.624 236.938Z" fill="white"/>
<path d="M196.842 236.126L200.712 238.363L203.898 235.449C203.985 235.123 204.025 234.733 204.025 234.733L200.895 232.926C200.728 232.83 200.513 232.846 200.306 233.013L197.328 235.354C197.105 235.529 196.929 235.824 196.842 236.134V236.126Z" fill="white"/>
</g>
<path d="M218.152 240.982L217.658 238.108C217.586 237.686 217.236 237.527 216.87 237.766L214.234 239.501C213.875 239.74 213.421 239.613 213.174 239.263C213.015 239.032 212.848 238.825 212.665 238.634C212.37 238.323 212.203 237.782 212.354 237.384L213.7 233.754C213.851 233.348 213.628 232.942 213.206 232.854L211.223 232.409C210.801 232.313 210.3 232.544 210.1 232.926L208.237 236.484C208.038 236.866 207.528 237.225 207.106 237.328C206.708 237.432 206.302 237.567 205.88 237.734C205.481 237.893 205.067 237.718 204.94 237.304L204.271 235.075C204.144 234.661 203.769 234.542 203.435 234.813L200.456 237.153C200.114 237.416 199.867 237.981 199.891 238.411L200.066 241.237C200.09 241.667 199.883 242.272 199.604 242.606C199.118 243.187 198.656 243.8 198.226 244.437C197.98 244.795 197.446 245.074 197.016 245.05L195.105 244.954C194.675 244.93 194.181 245.233 194.006 245.631L192.206 249.659C192.031 250.049 192.206 250.511 192.604 250.678L194.149 251.339C194.547 251.506 194.778 251.984 194.683 252.405C194.539 253.05 194.428 253.695 194.348 254.324C194.3 254.754 194.022 255.335 193.703 255.629L191.067 258.049C190.748 258.344 190.549 258.925 190.621 259.347L191.115 262.221C191.186 262.643 191.537 262.802 191.903 262.563L194.539 260.828C194.898 260.589 195.352 260.716 195.598 261.067C195.758 261.297 195.925 261.504 196.108 261.695C196.403 262.006 196.57 262.547 196.419 262.953L195.073 266.583C194.921 266.989 195.144 267.395 195.567 267.483L197.55 267.929C197.972 268.024 198.473 267.793 198.672 267.411L200.536 263.853C200.735 263.471 201.245 263.112 201.667 263.009C202.065 262.905 202.471 262.77 202.885 262.603C203.283 262.444 203.698 262.619 203.825 263.033L204.494 265.262C204.621 265.676 204.996 265.795 205.33 265.524L208.309 263.184C208.651 262.921 208.898 262.356 208.874 261.926L208.699 259.1C208.675 258.67 208.882 258.065 209.161 257.731C209.647 257.15 210.108 256.537 210.538 255.9C210.785 255.542 211.319 255.263 211.749 255.287L213.66 255.383C214.09 255.407 214.584 255.104 214.759 254.706L216.559 250.678C216.734 250.288 216.559 249.826 216.161 249.659L214.616 248.998C214.218 248.831 213.987 248.354 214.082 247.932C214.234 247.287 214.337 246.642 214.417 246.013C214.465 245.583 214.743 245.002 215.062 244.708L217.698 242.288C218.016 241.993 218.216 241.412 218.144 240.99L218.152 240.982ZM205.45 256.29C202.224 258.822 199.142 258.137 198.553 254.746C197.964 251.355 200.114 246.562 203.331 244.031C206.557 241.499 209.639 242.184 210.228 245.575C210.809 248.958 208.667 253.759 205.45 256.29Z" fill="#FFD59A"/>
<path d="M188.678 230.633L185.596 228.858C185.468 228.786 185.301 228.786 185.11 228.866L179.535 231.374C179.145 231.549 178.739 231.358 178.604 230.944C178.277 229.917 177.863 229.001 177.361 228.181C177.138 227.815 177.083 227.218 177.274 226.836L180.985 219.353C181.176 218.963 181.033 218.478 180.658 218.263L176.629 215.938C176.254 215.723 175.761 215.843 175.522 216.201L170.895 223.158C170.656 223.517 170.114 223.771 169.684 223.763C169.159 223.747 168.617 223.779 168.068 223.835V218.748L164.978 216.965C164.842 216.893 164.659 216.901 164.468 217.013L158.208 220.627C157.834 220.842 157.5 221.367 157.46 221.797L156.831 228.755C156.791 229.184 156.496 229.766 156.178 230.052C154.959 231.175 153.797 232.409 152.698 233.73C152.419 234.064 151.877 234.224 151.471 234.08L147.457 232.679C147.051 232.536 146.542 232.727 146.327 233.101L141.723 241.07C141.508 241.444 141.596 241.977 141.923 242.256L145.148 245.034C145.474 245.313 145.61 245.87 145.458 246.276C144.861 247.884 144.375 249.508 144.009 251.124C143.913 251.546 143.563 252.087 143.205 252.334L137.487 256.354C137.136 256.601 136.85 257.15 136.85 257.588V264.808C136.85 265.031 136.937 265.19 137.073 265.27L140.155 267.045L144.734 264.88C144.909 265.254 145.1 265.604 145.307 265.946C145.53 266.313 145.586 266.91 145.395 267.292L141.684 274.775C141.492 275.165 141.636 275.65 142.01 275.865L146.04 278.19C146.414 278.405 146.908 278.285 147.147 277.927L151.774 270.969C152.013 270.611 152.554 270.356 152.984 270.364C153.94 270.388 154.951 270.293 155.995 270.062C156.417 269.966 156.783 270.221 156.831 270.651L157.444 276.725C157.468 276.932 157.555 277.075 157.683 277.155L160.757 278.93L164.452 273.501C164.826 273.286 165.161 272.761 165.201 272.331L165.83 265.373C165.87 264.943 166.236 264.49 166.634 264.322C168.418 263.574 170.226 262.277 171.492 260.915C171.787 260.597 172.328 260.438 172.742 260.581L175.211 261.449C175.617 261.592 176.119 261.409 176.342 261.035L180.945 253.066C181.16 252.692 181.072 252.159 180.746 251.88L178.628 250.057C178.301 249.778 178.166 249.221 178.285 248.807C178.795 247.024 178.906 244.692 178.859 243.036C178.843 242.606 179.105 242.057 179.456 241.81L185.174 237.79C185.524 237.543 185.811 236.994 185.811 236.556L188.542 233.284L188.67 230.641L188.678 230.633ZM161.346 259.267C155.509 262.635 151.877 260.247 151.877 253.504C151.877 246.761 156.703 238.506 162.541 235.139C168.378 231.772 171.914 234.224 171.914 240.958C171.914 247.693 167.184 255.892 161.338 259.267H161.346Z" fill="#C19D46"/>
<path opacity="0.1" d="M188.678 230.633L185.596 228.858C185.468 228.786 185.301 228.786 185.11 228.866L179.535 231.374C179.145 231.549 178.739 231.358 178.604 230.944C178.277 229.917 177.863 229.001 177.361 228.181C177.138 227.815 177.083 227.218 177.274 226.836L180.985 219.353C181.176 218.963 181.033 218.478 180.658 218.263L176.629 215.938C176.254 215.723 175.761 215.843 175.522 216.201L170.895 223.158C170.656 223.517 170.114 223.771 169.684 223.763C169.159 223.747 168.617 223.779 168.068 223.835V218.748L164.978 216.965C164.842 216.893 164.659 216.901 164.468 217.013L158.208 220.627C157.834 220.842 157.5 221.367 157.46 221.797L156.831 228.755C156.791 229.184 156.496 229.766 156.178 230.052C154.959 231.175 153.797 232.409 152.698 233.73C152.419 234.064 151.877 234.224 151.471 234.08L147.457 232.679C147.051 232.536 146.542 232.727 146.327 233.101L141.723 241.07C141.508 241.444 141.596 241.977 141.923 242.256L145.148 245.034C145.474 245.313 145.61 245.87 145.458 246.276C144.861 247.884 144.375 249.508 144.009 251.124C143.913 251.546 143.563 252.087 143.205 252.334L137.487 256.354C137.136 256.601 136.85 257.15 136.85 257.588V264.808C136.85 265.031 136.937 265.19 137.073 265.27L140.155 267.045L144.734 264.88C144.909 265.254 145.1 265.604 145.307 265.946C145.53 266.313 145.586 266.91 145.395 267.292L141.684 274.775C141.492 275.165 141.636 275.65 142.01 275.865L146.04 278.19C146.414 278.405 146.908 278.285 147.147 277.927L151.774 270.969C152.013 270.611 152.554 270.356 152.984 270.364C153.94 270.388 154.951 270.293 155.995 270.062C156.417 269.966 156.783 270.221 156.831 270.651L157.444 276.725C157.468 276.932 157.555 277.075 157.683 277.155L160.757 278.93L164.452 273.501C164.826 273.286 165.161 272.761 165.201 272.331L165.83 265.373C165.87 264.943 166.236 264.49 166.634 264.322C168.418 263.574 170.226 262.277 171.492 260.915C171.787 260.597 172.328 260.438 172.742 260.581L175.211 261.449C175.617 261.592 176.119 261.409 176.342 261.035L180.945 253.066C181.16 252.692 181.072 252.159 180.746 251.88L178.628 250.057C178.301 249.778 178.166 249.221 178.285 248.807C178.795 247.024 178.906 244.692 178.859 243.036C178.843 242.606 179.105 242.057 179.456 241.81L185.174 237.79C185.524 237.543 185.811 236.994 185.811 236.556L188.542 233.284L188.67 230.641L188.678 230.633ZM161.346 259.267C155.509 262.635 151.877 260.247 151.877 253.504C151.877 246.761 156.703 238.506 162.541 235.139C168.378 231.772 171.914 234.224 171.914 240.958C171.914 247.693 167.184 255.892 161.338 259.267H161.346Z" fill="black"/>
<path d="M179.775 221.829L181.001 219.353C181.192 218.963 181.049 218.478 180.675 218.263L176.645 215.938C176.271 215.723 175.777 215.843 175.538 216.201L170.911 223.158C170.839 223.27 170.728 223.365 170.601 223.453L175.777 226.438L179.775 221.829Z" fill="#F4DEA8"/>
<path d="M143.675 251.856C143.539 252.047 143.388 252.214 143.237 252.326L137.519 256.346C137.375 256.449 137.248 256.609 137.145 256.776L140.633 258.79L148.222 254.475L143.683 251.856H143.675Z" fill="#F4DEA8"/>
<path d="M147.147 232.631C146.829 232.647 146.502 232.814 146.343 233.093L141.74 241.062C141.636 241.237 141.613 241.444 141.636 241.643L145.602 243.935L151.902 235.418L147.147 232.631Z" fill="#F4DEA8"/>
<path d="M157.596 221.375L162.501 224.209L168.076 220.993V218.748L164.986 216.965C164.851 216.893 164.668 216.901 164.476 217.013L158.217 220.627C157.962 220.778 157.731 221.073 157.596 221.383V221.375Z" fill="#F4DEA8"/>
<path d="M188.678 230.641C188.551 230.562 188.376 230.562 188.184 230.641L182.61 233.149C182.22 233.324 181.813 233.133 181.686 232.719C181.471 232.018 181.2 231.366 180.89 230.761L185.11 228.858C185.302 228.778 185.469 228.778 185.596 228.858L188.686 230.633L188.678 230.641Z" fill="#F4DEA8"/>
<g opacity="0.4">
<path d="M179.775 221.829L181.001 219.353C181.192 218.963 181.049 218.478 180.675 218.263L176.645 215.938C176.271 215.723 175.777 215.843 175.538 216.201L170.911 223.158C170.839 223.27 170.728 223.365 170.601 223.453L175.777 226.438L179.775 221.829Z" fill="white"/>
<path d="M143.675 251.856C143.539 252.047 143.388 252.214 143.237 252.326L137.519 256.346C137.375 256.449 137.248 256.609 137.145 256.776L140.633 258.79L148.222 254.475L143.683 251.856H143.675Z" fill="white"/>
<path d="M147.147 232.631C146.829 232.647 146.502 232.814 146.343 233.093L141.74 241.062C141.636 241.237 141.613 241.444 141.636 241.643L145.602 243.935L151.902 235.418L147.147 232.631Z" fill="white"/>
<path d="M157.596 221.375L162.501 224.209L168.076 220.993V218.748L164.986 216.965C164.851 216.893 164.668 216.901 164.476 217.013L158.217 220.627C157.962 220.778 157.731 221.073 157.596 221.383V221.375Z" fill="white"/>
<path d="M188.678 230.641C188.551 230.562 188.376 230.562 188.184 230.641L182.61 233.149C182.22 233.324 181.813 233.133 181.686 232.719C181.471 232.018 181.2 231.366 180.89 230.761L185.11 228.858C185.302 228.778 185.469 228.778 185.596 228.858L188.686 230.633L188.678 230.641Z" fill="white"/>
</g>
<path d="M188.901 238.331V231.103C188.901 230.673 188.582 230.466 188.192 230.641L182.625 233.149C182.235 233.324 181.829 233.133 181.694 232.719C181.367 231.692 180.953 230.777 180.451 229.957C180.228 229.59 180.172 228.993 180.364 228.611L184.075 221.128C184.266 220.738 184.122 220.253 183.748 220.038L179.719 217.713C179.344 217.498 178.85 217.618 178.612 217.976L173.985 224.934C173.746 225.292 173.204 225.547 172.774 225.539C171.818 225.515 170.807 225.61 169.764 225.841C169.342 225.937 168.967 225.682 168.928 225.252L168.314 219.178C168.275 218.748 167.932 218.573 167.558 218.788L161.298 222.402C160.924 222.617 160.59 223.142 160.55 223.572L159.921 230.53C159.881 230.96 159.586 231.541 159.268 231.827C158.049 232.95 156.886 234.184 155.787 235.505C155.509 235.839 154.967 235.999 154.561 235.855L150.547 234.454C150.141 234.311 149.631 234.502 149.416 234.876L144.813 242.845C144.598 243.219 144.686 243.752 145.012 244.031L148.238 246.809C148.564 247.088 148.7 247.645 148.548 248.051C147.951 249.659 147.465 251.283 147.099 252.899C147.003 253.321 146.653 253.862 146.295 254.109L140.577 258.129C140.226 258.376 139.939 258.925 139.939 259.363V266.583C139.939 267.013 140.258 267.22 140.648 267.045L146.215 264.537C146.605 264.362 147.011 264.553 147.147 264.967C147.473 265.994 147.887 266.91 148.389 267.729C148.612 268.096 148.668 268.693 148.477 269.083L144.765 276.566C144.574 276.956 144.718 277.441 145.092 277.656L149.122 279.981C149.496 280.196 149.99 280.076 150.229 279.718L154.856 272.761C155.095 272.402 155.636 272.148 156.066 272.156C157.022 272.179 158.033 272.084 159.076 271.853C159.498 271.758 159.865 272.012 159.913 272.442L160.526 278.516C160.566 278.946 160.908 279.121 161.282 278.906L167.542 275.292C167.916 275.077 168.251 274.552 168.291 274.122L168.92 267.164C168.959 266.734 169.254 266.153 169.573 265.867C170.791 264.744 171.954 263.51 173.045 262.189C173.324 261.855 173.865 261.695 174.271 261.839L178.285 263.24C178.691 263.383 179.201 263.192 179.416 262.818L184.019 254.849C184.234 254.475 184.146 253.942 183.82 253.663L180.595 250.885C180.268 250.606 180.133 250.049 180.284 249.643C180.881 248.035 181.367 246.411 181.733 244.795C181.829 244.373 182.179 243.832 182.538 243.585L188.256 239.565C188.606 239.318 188.893 238.769 188.893 238.331H188.901ZM164.428 261.051C158.591 264.418 153.852 261.687 153.852 254.945C153.852 248.202 158.583 240.011 164.428 236.636C170.266 233.268 175.004 235.999 175.004 242.741C175.004 249.484 170.273 257.675 164.428 261.051Z" fill="#FFD59A"/>
<path d="M260.965 102.97H286.967V79.6693C286.967 72.4888 281.145 66.6697 273.962 66.6697C266.779 66.6697 260.957 72.4888 260.957 79.6693V102.97H260.965Z" fill="#263238"/>
<path d="M269.144 96.6491L250.533 97.3576C249.88 96.8004 246.2 92.4141 246.2 92.4141C246.2 92.4141 236.086 91.1165 236.023 91.4827C235.959 91.8489 245.97 102.548 246.957 103.631C247.507 104.228 248.008 104.705 249.322 104.785C251.942 104.944 266.357 105.852 266.357 105.852L269.136 96.6571L269.144 96.6491Z" fill="#FFA8A7"/>
<path d="M173.284 180.498L172.727 180.179C171.843 179.67 171.118 178.42 171.118 177.401V120.244C171.118 119.217 171.835 117.975 172.727 117.466L246.169 75.084C247.053 74.5745 248.494 74.5745 249.378 75.084L249.936 75.4024C250.82 75.9119 251.544 77.1617 251.544 78.1806V135.337C251.544 136.364 250.828 137.606 249.936 138.116L176.494 180.498C175.61 181.007 174.168 181.007 173.284 180.498Z" fill="#FFD59A"/>
<path opacity="0.4" d="M251.528 77.9259C251.417 77.09 250.748 76.7875 249.935 77.2572L176.493 119.639C176.047 119.894 175.649 120.34 175.355 120.833L171.596 118.668C171.882 118.167 172.289 117.729 172.735 117.466L246.168 75.0919C247.06 74.5825 248.502 74.5825 249.378 75.0919L249.935 75.4104C250.74 75.88 251.425 76.9627 251.528 77.9339V77.9259Z" fill="white"/>
<path opacity="0.1" d="M176.223 180.625C175.339 181.007 174.089 180.959 173.284 180.498L172.719 180.179C171.835 179.67 171.118 178.42 171.118 177.393V120.244C171.118 119.735 171.293 119.162 171.588 118.66L175.347 120.825C175.06 121.327 174.877 121.9 174.877 122.409V179.574C174.877 180.49 175.458 180.92 176.215 180.625H176.223Z" fill="black"/>
<path d="M182.316 122.792L187.843 119.607C188.249 119.377 188.567 119.56 188.567 120.029V126.239C188.567 126.7 188.241 127.265 187.835 127.496L182.316 130.609C181.91 130.84 181.583 130.649 181.583 130.179V124.057C181.583 123.596 181.91 123.03 182.308 122.8L182.316 122.792Z" fill="#FAFAFA"/>
<path d="M187.117 126.597C186.934 126.7 186.759 126.708 186.64 126.621L184.935 125.331C184.704 125.156 184.736 124.686 184.999 124.264C185.262 123.85 185.66 123.651 185.891 123.826L187.078 124.726L190.383 117.625C190.59 117.179 190.98 116.885 191.267 116.957C191.545 117.036 191.609 117.45 191.402 117.896L187.627 126C187.516 126.246 187.332 126.453 187.141 126.573L187.117 126.589V126.597Z" fill="#37474F"/>
<path d="M182.316 136.317L187.843 133.132C188.249 132.902 188.567 133.085 188.567 133.554V139.764C188.567 140.225 188.241 140.79 187.835 141.021L182.316 144.134C181.91 144.365 181.583 144.174 181.583 143.704V137.582C181.583 137.121 181.91 136.555 182.308 136.325L182.316 136.317Z" fill="#FAFAFA"/>
<path d="M187.117 140.122C186.934 140.225 186.759 140.233 186.64 140.146L184.935 138.856C184.704 138.681 184.736 138.211 184.999 137.789C185.262 137.375 185.66 137.176 185.891 137.351L187.078 138.251L190.383 131.15C190.59 130.704 190.98 130.41 191.267 130.482C191.545 130.561 191.609 130.975 191.402 131.421L187.627 139.525C187.516 139.771 187.332 139.978 187.141 140.098L187.117 140.114V140.122Z" fill="#37474F"/>
<path d="M182.316 149.842L187.843 146.657C188.249 146.426 188.567 146.61 188.567 147.079V153.288C188.567 153.75 188.241 154.315 187.835 154.546L182.316 157.659C181.91 157.89 181.583 157.699 181.583 157.229V151.107C181.583 150.646 181.91 150.08 182.308 149.85L182.316 149.842Z" fill="#FAFAFA"/>
<path d="M187.117 153.655C186.934 153.758 186.759 153.766 186.64 153.679L184.935 152.389C184.704 152.214 184.736 151.744 184.999 151.322C185.262 150.908 185.66 150.709 185.891 150.884L187.078 151.784L190.383 144.683C190.59 144.237 190.98 143.943 191.267 144.014C191.545 144.094 191.609 144.508 191.402 144.954L187.627 153.058C187.516 153.304 187.332 153.511 187.141 153.631L187.117 153.647V153.655Z" fill="#37474F"/>
<path d="M182.316 163.406L187.843 160.222C188.249 159.991 188.567 160.174 188.567 160.644V166.853C188.567 167.315 188.241 167.88 187.835 168.111L182.316 171.224C181.91 171.454 181.583 171.263 181.583 170.794V164.672C181.583 164.21 181.91 163.645 182.308 163.414L182.316 163.406Z" fill="#FAFAFA"/>
<path d="M187.117 167.219C186.934 167.323 186.759 167.331 186.64 167.243L184.935 165.954C184.704 165.779 184.736 165.309 184.999 164.887C185.262 164.473 185.66 164.274 185.891 164.449L187.078 165.349L190.383 158.248C190.59 157.802 190.98 157.508 191.267 157.579C191.545 157.659 191.609 158.073 191.402 158.519L187.627 166.622C187.516 166.869 187.332 167.076 187.141 167.196L187.117 167.212V167.219Z" fill="#37474F"/>
<path d="M195.399 116.964C195.399 117.713 196.052 117.952 196.857 117.482L217.857 105.366C218.662 104.904 219.315 103.917 219.315 103.169C219.315 102.421 218.662 102.182 217.857 102.651L196.857 114.775C196.052 115.237 195.399 116.224 195.399 116.972V116.964Z" fill="#455A64"/>
<path d="M195.399 121.526C195.399 122.274 196.052 122.513 196.857 122.043L241.772 96.1556C242.577 95.6939 243.23 94.7068 243.23 93.9585C243.23 93.2102 242.577 92.9714 241.772 93.441L196.857 119.329C196.052 119.79 195.399 120.778 195.399 121.526Z" fill="#F0F0F0"/>
<path d="M195.399 130.195C195.399 130.943 196.052 131.182 196.857 130.712L217.857 118.596C218.662 118.135 219.315 117.148 219.315 116.399C219.315 115.651 218.662 115.412 217.857 115.882L196.857 128.006C196.052 128.467 195.399 129.455 195.399 130.203V130.195Z" fill="#455A64"/>
<path d="M195.399 134.756C195.399 135.505 196.052 135.743 196.857 135.274L241.772 109.386C242.577 108.924 243.23 107.937 243.23 107.189C243.23 106.441 242.577 106.202 241.772 106.671L196.857 132.559C196.052 133.021 195.399 134.008 195.399 134.756Z" fill="#F0F0F0"/>
<path d="M195.399 144.277C195.399 145.025 196.052 145.264 196.857 144.795L217.857 132.671C218.662 132.209 219.315 131.222 219.315 130.474C219.315 129.725 218.662 129.486 217.857 129.956L196.857 142.08C196.052 142.542 195.399 143.529 195.399 144.277Z" fill="#455A64"/>
<path d="M195.399 148.831C195.399 149.579 196.052 149.818 196.857 149.348L241.772 123.46C242.577 122.999 243.23 122.011 243.23 121.263C243.23 120.515 242.577 120.276 241.772 120.746L196.857 146.633C196.052 147.095 195.399 148.082 195.399 148.831Z" fill="#F0F0F0"/>
<path d="M195.399 158.351C195.399 159.1 196.052 159.339 196.857 158.869L217.857 146.745C218.662 146.283 219.315 145.296 219.315 144.548C219.315 143.8 218.662 143.561 217.857 144.03L196.857 156.154C196.052 156.616 195.399 157.603 195.399 158.351Z" fill="#455A64"/>
<path d="M195.399 162.905C195.399 163.653 196.052 163.892 196.857 163.422L241.772 137.535C242.577 137.073 243.23 136.086 243.23 135.337C243.23 134.589 242.577 134.35 241.772 134.82L196.857 160.708C196.052 161.169 195.399 162.157 195.399 162.905Z" fill="#F0F0F0"/>
<path d="M260.735 223.039C259.238 224.679 257.581 226 255.805 227.33C255.543 227.529 255.264 227.736 255.121 228.038C254.89 228.524 254.523 229.718 256.729 230.49C258.887 231.238 261.571 231.063 263.538 229.837C265.346 228.707 265.434 226.343 267.138 225.005C268.404 224.01 269.989 223.755 271.008 222.45C271.717 221.542 271.534 220.34 271.168 218.844C270.761 217.212 270.578 215.978 270.037 216.105L270.124 216.854C269.455 217.928 265.959 218.247 264.406 217.506C264.406 217.506 261.715 221.972 260.735 223.047V223.039Z" fill="#263238"/>
<path d="M259.206 224.559C259.732 224.066 260.241 223.572 260.735 223.031C261.364 222.338 262.71 220.237 263.586 218.836C264.12 217.984 264.502 216.957 264.382 215.835C264.263 214.704 263.944 211.814 263.944 211.814L269.471 211.424L270.116 216.846C270.252 218.072 269.232 219.162 267.433 220.714C265.633 222.267 263.347 225.881 261.722 226.788C260.09 227.696 258.927 227.664 258.234 227.202C257.518 226.725 257.446 226.358 259.206 224.567V224.559Z" fill="#FFA8A7"/>
<path d="M285.574 223.532V222.705C285.248 223.676 283.727 227.871 281.417 229.973C279.585 231.644 277.085 233.571 276.448 235.441C275.787 237.376 279.928 238.029 281.64 237.726C283.631 237.376 286.203 236.245 287.605 234.526C288.593 233.316 289.214 231.883 289.922 230.928C290.623 229.973 292.248 228.914 292.63 227.815C292.837 227.21 292.59 225.889 292.296 224.766C292.025 223.739 291.738 222.609 291.38 222.705C291.38 222.832 291.38 223.341 291.38 223.341C290.958 223.811 289.787 224.273 288.473 224.321C287.621 224.352 285.558 224.185 285.566 223.532H285.574Z" fill="#263238"/>
<path d="M279.76 231.445C280.326 230.936 280.899 230.442 281.417 229.973C283.025 228.5 284.252 226.016 284.961 224.313C285.367 223.341 285.574 222.307 285.574 221.256V217.944H291.387V223.333V223.477L291.356 223.493C291.077 224.703 288.409 227.911 286.896 230.004C285.876 231.405 283.949 233.197 281.648 233.499C279.466 233.794 278.343 233.101 279.768 231.445H279.76Z" fill="#FFA8A7"/>
<path d="M290.225 133.252C294.733 143.091 290.066 177.735 290.066 177.735C290.201 179.335 292.025 182.472 292.71 189.501C293.514 197.804 291.452 218.645 291.452 218.645C291.452 218.645 288.76 220.404 285.582 218.876C285.582 218.876 280.047 187.487 279.004 179.232C278.096 172.028 276.352 155.096 276.352 155.096L271.12 179.24C271.12 179.24 272.195 183.18 272.139 186.388C272.06 191.268 269.782 212.626 269.782 212.626C269.782 212.626 267.759 213.813 263.953 213.247C263.953 213.247 260.289 185.171 260.393 178.627C260.449 175.124 261.978 137.837 261.978 137.837L290.233 133.236L290.225 133.252Z" fill="#FFD59A"/>
<g opacity="0.15">
<path d="M276.336 155.096L274.871 147.055C274.871 147.055 268.683 145.774 265.88 143.139C265.88 143.139 268.826 146.801 273.199 148.003L274.839 155.04L271.869 175.737L276.336 155.103V155.096Z" fill="#263238"/>
</g>
<path d="M276.877 67.4657L277.179 64.0586C276.224 63.9392 275.38 64.6079 275.3 65.5552C275.22 66.4945 275.929 67.3543 276.885 67.4657H276.877Z" fill="#263238"/>
<path d="M277.06 67.808L279.824 65.786C279.282 64.99 278.223 64.7989 277.458 65.3562C276.694 65.9134 276.519 67.012 277.06 67.808Z" fill="#263238"/>
<path d="M279.927 96.8959C279.927 96.8959 286.561 97.4691 287.5 97.891C282.738 103.105 289.977 105.262 289.977 105.262L285.016 123.007C287.994 127.544 289.89 131.063 291.012 135.536C287.668 141.435 268.857 142.247 261.969 137.861C262.566 129.63 263.904 123.739 263.458 121.271C261.108 111.177 261.196 109.052 261.507 106.743C262.112 102.237 266.58 98.3049 269.144 96.6571H271.533L279.927 96.9039V96.8959Z" fill="#37474F"/>
<path d="M266.437 73.0222C265.035 73.8501 263.307 77.3686 263.474 84.756C263.618 91.013 265.648 92.5574 266.668 93.0032C267.687 93.449 269.654 93.1783 271.565 92.8599V96.6173C271.565 96.6173 268.921 99.6821 269.089 101.402C269.256 103.121 272.903 103.527 275.372 101.847C277.841 100.168 279.927 96.8879 279.927 96.8879L279.888 88.2507C279.888 88.2507 281.01 89.3413 282.922 87.6776C284.499 86.3004 285.024 83.9839 283.798 82.7341C282.571 81.4922 280.302 81.8265 279.434 83.6017C278.908 84.7401 277.713 84.756 277.705 83.4585C277.65 76.8034 276.861 76.4452 276.192 73.7227C272.218 72.4251 269.367 72.9028 266.445 73.0142L266.437 73.0222Z" fill="#FFA8A7"/>
<path d="M270.466 83.1878C270.442 83.6416 270.777 84.0237 271.215 84.0396C271.653 84.0635 272.019 83.7132 272.043 83.2595C272.067 82.8057 271.732 82.4236 271.294 82.4077C270.856 82.3838 270.49 82.7341 270.466 83.1878Z" fill="#263238"/>
<path d="M270.258 88.4896L268.427 89.0707C268.578 89.5961 269.112 89.8906 269.613 89.7234C270.115 89.5642 270.402 89.007 270.25 88.4816L270.258 88.4896Z" fill="#F28F8F"/>
<path d="M264.142 81.1022L265.735 79.9956C265.448 79.5419 264.851 79.4225 264.413 79.725C263.975 80.0275 263.856 80.6484 264.142 81.1022Z" fill="#263238"/>
<path d="M272.76 81.3489L271.167 80.2424C271.454 79.7887 272.051 79.6693 272.489 79.9718C272.927 80.2743 273.046 80.8952 272.76 81.3489Z" fill="#263238"/>
<path d="M264.381 82.6147C264.357 83.0684 264.692 83.4505 265.13 83.4664C265.568 83.4903 265.934 83.1401 265.958 82.6863C265.982 82.2326 265.647 81.8504 265.209 81.8345C264.771 81.8106 264.405 82.1609 264.381 82.6147Z" fill="#263238"/>
<path d="M268.093 82.1689L267.965 86.9054L265.473 86.1332L268.093 82.1689Z" fill="#F28F8F"/>
<path d="M271.564 92.8678C273.579 92.6051 277.72 91.4111 278.366 89.7791C278.366 89.7791 278.15 90.8061 276.916 91.8648C275.682 92.9236 271.564 94.1177 271.564 94.1177V92.8678Z" fill="#F28F8F"/>
<path d="M270.585 67.5374C264.557 67.5374 259.667 72.4251 259.667 78.4513V79.8683H265.011C267.495 79.8683 269.598 78.0294 269.932 75.5696L270.131 79.8683C272.178 79.8683 273.89 78.3 274.066 76.2621L274.129 75.5616C274.32 77.9975 276.359 79.8683 278.796 79.8683H279.266L279.815 72.1624L270.577 67.5453L270.585 67.5374Z" fill="#263238"/>
<path d="M283.153 100.805C281.664 102.994 273.222 121.502 273.222 121.502C273.222 121.502 260.488 120.642 255.096 120.069C253.4 119.886 253.774 118.071 253.098 116.264C252.413 114.465 251.553 114.815 251.553 114.815V117.219C251.608 118.835 248.94 119.703 247.802 120.149C245.922 120.881 243.86 121.351 241.916 121.948C241.255 122.155 240.547 122.402 240.188 122.991C239.87 123.524 239.949 124.232 240.244 124.774C241.128 126.358 242.84 127.234 244.6 127.449C246.766 127.703 248.869 127.082 250.979 126.708C253.472 126.262 255.375 125.912 257.844 126.239C260.217 126.557 263.307 127.21 265.656 127.632C268.364 128.125 272.394 128.587 274.751 128.69C276.455 128.762 277.682 128.436 279.155 126.358C280.628 124.288 288.696 107.627 288.696 107.627C292.064 102.834 290.129 98.8064 287.628 97.9467C286.06 97.4133 284.634 98.6074 283.145 100.797L283.153 100.805Z" fill="#FFA8A7"/>
<path d="M231.723 82.9729C232.368 83.0604 233.005 83.2197 233.61 83.4346C235.163 83.9839 236.557 85.0187 237.417 86.4198C237.799 87.0407 237.974 87.9721 237.879 88.6886C237.855 88.8955 237.807 89.0945 237.704 89.2697C237.513 89.604 237.154 89.803 236.812 89.9861C235.402 90.7503 234.407 90.814 232.981 90.0419C231.404 89.1901 229.796 88.3463 228.075 87.8288C227.215 87.5741 226.323 87.3989 225.424 87.3591C224.834 87.3353 224.5 87.59 224.006 87.8766C223.687 87.0646 223.863 86.4437 224.364 85.7431C225.216 84.5491 226.507 83.6893 227.908 83.2515C229.135 82.8694 230.449 82.7898 231.723 82.9649V82.9729Z" fill="#FFA8A7"/>
<path d="M90.8433 137.805C95.457 137.805 99.1973 134.067 99.1973 129.455C99.1973 124.843 95.457 121.104 90.8433 121.104C86.2295 121.104 82.4893 124.843 82.4893 129.455C82.4893 134.067 86.2295 137.805 90.8433 137.805Z" fill="#263238"/>
<path d="M70.8384 280.753H76.7236V270.691H70.8384V280.753Z" fill="#FFA8A7"/>
<path d="M91.2412 270.149L97.1185 270.356L97.4131 259.705L91.2412 259.498V270.149Z" fill="#FFA8A7"/>
<path d="M71.2285 184.422C71.2285 190.034 70.5038 230.538 70.5038 230.538C70.3684 232.154 68.8553 235.131 69.1818 241.34C69.6277 249.771 70.5914 275.722 70.5914 275.722C70.5914 275.722 73.4503 277.394 77.1376 275.849C77.1376 275.849 82.33 241.364 83.3812 233.014C84.297 225.722 85.8579 205.916 85.8579 205.916L89.0434 229.718C89.0434 229.718 87.9604 234.064 88.3108 239.064C88.5895 242.924 90.8512 266.854 90.8512 266.854C90.8512 266.854 93.6226 268.733 97.6443 267.371C97.6443 267.371 100.615 233.268 100.686 229.718C100.766 225.674 98.7274 184.422 98.7274 184.422H71.2205H71.2285Z" fill="#37474F"/>
<path d="M97.9306 150.256C101.379 153.09 107.607 158.837 107.607 158.837L97.8829 164.187L91.7109 147.613C91.7109 147.613 94.1319 147.135 97.9227 150.248L97.9306 150.256Z" fill="#FFE3B8"/>
<path opacity="0.1" d="M97.2197 149.669C100.668 152.503 106.896 158.251 106.896 158.251L97.1719 163.6L91 147.026C91 147.026 93.421 146.549 97.2117 149.661L97.2197 149.669Z" fill="black"/>
<path d="M73.2275 151.657C73.2275 151.657 71.0295 153.862 71.0295 159.195V170.714L70.8623 192.47C79.3039 196.92 89.9674 197.175 98.9744 190.6C98.9744 190.6 98.5444 162.642 98.5444 158.057C98.5444 153.472 95.988 147.525 88.964 147.119L79.8932 149.229L73.2355 151.665L73.2275 151.657Z" fill="#FFD59A"/>
<path d="M76.4053 135.393C76.4053 135.393 77.7591 141.746 78.3006 142.789C78.8422 143.831 79.9651 144.126 79.9651 144.126L79.8695 139.652L76.4053 135.385V135.393Z" fill="#263238"/>
<path d="M78.1014 126.286C78.1014 126.286 76.644 126.04 75.5052 127.194C74.3902 128.332 75.0114 131.898 76.3971 135.385L78.9455 135.68L78.0934 126.286H78.1014Z" fill="#263238"/>
<path d="M79.7178 135.688C79.2081 135.99 78.4755 135.011 77.8463 134.35C77.2172 133.69 75.1546 132.79 74.1352 134.955C73.0919 137.16 75.0431 140.066 76.6597 140.576C79.455 141.451 79.8691 139.66 79.8691 139.66L80.0841 149.722C80.0841 149.722 82.4892 153.695 88.6771 154.658C91.8387 155.151 92.6112 152.071 89.1628 149.46V146.395C89.1628 146.395 91.6874 146.777 92.9218 146.586C94.9764 146.267 96.2665 144.651 96.8877 142.43C97.8912 138.864 98.2654 135.982 97.4213 128.961C96.4895 121.271 87.5382 121.192 82.7122 124.233C77.8782 127.273 79.7258 135.68 79.7258 135.68L79.7178 135.688Z" fill="#FFA8A7"/>
<path d="M79.7174 136.547C79.4626 136.547 78.4831 134.931 77.846 134.35C76.962 133.546 78.1008 126.286 78.1008 126.286C78.1008 126.286 77.2566 124.479 78.9529 122.616C80.1634 121.287 82.1782 121.144 85.6266 120.602C87.4343 120.316 90.1739 119.814 91.9817 119.48C94.1398 119.082 95.9237 118.652 97.4448 119.974C98.6314 121.001 99.1411 122.823 98.504 124.256C98.3527 124.591 98.1377 124.893 97.8908 125.172C97.4528 125.657 96.959 126.04 96.3378 126.239C96.3378 126.239 95.3981 127.074 92.125 127.472C88.8519 127.87 83.763 127.393 83.0622 127.297C82.1145 127.17 81.9154 128.085 81.3978 130.593C80.9518 132.798 80.5775 136.532 79.7095 136.547H79.7174Z" fill="#263238"/>
<path d="M78.1095 126.852L75.0195 125.196C75.4575 124.312 76.5088 123.962 77.3609 124.424C78.213 124.885 78.5475 125.968 78.1095 126.852Z" fill="#263238"/>
<path d="M89.1625 146.395C89.1625 146.395 84.5834 145.471 82.9747 144.619C81.8996 144.046 81.0156 143.059 80.7607 142.43C80.7607 142.43 81.0634 143.792 82.019 145.018C83.1897 146.514 89.1625 147.621 89.1625 147.621V146.403V146.395Z" fill="#F28F8F"/>
<path d="M88.0563 134.541C88.0563 135.067 87.6422 135.497 87.1404 135.497C86.6308 135.497 86.2246 135.067 86.2246 134.541C86.2246 134.016 86.6387 133.586 87.1404 133.586C87.6501 133.586 88.0563 134.016 88.0563 134.541Z" fill="#263238"/>
<path d="M87.0842 131.071L85.1172 132.153C84.8305 131.588 85.0296 130.888 85.5711 130.593C86.1126 130.29 86.7896 130.505 87.0763 131.071H87.0842Z" fill="#263238"/>
<path d="M88.7412 140.878L90.8356 141.666C90.6286 142.263 89.9915 142.582 89.4101 142.359C88.8288 142.144 88.5262 141.475 88.7412 140.878Z" fill="#F28F8F"/>
<path d="M96.2508 131.835L94.459 130.458C94.8253 129.948 95.5182 129.837 96.0199 130.219C96.5136 130.601 96.6172 131.325 96.2508 131.835Z" fill="#263238"/>
<path d="M95.693 134.279C95.693 134.804 95.2789 135.234 94.7772 135.226C94.2675 135.226 93.8613 134.796 93.8613 134.271C93.8613 133.745 94.2754 133.315 94.7772 133.323C95.2868 133.323 95.693 133.753 95.693 134.279Z" fill="#263238"/>
<path d="M91.0186 133.411L91.3212 138.928L94.2041 137.949L91.0186 133.411Z" fill="#F28F8F"/>
<path d="M76.7233 277.855V277.012C77.2888 277.258 78.5948 282.242 80.9282 284.375C82.7838 286.063 85.3163 288.021 85.9613 289.908C86.6303 291.866 82.4334 292.949 80.7052 292.646C78.6904 292.288 75.2023 290.871 74.3263 289.557C73.4502 288.244 73.0361 286.301 72.3273 285.338C71.6186 284.375 69.9701 283.3 69.5878 282.186C69.3728 281.573 69.6276 280.236 69.9223 279.097C70.1931 278.054 70.4877 276.916 70.8461 277.012C70.8461 277.139 70.8461 277.656 70.8461 277.656C71.2761 278.126 72.4548 278.596 73.7847 278.651C74.6448 278.683 76.7313 278.516 76.7233 277.855Z" fill="#263238"/>
<path d="M97.1823 268.542C97.4849 268.549 97.7397 268.979 98.4087 269.712C99.221 270.595 100.551 271.543 101.865 272.203C104.071 273.302 108.347 274.998 110.291 275.873C111.501 276.414 111.445 277.879 110.195 278.715C108.945 279.551 105.919 280.148 102.295 279.336C100.32 278.89 97.7477 277.067 96.1151 277.171C94.4905 277.266 91.4404 277.242 90.2378 276.415C89.0353 275.587 89.5131 273.819 89.8556 272.299C90.2299 270.643 90.6918 268.056 91.2413 268.167V268.741C91.9501 269.807 95.5975 270.245 97.1504 269.457L97.1823 268.549V268.542Z" fill="#263238"/>
<path d="M85.8654 205.924C85.8654 205.924 90.564 204.602 94.0521 201.227C94.0521 201.227 92.4753 204.188 87.7687 206.935L88.7722 227.68L85.8574 205.916L85.8654 205.924Z" fill="#263238"/>
<path d="M93.2003 228.197L92.6429 227.879C91.7589 227.369 91.0342 226.12 91.0342 225.101V167.944C91.0342 166.917 91.7509 165.675 92.6429 165.166L142.162 136.587C143.046 136.078 144.487 136.078 145.371 136.587L145.928 136.906C146.812 137.415 147.537 138.665 147.537 139.684V196.841C147.537 197.868 146.82 199.109 145.928 199.619L96.4097 228.197C95.5257 228.707 94.0843 228.707 93.2003 228.197Z" fill="#F5F5F5"/>
<path d="M120.238 159.896C128.822 154.944 135.775 158.956 135.775 168.859C135.775 178.762 128.815 190.807 120.238 195.758C111.653 200.71 104.7 196.697 104.7 186.795C104.7 176.892 111.661 164.847 120.238 159.896Z" fill="#FFD59A"/>
<path d="M120.126 167.689C122.913 166.081 125.167 167.387 125.167 170.595C125.167 173.803 122.913 177.719 120.126 179.32C117.339 180.928 115.085 179.622 115.085 176.414C115.085 173.206 117.339 169.289 120.126 167.689Z" fill="white"/>
<path d="M130.065 184.82C130.065 179.542 126.354 177.401 121.783 180.044L118.924 181.692C114.353 184.335 110.642 190.751 110.642 196.029V197.446C113.286 198.321 116.614 197.844 120.238 195.758C123.965 193.609 127.389 190.114 130.065 186.046V184.82Z" fill="white"/>
<path d="M147.521 139.429C147.409 138.593 146.741 138.291 145.928 138.761L96.4094 167.347C95.9635 167.602 95.5653 168.047 95.2706 168.541L91.5117 166.376C91.7984 165.874 92.2046 165.436 92.6505 165.174L142.161 136.595C143.053 136.086 144.495 136.086 145.371 136.595L145.928 136.914C146.733 137.383 147.417 138.466 147.521 139.437V139.429Z" fill="#FAFAFA"/>
<path d="M96.139 228.325C95.255 228.707 94.0047 228.659 93.2003 228.197L92.6349 227.879C91.7509 227.369 91.0342 226.12 91.0342 225.093V167.944C91.0342 167.434 91.2094 166.861 91.504 166.36L95.2629 168.525C94.9763 169.027 94.7931 169.6 94.7931 170.109V227.274C94.7931 228.189 95.3744 228.619 96.131 228.325H96.139Z" fill="#E0E0E0"/>
<path d="M103.155 213.948V213.98C103.155 215.604 104.294 216.265 105.704 215.453L134.771 198.68C136.181 197.868 137.32 195.893 137.32 194.269V194.238C137.32 192.614 136.181 191.953 134.771 192.765L105.704 209.538C104.294 210.35 103.155 212.324 103.155 213.948Z" fill="#FFD59A"/>
<path d="M63.7904 186.078C60.7721 183.984 60.8119 180.856 61.7755 177.29C68.3456 153.01 70.3525 152.883 73.2274 151.657L75.529 161.209L69.3889 181.103C73.984 184.367 78.7145 186.58 83.1264 187.543C83.9069 187.71 85.4917 187.614 86.1925 187.224C88.064 186.174 89.1231 186.174 91.0344 185.656V188.785C91.0344 188.785 93.2643 189.159 96.187 188.61C100.153 187.869 101.897 188.689 99.4681 193.235C97.947 196.077 94.9924 197.016 87.5861 195.742C85.4518 195.376 82.2106 194.548 79.6144 193.664C72.8452 191.372 67.0635 188.347 63.7983 186.078H63.7904Z" fill="#FFA8A7"/>
<path d="M73.2279 151.657C73.2279 151.657 76.055 153.432 76.6603 157.882C77.2655 162.332 72.981 174.44 72.981 174.44C72.981 174.44 66.0605 173.779 63.1855 170.372C63.1855 170.372 67.1834 159.307 67.9399 156.807C69.1345 152.835 72.1368 152.063 73.2279 151.665V151.657Z" fill="#F9E3C4"/>
<path opacity="0.1" d="M73.0423 152C73.0423 152 75.8695 153.775 76.4747 158.225C77.08 162.675 72.7954 174.783 72.7954 174.783C72.7954 174.783 65.8749 174.122 63 170.715C63 170.715 66.9978 159.65 67.7544 157.15C68.9489 153.178 71.9513 152.406 73.0423 152.008V152Z" fill="#FDE7C7"/>
<path d="M147.538 153.217V156.751C147.538 156.751 145.619 159.665 143.572 160.732C141.517 161.798 141.533 166.097 144.089 166.702C146.654 167.307 150.158 164.155 150.46 162.419C150.755 160.684 150.11 153.034 147.538 153.217Z" fill="#FFA8A7"/>
</g>
<defs>
<clipPath id="clip0_208_1338">
<rect width="350" height="328.19" fill="white"/>
</clipPath>
</defs>
</svg>
