<svg width="289" height="280" viewBox="0 0 289 280" fill="none" xmlns="http://www.w3.org/2000/svg">
<g clip-path="url(#clip0_208_1818)">
<path d="M219.363 205.279C216.05 203.201 212.258 201.897 208.372 201.494C206.577 201.311 204.612 201.361 203.175 202.451C202.867 202.684 202.571 203.024 202.64 203.402C202.69 203.679 202.923 203.881 203.15 204.051C207.622 207.465 214.387 207.893 219.369 205.279" fill="#E0E0E0"/>
<path d="M219.08 204.964C216.592 203.024 214.091 201.065 211.981 198.716C209.871 196.367 208.158 193.576 207.528 190.484C207.339 189.545 207.276 188.474 207.881 187.731C213.537 192.153 217.984 197.866 219.08 204.964Z" fill="#E0E0E0"/>
<path d="M219.306 205.235C218.877 202.142 218.726 198.955 219.438 195.913C220.15 192.871 221.806 189.961 224.401 188.222C225.378 190.509 224.962 193.142 224.269 195.529C223.205 199.22 221.535 202.735 219.344 205.896" fill="#E0E0E0"/>
<path d="M224.849 215.174C221.479 215.584 218.55 217.36 216.037 219.634C213.524 221.908 211.735 224.981 210.998 228.288C214.299 228.087 217.101 225.756 219.136 223.142C221.17 220.528 222.575 217.662 224.811 215.225" fill="#E0E0E0"/>
<path d="M226.052 216.762C223.338 210.079 224.32 202.029 228.565 196.196C230.487 203.018 229.781 210.727 226.052 216.762Z" fill="#E0E0E0"/>
<path d="M233.384 225.492C230.329 225.303 227.223 226.027 224.565 227.557C221.914 229.088 219.722 231.406 218.349 234.146C218.16 234.517 217.996 234.99 218.248 235.324C218.462 235.613 218.884 235.639 219.243 235.62C222.203 235.431 224.83 233.648 226.997 231.614C229.163 229.586 231.053 227.243 233.446 225.485" fill="#E0E0E0"/>
<path d="M233.151 225.013C231.576 219.968 231.475 214.475 232.873 209.373C233.421 207.358 234.347 205.241 236.212 204.297C236.369 204.215 236.558 204.145 236.722 204.208C236.879 204.265 236.974 204.429 237.043 204.58C237.704 205.966 237.9 207.534 237.83 209.065C237.761 210.595 237.446 212.107 237.125 213.606C236.539 216.384 236.224 219.363 234.706 221.756C234.347 222.323 234.026 222.941 233.736 223.545C233.447 224.156 233.447 224.37 233.182 224.849" fill="#E0E0E0"/>
<path d="M252.55 227.904C251.114 222.437 252.638 215.81 256.084 211.326C256.336 210.998 256.676 210.639 257.085 210.683C257.721 210.74 257.885 211.59 257.854 212.227C257.602 217.813 255.744 223.318 252.544 227.91" fill="#E0E0E0"/>
<path d="M254.302 229.101C260.947 230.826 268.568 229.151 274.092 225.076C270.817 223.419 266.956 222.941 263.378 223.759C259.8 224.578 256.531 226.178 254.302 229.101Z" fill="#E0E0E0"/>
<path d="M255.775 225.46C259.497 219.394 266.627 215.433 273.732 215.074C272.913 217.965 270.539 220.213 267.856 221.567C265.172 222.922 262.187 223.514 259.233 224.087C258.086 224.307 256.512 224.553 255.769 225.454" fill="#E0E0E0"/>
<path d="M252.922 207.799C253.929 204.347 254.944 200.864 255.221 197.28C255.498 193.696 254.988 189.955 253.123 186.875C249.646 193.601 249.294 201.456 252.815 208.158" fill="#E0E0E0"/>
<path d="M264.625 201.884C268.688 194.496 276.983 188.6 285.373 187.769C282.135 195.825 273.311 202.054 264.625 201.884Z" fill="#E0E0E0"/>
<path d="M262.067 203.333C268.127 204.259 273.292 208.126 278.954 210.476C280.163 210.979 281.474 211.376 282.771 211.206C284.069 211.036 285.353 210.161 285.643 208.888C285.883 207.824 285.404 206.703 284.642 205.922C283.88 205.147 282.872 204.656 281.87 204.24C275.704 201.67 269.084 201.607 262.59 203.163" fill="#E0E0E0"/>
<path d="M258.559 207.578C259.932 207.969 260.398 208.68 261.488 209.606C265.173 212.743 269.594 215.017 274.293 216.182C274.784 216.302 275.427 216.352 275.666 215.911C275.88 215.527 275.609 215.055 275.332 214.715C273.361 212.252 270.558 210.564 267.598 209.468C264.644 208.366 262.08 207.043 258.553 207.326" fill="#E0E0E0"/>
<path d="M254.598 181.905C259.523 186.503 266.471 188.865 273.179 188.229C273.481 188.197 273.815 188.153 274.023 187.926C274.489 187.416 273.928 186.635 273.387 186.207C267.926 181.949 261.306 180.179 254.598 181.905Z" fill="#E0E0E0"/>
<path d="M259.29 180.192C265.803 175.31 274.741 173.836 282.475 176.368C279.553 179.247 275.503 180.796 271.428 181.218C267.352 181.64 263.264 181.193 259.29 180.192Z" fill="#E0E0E0"/>
<path d="M257.426 168.394C256.89 162.94 257.237 158.638 256.859 153.158C256.827 152.723 256.733 152.194 256.324 152.037C255.75 151.816 255.278 152.515 255.089 153.101C253.464 158.153 254.352 163.941 257.413 168.275" fill="#E0E0E0"/>
<path d="M257.035 168.993C260.732 166.706 263.504 163.721 266.067 160.212C267.85 157.768 269.355 154.846 268.952 151.848C266.445 151.797 264.064 153.177 262.439 155.085C260.808 156.987 259.838 159.368 259.12 161.768C258.396 164.168 257.892 166.631 257.041 168.993" fill="#E0E0E0"/>
<path d="M265.91 166.53C274.022 163.532 281.587 159.066 288.138 153.422C285.48 152.352 282.444 152.994 279.786 154.065C273.72 156.515 268.763 160.647 265.79 166.473" fill="#E0E0E0"/>
<path d="M259.529 171.978C263.629 172.425 267.799 172.721 271.874 172.041C275.874 171.374 279.659 169.786 283.394 168.212C283.703 168.079 284.043 167.922 284.175 167.62C284.32 167.286 284.163 166.876 283.892 166.631C283.621 166.385 283.262 166.272 282.909 166.171C278.847 165.031 274.457 165.566 270.457 166.914C266.457 168.262 263.176 169.868 259.522 171.978" fill="#E0E0E0"/>
<path d="M236.099 182.094C233.302 176.444 233.478 169.849 235.897 164.023C237.598 166.618 237.805 169.919 237.497 173.005C237.188 176.091 236.243 179.272 236.187 182.371" fill="#E0E0E0"/>
<path d="M224.911 176.45C217.92 176.318 210.928 179.297 206.186 184.431C209.675 184.979 213.265 184.078 216.44 182.528C219.614 180.979 222.436 178.806 225.226 176.645" fill="#E0E0E0"/>
<path d="M217.398 173.937C213.977 173.66 210.69 173.238 207.402 174.246C204.114 175.254 201.122 177.54 199.78 180.708C202.98 181.067 206.224 180.267 209.153 178.938C212.082 177.609 214.752 175.77 217.398 173.937Z" fill="#E0E0E0"/>
<path d="M228.527 174.05C225.453 172.035 222.291 169.982 218.708 169.15C215.124 168.312 210.973 168.93 208.479 171.632C211.376 173.332 214.897 173.534 218.26 173.534C221.624 173.534 225.743 173.496 228.911 174.617" fill="#E0E0E0"/>
<path d="M228.546 174.214C223.287 169.049 221.296 159.771 223.406 152.711C227.538 158.99 229.39 166.744 228.546 174.214Z" fill="#E0E0E0"/>
<path d="M243.008 159.582C243.997 157.277 244.696 154.858 245.584 152.509C246.472 150.16 247.581 147.854 249.262 145.99C250.944 144.126 253.268 142.74 255.775 142.614C254.207 149.719 249.489 156.068 243.134 159.62" fill="#E0E0E0"/>
<path d="M240.394 162.631C238.75 160.37 236.854 157.302 234.631 155.621C232.407 153.933 229.504 152.912 226.789 153.561C229.554 158.499 234.769 161.982 240.394 162.631Z" fill="#E0E0E0"/>
<path d="M240.917 159.771C239.84 157.038 238.757 154.273 238.322 151.369C237.887 148.465 238.152 145.36 239.638 142.828C242.523 148.283 243.455 154.14 241.062 159.834" fill="#E0E0E0"/>
<path d="M243.033 142.828C244.671 137.418 249.622 133.437 254.969 131.61C255.643 131.377 256.355 131.188 257.06 131.295C257.766 131.402 258.452 131.887 258.603 132.58C258.799 133.5 258.037 134.325 257.325 134.936C253.161 138.495 248.267 141.197 243.033 142.828Z" fill="#E0E0E0"/>
<path d="M243.097 138.4C243.304 134.911 243.525 131.371 244.659 128.07C245.792 124.764 247.978 121.665 251.159 120.216C251.7 123.737 250.145 127.245 248.274 130.275C246.397 133.305 244.142 136.17 243.015 139.546" fill="#E0E0E0"/>
<path d="M243.008 140.8C241.654 136.857 241.515 131.85 239.153 128.417C237.503 126.017 234.857 124.379 233.44 121.835C232.495 124.209 232.785 126.949 233.774 129.305C234.763 131.661 236.394 133.689 238.139 135.559C239.884 137.424 241.383 138.828 243.008 140.8Z" fill="#E0E0E0"/>
<path d="M243.033 256.909C242.926 256.909 242.838 230.606 242.831 198.174C242.825 165.73 242.901 139.433 243.008 139.433C243.115 139.433 243.203 165.73 243.209 198.174C243.216 230.612 243.14 256.909 243.033 256.909Z" fill="#E0E0E0"/>
<path d="M266.016 178.126C266.016 178.126 265.67 178.283 265.028 178.497C264.316 178.737 263.403 179.045 262.307 179.417C260.014 180.198 256.858 181.332 253.438 182.73C250.049 184.185 246.856 185.363 245.036 186.938C244.129 187.719 243.606 188.556 243.348 189.174C243.089 189.791 243.039 190.169 243.008 190.162C242.995 190.162 243.001 190.068 243.02 189.885C243.052 189.709 243.096 189.444 243.215 189.117C243.436 188.468 243.946 187.567 244.866 186.736C245.779 185.905 247.051 185.155 248.513 184.468C249.968 183.788 251.586 183.076 253.306 182.371C256.739 180.966 259.913 179.87 262.237 179.152C263.396 178.793 264.341 178.523 265.002 178.346C265.657 178.176 266.029 178.094 266.035 178.119L266.016 178.126Z" fill="#E0E0E0"/>
<path d="M273.55 159.62C273.55 159.62 273.461 159.734 273.272 159.916C273.046 160.124 272.769 160.389 272.428 160.71C271.647 161.422 270.577 162.392 269.279 163.57C266.558 165.995 262.867 169.276 258.792 172.904C254.698 176.545 251.158 180.028 248.708 182.648C247.479 183.958 246.516 185.042 245.854 185.797C245.546 186.15 245.294 186.434 245.092 186.667C244.916 186.862 244.815 186.963 244.809 186.956C244.796 186.95 244.878 186.83 245.036 186.623C245.193 186.408 245.426 186.093 245.741 185.703C246.365 184.916 247.303 183.801 248.512 182.465C250.919 179.789 254.44 176.268 258.54 172.614C262.647 168.98 266.388 165.711 269.103 163.362C270.438 162.215 271.528 161.277 272.334 160.59C272.693 160.294 272.989 160.049 273.222 159.853C273.43 159.69 273.543 159.608 273.55 159.614V159.62Z" fill="#E0E0E0"/>
<path d="M254.377 176.614C254.27 176.564 255.127 174.592 255.977 172.098C256.84 169.604 257.243 167.494 257.35 167.512C257.451 167.525 257.205 169.692 256.336 172.218C255.908 173.477 255.435 174.592 255.064 175.379C254.692 176.167 254.421 176.639 254.377 176.614Z" fill="#E0E0E0"/>
<path d="M243.058 192.531C243.058 192.531 242.812 192.285 242.428 191.8C242 191.252 241.458 190.559 240.809 189.728C239.449 187.97 237.578 185.552 235.474 182.9C233.37 180.248 231.437 177.874 230.039 176.154C229.377 175.335 228.823 174.649 228.388 174.107C228.004 173.622 227.796 173.345 227.821 173.326C227.84 173.307 228.086 173.553 228.502 174.013C228.924 174.466 229.522 175.14 230.246 175.978C231.701 177.653 233.667 180.009 235.777 182.661C237.88 185.312 239.726 187.763 241.03 189.564C241.678 190.465 242.201 191.195 242.548 191.712C242.9 192.228 243.083 192.518 243.058 192.531Z" fill="#E0E0E0"/>
<path d="M238.019 186.062C237.956 186.131 236.615 184.531 235.909 182.106C235.387 180.399 235.368 178.837 235.431 178.119L235.601 178.132C235.525 178.434 235.468 178.598 235.443 178.592C235.412 178.592 235.412 178.415 235.437 178.107L235.607 178.119C235.67 178.825 235.777 180.337 236.281 181.993C236.961 184.342 238.133 185.986 238.026 186.056L238.019 186.062Z" fill="#E0E0E0"/>
<path d="M231.513 177.88C231.463 177.93 231.034 177.389 230.039 177.023C229.056 176.645 227.57 176.557 225.945 176.696C224.32 176.816 222.865 177.105 221.826 177.364C220.786 177.622 220.15 177.823 220.131 177.773C220.112 177.729 220.717 177.433 221.756 177.105C222.789 176.778 224.263 176.444 225.92 176.318C227.564 176.173 229.126 176.305 230.14 176.771C231.173 177.231 231.544 177.867 231.513 177.874V177.88Z" fill="#E0E0E0"/>
<path d="M229.969 175.896C229.938 175.953 229.113 175.55 227.708 175.071C226.31 174.592 224.32 174.088 222.071 173.912C219.822 173.742 217.782 173.943 216.327 174.202C214.872 174.46 213.99 174.737 213.971 174.674C213.965 174.649 214.179 174.561 214.569 174.416C214.96 174.271 215.546 174.101 216.276 173.937C217.737 173.603 219.816 173.358 222.102 173.528C224.389 173.704 226.411 174.265 227.803 174.813C228.502 175.09 229.05 175.342 229.415 175.543C229.78 175.745 229.982 175.864 229.969 175.883V175.896Z" fill="#E0E0E0"/>
<path d="M243.008 167.506C242.907 167.531 242.171 164.968 241.364 161.787C240.558 158.6 239.985 155.999 240.086 155.973C240.186 155.948 240.923 158.505 241.73 161.693C242.536 164.88 243.109 167.481 243.008 167.506Z" fill="#E0E0E0"/>
<path d="M243.115 167.506C243.002 167.544 242.529 165.831 241.288 164.08C240.085 162.291 238.548 161.396 238.599 161.308C238.618 161.271 239.046 161.422 239.638 161.844C240.23 162.259 240.967 162.959 241.597 163.866C242.882 165.686 243.203 167.5 243.109 167.506H243.115Z" fill="#E0E0E0"/>
<path d="M243.033 242.888C242.989 242.888 242.914 242.258 242.618 241.137C242.322 240.022 241.774 238.435 240.86 236.583C239.046 232.867 235.739 228.162 231.538 223.444C229.453 221.064 227.438 218.821 225.725 216.673C224.005 214.526 222.594 212.485 221.567 210.677C220.535 208.869 219.861 207.32 219.47 206.224C219.275 205.676 219.136 205.248 219.061 204.952C218.979 204.656 218.941 204.498 218.954 204.498C218.985 204.486 219.18 205.103 219.615 206.174C220.05 207.244 220.755 208.769 221.807 210.545C222.859 212.321 224.282 214.337 226.008 216.459C227.728 218.588 229.749 220.818 231.841 223.199C236.054 227.929 239.355 232.697 241.118 236.47C242.007 238.353 242.529 239.966 242.775 241.106C242.895 241.673 242.977 242.12 243.008 242.422C243.046 242.725 243.058 242.888 243.046 242.888H243.033Z" fill="#E0E0E0"/>
<path d="M263.806 219.426C263.806 219.426 263.421 219.653 262.716 220.037C262.017 220.427 261.028 221.032 259.894 221.901C258.76 222.77 257.488 223.911 256.184 225.284C254.88 226.657 253.545 228.257 252.172 229.964C249.438 233.396 246.881 236.432 245.344 238.857C244.57 240.06 244.003 241.074 243.631 241.786C243.259 242.498 243.058 242.895 243.033 242.882C243.02 242.882 243.058 242.769 243.133 242.573C243.215 242.378 243.322 242.082 243.499 241.723C243.833 240.986 244.362 239.947 245.118 238.719C246.604 236.237 249.142 233.157 251.876 229.73C253.249 228.017 254.603 226.417 255.932 225.044C257.261 223.671 258.565 222.537 259.73 221.687C260.902 220.837 261.922 220.257 262.647 219.905C263.006 219.722 263.302 219.615 263.497 219.527C263.692 219.445 263.799 219.413 263.806 219.426Z" fill="#E0E0E0"/>
<path d="M264.209 227.041C264.209 227.098 263.333 227.205 261.91 227.375C260.493 227.557 258.521 227.797 256.455 228.452C254.395 229.12 252.682 230.146 251.567 231.015C250.44 231.885 249.911 232.603 249.86 232.565C249.842 232.552 249.955 232.357 250.201 232.036C250.446 231.715 250.849 231.28 251.397 230.808C252.493 229.863 254.225 228.779 256.335 228.093C258.452 227.425 260.455 227.23 261.885 227.11C263.321 227.003 264.209 226.997 264.215 227.041H264.209Z" fill="#E0E0E0"/>
<path d="M250.528 231.721C250.408 231.652 251.448 230.071 252.248 227.942C253.003 225.794 253.18 223.904 253.312 223.929C253.362 223.929 253.356 224.408 253.274 225.164C253.186 225.92 253.003 226.965 252.6 228.074C252.197 229.176 251.668 230.102 251.265 230.738C250.856 231.381 250.566 231.752 250.522 231.721H250.528Z" fill="#E0E0E0"/>
<path d="M270.527 198.999C270.527 198.999 270.407 199.081 270.162 199.195C269.878 199.327 269.519 199.484 269.078 199.686C268.606 199.887 268.033 200.146 267.384 200.486C266.735 200.82 265.973 201.166 265.186 201.639C264.782 201.865 264.367 202.105 263.932 202.35C263.498 202.602 263.069 202.898 262.609 203.182C261.684 203.742 260.758 204.435 259.769 205.141C257.835 206.608 255.794 208.347 253.835 210.356C251.895 212.384 250.226 214.475 248.822 216.466C248.148 217.48 247.493 218.431 246.964 219.376C246.693 219.842 246.409 220.283 246.176 220.73C245.943 221.171 245.723 221.599 245.509 222.008C245.061 222.815 244.74 223.583 244.432 224.244C244.11 224.906 243.877 225.485 243.688 225.964C243.506 226.411 243.355 226.77 243.235 227.06C243.128 227.312 243.065 227.438 243.052 227.431C243.04 227.431 243.077 227.287 243.166 227.028C243.266 226.732 243.399 226.361 243.556 225.901C243.72 225.41 243.94 224.818 244.243 224.15C244.539 223.476 244.841 222.695 245.276 221.876C245.483 221.46 245.704 221.026 245.931 220.579C246.157 220.131 246.441 219.684 246.705 219.205C247.228 218.248 247.883 217.284 248.551 216.258C249.949 214.248 251.625 212.126 253.577 210.085C255.555 208.063 257.615 206.318 259.574 204.851C260.575 204.145 261.513 203.459 262.452 202.911C262.918 202.627 263.353 202.338 263.794 202.092C264.235 201.853 264.663 201.62 265.066 201.393C265.866 200.933 266.641 200.599 267.302 200.284C267.963 199.957 268.549 199.724 269.034 199.541C269.481 199.371 269.853 199.226 270.143 199.113C270.401 199.018 270.533 198.974 270.539 198.987L270.527 198.999Z" fill="#E0E0E0"/>
<path d="M254.093 210.009C254.062 210.009 254.244 209.367 254.994 208.662C255.731 207.962 257.072 207.314 258.635 207.263C260.19 207.219 261.544 207.66 262.464 208.013C263.39 208.378 263.932 208.674 263.913 208.718C263.894 208.769 263.314 208.561 262.376 208.271C261.444 207.988 260.121 207.61 258.647 207.647C257.173 207.692 255.907 208.258 255.17 208.869C254.414 209.474 254.15 210.047 254.093 210.009Z" fill="#E0E0E0"/>
<path d="M251.637 212.548C251.53 212.491 252.463 211.131 252.67 209.184C252.916 207.238 252.324 205.707 252.437 205.67C252.481 205.651 252.683 206.01 252.866 206.652C253.048 207.288 253.162 208.214 253.048 209.228C252.929 210.242 252.601 211.118 252.28 211.691C251.959 212.271 251.675 212.573 251.637 212.548Z" fill="#E0E0E0"/>
<path d="M224.868 246.655C225.435 256.708 228.465 266.93 233.119 277.26H253.376C257.816 267.025 260.638 256.821 261.142 246.655H224.868Z" fill="#E0E0E0"/>
<path d="M257.86 262.918C257.86 263.025 251.19 263.107 242.964 263.107C234.738 263.107 228.067 263.019 228.067 262.918C228.067 262.817 234.738 262.729 242.964 262.729C251.19 262.729 257.86 262.817 257.86 262.918Z" fill="#FAFAFA"/>
<path d="M257.413 266.559C257.413 266.666 251.158 266.748 243.448 266.748C235.739 266.748 229.484 266.659 229.484 266.559C229.484 266.458 235.739 266.37 243.448 266.37C251.158 266.37 257.413 266.458 257.413 266.559Z" fill="#FAFAFA"/>
<path d="M233.453 253.256C233.56 253.256 233.642 255.347 233.642 257.923C233.642 260.499 233.553 262.591 233.453 262.591C233.352 262.591 233.264 260.499 233.264 257.923C233.264 255.347 233.352 253.256 233.453 253.256Z" fill="#FAFAFA"/>
<path d="M244.305 253.256C244.412 253.256 244.494 255.423 244.494 258.087C244.494 260.751 244.412 262.918 244.305 262.918C244.198 262.918 244.116 260.758 244.116 258.087C244.116 255.416 244.204 253.256 244.305 253.256Z" fill="#FAFAFA"/>
<path d="M254.497 253.174C254.604 253.174 254.686 255.379 254.686 258.1C254.686 260.821 254.597 263.031 254.497 263.031C254.396 263.031 254.308 260.827 254.308 258.1C254.308 255.372 254.396 253.174 254.497 253.174Z" fill="#FAFAFA"/>
<path d="M260.505 253.256C260.505 253.363 252.683 253.445 243.033 253.445C233.383 253.445 225.561 253.357 225.561 253.256C225.561 253.155 233.383 253.067 243.033 253.067C252.683 253.067 260.505 253.155 260.505 253.256Z" fill="#FAFAFA"/>
<path d="M271.523 0.0125732H222.985V50.6096H271.523V0.0125732Z" fill="#E0E0E0"/>
<path d="M268.235 0.0125732H219.697V50.6096H268.235V0.0125732Z" fill="#FAFAFA"/>
<path d="M268.253 50.6285H219.685V0H268.253V50.6285ZM219.716 50.597H268.228V0.0314932H219.716V50.597Z" fill="#E0E0E0"/>
<path d="M261.716 6.81512H226.223V43.8071H261.716V6.81512Z" fill="white"/>
<path d="M226.222 44.059C226.247 44.0905 225.914 44.481 225.347 45.0794C224.78 45.6778 223.986 46.484 223.092 47.3658C222.197 48.2476 221.379 49.0287 220.774 49.5829C220.169 50.1372 219.779 50.4711 219.747 50.4396C219.716 50.4081 220.05 50.0238 220.616 49.4255C221.183 48.8271 221.983 48.0146 222.878 47.1328C223.772 46.251 224.597 45.4636 225.202 44.9093C225.806 44.3551 226.197 44.0275 226.222 44.059Z" fill="#E0E0E0"/>
<path d="M261.709 43.9646C261.741 43.9394 262.131 44.2732 262.729 44.8401C263.328 45.4069 264.134 46.2006 265.016 47.095C265.898 47.9894 266.679 48.8082 267.233 49.4129C267.787 50.0176 268.121 50.4081 268.09 50.4396C268.058 50.4711 267.674 50.1372 267.076 49.5703C266.477 49.0035 265.665 48.2035 264.783 47.3091C263.901 46.4147 263.114 45.5896 262.559 44.9849C262.005 44.3803 261.678 43.9898 261.709 43.9646Z" fill="#E0E0E0"/>
<path d="M261.615 6.9159C261.589 6.88441 261.923 6.49389 262.49 5.89552C263.057 5.29715 263.851 4.49092 264.745 3.60911C265.639 2.7273 266.458 1.94627 267.063 1.39199C267.668 0.837708 268.058 0.50388 268.09 0.535373C268.121 0.566866 267.787 0.951084 267.22 1.54946C266.654 2.14783 265.854 2.96035 264.959 3.84216C264.065 4.72397 263.24 5.5113 262.635 6.06558C262.03 6.61986 261.64 6.94739 261.615 6.9159Z" fill="#E0E0E0"/>
<path d="M226.128 7.00409C226.096 7.02929 225.706 6.69546 225.107 6.12858C224.509 5.5617 223.703 4.76807 222.821 3.87367C221.939 2.97926 221.158 2.16043 220.604 1.55576C220.049 0.951095 219.716 0.560579 219.747 0.529085C219.779 0.497592 220.163 0.831421 220.761 1.3983C221.36 1.96518 222.172 2.7651 223.054 3.65951C223.936 4.55392 224.723 5.37904 225.277 5.98371C225.832 6.58838 226.159 6.9789 226.128 7.00409Z" fill="#E0E0E0"/>
<path d="M261.615 43.8134C261.615 43.8134 261.615 43.7504 261.609 43.6307C261.609 43.5047 261.609 43.3347 261.602 43.1142C261.602 42.6481 261.596 41.9805 261.583 41.1175C261.577 39.3665 261.565 36.8156 261.546 33.5781C261.527 27.0968 261.508 17.8692 261.476 6.81512L261.615 6.95369C251.285 6.95369 239.148 6.96629 226.223 6.97259L226.38 6.81512C226.374 20.395 226.361 33.0994 226.355 43.8071L226.223 43.6748C236.83 43.7063 245.661 43.7252 251.852 43.7441C254.945 43.7567 257.376 43.7693 259.051 43.7819C259.877 43.7882 260.513 43.7945 260.954 43.7945C261.161 43.7945 261.325 43.7945 261.445 43.8008C261.558 43.8008 261.615 43.8008 261.615 43.8071C261.615 43.8071 261.565 43.8071 261.458 43.8134C261.338 43.8134 261.18 43.8134 260.979 43.8197C260.544 43.8197 259.914 43.826 259.102 43.8323C257.439 43.8386 255.014 43.8512 251.934 43.8701C245.724 43.889 236.861 43.9078 226.223 43.9393H226.091V43.8071C226.084 33.0931 226.078 20.3887 226.065 6.81512V6.65765H226.229C239.154 6.66395 251.285 6.67025 261.621 6.67655H261.76V6.81512C261.728 17.9007 261.709 27.166 261.691 33.6662C261.678 36.8912 261.665 39.4295 261.653 41.1742C261.646 42.0308 261.64 42.6859 261.634 43.1457C261.634 43.3599 261.634 43.5236 261.628 43.6496C261.628 43.763 261.628 43.8197 261.621 43.8134H261.615Z" fill="#E0E0E0"/>
<path d="M249.886 19.3936H238.045V31.235H249.886V19.3936Z" fill="#EBEBEB"/>
<path d="M60.0199 79.955H4.5918V160.301H60.0199V79.955Z" fill="#E0E0E0"/>
<path d="M57.2484 79.955H1.82031V160.301H57.2484V79.955Z" fill="#F5F5F5"/>
<path d="M50.357 88.6597H8.7041V151.596H50.357V88.6597Z" fill="white"/>
<path d="M50.3573 151.596C50.3573 151.596 50.3573 151.489 50.351 151.287C50.351 151.079 50.351 150.783 50.3447 150.393C50.3447 149.599 50.3384 148.446 50.3258 146.941C50.3195 143.924 50.3069 139.528 50.288 133.979C50.2691 122.88 50.2502 107.165 50.2187 88.6597L50.3573 88.7983C37.6277 88.7983 23.5314 88.8046 8.70434 88.8109L8.85551 88.6597C8.84291 112.406 8.83031 134.293 8.82402 151.596L8.70434 151.476C21.3898 151.501 31.7889 151.527 39.026 151.539C42.6477 151.552 45.4695 151.564 47.4032 151.571C48.3606 151.571 49.0976 151.583 49.6015 151.583C50.099 151.583 50.3636 151.596 50.3636 151.596C50.3636 151.596 50.1179 151.602 49.6266 151.608C49.1291 151.608 48.3984 151.615 47.4473 151.621C45.5199 151.627 42.7044 151.64 39.0953 151.653C31.8393 151.665 21.415 151.69 8.69804 151.715H8.57837V151.596C8.57207 134.293 8.55947 112.399 8.54688 88.6597V88.5086H8.70434C23.5251 88.5086 37.6277 88.5149 50.3573 88.5212H50.4959V88.6597C50.4707 107.203 50.4455 122.95 50.4266 134.073C50.4077 139.609 50.3951 144 50.3888 147.004C50.3825 148.497 50.3762 149.643 50.3699 150.431C50.3699 150.815 50.3699 151.105 50.3636 151.306C50.3636 151.501 50.3573 151.596 50.3573 151.596Z" fill="#E0E0E0"/>
<path d="M57.3995 79.955C57.431 79.9802 57.053 80.5282 56.4106 81.3911C55.7681 82.254 54.8548 83.4256 53.8092 84.6916C52.7637 85.9576 51.7937 87.0788 51.0693 87.8787C50.345 88.6786 49.8789 89.151 49.8474 89.1258C49.8159 89.1006 50.2253 88.5716 50.9056 87.7401C51.6488 86.8394 52.5621 85.7309 53.5762 84.5026C54.584 83.2744 55.4973 82.1658 56.2405 81.2651C56.9271 80.44 57.3617 79.9361 57.3932 79.9613L57.3995 79.955Z" fill="#E0E0E0"/>
<path d="M50.5713 151.394C52.6372 154.682 55.0811 157.737 57.8336 160.483L50.5713 151.394Z" fill="white"/>
<path d="M57.8397 160.483C57.8397 160.483 57.3169 160.08 56.5737 159.331C55.8305 158.581 54.8416 157.498 53.8338 156.238C52.826 154.978 51.9883 153.775 51.4214 152.881C50.8545 151.986 50.5459 151.413 50.5774 151.394C50.6152 151.369 50.9868 151.904 51.5978 152.761C52.2087 153.618 53.0654 154.789 54.0668 156.049C55.0683 157.302 56.0257 158.398 56.7249 159.179C57.424 159.967 57.8649 160.445 57.8334 160.477L57.8397 160.483Z" fill="#E0E0E0"/>
<path d="M1.80762 160.238C4.2263 157.252 6.64498 154.266 9.06996 151.281L1.80762 160.238Z" fill="white"/>
<path d="M9.06984 151.275C9.13282 151.325 7.56446 153.372 5.55519 155.847C3.55222 158.323 1.87048 160.282 1.8075 160.231C1.74451 160.181 3.31287 158.134 5.32214 155.658C7.32511 153.183 9.00685 151.224 9.06984 151.275Z" fill="#E0E0E0"/>
<path d="M1.81978 79.955C1.88276 79.9046 3.46372 81.7879 5.34072 84.1688C7.22401 86.5497 8.6916 88.5149 8.62861 88.5716C8.56563 88.622 6.98467 86.7387 5.10137 84.3578C3.21808 81.9769 1.75049 80.0117 1.81348 79.955H1.81978Z" fill="#E0E0E0"/>
<path d="M37.3759 101.44H23.4307V141.039H37.3759V101.44Z" fill="#E0E0E0"/>
<path d="M30.7814 24.4198C19.1793 29.169 13.605 42.4718 18.3542 54.0739L32.4632 88.5337L38.7933 85.9387L24.6844 51.4788C21.365 43.3662 25.2575 34.0694 33.3702 30.75C41.4828 27.4306 50.7796 31.3232 54.099 39.4358L60.4292 36.8408C55.68 25.2387 42.3772 19.6644 30.7751 24.4135L30.7814 24.4198Z" fill="#C19D46"/>
<g opacity="0.3">
<path d="M30.7814 24.4198C19.1793 29.169 13.605 42.4718 18.3542 54.0739L32.4632 88.5337L38.7933 85.9387L24.6844 51.4788C21.365 43.3662 25.2575 34.0694 33.3702 30.75C41.4828 27.4306 50.7796 31.3232 54.099 39.4358L60.4292 36.8408C55.68 25.2387 42.3772 19.6644 30.7751 24.4135L30.7814 24.4198Z" fill="#C19D46"/>
</g>
<path d="M72.2009 54.3641L22.2655 74.8136C20.3951 75.5795 19.4998 77.7166 20.2658 79.587L32.3918 109.197C33.1577 111.068 35.2948 111.963 37.1652 111.197L87.1006 90.7475C88.971 89.9816 89.8663 87.8445 89.1003 85.9741L76.9743 56.3637C76.2084 54.4934 74.0713 53.5981 72.2009 54.3641Z" fill="#F4DEA8"/>
<g opacity="0.5">
<path d="M57.475 76.1002C56.4042 73.48 53.4124 72.2266 50.7921 73.3036C48.1719 74.3744 46.9185 77.3662 47.9955 79.9865C48.8837 82.1532 51.0819 83.3626 53.299 83.1169L56.2027 90.2029L58.7914 89.1447L55.8878 82.0587C57.6388 80.6793 58.3631 78.2733 57.475 76.1065V76.1002Z" fill="black"/>
</g>
<path d="M35.3862 107.889C35.2539 107.94 32.6652 101.918 29.604 94.4356C26.5366 86.9528 24.162 80.8431 24.288 80.7864C24.4203 80.736 27.009 86.7575 30.0701 94.2403C33.1313 101.723 35.5122 107.833 35.3862 107.889Z" fill="#FAFAFA"/>
<path d="M51.5163 85.6364C51.5163 85.6364 51.2644 85.6553 50.8298 85.5482C50.3952 85.4474 49.7842 85.2207 49.0977 84.8049C47.7372 84.005 46.068 82.2351 45.6649 79.7408C45.287 77.2466 46.3326 75.042 47.3781 73.8705C47.9009 73.2658 48.4174 72.8627 48.7953 72.6297C49.1732 72.3966 49.4063 72.3084 49.4189 72.3336C49.4756 72.4155 48.5938 72.8753 47.6553 74.0972C46.7231 75.2751 45.8161 77.3599 46.1625 79.6653C46.5341 81.9643 48.0458 83.6649 49.2929 84.5026C50.5589 85.3718 51.5415 85.5419 51.51 85.6364H51.5163Z" fill="#FAFAFA"/>
<path d="M11.3119 91.8468L11.6205 90.9524L12.2063 91.6894C12.6787 92.2814 13.3086 92.7286 14.0203 92.9743L14.9147 93.2829L14.1778 93.8687C13.5857 94.3411 13.1385 94.971 12.8929 95.6827L12.5842 96.5771L11.9985 95.8402C11.5261 95.2481 10.8962 94.8009 10.1844 94.5552L9.29004 94.2466L10.027 93.6608C10.6191 93.1884 11.0663 92.5586 11.3119 91.8468Z" fill="#F4DEA8"/>
<path d="M41.2057 56.7067L41.3821 56.1902L41.7222 56.6185C41.9931 56.9649 42.3584 57.2232 42.7741 57.3618L43.2906 57.5381L42.8623 57.8783C42.5158 58.1491 42.2576 58.5144 42.119 58.9301L41.9427 59.4466L41.6025 59.0183C41.3317 58.6719 40.9664 58.4136 40.5507 58.2751L40.0342 58.0987L40.4625 57.7586C40.8089 57.4877 41.0672 57.1224 41.2057 56.7067Z" fill="#F4DEA8"/>
<path d="M5.25923 61.0843L5.77572 59.5852L6.75831 60.826C7.54564 61.8212 8.60381 62.5707 9.80685 62.9801L11.3059 63.4966L10.0651 64.4792C9.06991 65.2666 8.32037 66.3247 7.91096 67.5278L7.39447 69.0268L6.41188 67.786C5.62455 66.7908 4.56638 66.0413 3.36334 65.6319L1.86426 65.1154L3.10509 64.1328C4.10028 63.3455 4.84982 62.2873 5.25923 61.0843Z" fill="#F4DEA8"/>
<path d="M178.932 279.666L85.9577 279.609C74.7776 279.609 65.7139 270.533 65.7139 259.353L65.758 26.2591C65.758 15.0727 74.8343 6.00262 86.0207 6.00891L178.995 6.0656C190.175 6.0719 199.239 15.142 199.239 26.322L199.195 259.416C199.195 270.602 190.118 279.672 178.932 279.666Z" fill="#263238"/>
<path d="M178.907 14.3105L160.88 14.2979C158.462 14.2979 156.503 16.345 156.503 18.8708V22.1398C156.503 24.6655 154.544 26.7126 152.125 26.7126L116.985 26.6937C114.566 26.6937 112.607 24.6403 112.607 22.1146V18.8456C112.607 16.3198 110.648 14.2664 108.23 14.2664H101.887L86.109 14.2538C78.2735 14.2538 71.9181 20.5966 71.9181 28.4384L71.874 255.958C71.874 263.794 78.2168 270.143 86.0523 270.149L178.844 270.206C186.679 270.206 193.035 263.863 193.035 256.027L193.079 28.5077C193.079 20.6785 186.736 14.3231 178.901 14.3231L178.907 14.3105Z" fill="white"/>
<path d="M123.862 252.809C123.869 253.791 123.081 254.598 122.099 254.604C121.116 254.61 120.31 253.823 120.304 252.84C120.297 251.858 121.085 251.051 122.067 251.045C123.05 251.039 123.856 251.826 123.862 252.809Z" fill="#263238"/>
<path d="M133.839 252.727C133.845 253.709 133.058 254.516 132.075 254.522C131.093 254.528 130.287 253.741 130.28 252.758C130.274 251.776 131.061 250.97 132.044 250.963C133.027 250.957 133.833 251.744 133.839 252.727Z" fill="#263238"/>
<path d="M143.822 252.639C143.829 253.621 143.041 254.427 142.059 254.434C141.076 254.44 140.27 253.653 140.264 252.67C140.257 251.688 141.045 250.881 142.027 250.875C143.01 250.869 143.816 251.656 143.822 252.639Z" fill="#263238"/>
<path d="M179.448 37.2817C179.448 37.3384 177.105 37.4014 174.214 37.4266C171.323 37.4518 168.98 37.4266 168.974 37.3699C168.974 37.3132 171.317 37.2502 174.208 37.2313C177.099 37.2061 179.442 37.2313 179.442 37.288L179.448 37.2817Z" fill="#263238"/>
<path d="M179.467 39.9586C179.467 40.0153 177.124 40.0783 174.233 40.0972C171.342 40.1224 168.998 40.0972 168.992 40.0405C168.986 39.9838 171.335 39.9208 174.226 39.9019C177.117 39.8768 179.461 39.9019 179.461 39.9586H179.467Z" fill="#263238"/>
<path d="M179.492 42.6418C179.492 42.6985 177.149 42.7615 174.258 42.7867C171.367 42.8119 169.024 42.7867 169.018 42.73C169.018 42.6733 171.361 42.6104 174.252 42.5915C177.143 42.5663 179.486 42.5915 179.486 42.6481L179.492 42.6418Z" fill="#263238"/>
<path d="M84.1944 45.6967C84.1944 45.6967 84.27 45.6904 84.4086 45.6841C84.5786 45.6841 84.7739 45.6715 85.0133 45.6652C85.5738 45.6526 86.3234 45.6337 87.2493 45.6148L87.1926 45.6715C87.1863 45.1739 87.1737 44.6322 87.1674 44.0527C87.1674 43.7504 87.1422 43.4669 87.1674 43.1205C87.2241 42.7741 87.5327 42.4718 87.9106 42.4403C88.2697 42.434 88.5909 42.4151 88.9751 42.4403C89.3719 42.4907 89.712 42.8749 89.6994 43.2969C89.7057 44.0527 89.7183 44.8401 89.7246 45.6589L89.6302 45.5707C90.5372 45.5644 91.4757 45.5518 92.452 45.5455L92.3575 45.64C92.3449 44.5062 92.3386 43.3284 92.326 42.1253C92.326 41.823 92.326 41.527 92.3197 41.2309C92.3197 41.0987 92.2756 40.9727 92.2063 40.8593C92.1433 40.7522 92.0236 40.6578 91.9229 40.5507C91.5072 40.1413 91.0914 39.7319 90.6883 39.335C90.2852 38.9382 89.8884 38.5477 89.4979 38.1635C89.3026 37.9745 89.1137 37.7793 88.9184 37.5966C88.7232 37.4077 88.5657 37.2061 88.3326 37.1557C88.1059 37.0927 87.8602 37.1431 87.6776 37.2817C87.5012 37.4265 87.3249 37.6281 87.1485 37.7982C86.8021 38.1509 86.4619 38.491 86.1344 38.8186C85.4982 39.4799 84.8369 40.0846 84.3519 40.6578C84.1503 40.979 84.2259 41.3632 84.207 41.7159C84.207 42.0687 84.207 42.3962 84.207 42.7111C84.207 43.3221 84.207 43.8575 84.2007 44.311C84.2007 44.7267 84.1944 45.0605 84.1944 45.3314C84.1944 45.5644 84.1818 45.6967 84.1818 45.6967C84.1818 45.6967 84.1692 45.5833 84.1629 45.3565C84.1566 45.092 84.1503 44.7582 84.1377 44.3488C84.1251 43.889 84.1188 43.3536 84.1062 42.7363C84.1062 42.4151 84.0936 42.0812 84.0873 41.7222C84.0873 41.5396 84.0874 41.3569 84.0811 41.1679C84.0811 40.9664 84.1314 40.7648 84.2385 40.5822C84.755 39.946 85.3849 39.3791 86.0273 38.6989C86.3549 38.365 86.6887 38.0249 87.0351 37.6722C87.2178 37.4958 87.3626 37.3195 87.5768 37.1368C87.7972 36.9667 88.1059 36.9038 88.383 36.9793C88.6791 37.0423 88.8743 37.288 89.057 37.458C89.2459 37.647 89.4412 37.836 89.6365 38.0249C90.027 38.4091 90.4238 38.7997 90.8269 39.1965C91.23 39.5933 91.6457 39.9964 92.0614 40.4121C92.1622 40.5192 92.2819 40.6074 92.3764 40.7522C92.4646 40.8908 92.5149 41.0546 92.5212 41.2246C92.5212 41.5207 92.5212 41.823 92.5275 42.1253C92.5338 43.3284 92.5464 44.5062 92.5527 45.64V45.7345H92.4582L89.6365 45.7534H89.542V45.6652C89.542 44.8464 89.5357 44.059 89.5294 43.3032C89.542 42.9568 89.2711 42.6544 88.9499 42.6103C88.6224 42.5914 88.2445 42.6103 87.9232 42.6103C87.6146 42.6355 87.3626 42.8812 87.306 43.1646C87.2808 43.4544 87.306 43.7819 87.2934 44.0653C87.2934 44.6511 87.2934 45.1928 87.2934 45.6841V45.7408H87.2367C86.2982 45.7408 85.536 45.7345 84.9629 45.7282C84.7298 45.7282 84.5346 45.7282 84.3708 45.7219C84.2385 45.7219 84.1692 45.7219 84.1755 45.7093L84.1944 45.6967Z" fill="#263238"/>
<path d="M185.205 114.056C185.205 114.144 161.881 114.22 133.115 114.22C104.349 114.22 81.0254 114.144 81.0254 114.056C81.0254 113.968 104.343 113.892 133.115 113.892C161.887 113.892 185.205 113.968 185.205 114.056Z" fill="#E0E0E0"/>
<path d="M182.768 209.965C182.768 210.054 159.444 210.129 130.678 210.129C101.912 210.129 78.5879 210.054 78.5879 209.965C78.5879 209.877 101.905 209.802 130.678 209.802C159.45 209.802 182.768 209.877 182.768 209.965Z" fill="#E0E0E0"/>
<path d="M159.205 217.165C159.205 217.253 146.249 217.328 130.269 217.328C114.289 217.328 101.333 217.253 101.333 217.165C101.333 217.077 114.289 217.001 130.269 217.001C146.249 217.001 159.205 217.077 159.205 217.165Z" fill="#E0E0E0"/>
<path d="M90.3988 141.978L92.3703 143.049L91.4822 144.535L89.4918 143.357L89.5296 145.549H87.829L87.8479 143.338L85.8575 144.535L84.9883 143.049L86.9598 141.978L84.9883 140.894L85.8575 139.408L87.8479 140.605L87.829 138.394H89.5296L89.4918 140.605L91.4822 139.408L92.3703 140.894L90.3988 141.978Z" fill="#FFD59A"/>
<path d="M113.023 141.978L114.994 143.049L114.106 144.535L112.116 143.357L112.154 145.549H110.453L110.472 143.338L108.482 144.535L107.612 143.049L109.584 141.978L107.612 140.894L108.482 139.408L110.472 140.605L110.453 138.394H112.154L112.116 140.605L114.106 139.408L114.994 140.894L113.023 141.978Z" fill="#FFD59A"/>
<path d="M135.043 141.978L137.015 143.049L136.127 144.535L134.136 143.357L134.174 145.549H132.474L132.492 143.338L130.502 144.535L129.633 143.049L131.604 141.978L129.633 140.894L130.502 139.408L132.492 140.605L132.474 138.394H134.174L134.136 140.605L136.127 139.408L137.015 140.894L135.043 141.978Z" fill="#FFD59A"/>
<path d="M156.376 141.978L158.348 143.049L157.46 144.535L155.469 143.357L155.507 145.549H153.807L153.825 143.338L151.835 144.535L150.966 143.049L152.937 141.978L150.966 140.894L151.835 139.408L153.825 140.605L153.807 138.394H155.507L155.469 140.605L157.46 139.408L158.348 140.894L156.376 141.978Z" fill="#FFD59A"/>
<path d="M177.54 141.978L179.512 143.049L178.624 144.535L176.633 143.357L176.671 145.549H174.971L174.989 143.338L172.999 144.535L172.13 143.049L174.101 141.978L172.13 140.894L172.999 139.408L174.989 140.605L174.971 138.394H176.671L176.633 140.605L178.624 139.408L179.512 140.894L177.54 141.978Z" fill="#FFD59A"/>
<path d="M93.913 155.696H84.3643C81.9078 155.696 79.9111 153.7 79.9111 151.243V134.3C79.9111 131.843 81.9078 129.847 84.3643 129.847H93.913C96.3695 129.847 98.3662 131.843 98.3662 134.3V151.243C98.3662 153.7 96.3695 155.696 93.913 155.696ZM84.3643 130.168C82.0842 130.168 80.2261 132.026 80.2261 134.306V151.249C80.2261 153.529 82.0842 155.388 84.3643 155.388H93.913C96.1931 155.388 98.0512 153.529 98.0512 151.249V134.306C98.0512 132.026 96.1931 130.168 93.913 130.168H84.3643Z" fill="#263238"/>
<path d="M116.071 155.696H106.522C104.066 155.696 102.069 153.7 102.069 151.243V134.3C102.069 131.843 104.066 129.847 106.522 129.847H116.071C118.528 129.847 120.524 131.843 120.524 134.3V151.243C120.524 153.7 118.528 155.696 116.071 155.696ZM106.522 130.168C104.242 130.168 102.384 132.026 102.384 134.306V151.249C102.384 153.529 104.242 155.388 106.522 155.388H116.071C118.351 155.388 120.209 153.529 120.209 151.249V134.306C120.209 132.026 118.351 130.168 116.071 130.168H106.522Z" fill="#263238"/>
<path d="M137.632 155.696H128.083C125.627 155.696 123.63 153.7 123.63 151.243V134.3C123.63 131.843 125.627 129.847 128.083 129.847H137.632C140.088 129.847 142.085 131.843 142.085 134.3V151.243C142.085 153.7 140.088 155.696 137.632 155.696ZM128.083 130.168C125.803 130.168 123.945 132.026 123.945 134.306V151.249C123.945 153.529 125.803 155.388 128.083 155.388H137.632C139.912 155.388 141.77 153.529 141.77 151.249V134.306C141.77 132.026 139.912 130.168 137.632 130.168H128.083Z" fill="#263238"/>
<path d="M159.432 155.696H149.883C147.426 155.696 145.43 153.7 145.43 151.243V134.3C145.43 131.843 147.426 129.847 149.883 129.847H159.432C161.888 129.847 163.885 131.843 163.885 134.3V151.243C163.885 153.7 161.888 155.696 159.432 155.696ZM149.883 130.168C147.603 130.168 145.745 132.026 145.745 134.306V151.249C145.745 153.529 147.603 155.388 149.883 155.388H159.432C161.712 155.388 163.57 153.529 163.57 151.249V134.306C163.57 132.026 161.712 130.168 159.432 130.168H149.883Z" fill="#263238"/>
<path d="M180.595 155.696H171.046C168.589 155.696 166.593 153.7 166.593 151.243V134.3C166.593 131.843 168.589 129.847 171.046 129.847H180.595C183.051 129.847 185.048 131.843 185.048 134.3V151.243C185.048 153.7 183.051 155.696 180.595 155.696ZM171.046 130.168C168.766 130.168 166.908 132.026 166.908 134.306V151.249C166.908 153.529 168.766 155.388 171.046 155.388H180.595C182.875 155.388 184.733 153.529 184.733 151.249V134.306C184.733 132.026 182.875 130.168 180.595 130.168H171.046Z" fill="#263238"/>
<path d="M179.896 176.154H87.1737C83.2463 176.154 80.0625 179.338 80.0625 183.265V187.775C80.0625 191.703 83.2463 194.886 87.1737 194.886H179.896C183.823 194.886 187.007 191.703 187.007 187.775V183.265C187.007 179.338 183.823 176.154 179.896 176.154Z" fill="#FFD59A"/>
<path d="M120.034 181.76H122.913C124.985 181.76 126.408 183.007 126.408 184.928C126.408 186.849 124.985 188.096 122.913 188.096H120.034V181.76ZM122.843 186.893C124.103 186.893 124.928 186.144 124.928 184.928C124.928 183.713 124.103 182.963 122.843 182.963H121.502V186.893H122.843Z" fill="white"/>
<path d="M127.051 185.659C127.051 184.191 128.185 183.152 129.728 183.152C131.271 183.152 132.398 184.191 132.398 185.659C132.398 187.126 131.277 188.166 129.728 188.166C128.178 188.166 127.051 187.126 127.051 185.659ZM130.969 185.659C130.969 184.815 130.433 184.311 129.728 184.311C129.022 184.311 128.481 184.815 128.481 185.659C128.481 186.503 129.022 187.007 129.728 187.007C130.433 187.007 130.969 186.503 130.969 185.659Z" fill="white"/>
<path d="M138.326 185.306V188.096H136.915V185.527C136.915 184.739 136.549 184.374 135.926 184.374C135.245 184.374 134.76 184.79 134.76 185.684V188.09H133.35V183.221H134.698V183.794C135.075 183.379 135.649 183.152 136.31 183.152C137.463 183.152 138.332 183.82 138.332 185.306H138.326Z" fill="white"/>
<path d="M144.404 186.056H140.719C140.858 186.66 141.374 187.032 142.111 187.032C142.628 187.032 143 186.881 143.333 186.56L144.083 187.372C143.629 187.889 142.949 188.159 142.074 188.159C140.392 188.159 139.296 187.101 139.296 185.653C139.296 184.204 140.411 183.146 141.891 183.146C143.371 183.146 144.423 184.103 144.423 185.671C144.423 185.779 144.404 185.936 144.398 186.049L144.404 186.056ZM140.701 185.231H143.1C143 184.613 142.54 184.216 141.904 184.216C141.267 184.216 140.801 184.607 140.701 185.231Z" fill="white"/>
<path d="M132.479 86.7198C142.933 86.7198 151.407 78.2457 151.407 67.7923C151.407 57.339 142.933 48.8649 132.479 48.8649C122.026 48.8649 113.552 57.339 113.552 67.7923C113.552 78.2457 122.026 86.7198 132.479 86.7198Z" fill="#FFD59A"/>
<path d="M129.147 64.3533H128.832V62.5833C128.832 60.5489 130.489 58.8923 132.523 58.8923C134.558 58.8923 136.214 60.5489 136.214 62.5833V64.0257H135.899V62.5833C135.899 60.7189 134.381 59.2073 132.523 59.2073C130.665 59.2073 129.147 60.7252 129.147 62.5833V64.3533Z" fill="white"/>
<path d="M137.171 76.6923H127.786C126.93 76.6923 126.23 75.9932 126.23 75.1365V65.7516C126.23 64.895 126.93 64.1958 127.786 64.1958H137.171C138.028 64.1958 138.727 64.895 138.727 65.7516V75.1365C138.727 75.9932 138.028 76.6923 137.171 76.6923ZM127.786 64.5107C127.1 64.5107 126.545 65.065 126.545 65.7516V75.1365C126.545 75.8231 127.1 76.3774 127.786 76.3774H137.171C137.858 76.3774 138.412 75.8231 138.412 75.1365V65.7516C138.412 65.065 137.858 64.5107 137.171 64.5107H127.786Z" fill="white"/>
<path d="M132.523 70.7527C131.71 70.7527 131.049 70.0913 131.049 69.2788C131.049 68.4663 131.71 67.8049 132.523 67.8049C133.335 67.8049 133.997 68.4663 133.997 69.2788C133.997 70.0913 133.335 70.7527 132.523 70.7527ZM132.523 68.1199C131.887 68.1199 131.364 68.6364 131.364 69.2788C131.364 69.9213 131.88 70.4378 132.523 70.4378C133.165 70.4378 133.682 69.9213 133.682 69.2788C133.682 68.6364 133.159 68.1199 132.523 68.1199Z" fill="white"/>
<path d="M132.636 70.5259H132.321V73.184H132.636V70.5259Z" fill="white"/>
<path d="M99.5186 95.7583H104.885C106.057 95.7583 106.932 96.0354 107.512 96.5897C108.091 97.144 108.387 97.9376 108.387 98.9643C108.387 99.991 108.072 100.841 107.436 101.44C106.8 102.032 105.83 102.334 104.532 102.334H102.762V106.214H99.5186V95.7583ZM102.762 100.218H103.556C104.18 100.218 104.614 100.111 104.866 99.8902C105.118 99.6761 105.244 99.3989 105.244 99.0588C105.244 98.7187 105.137 98.4541 104.916 98.2274C104.696 98.0006 104.287 97.8872 103.682 97.8872H102.762V100.218Z" fill="#263238"/>
<path d="M109.993 95.7583H112.897V97.7361H109.993V95.7583ZM109.993 98.6368H112.897V106.208H109.993V98.6368Z" fill="#263238"/>
<path d="M114.748 98.6368H117.451V99.8713C117.854 99.3674 118.263 99.0084 118.679 98.7879C119.095 98.5738 119.598 98.4604 120.191 98.4604C120.997 98.4604 121.62 98.6998 122.074 99.1785C122.527 99.6572 122.754 100.394 122.754 101.396V106.208H119.838V102.044C119.838 101.572 119.75 101.232 119.573 101.037C119.397 100.841 119.151 100.741 118.83 100.741C118.477 100.741 118.194 100.873 117.973 101.137C117.753 101.402 117.646 101.881 117.646 102.573V106.208H114.742V98.6368H114.748Z" fill="#263238"/>
<path d="M136.51 101.931L139.338 102.788C139.149 103.581 138.847 104.243 138.438 104.778C138.028 105.313 137.524 105.71 136.913 105.981C136.309 106.252 135.534 106.39 134.602 106.39C133.468 106.39 132.536 106.227 131.818 105.893C131.1 105.565 130.476 104.98 129.953 104.148C129.431 103.317 129.166 102.252 129.166 100.955C129.166 99.2226 129.626 97.8935 130.545 96.9676C131.465 96.0417 132.769 95.5757 134.451 95.5757C135.767 95.5757 136.8 95.8402 137.556 96.3756C138.312 96.911 138.866 97.7235 139.238 98.8257L136.384 99.4619C136.283 99.1407 136.183 98.9076 136.069 98.7628C135.887 98.5171 135.666 98.3282 135.408 98.1896C135.143 98.0573 134.854 97.988 134.532 97.988C133.802 97.988 133.241 98.2841 132.851 98.8698C132.555 99.3044 132.41 99.991 132.41 100.93C132.41 102.088 132.586 102.882 132.939 103.31C133.292 103.739 133.783 103.953 134.419 103.953C135.055 103.953 135.502 103.776 135.817 103.43C136.132 103.084 136.365 102.58 136.504 101.918L136.51 101.931Z" fill="#263238"/>
<path d="M140.365 102.441C140.365 101.289 140.756 100.331 141.537 99.5879C142.318 98.8384 143.37 98.4667 144.699 98.4667C146.217 98.4667 147.363 98.9076 148.138 99.7832C148.761 100.489 149.07 101.364 149.07 102.397C149.07 103.562 148.686 104.513 147.911 105.263C147.136 106.006 146.072 106.378 144.705 106.378C143.489 106.378 142.507 106.069 141.751 105.452C140.831 104.69 140.365 103.682 140.365 102.441ZM143.275 102.435C143.275 103.109 143.414 103.606 143.685 103.934C143.955 104.255 144.302 104.419 144.718 104.419C145.133 104.419 145.48 104.261 145.751 103.94C146.021 103.619 146.154 103.109 146.154 102.41C146.154 101.755 146.015 101.263 145.744 100.942C145.473 100.621 145.14 100.463 144.736 100.463C144.314 100.463 143.962 100.627 143.691 100.955C143.414 101.282 143.275 101.774 143.275 102.441V102.435Z" fill="#263238"/>
<path d="M158.436 95.7583V106.214H155.721V105.093C155.343 105.565 154.997 105.887 154.682 106.057C154.266 106.277 153.8 106.384 153.283 106.384C152.25 106.384 151.463 105.994 150.921 105.206C150.38 104.419 150.103 103.468 150.103 102.347C150.103 101.093 150.405 100.13 151.003 99.4682C151.602 98.8005 152.37 98.473 153.296 98.473C153.749 98.473 154.159 98.5486 154.524 98.6998C154.896 98.8509 155.217 99.0777 155.507 99.3863V95.7646H158.436V95.7583ZM155.526 102.403C155.526 101.811 155.4 101.364 155.148 101.074C154.896 100.785 154.575 100.633 154.19 100.633C153.85 100.633 153.573 100.772 153.34 101.055C153.113 101.339 153 101.805 153 102.466C153 103.084 153.12 103.537 153.353 103.827C153.586 104.117 153.882 104.261 154.228 104.261C154.6 104.261 154.908 104.117 155.154 103.827C155.4 103.537 155.526 103.065 155.526 102.41V102.403Z" fill="#263238"/>
<path d="M168.608 103.14H162.788C162.838 103.606 162.964 103.953 163.166 104.18C163.443 104.507 163.815 104.671 164.262 104.671C164.545 104.671 164.816 104.602 165.074 104.457C165.232 104.369 165.402 104.205 165.578 103.978L168.438 104.243C168.003 105.005 167.474 105.546 166.857 105.88C166.24 106.208 165.352 106.378 164.199 106.378C163.197 106.378 162.404 106.239 161.831 105.956C161.257 105.672 160.779 105.225 160.401 104.608C160.023 103.991 159.834 103.266 159.834 102.435C159.834 101.251 160.212 100.293 160.974 99.5627C161.73 98.8321 162.782 98.4667 164.117 98.4667C165.2 98.4667 166.057 98.6305 166.687 98.958C167.317 99.2856 167.789 99.7643 168.117 100.382C168.444 101.005 168.608 101.818 168.608 102.813V103.14ZM165.654 101.748C165.597 101.188 165.446 100.785 165.2 100.545C164.955 100.306 164.634 100.18 164.237 100.18C163.777 100.18 163.405 100.363 163.128 100.728C162.952 100.955 162.838 101.295 162.794 101.748H165.654Z" fill="#263238"/>
<path d="M264.121 266.357L252.235 238.939L238.599 247.694L253.06 272.757L260.31 269.506L264.121 266.357Z" fill="#FFBE9D"/>
<path d="M264.102 264.883L264.499 265.658C264.499 265.658 280.34 264.31 281.738 266.735L255.51 279.786L251.523 270.88C256.323 270.747 260.505 268.914 264.102 264.877V264.883Z" fill="#F9D46B"/>
<g opacity="0.6">
<path d="M255.322 272.303C254.881 272.694 254.818 273.437 255.189 273.897C255.561 274.35 256.317 274.426 256.764 274.041C257.211 273.657 257.318 272.763 256.896 272.353C256.474 271.944 255.58 271.906 255.24 272.385" fill="white"/>
</g>
<g opacity="0.6">
<path d="M255.265 279.742L254.308 277.6L279.798 265.872C279.798 265.872 281.222 265.797 281.499 266.685L255.271 279.735L255.265 279.742Z" fill="white"/>
</g>
<path d="M264.379 265.633C264.435 265.765 263.824 266.143 263.402 266.867C262.955 267.579 262.911 268.297 262.766 268.303C262.634 268.335 262.445 267.478 262.974 266.609C263.497 265.734 264.347 265.501 264.379 265.633Z" fill="#263238"/>
<path d="M267.692 265.406C267.78 265.513 267.339 266.011 267.169 266.767C266.98 267.522 267.169 268.159 267.031 268.215C266.917 268.297 266.457 267.592 266.684 266.653C266.898 265.715 267.629 265.286 267.692 265.406Z" fill="#263238"/>
<path d="M270.899 267.919C270.798 268.007 270.3 267.453 270.281 266.59C270.256 265.727 270.722 265.148 270.829 265.23C270.955 265.299 270.754 265.866 270.779 266.578C270.791 267.289 271.025 267.844 270.899 267.919Z" fill="#263238"/>
<path d="M241.767 271.119L242.22 241.238L226.19 243.6L229.056 272.398L236.999 272.416L241.767 271.119Z" fill="#FFBE9D"/>
<path d="M242.151 269.614L242.189 270.483C242.189 270.483 257.18 275.774 257.457 278.564L228.181 279.66L228.212 269.903C232.64 271.755 237.207 271.812 242.145 269.614H242.151Z" fill="#F9D46B"/>
<g opacity="0.6">
<path d="M231.298 272.908C230.738 273.084 230.372 273.733 230.524 274.306C230.675 274.873 231.336 275.251 231.903 275.087C232.464 274.923 232.93 274.155 232.715 273.607C232.501 273.059 231.701 272.656 231.191 272.952" fill="white"/>
</g>
<g opacity="0.6">
<path d="M228.187 279.666V277.317L256.253 277.122C256.253 277.122 257.576 277.638 257.463 278.564L228.187 279.66V279.666Z" fill="white"/>
</g>
<path d="M242.296 270.565C242.296 270.71 241.585 270.798 240.898 271.283C240.199 271.749 239.859 272.385 239.726 272.335C239.594 272.309 239.777 271.446 240.615 270.873C241.452 270.294 242.321 270.432 242.296 270.565Z" fill="#263238"/>
<path d="M245.413 271.717C245.451 271.856 244.84 272.12 244.38 272.744C243.902 273.355 243.801 274.01 243.656 274.01C243.524 274.035 243.391 273.204 243.984 272.442C244.569 271.673 245.407 271.579 245.413 271.717Z" fill="#263238"/>
<path d="M247.297 275.326C247.171 275.364 246.945 274.652 247.279 273.859C247.612 273.059 248.274 272.725 248.337 272.845C248.419 272.958 248.003 273.393 247.738 274.054C247.455 274.703 247.436 275.308 247.297 275.326Z" fill="#263238"/>
<path d="M230.235 149.278L229.637 125.746L206.735 126.949L205.991 129.733C205.991 129.733 203.925 136.857 202.993 142.834C201.456 152.692 201.639 161.661 205.5 172.192C209.361 182.724 215.439 202.766 215.439 202.766L238.159 265.519L264.613 256.821L230.229 149.272L230.235 149.278Z" fill="#263238"/>
<path d="M244.086 124.99L246.089 131.503C249.024 133.368 253.76 142.652 254.201 146.444C254.636 150.235 255.486 163.217 254.598 178.434C253.867 190.95 247.669 264.209 247.669 264.209L222.639 265.526L225.246 147.073L226.349 125.923L244.098 124.99H244.086Z" fill="#263238"/>
<path d="M201.191 145.001C201.191 145.001 201.487 145.127 202.054 145.259C202.621 145.392 203.453 145.53 204.498 145.587C206.564 145.713 209.531 145.379 212.409 143.956C215.288 142.532 217.347 140.372 218.5 138.646C219.086 137.783 219.483 137.033 219.716 136.504C219.955 135.975 220.056 135.667 220.037 135.66C219.974 135.629 219.508 136.838 218.299 138.501C217.108 140.164 215.067 142.242 212.258 143.634C209.449 145.026 206.552 145.392 204.511 145.335C202.451 145.285 201.21 144.926 201.198 144.995L201.191 145.001Z" fill="#455A64"/>
<path d="M243.127 132.423C243.127 132.423 243.159 132.624 243.272 132.964C243.379 133.311 243.575 133.796 243.852 134.382C244.393 135.553 245.326 137.103 246.629 138.589C247.94 140.076 249.363 141.184 250.453 141.871C251.001 142.217 251.454 142.469 251.782 142.62C252.109 142.778 252.292 142.853 252.305 142.828C252.33 142.778 251.637 142.394 250.591 141.663C249.546 140.932 248.179 139.811 246.888 138.35C245.603 136.888 244.664 135.389 244.066 134.262C243.468 133.135 243.178 132.391 243.121 132.416L243.127 132.423Z" fill="#455A64"/>
<path d="M231.343 152.421C231.343 152.421 231.406 152.585 231.513 152.906C231.62 153.24 231.771 153.718 231.972 154.348C232.376 155.627 232.961 157.498 233.711 159.904C235.21 164.741 237.377 171.72 240.047 180.343C245.483 197.576 252.374 221.58 261.62 247.556C262.685 250.667 263.73 253.741 264.77 256.771L264.826 256.928L264.662 256.978C255.372 260.027 246.478 262.95 238.202 265.664L238.057 265.708L238.007 265.564C231.809 248.381 226.53 233.736 222.795 223.381C220.944 218.21 219.476 214.11 218.468 211.294C217.971 209.896 217.593 208.819 217.328 208.076C217.202 207.717 217.108 207.44 217.038 207.244C216.975 207.055 216.95 206.961 216.95 206.961C216.95 206.961 216.994 207.055 217.064 207.238C217.139 207.433 217.24 207.704 217.372 208.063C217.643 208.8 218.04 209.871 218.556 211.263C219.583 214.072 221.082 218.16 222.972 223.319C226.732 233.661 232.054 248.293 238.296 265.463L238.101 265.368C246.377 262.647 255.265 259.718 264.555 256.657L264.448 256.871C263.409 253.842 262.363 250.762 261.299 247.65C252.053 221.668 245.193 197.652 239.814 180.4C237.181 171.764 235.052 164.773 233.579 159.929C232.854 157.517 232.287 155.64 231.897 154.355C231.708 153.725 231.569 153.24 231.469 152.906C231.374 152.578 231.336 152.408 231.336 152.408L231.343 152.421Z" fill="#455A64"/>
<path d="M253.854 84.131C253.854 84.131 252.657 77.4293 249.225 74.2295C245.792 71.0298 231.488 67.3955 231.488 67.3955C231.488 67.3955 231.658 72.3588 228.458 73.6942C225.063 75.1051 221.674 74.6327 218.991 71.8298C216.396 69.1213 215.735 65.6004 215.735 65.6004C215.735 65.6004 198.779 68.0758 196.366 72.6738C193.954 77.2718 191.435 94.7127 191.435 94.7127L206.797 97.1377L206.299 126.981L246.674 124.858L244.412 96.9929L255.486 97.9817L253.86 84.131H253.854Z" fill="#455A64"/>
<path d="M209.864 97.9565C209.864 97.9565 209.896 97.7172 209.883 97.2826C209.87 96.848 209.845 96.2244 209.807 95.456C209.726 93.9128 209.587 91.7839 209.417 89.4345C209.247 87.0851 209.071 84.9561 208.926 83.4193C208.856 82.6508 208.787 82.0273 208.737 81.599C208.686 81.1707 208.642 80.9313 208.617 80.9313C208.592 80.9313 208.585 81.1706 208.598 81.6053C208.611 82.0399 208.636 82.6634 208.674 83.4319C208.756 84.975 208.894 87.104 209.064 89.4534C209.234 91.8028 209.411 93.9317 209.556 95.4686C209.625 96.237 209.694 96.8606 209.744 97.2889C209.795 97.7172 209.839 97.9565 209.864 97.9502V97.9565Z" fill="#263238"/>
<path d="M247.461 83.6964C247.367 83.6775 246.579 86.7386 245.697 90.543C244.816 94.3474 244.179 97.4463 244.274 97.4715C244.368 97.4904 245.156 94.4293 246.038 90.6249C246.919 86.8205 247.556 83.7216 247.461 83.7027V83.6964Z" fill="#263238"/>
<path d="M198.004 71.5085C197.998 71.5715 198.735 71.666 199.868 72.0313C200.996 72.3904 202.507 73.0769 203.937 74.1918C205.361 75.3129 206.394 76.6042 207.017 77.6182C207.641 78.626 207.918 79.3252 207.975 79.3C208 79.2937 207.943 79.111 207.836 78.7961C207.729 78.4748 207.528 78.0276 207.231 77.4986C206.652 76.4341 205.619 75.0736 204.151 73.9209C202.684 72.7746 201.109 72.1006 199.938 71.7983C199.352 71.6408 198.867 71.5526 198.533 71.5274C198.199 71.4959 198.01 71.4897 198.004 71.5148V71.5085Z" fill="#263238"/>
<path d="M249.54 75.5775C249.445 75.5586 249.174 76.516 248.935 77.7064C248.696 78.9031 248.582 79.8857 248.677 79.9046C248.771 79.9235 249.042 78.9661 249.281 77.7757C249.521 76.5789 249.634 75.5963 249.54 75.5775Z" fill="#263238"/>
<path d="M194.162 95.1411C194.162 95.1411 199.932 118.011 200.555 119.964C201.179 121.917 202.3 127.195 207.868 128.001C215.389 129.097 244.551 126.521 244.551 126.521L238.675 119.832L212.737 114.012L208.359 97.3834L194.168 95.1473L194.162 95.1411Z" fill="#FFBE9D"/>
<path d="M238.951 115.908C238.951 115.908 238.857 116.09 238.762 116.449C238.668 116.808 238.58 117.337 238.548 118.005C238.485 119.322 238.769 121.23 239.858 122.981C240.394 123.838 240.992 124.619 241.654 125.211C242.309 125.809 243.033 126.2 243.675 126.408C244.318 126.615 244.86 126.659 245.231 126.672C245.603 126.672 245.804 126.647 245.804 126.622C245.811 126.546 244.973 126.622 243.757 126.174C243.159 125.948 242.491 125.557 241.874 124.971C241.25 124.392 240.684 123.636 240.161 122.792C239.121 121.117 238.8 119.29 238.8 118.005C238.794 116.708 239.021 115.914 238.958 115.901L238.951 115.908Z" fill="#F9D46B"/>
<path d="M209.682 92.3885C209.682 92.3885 209.43 92.3886 208.989 92.3193C208.479 92.2437 207.855 92.1555 207.125 92.0484C205.55 91.8217 203.371 91.5634 200.958 91.2548C198.546 90.9399 196.373 90.5619 194.817 90.1903C194.043 90.0014 193.419 89.8376 192.991 89.6927C192.562 89.5542 192.336 89.4723 192.342 89.4471C192.355 89.3967 193.312 89.6423 194.868 89.951C196.423 90.2659 198.59 90.606 201.003 90.9147C203.409 91.2296 205.594 91.5193 207.163 91.8091C207.95 91.9539 208.58 92.0799 209.014 92.187C209.449 92.2941 209.688 92.3571 209.682 92.3822V92.3885Z" fill="#F9D46B"/>
<path d="M208.478 84.7735C208.478 84.7735 208.264 84.805 207.88 84.805C207.496 84.805 206.942 84.7861 206.255 84.7546C204.888 84.6853 202.999 84.5404 200.92 84.2822C198.841 84.0239 196.977 83.7027 195.629 83.4319C194.955 83.2933 194.414 83.1736 194.042 83.0791C193.67 82.9846 193.469 82.9217 193.469 82.9028C193.481 82.8524 194.313 82.9846 195.667 83.1988C197.021 83.413 198.886 83.6901 200.958 83.9483C203.03 84.2066 204.907 84.3893 206.268 84.5215C207.628 84.6475 208.472 84.7294 208.472 84.7735H208.478Z" fill="#F9D46B"/>
<path d="M207.181 78.9787C207.181 79.0228 206.494 79.0354 205.386 78.9661C204.277 78.8968 202.753 78.7268 201.09 78.4118C199.427 78.0969 197.941 77.7001 196.889 77.3663C195.831 77.0324 195.194 76.7679 195.213 76.7301C195.226 76.686 195.887 76.8624 196.958 77.1395C198.029 77.4166 199.509 77.7694 201.159 78.0843C202.809 78.3929 204.321 78.6008 205.417 78.7268C206.513 78.859 207.193 78.9283 207.193 78.9787H207.181Z" fill="#F9D46B"/>
<path d="M217.965 70.7212C217.977 70.7653 217.202 70.9984 215.943 71.3259C214.683 71.6471 212.926 72.0565 210.979 72.447C209.027 72.8376 207.251 73.1336 205.966 73.3226C204.674 73.5115 203.875 73.5871 203.868 73.543C203.862 73.4989 204.649 73.3352 205.928 73.0832C207.301 72.8187 209.02 72.4848 210.916 72.1132C212.812 71.7227 214.526 71.37 215.892 71.0928C217.165 70.8283 217.958 70.6771 217.971 70.7212H217.965Z" fill="#F9D46B"/>
<path d="M249.243 77.5237C249.243 77.5237 248.979 77.4545 248.519 77.2718C248.002 77.0576 247.354 76.7931 246.598 76.4782C244.979 75.8042 242.737 74.8846 240.242 73.9083C237.748 72.932 235.474 72.0943 233.824 71.4896C233.056 71.2062 232.401 70.9606 231.872 70.7653C231.412 70.5889 231.16 70.4819 231.166 70.463C231.172 70.4441 231.437 70.5071 231.909 70.6456C232.382 70.7842 233.062 70.9921 233.893 71.2692C235.563 71.8172 237.855 72.6234 240.356 73.5997C242.856 74.576 245.086 75.5334 246.686 76.264C247.486 76.6293 248.128 76.9317 248.569 77.1521C249.01 77.3726 249.25 77.5049 249.237 77.5237H249.243Z" fill="#F9D46B"/>
<path d="M247.461 83.413C247.461 83.413 247.322 83.413 247.07 83.3752C246.781 83.3311 246.409 83.2681 245.955 83.1925C244.948 83.0161 243.556 82.7705 241.861 82.4745C238.403 81.8698 233.623 81.0321 228.313 80.3896C225.655 80.0747 223.116 79.8605 220.799 79.7219C218.481 79.6023 216.396 79.5519 214.645 79.5771C213.769 79.5708 212.976 79.6149 212.277 79.6338C211.577 79.6464 210.979 79.6842 210.494 79.7156C210.034 79.7408 209.656 79.7597 209.367 79.7723C209.108 79.7786 208.97 79.7786 208.97 79.7723C208.97 79.7597 209.102 79.7408 209.36 79.7094C209.656 79.6779 210.028 79.6401 210.488 79.5897C210.979 79.5393 211.577 79.4826 212.277 79.4511C212.976 79.4133 213.769 79.3566 214.645 79.344C216.402 79.2873 218.5 79.3125 220.824 79.4133C223.148 79.533 225.699 79.7408 228.363 80.0558C233.692 80.6982 238.466 81.5738 241.918 82.2414C243.644 82.5752 245.036 82.8587 245.999 83.0602C246.453 83.161 246.818 83.2429 247.102 83.3059C247.354 83.3626 247.486 83.4004 247.48 83.413H247.461Z" fill="#F9D46B"/>
<path d="M231.167 93.705C231.167 93.705 230.858 93.7176 230.298 93.6861C229.743 93.6546 228.937 93.5853 227.948 93.4782C225.964 93.2766 223.237 92.9113 220.245 92.3696C217.253 91.8217 214.57 91.1981 212.643 90.6879C211.679 90.436 210.904 90.2155 210.369 90.0517C209.833 89.888 209.544 89.7872 209.55 89.762C209.55 89.7368 209.859 89.7998 210.4 89.9195C211.005 90.058 211.773 90.2407 212.693 90.4548C214.633 90.9021 217.316 91.4878 220.295 92.0358C223.281 92.5775 225.996 92.9743 227.967 93.2388C228.899 93.3648 229.687 93.4656 230.304 93.5475C230.858 93.6231 231.161 93.6735 231.161 93.6986L231.167 93.705Z" fill="#F9D46B"/>
<path d="M244.873 93.9191C244.873 94.0136 242.007 94.1144 238.473 94.1459C234.933 94.1773 232.067 94.1333 232.067 94.0388C232.067 93.9443 234.933 93.8435 238.467 93.812C242 93.7805 244.873 93.8246 244.873 93.9191Z" fill="#F9D46B"/>
<path d="M226.878 102.964C226.878 102.964 226.626 102.977 226.178 102.932C225.731 102.895 225.089 102.813 224.295 102.699C222.708 102.473 220.528 102.088 218.148 101.534C215.767 100.974 213.638 100.356 212.12 99.8524C211.358 99.6005 210.747 99.3863 210.331 99.2289C209.915 99.0714 209.682 98.9706 209.695 98.9454C209.701 98.9265 209.947 98.9832 210.375 99.1029C210.873 99.2478 211.484 99.4241 212.195 99.6257C213.732 100.067 215.861 100.652 218.236 101.207C220.61 101.761 222.777 102.183 224.345 102.466C225.076 102.599 225.693 102.712 226.21 102.807C226.651 102.888 226.89 102.945 226.89 102.97L226.878 102.964Z" fill="#F9D46B"/>
<path d="M241.711 103.625C241.711 103.669 240.936 103.695 239.682 103.644C238.429 103.6 236.703 103.474 234.807 103.229C232.911 102.983 231.211 102.662 229.989 102.384C228.767 102.107 228.024 101.887 228.036 101.849C228.049 101.799 228.811 101.937 230.039 102.151C231.267 102.366 232.968 102.649 234.858 102.895C236.747 103.14 238.461 103.304 239.701 103.405C240.942 103.512 241.717 103.575 241.717 103.619L241.711 103.625Z" fill="#F9D46B"/>
<path d="M238.618 111.851C238.618 111.851 238.536 111.895 238.359 111.952C238.189 112.009 237.937 112.097 237.603 112.179C236.942 112.362 235.978 112.582 234.769 112.771C232.35 113.155 228.943 113.275 225.233 112.853C221.523 112.437 218.229 111.669 215.861 111.096C214.676 110.806 213.719 110.554 213.064 110.371C212.409 110.189 212.044 110.081 212.05 110.056C212.05 110.031 212.428 110.1 213.095 110.245C213.82 110.403 214.765 110.611 215.917 110.862C218.298 111.379 221.586 112.103 225.277 112.519C228.962 112.935 232.338 112.859 234.744 112.538C235.947 112.387 236.917 112.204 237.578 112.059C238.246 111.914 238.611 111.832 238.618 111.858V111.851Z" fill="#F9D46B"/>
<path d="M253.174 88.2062C253.174 88.3007 251.744 88.3763 249.981 88.4645C248.211 88.5589 246.769 88.4834 246.769 88.3889C246.769 88.2944 248.198 88.2188 249.962 88.1306C251.732 88.0362 253.174 88.1117 253.174 88.2062Z" fill="#F9D46B"/>
<path d="M252.324 80.5408C252.324 80.6353 251.53 80.6605 250.573 80.5975C249.609 80.5345 248.835 80.4085 248.841 80.314C248.841 80.2196 249.634 80.1944 250.592 80.2573C251.556 80.3203 252.33 80.4463 252.324 80.5408Z" fill="#F9D46B"/>
<path d="M225.655 103.512C225.624 103.455 226.317 103.109 227.255 102.328C227.728 101.944 228.244 101.421 228.754 100.804C229.252 100.167 229.743 99.4304 230.153 98.5927C230.549 97.7487 230.827 96.9047 231.015 96.1236C231.179 95.3363 231.267 94.612 231.28 94.001C231.305 92.7791 231.148 92.0232 231.211 92.0106C231.236 92.0106 231.286 92.1933 231.362 92.5334C231.4 92.7035 231.444 92.9113 231.463 93.1633C231.488 93.4089 231.532 93.6924 231.519 94.0073C231.545 94.6309 231.475 95.3804 231.324 96.1929C231.148 97.0054 230.877 97.881 230.461 98.7439C230.039 99.6068 229.523 100.363 229 101.005C228.458 101.635 227.91 102.151 227.406 102.523C227.167 102.725 226.921 102.863 226.713 103.002C226.506 103.14 226.317 103.241 226.159 103.31C225.844 103.462 225.668 103.537 225.662 103.518L225.655 103.512Z" fill="#263238"/>
<g opacity="0.3">
<path d="M231.06 97.3834L228.603 101.024C226.966 103.084 224.61 104.551 222.04 105.112C224.295 105.899 226.959 105.395 228.773 103.839C230.587 102.284 231.488 99.7328 231.06 97.3834Z" fill="black"/>
</g>
<path d="M238.316 59.4341C240.64 59.6356 243.021 59.1506 245.074 58.0546C242.025 56.184 240.098 52.852 239.172 49.394C238.246 45.9361 237.043 40.0405 237.005 36.4629L231.425 61.2607C234.354 61.9346 237.484 61.689 240.274 60.5741C239.487 60.5489 238.719 60.1017 238.309 59.4278L238.316 59.4341Z" fill="#263238"/>
<path d="M222.393 62.407C221.183 59.6356 220.711 56.5492 221.045 53.5448L209.796 49.2806C209.279 52.3292 208.045 55.2517 206.205 57.7334C205.519 58.6656 204.7 59.749 205.021 60.8575C205.242 61.626 205.991 62.155 206.766 62.3503C207.541 62.5456 208.359 62.4637 209.159 62.3818C208.681 62.9046 208.202 63.4274 207.723 63.9502C212.561 63.018 217.474 62.5015 222.393 62.4133V62.407Z" fill="#263238"/>
<path d="M223.344 25.371C219.797 25.0056 216.799 26.5551 213.971 28.7281C211.143 30.9012 209.109 34.0316 208.038 37.4329C206.91 41.0168 206.841 44.9723 208.113 48.5059C209.392 52.0394 212.069 55.1006 215.521 56.5807C220.238 58.6026 226.021 57.4122 229.901 54.055C233.78 50.6978 235.783 45.4447 235.645 40.3176C235.55 36.7841 234.473 33.2317 232.313 30.4351C230.152 27.6385 226.865 25.6607 223.344 25.371Z" fill="#263238"/>
<path d="M214.147 37.9557C214.576 36.5826 214.273 35.0961 214.387 33.66C214.626 30.4981 216.988 27.8212 219.829 26.4103C222.468 25.0938 225.806 25.1253 229.144 25.9694C231.437 26.5488 233.629 27.6763 235.241 29.3958C237.383 31.6822 238.309 35.052 237.629 38.1131L221.447 36.8282C220.03 38.1698 218.575 39.5303 216.799 40.3429C216.276 40.5822 215.716 40.7712 215.142 40.7208C214.569 40.6704 213.996 40.3177 213.826 39.776C213.637 39.1776 213.958 38.5604 214.147 37.962V37.9557Z" fill="#263238"/>
<path d="M229.774 30.3658L215.974 34.2458C214.626 34.4222 213.637 35.6063 213.7 36.9605L215.848 67.2318C215.993 69.2978 216.818 71.2629 218.191 72.8124L219.64 74.4438C222.94 78.1663 229.075 77.3726 231.116 72.8313C231.261 72.5164 231.355 72.2392 231.387 72.0188C231.418 71.7416 231.475 71.559 231.475 71.3259C231.721 68.9513 231.418 66.7216 231.418 66.7216C231.38 64.0132 231.349 62.9046 231.349 62.9298C231.349 62.9298 237.03 61.8339 238.013 54.3574C238.504 50.6412 238.158 44.5756 237.711 39.6249C237.307 35.1654 234.209 29.7675 229.768 30.3532L229.774 30.3658Z" fill="#FFBE9D"/>
<path d="M235.06 44.4055C235.092 44.9094 234.689 45.3503 234.166 45.3944C233.643 45.4385 233.189 45.0606 233.158 44.563C233.126 44.0591 233.53 43.6182 234.052 43.5741C234.575 43.53 235.029 43.9079 235.06 44.4118V44.4055Z" fill="#263238"/>
<path d="M236.483 42.8245C236.37 42.9505 235.633 42.434 234.606 42.4655C233.58 42.4781 232.843 43.0324 232.723 42.9064C232.666 42.8497 232.78 42.623 233.101 42.3773C233.416 42.1317 233.964 41.886 234.6 41.8734C235.242 41.8608 235.784 42.0813 236.099 42.3143C236.42 42.5474 236.534 42.7678 236.477 42.8308L236.483 42.8245Z" fill="#263238"/>
<path d="M225.335 44.9157C225.366 45.4196 224.963 45.8605 224.44 45.9046C223.917 45.9486 223.464 45.5707 223.432 45.0731C223.401 44.5692 223.804 44.1283 224.327 44.0842C224.85 44.0402 225.303 44.4181 225.335 44.922V44.9157Z" fill="#263238"/>
<path d="M226.392 43.2843C226.279 43.4103 225.536 42.8938 224.515 42.9253C223.489 42.9379 222.752 43.4859 222.632 43.3662C222.575 43.3095 222.689 43.0828 223.01 42.8371C223.325 42.5915 223.873 42.3458 224.509 42.3269C225.152 42.3143 225.693 42.5348 226.008 42.7678C226.329 43.0009 226.443 43.2213 226.386 43.2843H226.392Z" fill="#263238"/>
<path d="M230.317 50.8049C230.31 50.7482 230.947 50.6223 231.98 50.4585C232.244 50.427 232.49 50.364 232.528 50.1877C232.584 49.9987 232.465 49.7153 232.332 49.4129C232.068 48.7831 231.791 48.128 231.501 47.4351C230.348 44.6197 229.504 42.3017 229.618 42.2577C229.731 42.2136 230.758 44.4559 231.91 47.2714C232.187 47.9642 232.452 48.6256 232.704 49.2618C232.811 49.5578 232.994 49.8916 232.868 50.2884C232.805 50.4837 232.616 50.6349 232.446 50.6852C232.282 50.7419 232.131 50.7482 232.005 50.7608C230.966 50.8427 230.317 50.8679 230.317 50.8112V50.8049Z" fill="#263238"/>
<path d="M231.35 62.9424C231.35 62.9424 226.348 63.3959 221.31 60.5489C221.31 60.5489 223.955 65.6319 231.381 64.7375L231.343 62.9424H231.35Z" fill="#EB996E"/>
<path d="M229.952 53.2929C229.567 52.8142 228.912 52.5622 228.276 52.6504C227.829 52.7134 227.388 52.9402 227.123 53.3055C226.865 53.6771 226.821 54.1936 227.073 54.5337C227.363 54.9179 227.942 54.9935 228.427 54.8361C228.912 54.6849 229.328 54.3511 229.718 54.0172C229.826 53.9228 229.939 53.8283 230.002 53.7086C230.065 53.5826 230.077 53.4252 229.989 53.3244" fill="#EB996E"/>
<path d="M227.319 51.5986C227.483 51.586 227.514 52.7008 228.49 53.463C229.467 54.2314 230.651 54.0739 230.663 54.2314C230.682 54.3007 230.405 54.4581 229.901 54.4833C229.41 54.5148 228.686 54.3763 228.087 53.9039C227.495 53.4315 227.224 52.7953 227.174 52.3355C227.117 51.8694 227.237 51.5923 227.313 51.5986H227.319Z" fill="#263238"/>
<path d="M226.481 40.1791C226.386 40.4625 225.36 40.3554 224.157 40.5318C222.953 40.683 221.99 41.0609 221.82 40.8153C221.744 40.6956 221.908 40.431 222.292 40.1476C222.676 39.8705 223.287 39.5933 224.012 39.4925C224.736 39.3918 225.397 39.4925 225.845 39.6563C226.292 39.8201 226.519 40.0342 226.481 40.1728V40.1791Z" fill="#263238"/>
<path d="M236.061 38.3462C235.884 38.5855 235.173 38.3588 234.322 38.3714C233.472 38.3525 232.754 38.5666 232.584 38.3273C232.508 38.2139 232.615 37.9746 232.924 37.7478C233.226 37.5211 233.743 37.3258 234.329 37.3258C234.914 37.3258 235.425 37.5274 235.727 37.7604C236.035 37.9935 236.136 38.2328 236.061 38.3462Z" fill="#263238"/>
<path d="M211.44 35.959C212.611 31.6004 218.563 25.3836 223.073 25.4907L230.449 29.4714C230.128 31.9405 228.333 34.1513 225.989 34.9827C224.736 35.4299 223.212 35.6 222.506 36.7275C221.788 37.8801 222.311 39.48 221.643 40.6641C220.724 42.3018 218.003 42.3522 217.335 44.1095C217.045 44.8779 217.253 45.766 216.951 46.5345C216.541 47.5485 214.085 48.9279 213.027 48.6445C211.969 48.3611 211.887 46.5848 211.503 45.6715C210.848 44.1095 211.049 43.2781 211.2 42.3774C211.559 40.2547 210.879 38.0376 211.44 35.959Z" fill="#263238"/>
<path d="M216.144 49.3814C216.125 48.8271 215.451 47.5359 214.903 47.4666C213.436 47.2777 210.803 47.4666 210.879 51.1765C210.979 56.2532 216.056 55.1006 216.062 54.9557C216.062 54.8423 216.201 51.2899 216.144 49.3751V49.3814Z" fill="#FFBE9D"/>
<path d="M214.469 53.0661C214.469 53.0661 214.38 53.1291 214.236 53.1984C214.091 53.2677 213.839 53.3181 213.574 53.2236C213.033 53.0346 212.566 52.1969 212.522 51.2836C212.497 50.8238 212.585 50.3829 212.743 50.0113C212.888 49.6397 213.127 49.3751 213.392 49.3184C213.656 49.2492 213.851 49.4066 213.921 49.5515C213.99 49.6901 213.958 49.7971 213.99 49.8034C214.003 49.816 214.097 49.7153 214.053 49.5074C214.028 49.4066 213.971 49.2869 213.845 49.1925C213.719 49.098 213.543 49.0476 213.354 49.0728C212.963 49.1106 212.617 49.4759 212.447 49.879C212.252 50.2821 212.144 50.7797 212.17 51.3025C212.22 52.3229 212.768 53.274 213.505 53.4693C213.864 53.5574 214.16 53.4441 214.311 53.3181C214.469 53.1921 214.488 53.0787 214.475 53.0661H214.469Z" fill="#EB996E"/>
<path d="M210.268 34.7181C210.179 33.1309 208.132 32.2302 206.57 31.9719C205.008 31.7137 203.402 32.2932 202.067 33.1435C201.286 33.6411 200.505 34.3276 200.385 35.2472C200.265 36.1668 201.21 37.1935 202.054 36.8093C200.429 37.4896 199.73 39.7634 200.7 41.2309C201.67 42.6985 204.032 42.9694 205.298 41.7474C204.958 43.2276 204.101 44.5818 202.904 45.514C205.531 45.7156 208.22 44.4244 209.707 42.245C211.193 40.0657 211.414 37.0927 210.274 34.7181H210.268Z" fill="#263238"/>
<path d="M201.437 56.4611C201.462 56.2217 202.092 56.1083 202.999 55.8375C203.906 55.573 205.096 55.1006 206.179 54.2565C207.256 53.4125 208.006 52.3669 208.478 51.5544C208.957 50.7419 209.222 50.1561 209.461 50.1876C209.675 50.2128 209.839 50.9057 209.587 51.989C209.341 53.0598 208.592 54.5085 207.219 55.5793C205.846 56.6563 204.258 57.0342 203.162 57.009C202.047 56.9964 201.418 56.6689 201.443 56.4548L201.437 56.4611Z" fill="#263238"/>
<path d="M207.282 42.9946C207.245 43.0009 207.075 42.434 206.993 41.4892C206.911 40.5444 206.967 39.2091 207.339 37.7982C207.717 36.3873 208.328 35.2031 208.87 34.4221C209.411 33.6348 209.84 33.2317 209.865 33.2568C209.966 33.3135 208.372 35.1087 207.66 37.8801C206.904 40.6452 207.396 42.9883 207.282 42.9883V42.9946Z" fill="#FF725E"/>
<path d="M228.88 28.0353C229.478 30.0634 232.785 32.501 234.265 34.019C237.087 36.9101 237.673 37.8926 238.095 44.733C239.178 42.2891 239.978 39.9082 239.707 37.2502C239.436 34.5922 238.284 31.9845 236.3 30.1831C234.322 28.388 231.494 27.4747 228.88 28.0353Z" fill="#263238"/>
<path d="M261.973 87.2677C261.973 87.2677 258.585 101.345 257.187 107.423C255.706 113.886 252.5 128.543 243.903 126.42C237.365 124.808 238.82 116.367 238.82 116.367L244.4 96.9865L249.565 97.5723L254.308 85.9009L259.416 80.5156L261.967 87.2677H261.973Z" fill="#FFBE9D"/>
<path d="M241.107 116.852C241.188 116.846 240.596 115.668 240.936 113.716C241.1 112.758 241.491 111.644 242.146 110.529C242.795 109.407 243.689 108.286 244.64 107.115C245.597 105.95 246.479 104.784 247.147 103.644C247.821 102.51 248.312 101.421 248.671 100.495C249.03 99.5627 249.244 98.788 249.383 98.2463C249.515 97.7046 249.559 97.4023 249.54 97.396C249.515 97.3897 249.427 97.6857 249.251 98.2085C249.081 98.7313 248.822 99.4934 248.444 100.4C248.06 101.307 247.556 102.366 246.876 103.48C246.208 104.595 245.333 105.729 244.376 106.901C243.424 108.072 242.524 109.219 241.869 110.377C241.214 111.536 240.836 112.689 240.697 113.691C240.546 114.692 240.659 115.517 240.792 116.059C240.867 116.33 240.936 116.538 240.999 116.67C241.056 116.802 241.094 116.871 241.107 116.865V116.852Z" fill="#EB996E"/>
<path d="M253.911 86.9591C253.911 86.7135 254.037 82.613 254.119 81.536C254.157 81.0321 254.339 80.2511 254.68 79.5897C255.177 78.6323 256.449 78.4118 257.249 79.1362L257.344 79.2181C257.344 79.2181 258.169 77.5615 259.372 76.7805C260.569 75.9932 261.564 75.4578 262.597 76.075C263.63 76.6923 263.592 77.5615 263.592 77.5615C263.592 77.5615 265.123 77.3537 265.784 77.9772C266.445 78.5945 265.784 80.4589 265.784 80.4589C265.784 80.4589 267.151 80.0432 267.478 81.0384C267.812 82.0336 267.189 83.0665 267.189 83.0665C267.189 83.0665 268.266 83.4004 268.385 84.1814C268.511 84.9687 267.308 85.8379 267.308 85.8379L263.58 88.8046C263.038 90.4738 262.043 91.7083 260.701 92.6153C258.106 93.6168 253.917 86.9591 253.917 86.9591H253.911Z" fill="#FFBE9D"/>
<path d="M256.758 82.5248C256.796 82.5437 256.79 82.6823 256.683 82.8776C256.575 83.0665 256.349 83.2996 256.028 83.4256C255.7 83.5515 255.379 83.5263 255.171 83.457C254.963 83.3878 254.862 83.287 254.881 83.2492C254.919 83.161 255.391 83.3122 255.908 83.1106C256.424 82.9154 256.676 82.4808 256.758 82.5248Z" fill="#EB996E"/>
<path d="M259.718 78.8591C259.662 78.9346 259.309 78.6827 259.24 78.1977C259.17 77.7064 259.447 77.3726 259.523 77.4293C259.605 77.4734 259.523 77.782 259.573 78.1536C259.617 78.5252 259.788 78.7961 259.718 78.8654V78.8591Z" fill="#EB996E"/>
<path d="M265.961 80.4526C265.961 80.4526 265.696 80.8368 265.129 81.3218C264.569 81.8068 263.743 82.4052 262.805 83.0288C262.345 83.3374 261.854 83.6523 261.318 83.7216C260.796 83.7909 260.273 83.6082 260.034 83.2555C259.794 82.9028 259.832 82.5312 259.933 82.3359C260.034 82.128 260.166 82.084 260.172 82.0965C260.191 82.1154 260.103 82.1973 260.052 82.38C260.002 82.5563 260.015 82.8587 260.223 83.1106C260.424 83.3563 260.84 83.4886 261.274 83.4193C261.715 83.35 262.156 83.0665 262.616 82.7579C263.548 82.1406 264.392 81.5801 264.978 81.1455C265.57 80.7171 265.923 80.4274 265.954 80.4652L265.961 80.4526Z" fill="#EB996E"/>
<path d="M267.157 83.0854C267.195 83.1673 265.601 83.9798 263.598 84.8932C263.107 85.1199 262.584 85.3593 262.055 85.3467C261.532 85.3467 261.047 85.0569 260.896 84.6601C260.814 84.4711 260.82 84.257 260.896 84.1058C260.959 83.9547 261.066 83.8539 261.167 83.7972C261.375 83.6838 261.507 83.7468 261.501 83.7594C261.501 83.7846 261.381 83.7846 261.242 83.9043C261.11 84.0176 260.972 84.2822 261.123 84.5656C261.255 84.8491 261.627 85.0569 262.061 85.038C262.502 85.038 262.962 84.8239 263.466 84.5908C265.469 83.6775 267.125 83.0036 267.163 83.0854H267.157Z" fill="#EB996E"/>
<path d="M265.343 86.4426C265.362 86.4804 265.141 86.6316 264.732 86.7387C264.524 86.789 264.272 86.8268 263.989 86.8142C263.705 86.7953 263.403 86.7953 263.063 86.6064C262.893 86.5119 262.76 86.2725 262.792 86.071C262.817 85.8694 262.911 85.7309 263 85.6112C263.182 85.3844 263.365 85.2207 263.535 85.0884C263.875 84.8365 264.127 84.7546 264.146 84.7924C264.171 84.8365 263.97 84.9876 263.692 85.2648C263.554 85.4033 263.396 85.586 263.252 85.7875C263.107 86.0017 263.056 86.2096 263.252 86.3166C263.453 86.4363 263.768 86.4741 264.014 86.4993C264.272 86.5245 264.505 86.5119 264.7 86.4993C265.091 86.4615 265.336 86.3922 265.355 86.4426H265.343Z" fill="#EB996E"/>
<path d="M261.796 87.0662C261.859 85.3781 260.543 83.9609 258.861 83.898C257.173 83.835 255.756 85.1514 255.693 86.8331C255.636 88.2755 256.594 89.5163 257.923 89.888L257.891 90.7383L258.722 91.3619L257.847 91.8468L257.809 92.9113L258.641 93.5349L257.765 94.0199L257.734 94.9332L258.244 95.3174L257.708 95.6134L257.689 96.1425L258.319 96.8606L259.579 96.111L259.818 89.7935C260.933 89.3715 261.746 88.3133 261.79 87.0536L261.796 87.0662ZM258.83 84.7231C259.315 84.742 259.692 85.1451 259.674 85.6301C259.655 86.1151 259.252 86.493 258.767 86.4741C258.282 86.4552 257.904 86.0521 257.923 85.5671C257.941 85.0821 258.345 84.7042 258.83 84.7231Z" fill="#263238"/>
<path d="M258.83 84.7231C258.83 84.7231 258.755 84.7231 258.616 84.7546C258.484 84.7861 258.295 84.8679 258.137 85.0569C257.986 85.2396 257.892 85.5482 257.993 85.8505C258.087 86.1529 258.389 86.4174 258.761 86.43C259.133 86.4489 259.454 86.2033 259.573 85.9072C259.699 85.6112 259.63 85.2963 259.492 85.101C259.353 84.8994 259.17 84.805 259.038 84.7609C258.906 84.7168 258.83 84.7168 258.83 84.7105C258.83 84.7105 258.849 84.7105 258.887 84.7105C258.925 84.7105 258.981 84.7168 259.044 84.7357C259.177 84.7672 259.378 84.8616 259.529 85.0695C259.681 85.2711 259.762 85.6112 259.636 85.9324C259.573 86.0899 259.46 86.241 259.303 86.3481C259.151 86.4552 258.956 86.5119 258.755 86.5056C258.559 86.4993 258.364 86.4237 258.219 86.304C258.074 86.1907 257.967 86.0332 257.917 85.8694C257.81 85.5356 257.917 85.2081 258.087 85.0191C258.257 84.8238 258.459 84.742 258.597 84.7231C258.666 84.7105 258.723 84.7105 258.761 84.7105C258.799 84.7105 258.818 84.7105 258.818 84.7168L258.83 84.7231Z" fill="#263238"/>
<path d="M261.797 87.0662C261.797 87.0662 261.797 87.0851 261.797 87.1292L261.784 87.3118C261.765 87.4693 261.734 87.7023 261.633 87.9921C261.532 88.2818 261.356 88.622 261.066 88.9621C260.776 89.2959 260.367 89.6234 259.831 89.8313L259.844 89.8124C259.787 91.4437 259.705 93.6105 259.617 96.1299V96.1488L259.598 96.1614C259.202 96.3945 258.773 96.6527 258.339 96.911L258.313 96.9236L258.295 96.8984C258.099 96.6716 257.879 96.4323 257.665 96.1803L257.652 96.1677V96.1551C257.658 95.9914 257.665 95.8087 257.671 95.626V95.6071L257.69 95.5946C257.854 95.5001 258.036 95.3993 258.225 95.2985V95.3615C258.061 95.2418 257.891 95.1095 257.715 94.9773L257.702 94.9647V94.9458C257.715 94.6561 257.728 94.3474 257.734 94.0325V94.0136L257.753 94.001C258.03 93.8498 258.326 93.6798 258.628 93.5097V93.5727C258.357 93.3711 258.074 93.1633 257.791 92.9491L257.772 92.9365V92.9176L257.784 92.6342C257.797 92.3696 257.803 92.1114 257.816 91.8532V91.8343L257.835 91.8217C258.131 91.6579 258.42 91.4941 258.71 91.3367V91.3997C258.427 91.1855 258.15 90.9776 257.873 90.7698L257.86 90.7572V90.7383C257.873 90.4549 257.885 90.1714 257.891 89.888L257.917 89.9258C257.444 89.7872 257.003 89.5478 256.657 89.2203C256.481 89.0566 256.323 88.8802 256.197 88.6849C256.065 88.496 255.958 88.2818 255.876 88.0677C255.536 87.2111 255.63 86.2537 256.021 85.523C256.405 84.7798 257.073 84.2633 257.765 84.0365C258.458 83.7972 259.17 83.8476 259.75 84.0365C260.329 84.2444 260.789 84.5908 261.091 84.9624C261.406 85.3341 261.582 85.7183 261.677 86.0395L261.715 86.1592L261.74 86.2726C261.752 86.3481 261.771 86.4111 261.778 86.4741C261.79 86.6001 261.809 86.7135 261.809 86.7953C261.803 86.7072 261.784 86.6001 261.765 86.4741C261.759 86.4111 261.74 86.3418 261.721 86.2726L261.696 86.1592L261.658 86.0458C261.557 85.7309 261.381 85.3529 261.066 84.9876C260.764 84.6223 260.31 84.2822 259.737 84.0869C259.164 83.898 258.465 83.8539 257.784 84.0869C257.104 84.3137 256.455 84.8239 256.084 85.5545C255.706 86.2726 255.618 87.2047 255.945 88.0488C256.027 88.2566 256.128 88.4582 256.26 88.6471C256.386 88.8361 256.543 89.0125 256.714 89.1699C257.054 89.4912 257.482 89.7242 257.948 89.8565H257.973V89.8943C257.961 90.1714 257.954 90.4549 257.942 90.7446L257.929 90.7131C258.206 90.921 258.483 91.1288 258.761 91.3367L258.805 91.3745L258.754 91.4059C258.465 91.5697 258.175 91.7272 257.879 91.8972L257.898 91.8658C257.885 92.124 257.879 92.3822 257.866 92.6468L257.854 92.9302L257.841 92.8987C258.124 93.1129 258.408 93.327 258.672 93.5223L258.717 93.5601L258.666 93.5916C258.364 93.7616 258.068 93.9254 257.791 94.0766L257.81 94.0451C257.797 94.36 257.784 94.6686 257.778 94.9584L257.765 94.9269C257.942 95.0592 258.112 95.1914 258.269 95.3111L258.313 95.3426L258.263 95.3678C258.08 95.4686 257.898 95.5694 257.728 95.6638L257.747 95.6323C257.74 95.815 257.734 95.9977 257.728 96.1614V96.1362C257.935 96.3882 258.156 96.6338 258.351 96.8543H258.307C258.748 96.5897 259.176 96.3315 259.573 96.0984L259.554 96.1236C259.655 93.6105 259.737 91.4374 259.8 89.8061V89.7935H259.812C260.342 89.5856 260.745 89.2644 261.034 88.9369C261.324 88.6031 261.494 88.2629 261.601 87.9795C261.708 87.6897 261.74 87.4567 261.765 87.3055L261.784 87.1292C261.784 87.0914 261.79 87.0662 261.79 87.0662H261.797Z" fill="#263238"/>
<path d="M261.482 86.8898C261.545 85.2018 260.228 83.7846 258.547 83.7216C256.865 83.6586 255.441 84.975 255.378 86.6568C255.322 88.0992 256.279 89.34 257.608 89.7116L257.577 90.5619L258.408 91.1855L257.532 91.6768L257.495 92.7413L258.326 93.3648L257.451 93.8498L257.419 94.7631L257.929 95.1473L257.394 95.4434L257.375 95.9725L258.005 96.6905L259.265 95.941L259.504 89.6234C260.619 89.2014 261.431 88.1432 261.475 86.8835L261.482 86.8898ZM258.515 84.5467C259 84.5656 259.378 84.9687 259.359 85.4537C259.34 85.9387 258.937 86.3166 258.452 86.2977C257.967 86.2788 257.589 85.8757 257.608 85.3907C257.627 84.9057 258.03 84.5278 258.515 84.5467Z" fill="#F9D46B"/>
<path d="M258.516 84.5467C258.516 84.5467 258.44 84.5467 258.302 84.5782C258.169 84.6097 257.98 84.6916 257.823 84.8805C257.672 85.0632 257.577 85.3718 257.678 85.6742C257.773 85.9765 258.075 86.241 258.446 86.2536C258.818 86.2725 259.139 86.0269 259.259 85.7309C259.385 85.4348 259.316 85.1199 259.177 84.9246C259.039 84.7231 258.856 84.6286 258.724 84.5845C258.591 84.5404 258.516 84.5404 258.516 84.5341C258.516 84.5341 258.535 84.5341 258.572 84.5341C258.61 84.5341 258.667 84.5404 258.73 84.5593C258.862 84.5908 259.064 84.6853 259.215 84.8931C259.366 85.0947 259.448 85.4348 259.322 85.756C259.259 85.9135 259.146 86.0647 258.988 86.1718C258.837 86.2788 258.642 86.3355 258.44 86.3292C258.245 86.3229 258.05 86.2473 257.905 86.1277C257.76 86.0143 257.653 85.8568 257.602 85.6931C257.495 85.3592 257.602 85.0317 257.773 84.8427C257.943 84.6475 258.144 84.5656 258.283 84.5467C258.352 84.5341 258.409 84.5341 258.446 84.5341C258.484 84.5341 258.503 84.5341 258.503 84.5404L258.516 84.5467Z" fill="#263238"/>
<path d="M261.482 86.8898C261.482 86.8898 261.482 86.9087 261.482 86.9528L261.47 87.1355C261.451 87.2929 261.419 87.526 261.318 87.8157C261.218 88.1055 261.041 88.4456 260.751 88.7857C260.462 89.1195 260.052 89.4471 259.517 89.6549L259.53 89.636C259.473 91.2674 259.391 93.4341 259.303 95.9536V95.9725L259.284 95.9851C258.887 96.2181 258.459 96.4764 258.024 96.7346L257.999 96.7472L257.98 96.722C257.785 96.4953 257.564 96.2559 257.35 96.004L257.338 95.9914V95.9788C257.344 95.815 257.35 95.6323 257.356 95.4497V95.4308L257.375 95.4182C257.539 95.3237 257.722 95.2229 257.911 95.1222V95.1851C257.747 95.0655 257.577 94.9332 257.401 94.8009L257.388 94.7883V94.7694C257.401 94.4797 257.413 94.1711 257.419 93.8561V93.8372L257.438 93.8246C257.716 93.6735 258.012 93.5034 258.314 93.3333V93.3963C258.043 93.1948 257.76 92.9869 257.476 92.7728L257.457 92.7602V92.7413L257.47 92.4578C257.482 92.1933 257.489 91.935 257.501 91.6768V91.6579L257.52 91.6453C257.816 91.4815 258.106 91.3178 258.396 91.1603V91.2233C258.112 91.0091 257.835 90.8013 257.558 90.5934L257.545 90.5808V90.5619C257.558 90.2785 257.571 89.995 257.577 89.7116L257.602 89.7494C257.13 89.6108 256.689 89.3715 256.342 89.044C256.166 88.8802 256.009 88.7038 255.883 88.5086C255.75 88.3196 255.643 88.1055 255.561 87.8913C255.221 87.0347 255.316 86.0773 255.706 85.3467C256.09 84.6034 256.758 84.0869 257.451 83.8602C258.144 83.6208 258.856 83.6712 259.435 83.8602C260.015 84.068 260.474 84.4145 260.777 84.7861C261.092 85.1577 261.268 85.5419 261.362 85.8631L261.4 85.9828L261.425 86.0962C261.438 86.1718 261.457 86.2348 261.463 86.2977C261.476 86.4237 261.495 86.5371 261.495 86.619C261.488 86.5308 261.47 86.4237 261.451 86.2977C261.444 86.2348 261.425 86.1655 261.407 86.0962L261.381 85.9828L261.344 85.8694C261.243 85.5545 261.066 85.1766 260.751 84.8113C260.449 84.4459 259.996 84.1058 259.422 83.9106C258.849 83.7216 258.15 83.6775 257.47 83.9106C256.79 84.1373 256.141 84.6475 255.769 85.3781C255.391 86.0962 255.303 87.0284 255.631 87.8724C255.713 88.0803 255.813 88.2818 255.946 88.4708C256.072 88.6597 256.229 88.8361 256.399 88.9936C256.739 89.3148 257.168 89.5479 257.634 89.6801H257.659V89.7179C257.646 89.9951 257.64 90.2785 257.627 90.5682L257.615 90.5367C257.892 90.7446 258.169 90.9524 258.446 91.1603L258.49 91.1981L258.44 91.2296C258.15 91.3934 257.86 91.5508 257.564 91.7209L257.583 91.6894C257.571 91.9476 257.564 92.2059 257.552 92.4704C257.552 92.5649 257.545 92.6657 257.539 92.7539L257.527 92.7224C257.81 92.9365 258.093 93.1507 258.358 93.3459L258.402 93.3837L258.352 93.4152L257.476 93.9002L257.495 93.8687C257.482 94.1837 257.47 94.4923 257.457 94.782L257.445 94.7505C257.621 94.8828 257.791 95.0151 257.949 95.1347L257.993 95.1662L257.942 95.1914C257.76 95.2922 257.577 95.393 257.407 95.4875L257.426 95.456C257.419 95.6386 257.413 95.8213 257.407 95.9851V95.9599C257.615 96.2118 257.835 96.4575 258.03 96.6779H257.986C258.427 96.4134 258.856 96.1551 259.252 95.9221L259.233 95.9473C259.334 93.4341 259.416 91.2611 259.479 89.6297V89.6171H259.492C260.021 89.4093 260.424 89.088 260.714 88.7605C261.003 88.4267 261.173 88.0866 261.281 87.8031C261.388 87.5134 261.419 87.2803 261.444 87.1292L261.463 86.9528C261.463 86.915 261.47 86.8898 261.47 86.8898H261.482Z" fill="#263238"/>
<path d="M261.117 86.9213C261.117 86.9213 261.129 86.682 261.041 86.2663C261.003 86.0584 260.909 85.8128 260.77 85.5482C260.625 85.2837 260.411 85.0065 260.121 84.7672C259.832 84.5278 259.454 84.3263 259.019 84.2318C258.585 84.1436 258.093 84.1373 257.621 84.2948C257.382 84.3704 257.148 84.4837 256.934 84.6286C256.821 84.6979 256.726 84.7861 256.626 84.8743C256.531 84.9687 256.437 85.0632 256.355 85.1703C256.015 85.5923 255.807 86.1403 255.782 86.7135C255.763 87.2866 255.927 87.8535 256.235 88.3007C256.311 88.4141 256.399 88.5149 256.481 88.6157C256.575 88.7101 256.67 88.8046 256.771 88.8802C256.972 89.044 257.193 89.1762 257.426 89.2644C257.885 89.4597 258.377 89.4912 258.811 89.4345C259.252 89.3715 259.636 89.1951 259.951 88.981C260.26 88.7668 260.493 88.5023 260.657 88.2566C260.821 88.0047 260.928 87.7653 260.984 87.5575C261.104 87.1481 261.091 86.9087 261.104 86.9087C261.104 86.9087 261.104 86.9213 261.104 86.9528V87.0788C261.091 87.1355 261.091 87.2048 261.073 87.2866C261.06 87.3685 261.047 87.463 261.01 87.5638C260.959 87.7716 260.852 88.0173 260.688 88.2755C260.525 88.5338 260.292 88.7983 259.977 89.0251C259.662 89.2455 259.271 89.4282 258.818 89.4975C258.37 89.5605 257.867 89.529 257.394 89.3274C257.155 89.2329 256.928 89.1007 256.72 88.9306C256.613 88.8487 256.519 88.7542 256.418 88.6597C256.33 88.5527 256.235 88.4519 256.16 88.3322C255.838 87.8724 255.675 87.2929 255.687 86.7009C255.712 86.1088 255.927 85.5419 256.279 85.1136C256.361 85.0002 256.462 84.9058 256.556 84.8113C256.663 84.7231 256.764 84.6349 256.878 84.5593C257.098 84.4082 257.337 84.2885 257.583 84.2192C258.068 84.0554 258.572 84.0617 259.013 84.1562C259.46 84.257 259.838 84.4649 260.134 84.7105C260.43 84.9561 260.644 85.2396 260.789 85.5104C260.934 85.7813 261.016 86.0332 261.054 86.2474C261.079 86.3544 261.085 86.4489 261.091 86.5308C261.104 86.6127 261.104 86.682 261.104 86.7387V86.8646V86.9087L261.117 86.9213Z" fill="#263238"/>
<path d="M259.498 85.4726C259.498 85.4726 259.498 85.3781 259.461 85.227C259.423 85.0758 259.328 84.8428 259.108 84.6664C258.994 84.5782 258.856 84.5026 258.692 84.4648C258.528 84.4334 258.346 84.4333 258.169 84.49C257.993 84.5467 257.823 84.6601 257.697 84.8176C257.571 84.975 257.495 85.1829 257.483 85.397C257.483 85.6112 257.539 85.8191 257.653 85.9891C257.766 86.1592 257.924 86.2852 258.1 86.3544C258.27 86.43 258.453 86.4426 258.617 86.4174C258.78 86.3985 258.925 86.3292 259.045 86.2474C259.284 86.0836 259.391 85.8631 259.442 85.712C259.492 85.5608 259.492 85.4663 259.498 85.4663C259.498 85.4663 259.498 85.4915 259.498 85.5293C259.498 85.5734 259.492 85.6364 259.467 85.7183C259.429 85.8757 259.316 86.1088 259.076 86.2852C258.957 86.3733 258.799 86.4426 258.629 86.4678C258.453 86.493 258.258 86.4804 258.075 86.4048C257.892 86.3292 257.716 86.197 257.596 86.0206C257.47 85.8442 257.407 85.6175 257.414 85.3844C257.426 85.1514 257.508 84.9309 257.647 84.7609C257.779 84.5908 257.968 84.4711 258.157 84.4145C258.346 84.3515 258.541 84.3578 258.717 84.3956C258.887 84.4334 259.039 84.5215 259.152 84.616C259.385 84.8113 259.473 85.0506 259.498 85.2144C259.511 85.2963 259.517 85.3592 259.511 85.4033C259.511 85.4474 259.511 85.4663 259.505 85.4663L259.498 85.4726Z" fill="#263238"/>
<path d="M258.887 96.0921C258.887 96.0921 258.906 94.6497 258.969 92.8798C259.038 91.1036 259.107 89.6675 259.126 89.6675C259.145 89.6675 259.107 91.1099 259.044 92.8798C258.975 94.656 258.906 96.0921 258.887 96.0921Z" fill="#263238"/>
<path d="M258.781 84.8491C258.642 84.9184 258.51 84.9184 258.371 84.8491V80.9754L258.781 81.0006V84.8428V84.8491Z" fill="#E0E0E0"/>
<path d="M258.573 84.9184C258.503 84.9184 258.434 84.8995 258.365 84.868H258.358V80.9628L258.799 80.9943V84.8617H258.793C258.724 84.8995 258.654 84.9184 258.579 84.9184H258.573ZM258.384 84.8428C258.51 84.8995 258.636 84.8995 258.762 84.8428V81.0258L258.384 81.0006V84.8428Z" fill="#263238"/>
<path d="M257.023 79.0732C257.338 79.3944 257.754 79.6023 258.119 79.8731C258.478 80.1503 258.8 80.5471 258.781 81.0006C258.762 81.4667 258.39 81.8509 257.974 82.0651C257.395 82.3674 256.689 82.4367 256.06 82.2477C255.43 82.0588 254.882 81.6179 254.561 81.0447" fill="#FFBE9D"/>
<path d="M254.56 81.0384C254.611 81.0069 254.825 81.4226 255.417 81.8005C255.713 81.9832 256.097 82.147 256.551 82.1784C256.998 82.2162 257.514 82.1218 257.962 81.8698C258.409 81.6179 258.705 81.177 258.604 80.7739C258.51 80.3644 258.182 80.0684 257.905 79.8605C257.313 79.4574 256.973 79.1047 257.023 79.0669C257.055 79.048 257.395 79.3 258.037 79.6653C258.339 79.8668 258.749 80.1629 258.9 80.7046C258.976 80.9754 258.925 81.2966 258.768 81.5486C258.617 81.8068 258.384 82.0084 258.125 82.1596C257.603 82.4556 257.023 82.5438 256.519 82.4871C256.009 82.4304 255.581 82.2225 255.278 81.9958C254.667 81.5234 254.522 81.0447 254.56 81.0321V81.0384Z" fill="#EB996E"/>
<path d="M260.877 77.467C260.184 78.3425 259.478 79.2306 258.993 80.2384C258.842 80.5534 258.71 80.8872 258.71 81.2336C258.71 81.58 258.867 81.9454 259.17 82.1091C259.428 82.2477 259.756 82.2225 260.026 82.1091C260.297 81.9957 260.524 81.7942 260.744 81.5926C261.607 80.8053 262.401 79.9361 263.088 78.9913C263.258 78.7645 263.415 78.5252 263.503 78.2544C263.591 77.9835 263.591 77.6749 263.447 77.4292" fill="#FFBE9D"/>
<path d="M263.459 77.4229C263.459 77.4229 263.623 77.5552 263.642 77.8953C263.674 78.2355 263.459 78.7079 263.126 79.1551C262.798 79.6212 262.382 80.1503 261.878 80.7045C261.627 80.9817 261.349 81.2651 261.053 81.5423C260.757 81.8131 260.455 82.1406 259.983 82.3044C259.756 82.38 259.498 82.3989 259.252 82.3233C259.006 82.2477 258.811 82.0587 258.704 81.8509C258.471 81.4289 258.546 80.9502 258.679 80.5912C258.968 79.8668 259.353 79.3125 259.68 78.8527C260.36 77.9457 260.845 77.4481 260.877 77.4733C260.921 77.5048 260.493 78.0654 259.875 78.9913C259.573 79.4574 259.22 80.0306 258.968 80.6982C258.855 81.0258 258.817 81.3974 258.987 81.6997C259.145 82.0084 259.51 82.1154 259.875 81.9895C260.228 81.8698 260.524 81.5738 260.827 81.3029C261.123 81.0321 261.393 80.7612 261.652 80.4904C262.162 79.9613 262.59 79.4511 262.937 79.0102C263.296 78.5756 263.504 78.1914 263.516 77.889C263.541 77.593 263.441 77.4355 263.466 77.4229H263.459Z" fill="#EB996E"/>
<path d="M273.386 279.836C273.386 279.924 212.182 280 136.7 280C61.2165 280 0 279.924 0 279.836C0 279.748 61.1913 279.672 136.7 279.672C212.208 279.672 273.386 279.748 273.386 279.836Z" fill="#263238"/>
</g>
<defs>
<clipPath id="clip0_208_1818">
<rect width="288.138" height="280" fill="white"/>
</clipPath>
</defs>
</svg>
