<svg width="388" height="328" viewBox="0 0 388 328" fill="none" xmlns="http://www.w3.org/2000/svg">
<path d="M319.733 123.798H376.798C384.69 123.798 389.968 115.69 386.825 108.454C383.035 99.7495 374.967 95.03 367.692 101.561C356.735 111.401 357.244 92.3275 344.143 95.0006C332.677 97.3408 334.254 108.63 327.233 110.951C320.203 113.272 310.529 121.193 319.743 123.798H319.733Z" fill="#FAFAFA"/>
<path d="M229.318 21.2116H270.971C276.728 21.2116 280.586 15.2975 278.285 10.0101C275.524 3.65536 269.629 0.21853 264.322 4.97722C256.323 12.1544 256.695 -1.75936 247.128 0.189155C238.757 1.90267 239.912 10.1374 234.781 11.8313C229.65 13.5252 222.591 19.312 229.308 21.2018L229.318 21.2116Z" fill="#FAFAFA"/>
<path d="M311.754 287.669H304.9V68.4852C304.9 56.2164 314.888 46.2291 327.157 46.2291H333.208V53.0831H327.157C318.667 53.0831 311.754 59.9862 311.754 68.4852V287.669Z" fill="#F0F0F0"/>
<path d="M359.194 11.0383H333.207V84.4552H359.194V11.0383Z" fill="#EBEBEB"/>
<path d="M333.207 84.4454H359.194V84.5825C359.194 87.3731 356.922 89.6447 354.132 89.6447H338.269C335.479 89.6447 333.207 87.3731 333.207 84.5825V84.4454Z" fill="#E6E6E6"/>
<path d="M346.199 34.2736C350.65 34.2736 354.257 30.6657 354.257 26.2152C354.257 21.7646 350.65 18.1567 346.199 18.1567C341.749 18.1567 338.141 21.7646 338.141 26.2152C338.141 30.6657 341.749 34.2736 346.199 34.2736Z" fill="#F0F0F0"/>
<path d="M346.199 32.3153C350.65 32.3153 354.257 28.7074 354.257 24.2569C354.257 19.8063 350.65 16.1984 346.199 16.1984C341.749 16.1984 338.141 19.8063 338.141 24.2569C338.141 28.7074 341.749 32.3153 346.199 32.3153Z" fill="#FAFAFA"/>
<path d="M346.199 56.3046C350.65 56.3046 354.257 52.6967 354.257 48.2461C354.257 43.7956 350.65 40.1877 346.199 40.1877C341.749 40.1877 338.141 43.7956 338.141 48.2461C338.141 52.6967 341.749 56.3046 346.199 56.3046Z" fill="#F0F0F0"/>
<path d="M346.199 54.3462C350.65 54.3462 354.257 50.7384 354.257 46.2878C354.257 41.8373 350.65 38.2294 346.199 38.2294C341.749 38.2294 338.141 41.8373 338.141 46.2878C338.141 50.7384 341.749 54.3462 346.199 54.3462Z" fill="#FAFAFA"/>
<path d="M346.199 78.3355C350.65 78.3355 354.257 74.7276 354.257 70.2771C354.257 65.8265 350.65 62.2186 346.199 62.2186C341.749 62.2186 338.141 65.8265 338.141 70.2771C338.141 74.7276 341.749 78.3355 346.199 78.3355Z" fill="#F0F0F0"/>
<path d="M346.199 76.3772C350.65 76.3772 354.257 72.7693 354.257 68.3188C354.257 63.8682 350.65 60.2603 346.199 60.2603C341.749 60.2603 338.141 63.8682 338.141 68.3188C338.141 72.7693 341.749 76.3772 346.199 76.3772Z" fill="#FAFAFA"/>
<path d="M377.581 223.563H332.354V243.303H377.581V223.563Z" fill="#EBEBEB"/>
<path d="M335.499 220.832H329.203V246.035H335.499V220.832Z" fill="#F5F5F5"/>
<path d="M380.726 220.832H374.43V246.035H380.726V220.832Z" fill="#F5F5F5"/>
<path d="M328.085 230.281H332.355V236.576H328.085C326.959 236.576 326.049 235.666 326.049 234.54V232.307C326.049 231.181 326.959 230.271 328.085 230.271V230.281Z" fill="#F5F5F5"/>
<path d="M381.85 236.586H377.581V230.29H381.85C382.976 230.29 383.887 231.201 383.887 232.327V234.559C383.887 235.685 382.976 236.596 381.85 236.596V236.586Z" fill="#F5F5F5"/>
<path d="M367.115 279.277H342.812V211.07C342.812 204.362 348.257 198.918 354.964 198.918C361.671 198.918 367.115 204.362 367.115 211.07V279.277Z" fill="#F5F5F5"/>
<path d="M344.448 275.214H365.49C368.809 275.214 371.511 277.907 371.511 281.236V287.669H338.436V281.236C338.436 277.916 341.128 275.214 344.457 275.214H344.448Z" fill="#EBEBEB"/>
<path d="M354.963 243.793C360.706 243.793 365.362 239.137 365.362 233.394C365.362 227.651 360.706 222.996 354.963 222.996C349.22 222.996 344.564 227.651 344.564 233.394C344.564 239.137 349.22 243.793 354.963 243.793Z" fill="#FAFAFA"/>
<path d="M357.441 233.394C357.441 234.765 356.334 235.871 354.964 235.871C353.593 235.871 352.486 234.765 352.486 233.394C352.486 232.023 353.593 230.917 354.964 230.917C356.334 230.917 357.441 232.023 357.441 233.394Z" fill="#EBEBEB"/>
<path d="M338.426 214.536C338.426 212.793 339.836 211.383 341.579 211.383H368.359C370.101 211.383 371.511 212.793 371.511 214.536C371.511 216.279 370.101 217.689 368.359 217.689H341.579C339.836 217.689 338.426 216.279 338.426 214.536Z" fill="#F0F0F0"/>
<path d="M349.674 249.443C351.417 249.443 352.827 250.852 352.827 252.595V268.879C352.827 270.622 351.417 272.032 349.674 272.032C347.931 272.032 346.521 270.622 346.521 268.879V252.595C346.521 250.852 347.931 249.443 349.674 249.443Z" fill="#EBEBEB"/>
<path d="M360.251 249.443C361.993 249.443 363.403 250.852 363.403 252.595V268.879C363.403 270.622 361.993 272.032 360.251 272.032C358.508 272.032 357.098 270.622 357.098 268.879V252.595C357.098 250.852 358.508 249.443 360.251 249.443Z" fill="#EBEBEB"/>
<path d="M20.326 287.816H17.9173C17.2123 287.816 16.6444 287.228 16.6836 286.523L19.2783 227.353H25.4666L21.5597 286.66C21.5206 287.316 20.9722 287.816 20.326 287.816Z" fill="#F0F0F0"/>
<path d="M30.4412 287.816H28.0325C27.3275 287.816 26.7596 287.228 26.7988 286.523L29.3935 227.353H35.5818L31.675 286.66C31.6358 287.316 31.0875 287.816 30.4412 287.816Z" fill="#F0F0F0"/>
<path d="M58.5429 287.816H60.9516C61.6566 287.816 62.2245 287.228 62.1853 286.523L59.5906 227.353H53.4023L57.3092 286.66C57.3483 287.316 57.8967 287.816 58.5429 287.816Z" fill="#F0F0F0"/>
<path d="M68.5117 287.816H70.9204C71.6254 287.816 72.1933 287.228 72.1541 286.523L69.5593 227.353H63.3711L67.2779 286.66C67.3171 287.316 67.8654 287.816 68.5117 287.816Z" fill="#F0F0F0"/>
<path d="M35.8459 192.544H30.5977V220.274H35.8459V192.544Z" fill="#F0F0F0"/>
<path d="M59.051 192.544H53.8027V220.274H59.051V192.544Z" fill="#F0F0F0"/>
<path d="M76.8239 226.178C76.8239 232.307 62.6458 231.739 45.1483 231.739C27.6508 231.739 13.4727 232.317 13.4727 226.178C13.4727 220.039 27.6508 215.074 45.1483 215.074C62.6458 215.074 76.8239 220.048 76.8239 226.178Z" fill="#F5F5F5"/>
<path d="M60.2182 195.56H30.0896C25.3309 195.56 21.3653 191.898 20.9933 187.149L20.0533 175.115C19.642 169.818 23.8328 165.284 29.1496 165.284H61.1679C66.4847 165.284 70.6755 169.818 70.2643 175.115L69.3243 187.149C68.9522 191.898 64.9964 195.56 60.2279 195.56H60.2182Z" fill="#F5F5F5"/>
<path d="M52.4535 81.6548H16.8809V109.698H52.4535V81.6548Z" fill="#F0F0F0"/>
<path d="M16.8918 81.6548H14.9727V109.698H16.8918V81.6548Z" fill="#E0E0E0"/>
<path d="M48.8327 84.5139H20.5156V106.839H48.8327V84.5139Z" fill="#FAFAFA"/>
<path d="M46.5001 86.3547H22.8438V105.008H46.5001V86.3547Z" fill="#EBEBEB"/>
<path d="M98.9435 36.1437H59.7871V85.7966H98.9435V36.1437Z" fill="#EBEBEB"/>
<path d="M59.7862 36.1437H57.916V85.7966H59.7862V36.1437Z" fill="#E0E0E0"/>
<path d="M94.9477 41.2059H63.7812V80.7344H94.9477V41.2059Z" fill="#F5F5F5"/>
<path d="M92.3814 44.4567H66.3457V77.4836H92.3814V44.4567Z" fill="#FAFAFA"/>
<path d="M74.2207 56.1185C74.2207 56.1185 78.8227 62.6299 81.1825 62.5222C83.3464 62.4242 87.028 56.1185 87.028 56.1185C87.028 56.1185 82.426 49.6071 80.0662 49.7148C77.9023 49.8127 74.2207 56.1185 74.2207 56.1185Z" fill="#EBEBEB"/>
<path d="M86.2527 70.5316C87.6137 67.9075 80.4952 62.3948 77.548 62.5221C74.8357 62.6396 69.186 68.0348 70.2435 70.5316C71.8004 74.223 84.4217 74.0859 86.2625 70.5316H86.2527Z" fill="#F0F0F0"/>
<path d="M27.7694 66.85C37.5304 66.85 45.4431 55.8159 45.4431 42.2047C45.4431 28.5935 37.5304 17.5594 27.7694 17.5594C18.0085 17.5594 10.0957 28.5935 10.0957 42.2047C10.0957 55.8159 18.0085 66.85 27.7694 66.85Z" fill="#E0E0E0"/>
<path d="M29.8749 66.85C39.6358 66.85 47.5486 55.8159 47.5486 42.2047C47.5486 28.5935 39.6358 17.5594 29.8749 17.5594C20.114 17.5594 12.2012 28.5935 12.2012 42.2047C12.2012 55.8159 20.114 66.85 29.8749 66.85Z" fill="#EBEBEB"/>
<path d="M29.8758 63.1977C38.1929 63.1977 44.9352 53.7988 44.9352 42.2047C44.9352 30.6105 38.1929 21.2116 29.8758 21.2116C21.5587 21.2116 14.8164 30.6105 14.8164 42.2047C14.8164 53.7988 21.5587 63.1977 29.8758 63.1977Z" fill="#E6E6E6"/>
<path d="M29.8754 60.9653C37.3056 60.9653 43.329 52.5659 43.329 42.2047C43.329 31.8435 37.3056 23.4441 29.8754 23.4441C22.4452 23.4441 16.4219 31.8435 16.4219 42.2047C16.4219 52.5659 22.4452 60.9653 29.8754 60.9653Z" fill="#FAFAFA"/>
<path d="M34.096 52.4075C34.096 52.4075 38.7372 48.3244 38.2476 41.9599C38.2476 41.9599 32.6958 41.3039 32.8623 50.6058C32.8623 50.6058 26.6055 44.114 28.4561 40.0016C30.3818 35.7194 30.6657 32.2369 29.308 29.554C29.308 29.554 23.8541 31.7571 26.3411 39.1791C26.3411 39.1791 26.4391 42.7726 27.2028 44.8876C27.2028 44.8876 21.7097 39.6295 19.9473 43.0761C19.9473 43.0761 22.8749 48.6475 27.2028 46.3269C27.2028 46.3269 32.079 54.8553 34.1058 52.3977L34.096 52.4075Z" fill="#EBEBEB"/>
<path d="M189.848 328C294.698 328 379.696 323.037 379.696 316.916C379.696 310.794 294.698 305.832 189.848 305.832C84.9979 305.832 0 310.794 0 316.916C0 323.037 84.9979 328 189.848 328Z" fill="#F5F5F5"/>
<path d="M264.853 104.645C262.219 101.904 260.349 96.7827 259.438 93.5417L255.316 103.47C256.667 105.066 257.304 107.338 256.844 109.169C256.824 109.257 256.697 110.922 253.955 112.625C253.955 112.625 254.454 122.672 260.437 121.242C266.42 119.812 269.671 107.906 269.671 107.906L270.101 104.528C270.101 104.528 267.291 106.819 264.853 104.655V104.645Z" fill="#FFC3BD"/>
<path opacity="0.1" d="M256.323 101.042L255.314 103.48C256.108 104.41 256.636 105.575 256.862 106.741C259.603 103.5 259.907 98.2808 259.907 98.2808L256.323 101.042Z" fill="black"/>
<path d="M212.888 149.353C212.888 149.353 229.035 150.019 236.202 148.051C243.379 146.083 249.46 133.55 249.46 133.55L241.284 129.036L233.157 141.129L212.898 144.37L207.082 140.228C207.082 140.228 195.322 137.721 195.322 139.239C195.322 140.756 201.383 142.01 201.383 142.01C201.383 142.01 201.736 149.236 204.233 149.451C206.729 149.667 212.888 149.344 212.888 149.344V149.353Z" fill="#FFC3BD"/>
<path d="M252.407 114.809C252.407 114.809 245.416 115.788 240.843 124.258C236.271 132.727 240.168 133.06 244.045 135.459C247.913 137.858 249.852 138.367 251.634 133.168C253.416 127.969 256.931 114.29 252.407 114.809Z" fill="#F2D26B"/>
<path opacity="0.1" d="M252.387 130.798L249.802 125.511L245.445 125.178C245.445 125.178 245.063 131.249 245.67 136.399C248.5 137.878 250.135 137.594 251.643 133.178C251.868 132.512 252.132 131.699 252.397 130.808L252.387 130.798Z" fill="black"/>
<path d="M238.463 81.0868C238.463 81.0868 233.372 82.8885 236.73 88.078C240.089 93.2675 233.313 96.7729 244.71 98.2122C256.117 99.6418 245.112 79.011 245.112 79.011L238.453 81.0966L238.463 81.0868Z" fill="#263238"/>
<path opacity="0.3" d="M238.463 81.0868C238.463 81.0868 233.372 82.8885 236.73 88.078C240.089 93.2675 233.313 96.7729 244.71 98.2122C256.117 99.6418 245.112 79.011 245.112 79.011L238.453 81.0966L238.463 81.0868Z" fill="black"/>
<path d="M282.321 113.595C280.617 102.511 274.165 102.707 267.869 105.184C268.309 109.365 268.319 114.691 262.288 118.001C256.853 120.987 254.728 116.082 254.611 111.911C248.922 115.152 244.154 119.313 245.71 127.538C246.601 132.248 250.753 137.408 255.003 143.958C260.084 151.782 265.313 160.682 265.313 160.682L294.355 145.897C294.355 145.897 284.162 125.629 282.311 113.605L282.321 113.595Z" fill="#73282B"/>
<path opacity="0.2" d="M282.319 113.595C282.065 111.96 281.712 110.579 281.272 109.404L276.875 108.66L274.584 112.312C274.584 112.312 279.431 120.85 285.874 126.245C284.258 121.8 282.897 117.316 282.329 113.605L282.319 113.595Z" fill="black"/>
<path d="M290.084 110.07C290.084 110.07 300.051 116.885 303.087 119.519C307.62 123.425 319.84 136.624 319.84 136.624L327.321 140.727V145.456L323.786 147.904C322.699 148.658 321.201 148.374 320.457 147.268L315.923 140.482C315.923 140.482 304.722 130.24 300.6 127.322C297.114 124.855 285.814 118.794 285.814 118.794L290.093 110.06L290.084 110.07Z" fill="#FFC3BD"/>
<path d="M271.687 104.146C271.687 104.146 278.1 101.257 283.583 104.146C289.067 107.034 291.465 108.63 290.937 112.116C290.398 115.592 288.401 122.809 284.788 121.604C281.175 120.4 269.689 109.012 271.687 104.146Z" fill="#FFD59A"/>
<path d="M260.956 85.2776C261.7 92.7779 262.18 95.9406 259.037 100.357C254.317 107.005 244.947 106.28 241.97 99.1522C239.297 92.7388 238.533 81.547 245.319 77.415C250.156 74.4384 256.491 75.9463 259.468 80.7833C260.31 82.1443 260.819 83.6816 260.956 85.2776Z" fill="#FFC3BD"/>
<path d="M245.18 91.0155C244.866 92.4842 244.348 93.904 243.652 95.2258C244.348 95.5783 245.16 95.5979 245.875 95.2944L245.19 91.0155H245.18Z" fill="#ED893E"/>
<path d="M250.194 86.0022C250.194 86.0022 250.272 85.9337 250.301 85.8945C250.38 85.7476 250.331 85.5714 250.194 85.4832C249.214 84.8958 248.02 84.8174 246.982 85.2776C246.835 85.356 246.786 85.5322 246.855 85.6791C246.933 85.8259 247.109 85.8847 247.246 85.8064C248.108 85.4441 249.097 85.5126 249.91 86.0022C249.998 86.0512 250.115 86.0512 250.203 86.0022H250.194Z" fill="#263238"/>
<path d="M238.982 87.8919C238.982 87.8919 239.07 87.843 239.109 87.8038C239.697 87.0793 240.597 86.6778 241.528 86.717C241.694 86.7365 241.841 86.6288 241.86 86.4624C241.88 86.2959 241.763 86.1491 241.596 86.1197C240.46 86.0511 239.364 86.5309 238.639 87.4122C238.531 87.5297 238.531 87.7255 238.659 87.8332C238.747 87.9115 238.864 87.9311 238.972 87.8919H238.982Z" fill="#263238"/>
<path d="M249.289 89.3313C249.387 89.9286 249.142 90.4769 248.741 90.5455C248.339 90.614 247.948 90.1734 247.859 89.5663C247.762 88.9593 248.006 88.4207 248.398 88.362C248.79 88.2934 249.191 88.7341 249.289 89.3411V89.3313Z" fill="#263238"/>
<path d="M242.445 90.428C242.543 91.0253 242.298 91.5736 241.907 91.6323C241.515 91.7009 241.114 91.2603 241.016 90.6532C240.918 90.0461 241.163 89.5076 241.554 89.4488C241.946 89.3803 242.357 89.8209 242.445 90.428Z" fill="#263238"/>
<path d="M241.731 89.4586L240.213 89.2726C240.213 89.2726 241.143 90.2811 241.731 89.4586Z" fill="#263238"/>
<path d="M248.574 88.3522L247.057 88.1661C247.057 88.1661 247.987 89.1747 248.574 88.3522Z" fill="#263238"/>
<path d="M250.75 98.0752C251.122 97.8891 251.475 97.6737 251.808 97.4191C251.906 97.3506 251.925 97.2135 251.857 97.1156C251.788 97.0177 251.651 96.9981 251.553 97.0569C250.075 98.2025 248.146 98.5745 246.344 98.0654C246.227 98.0262 246.099 98.0752 246.06 98.1927C246.021 98.3102 246.07 98.4375 246.187 98.4766C247.705 98.9368 249.34 98.79 250.75 98.0654V98.0752Z" fill="#263238"/>
<path d="M244.759 81.1652C241.841 81.5079 233.988 83.7501 235.232 76.4456C236.476 69.1411 250.468 65.4889 256.969 70.2084C263.471 74.928 268.464 74.5755 273.634 70.747C278.804 66.9185 281.301 68.4264 287.891 71.9905C287.891 71.9905 284.327 78.1396 286.021 81.8799C286.021 81.8799 282.104 77.9633 274.8 82.1443C274.8 82.1443 283.259 79.8923 286.471 85.7378C286.471 85.7378 285.58 92.1904 288.694 96.0287C291.807 99.867 288.606 104.41 276.67 99.7789C264.734 95.1475 263.461 99.397 260.71 97.3506C257.958 95.3041 255.892 89.7621 255.461 85.7378C255.158 82.8493 253.865 80.0783 244.759 81.1554V81.1652Z" fill="#263238"/>
<path d="M261.982 90.4377C261.796 91.8869 261.032 93.199 259.877 94.0802C258.33 95.2454 256.861 94.041 256.694 92.21C256.548 90.5748 257.174 87.9899 259.015 87.5394C260.356 87.2555 261.678 88.1171 261.972 89.4586C262.041 89.7817 262.041 90.1146 261.982 90.4377Z" fill="#FFC3BD"/>
<path d="M301.317 297.93C301.581 304.187 301.757 309.151 301.757 309.151L294.805 309.944C294.805 309.944 294.139 305.714 293.141 299.223L301.317 297.93Z" fill="#FFC3BD"/>
<path d="M291.728 308.436C290.866 308.495 289.966 308.388 289.652 308.035C289.486 307.829 289.476 307.536 289.623 307.32C289.731 307.124 289.907 306.968 290.112 306.899C291.248 306.508 293.765 307.731 293.872 307.79C293.931 307.82 293.97 307.888 293.96 307.957C293.96 308.025 293.902 308.084 293.833 308.104C293.138 308.28 292.433 308.388 291.718 308.436H291.728ZM290.533 307.154C290.426 307.154 290.318 307.183 290.22 307.213C290.083 307.242 289.975 307.34 289.917 307.467C289.809 307.683 289.858 307.78 289.917 307.829C290.269 308.26 292.022 308.162 293.304 307.918C292.443 307.497 291.503 307.232 290.543 307.154H290.533Z" fill="#407BFF"/>
<path d="M293.813 308.104C293.813 308.104 293.765 308.104 293.745 308.104C292.893 307.79 291.121 306.39 291.219 305.597C291.219 305.411 291.346 305.166 291.796 305.098C292.129 305.039 292.462 305.117 292.727 305.323C293.657 305.989 293.96 307.859 293.98 307.937C293.98 307.996 293.96 308.055 293.911 308.094C293.872 308.113 293.833 308.113 293.804 308.104H293.813ZM291.934 305.401H291.836C291.542 305.44 291.532 305.568 291.522 305.607C291.512 306.077 292.678 307.193 293.569 307.643C293.432 306.86 293.069 306.136 292.511 305.577C292.345 305.45 292.139 305.391 291.934 305.411V305.401Z" fill="#407BFF"/>
<path d="M294.49 307.085L302.068 306.605C302.352 306.586 302.617 306.772 302.695 307.046L304.458 313.127C304.614 313.665 304.311 314.233 303.772 314.39C303.704 314.409 303.635 314.419 303.557 314.429C300.825 314.556 298.377 314.566 294.979 314.781C290.965 315.036 292.013 315.457 287.293 315.819C284.453 316.035 283.719 312.843 284.923 312.598C290.397 311.55 290.867 309.846 292.874 307.731C293.315 307.32 293.883 307.085 294.49 307.075V307.085Z" fill="#263238"/>
<path d="M297.085 150.254L295.763 145.505C295.597 144.928 294.95 144.634 294.412 144.908L264.783 159.85C264.264 160.114 264.097 160.77 264.43 161.25L267.436 165.617C267.436 165.617 274.79 215.711 277.835 232.366C280.948 249.345 292.091 300.114 292.091 300.114C292.17 300.486 292.522 300.74 292.904 300.682L301.53 299.281C301.863 299.223 302.118 298.939 302.128 298.596C302.225 294.268 302.157 266.911 299.406 247.553C298.417 240.64 296.096 235.098 295.303 231.289C294.431 227.088 295.783 224.268 296.311 214.144C297.31 195.09 298.514 165.049 297.085 150.244V150.254Z" fill="#263238"/>
<path opacity="0.5" d="M296.311 214.144C296.644 207.77 297.007 200.171 297.281 192.319L288.694 177.827L284.855 169.269L281.232 174.195C281.232 174.195 287.636 201.131 296.047 218.061C296.145 216.886 296.243 215.593 296.321 214.144H296.311Z" fill="black"/>
<path d="M361.514 273.98C365.127 279.101 367.467 282.469 367.467 282.469L362.052 286.895C362.052 286.895 359.203 283.693 354.846 278.788L361.514 273.98Z" fill="#FFC3BD"/>
<path d="M358.244 287.238C357.549 287.747 356.736 288.158 356.286 288.031C356.041 287.943 355.874 287.708 355.874 287.443C355.855 287.218 355.923 287.003 356.06 286.827C356.805 285.877 359.585 285.554 359.703 285.544C359.771 285.544 359.84 285.573 359.869 285.632C359.899 285.691 359.889 285.769 359.84 285.818C359.35 286.337 358.812 286.817 358.244 287.238ZM356.55 286.807C356.462 286.866 356.384 286.944 356.325 287.022C356.227 287.12 356.178 287.257 356.197 287.404C356.217 287.639 356.315 287.698 356.384 287.718C356.912 287.894 358.332 286.856 359.282 285.955C358.322 286.063 357.402 286.357 356.55 286.807Z" fill="#407BFF"/>
<path d="M359.82 285.828C359.82 285.828 359.781 285.857 359.761 285.867C358.87 286.063 356.628 285.847 356.285 285.123C356.187 284.956 356.168 284.692 356.501 284.388C356.746 284.163 357.078 284.046 357.411 284.075C358.557 284.134 359.82 285.534 359.879 285.603C359.918 285.652 359.928 285.71 359.908 285.769C359.889 285.808 359.859 285.828 359.82 285.838V285.828ZM356.775 284.575L356.697 284.624C356.471 284.819 356.53 284.927 356.54 284.966C356.785 285.368 358.371 285.671 359.37 285.573C358.831 284.986 358.136 284.575 357.362 284.408C357.157 284.389 356.951 284.457 356.785 284.584L356.775 284.575Z" fill="#407BFF"/>
<path d="M359.831 284.604L365.941 280.09C366.176 279.924 366.489 279.933 366.704 280.119L371.483 284.281C371.914 284.643 371.962 285.289 371.59 285.71C371.541 285.769 371.492 285.818 371.434 285.857C369.201 287.443 367.155 288.775 364.413 290.802C361.172 293.191 362.279 292.976 358.519 295.835C356.247 297.558 353.907 295.257 354.778 294.415C358.812 290.567 358.284 288.883 358.832 286.024C358.979 285.446 359.331 284.937 359.831 284.604Z" fill="#263238"/>
<path d="M275.387 162.327C275.387 162.327 298.074 214.634 308.795 230.222C318.313 244.057 354.483 279.493 354.483 279.493C355.041 280.09 355.971 280.149 356.588 279.62L361.611 275.351C362.179 274.861 362.316 274.029 361.924 273.393C358.85 268.37 345.856 247.484 334.469 233.903C329.926 228.479 325.549 224.513 323.404 221.527C320.575 217.581 321.231 214.418 318.988 203.461C314.817 183.095 306.7 153.133 294.353 148.335L275.377 162.347L275.387 162.327Z" fill="#263238"/>
<path opacity="0.3" d="M231.587 310.101H139.164C132.771 310.101 128.041 304.912 128.599 298.518L148.907 66.4191C149.465 60.0252 155.105 54.8357 161.499 54.8357H253.921C260.315 54.8357 265.044 60.0252 264.486 66.4191L244.179 298.518C243.621 304.912 237.981 310.101 231.587 310.101Z" fill="#F2DCA6"/>
<path d="M253.921 54.8455H161.499C155.105 54.8455 149.465 60.035 148.907 66.4289L128.599 298.527C128.041 304.921 132.771 310.111 139.164 310.111H231.587C237.981 310.111 243.621 304.921 244.179 298.527L264.486 66.4289C265.044 60.035 260.315 54.8455 253.921 54.8455ZM239.038 298.527C238.725 302.082 235.582 304.97 232.037 304.97H139.615C136.061 304.97 133.427 302.082 133.74 298.527L154.048 66.4289C154.361 62.8746 157.504 59.9861 161.049 59.9861H253.471C257.025 59.9861 259.659 62.8746 259.346 66.4289L239.038 298.527Z" fill="#F2D26B"/>
<path opacity="0.6" d="M254.341 54.8456H161.919C155.525 54.8456 149.885 60.0351 149.327 66.429L129.019 298.528C128.461 304.921 133.191 310.111 139.584 310.111H232.007C238.401 310.111 244.041 304.921 244.599 298.528L264.906 66.429C265.464 60.0351 260.735 54.8456 254.341 54.8456ZM239.458 298.528C239.145 302.082 236.002 304.97 232.457 304.97H140.035C136.48 304.97 133.847 302.082 134.16 298.528L154.468 66.429C154.781 62.8746 157.924 59.9861 161.468 59.9861H253.891C257.445 59.9861 260.079 62.8746 259.766 66.429L239.458 298.528Z" fill="white"/>
<path d="M199.257 295.766H173.838C173.054 295.766 172.359 296.403 172.291 297.196C172.222 297.979 172.8 298.625 173.593 298.625H199.012C199.795 298.625 200.49 297.989 200.559 297.196C200.627 296.412 200.05 295.766 199.257 295.766Z" fill="white"/>
<path opacity="0.1" d="M198.633 162.787H171.677C167.946 162.787 165.185 159.762 165.508 156.031L167.868 129.075C168.191 125.345 171.481 122.319 175.221 122.319H202.177C205.908 122.319 208.669 125.345 208.346 129.075L205.986 156.031C205.663 159.762 202.373 162.787 198.633 162.787Z" fill="black"/>
<path d="M195.695 159.85H168.739C165.009 159.85 162.248 156.824 162.571 153.094L164.93 126.138C165.254 122.407 168.543 119.382 172.284 119.382H199.24C202.971 119.382 205.732 122.407 205.409 126.138L203.049 153.094C202.726 156.824 199.436 159.85 195.695 159.85Z" fill="#FFD59A"/>
<path d="M188.519 137.163C188.979 131.944 184.553 127.704 178.63 127.704C172.706 127.704 167.546 131.934 167.085 137.163C166.723 141.295 169.416 144.791 173.489 146.083C172.823 147.287 171.883 148.188 170.924 148.619C171.119 148.727 171.325 148.844 171.54 148.923C173.695 149.706 176.191 148.668 177.396 146.602C183.134 146.406 188.069 142.264 188.519 137.163Z" fill="white"/>
<path d="M200.924 141.696C201.306 137.388 197.644 133.893 192.758 133.893C191.887 133.893 191.035 134.01 190.212 134.216C190.408 135.156 190.487 136.145 190.398 137.163C190.075 140.903 187.794 144.203 184.514 146.269C185.845 148.081 188.088 149.304 190.761 149.471C191.358 151.087 193.13 151.919 194.902 151.322C195.079 151.263 195.245 151.175 195.412 151.096C194.756 150.773 194.188 150.098 193.835 149.207C197.625 148.276 200.601 145.27 200.914 141.706L200.924 141.696Z" fill="white"/>
<path opacity="0.1" d="M186.275 246.231H166.232C163.451 246.231 161.404 243.979 161.639 241.208L163.392 221.165C163.637 218.384 166.085 216.141 168.856 216.141H188.899C191.68 216.141 193.726 218.394 193.491 221.165L191.739 241.208C191.494 243.989 189.046 246.231 186.275 246.231Z" fill="black"/>
<path opacity="0.1" d="M215.69 207.221H190.633C187.167 207.221 184.592 204.411 184.895 200.935L187.089 175.879C187.392 172.412 190.457 169.593 193.923 169.593H218.98C222.446 169.593 225.021 172.403 224.718 175.879L222.524 200.935C222.221 204.401 219.156 207.221 215.69 207.221Z" fill="black"/>
<path d="M212.752 204.284H187.696C184.23 204.284 181.654 201.474 181.958 197.998L184.151 172.941C184.455 169.475 187.519 166.655 190.986 166.655H216.042C219.508 166.655 222.084 169.465 221.78 172.941L219.587 197.998C219.283 201.464 216.218 204.284 212.752 204.284Z" fill="#FFD59A"/>
<path d="M183.337 243.293H163.294C160.513 243.293 158.467 241.041 158.702 238.27L160.455 218.227C160.699 215.446 163.147 213.204 165.918 213.204H185.962C188.742 213.204 190.789 215.456 190.554 218.227L188.801 238.27C188.556 241.051 186.108 243.293 183.337 243.293Z" fill="#FFD59A"/>
<path d="M214.395 175.135H191.15C189.682 175.135 188.379 176.329 188.252 177.798L186.911 193.131C186.783 194.6 187.87 195.795 189.339 195.795H212.584C214.053 195.795 215.355 194.6 215.482 193.131L216.824 177.798C216.951 176.329 215.864 175.135 214.395 175.135ZM196.585 185.455L188.8 192.612L190.054 178.297L196.585 185.455ZM191.473 176.985H213.73L202.479 187.335C202.009 187.766 201.314 187.766 200.922 187.335L191.473 176.985ZM197.779 186.757L199.493 188.637C200.021 189.215 200.746 189.499 201.51 189.499C202.273 189.499 203.047 189.215 203.674 188.637L205.72 186.757L212.28 193.944H189.965L197.779 186.757ZM207.14 185.445L214.924 178.287L213.671 192.603L207.14 185.445Z" fill="white"/>
<path d="M165.445 222.839L171.31 225.238L177.773 220.802L172.916 226.56L176.49 231.593L182.13 217.571L165.445 222.839Z" fill="white"/>
<path d="M170.909 226.569L173.552 229.801H170.732L170.909 226.569Z" fill="white"/>
<path d="M168.572 230.79L167.955 230.388C168.278 229.889 168.543 229.575 168.562 229.556L169.12 230.036C169.12 230.036 168.866 230.329 168.582 230.79H168.572Z" fill="white"/>
<path d="M168.277 235.617C167.621 235.225 167.19 234.697 167.014 234.05L167.719 233.854C167.846 234.324 168.16 234.687 168.649 234.99L168.277 235.617ZM167.66 233.091L166.926 233.032C166.975 232.474 167.161 231.857 167.484 231.201L168.14 231.524C167.856 232.092 167.69 232.621 167.65 233.091H167.66Z" fill="white"/>
<path d="M183.082 238.172L182.357 238.045C182.387 237.849 182.406 237.673 182.406 237.516C182.406 237.144 182.318 236.86 182.142 236.645L182.71 236.175C182.994 236.527 183.14 236.978 183.14 237.516C183.14 237.722 183.121 237.937 183.082 238.172ZM172.673 236.479C172.419 236.479 172.154 236.479 171.91 236.459L171.939 235.725C172.517 235.754 173.104 235.744 173.692 235.725L173.721 236.459C173.369 236.479 173.016 236.479 172.673 236.479ZM174.622 236.4L174.573 235.666C175.17 235.627 175.767 235.568 176.345 235.509L176.414 236.244C175.826 236.302 175.229 236.361 174.622 236.4ZM170.989 236.4C170.891 236.39 170.784 236.381 170.686 236.361C170.118 236.283 169.609 236.165 169.168 236.018L169.403 235.323C169.804 235.46 170.265 235.568 170.784 235.636L171.068 235.676L170.989 236.41V236.4ZM181.564 236.253C181.172 236.097 180.644 236.018 179.939 236.009V235.274C180.742 235.284 181.358 235.382 181.838 235.568L181.574 236.253H181.564ZM177.305 236.165L177.236 235.431C177.863 235.372 178.47 235.323 179.038 235.294L179.077 236.028C178.529 236.057 177.931 236.106 177.315 236.165H177.305Z" fill="white"/>
<path d="M182.474 240.062L181.799 239.768C181.936 239.455 182.053 239.161 182.142 238.887L182.837 239.122C182.739 239.416 182.621 239.729 182.465 240.072L182.474 240.062Z" fill="white"/>
<path opacity="0.1" d="M209.644 116.855H187.094C183.971 116.855 181.66 114.319 181.934 111.196L183.912 88.6458C184.186 85.5223 186.938 82.9863 190.061 82.9863H212.611C215.735 82.9863 218.045 85.5223 217.771 88.6458L215.793 111.196C215.519 114.319 212.768 116.855 209.644 116.855Z" fill="black"/>
<path d="M206.707 113.918H184.157C181.033 113.918 178.723 111.382 178.997 108.258L180.975 85.7084C181.249 82.5849 184 80.0489 187.124 80.0489H209.674C212.797 80.0489 215.108 82.5849 214.834 85.7084L212.856 108.258C212.582 111.382 209.83 113.918 206.707 113.918Z" fill="#FFD59A"/>
<path d="M207.922 101.571C207.511 93.2773 201.518 86.7071 193.323 85.5713C191.13 84.3866 188.212 85.0034 186.459 87.1576C184.52 89.5369 186.234 91.0448 188.457 92.7779C190.679 94.5012 192.579 95.7937 194.518 93.4144C195.271 92.4842 195.683 91.4071 195.79 90.3496C199.462 91.8575 202.233 94.8831 203.398 98.692C202.331 98.7018 201.225 99.0249 200.246 99.7005C197.719 101.424 198.826 103.441 200.344 105.81C201.861 108.19 203.212 110.031 205.739 108.307C208.03 106.741 208.892 103.872 207.912 101.58L207.922 101.571Z" fill="white"/>
<path d="M198.503 50.9485H213.856C214.61 50.9485 214.718 49.7735 213.964 49.7735H198.611C197.857 49.7735 197.749 50.9485 198.513 50.9485H198.503Z" fill="#F2D26B"/>
<path d="M219.486 50.9485H223.902C224.656 50.9485 224.763 49.7735 224.009 49.7735H219.593C218.839 49.7735 218.732 50.9485 219.495 50.9485H219.486Z" fill="#F2D26B"/>
<g opacity="0.3">
<path d="M198.503 50.9485H213.856C214.61 50.9485 214.718 49.7735 213.964 49.7735H198.611C197.857 49.7735 197.749 50.9485 198.513 50.9485H198.503Z" fill="#F2D26B"/>
</g>
<g opacity="0.3">
<path d="M219.486 50.9485H223.902C224.656 50.9485 224.763 49.7735 224.009 49.7735H219.593C218.839 49.7735 218.732 50.9485 219.495 50.9485H219.486Z" fill="#F2D26B"/>
</g>
<path d="M249.106 169.73C248.656 174.851 248.215 179.962 247.765 185.083C247.696 185.837 248.861 185.944 248.93 185.181C249.38 180.06 249.821 174.948 250.271 169.828C250.34 169.074 249.175 168.966 249.106 169.72V169.73Z" fill="#F2D26B"/>
<path d="M247.264 190.703L246.882 195.119C246.813 195.873 247.978 195.981 248.047 195.217C248.174 193.748 248.302 192.28 248.429 190.801C248.497 190.047 247.332 189.939 247.264 190.703Z" fill="#F2D26B"/>
<g opacity="0.3">
<path d="M249.106 169.73C248.656 174.851 248.215 179.962 247.765 185.083C247.696 185.837 248.861 185.944 248.93 185.181C249.38 180.06 249.821 174.948 250.271 169.828C250.34 169.074 249.175 168.966 249.106 169.72V169.73Z" fill="white"/>
</g>
<g opacity="0.3">
<path d="M247.264 190.703L246.882 195.119C246.813 195.873 247.978 195.981 248.047 195.217C248.174 193.748 248.302 192.28 248.429 190.801C248.497 190.047 247.332 189.939 247.264 190.703Z" fill="white"/>
</g>
<path d="M113.153 101.404C113.153 101.404 107.474 100.621 108.159 103.578C108.658 105.742 110.568 101.492 113.153 101.404Z" fill="#263238"/>
<path d="M108.217 108.121C108.217 108.121 112.897 108.082 113.622 99.5439C113.622 99.5439 118.087 97.9871 120.623 100.768C123.159 103.549 117.333 108.944 120.544 111.734C120.544 111.734 117.333 113.487 108.217 108.121Z" fill="#FF8B7B"/>
<path d="M125.539 77.9927C125.539 77.9927 131.57 76.7002 133.137 81.1358C134.704 85.5714 124.207 83.6229 124.207 83.6229L125.539 77.9927Z" fill="#263238"/>
<path opacity="0.3" d="M125.539 77.9927C125.539 77.9927 131.57 76.7002 133.137 81.1358C134.704 85.5714 124.207 83.6229 124.207 83.6229L125.539 77.9927Z" fill="black"/>
<path d="M130.474 89.0474C130.572 88.4794 130.944 88.0682 131.316 88.1367C131.688 88.1955 131.913 88.7144 131.816 89.2726C131.718 89.8405 131.346 90.2517 130.973 90.1832C130.601 90.1146 130.376 89.6055 130.474 89.0474Z" fill="#263238"/>
<path d="M130.768 90.1146L133.411 94.3739C133.411 94.3739 131.991 95.3923 130.043 94.6677L130.777 90.1146H130.768Z" fill="#FF5652"/>
<path d="M110.824 86.3057C110.491 93.5613 110.197 96.626 113.438 100.719C118.598 105.076 127.313 105.693 129.8 98.6724C132.042 92.3569 132.199 81.5862 125.452 77.9242C120.635 75.3098 114.623 77.1017 112.008 81.9093C111.274 83.2606 110.863 84.7685 110.814 86.3057H110.824Z" fill="#FF8B7B"/>
<path d="M129.564 87.2555C129.671 87.2947 129.789 87.2751 129.877 87.2163C130.553 86.6974 131.444 86.5309 132.266 86.7855C132.442 86.8541 132.628 86.7659 132.697 86.5897C132.765 86.4134 132.677 86.2274 132.511 86.1491C131.483 85.8161 130.357 86.012 129.485 86.6582C129.329 86.7561 129.289 86.9618 129.387 87.1086C129.427 87.187 129.485 87.2261 129.554 87.2457L129.564 87.2555Z" fill="#263238"/>
<path d="M104.928 109.59C104.928 109.59 106.945 104.019 115.297 107.573C123.649 111.118 124.433 116.023 124.433 116.023L104.918 109.6L104.928 109.59Z" fill="#263238"/>
<path opacity="0.4" d="M104.928 109.59C104.928 109.59 106.945 104.019 115.297 107.573C123.649 111.118 124.433 116.023 124.433 116.023L104.918 109.6L104.928 109.59Z" fill="black"/>
<path d="M108.677 215.182C108.677 215.182 107.482 225.336 106.914 228.694C106.415 231.671 90.2884 308.691 90.2884 308.691L82.935 307.477C82.935 307.477 82.1223 268.438 87.7818 242.598C88.9372 237.311 91.2774 232.875 92.1292 228.841C92.8146 225.59 91.7768 215.574 91.7768 215.574L108.677 215.182Z" fill="#FF8B7B"/>
<path d="M78.0501 213.527C78.0501 213.527 74.6328 222.829 73.0368 225.708C71.3037 228.841 64.7238 237.37 64.7238 237.37L29.6701 286.543L22.9629 282.303C22.9629 282.303 33.0775 255.229 48.3132 233.169C51.9458 227.911 57.1745 223.906 60.0141 218.687C61.6493 215.681 63.0494 205.341 63.0494 205.341L78.0599 213.517L78.0501 213.527Z" fill="#FF8B7B"/>
<path d="M87.4502 119.372C87.4502 119.372 79.0589 130.074 79.7737 134.568C80.4885 139.063 93.6385 144.536 93.6385 144.536L96.9774 139.787L88.3413 133.481L96.5662 124.052L87.46 119.372H87.4502Z" fill="#FF8B7B"/>
<path d="M101.325 108.66C100.267 108.17 95.6262 106.3 85.5898 119.352C85.5898 119.352 89.2421 123.905 97.0753 126.617C97.0753 126.617 105.888 110.794 101.335 108.67L101.325 108.66Z" fill="#263238"/>
<path opacity="0.4" d="M97.0742 126.608C97.0742 126.608 98.5332 123.984 99.9627 120.723C99.7277 115.132 99.0423 108.19 97.0742 110.687C94.4697 113.996 90.8664 120.664 89.6914 122.897C91.5126 124.16 93.9605 125.521 97.0742 126.608Z" fill="black"/>
<path d="M89.1746 151.987C89.1746 151.987 102.648 159.958 120.4 160.976L109.081 224.043C109.081 224.043 76.4358 223.945 59.3691 207.721C59.3691 207.721 66.1743 173.352 89.1746 151.987Z" fill="#FFD59A"/>
<path d="M87.7832 152.173C87.7832 152.173 100.855 161.808 121.681 161.152C121.681 161.152 133.637 128.076 126.146 116.894C121.515 109.982 103.734 106.848 98.9456 108.816C93.1783 111.186 96.5173 131.924 87.793 152.173H87.7832Z" fill="#263238"/>
<path opacity="0.1" d="M90.9154 186.15L76.375 217.943C82.3087 220.274 88.5361 221.478 92.0415 222.242C92.0415 222.242 92.531 192.544 90.9154 186.15Z" fill="black"/>
<path opacity="0.4" d="M120.653 122.29L118.342 123.993C118.342 123.993 120.339 132.355 126.958 142C127.898 137.32 128.584 132.395 128.594 127.969L123.443 123.602L120.653 122.29Z" fill="black"/>
<path d="M133.753 127.078L141.586 137.995L161.267 139.298L164.88 136.292C165.125 136.086 165.419 135.968 165.742 135.939L176.248 135.107C176.571 135.077 176.845 135.352 176.816 135.675L176.757 136.566C176.738 136.83 176.532 137.036 176.268 137.055L171.284 137.447L170.265 142.558C170.148 143.146 169.707 143.606 169.13 143.753L165.233 144.751C164.978 144.82 164.714 144.82 164.469 144.751L161.708 144.046C161.708 144.046 146.364 147.15 139.324 145.907C132.284 144.663 125.342 133.207 125.342 133.207L133.733 127.068L133.753 127.078Z" fill="#FF8B7B"/>
<path d="M124.687 135.361C124.687 135.361 112.075 118.5 119.859 114.574C127.644 110.657 135.829 127.988 135.829 127.988C135.829 127.988 132.628 132.884 124.697 135.352L124.687 135.361Z" fill="#263238"/>
<path d="M91.8866 308.251C91.8083 308.231 91.7496 308.162 91.7398 308.084C91.73 308.006 91.7691 307.927 91.8377 307.888C91.965 307.82 94.8535 306.312 96.1949 306.733C96.4495 306.811 96.6551 306.978 96.7824 307.203C96.9587 307.457 96.9489 307.79 96.7628 308.035C96.4103 308.456 95.3626 308.603 94.3541 308.564C93.5218 308.525 92.6993 308.417 91.8866 308.241V308.251ZM92.5231 308.016C94.0212 308.26 96.0676 308.319 96.4691 307.81C96.5278 307.751 96.5768 307.634 96.4495 307.389C96.381 307.242 96.2439 307.144 96.0872 307.105C95.9697 307.066 95.8424 307.046 95.7249 307.046C94.6087 307.164 93.5316 307.497 92.5329 308.016H92.5231Z" fill="#407BFF"/>
<path d="M91.7872 308.231C91.7285 308.192 91.6991 308.123 91.7089 308.055C91.7187 307.957 92.0222 305.773 93.0895 304.961C93.393 304.726 93.7847 304.618 94.1666 304.677C94.6953 304.745 94.852 305.019 94.8618 305.245C94.9988 306.165 92.9818 307.849 92.0026 308.241C91.9733 308.251 91.9439 308.251 91.9243 308.241C91.8851 308.251 91.8362 308.241 91.797 308.231H91.7872ZM94.0197 305.039C93.7749 305.029 93.5399 305.107 93.3441 305.254C92.7174 305.93 92.3062 306.782 92.1789 307.702C93.207 307.144 94.5386 305.822 94.5093 305.264C94.4995 305.215 94.4799 305.078 94.1372 305.029H94.0295L94.0197 305.039Z" fill="#407BFF"/>
<path d="M91.1032 307.085L82.2516 306.752C81.9187 306.743 81.625 306.958 81.5368 307.281L79.6667 314.419C79.5002 315.056 79.8723 315.702 80.4989 315.868C80.5773 315.888 80.6654 315.907 80.7437 315.907C83.9358 315.976 86.7753 315.907 90.7507 316.054C95.4408 316.231 94.2267 316.75 99.7393 317.033C103.059 317.2 103.803 313.45 102.403 313.215C95.9892 312.167 95.3919 310.189 92.9929 307.79C92.4642 307.33 91.7886 307.076 91.0934 307.076L91.1032 307.085Z" fill="#263238"/>
<path d="M30.7656 287.032C30.7068 286.983 30.6775 286.895 30.7068 286.817C30.7362 286.738 30.8048 286.689 30.8831 286.689C31.03 286.689 34.2905 286.641 35.2893 287.62C35.4753 287.796 35.5928 288.041 35.6026 288.305C35.6418 288.609 35.4851 288.902 35.2109 289.039C34.7116 289.255 33.703 288.912 32.8218 288.423C32.0972 288.011 31.402 287.551 30.7656 287.022V287.032ZM31.4314 287.111C32.6651 288.002 34.457 288.981 35.0445 288.707C35.1228 288.677 35.2207 288.599 35.2109 288.325C35.2109 288.158 35.1424 288.011 35.0151 287.904C34.927 287.816 34.8291 287.747 34.7116 287.688C33.6639 287.297 32.5476 287.101 31.4314 287.12V287.111Z" fill="#407BFF"/>
<path d="M30.69 286.973C30.6606 286.915 30.6606 286.836 30.69 286.778C30.7487 286.69 32.0021 284.888 33.3141 284.643C33.696 284.565 34.0877 284.643 34.4108 284.878C34.8514 285.182 34.8612 285.495 34.7731 285.701C34.4793 286.582 31.9237 287.179 30.8662 287.091C30.8369 287.091 30.8075 287.081 30.7879 287.062C30.739 287.062 30.6998 287.032 30.6802 286.993L30.69 286.973ZM34.1268 285.133C33.9114 285.015 33.6666 284.976 33.4316 285.025C32.5602 285.348 31.816 285.926 31.2873 286.68C32.4525 286.65 34.2443 286.063 34.4597 285.554C34.4695 285.505 34.5185 285.368 34.2345 285.182L34.1366 285.133H34.1268Z" fill="#407BFF"/>
<path d="M30.6005 285.632L22.8456 281.343C22.5519 281.177 22.1896 281.245 21.9644 281.49L17.0784 287.022C16.6378 287.512 16.6867 288.256 17.1665 288.697C17.2253 288.756 17.2938 288.804 17.3721 288.844C20.1921 290.342 22.7673 291.556 26.2433 293.485C30.3459 295.756 29.0339 295.668 33.8219 298.41C36.7104 300.055 39.0702 297.049 37.9246 296.197C32.6763 292.369 33.0288 290.342 31.9713 287.111C31.7167 286.464 31.2272 285.926 30.6005 285.612V285.632Z" fill="#263238"/>
<path d="M123.044 92.543C123.044 92.543 126.02 91.6128 124.894 87.2947C124.894 87.2947 126.627 84.3964 126.353 82.8004C126.353 82.8004 135.146 77.7284 130.143 72.1472C125.139 66.5758 115.974 70.3064 111.93 77.4248C111.93 77.4248 90.4378 84.4062 105.399 97.5562C120.008 110.393 123.053 92.543 123.053 92.543H123.044Z" fill="#263238"/>
<path d="M114.221 80.4112C114.221 80.4112 110.872 73.0382 115.905 67.4668C120.938 61.8954 112.566 75.3099 114.221 80.4112Z" fill="#263238"/>
<path d="M123.043 92.543C123.043 92.543 123.141 92.5136 123.278 92.445C123.239 86.9324 121.154 80.3035 113.007 75.7798C112.615 76.3086 112.243 76.8569 111.92 77.4248C111.92 77.4248 111.303 77.6304 110.354 78.0221C113.173 81.0183 120.909 90.9371 112.204 101.776C120.977 104.508 123.034 92.543 123.034 92.543H123.043Z" fill="#FFD59A"/>
<path d="M123.434 89.958C124.433 91.0546 124.962 92.5038 124.893 93.9823C124.786 95.9504 122.866 96.3224 121.339 95.265C119.949 94.3054 118.353 92.1415 119.214 90.4084C120.076 88.6753 122.191 88.6459 123.434 89.9677V89.958Z" fill="#FF8B7B"/>
<path d="M131.18 88.1465L132.776 88.0682C132.776 88.0682 131.738 89.0571 131.18 88.1465Z" fill="#263238"/>
<path opacity="0.2" d="M116.668 102.755C117.069 103.588 118.117 105.34 120.203 106.643C120.526 105.722 120.888 104.802 121.094 103.93C119.605 103.803 118.098 103.412 116.668 102.755Z" fill="black"/>
</svg>
