<svg width="441" height="328" viewBox="0 0 441 328" fill="none" xmlns="http://www.w3.org/2000/svg">
<g clip-path="url(#clip0_208_1664)">
<path d="M396.622 302.857H367.424V303.078H396.622V302.857Z" fill="#EBEBEB"/>
<path d="M291.996 305.255H284.335V305.476H291.996V305.255Z" fill="#EBEBEB"/>
<path d="M366.542 294.676H349.625V294.897H366.542V294.676Z" fill="#EBEBEB"/>
<path d="M84.3234 296.157H46.248V296.378H84.3234V296.157Z" fill="#EBEBEB"/>
<path d="M97.7581 296.157H92.1777V296.378H97.7581V296.157Z" fill="#EBEBEB"/>
<path d="M198.488 299.878H115.901V300.098H198.488V299.878Z" fill="#EBEBEB"/>
<path d="M210.168 249.354H39.9352C37.1582 249.354 34.9014 247.098 34.9014 244.321V5.03381C34.9014 2.25684 37.1582 0 39.9352 0H210.168C212.945 0 215.202 2.25684 215.202 5.03381V244.321C215.202 247.098 212.945 249.354 210.168 249.354ZM39.9352 0.220395C37.2816 0.220395 35.1218 2.38026 35.1218 5.03381V244.321C35.1218 246.974 37.2816 249.134 39.9352 249.134H210.168C212.821 249.134 214.981 246.974 214.981 244.321V5.03381C214.981 2.38026 212.821 0.220395 210.168 0.220395H39.9352Z" fill="#EBEBEB"/>
<path d="M400.853 249.354H230.621C227.844 249.354 225.587 247.098 225.587 244.321V5.03381C225.587 2.25684 227.844 0 230.621 0H400.853C403.63 0 405.887 2.25684 405.887 5.03381V244.321C405.887 247.098 403.63 249.354 400.853 249.354ZM230.621 0.220395C227.967 0.220395 225.807 2.38026 225.807 5.03381V244.321C225.807 246.974 227.967 249.134 230.621 249.134H400.853C403.507 249.134 405.667 246.974 405.667 244.321V5.03381C405.667 2.38026 403.507 0.220395 400.853 0.220395H230.621Z" fill="#EBEBEB"/>
<path d="M440.789 288.673H0V288.893H440.789V288.673Z" fill="#EBEBEB"/>
<path d="M105.199 229.034C104.458 220.518 95.7658 217.335 85.4601 218.235C75.1633 219.134 67.1586 223.789 67.8991 232.296L105.199 229.034Z" fill="#F0F0F0"/>
<path d="M85.1254 214.338C89.9035 213.924 91.4287 209.886 91.0143 205.099C90.6 200.321 88.396 196.61 83.6091 197.024C78.8309 197.438 77.3058 201.476 77.7201 206.263C78.1345 211.041 80.3384 214.752 85.1254 214.338Z" fill="#F0F0F0"/>
<path d="M299.825 47.6228C300.054 50.2587 298.106 52.5861 295.47 52.8153C292.834 53.0445 290.506 51.0962 290.277 48.4603C290.048 45.8244 291.996 43.497 294.632 43.2678C297.268 43.0386 299.595 44.9869 299.825 47.6228Z" fill="#F5F5F5"/>
<path d="M326.333 45.3043C326.563 47.9402 324.614 50.2676 321.978 50.4968C319.342 50.726 317.015 48.7777 316.786 46.1418C316.557 43.5059 318.505 41.1785 321.141 40.9493C323.777 40.7201 326.104 42.6684 326.333 45.3043Z" fill="#F5F5F5"/>
<path d="M352.852 42.9857C353.081 45.6217 351.133 47.949 348.497 48.1782C345.861 48.4074 343.534 46.4592 343.304 43.8232C343.075 41.1873 345.024 38.86 347.659 38.6307C350.295 38.4015 352.623 40.3498 352.852 42.9857Z" fill="#F5F5F5"/>
<path d="M302.187 74.6432C302.416 77.2791 300.468 79.6065 297.832 79.8357C295.196 80.0649 292.869 78.1166 292.639 75.4807C292.41 72.8448 294.358 70.5174 296.994 70.2882C299.63 70.059 301.958 72.0073 302.187 74.6432Z" fill="#F5F5F5"/>
<path d="M328.697 72.3247C328.926 74.9606 326.978 77.288 324.342 77.5172C321.706 77.7464 319.378 75.7981 319.149 73.1622C318.92 70.5263 320.868 68.1989 323.504 67.9697C326.14 67.7405 328.467 69.6888 328.697 72.3247Z" fill="#F5F5F5"/>
<path d="M355.214 70.0061C355.443 72.642 353.495 74.9694 350.859 75.1986C348.223 75.4278 345.896 73.4795 345.667 70.8436C345.438 68.2077 347.386 65.8803 350.022 65.6511C352.658 65.4219 354.985 67.3702 355.214 70.0061Z" fill="#F5F5F5"/>
<path d="M304.55 101.664C304.779 104.3 302.831 106.627 300.195 106.856C297.559 107.085 295.232 105.137 295.003 102.501C294.773 99.8652 296.722 97.5378 299.358 97.3086C301.994 97.0794 304.321 99.0277 304.55 101.664Z" fill="#F5F5F5"/>
<path d="M331.068 99.345C331.297 101.981 329.349 104.308 326.713 104.538C324.077 104.767 321.749 102.818 321.52 100.183C321.291 97.5466 323.239 95.2192 325.875 94.99C328.511 94.7608 330.839 96.7091 331.068 99.345Z" fill="#F5F5F5"/>
<path d="M357.577 97.0265C357.806 99.6624 355.857 101.99 353.222 102.219C350.586 102.448 348.258 100.5 348.029 97.864C347.8 95.2281 349.748 92.9007 352.384 92.6715C355.02 92.4423 357.347 94.3906 357.577 97.0265Z" fill="#F5F5F5"/>
<path d="M351.846 98.5869L297.374 103.356L345.667 44.6695L296.184 48.9981C295.602 49.051 295.099 48.619 295.046 48.046C294.993 47.4641 295.425 46.9616 295.998 46.9087L350.471 42.1394L302.178 100.826L351.661 96.4975C352.243 96.4446 352.746 96.8766 352.799 97.4496C352.851 98.0315 352.419 98.534 351.846 98.5869Z" fill="#E6E6E6"/>
<path d="M352.684 203.336C352.508 202.816 352.041 202.428 351.494 202.393C348.999 202.225 346.883 201.291 345.217 199.616C343.04 197.429 341.761 194.097 341.55 190.148C341.514 189.407 340.897 188.834 340.157 188.834C339.337 188.834 338.693 189.522 338.737 190.333C338.993 194.97 340.554 198.928 343.225 201.608C345.305 203.697 347.994 204.923 351.053 205.187C351.106 205.187 351.177 205.196 351.256 205.205C352.27 205.284 353.037 204.297 352.702 203.336H352.684Z" fill="#F0F0F0"/>
<path d="M349.863 220.262C338.182 219.24 329.754 211.279 327.083 198.849C326.915 198.055 327.418 197.28 328.22 197.139C328.961 197.006 329.675 197.482 329.833 198.214C332.223 209.392 339.725 216.551 350.11 217.459C361.5 218.455 373.727 210.962 375.914 192.078C376.002 191.311 376.672 190.747 377.439 190.818C378.223 190.888 378.814 191.585 378.717 192.369C376.619 210.177 364.911 221.593 349.854 220.271L349.863 220.262Z" fill="#F0F0F0"/>
<path d="M327.824 186.463C327.039 186.392 326.449 185.696 326.546 184.911C328.644 167.103 340.351 155.687 355.408 157.009C368.597 158.164 377.483 168.038 378.876 182.91C378.947 183.694 378.338 184.382 377.554 184.426C376.787 184.47 376.134 183.888 376.064 183.13C374.794 169.73 366.878 160.853 355.17 159.821C343.78 158.825 331.553 166.319 329.367 185.202C329.278 185.969 328.608 186.533 327.842 186.463H327.824Z" fill="#F0F0F0"/>
<path d="M350.436 212.707C348.268 212.513 346.231 212.011 344.353 211.191C343.595 210.856 343.278 209.939 343.675 209.216C344.018 208.581 344.794 208.308 345.455 208.599C347.21 209.375 349.158 209.824 351.247 209.939C359.887 210.433 369.002 204.315 369.893 189.539C370.439 180.433 367.327 173.08 361.5 169.563C360.874 169.184 360.645 168.399 360.962 167.738C361.324 166.997 362.258 166.724 362.964 167.147C369.699 171.211 373.322 179.516 372.705 189.698C371.841 203.953 362.955 213.43 351.08 212.751C350.859 212.742 350.639 212.725 350.419 212.707H350.436Z" fill="#F0F0F0"/>
<path d="M337.882 203.918C337.204 204.385 336.269 204.165 335.855 203.451C333.351 199.131 332.187 193.551 332.549 187.565C333.369 173.927 341.55 164.661 352.649 164.485C353.469 164.467 354.139 165.164 354.095 165.984C354.051 166.724 353.46 167.297 352.719 167.315C344.486 167.473 336.216 173.697 335.37 187.741C335.044 193.189 336.084 198.223 338.314 202.075C338.685 202.71 338.491 203.512 337.882 203.927V203.918Z" fill="#F0F0F0"/>
<path d="M357.154 202.763C356.863 202.111 357.119 201.352 357.727 200.982C361.43 198.752 363.713 194.062 363.748 188.42C363.775 183.897 362.47 180.071 360.055 177.647C358.194 175.778 355.788 174.835 352.896 174.843C348.55 174.852 345.032 177.232 343.084 181.429C342.776 182.09 342.017 182.399 341.33 182.152C340.554 181.87 340.184 180.97 340.536 180.221C342.952 175.073 347.474 172.04 352.896 172.022C356.511 172.022 359.675 173.274 362.056 175.663C365.009 178.625 366.613 183.166 366.578 188.446C366.534 195.111 363.731 200.7 359.155 203.433C358.432 203.865 357.498 203.539 357.154 202.772V202.763Z" fill="#F0F0F0"/>
<path d="M346.998 192.396C346.196 192.722 345.297 192.255 345.094 191.417C344.997 191.038 344.926 190.641 344.865 190.236C344.063 184.964 346.901 180.371 351.459 179.551C353.813 179.128 355.911 179.683 357.515 181.111C358.168 181.693 358.115 182.734 357.41 183.236L357.321 183.298C356.784 183.677 356.087 183.597 355.585 183.166C354.624 182.346 353.416 182.064 351.961 182.319C348.488 182.936 347.166 186.551 347.659 189.804C347.703 190.121 347.765 190.43 347.836 190.721C348.003 191.408 347.659 192.122 346.998 192.387V192.396Z" fill="#F0F0F0"/>
<path d="M351.661 197.826H351.653C350.683 197.738 350.145 196.645 350.665 195.825L350.789 195.631C351.053 195.217 351.512 194.987 352.005 195.023C352.42 195.049 352.869 195.023 353.328 194.943C356.36 194.397 357.753 191.576 357.727 188.702C357.727 187.988 358.22 187.371 358.926 187.256C359.754 187.133 360.539 187.75 360.548 188.587C360.636 193.189 357.921 196.989 353.821 197.72C353.081 197.853 352.358 197.888 351.67 197.826H351.661Z" fill="#F0F0F0"/>
<path d="M352.287 192.616C350.789 192.484 349.669 191.47 349.255 190.024C349.017 189.187 349.722 188.376 350.586 188.455L350.912 188.481C351.415 188.526 351.829 188.869 351.996 189.345C352.076 189.575 352.234 189.777 352.525 189.804C353.204 189.866 353.319 188.887 353.336 188.693C353.345 188.552 353.381 188.014 353.143 187.697C352.913 187.388 352.763 187.027 352.79 186.639C352.896 185.387 354.483 184.876 355.285 185.854C355.919 186.63 356.246 187.714 356.14 188.94C355.937 191.25 354.306 192.792 352.27 192.616H352.287Z" fill="#F0F0F0"/>
<path d="M325.77 161.064C324.994 160.994 324.421 160.315 324.491 159.539L325.558 147.312L337.785 148.378C338.561 148.449 339.134 149.128 339.064 149.904C338.993 150.679 338.314 151.252 337.539 151.182L328.123 150.362L327.303 159.777C327.233 160.553 326.554 161.126 325.778 161.056L325.77 161.064Z" fill="#F0F0F0"/>
<path d="M383.892 166.151C383.116 166.081 382.543 165.402 382.614 164.626L383.434 155.211L374.019 154.391C373.243 154.32 372.67 153.641 372.74 152.866C372.811 152.09 373.49 151.517 374.265 151.587L386.493 152.654L385.426 164.882C385.356 165.657 384.677 166.23 383.901 166.16L383.892 166.151Z" fill="#F0F0F0"/>
<path d="M379.563 231.873L367.336 230.806C366.56 230.735 365.987 230.057 366.058 229.281C366.128 228.505 366.807 227.932 367.583 228.003L376.998 228.822L377.818 219.407C377.888 218.631 378.567 218.058 379.343 218.129C380.119 218.199 380.692 218.878 380.621 219.654L379.555 231.882L379.563 231.873Z" fill="#F0F0F0"/>
<path d="M330.856 227.606L318.629 226.539L319.696 214.312C319.766 213.536 320.445 212.963 321.221 213.033C321.997 213.104 322.57 213.783 322.499 214.559L321.679 223.974L331.094 224.794C331.87 224.864 332.443 225.543 332.373 226.319C332.302 227.095 331.623 227.668 330.848 227.597L330.856 227.606Z" fill="#F0F0F0"/>
<path d="M65.8799 201.15C65.4038 201.194 64.9807 200.841 64.9366 200.365L64.2754 192.845L71.7953 192.184C72.2713 192.14 72.6945 192.493 72.7385 192.969C72.7826 193.445 72.43 193.868 71.9539 193.912L66.1708 194.414L66.6733 200.198C66.7174 200.674 66.3647 201.097 65.8887 201.141L65.8799 201.15Z" fill="#E0E0E0"/>
<path d="M101.619 198.029C101.143 198.073 100.72 197.72 100.676 197.244L100.174 191.461L94.3904 191.964C93.9143 192.008 93.4912 191.655 93.4471 191.179C93.403 190.703 93.7556 190.28 94.2317 190.236L101.752 189.575L102.413 197.094C102.457 197.571 102.104 197.994 101.628 198.038L101.619 198.029Z" fill="#E0E0E0"/>
<path d="M105.322 230.392L97.8025 231.053C97.3264 231.097 96.9033 230.744 96.8592 230.268C96.8151 229.792 97.1677 229.369 97.6438 229.325L103.427 228.822L102.924 223.039C102.88 222.563 103.233 222.14 103.709 222.096C104.185 222.052 104.608 222.405 104.652 222.881L105.314 230.4L105.322 230.392Z" fill="#E0E0E0"/>
<path d="M75.3664 233.01L67.8465 233.671L67.1854 226.151C67.1413 225.675 67.4939 225.252 67.97 225.208C68.446 225.164 68.8692 225.517 68.9133 225.993L69.4158 231.776L75.1989 231.273C75.675 231.229 76.0981 231.582 76.1422 232.058C76.1863 232.534 75.8336 232.957 75.3576 233.001L75.3664 233.01Z" fill="#E0E0E0"/>
<path d="M101.011 75.8157L72.2449 78.3282L71.6543 71.593C71.046 64.6109 76.2297 58.431 83.2118 57.8227C90.1939 57.2144 96.3737 62.3981 96.982 69.3802L97.3258 73.2944L101.478 72.933L101.134 69.0188C100.323 59.7446 92.1157 52.8594 82.8503 53.6705C73.5761 54.4815 66.691 62.689 67.502 71.9544L68.0927 78.7249C64.7427 79.3773 62.3624 82.4628 62.6622 85.9363L64.7162 109.422C65.0424 113.133 68.3131 115.883 72.0333 115.557L104.237 112.736C107.949 112.41 110.699 109.139 110.373 105.419L108.319 81.9339C107.993 78.2224 104.722 75.4719 101.002 75.7981L101.011 75.8157ZM88.7921 93.9145L89.4974 101.999C89.612 103.33 88.6335 104.493 87.3023 104.617C85.9711 104.732 84.8074 103.753 84.684 102.422L83.9787 94.3377C82.9208 93.6853 82.1715 92.5745 82.0481 91.2434C81.8541 89.013 83.5027 87.0382 85.7419 86.8443C87.9723 86.6503 89.947 88.2989 90.141 90.5381C90.2556 91.8693 89.709 93.0947 88.7833 93.9234L88.7921 93.9145Z" fill="#EBEBEB"/>
<path d="M150.256 89.4273L147.347 84.6844C145.769 84.9048 144.482 84.9048 142.904 84.6844L139.995 89.4273L139.439 89.2775C137.562 88.775 135.754 88.0256 134.062 87.0471L133.559 86.7561L134.794 81.6077C134.891 81.1934 135.314 80.9377 135.728 81.0347C136.142 81.1317 136.398 81.5548 136.301 81.9692L135.34 85.9804C136.601 86.668 137.914 87.2146 139.281 87.6201L142.119 82.9918L142.631 83.08C144.279 83.3532 145.954 83.3532 147.603 83.08L148.114 82.9918L150.953 87.6201C152.31 87.2146 153.633 86.668 154.894 85.9804L153.633 80.7085L154.056 80.4088C155.211 79.5801 156.234 78.6015 157.115 77.4908C157.38 77.1646 157.847 77.0852 158.182 77.3321C158.534 77.5877 158.623 78.0902 158.349 78.434C157.485 79.5272 156.489 80.5058 155.378 81.3609L156.674 86.765L156.172 87.0559C154.479 88.0344 152.672 88.7838 150.803 89.2863L150.248 89.4361L150.256 89.4273ZM132.431 79.0776C132.184 78.7955 131.946 78.5134 131.726 78.2136L126.322 79.5096L126.031 79.0071C125.052 77.3144 124.303 75.5072 123.8 73.6294L123.65 73.074L128.393 70.1648C128.287 69.3714 128.235 68.6485 128.235 67.9433C128.235 67.238 128.287 66.5151 128.393 65.7217L123.65 62.8125L123.8 62.2571C124.303 60.3793 125.052 58.5721 126.031 56.8795L126.322 56.377L131.726 57.6729C132.634 56.4916 133.683 55.4425 134.864 54.5345L133.886 50.4439C133.789 50.0296 134.044 49.6064 134.459 49.5095C134.873 49.4125 135.296 49.6681 135.393 50.0825L136.61 55.178L136.186 55.4866C134.829 56.4651 133.647 57.6464 132.669 59.0041L132.369 59.4272L127.089 58.1666C126.41 59.4272 125.854 60.7408 125.458 62.1072L130.086 64.9459L130.007 65.4572C129.857 66.3652 129.786 67.1763 129.786 67.9433C129.786 68.7102 129.857 69.5213 130.007 70.4293L130.095 70.9406L125.466 73.7793C125.872 75.1369 126.419 76.4593 127.097 77.72L132.378 76.4593L132.678 76.8825C132.969 77.2792 133.268 77.6671 133.595 78.0373C133.868 78.3459 133.859 78.8043 133.559 79.0952L133.533 79.1217C133.224 79.4214 132.722 79.395 132.44 79.0688L132.431 79.0776ZM163.939 79.5096L161.946 79.0335C161.532 78.9365 161.276 78.5134 161.373 78.099C161.47 77.6847 161.893 77.429 162.308 77.526L163.172 77.7288C163.85 76.4681 164.406 75.1546 164.802 73.7881L160.174 70.9494L160.262 70.4381C160.412 69.5301 160.483 68.7191 160.483 67.9521C160.483 67.1851 160.412 66.3741 160.262 65.466L160.183 64.9547L164.811 62.116C164.406 60.7584 163.859 59.436 163.18 58.1754L157.9 59.436L157.591 59.0129C156.613 57.6552 155.431 56.4739 154.074 55.4954L153.65 55.1868L154.911 49.9062C153.651 49.2185 152.337 48.672 150.971 48.2664L148.132 52.8947L147.621 52.8154C145.972 52.5509 144.297 52.5509 142.648 52.8154L142.137 52.8947L139.298 48.2664C139.122 48.3193 138.946 48.3722 138.769 48.4339C138.373 48.5662 137.95 48.3546 137.809 47.9667C137.659 47.5612 137.87 47.1028 138.285 46.9617C138.672 46.8383 139.06 46.7237 139.448 46.6179L140.004 46.468L142.913 51.2109C144.491 50.9905 145.769 50.9905 147.356 51.2109L150.265 46.468L150.821 46.6179C152.698 47.1204 154.506 47.8697 156.189 48.8483L156.692 49.1392L155.396 54.5433C156.577 55.4513 157.626 56.5004 158.534 57.6817L163.939 56.3858L164.229 56.8883C165.208 58.5809 165.957 60.3881 166.46 62.2659L166.61 62.8213L161.867 65.7305C161.973 66.5239 162.025 67.2556 162.025 67.9521C162.025 68.6485 161.973 69.3802 161.867 70.1737L166.61 73.0829L166.46 73.6383C165.957 75.516 165.208 77.3233 164.229 79.0159L163.939 79.5184V79.5096ZM144.914 75.5072C140.973 75.3926 137.694 72.1131 137.579 68.1725C137.465 64.2054 140.436 60.8906 144.262 60.441C144.72 60.3881 145.134 60.7496 145.134 61.2168C145.134 61.6047 144.844 61.9397 144.456 61.9838C141.079 62.3629 138.54 65.563 139.246 69.1598C139.704 71.496 141.591 73.3826 143.927 73.841C147.762 74.5904 151.138 71.6547 151.138 67.9521C151.138 66.7091 150.759 65.5101 150.054 64.5051C149.833 64.1877 149.895 63.7558 150.186 63.5001C150.539 63.1916 151.076 63.2533 151.341 63.6412C152.222 64.9018 152.69 66.4093 152.69 67.9609C152.69 72.2013 149.181 75.6394 144.914 75.516V75.5072Z" fill="#F0F0F0"/>
<path d="M95.4837 153.959L93.606 150.9C92.5921 151.041 91.7546 151.041 90.7408 150.9L88.8631 153.959L88.5016 153.862C87.2939 153.536 86.1214 153.051 85.0282 152.425L84.702 152.24L85.4954 148.916C85.5572 148.643 85.8304 148.484 86.1037 148.546C86.377 148.608 86.5357 148.881 86.474 149.154L85.8481 151.746C86.6591 152.187 87.5142 152.54 88.3958 152.804L90.2295 149.815L90.5645 149.868C91.6312 150.045 92.7156 150.045 93.7735 149.868L94.1085 149.815L95.9421 152.804C96.8237 152.54 97.6789 152.187 98.4899 151.746L97.67 148.334L97.9433 148.14C98.6927 147.603 99.3538 146.977 99.9181 146.254C100.086 146.042 100.385 145.989 100.606 146.148C100.835 146.316 100.888 146.642 100.711 146.862C100.147 147.567 99.5037 148.202 98.7896 148.749L99.6271 152.24L99.301 152.425C98.2078 153.06 97.0441 153.544 95.8275 153.862L95.4661 153.959H95.4837ZM83.9703 147.276C83.8116 147.1 83.6618 146.906 83.5119 146.721L80.0208 147.559L79.8357 147.232C79.201 146.139 78.7161 144.976 78.3987 143.759L78.3018 143.398L81.3608 141.52C81.2903 141.008 81.255 140.541 81.255 140.083C81.255 139.624 81.2903 139.157 81.3608 138.646L78.3018 136.768L78.3987 136.407C78.7249 135.199 79.2098 134.026 79.8357 132.933L80.0208 132.607L83.5119 133.445C84.0937 132.678 84.7814 131.999 85.5395 131.417L84.9048 128.772C84.8431 128.508 85.0018 128.234 85.275 128.173C85.5395 128.111 85.8128 128.27 85.8745 128.543L86.6591 131.831L86.3858 132.034C85.5131 132.66 84.7461 133.427 84.1114 134.308L83.9174 134.582L80.5057 133.762C80.0649 134.573 79.7123 135.428 79.4478 136.31L82.4364 138.143L82.3835 138.478C82.2865 139.069 82.2424 139.589 82.2424 140.083C82.2424 140.576 82.2865 141.105 82.3835 141.687L82.4364 142.022L79.4478 143.856C79.7123 144.738 80.0649 145.593 80.5057 146.404L83.9174 145.584L84.1114 145.857C84.2965 146.113 84.4993 146.368 84.702 146.606C84.8783 146.809 84.8695 147.1 84.6844 147.285L84.6668 147.303C84.464 147.497 84.1466 147.479 83.9615 147.268L83.9703 147.276ZM104.326 147.559L103.039 147.25C102.766 147.188 102.607 146.915 102.669 146.642C102.73 146.368 103.004 146.21 103.277 146.271L103.832 146.404C104.273 145.593 104.626 144.738 104.89 143.856L101.902 142.022L101.955 141.687C102.051 141.097 102.096 140.576 102.096 140.083C102.096 139.589 102.051 139.06 101.955 138.478L101.902 138.143L104.89 136.31C104.626 135.428 104.273 134.573 103.832 133.762L100.421 134.582L100.227 134.308C99.6007 133.436 98.8337 132.669 97.9521 132.034L97.6789 131.831L98.4987 128.42C97.6877 127.979 96.8325 127.626 95.951 127.362L94.1173 130.35L93.7823 130.297C92.7156 130.121 91.6312 130.121 90.5645 130.297L90.2295 130.35L88.3958 127.362C88.2812 127.397 88.1666 127.432 88.052 127.467C87.7964 127.547 87.5231 127.415 87.4349 127.159C87.3379 126.894 87.479 126.595 87.7435 126.515C87.9903 126.436 88.246 126.357 88.4928 126.295L88.8543 126.198L90.732 129.257C91.7546 129.116 92.5745 129.116 93.5971 129.257L95.4749 126.198L95.8363 126.295C97.0441 126.621 98.2166 127.106 99.3098 127.732L99.636 127.917L98.7985 131.408C99.5654 131.99 100.244 132.678 100.826 133.436L104.317 132.598L104.502 132.924C105.137 134.018 105.622 135.181 105.939 136.398L106.036 136.759L102.977 138.637C103.048 139.148 103.083 139.616 103.083 140.074C103.083 140.532 103.048 141 102.977 141.511L106.036 143.389L105.939 143.75C105.613 144.958 105.128 146.13 104.502 147.224L104.317 147.55L104.326 147.559ZM92.0367 144.976C89.489 144.905 87.3732 142.78 87.2939 140.241C87.2233 137.676 89.1364 135.534 91.6136 135.252C91.9133 135.216 92.1778 135.455 92.1778 135.754C92.1778 136.01 91.9927 136.221 91.737 136.248C89.5595 136.495 87.9198 138.558 88.3694 140.885C88.6691 142.393 89.8857 143.609 91.3932 143.909C93.8704 144.394 96.0479 142.498 96.0479 140.109C96.0479 139.307 95.8011 138.531 95.3427 137.879C95.2016 137.676 95.2369 137.394 95.422 137.226C95.6512 137.024 95.995 137.068 96.1713 137.315C96.7356 138.126 97.0441 139.104 97.0441 140.1C97.0441 142.842 94.7785 145.055 92.0191 144.984L92.0367 144.976Z" fill="#E6E6E6"/>
<path d="M220.395 328C314.797 328 391.324 323.532 391.324 318.021C391.324 312.509 314.797 308.041 220.395 308.041C125.993 308.041 49.4658 312.509 49.4658 318.021C49.4658 323.532 125.993 328 220.395 328Z" fill="#F5F5F5"/>
<path d="M320.409 80.109H291.705L271.402 312.184H300.107C308.27 312.184 315.49 305.546 316.204 297.383L333.915 94.9195C334.629 86.7561 328.573 80.1178 320.409 80.1178V80.109Z" fill="#C9A573"/>
<path d="M314.556 80.109H217.406C209.242 80.109 202.022 86.7473 201.308 94.9107L183.597 297.374C182.883 305.537 188.94 312.176 197.103 312.176H294.253C302.416 312.176 309.636 305.537 310.351 297.374L328.061 94.9107C328.776 86.7473 322.719 80.109 314.556 80.109Z" fill="#FFD59A"/>
<path opacity="0.3" d="M315.016 80H217.866C209.702 80 202.482 86.6383 201.768 94.8017L184.057 297.265C183.343 305.428 189.4 312.067 197.563 312.067H294.713C302.876 312.067 310.096 305.428 310.811 297.265L328.521 94.8017C329.236 86.6383 323.179 80 315.016 80Z" fill="white"/>
<path opacity="0.4" d="M314.142 84.8519H288.532C287.024 84.8519 285.605 85.8393 285.041 87.2939C282.969 92.645 277.724 96.3124 272.143 96.3124H256.998C251.409 96.3124 246.807 92.645 245.678 87.2939C245.37 85.8481 244.127 84.8519 242.619 84.8519H217.009C211.456 84.8519 206.554 89.3568 206.069 94.9107L188.358 297.374C187.873 302.928 191.981 307.433 197.535 307.433H294.685C300.239 307.433 305.141 302.928 305.626 297.374L323.337 94.9107C323.821 89.3568 319.713 84.8519 314.159 84.8519H314.142Z" fill="white"/>
<path d="M289.933 194.838H221.946C219.927 194.838 218.437 193.207 218.614 191.188L218.958 187.3C219.134 185.281 220.915 183.65 222.925 183.65H290.912C292.931 183.65 294.421 185.281 294.244 187.3L293.901 191.188C293.724 193.207 291.943 194.838 289.933 194.838Z" fill="white"/>
<path d="M288.47 211.623H220.482C218.463 211.623 216.974 209.992 217.15 207.973L217.494 204.085C217.67 202.067 219.451 200.436 221.461 200.436H289.448C291.467 200.436 292.957 202.067 292.78 204.085L292.437 207.973C292.26 209.992 290.48 211.623 288.47 211.623Z" fill="white"/>
<path opacity="0.1" d="M269.278 88.6515C269.084 90.8907 267.11 92.6979 264.879 92.6979C262.649 92.6979 260.991 90.8819 261.185 88.6515C261.379 86.4123 263.354 84.605 265.584 84.605C267.815 84.605 269.472 86.4211 269.278 88.6515Z" fill="black"/>
<path opacity="0.1" d="M267.444 88.6515C267.338 89.8769 266.262 90.8643 265.037 90.8643C263.812 90.8643 262.912 89.8769 263.018 88.6515C263.124 87.4261 264.2 86.4388 265.425 86.4388C266.65 86.4388 267.55 87.4261 267.444 88.6515Z" fill="black"/>
<g opacity="0.8">
<path d="M302.178 95.3956C301.526 95.3956 301.041 94.8666 301.094 94.2054L301.288 92.0367C301.349 91.3844 301.922 90.8466 302.575 90.8466C303.227 90.8466 303.712 91.3756 303.659 92.0367L303.465 94.2054C303.404 94.8578 302.83 95.3956 302.178 95.3956Z" fill="white"/>
<path d="M311.663 95.3956C311.011 95.3956 310.526 94.8666 310.579 94.2054L311.02 89.1187C311.073 88.4664 311.655 87.9286 312.307 87.9286C312.959 87.9286 313.444 88.4575 313.391 89.1187L312.951 94.2054C312.898 94.8578 312.316 95.3956 311.663 95.3956Z" fill="white"/>
<path d="M306.921 95.3955C306.269 95.3955 305.784 94.8666 305.837 94.2054L306.154 90.5821C306.216 89.9298 306.789 89.392 307.441 89.392C308.094 89.392 308.579 89.9209 308.526 90.5821L308.208 94.2054C308.155 94.8578 307.574 95.3955 306.921 95.3955Z" fill="white"/>
</g>
<g opacity="0.8">
<path d="M220.959 95.3956H214.999C214.629 95.3956 214.355 95.0958 214.391 94.7256L214.673 91.5254C214.708 91.1552 215.034 90.8554 215.405 90.8554H221.364C221.734 90.8554 222.008 91.1552 221.972 91.5254L221.69 94.7256C221.655 95.0958 221.329 95.3956 220.959 95.3956Z" fill="white"/>
<path d="M223.718 94.5316C223.348 94.5316 223.074 94.2319 223.11 93.8616L223.242 92.3982C223.277 92.0279 223.603 91.7282 223.973 91.7282C224.344 91.7282 224.617 92.0279 224.582 92.3982L224.45 93.8616C224.414 94.2319 224.088 94.5316 223.718 94.5316Z" fill="white"/>
</g>
<path d="M278.732 169.251C290.595 157.895 291.778 139.879 281.374 129.011C270.971 118.143 252.92 118.539 241.057 129.896C229.194 141.252 228.011 159.268 238.414 170.136C248.818 181.004 266.869 180.608 278.732 169.251Z" fill="white"/>
<path d="M259.994 148.484C252.51 148.484 246.198 151.332 245.66 157.512L245.061 164.37H272.151L272.751 157.512C273.289 151.332 267.479 148.484 259.994 148.484Z" fill="#FFD59A"/>
<path d="M260.242 145.654C263.715 145.654 265.311 142.842 265.619 139.369C265.919 135.895 264.817 133.083 261.344 133.083C257.87 133.083 256.274 135.895 255.966 139.369C255.666 142.842 256.768 145.654 260.242 145.654Z" fill="#FFD59A"/>
<path d="M286.831 189.037C284.979 189.037 283.428 189.742 283.287 191.267L283.137 192.96H289.828L289.978 191.267C290.11 189.742 288.673 189.037 286.831 189.037Z" fill="#FFD59A"/>
<path d="M286.892 188.34C287.747 188.34 288.144 187.644 288.223 186.789C288.302 185.934 288.02 185.237 287.165 185.237C286.31 185.237 285.913 185.934 285.834 186.789C285.755 187.644 286.037 188.34 286.892 188.34Z" fill="#FFD59A"/>
<path d="M266.227 228.408H239.771C236.677 228.408 234.393 225.904 234.667 222.81C234.94 219.716 237.664 217.212 240.75 217.212H267.206C270.3 217.212 272.583 219.716 272.31 222.81C272.037 225.904 269.313 228.408 266.227 228.408Z" fill="#FFD59A"/>
<path d="M263.037 290.797H234.72C231.459 290.797 229.043 288.153 229.325 284.882L231.132 264.227C231.414 260.965 234.297 258.311 237.559 258.311H265.875C269.137 258.311 271.553 260.956 271.271 264.227L269.463 284.882C269.181 288.144 266.299 290.797 263.037 290.797Z" fill="#FFD59A"/>
<g opacity="0.6">
<path d="M254.308 269.454C254.476 267.488 253.03 265.893 251.064 265.893C249.098 265.893 247.37 267.488 247.194 269.454C247.088 270.627 247.573 271.65 248.393 272.302L247.767 279.416C247.661 280.58 248.525 281.532 249.698 281.532C250.87 281.532 251.893 280.589 251.999 279.416L252.625 272.302C253.55 271.65 254.211 270.627 254.317 269.454H254.308Z" fill="white"/>
</g>
<path d="M266.131 262.622H262.481L263.371 252.405C263.909 246.269 259.351 241.27 253.207 241.27C247.062 241.27 241.632 246.269 241.094 252.405L240.203 262.622H236.554L237.444 252.405C238.158 244.25 245.369 237.621 253.524 237.621C261.679 237.621 267.726 244.25 267.012 252.405L266.122 262.622H266.131Z" fill="#FFD59A"/>
<path d="M287.28 204.685L287.368 203.706C287.456 202.701 286.715 201.89 285.71 201.89C284.705 201.89 283.824 202.701 283.736 203.706L283.647 204.685C283.251 204.685 282.898 205.011 282.863 205.408L282.634 208.017C282.598 208.414 282.898 208.74 283.295 208.74H286.927C287.324 208.74 287.676 208.414 287.712 208.017L287.941 205.408C287.976 205.011 287.676 204.685 287.28 204.685ZM285.666 202.34C286.424 202.34 286.98 202.957 286.918 203.706L286.83 204.685H284.097L284.185 203.706C284.247 202.948 284.917 202.34 285.675 202.34H285.666Z" fill="#FFD59A"/>
<path d="M232.604 205.734L231.335 205.469C231.185 205.434 231.106 205.284 231.167 205.134L231.696 203.883C231.811 203.618 231.485 203.415 231.282 203.627L230.321 204.614C230.206 204.729 230.021 204.729 229.933 204.614L229.149 203.627C228.981 203.415 228.62 203.609 228.69 203.883L228.999 205.134C229.034 205.284 228.928 205.443 228.778 205.469L227.465 205.734C227.183 205.787 227.147 206.183 227.421 206.245L228.69 206.51C228.84 206.545 228.919 206.695 228.858 206.845L228.329 208.097C228.214 208.361 228.54 208.564 228.743 208.352L229.704 207.365C229.819 207.25 230.004 207.25 230.092 207.365L230.876 208.352C231.044 208.564 231.405 208.37 231.335 208.097L231.026 206.845C230.991 206.695 231.097 206.536 231.247 206.51L232.56 206.245C232.842 206.192 232.878 205.796 232.604 205.734Z" fill="#263238"/>
<path d="M240.944 205.734L239.675 205.469C239.525 205.434 239.446 205.284 239.507 205.134L240.036 203.883C240.151 203.618 239.825 203.415 239.622 203.627L238.661 204.614C238.546 204.729 238.361 204.729 238.273 204.614L237.488 203.627C237.321 203.415 236.959 203.609 237.03 203.883L237.339 205.134C237.374 205.284 237.268 205.443 237.118 205.469L235.805 205.734C235.523 205.787 235.487 206.183 235.761 206.245L237.03 206.51C237.18 206.545 237.259 206.695 237.198 206.845L236.669 208.097C236.554 208.361 236.88 208.564 237.083 208.352L238.044 207.365C238.158 207.25 238.344 207.25 238.432 207.365L239.216 208.352C239.384 208.564 239.745 208.37 239.675 208.097L239.366 206.845C239.331 206.695 239.437 206.536 239.587 206.51L240.9 206.245C241.182 206.192 241.218 205.796 240.944 205.734Z" fill="#263238"/>
<path d="M249.284 205.734L248.015 205.469C247.865 205.434 247.785 205.284 247.847 205.134L248.376 203.883C248.491 203.618 248.164 203.415 247.962 203.627L247.001 204.614C246.886 204.729 246.701 204.729 246.613 204.614L245.828 203.627C245.661 203.415 245.299 203.609 245.37 203.883L245.678 205.134C245.714 205.284 245.608 205.443 245.458 205.469L244.144 205.734C243.862 205.787 243.827 206.183 244.1 206.245L245.37 206.51C245.52 206.545 245.599 206.695 245.537 206.845L245.008 208.097C244.894 208.361 245.22 208.564 245.423 208.352L246.384 207.365C246.498 207.25 246.683 207.25 246.772 207.365L247.556 208.352C247.724 208.564 248.085 208.37 248.015 208.097L247.706 206.845C247.671 206.695 247.777 206.536 247.926 206.51L249.24 206.245C249.522 206.192 249.557 205.796 249.284 205.734Z" fill="#263238"/>
<path d="M257.633 205.734L256.363 205.469C256.213 205.434 256.134 205.284 256.196 205.134L256.725 203.883C256.839 203.618 256.513 203.415 256.31 203.627L255.349 204.614C255.235 204.729 255.05 204.729 254.962 204.614L254.177 203.627C254.009 203.415 253.648 203.609 253.718 203.883L254.027 205.134C254.062 205.284 253.957 205.443 253.807 205.469L252.493 205.734C252.211 205.787 252.176 206.183 252.449 206.245L253.718 206.51C253.868 206.545 253.948 206.695 253.886 206.845L253.357 208.097C253.242 208.361 253.569 208.564 253.771 208.352L254.732 207.365C254.847 207.25 255.032 207.25 255.12 207.365L255.905 208.352C256.072 208.564 256.434 208.37 256.363 208.097L256.055 206.845C256.019 206.695 256.125 206.536 256.275 206.51L257.589 206.245C257.871 206.192 257.906 205.796 257.633 205.734Z" fill="#263238"/>
<path d="M265.973 205.734L264.703 205.469C264.553 205.434 264.474 205.284 264.536 205.134L265.065 203.883C265.179 203.618 264.853 203.415 264.65 203.627L263.689 204.614C263.575 204.729 263.39 204.729 263.301 204.614L262.517 203.627C262.349 203.415 261.988 203.609 262.058 203.883L262.367 205.134C262.402 205.284 262.296 205.443 262.146 205.469L260.833 205.734C260.551 205.787 260.516 206.183 260.789 206.245L262.058 206.51C262.208 206.545 262.288 206.695 262.226 206.845L261.697 208.097C261.582 208.361 261.908 208.564 262.111 208.352L263.072 207.365C263.187 207.25 263.372 207.25 263.46 207.365L264.245 208.352C264.412 208.564 264.774 208.37 264.703 208.097L264.395 206.845C264.359 206.695 264.465 206.536 264.615 206.51L265.928 206.245C266.211 206.192 266.246 205.796 265.973 205.734Z" fill="#263238"/>
<path d="M274.311 205.734L273.042 205.469C272.892 205.434 272.813 205.284 272.874 205.134L273.403 203.883C273.518 203.618 273.192 203.415 272.989 203.627L272.028 204.614C271.914 204.729 271.728 204.729 271.64 204.614L270.856 203.627C270.688 203.415 270.327 203.609 270.397 203.883L270.706 205.134C270.741 205.284 270.635 205.443 270.485 205.469L269.172 205.734C268.89 205.787 268.854 206.183 269.128 206.245L270.397 206.51C270.547 206.545 270.626 206.695 270.565 206.845L270.036 208.097C269.921 208.361 270.247 208.564 270.45 208.352L271.411 207.365C271.526 207.25 271.711 207.25 271.799 207.365L272.584 208.352C272.751 208.564 273.112 208.37 273.042 208.097L272.733 206.845C272.698 206.695 272.804 206.536 272.954 206.51L274.267 206.245C274.549 206.192 274.585 205.796 274.311 205.734Z" fill="#263238"/>
<path d="M254.203 187.476H238.537C237.568 187.476 236.704 188.27 236.624 189.24C236.536 190.209 237.259 191.003 238.229 191.003H253.895C254.864 191.003 255.728 190.209 255.808 189.24C255.896 188.27 255.173 187.476 254.203 187.476Z" fill="#263238"/>
<path d="M270.107 187.476H261.018C260.048 187.476 259.184 188.27 259.105 189.24C259.017 190.209 259.74 191.003 260.709 191.003H269.798C270.768 191.003 271.632 190.209 271.711 189.24C271.8 188.27 271.077 187.476 270.107 187.476Z" fill="#263238"/>
<path d="M282.104 267.392C276.198 269.754 271.023 273.192 267.479 277.098C265.398 275.326 262.445 274.1 258.91 273.536L258.496 273.474L258.311 275.555L258.54 275.643C262.031 276.965 264.878 279.31 266.765 282.422L267.065 282.907L267.391 282.387C271.023 276.569 276.321 271.702 282.307 268.67L282.51 268.564L282.633 267.18L282.113 267.392H282.104Z" fill="#263238"/>
<path opacity="0.2" d="M203.327 93.8176C202.225 95.757 201.502 97.9169 201.3 100.209L188.173 250.271H228.796L236.959 218.984L234.271 187.697L242.434 156.41L239.745 125.122L247.909 93.8352H203.336L203.327 93.8176Z" fill="black"/>
<path d="M236.219 116.289L244.382 85.0018H141.652L133.497 116.289L136.177 147.585L128.022 178.872L130.702 210.159L122.548 241.456H225.269L233.433 210.159L230.744 178.872L238.907 147.585L236.219 116.289Z" fill="#305F82"/>
<path opacity="0.7" d="M236.219 116.289L244.382 85.0018H141.652L133.497 116.289L136.177 147.585L128.022 178.872L130.702 210.159L122.548 241.456H225.269L233.433 210.159L230.744 178.872L238.907 147.585L236.219 116.289Z" fill="white"/>
<path opacity="0.5" d="M236.219 116.289H133.497L141.652 85.0018H244.382L236.219 116.289Z" fill="white"/>
<path opacity="0.5" d="M230.744 178.872H128.022L136.177 147.585H238.907L230.744 178.872Z" fill="white"/>
<path opacity="0.5" d="M225.269 241.455H122.548L130.702 210.159H233.433L225.269 241.455Z" fill="white"/>
<path opacity="0.2" d="M222.475 129.372C221.593 129.645 220.464 129.812 219.23 129.812C217.414 129.812 215.827 129.451 214.919 128.913C214.673 128.763 214.399 128.693 214.126 128.693C213.87 128.693 213.623 128.763 213.385 128.896C213.368 128.904 213.35 128.904 213.333 128.922C213.333 128.922 213.315 128.931 213.297 128.94C212.962 129.134 212.539 129.31 212.045 129.442C211.199 129.68 210.15 129.821 209.022 129.821C208.713 129.821 208.413 129.812 208.122 129.795C207.241 129.733 206.439 129.592 205.777 129.38C205.663 129.345 205.548 129.319 205.434 129.319C204.631 129.266 203.917 129.883 203.917 130.729V131.681H163.991C160.896 131.681 158.393 134.185 158.393 137.279V142.921C158.393 146.016 160.896 148.52 163.991 148.52H209.418C209.515 148.52 209.612 148.511 209.718 148.502C210.212 148.907 210.714 149.313 211.261 149.718C211.904 150.212 212.592 150.706 213.306 151.226C213.8 151.587 214.487 151.587 214.981 151.226C220.694 147.083 224.361 144.226 224.361 136.371V130.729C224.361 129.76 223.418 129.098 222.501 129.389L222.475 129.372Z" fill="black"/>
<path d="M208.529 128.561H163.11C160.018 128.561 157.512 131.067 157.512 134.159V139.792C157.512 142.884 160.018 145.39 163.11 145.39H208.529C211.62 145.39 214.127 142.884 214.127 139.792V134.159C214.127 131.067 211.62 128.561 208.529 128.561Z" fill="#263238"/>
<path d="M218.358 126.7C216.542 126.7 214.955 126.339 214.047 125.801C213.553 125.501 212.954 125.501 212.46 125.801C211.552 126.339 209.956 126.7 208.149 126.7C206.915 126.7 205.787 126.533 204.905 126.26C203.979 125.969 203.045 126.639 203.045 127.6V133.242C203.045 141.097 206.712 143.953 212.425 148.096C212.919 148.458 213.606 148.458 214.1 148.096C219.813 143.953 223.48 141.097 223.48 133.242V127.6C223.48 126.63 222.537 125.969 221.62 126.26C220.738 126.533 219.61 126.7 218.376 126.7H218.358Z" fill="#256A7F"/>
<path opacity="0.3" d="M218.358 126.7C216.542 126.7 214.955 126.339 214.047 125.801C213.553 125.501 212.954 125.501 212.46 125.801C211.552 126.339 209.956 126.7 208.149 126.7C206.915 126.7 205.787 126.533 204.905 126.26C203.979 125.969 203.045 126.639 203.045 127.6V133.242C203.045 141.097 206.712 143.953 212.425 148.096C212.919 148.458 213.606 148.458 214.1 148.096C219.813 143.953 223.48 141.097 223.48 133.242V127.6C223.48 126.63 222.537 125.969 221.62 126.26C220.738 126.533 219.61 126.7 218.376 126.7H218.358Z" fill="white"/>
<path opacity="0.2" d="M212.46 125.801C211.552 126.339 209.956 126.7 208.149 126.7C206.915 126.7 205.787 126.533 204.905 126.26C203.979 125.969 203.045 126.639 203.045 127.6V133.242C203.045 141.097 206.712 143.953 212.425 148.096C212.672 148.273 212.971 148.37 213.262 148.37V125.581C212.989 125.581 212.716 125.651 212.469 125.801H212.46Z" fill="white"/>
<path d="M221.444 131.708C217.75 133.233 214.594 135.463 212.522 137.993C211.076 136.847 209.093 136.054 206.765 135.693L206.492 135.648V136.997L206.651 137.05C208.987 137.905 210.962 139.422 212.364 141.44L212.584 141.758L212.769 141.414C214.788 137.65 217.944 134.494 221.647 132.528L221.77 132.457V131.558L221.444 131.69V131.708Z" fill="#263238"/>
<path d="M242.566 93.7999H238.669C236.509 93.7999 234.905 92.0456 235.099 89.8857L235.443 85.9892C235.628 83.8293 237.541 82.075 239.701 82.075H243.597C245.757 82.075 247.362 83.8293 247.168 85.9892L246.824 89.8857C246.639 92.0456 244.726 93.7999 242.566 93.7999Z" fill="#263238"/>
<path d="M244.188 85.9803L243.342 85.0547L241.209 87.0118L239.428 85.0547L238.414 85.9803L240.204 87.9374L238.079 89.8946L238.925 90.829L241.05 88.8719L242.84 90.829L243.845 89.8946L242.055 87.9374L244.188 85.9803Z" fill="white"/>
<path d="M155.485 127.423C157.741 129.883 159.901 132.422 162.035 134.996C164.168 137.561 166.249 140.171 168.303 142.807C168.391 142.921 168.356 142.877 168.382 142.913C168.391 142.93 168.391 142.957 168.409 142.966C168.435 142.992 168.444 143.036 168.47 143.054C168.514 143.115 168.567 143.168 168.629 143.23C168.752 143.345 168.929 143.424 169.114 143.459C169.211 143.477 169.308 143.486 169.414 143.477C169.466 143.477 169.519 143.468 169.572 143.468C169.599 143.468 169.625 143.45 169.652 143.45C169.696 143.433 169.669 143.468 169.793 143.398L171.997 142.199C174.959 140.629 177.947 139.095 181.033 137.72L183.616 140.92C181.13 143.212 178.538 146.069 175.92 148.167L173.945 149.718C173.892 149.763 173.68 149.904 173.548 149.992C173.398 150.089 173.248 150.194 173.09 150.283C172.772 150.459 172.446 150.635 172.102 150.768C171.424 151.058 170.701 151.244 169.969 151.358C168.497 151.579 166.972 151.429 165.543 150.917C164.829 150.662 164.142 150.318 163.516 149.886C163.198 149.674 162.899 149.436 162.608 149.189C162.458 149.066 162.326 148.934 162.193 148.802L161.841 148.449C159.505 146.06 157.204 143.644 154.947 141.176C152.69 138.716 150.46 136.23 148.326 133.665L155.476 127.423H155.485Z" fill="#B55B52"/>
<path d="M179.834 139.668L181.888 133.065L187.301 135.763C187.301 135.763 186.516 140.576 182.576 141.414L179.834 139.668Z" fill="#B55B52"/>
<path d="M184.056 131.241L188.94 132.581L187.301 135.763L181.888 133.065L184.056 131.241Z" fill="#B55B52"/>
<path d="M127.027 129.222C126.436 132.025 125.722 134.802 124.964 137.561C124.215 140.33 123.395 143.08 122.54 145.813L122.222 146.845L122.064 147.356C122.028 147.47 122.011 147.497 121.975 147.567C121.878 147.823 121.817 148.105 121.808 148.405C121.79 148.996 121.931 149.648 122.319 150.212C122.355 150.3 122.654 150.626 122.892 150.882L123.624 151.676L125.07 153.289C126.022 154.382 126.965 155.475 127.864 156.621L124.796 160.174C123.527 159.451 122.31 158.675 121.094 157.891L119.287 156.701L118.396 156.092C118.096 155.881 117.85 155.74 117.365 155.334C115.69 153.915 114.438 151.896 113.98 149.648C113.741 148.528 113.689 147.365 113.821 146.21C113.856 145.936 113.909 145.61 113.953 145.372L114.05 144.843L114.235 143.785C114.729 140.956 115.258 138.135 115.848 135.34C116.439 132.536 117.065 129.742 117.823 126.974L127.045 129.204L127.027 129.222Z" fill="#B55B52"/>
<path d="M124.858 156.383L128.499 154.523L130.104 160.703C130.104 160.703 127.186 161.823 124.929 160.386L124.867 156.383H124.858Z" fill="#B55B52"/>
<path d="M133.515 152.548L133.683 158.217L129.619 160.879L128.208 154.646L133.515 152.548Z" fill="#B55B52"/>
<path d="M145.408 100.077C145.496 100.518 145.796 100.817 146.087 100.764C146.369 100.703 146.537 100.306 146.44 99.8652C146.343 99.4244 146.043 99.1247 145.761 99.1776C145.479 99.2393 145.32 99.636 145.408 100.077Z" fill="#263238"/>
<path d="M145.761 100.826C145.761 100.826 147.268 103.145 148.608 104.141C147.982 105.022 146.598 104.961 146.598 104.961L145.761 100.835V100.826Z" fill="#A02724"/>
<path d="M143.318 97.9698C143.256 97.9698 143.195 97.9433 143.142 97.8993C143.036 97.8023 143.027 97.6348 143.124 97.529C144.112 96.4623 145.302 96.6562 145.355 96.6651C145.496 96.6915 145.593 96.8237 145.566 96.9648C145.54 97.1058 145.407 97.2028 145.266 97.1764C145.266 97.1764 144.297 97.0353 143.512 97.8816C143.459 97.9345 143.389 97.9698 143.318 97.9698Z" fill="#263238"/>
<path d="M132.696 106.221C133.666 110.268 134.636 117.673 131.171 120.371C131.171 120.371 132.529 124.47 141.75 124.47C151.888 124.47 146.599 121.825 146.599 121.825C141.062 120.75 141.212 115.945 142.173 112.798L132.705 106.213L132.696 106.221Z" fill="#B55B52"/>
<path d="M130.086 121.12C129.477 120 128.816 118.713 130.192 118.308C131.708 117.867 141.432 117.047 144.288 117.876C143.406 119.436 144.896 121.358 144.896 121.358L130.086 121.12Z" fill="#263238"/>
<path d="M138.144 310.289H144.5L145.134 297.489H138.769L138.144 310.289Z" fill="#B55B52"/>
<path d="M97.7764 308.526L104.221 308.861L108.135 296.254L101.691 295.911L97.7764 308.526Z" fill="#B55B52"/>
<path d="M104.027 308.35L97.9614 307.036C97.741 306.992 97.5118 307.098 97.4236 307.309L95.3167 311.876C95.0963 312.352 95.3872 312.907 95.8985 313.004C98.0231 313.427 99.081 313.524 101.752 314.106C103.392 314.459 107.103 315.367 109.369 315.852C111.591 316.328 112.419 314.168 111.538 313.762C107.571 311.946 105.913 310.36 104.847 308.87C104.653 308.605 104.362 308.42 104.044 308.35H104.027Z" fill="#263238"/>
<path d="M144.165 309.646H138.126C137.897 309.646 137.703 309.804 137.659 310.025L136.566 314.935C136.451 315.446 136.839 315.931 137.36 315.922C139.537 315.887 142.684 315.755 145.417 315.755C148.617 315.755 151.385 315.931 155.132 315.931C157.398 315.931 158.033 313.639 157.08 313.428C152.752 312.484 149.226 312.378 145.488 310.078C145.082 309.831 144.633 309.646 144.156 309.646H144.165Z" fill="#263238"/>
<path d="M119.648 122.24C114.844 124.523 113.548 138.355 113.548 138.355L125.423 143.838C125.423 143.838 128.367 139.492 128.596 132.669C128.834 125.519 124.559 119.895 119.657 122.231L119.648 122.24Z" fill="#263238"/>
<path opacity="0.4" d="M126.093 130.773C123.951 134.097 124.153 139.254 124.894 143.6L125.423 143.847C125.423 143.847 128.376 139.501 128.597 132.678C128.605 132.254 128.605 131.831 128.597 131.417L126.093 130.773Z" fill="black"/>
<path d="M152.786 121.905C152.786 121.905 158.666 128.552 153.112 169.677H123.544C123.342 165.137 126.189 143.001 121.816 121.614C121.816 121.614 126.885 120.6 131.717 120.362C135.499 120.177 140.964 120.062 144.288 120.362C148.669 120.759 152.786 121.896 152.786 121.896V121.905Z" fill="#FFD59A"/>
<path opacity="0.6" d="M152.97 121.727C152.97 121.727 158.85 128.374 153.296 169.5H123.728C123.525 164.96 126.373 142.823 122 121.436C122 121.436 127.069 120.422 131.9 120.184C135.682 119.999 141.148 119.885 144.471 120.184C148.853 120.581 152.97 121.718 152.97 121.718V121.727Z" fill="#FFD59A"/>
<path opacity="0.2" d="M155.37 134.476L155.255 134.379L149.375 131.241C148.776 140.294 152.822 145.972 155.229 148.449C155.564 142.648 155.555 138.073 155.361 134.476H155.37Z" fill="black"/>
<path opacity="0.2" d="M145.135 297.489L144.808 304.083H138.443L138.77 297.489H145.135Z" fill="black"/>
<path opacity="0.2" d="M101.691 295.911L108.135 296.254L106.116 302.752L99.6719 302.417L101.691 295.911Z" fill="black"/>
<path d="M130.651 102.113C132.07 107.411 132.634 110.585 135.905 112.789C140.824 116.104 146.951 112.295 147.136 106.68C147.312 101.628 144.959 93.8087 139.272 92.742C133.674 91.6929 129.231 96.8149 130.651 102.113Z" fill="#B55B52"/>
<path d="M142.631 169.686C142.631 169.686 136.354 211.931 132.916 227.756C129.143 245.088 108.92 302.425 108.92 302.425L99.0283 300.283C99.0283 300.283 111.705 253.56 114.87 229.325C116.104 219.874 117.594 204.632 119.481 191.92C121.306 179.613 123.554 169.686 123.554 169.686H142.631Z" fill="#263238"/>
<path d="M111.291 299.111L109.449 302.69L98.3145 300.283L99.2489 296.933L111.291 299.111Z" fill="#407BFF"/>
<path opacity="0.6" d="M111.291 299.111L109.449 302.69L98.3145 300.283L99.2489 296.933L111.291 299.111Z" fill="white"/>
<path opacity="0.6" d="M138.664 184.735C131.408 186.154 132.175 213.21 133.048 227.121C135.137 217.283 138.205 198.364 140.294 184.929C139.81 184.691 139.272 184.611 138.664 184.735Z" fill="black"/>
<path d="M153.113 169.686C153.113 169.686 156.066 211.015 155.458 227.87C154.832 245.405 146.518 302.813 146.518 302.813H137.156C137.156 302.813 136.812 246.428 136.398 229.21C135.939 210.442 133.674 169.686 133.674 169.686H153.104H153.113Z" fill="#263238"/>
<path d="M148.326 299.075L147.797 302.963H136.407L136.099 299.49L148.326 299.075Z" fill="#407BFF"/>
<path opacity="0.6" d="M148.326 299.075L147.797 302.963H136.407L136.099 299.49L148.326 299.075Z" fill="white"/>
<path d="M149.34 129.645C149.34 140.735 155.246 145.302 155.246 145.302L164.838 135.922C164.838 135.922 161.576 130.306 157.089 125.14C151.544 118.766 149.34 122.504 149.34 129.645Z" fill="#263238"/>
<path opacity="0.2" d="M146.801 108.69C146.554 109.369 145.919 110.523 144.315 110.982C141.97 111.652 141.943 113.635 141.943 113.635L141.97 113.671C144.2 112.93 146.06 111.088 146.801 108.69Z" fill="black"/>
<path d="M144.315 91.5783C146.29 89.0835 143.248 88.9689 143.248 88.9689C144.042 85.998 140.48 87.5936 140.48 87.5936C138.347 84.6491 137.139 88.2284 137.139 88.2284C134.926 85.7335 134.521 89.8064 134.521 89.8064C132.299 86.6415 131.171 91.2081 131.171 91.2081C129.125 87.9198 127.874 92.2043 127.874 92.2043C123.651 90.6968 125.661 95.0782 125.661 95.0782C122.055 95.1752 124.947 97.9698 124.947 97.9698C120.627 97.9786 124.435 100.456 124.435 100.456C121.006 102.704 125.308 103.312 125.308 103.312C122.514 107.685 127.318 106.063 127.318 106.063C125.37 110.391 129.69 108.487 129.69 108.487C129.408 112.666 131.823 111.528 132.987 110.753C133.207 111.59 133.63 112.489 134.406 112.586C135.914 112.78 136.205 109.942 136.205 109.942C136.205 109.942 137.606 111.026 138.77 110.435C139.942 109.845 139.502 108.355 139.502 108.355C139.502 108.355 140.401 109.025 141.221 108.381C141.723 107.993 141.723 105.181 141.089 104.194L143.381 103.295C143.381 103.295 145.082 103.056 144.324 100.808C143.566 98.5604 144.209 96.7885 144.209 96.7885C146.801 95.5719 144.677 94.1173 144.677 94.1173C147.674 92.1778 144.324 91.5607 144.324 91.5607L144.315 91.5783Z" fill="#263238"/>
<path d="M139.669 102.334C140.03 103.726 140.947 104.917 141.899 105.631C143.336 106.697 144.412 105.648 144.306 104.017C144.218 102.554 143.354 100.227 141.767 99.7947C140.206 99.3627 139.254 100.738 139.66 102.334H139.669Z" fill="#B55B52"/>
</g>
<defs>
<clipPath id="clip0_208_1664">
<rect width="440.789" height="328" fill="white"/>
</clipPath>
</defs>
</svg>
