<svg width="299" height="300" viewBox="0 0 299 300" fill="none" xmlns="http://www.w3.org/2000/svg">
<path d="M73.1518 68.908C60.4299 68.908 50.1152 58.5933 50.1152 45.8714C50.1152 33.1495 60.4299 22.8348 73.1518 22.8348C85.8737 22.8348 96.1884 33.1495 96.1884 45.8714C96.1884 58.5933 85.8737 68.908 73.1518 68.908Z" fill="#EBEBEB"/>
<path d="M104.026 0L107.18 5.76923L112.949 8.92281L107.18 12.0764L104.026 17.8456L100.873 12.0764L95.1035 8.92281L100.873 5.76923L104.026 0Z" fill="#F5F5F5"/>
<path d="M235.583 156.26L237.95 160.584L242.273 162.95L237.95 165.317L235.583 169.641L233.216 165.317L228.893 162.95L233.216 160.584L235.583 156.26Z" fill="#EBEBEB"/>
<path d="M242.275 134.898L243.344 136.848L245.294 137.917L243.344 138.986L242.275 140.936L241.206 138.986L239.256 137.917L241.206 136.848L242.275 134.898Z" fill="#E0E0E0"/>
<path d="M81.4976 2.17188L82.5667 4.12185L84.5167 5.19097L82.5667 6.25337L81.4976 8.21007L80.4285 6.25337L78.4785 5.19097L80.4285 4.12185L81.4976 2.17188Z" fill="#E0E0E0"/>
<path d="M27.9853 183.479C30.3925 182.43 32.0802 179.915 32.0601 176.977C32.0265 173.124 29.0679 170.024 25.4571 170.058C21.8463 170.085 18.9482 173.238 18.9818 177.084C19.0087 180.05 20.7771 182.558 23.2314 183.54C13.1857 185.187 13.7841 196.12 13.7841 196.12L37.5805 195.925C37.5805 195.925 37.9772 184.864 27.9853 183.486V183.479Z" fill="#E0E0E0"/>
<path d="M256.267 255.547C255.931 253.833 254.243 252.495 252.495 252.562C250.767 252.622 249.193 254.055 248.958 255.769C248.709 254.061 247.122 252.642 245.394 252.595C243.653 252.548 241.972 253.9 241.649 255.615C241.413 256.865 241.844 258.163 242.543 259.225C243.249 260.281 244.204 261.142 245.152 261.989C246.483 263.172 247.714 264.289 249.038 265.472C250.356 264.275 251.479 263.152 252.797 261.955C253.739 261.101 254.693 260.234 255.386 259.172C256.079 258.109 256.495 256.805 256.253 255.554L256.267 255.547Z" fill="#EBEBEB"/>
<path d="M271.764 113.811L274.312 113.307L278.34 104.445L277.331 99.3545C277.331 99.3545 281.224 98.3324 282.085 105.09C282.946 111.848 283.107 110.052 283.107 110.052C283.107 110.052 291.485 108.425 292.326 109.017C292.938 109.447 294.814 117.711 295.795 122.203C296.286 124.462 295.318 126.849 293.314 127.804C293.032 127.938 292.736 128.046 292.44 128.106C290.356 128.523 279.348 128.94 279.348 128.94L274.944 129.814L271.77 113.818L271.764 113.811Z" fill="#E0E0E0"/>
<path d="M264.186 113.865L269.215 130.998L273.586 130.13L270.197 113.038L264.186 113.865Z" fill="#E0E0E0"/>
<path d="M297.848 299.516C297.848 299.61 231.166 299.691 148.931 299.691C66.6958 299.691 0 299.61 0 299.516C0 299.422 66.6689 299.341 148.931 299.341C231.193 299.341 297.848 299.422 297.848 299.516Z" fill="#263238"/>
<path d="M246.048 107.087C232.479 113.683 216.133 108.035 209.53 94.4661C202.933 80.897 208.582 64.5508 222.151 57.9478C235.72 51.3515 252.066 56.9997 258.669 70.5689C265.265 84.138 259.617 100.484 246.048 107.087Z" fill="#CE9D3D"/>
<path d="M273.332 184.151C263.609 180.44 258.741 169.547 262.459 159.824C266.171 150.101 277.064 145.233 286.787 148.951C296.51 152.663 301.378 163.556 297.66 173.279C293.948 183.002 283.055 187.87 273.332 184.151Z" fill="#FFD59A"/>
<path d="M28.3205 97.0616C20.3861 97.0616 13.9512 90.6267 13.9512 82.6923C13.9512 74.7579 20.3861 68.323 28.3205 68.323C36.2548 68.323 42.6897 74.7579 42.6897 82.6923C42.6897 90.6267 36.2548 97.0616 28.3205 97.0616Z" fill="#FFD59A"/>
<path d="M54.1412 258.022C40.8478 261.189 27.5006 252.979 24.3335 239.685C21.1665 226.392 29.3766 213.045 42.67 209.878C55.9634 206.711 69.3107 214.921 72.4777 228.214C75.6447 241.507 67.4347 254.855 54.1412 258.022Z" fill="#CE9D3D"/>
<path d="M241.587 236.243C235.213 236.243 230.049 231.079 230.049 224.704C230.049 218.33 235.213 213.166 241.587 213.166C247.962 213.166 253.126 218.33 253.126 224.704C253.126 231.079 247.962 236.243 241.587 236.243Z" fill="#FFD59A"/>
<path d="M32.4147 235.691L36.6598 233.976C37.5001 233.637 38.1401 233.421 38.5799 233.327C39.0225 233.227 39.4505 233.223 39.8638 233.315C40.2819 233.404 40.6747 233.591 41.0422 233.875C41.4077 234.154 41.6831 234.523 41.8684 234.982C42.0693 235.48 42.1183 235.991 42.0156 236.515C41.9177 237.038 41.6813 237.495 41.3064 237.888C42.0296 237.815 42.6567 237.936 43.1877 238.249C43.7188 238.563 44.1081 239.026 44.3558 239.64C44.5508 240.122 44.6275 240.639 44.5858 241.19C44.547 241.733 44.3875 242.222 44.1075 242.655C43.8304 243.081 43.4195 243.441 42.875 243.734C42.5332 243.917 41.6809 244.289 40.3181 244.851L36.7033 246.311L32.4147 235.691ZM35.2728 236.592L36.2645 239.048L37.6698 238.481C38.5053 238.143 39.0196 237.922 39.2127 237.815C39.5622 237.624 39.7988 237.382 39.9226 237.091C40.0493 236.792 40.0434 236.472 39.905 236.129C39.7723 235.8 39.5733 235.572 39.3079 235.443C39.0453 235.308 38.7266 235.29 38.3517 235.391C38.1294 235.453 37.5136 235.687 36.5043 236.095L35.2728 236.592ZM36.9783 240.816L38.125 243.655L40.1099 242.854C40.8826 242.542 41.364 242.322 41.5541 242.195C41.8495 242.008 42.0513 241.764 42.1596 241.462C42.2707 241.153 42.2503 240.81 42.0982 240.433C41.9694 240.115 41.783 239.875 41.5387 239.716C41.2945 239.556 41.0046 239.485 40.669 239.502C40.3383 239.518 39.6851 239.723 38.7096 240.117L36.9783 240.816ZM43.1143 231.37L45.2586 230.504L47.5813 236.256C47.9499 237.169 48.2154 237.75 48.3777 237.999C48.645 238.396 49.0037 238.659 49.4539 238.786C49.9069 238.906 50.4328 238.845 51.0317 238.603C51.6402 238.358 52.0492 238.049 52.2589 237.678C52.4665 237.302 52.5286 236.921 52.4451 236.533C52.3617 236.145 52.1502 235.531 51.8109 234.691L49.4384 228.816L51.5827 227.95L53.8352 233.528C54.3501 234.803 54.6559 235.727 54.7525 236.301C54.8492 236.874 54.8137 237.405 54.6461 237.894C54.4832 238.381 54.1849 238.838 53.7511 239.266C53.3153 239.689 52.6773 240.071 51.837 240.41C50.8228 240.819 50.0057 241.015 49.3857 240.995C48.7685 240.969 48.2328 240.832 47.7783 240.583C47.322 240.329 46.9626 240.016 46.7002 239.645C46.3145 239.093 45.8817 238.223 45.4019 237.035L43.1143 231.37ZM60.9277 236.528L59.1227 232.059L52.749 227.479L55.2627 226.464L59.4587 229.657L60.2105 224.466L62.6807 223.469L61.2656 231.21L63.0647 235.665L60.9277 236.528Z" fill="white"/>
<path d="M269.559 162.232L270.897 162.684C270.78 163.149 270.794 163.535 270.938 163.843C271.084 164.152 271.358 164.396 271.759 164.576C272.183 164.767 272.542 164.822 272.836 164.74C273.135 164.657 273.338 164.495 273.446 164.254C273.515 164.1 273.528 163.948 273.484 163.8C273.445 163.65 273.33 163.484 273.141 163.303C273.01 163.18 272.701 162.927 272.213 162.543C271.586 162.05 271.187 161.611 271.017 161.228C270.778 160.688 270.774 160.16 271.007 159.644C271.157 159.311 271.39 159.043 271.706 158.84C272.027 158.634 272.398 158.535 272.82 158.543C273.244 158.552 273.707 158.669 274.209 158.895C275.028 159.264 275.563 159.72 275.814 160.265C276.068 160.811 276.07 161.389 275.821 161.998L274.477 161.463C274.572 161.102 274.558 160.807 274.437 160.577C274.32 160.346 274.075 160.147 273.704 159.98C273.321 159.807 272.986 159.751 272.699 159.811C272.514 159.849 272.383 159.953 272.307 160.122C272.238 160.276 272.243 160.438 272.325 160.606C272.428 160.821 272.766 161.148 273.339 161.588C273.912 162.028 274.315 162.398 274.547 162.699C274.784 162.998 274.925 163.328 274.97 163.687C275.02 164.045 274.952 164.43 274.766 164.843C274.598 165.217 274.336 165.52 273.981 165.753C273.627 165.986 273.223 166.098 272.771 166.087C272.32 166.073 271.811 165.939 271.244 165.684C270.419 165.312 269.871 164.837 269.6 164.258C269.33 163.676 269.316 163 269.559 162.232ZM275.019 167.243L277.957 160.715L282.797 162.894L282.3 163.998L278.778 162.413L278.126 163.86L281.404 165.335L280.909 166.435L277.631 164.96L276.832 166.736L280.479 168.378L279.984 169.477L275.019 167.243ZM281.137 169.996L284.051 163.522L285.369 164.115L282.95 169.49L286.227 170.965L285.732 172.064L281.137 169.996ZM286.712 172.505L289.625 166.031L290.943 166.624L288.525 171.999L291.802 173.474L291.307 174.573L286.712 172.505Z" fill="white"/>
<path d="M252.823 89.2482C252.668 88.6632 252.292 88.1455 251.821 87.7824L240.195 96.1404C240.424 96.5573 240.848 96.8262 241.399 96.8262H252.991C254.013 96.8262 254.605 95.9319 254.309 94.8359L252.81 89.2482H252.823Z" fill="white"/>
<path d="M250.437 87.2579H243.975C242.953 87.2579 241.884 88.1455 241.588 89.2482L240.088 94.8359C239.954 95.3402 240.014 95.7907 240.203 96.1404L251.828 87.7824C251.412 87.4596 250.921 87.2579 250.443 87.2579H250.437Z" fill="white"/>
<path d="M236.663 88.9053C236.508 88.3203 236.132 87.8025 235.661 87.4394L224.035 95.7974C224.264 96.2143 224.687 96.4833 225.239 96.4833H236.831C237.853 96.4833 238.445 95.589 238.149 94.4929L236.649 88.9053H236.663Z" fill="white"/>
<path d="M234.276 86.9149H227.815C226.793 86.9149 225.723 87.8025 225.428 88.9053L223.928 94.4929C223.794 94.9973 223.854 95.4478 224.042 95.7974L235.668 87.4394C235.251 87.1167 234.76 86.9149 234.283 86.9149H234.276Z" fill="white"/>
<path d="M245.626 78.5839C245.471 77.9989 245.095 77.4811 244.624 77.118L232.998 85.476C233.227 85.8929 233.65 86.1619 234.202 86.1619H245.794C246.816 86.1619 247.408 85.2676 247.112 84.1716L245.612 78.5839H245.626Z" fill="white"/>
<path d="M243.239 76.5936H236.777C235.755 76.5936 234.686 77.4811 234.39 78.5839L232.891 84.1716C232.756 84.6759 232.817 85.1264 233.005 85.476L244.631 77.118C244.214 76.7953 243.723 76.5936 243.246 76.5936H243.239Z" fill="white"/>
<path d="M230.013 78.2409C229.858 77.6559 229.481 77.1382 229.011 76.7751L217.385 85.1331C217.613 85.55 218.037 85.8189 218.588 85.8189H230.181C231.203 85.8189 231.794 84.9246 231.499 83.8286L229.999 78.2409H230.013Z" fill="white"/>
<path d="M227.62 76.2506H221.158C220.136 76.2506 219.067 77.1382 218.771 78.2409L217.272 83.8286C217.137 84.3329 217.198 84.7834 217.386 85.1331L229.012 76.7751C228.595 76.4523 228.104 76.2506 227.627 76.2506H227.62Z" fill="white"/>
<path d="M239.589 68.6726C239.434 68.0876 239.057 67.5699 238.587 67.2068L226.961 75.5648C227.19 75.9817 227.613 76.2506 228.165 76.2506H239.757C240.779 76.2506 241.371 75.3563 241.075 74.2603L239.575 68.6726H239.589Z" fill="white"/>
<path d="M237.202 66.6823H230.74C229.718 66.6823 228.649 67.5699 228.353 68.6726L226.854 74.2603C226.719 74.7646 226.78 75.2151 226.968 75.5648L238.594 67.2068C238.177 66.884 237.686 66.6823 237.209 66.6823H237.202Z" fill="white"/>
<path d="M34.54 86.5519C34.5063 83.2033 31.8033 82.0535 29.4566 81.2063L29.5305 76.802C30.5929 77.0844 31.5747 77.7232 32.4488 78.3284L32.832 78.5974L34.197 76.0153L33.9012 75.8069C32.395 74.7579 31.0233 74.1797 29.5776 73.9981L29.6045 72.4449L28.2463 72.4247L28.2261 73.9443C25.3146 74.0721 23.0956 76.096 23.1225 78.6377C23.1562 81.7308 25.9063 82.8873 28.0647 83.6875L27.984 88.6027C26.5652 88.2329 25.1196 87.231 24.1648 86.2359L23.8017 85.8593L22.0938 88.4145L22.3694 88.6565C24.0437 90.1291 26.0071 91.0839 27.9302 91.3798L27.9033 92.9599L29.2549 92.9801L29.2818 91.4806C31.8302 91.447 34.5669 89.571 34.5332 86.5586L34.54 86.5519ZM26.2021 78.6848C26.1887 77.5148 27.1839 76.7617 28.1723 76.6608L28.105 80.6885C27.1032 80.238 26.2089 79.6194 26.2021 78.6848ZM29.3288 88.7372L29.4028 84.1985C30.566 84.6759 31.4402 85.2743 31.4536 86.6797C31.4671 88.085 30.3643 88.6565 29.3288 88.7372Z" fill="white"/>
<path d="M73.8044 40.7276L74.107 40.8284L74.4365 40.6805L81.564 37.4462L82.0078 39.2416L86.1363 32.6856L78.0473 33.3984L79.5938 34.5414L73.6834 39.0331L65.7894 36.33L65.3994 36.1956L65.1237 36.3973L56.9473 42.4422L57.7138 43.4575L65.8902 38.0178L73.8044 40.7276Z" fill="white"/>
<path d="M58.373 55.2784L62.4007 55.9777V46.6717L58.373 45.9724V55.2784Z" fill="white"/>
<path d="M65.0625 56.4417L69.0902 57.141V42.812L65.0625 42.1127V56.4417Z" fill="white"/>
<path d="M71.9277 57.6385L75.9487 58.3378V46.3959L71.9277 45.6966V57.6385Z" fill="white"/>
<path d="M78.7949 58.8287L82.8159 59.528V41.4874L78.7949 40.7881V58.8287Z" fill="white"/>
<path d="M238.696 232.302C238.602 232.269 238.494 232.228 238.373 232.175C238.333 232.154 238.286 232.141 238.239 232.121C238.138 232.08 238.024 232.033 237.916 231.973L237.425 231.717L236.874 231.368C236.8 231.307 236.739 231.267 236.672 231.22C236.544 231.126 236.417 231.031 236.289 230.924C236.228 230.87 236.175 230.823 236.114 230.769C235.98 230.655 235.838 230.527 235.704 230.386L235.435 230.104L235.025 229.606L234.843 229.344L234.648 229.061C234.601 228.974 234.561 228.913 234.52 228.846C234.406 228.658 234.292 228.456 234.191 228.241C233.922 227.696 233.707 227.084 233.572 226.432C233.438 225.827 233.384 225.161 233.411 224.462L233.438 223.991L233.512 223.487C233.525 223.346 233.559 223.205 233.593 223.07L233.613 222.99C233.626 222.929 233.64 222.882 233.653 222.828C233.68 222.721 233.7 222.613 233.74 222.499C233.895 221.967 234.137 221.409 234.494 220.771C234.561 220.676 234.608 220.596 234.655 220.515C234.763 220.34 234.877 220.165 235.011 220.004L235.099 219.896C235.159 219.822 235.213 219.749 235.274 219.675L235.563 219.359C235.65 219.258 235.758 219.15 235.872 219.056L236.154 218.794C236.39 218.605 236.578 218.458 236.766 218.323C236.847 218.269 236.914 218.229 236.975 218.182C237.103 218.101 237.23 218.014 237.365 217.94C237.432 217.906 237.499 217.866 237.56 217.832C237.688 217.765 237.809 217.698 237.923 217.644L238.42 217.429C238.541 217.382 238.642 217.348 238.736 217.321L238.871 217.274C239.059 217.207 239.227 217.166 239.362 217.14C239.416 217.126 239.463 217.119 239.503 217.106L239.732 217.052C239.732 217.052 239.799 217.039 239.832 217.039C240.034 217.039 240.209 217.173 240.249 217.368C240.303 217.597 240.169 217.825 239.94 217.886L239.718 217.946C239.678 217.96 239.624 217.973 239.564 217.987C239.449 218.014 239.315 218.047 239.167 218.108L238.75 218.263L238.306 218.471C238.212 218.518 238.111 218.572 238.01 218.632C237.95 218.666 237.883 218.706 237.815 218.747C237.714 218.8 237.614 218.874 237.499 218.955C237.432 219.002 237.365 219.049 237.298 219.096C237.136 219.217 236.948 219.372 236.78 219.52L236.524 219.762C236.43 219.843 236.356 219.93 236.282 220.017L236.02 220.32C235.98 220.374 235.933 220.434 235.885 220.502L235.791 220.623C235.684 220.757 235.596 220.898 235.502 221.053C235.455 221.134 235.401 221.214 235.354 221.295C235.065 221.846 234.863 222.337 234.742 222.808C234.715 222.895 234.695 222.976 234.682 223.063C234.668 223.117 234.662 223.178 234.648 223.232L234.635 223.306C234.608 223.42 234.588 223.527 234.581 223.628L234.527 224.072L234.514 224.509C234.507 225.114 234.568 225.672 234.695 226.177C234.83 226.735 235.018 227.253 235.26 227.71C235.341 227.885 235.435 228.039 235.543 228.201C235.583 228.268 235.623 228.335 235.664 228.402L236 228.853L236.356 229.263L236.598 229.498C236.706 229.613 236.82 229.707 236.928 229.794C236.988 229.841 237.042 229.888 237.103 229.942C237.197 230.016 237.304 230.09 237.405 230.164C237.472 230.211 237.533 230.251 237.593 230.299L238.057 230.574L238.488 230.783C238.568 230.823 238.642 230.85 238.716 230.877C238.763 230.897 238.81 230.91 238.857 230.931C238.871 230.931 238.884 230.944 238.898 230.951L239.052 229.935L241.836 232.161L238.521 233.459L238.696 232.309V232.302Z" fill="white"/>
<path d="M243.429 232.336C243.234 232.336 243.059 232.201 243.012 232.006C242.952 231.778 243.086 231.549 243.315 231.482L243.537 231.421C243.57 231.408 243.624 231.395 243.692 231.381C243.806 231.347 243.94 231.314 244.088 231.253L244.236 231.2C244.317 231.166 244.404 231.139 244.498 231.099L244.949 230.884C245.043 230.836 245.144 230.776 245.245 230.715C245.305 230.682 245.373 230.641 245.433 230.601C245.534 230.541 245.635 230.467 245.742 230.393C245.81 230.346 245.877 230.299 245.944 230.251C246.092 230.13 246.274 229.982 246.448 229.828C246.495 229.781 246.556 229.72 246.616 229.666C246.731 229.552 246.845 229.451 246.939 229.33L247.201 229.028L247.423 228.725C247.497 228.631 247.565 228.53 247.632 228.409L247.713 228.275C247.76 228.201 247.8 228.133 247.84 228.059C248.102 227.555 248.311 227.044 248.445 226.533C248.472 226.446 248.486 226.365 248.506 226.278C248.519 226.224 248.587 225.908 248.587 225.908L248.627 225.551C248.64 225.464 248.647 225.383 248.654 225.289L248.667 224.845C248.667 224.207 248.6 223.662 248.479 223.191C248.338 222.613 248.143 222.102 247.908 221.672C247.827 221.503 247.739 221.362 247.639 221.208C247.591 221.14 247.551 221.066 247.511 220.999C247.457 220.932 247.41 220.865 247.363 220.797C247.262 220.663 247.168 220.535 247.067 220.421L246.818 220.139L246.576 219.903C246.475 219.796 246.374 219.708 246.26 219.621C246.193 219.567 246.132 219.52 246.072 219.466C245.978 219.392 245.877 219.318 245.769 219.251C245.702 219.204 245.641 219.164 245.581 219.116L245.117 218.841L244.693 218.632C244.613 218.592 244.539 218.565 244.465 218.538C244.418 218.518 244.371 218.505 244.324 218.484C244.31 218.484 244.297 218.471 244.29 218.471L244.135 219.486L241.352 217.261L244.667 215.963L244.492 217.113C244.586 217.146 244.693 217.187 244.808 217.24C244.848 217.261 244.895 217.274 244.942 217.294C245.043 217.335 245.151 217.382 245.265 217.435L245.756 217.691L246.307 218.034C246.381 218.088 246.442 218.135 246.502 218.182C246.63 218.276 246.758 218.37 246.885 218.478C246.953 218.538 247.013 218.592 247.074 218.646C247.201 218.76 247.343 218.874 247.464 219.016L247.733 219.291C247.8 219.372 247.86 219.446 247.921 219.52L248.008 219.621C248.143 219.769 248.257 219.937 248.371 220.105C248.419 220.179 248.472 220.253 248.519 220.32V220.333L248.533 220.347C248.573 220.421 248.62 220.495 248.661 220.562C248.768 220.744 248.882 220.932 248.977 221.14C249.239 221.651 249.454 222.263 249.602 222.936C249.736 223.514 249.797 224.159 249.777 224.899L249.75 225.363C249.736 225.484 249.723 225.592 249.703 225.706L249.669 225.955C249.662 226.009 249.656 226.069 249.642 226.123C249.642 226.123 249.562 226.473 249.548 226.526C249.521 226.634 249.501 226.741 249.467 226.842C249.299 227.421 249.051 228.006 248.728 228.577C248.674 228.671 248.62 228.752 248.56 228.839L248.479 228.96C248.392 229.102 248.304 229.229 248.217 229.337L247.961 229.666L247.672 229.989C247.551 230.137 247.41 230.265 247.275 230.386C247.215 230.44 247.154 230.494 247.101 230.554C246.879 230.749 246.664 230.91 246.495 231.031C246.415 231.085 246.348 231.132 246.28 231.173C246.159 231.253 246.025 231.341 245.897 231.415C245.823 231.455 245.763 231.489 245.695 231.522C245.574 231.59 245.453 231.657 245.339 231.711L244.841 231.932C244.727 231.98 244.626 232.013 244.525 232.047L244.391 232.094C244.203 232.168 244.041 232.208 243.907 232.235C243.853 232.249 243.806 232.262 243.765 232.269L243.537 232.329C243.503 232.336 243.47 232.343 243.429 232.343V232.336Z" fill="white"/>
<path d="M202.235 300L109.518 299.946C98.3691 299.946 89.332 290.896 89.332 279.747L89.3791 47.3036C89.3791 36.1484 98.4297 27.1046 109.585 27.1113L202.303 27.1651C213.451 27.1651 222.488 36.2157 222.488 47.3642L222.441 279.808C222.441 290.963 213.391 300.007 202.235 300Z" fill="#263238"/>
<path d="M202.203 35.3886L184.229 35.3752C181.822 35.3752 179.865 37.4193 179.865 39.9341V43.1953C179.865 45.7168 177.909 47.7542 175.501 47.7542L140.462 47.734C138.055 47.734 136.098 45.6899 136.098 43.1684V39.9072C136.098 37.3857 134.148 35.3416 131.735 35.3416H125.414L109.68 35.3281C101.866 35.3281 95.5256 41.6554 95.5256 49.4688L95.4785 276.345C95.4785 284.158 101.806 290.485 109.612 290.492L202.142 290.546C209.955 290.546 216.289 284.219 216.296 276.405L216.343 49.5226C216.343 41.716 210.016 35.3819 202.209 35.3752L202.203 35.3886Z" fill="white"/>
<path d="M203.558 53.8192C203.558 53.8798 201.218 53.947 198.34 53.9739C195.455 54.0008 193.115 53.9739 193.115 53.9067C193.115 53.8461 195.455 53.7789 198.333 53.752C201.218 53.7251 203.558 53.752 203.558 53.8192Z" fill="#263238"/>
<path d="M203.577 56.4887C203.577 56.5492 201.237 56.6164 198.359 56.6433C195.475 56.6702 193.135 56.6433 193.135 56.5761C193.135 56.5156 195.468 56.4483 198.353 56.4214C201.237 56.3945 203.577 56.4214 203.577 56.4887Z" fill="#263238"/>
<path d="M203.597 59.1649C203.597 59.2254 201.257 59.2926 198.379 59.3195C195.494 59.3464 193.154 59.3195 193.154 59.2523C193.154 59.1918 195.488 59.1245 198.372 59.0976C201.257 59.0708 203.597 59.0976 203.597 59.1649Z" fill="#263238"/>
<path d="M105.241 61.7671C105.241 61.7671 105.341 61.7536 105.516 61.7469C105.731 61.7402 105.98 61.7334 106.276 61.72C106.996 61.6998 107.93 61.6796 109.087 61.6528L109.006 61.7334C108.999 61.1081 108.986 60.429 108.972 59.6961C108.972 59.3195 108.939 58.9631 108.972 58.5261C109.046 58.089 109.436 57.7057 109.914 57.6587C110.364 57.6519 110.768 57.6318 111.259 57.6519C111.763 57.7125 112.193 58.2033 112.18 58.7345C112.193 59.6826 112.2 60.6778 112.213 61.7065L112.086 61.5788C113.222 61.5653 114.412 61.5586 115.629 61.5452L115.495 61.6797C115.481 60.2542 115.468 58.7749 115.454 57.262C115.454 56.8854 115.454 56.5089 115.448 56.139C115.448 55.7894 115.233 55.5608 114.95 55.2985C114.426 54.7808 113.908 54.2698 113.397 53.7722C112.893 53.2746 112.388 52.777 111.904 52.2996C111.662 52.0575 111.42 51.8222 111.178 51.5869C110.929 51.3448 110.734 51.096 110.445 51.0422C110.163 50.9682 109.86 51.0288 109.631 51.1969C109.416 51.3784 109.188 51.6339 108.972 51.8424C108.535 52.2794 108.112 52.7098 107.702 53.1267C106.901 53.9604 106.068 54.7203 105.462 55.433C105.207 55.8297 105.301 56.3139 105.281 56.7577C105.281 57.1947 105.281 57.6116 105.281 58.0083C105.281 58.7749 105.274 59.4473 105.267 60.0188C105.267 60.5298 105.254 60.9602 105.254 61.3031C105.254 61.599 105.241 61.7603 105.234 61.7671C105.227 61.7738 105.22 61.6259 105.207 61.3434C105.2 61.0005 105.187 60.5836 105.173 60.0793C105.16 59.5011 105.146 58.8219 105.126 58.0487C105.12 57.6452 105.113 57.2216 105.099 56.7778C105.099 56.5492 105.093 56.3206 105.086 56.0785C105.086 55.8297 105.146 55.5675 105.281 55.3389C105.94 54.5387 106.72 53.826 107.527 52.9653C107.937 52.5484 108.354 52.1181 108.791 51.6743C109.02 51.4524 109.201 51.2305 109.477 50.9951C109.759 50.78 110.149 50.6993 110.506 50.7934C110.882 50.8741 111.131 51.1834 111.359 51.4053C111.602 51.6406 111.844 51.876 112.086 52.1181C112.577 52.5955 113.074 53.0863 113.585 53.5906C114.096 54.0882 114.614 54.5992 115.138 55.117C115.266 55.2515 115.414 55.359 115.535 55.5473C115.649 55.7221 115.717 55.9306 115.723 56.1458C115.723 56.5223 115.723 56.8989 115.737 57.2754C115.75 58.7883 115.757 60.2676 115.77 61.6931V61.8276H115.636C114.412 61.8343 113.229 61.841 112.092 61.8478H111.965V61.72C111.965 60.6912 111.951 59.6961 111.951 58.748C111.965 58.3176 111.635 57.9411 111.232 57.8873C110.822 57.8671 110.344 57.8806 109.947 57.8873C109.564 57.9209 109.248 58.2235 109.181 58.5731C109.147 58.9295 109.174 59.3464 109.167 59.7028C109.167 60.4357 109.167 61.1148 109.167 61.7402V61.8209H109.087C107.917 61.8141 106.962 61.8074 106.229 61.8007C105.94 61.8007 105.698 61.794 105.483 61.7872C105.315 61.7872 105.234 61.7805 105.241 61.7738V61.7671Z" fill="#263238"/>
<path d="M166.399 239.053C166.399 239.053 166.056 239.1 165.431 239.12C164.738 239.134 163.851 239.154 162.782 239.174C160.543 239.208 157.456 239.228 154.04 239.228C150.625 239.228 147.538 239.208 145.299 239.174C144.23 239.154 143.342 239.134 142.65 239.12C142.025 239.1 141.682 239.073 141.682 239.053C141.682 239.033 142.025 239.006 142.65 238.986C143.342 238.973 144.23 238.952 145.299 238.932C147.538 238.899 150.625 238.878 154.04 238.878C157.456 238.878 160.543 238.899 162.782 238.932C163.851 238.952 164.738 238.973 165.431 238.986C166.056 239.006 166.399 239.033 166.399 239.053Z" fill="#455A64"/>
<path d="M205.258 245.138C205.258 245.233 191.024 245.313 173.467 245.313C155.911 245.313 141.676 245.233 141.676 245.138C141.676 245.044 155.911 244.964 173.467 244.964C191.024 244.964 205.258 245.044 205.258 245.138Z" fill="#455A64"/>
<path d="M185.389 250.861C185.389 250.955 175.605 251.035 163.536 251.035C151.466 251.035 141.676 250.955 141.676 250.861C141.676 250.766 151.459 250.686 163.536 250.686C175.612 250.686 185.389 250.766 185.389 250.861Z" fill="#455A64"/>
<path d="M206.514 261.996L204.537 260.012L202.654 261.888V256.22H206.521V261.996H206.514ZM204.53 259.77L204.591 259.831L206.332 261.579V256.401H202.836V261.471L204.537 259.77H204.53Z" fill="#263238"/>
<path d="M153.912 261.256L153.212 260.947C152.876 261.128 152.58 261.222 152.311 261.222C151.242 261.229 150.368 260.368 150.361 259.299C150.355 258.23 151.215 257.356 152.284 257.349C153.354 257.343 154.228 258.203 154.234 259.272C154.234 259.75 154.066 260.207 153.75 260.563L153.912 261.263V261.256ZM152.284 257.477C151.289 257.484 150.489 258.297 150.496 259.293C150.503 260.288 151.316 261.088 152.311 261.081C152.567 261.081 152.849 260.987 153.179 260.805L153.206 260.792L153.717 261.021L153.602 260.516L153.623 260.489C153.932 260.153 154.1 259.716 154.093 259.266C154.086 258.271 153.273 257.47 152.278 257.477H152.284Z" fill="#263238"/>
<path d="M158.391 260.96L157.591 259.01L156.092 257.645L159.723 257.618L158.385 260.96H158.391ZM156.435 257.773L157.712 258.943L158.391 260.604L159.535 257.746L156.435 257.773Z" fill="#263238"/>
<path d="M159.646 257.633L157.662 258.924L157.735 259.036L159.719 257.746L159.646 257.633Z" fill="#263238"/>
<path d="M148.189 258.049C148.089 257.531 147.571 257.127 147.04 257.148C146.515 257.168 146.038 257.605 145.97 258.123C145.89 257.605 145.412 257.175 144.888 257.161C144.357 257.148 143.852 257.565 143.758 258.082C143.691 258.459 143.819 258.856 144.034 259.178C144.249 259.501 144.538 259.757 144.827 260.012C145.231 260.368 145.607 260.705 146.011 261.061C146.407 260.698 146.75 260.355 147.147 259.992C147.43 259.73 147.719 259.467 147.927 259.145C148.136 258.822 148.263 258.425 148.183 258.049H148.189Z" fill="#E8505B"/>
<path d="M210.563 267.012C210.563 267.012 210.556 266.797 210.55 266.38C210.55 265.956 210.543 265.344 210.536 264.537C210.536 262.917 210.523 260.53 210.509 257.437C210.496 251.257 210.476 242.267 210.449 230.991L210.563 231.105C184.689 231.119 146.073 231.139 103.032 231.166H103.026L103.2 230.991C103.2 243.511 103.2 255.655 103.2 267.012L103.032 266.844C133.99 266.877 160.846 266.904 179.975 266.924C189.551 266.945 197.182 266.958 202.441 266.971C205.063 266.978 207.087 266.992 208.465 266.992C209.151 266.992 209.669 266.998 210.025 267.005C210.375 267.005 210.563 267.019 210.563 267.019C210.563 267.019 210.395 267.025 210.045 267.032C209.689 267.032 209.178 267.032 208.506 267.045C207.134 267.045 205.123 267.059 202.514 267.066C197.27 267.079 189.645 267.092 180.09 267.113C160.933 267.133 134.03 267.16 103.026 267.193H102.857V267.025C102.857 255.668 102.857 243.525 102.857 231.005V230.83H103.039C146.08 230.857 184.696 230.877 210.57 230.89H210.684V231.005C210.657 242.314 210.637 251.325 210.624 257.524C210.61 260.604 210.604 262.984 210.597 264.598C210.597 265.391 210.59 266.003 210.583 266.42C210.583 266.83 210.57 267.032 210.57 267.032L210.563 267.012Z" fill="#263238"/>
<path d="M107.512 237.028L107.375 260.845L137.162 261.016L137.299 237.2L107.512 237.028Z" fill="#EBEBEB"/>
<path d="M137.284 237.177C137.284 237.177 137.23 237.177 137.136 237.184C137.028 237.184 136.887 237.184 136.712 237.184C136.322 237.184 135.784 237.184 135.085 237.191C133.653 237.191 131.588 237.191 128.979 237.197C123.741 237.184 116.318 237.17 107.496 237.157L107.651 237.002C107.617 244.09 107.577 252.219 107.537 260.812C107.57 260.853 107.207 260.483 107.368 260.637H108.39L109.419 260.651C110.105 260.651 110.784 260.658 111.457 260.664C112.808 260.671 114.146 260.678 115.471 260.691C118.113 260.711 120.695 260.725 123.197 260.738C128.199 260.772 132.893 260.805 137.149 260.839L137.001 260.987C137.075 253.839 137.136 247.902 137.176 243.74C137.203 241.669 137.223 240.035 137.243 238.905C137.257 238.361 137.264 237.93 137.27 237.628C137.277 237.339 137.29 237.177 137.29 237.177C137.29 237.177 137.297 237.312 137.304 237.594C137.304 237.897 137.304 238.314 137.311 238.845C137.311 239.968 137.311 241.588 137.324 243.646C137.324 247.835 137.311 253.799 137.304 260.987V261.135H137.156C132.9 261.115 128.206 261.095 123.204 261.074C120.702 261.061 118.12 261.048 115.478 261.034C114.153 261.027 112.815 261.021 111.463 261.014C110.784 261.014 110.105 261.007 109.426 261H107.886L107.631 260.987H107.382C107.537 261.142 107.16 260.772 107.2 260.805C107.254 252.205 107.308 244.083 107.355 236.996V236.841H107.51C116.372 236.922 123.829 236.996 129.094 237.043C131.689 237.076 133.74 237.103 135.166 237.117C135.851 237.13 136.383 237.137 136.759 237.144C136.927 237.144 137.062 237.15 137.163 237.157C137.25 237.157 137.297 237.164 137.29 237.164L137.284 237.177Z" fill="#263238"/>
<path d="M108.524 238.534L108.404 259.351L136.1 259.511L136.22 238.693L108.524 238.534Z" fill="#E0E0E0"/>
<path d="M108.398 259.333L118.148 246.45L124.092 254.579L128.181 250.276L136.095 259.488L108.398 259.333Z" fill="#F5F5F5"/>
<path d="M126.685 244.91C126.679 246.113 125.697 247.082 124.493 247.075C123.29 247.068 122.321 246.087 122.328 244.883C122.335 243.679 123.317 242.711 124.52 242.718C125.724 242.725 126.692 243.706 126.685 244.91Z" fill="#F5F5F5"/>
<path d="M157.731 82.699C157.731 82.699 157.623 82.7259 157.415 82.7326C157.166 82.7393 156.864 82.7528 156.5 82.7662C155.653 82.7797 154.517 82.7999 153.145 82.82C150.314 82.8536 146.401 82.8738 142.077 82.8738C137.754 82.8738 133.84 82.8536 131.01 82.82C129.638 82.7999 128.502 82.7797 127.654 82.7662C127.291 82.7528 126.989 82.7393 126.74 82.7326C126.531 82.7192 126.424 82.7124 126.424 82.699C126.424 82.6855 126.531 82.6721 126.74 82.6654C126.989 82.6587 127.291 82.6452 127.654 82.6318C128.502 82.6183 129.638 82.5981 131.01 82.578C133.84 82.5443 137.754 82.5242 142.077 82.5242C146.401 82.5242 150.314 82.5443 153.145 82.578C154.517 82.5981 155.653 82.6183 156.5 82.6318C156.864 82.6452 157.166 82.6587 157.415 82.6654C157.623 82.6788 157.731 82.6855 157.731 82.699Z" fill="#263238"/>
<path d="M201.741 214.342L198.803 211.397L196.006 214.188L196.019 205.756H201.748L201.735 214.342H201.741ZM198.81 211.034L198.904 211.128L201.486 213.724L201.499 206.031H196.288L196.275 213.569L198.81 211.041V211.034Z" fill="#263238"/>
<path d="M127.197 213.455L125.826 212.843C125.16 213.199 124.582 213.381 124.051 213.381C121.946 213.394 120.225 211.7 120.211 209.602C120.191 207.497 121.892 205.776 123.99 205.762C126.088 205.742 127.816 207.443 127.829 209.541C127.836 210.476 127.5 211.377 126.881 212.083L127.197 213.455ZM123.99 206.025C122.033 206.038 120.453 207.645 120.467 209.602C120.48 211.559 122.087 213.139 124.044 213.125C124.548 213.125 125.106 212.944 125.752 212.587L125.806 212.554L126.814 213.004L126.586 212.009L126.633 211.962C127.238 211.296 127.567 210.442 127.561 209.548C127.547 207.591 125.94 206.011 123.983 206.025H123.99Z" fill="#263238"/>
<path d="M136.019 212.863L134.446 209.024L131.494 206.334L138.649 206.273L136.019 212.856V212.863ZM132.167 206.589L134.681 208.896L136.019 212.164L138.265 206.542L132.167 206.589Z" fill="#263238"/>
<path d="M138.519 206.276L134.619 208.814L134.762 209.034L138.662 206.496L138.519 206.276Z" fill="#263238"/>
<path d="M115.942 207.141C115.74 206.119 114.725 205.325 113.682 205.366C112.654 205.406 111.712 206.267 111.578 207.289C111.423 206.267 110.475 205.426 109.439 205.399C108.397 205.372 107.402 206.186 107.214 207.215C107.079 207.961 107.335 208.734 107.758 209.367C108.182 209.999 108.754 210.51 109.325 211.007C110.125 211.713 110.858 212.372 111.658 213.078C112.445 212.359 113.111 211.686 113.897 210.974C114.456 210.463 115.027 209.945 115.437 209.306C115.847 208.667 116.096 207.887 115.948 207.148L115.942 207.141Z" fill="#FFD463"/>
<path d="M115.288 87.5538C117.97 87.5538 120.143 85.3802 120.143 82.699C120.143 80.0178 117.97 77.8442 115.288 77.8442C112.607 77.8442 110.434 80.0178 110.434 82.699C110.434 85.3802 112.607 87.5538 115.288 87.5538Z" fill="#EBEBEB"/>
<path d="M199.903 186.505C199.903 186.599 179.556 186.68 154.461 186.68C129.367 186.68 109.014 186.599 109.014 186.505C109.014 186.411 129.354 186.33 154.461 186.33C179.569 186.33 199.903 186.411 199.903 186.505Z" fill="#455A64"/>
<path d="M199.903 178.933C199.903 179.028 179.556 179.108 154.461 179.108C129.367 179.108 109.014 179.028 109.014 178.933C109.014 178.839 129.354 178.759 154.461 178.759C179.569 178.759 199.903 178.839 199.903 178.933Z" fill="#455A64"/>
<path d="M158.488 194.17C158.488 194.264 147.414 194.345 133.757 194.345C120.101 194.345 109.02 194.264 109.02 194.17C109.02 194.076 120.094 193.995 133.757 193.995C147.421 193.995 158.488 194.076 158.488 194.17Z" fill="#455A64"/>
<path d="M152.383 276.627C152.383 277.71 151.509 278.584 150.447 278.577C149.377 278.577 148.517 277.69 148.523 276.607C148.523 275.524 149.398 274.65 150.46 274.657C151.529 274.657 152.39 275.545 152.383 276.627Z" fill="#263238"/>
<path d="M158.367 276.654C158.367 277.737 157.493 278.611 156.431 278.604C155.362 278.604 154.501 277.716 154.508 276.634C154.508 275.551 155.382 274.677 156.444 274.684C157.514 274.684 158.374 275.572 158.367 276.654Z" fill="#263238"/>
<path d="M164.354 276.688C164.354 277.77 163.48 278.644 162.417 278.638C161.348 278.638 160.487 277.75 160.494 276.667C160.494 275.585 161.368 274.711 162.431 274.718C163.5 274.718 164.36 275.605 164.354 276.688Z" fill="#263238"/>
<path d="M211.21 92.301H103.672V158.062H211.21V92.301Z" fill="#E0E0E0"/>
<path d="M113.598 158.076L144.414 116.83L163.517 142.624L176.467 128.826L201.857 158.049L113.598 158.076Z" fill="#F5F5F5"/>
<path d="M171.611 111.774C171.611 115.613 168.505 118.726 164.666 118.726C160.826 118.726 157.713 115.62 157.713 111.781C157.713 107.941 160.819 104.828 164.659 104.828C168.498 104.828 171.611 107.934 171.611 111.774Z" fill="#F5F5F5"/>
<path d="M210.921 219.184C210.921 217.778 210.854 158.365 210.76 70.4209L210.921 70.5823C178.491 70.5823 141.939 70.5957 103.397 70.5957H103.384L103.559 70.4209C103.545 126.056 103.538 177.542 103.525 219.184L103.384 219.042C168.594 219.13 209.745 219.184 210.921 219.184C209.751 219.184 168.6 219.237 103.384 219.325H103.243V219.184C103.236 177.542 103.222 126.056 103.209 70.4209V70.2461H103.397C141.939 70.2461 178.491 70.2595 210.921 70.2595H211.083V70.4209C211.049 114.437 211.022 151.647 211.002 177.851C210.982 190.936 210.969 201.278 210.962 208.344C210.955 211.868 210.948 214.584 210.942 216.413C210.942 217.321 210.935 218.014 210.935 218.484C210.935 218.948 210.928 219.177 210.928 219.177L210.921 219.184Z" fill="#263238"/>
<path d="M160.389 237.634L162.77 229.64C163.187 227.905 163.738 225.861 164.478 223.527C165.143 221.429 166.858 219.224 168.418 217.637C170.845 215.169 172.002 215.149 173.636 213.838C173.784 213.744 173.952 213.609 174.093 213.529C174.429 213.347 174.678 213.105 174.886 212.843C176.292 211.323 174.94 208.97 172.082 209.192C169.931 209.36 166.427 209.978 160.719 215.862C160.645 215.949 160.571 216.023 160.504 216.117C157.511 220.011 154.701 208.903 154.19 204.767C153.86 202.084 150.962 200.437 148.333 201.405L134.441 207.901C133.291 207.497 131.933 207.565 130.387 208.035C128.343 208.788 127.206 210.893 127.737 212.937L133.372 235.429L116.824 290.492H152.495L160.389 237.621V237.634Z" fill="#FFBE9D"/>
<path d="M187.791 187.063L176.764 208.667L171.25 207.134L143.534 229.68C141.173 231.596 137.717 231.294 135.734 228.987L125.184 216.723C125.184 216.723 146.458 207.558 150.392 199.973C154.326 192.388 149.78 190.667 149.78 190.667L159.792 179.29L187.784 187.063H187.791Z" fill="#FBDEA6"/>
<path d="M173.488 142.926C173.488 142.926 157.35 139.356 134.636 117.516C111.923 95.6764 101.252 66.6689 98.4745 66.8101C95.6974 66.9513 83.5538 61.3165 60.4702 111.538C37.3798 161.76 46.4774 173.427 51.07 173.332C55.6625 173.238 86.862 164.544 106.342 166.756C125.828 168.968 150.875 179.128 150.875 179.128L173.495 142.926H173.488Z" fill="#FFD59A"/>
<path d="M207.78 170.3L202.273 180.769L199.806 185.456C196.423 191.891 188.597 194.547 181.994 191.507L147.398 179.451L167.544 133.459L202.105 151.876C208.742 155.413 211.27 163.643 207.774 170.293L207.78 170.3Z" fill="#CE9D3D"/>
<g opacity="0.4">
<path d="M207.868 170.744L202.361 181.213L199.894 185.9C196.511 192.335 188.685 194.991 182.082 191.951L147.486 179.895L167.632 133.903L202.193 152.32C208.83 155.857 211.358 164.087 207.862 170.737L207.868 170.744Z" fill="#CE9D3D"/>
</g>
<path d="M62.3327 112.453C50.0479 139.658 44.9309 163.905 50.9085 166.602C56.8862 169.305 71.6926 149.435 83.9774 122.23C96.2622 95.0242 101.379 70.7773 95.4015 68.0809C89.4239 65.3779 74.6175 85.2474 62.3327 112.453Z" fill="#CE9D3D"/>
<g opacity="0.5">
<path d="M62.3327 112.453C50.0479 139.658 44.9309 163.905 50.9085 166.602C56.8862 169.305 71.6926 149.435 83.9774 122.23C96.2622 95.0241 101.379 70.7772 95.4015 68.0809C89.4239 65.3778 74.6175 85.2474 62.3327 112.453Z" fill="#CE9D3D"/>
</g>
<path d="M210.744 185.429L201.371 182.484L207.174 171.45L214.207 175.82L210.744 185.429Z" fill="#FFD59A"/>
<g opacity="0.6">
<path d="M207.178 171.45L201.375 182.484L203.298 183.089L208.018 171.974L207.178 171.45Z" fill="black"/>
</g>
<path d="M200.713 173.991C200.579 174.294 195.899 172.478 190.264 169.93C184.623 167.382 180.171 165.075 180.306 164.766C180.44 164.463 185.12 166.279 190.755 168.827C196.39 171.376 200.848 173.682 200.713 173.985V173.991Z" fill="#FBDEA6"/>
<path d="M203.597 167.422C203.449 167.725 199.213 165.936 194.137 163.435C189.06 160.933 185.059 158.667 185.207 158.365C185.355 158.069 189.584 159.851 194.668 162.352C199.744 164.853 203.739 167.119 203.597 167.415V167.422Z" fill="#FBDEA6"/>
<path d="M197.075 180.883C197.028 181.045 195.912 180.789 194.137 180.238C193.249 179.962 192.2 179.619 191.03 179.216C189.874 178.799 188.677 178.187 187.386 177.609C182.255 175.229 178.342 172.895 178.47 172.62C178.624 172.29 182.807 174.159 187.89 176.513C189.168 177.091 190.345 177.73 191.461 178.194C192.577 178.644 193.585 179.068 194.419 179.438C196.094 180.184 197.116 180.729 197.069 180.883H197.075Z" fill="#FBDEA6"/>
<path d="M87.3789 106.401C87.3789 106.401 73.3525 97.7003 65.6737 116.655C58.0016 135.61 72.7608 138.724 72.7608 138.724C78.799 129.357 83.7076 118.626 87.3789 106.401Z" fill="#FBDEA6"/>
<g opacity="0.5">
<path d="M102.302 83.8152C102.383 83.8286 102.188 85.1196 101.751 87.4394C101.307 89.7525 100.682 93.1145 99.7806 97.2431C99.1889 99.2738 98.5367 101.493 97.8441 103.873C97.4945 105.063 97.1314 106.3 96.7548 107.565C96.5666 108.197 96.3783 108.842 96.1833 109.494C95.9748 110.14 95.6992 110.779 95.4571 111.431C94.4485 114.04 93.3861 116.776 92.2901 119.607C92.0144 120.313 91.7387 121.033 91.4563 121.752C91.1806 122.478 90.7973 123.158 90.4679 123.87C89.782 125.282 89.0894 126.721 88.3834 128.167C87.6774 129.619 86.9781 131.052 86.2922 132.464C85.9358 133.163 85.6333 133.889 85.2365 134.548C84.8398 135.214 84.4566 135.873 84.0666 136.532C82.52 139.147 81.0206 141.676 79.5951 144.083C79.232 144.681 78.9025 145.286 78.5192 145.851C78.1225 146.409 77.7392 146.961 77.356 147.499C76.5894 148.581 75.8431 149.63 75.1236 150.645C73.6779 152.663 72.3331 154.552 71.1026 156.273C68.4197 159.521 66.1739 162.09 64.6274 163.865C63.0741 165.64 62.1798 166.588 62.1193 166.541C62.052 166.487 62.8253 165.432 64.2643 163.569C65.7637 161.673 67.8616 159.003 70.4436 155.736C71.6271 153.994 72.9248 152.098 74.3167 150.06C75.016 149.045 75.7355 147.989 76.4818 146.907C76.8517 146.369 77.2349 145.818 77.6182 145.259C77.988 144.695 78.3108 144.083 78.6604 143.491C80.059 141.091 81.5249 138.569 83.0378 135.96C83.4211 135.308 83.8043 134.649 84.1876 133.983C84.5843 133.324 84.8734 132.605 85.2298 131.906C85.9089 130.5 86.6015 129.075 87.3008 127.636C88.0001 126.197 88.6927 124.771 89.3785 123.373C89.708 122.667 90.0913 121.988 90.367 121.275C90.6494 120.562 90.9251 119.849 91.2075 119.15C92.3237 116.346 93.3928 113.636 94.4216 111.054C94.6704 110.409 94.9528 109.777 95.168 109.138C95.3697 108.492 95.5647 107.854 95.7597 107.228C96.1497 105.971 96.5329 104.754 96.9028 103.577C97.6424 101.224 98.335 99.0317 98.967 97.0212C99.942 92.98 100.735 89.6853 101.3 87.3386C101.872 85.0524 102.228 83.795 102.309 83.8085L102.302 83.8152Z" fill="black"/>
</g>
<g opacity="0.4">
<path d="M128.551 215.216C129.828 217.536 131.139 219.896 133.029 221.752C134.925 223.608 137.52 224.926 140.163 224.657C142.799 224.388 145.3 222.203 145.327 219.547C146.591 220.502 148.534 219.984 149.583 218.794C150.632 217.603 150.975 215.956 151.096 214.376C152.818 215.391 155.211 214.584 156.354 212.95C157.504 211.316 157.572 209.118 157.02 207.195C156.462 205.278 155.353 203.577 154.257 201.903C155.581 202.01 156.987 202.105 158.17 201.499C159.353 200.901 160.154 199.334 159.461 198.198C159.058 197.532 158.278 197.203 157.531 196.967C155.453 196.315 154.001 195.797 151.836 196.046C151.332 196.046 152.703 201.748 139.141 209.535C131.133 214.134 128.537 215.196 128.537 215.196L128.551 215.216Z" fill="black"/>
</g>
<path d="M159.091 223.447C159.084 223.507 158.176 223.339 156.717 223.373C155.265 223.406 153.228 223.722 151.217 224.691C149.207 225.652 147.687 227.037 146.746 228.154C145.798 229.27 145.367 230.083 145.313 230.05C145.293 230.036 145.381 229.828 145.576 229.458C145.771 229.095 146.093 228.584 146.551 227.992C147.452 226.815 148.991 225.363 151.062 224.368C153.127 223.379 155.225 223.09 156.711 223.117C157.457 223.131 158.055 223.198 158.466 223.272C158.876 223.346 159.098 223.413 159.091 223.433V223.447Z" fill="#EB996E"/>
<path d="M129.43 211.606C131.615 213.704 133.108 216.023 135.401 218.135C136.443 219.096 138.057 220.912 139.455 221.154C140.854 221.396 141.748 221.208 142.3 219.903C142.75 218.847 141.943 217.402 141.392 216.534C139.933 214.241 138.534 212.453 137.445 210.671C136.934 209.837 137.593 209.662 137.835 210.052C138.884 211.142 140.457 212.09 141.398 213.273C142.69 214.9 142.925 217.052 146.294 216.366C146.737 216.279 147.188 216.124 147.544 215.849C148.815 214.874 148.869 213.186 148.331 211.834C147.914 210.772 147.174 209.871 146.455 208.99C147.894 210.611 149.461 212.318 151.74 212.507C153.065 212.614 154.403 211.996 154.941 210.779C155.613 209.246 154.645 207.76 153.677 206.563C151.955 204.438 150.032 202.474 147.941 200.706C147.161 200.047 146.173 199.677 145.151 199.67C143.967 199.664 142.488 199.886 141.762 200.914C140.437 202.777 140.847 204.431 140.847 204.431C140.847 204.431 137.882 202.932 135.501 204.498C133.121 206.072 132.529 208.768 132.529 208.768L129.43 211.606Z" fill="#FFBE9D"/>
<path d="M145.197 199.018C144.282 198.097 144.067 196.409 144.78 195.011C145.284 194.022 145.916 193.061 146.562 192.846C149.379 191.898 161.691 194.022 161.583 196.759C161.469 199.563 160.575 200.8 153.891 199.832C152.714 199.664 150.872 199.428 150.872 199.428L149.258 201.849L145.204 199.012L145.197 199.018Z" fill="#FFBE9D"/>
<path d="M147.405 210.463C147.304 210.523 146.369 208.613 144.459 206.899C142.563 205.164 140.573 204.418 140.62 204.317C140.633 204.276 141.151 204.411 141.924 204.774C142.698 205.137 143.72 205.762 144.695 206.643C145.663 207.524 146.389 208.479 146.82 209.219C147.257 209.952 147.438 210.456 147.405 210.469V210.463Z" fill="#EB996E"/>
<path d="M149.475 202.064C149.415 202.125 148.601 201.459 147.492 200.78C146.94 200.444 146.429 200.155 146.046 199.987C145.663 199.805 145.414 199.758 145.414 199.704C145.414 199.657 145.703 199.623 146.134 199.751C146.564 199.872 147.109 200.134 147.68 200.484C148.816 201.177 149.563 201.99 149.475 202.064Z" fill="#EB996E"/>
<path d="M151.539 199.523C151.532 199.597 150.457 199.63 149.166 199.254C148.527 199.059 147.982 198.749 147.646 198.46C147.31 198.171 147.168 197.929 147.202 197.902C147.269 197.842 148.029 198.568 149.266 198.917C150.49 199.274 151.553 199.402 151.532 199.516L151.539 199.523Z" fill="#EB996E"/>
<path d="M139.577 213.845C139.536 213.872 139.099 213.32 138.454 212.386C137.795 211.478 136.954 210.12 135.582 209.118C134.211 208.116 132.597 207.88 131.514 208.042C130.412 208.197 129.833 208.654 129.8 208.587C129.786 208.573 129.914 208.445 130.19 208.277C130.465 208.102 130.903 207.914 131.474 207.8C132.604 207.564 134.332 207.78 135.791 208.835C137.243 209.898 138.057 211.31 138.669 212.251C139.261 213.219 139.624 213.818 139.583 213.845H139.577Z" fill="#EB996E"/>
<path d="M148.996 241.077C149.01 241.171 146.75 241.494 143.966 241.803C141.176 242.106 138.903 242.274 138.897 242.18C138.883 242.086 141.136 241.763 143.926 241.454C146.717 241.151 148.983 240.983 148.996 241.077Z" fill="#EB996E"/>
<path d="M254.922 17.4556L255.682 18.8408L257.067 19.6006L255.682 20.3604L254.922 21.7456L254.162 20.3604L252.777 19.6006L254.162 18.8408L254.922 17.4556Z" fill="#FFD59A"/>
<path d="M270.79 51.8625L271.549 53.2477L272.941 54.0075L271.549 54.7673L270.79 56.1525L270.03 54.7673L268.645 54.0075L270.03 53.2477L270.79 51.8625Z" fill="#FFD59A"/>
<path d="M16.3989 143.659L17.1587 145.044L18.5438 145.804L17.1587 146.564L16.3989 147.949L15.6391 146.564L14.2539 145.804L15.6391 145.044L16.3989 143.659Z" fill="#FFD59A"/>
<path d="M234.096 26.0086L235.851 29.2092L239.052 30.9642L235.851 32.7192L234.096 35.9198L232.341 32.7192L229.141 30.9642L232.341 29.2092L234.096 26.0086Z" fill="#FFD59A"/>
<path d="M30.6266 121.846L32.3749 125.047L35.5755 126.795L32.3749 128.544L30.6266 131.744L28.8784 128.544L25.6777 126.795L28.8784 125.047L30.6266 121.846Z" fill="#FFD59A"/>
<path d="M275.106 198.144L276.861 201.345L280.055 203.093L276.861 204.841L275.106 208.035L273.358 204.841L270.164 203.093L273.358 201.345L275.106 198.144Z" fill="#FFD59A"/>
</svg>
