<svg width="67" height="67" viewBox="0 0 67 67" fill="none" xmlns="http://www.w3.org/2000/svg">
<g filter="url(#filter0_d_50_253)">
<path d="M33.5 58C48.6878 58 61 45.6878 61 30.5C61 15.3122 48.6878 3 33.5 3C18.3122 3 6 15.3122 6 30.5C6 45.6878 18.3122 58 33.5 58Z" fill="url(#paint0_linear_50_253)"/>
</g>
<mask id="mask0_50_253" style="mask-type:luminance" maskUnits="userSpaceOnUse" x="12" y="24" width="43" height="13">
<path d="M37.7955 24.1794V28.9094H29.1132V24.1794H24.9519V33.6482H16.3158V25.9999C16.3158 23.6591 12.1545 24.2465 12.1545 24.2465V33.7142L12.171 33.7428C12.1237 34.2554 12.0181 36.7326 14.5459 36.7326H15.0574L15.0761 36.7524H25.0146C25.249 36.7787 25.4864 36.7559 25.7115 36.6855C25.9367 36.6151 26.1447 36.4986 26.3224 36.3434C26.5 36.1882 26.6434 35.9977 26.7435 35.784C26.8435 35.5704 26.8979 35.3382 26.9033 35.1024V36.7524H29.1132V32.0752H37.7955V36.8107H54.7575C54.7575 36.8107 55.5495 33.7307 52.3914 33.7307C51.1121 33.7307 42.014 33.7098 42.014 33.7098V27.2715H52.2935C52.4564 27.2719 52.6191 27.2624 52.7808 27.2429C55.3647 26.9393 54.6585 24.1849 54.6585 24.1849L42.1482 24.1794H40.0857H37.7955Z" fill="white"/>
</mask>
<g mask="url(#mask0_50_253)">
<path d="M55.5495 23.6591H12.0181V36.8107H55.5495V23.6591Z" fill="white"/>
</g>
<mask id="mask1_50_253" style="mask-type:luminance" maskUnits="userSpaceOnUse" x="12" y="24" width="43" height="13">
<path d="M54.8455 24.1794H12.1545V36.8107H54.8455V24.1794Z" fill="white"/>
</mask>
<g mask="url(#mask1_50_253)">
<path d="M42.0459 27.2858V27.2715H52.3001C52.4622 27.2714 52.6242 27.2619 52.7852 27.2429C55.3702 26.9382 54.6651 24.1882 54.6651 24.1882H37.8351V28.9182H25.0201V33.6482H12.2469V33.7142L12.2601 33.7384C12.2117 34.251 12.1072 36.7271 14.6295 36.7271H15.1421L15.1619 36.7469H25.0806C25.3147 36.7727 25.5517 36.7496 25.7764 36.6789C26.0011 36.6083 26.2086 36.4917 26.3858 36.3365C26.563 36.1813 26.706 35.991 26.8057 35.7776C26.9054 35.5642 26.9596 35.3324 26.9649 35.0969V36.7469H29.1715V32.0719H42.0415L42.0459 27.2858Z" fill="white"/>
</g>
<defs>
<filter id="filter0_d_50_253" x="0" y="0" width="67" height="67" filterUnits="userSpaceOnUse" color-interpolation-filters="sRGB">
<feFlood flood-opacity="0" result="BackgroundImageFix"/>
<feColorMatrix in="SourceAlpha" type="matrix" values="0 0 0 0 0 0 0 0 0 0 0 0 0 0 0 0 0 0 127 0" result="hardAlpha"/>
<feOffset dy="3"/>
<feGaussianBlur stdDeviation="3"/>
<feColorMatrix type="matrix" values="0 0 0 0 0 0 0 0 0 0 0 0 0 0 0 0 0 0 0.161 0"/>
<feBlend mode="normal" in2="BackgroundImageFix" result="effect1_dropShadow_50_253"/>
<feBlend mode="normal" in="SourceGraphic" in2="effect1_dropShadow_50_253" result="shape"/>
</filter>
<linearGradient id="paint0_linear_50_253" x1="18.65" y1="7.675" x2="59.625" y2="58" gradientUnits="userSpaceOnUse">
<stop stop-color="#A07C37"/>
<stop offset="0.384" stop-color="#FFD697"/>
<stop offset="1" stop-color="#895A1E"/>
</linearGradient>
</defs>
</svg>
