<svg width="71" height="68" viewBox="0 0 71 68" fill="none" xmlns="http://www.w3.org/2000/svg">
<path d="M67.5655 33.8527C67.5655 15.1902 52.5148 0.0353832 33.9488 0.00343356C15.3828 -0.0285161 0.332029 15.0745 0.33203 33.737C0.332031 52.3994 15.3828 67.5542 33.9488 67.5862C52.5148 67.6181 67.5655 52.5151 67.5655 33.8527Z" fill="#832A2E"/>
<g filter="url(#filter0_d_10_11852)">
<path d="M46.1953 22.994C46.1074 23.3109 47.4169 24.332 48.1263 22.9879C48.4476 22.3752 48.3476 21.8906 48.1202 21.5279C48.2021 21.47 48.3142 21.4334 48.4082 21.4151C48.966 22.3112 48.8417 23.4054 48.3536 23.9419C47.9383 24.396 47.038 24.7069 46.1923 24.2132C45.2343 23.6523 45.4011 22.6739 45.9012 22.3691C46.6955 21.8845 46.9562 22.7806 46.9562 22.7806C46.5772 22.5063 46.2771 22.677 46.1923 22.994H46.1953ZM41.0692 32.7597C40.7661 33.9545 41.0601 35.0853 41.818 35.6431C42.1393 35.8808 42.5182 35.9967 42.9305 35.9967C43.4367 35.9967 43.9915 35.8199 44.5553 35.4663C44.6614 35.3993 44.7614 35.3261 44.8554 35.2469C45.4981 35.9479 47.1653 37.164 50.9667 37.1122C52.9098 37.0817 54.4225 37.734 55.3319 38.9928C56.3565 40.4101 56.5657 42.5437 55.8776 44.5554C55.2743 46.3293 54.0405 47.707 52.4976 48.3379C50.7788 49.039 48.7144 48.8195 46.5287 47.704C42.1332 45.4576 39.8961 45.8874 38.7926 46.6402C37.8681 47.2711 37.383 48.4111 37.5013 49.6821C37.8347 53.2909 41.436 53.3336 41.4724 53.3336H41.7149L41.63 53.1019C41.0722 51.6023 41.4754 50.5721 41.9089 49.9747C42.5788 49.0542 43.7944 48.5208 45.0858 48.5787C46.6803 48.6549 47.8989 49.1426 48.6053 49.99C49.0963 50.5782 49.3116 51.3311 49.2115 52.1083C49.1297 52.7423 48.6022 53.4586 47.8504 54.1261C46.8289 54.8302 45.7618 55.455 44.6553 55.9945C43.7702 56.1042 42.885 56.2993 42.0696 56.5675C39.4929 56.5523 36.8465 55.1075 35.3217 52.7728C33.812 50.4593 33.812 47.8411 35.3217 45.5917C36.2857 44.1561 37.6589 43.1929 38.9897 43.0131C41.0995 42.7327 43.2973 43.7263 45.4223 44.6865C47.6898 45.7106 49.8299 46.6768 51.6094 45.9361C52.0095 45.7715 52.925 44.9455 53.2342 43.7934C53.4797 42.876 53.2766 41.9433 52.64 41.1051C51.476 39.5658 50.1573 39.8615 48.487 40.2364C47.5594 40.4467 46.4984 40.6814 45.2525 40.6753C41.9938 40.657 37.8802 39.4348 36.7828 33.729C36.4645 32.0678 36.3614 30.6535 36.707 29.3368C37.7589 30.8852 38.9957 32.0739 40.0628 32.461C40.3174 32.5524 40.5569 32.5982 40.7812 32.5982C40.8994 32.5982 41.0116 32.5829 41.1207 32.5585C41.0995 32.6225 41.0813 32.6865 41.0631 32.7566L41.0692 32.7597ZM44.5553 53.1629C44.5553 53.1629 46.4742 52.9008 46.3499 51.7517C46.2741 51.0324 45.683 50.7154 44.9555 50.9013C44.2673 51.075 43.4276 52.0931 44.5553 53.1629ZM38.153 26.7034C39.5202 28.1481 40.6933 29.0533 40.9085 28.9223C42.2787 27.4653 43.6398 27.1453 44.9585 27.9683C45.7133 28.4377 46.2195 29.6142 46.3044 31.0223C46.8652 30.8974 47.5897 30.8578 48.5416 30.9279C49.7663 31.0162 50.803 30.6627 51.6276 29.8794C52.5764 28.9771 53.1766 27.5172 53.2948 25.8804C53.1796 25.2921 53.0735 24.6063 52.9735 23.8047C52.8371 22.7257 52.3096 21.6894 51.8064 20.7445C51.6579 20.4672 51.5578 20.2111 51.379 19.9551C51.2213 19.7265 51.0122 19.4644 50.7879 19.3028C50.7575 19.7966 50.6666 20.1106 50.4635 20.5281C50.3665 20.7293 49.9815 21.0676 49.9815 21.0676C49.9148 20.9427 49.8421 20.7933 49.7299 20.644C49.5056 20.3483 49.1691 19.9704 48.6901 20.2294C48.0081 20.5982 49.4419 21.979 49.6086 22.4026C49.8239 22.9482 49.9936 23.5213 49.9997 24.1034C50.0118 25.2159 50.0209 26.4412 49.0812 27.2459C48.5598 27.6909 47.908 27.7061 47.2472 27.2886C46.8531 27.0386 46.4348 26.7216 45.9922 26.3833C44.1461 24.9751 42.0514 23.378 39.8203 25.1397C39.1503 25.667 38.6017 26.1852 38.156 26.7034H38.153ZM24.6421 31.5527C26.6822 30.7968 28.404 31.315 29.3347 32.9334C29.5317 32.3269 29.9591 31.6563 30.1137 30.4127C30.3259 28.7089 30.8898 25.9749 27.8008 23.5304C27.7584 23.4969 27.7159 23.4664 27.6735 23.4329C27.0642 22.9757 26.37 22.6465 25.6515 22.3996C24.927 22.1527 24.2056 21.9302 23.4477 21.8235C23.3234 21.8052 23.1749 21.7595 23.0506 21.7717C22.8869 22.0064 22.7141 22.1314 22.5171 22.1832C22.2109 22.2655 21.9199 22.3112 21.6016 22.2655C21.2166 22.2106 20.8528 22.1558 20.5406 21.8967C20.3375 21.729 20.192 21.4943 20.098 21.2536C20.0283 21.0768 19.9495 20.8848 19.9192 20.6988C19.904 20.7659 19.6585 20.8025 19.6039 20.8116C19.4796 20.8299 19.3493 20.8146 19.2341 20.7628C19.0673 20.6866 18.8824 20.5739 18.8006 20.4062C18.7703 20.3453 18.6005 19.7387 18.6733 19.7387C18.5914 19.7387 18.5338 19.7509 18.455 19.7631C18.4277 19.7661 18.1731 19.7905 18.17 19.8149C18.1064 20.5403 18.552 22.1344 18.9764 22.6922C19.9161 23.9266 21.4955 24.4661 22.896 24.969C24.539 25.5634 26.0911 27.8555 25.2423 29.5867C24.7906 30.1049 24.1025 30.4036 23.3931 30.5865C21.4288 30.9065 20.5982 30.7724 19.7797 30.1201C19.031 29.5258 18.6157 27.8403 19.9525 27.6696C18.067 26.2644 16.9636 29.1265 18.5338 30.3579L18.7309 30.5103C18.0852 30.2299 17.488 29.8184 16.9696 29.2789C16.0178 28.2883 15.1417 26.429 15.6934 25.0818C16.039 24.2375 17.6001 22.8629 17.9397 24.3412C18.0003 24.6094 17.5244 25.344 18.4671 24.8776C18.9461 24.6399 19.0734 23.9144 18.9764 23.4908C18.6975 22.2807 17.7608 21.3145 16.4452 21.4608C16.1117 21.4974 15.6752 21.6224 15.2933 21.8113C15.2629 21.8266 14.978 21.9759 14.6324 22.2868C14.6021 22.3204 14.5748 22.3569 14.5506 22.3905C14.5506 22.3813 14.5506 22.3722 14.5506 22.363C13.7867 23.0976 12.8318 24.6094 13.6987 27.2032C14.4748 29.5258 16.7605 30.6993 17.6092 31.0528C18.458 31.4064 18.1246 31.5253 17.6335 31.3851C16.236 30.9827 13.9018 29.5989 13.1137 26.9716C12.3286 24.3442 13.3592 22.3966 14.6779 21.6254C14.9659 20.836 15.6631 20.0709 16.1966 20.6043C16.3179 19.6503 14.6294 19.5193 14.0231 19.9399C13.5441 20.2752 13.0288 20.7659 12.6317 21.2779C12.3407 21.7809 12.0679 22.296 11.8132 22.8172C10.9917 24.9843 11.0584 27.2246 12.4832 29.4252C13.335 30.6779 14.6445 31.8026 16.6574 32.1013C17.5607 32.2354 17.1727 32.586 16.6877 32.5128C16.2269 32.4427 12.371 32.2873 10.7795 27.4836C10.6492 27.1697 10.5613 26.8771 10.54 26.6698C9.99438 28.8674 9.75793 30.114 11.4798 31.2083C9.70336 31.4399 12.1255 34.5976 12.9379 32.5768C12.6893 33.604 15.1659 34.2166 16.3937 34.0185C13.4562 36.3136 11.6344 39.8767 12.3346 44.2506C12.4983 45.2656 12.7742 46.1708 13.1167 46.9785C14.2626 48.8012 15.6358 50.4593 17.2 51.9102C17.7911 52.3186 18.2458 52.5564 18.4095 52.6569C19.0977 53.0684 21.8411 54.1322 22.0381 52.6813C22.5716 52.8764 23.1021 53.3305 23.6538 53.5774C24.5663 53.9859 25.5727 54.4004 26.57 54.5345C27.5128 54.6595 29.4135 54.2998 29.2407 53.1538C26.8944 53.0471 23.0173 51.6359 21.6865 50.9135C16.9696 48.3532 16.5725 45.9453 16.6028 42.8516C16.6331 39.7579 19.2129 37.2158 19.8373 36.7343C20.9529 35.8717 20.5073 37.0452 20.5073 37.0452C20.5073 37.0452 16.9151 38.9258 17.1121 44.0007C17.391 51.2335 29.1073 52.7392 29.1073 52.7392C30.4745 52.5472 31.5779 52.0169 32.2933 50.7459C32.745 49.9412 32.2873 49.4139 32.26 48.7098C30.6079 49.7827 27.0793 49.6821 25.5212 49.3865C23.9509 49.0847 20.865 48.7769 19.3675 45.7776C17.8699 42.7784 19.2129 40.3096 21.2985 38.371C22.896 36.8806 22.3443 38.2766 22.3443 38.2766C18.1276 40.6723 17.4698 47.6918 25.1695 48.7738C29.9076 49.4383 31.8416 48.4294 32.6268 47.5577C32.7905 47.2651 32.9693 46.9724 33.0936 46.6951L33.1633 46.5183C33.6999 44.9425 33.7908 43.1411 33.2179 41.5653C32.557 39.7426 30.7382 37.8986 28.6799 38.8221C27.6795 39.2702 27.0733 40.721 28.1221 41.4708C27.6462 41.1295 28.9679 40.2181 29.6227 40.6692C30.2047 41.0715 30.3108 41.9037 30.2411 42.559C30.0804 44.0525 29.2983 45.0736 27.9493 45.799C26.3366 46.6707 24.342 46.689 23.1567 46.1129C21.4076 45.2625 20.6861 43.2082 22.3534 41.6049C22.2382 42.8394 22.4261 43.385 23.2901 44.2506C23.7357 44.6986 25.3726 45.29 24.6997 44.0068C26.5428 44.5249 28.0645 41.8 26.1153 41.2575C25.3726 41.1965 25.4211 42.5773 24.5966 42.4096C23.0809 42.1018 24.245 40.3888 24.9877 39.5841C26.952 37.4566 29.5044 37.1336 29.2377 33.5948C29.2377 33.5552 29.2377 33.5156 29.2377 33.476C28.0736 30.8699 25.5182 31.5832 24.7603 31.8636C22.8596 32.5677 21.4136 34.1953 21.7319 35.2743C21.9047 35.8625 22.2079 36.2527 22.6383 36.4386C23.5023 36.8074 24.6148 36.2374 24.6239 36.2314C25.8607 35.6004 26.6095 34.5519 26.5094 34.0033C26.4609 33.732 26.2093 33.5674 25.7607 33.5186C25.1392 33.4516 24.5481 33.8387 24.3117 34.238C24.245 34.3507 24.1449 34.5672 24.2571 34.7317L23.9782 34.9238C23.8206 34.6891 23.8357 34.3751 24.0206 34.0612C24.3147 33.5705 25.0331 33.098 25.797 33.1803C26.6034 33.2687 26.7974 33.6954 26.8429 33.9423C26.9853 34.7196 26.0577 35.8839 24.7785 36.5362C24.7421 36.5544 24.0631 36.905 23.2992 36.905C23.0354 36.905 22.7656 36.8623 22.5049 36.7526C21.9775 36.527 21.6077 36.0637 21.4045 35.3718C20.9953 33.9758 22.7808 32.2324 24.6421 31.5436V31.5527ZM52.9371 28.6175C52.8583 28.779 52.7734 28.9345 52.6825 29.0869C52.7704 29.0473 52.8553 29.0076 52.9462 28.9589H52.9523C52.9432 28.8491 52.9371 28.7364 52.9371 28.6175ZM50.7575 36.4325C50.2725 36.591 49.7723 36.6733 49.3025 36.7068C49.8027 36.7556 50.3544 36.78 50.9667 36.7739C52.3036 36.7556 53.4494 37.0452 54.3588 37.6212C56.7627 37.2433 57.5964 35.2072 57.5327 34.0856C57.4509 32.6134 56.1625 32.8633 56.1898 33.4546C56.2231 34.2685 55.2592 34.7866 55.2592 34.7866C55.8139 33.793 55.1227 32.1227 53.0402 31.8697C50.9576 31.6167 50.5302 33.0675 50.5302 33.0675C50.5302 33.0675 52.8886 32.1592 53.2584 33.9789C53.5495 35.4175 51.964 36.0363 50.7606 36.4325H50.7575ZM34.9579 6.66286C35.5915 6.05021 34.8821 5.33394 34.4001 4.76701C34.0394 4.34029 33.9151 4.02025 33.8757 3.88614C33.8605 3.84042 33.8575 3.81604 33.8575 3.81604C33.8424 3.83738 33.8302 3.86176 33.8211 3.88614C33.7302 4.09341 33.7393 4.44088 33.8636 5.084C34.003 5.80333 34.9609 6.66286 34.9609 6.66286H34.9579ZM53.3069 29.0808C53.31 29.1021 53.313 29.1235 53.316 29.1417C53.3191 29.1661 53.3221 29.1905 53.3282 29.2149C53.3342 29.2484 53.3433 29.2759 53.3524 29.3063C53.3645 29.349 53.3736 29.3886 53.3858 29.4283C53.3949 29.4557 53.407 29.4831 53.4191 29.5105C53.4343 29.5471 53.4464 29.5837 53.4615 29.6203C53.4737 29.6477 53.4888 29.669 53.501 29.6965C53.5161 29.73 53.5343 29.7635 53.5525 29.791C53.5676 29.8153 53.5828 29.8367 53.598 29.858C53.6192 29.8855 53.6374 29.9159 53.6586 29.9434C53.6737 29.9647 53.695 29.983 53.7101 30.0013C53.7344 30.0257 53.7556 30.05 53.7768 30.0744C53.795 30.0927 53.8162 30.1079 53.8374 30.1262C53.8617 30.1476 53.8859 30.1689 53.9102 30.1872C53.9314 30.2024 53.9526 30.2177 53.9769 30.2299C54.0011 30.2482 54.0284 30.2634 54.0557 30.2817C54.0769 30.2939 54.1042 30.3061 54.1254 30.3183C54.1527 30.3305 54.18 30.3457 54.2073 30.3579C54.2315 30.3701 54.2588 30.3762 54.2831 30.3853C54.3134 30.3945 54.3407 30.4067 54.3679 30.4158C54.3952 30.4249 54.4225 30.428 54.4467 30.4371C54.4771 30.4432 54.5043 30.4524 54.5347 30.4585C54.5619 30.4646 54.5892 30.4676 54.6165 30.4707C54.6468 30.4737 54.6771 30.4798 54.7074 30.4829C54.7347 30.4829 54.765 30.4829 54.7923 30.4859C54.8287 30.4859 54.8621 30.489 54.8984 30.4859C55.7139 30.4737 56.2868 29.8184 56.4717 29.5776C56.4293 29.5776 56.3868 29.5837 56.3444 29.5837C55.5623 29.5837 54.7832 29.2271 54.3164 28.651C53.992 28.2517 53.7283 27.6757 53.504 26.8344C53.4555 27.0935 53.3949 27.3465 53.3221 27.5934L53.2979 28.1511C53.2645 28.4011 53.2584 28.6266 53.2736 28.8339C53.2766 28.8857 53.2797 28.9375 53.2827 28.9863C53.2857 29.0198 53.2948 29.0503 53.2979 29.0838L53.3069 29.0808ZM10.6734 41.3154C10.7068 41.291 11.4373 40.7485 11.9314 40.4985C11.9375 40.3309 11.9921 40.0992 12.0648 39.8554C11.9254 39.8981 11.8162 39.9286 11.7101 39.956C11.501 40.0108 11.3039 40.0596 10.8705 40.2364L10.631 40.3492C9.72458 40.8033 8.69391 41.0533 7.72993 41.0533C7.60867 41.0533 7.48742 41.0502 7.36919 41.0411C6.81445 41.4373 6.25364 42.373 6.04144 43.0466C5.67161 44.2079 5.71405 45.3082 6.1627 46.0641C6.69016 46.9572 7.32978 47.2193 8.06035 46.8322C8.40593 46.6494 8.84245 46.2105 8.99099 45.6679C9.09102 45.2991 9.04252 44.9486 8.84851 44.6285C8.76666 44.4944 8.59691 44.3878 8.46049 44.3847C8.5484 44.5005 8.59387 44.6773 8.59387 44.845C8.59387 45.2808 8.28467 45.5338 7.8724 45.3936C7.59351 45.2991 7.41163 45.0797 7.351 44.7535C7.21762 44.0586 7.66324 43.0253 8.027 42.7175C8.24526 42.5315 8.63935 42.3426 8.96371 42.3426C9.04555 42.3426 9.12134 42.3548 9.18803 42.3791L9.3396 42.431L9.29716 42.5864C9.17287 43.0314 9.09709 43.3758 9.23047 43.7599C9.32141 44.0129 9.58514 44.3329 9.75793 44.3329C9.78218 44.3329 9.81553 44.3268 9.861 44.275C9.94285 44.1835 9.87312 43.9458 9.80946 43.7355C9.76399 43.5861 9.71852 43.4337 9.71246 43.2935C9.67305 42.4188 10.2157 41.8244 10.6492 41.3459L10.6734 41.3245V41.3154ZM12.2255 39.3403C12.3498 38.9593 12.6044 38.1882 12.9106 37.5694C12.4347 37.795 11.9466 37.9657 11.4676 38.1272C11.0129 38.2826 10.5461 38.4442 10.0944 38.6545C10.0793 38.6636 10.0611 38.6667 10.0429 38.6697C9.9671 38.6789 9.88828 38.685 9.80946 38.685C8.63025 38.685 7.47226 37.7127 7.22672 36.5179C7.0994 35.89 7.21156 35.2987 7.53895 34.8933C7.73296 34.6555 7.98153 34.5153 8.20586 34.5153C8.35136 34.5153 8.47868 34.5763 8.56659 34.683C8.6545 34.7927 8.74241 35.003 8.66663 35.3871C8.6545 35.4389 8.62419 35.4815 8.57872 35.5059C8.53325 35.5303 8.47868 35.5303 8.43321 35.509C8.39077 35.4907 8.30286 35.4876 8.22404 35.4846C8.16039 35.4846 8.09673 35.4815 8.03307 35.4724C7.97547 35.6339 7.97244 35.765 8.02397 35.8473C8.07247 35.9266 8.17554 35.9692 8.30892 35.9692C8.51203 35.9692 8.73029 35.8686 8.86367 35.7101C9.20622 35.3109 9.3396 34.0978 9.09406 33.6162C8.88489 33.2017 8.41805 32.9243 7.93 32.9243C7.82996 32.9243 7.73296 32.9365 7.64202 32.9609C7.06605 33.1072 6.61741 33.8753 6.51434 34.2319C6.49009 34.3142 6.4143 34.3629 6.32942 34.3538C6.24758 34.3416 6.18392 34.2715 6.18088 34.1892C6.17179 33.8052 6.5295 33.3601 6.9842 32.7932C7.7663 31.8209 8.83942 30.4859 8.37561 28.9162C8.08763 27.9408 7.10546 27.4135 6.32639 27.4135C5.40485 27.4135 4.82888 28.0658 4.78947 29.157C4.78038 29.3886 4.96226 29.9434 5.20174 30.1933C5.2654 30.2604 5.36241 30.3396 5.46548 30.2725C5.48973 30.2146 5.48366 30.0257 5.48063 29.9007C5.47457 29.6142 5.46851 29.288 5.60492 29.0716C5.78074 28.7912 5.99597 28.6602 6.27789 28.6602C6.34155 28.6602 6.41127 28.6663 6.48706 28.6815C6.80535 28.7425 7.02361 28.8796 7.13577 29.096C7.27522 29.3612 7.23884 29.7239 7.02664 30.1963C6.86901 30.553 6.29305 31.2631 5.82924 31.7752C5.40485 32.2415 5.08049 32.8511 4.89557 33.5339C4.53484 34.8598 4.73794 36.3838 5.42304 37.5115C5.87471 38.2552 6.59922 38.8465 7.63899 39.3159C7.70871 39.3464 7.74812 39.4195 7.73599 39.4957C7.72386 39.5719 7.66324 39.6299 7.58745 39.639C7.49954 39.6481 7.41466 39.6542 7.32675 39.6542C5.84743 39.6542 4.78038 38.2156 4.27414 36.8714C3.88612 35.8412 3.95887 34.5915 4.08013 33.5095C4.13166 33.0523 4.21957 32.653 4.37114 32.1714C4.51362 31.7203 4.47421 31.4491 4.43177 31.4125C4.43177 31.4155 4.3287 31.4186 4.08922 31.6777C3.70424 32.0891 3.49204 32.8694 3.42535 33.412C3.11918 35.9174 3.73758 39.0294 5.50792 40.1267C6.13238 40.5107 6.87204 40.7088 7.71477 40.7088C8.62722 40.7088 9.60636 40.4711 10.4703 40.0383L10.7219 39.9194C11.1827 39.7335 11.3919 39.6786 11.6101 39.6207C11.7617 39.5811 11.9193 39.5415 12.174 39.4531C12.183 39.4226 12.1952 39.386 12.2134 39.3372L12.2255 39.3403ZM51.4154 19.3699C52.2369 20.7415 53.1463 22.4941 53.3069 23.762C53.6222 26.2492 53.992 27.7 54.5862 28.4285C54.6347 28.4864 54.6862 28.5413 54.7408 28.5962C54.7499 28.6053 54.762 28.6144 54.7711 28.6266C54.8257 28.6754 54.8802 28.7242 54.9378 28.7668C54.95 28.776 54.9621 28.7821 54.9712 28.7912C55.0318 28.8339 55.0924 28.8735 55.1561 28.9131H55.1622C55.2288 28.9558 55.2955 28.9893 55.3622 29.0198C55.3744 29.0259 55.3895 29.032 55.4047 29.0381C55.4714 29.0686 55.5411 29.093 55.6078 29.1174C55.6199 29.1204 55.632 29.1265 55.6472 29.1296C55.7139 29.1509 55.7836 29.1692 55.8533 29.1844H55.8685C55.9412 29.2027 56.0109 29.2149 56.0837 29.221C56.0989 29.221 56.114 29.224 56.1292 29.2271C56.1989 29.2332 56.2686 29.2393 56.3383 29.2393C56.3565 29.2393 56.3747 29.2393 56.3929 29.2393C56.4262 29.2393 56.4596 29.2393 56.4929 29.2362C56.5142 29.2362 56.5323 29.2362 56.5536 29.2301C56.5839 29.2271 56.6172 29.224 56.6475 29.2179C56.6657 29.2179 56.687 29.2118 56.7082 29.2088C56.7415 29.2027 56.7718 29.1966 56.8021 29.1875C56.8203 29.1844 56.8355 29.1783 56.8537 29.1753C56.8901 29.1661 56.9264 29.1539 56.9628 29.1417C56.9719 29.1387 56.984 29.1356 56.9931 29.1326C57.0386 29.1143 57.0841 29.096 57.1265 29.0747C57.1386 29.0686 57.1508 29.0594 57.1629 29.0534C57.1932 29.0381 57.2205 29.0229 57.2508 29.0046C57.2569 29.0015 57.2599 28.9985 57.2659 28.9954C57.275 28.9893 57.2872 28.9802 57.2963 28.9741C57.3205 28.9589 57.3448 28.9406 57.366 28.9223C57.3811 28.9101 57.3963 28.8979 57.4084 28.8857C57.4296 28.8674 57.4509 28.8461 57.4721 28.8248C57.4842 28.8126 57.4994 28.7973 57.5115 28.7821C57.5327 28.7607 57.5509 28.7364 57.5691 28.7089C57.5782 28.6967 57.5903 28.6815 57.5994 28.6663C57.6206 28.6327 57.6418 28.5961 57.6631 28.5596C57.6661 28.5535 57.6722 28.5474 57.6752 28.5382C57.6964 28.4956 57.7176 28.4468 57.7358 28.4011C57.7419 28.3858 57.7449 28.3706 57.751 28.3523C57.7631 28.3188 57.7722 28.2822 57.7813 28.2456C57.7873 28.2243 57.7904 28.203 57.7934 28.1847C57.7995 28.1511 57.8055 28.1146 57.8086 28.081C57.8086 28.0567 57.8116 28.0353 57.8146 28.0109C57.8146 27.9744 57.8177 27.9347 57.8177 27.8951C57.8177 27.8707 57.8177 27.8463 57.8177 27.822C57.8177 27.7793 57.8116 27.7336 57.8086 27.6879C57.8086 27.6665 57.8055 27.6452 57.8025 27.6238C57.7934 27.5537 57.7813 27.4836 57.7661 27.4105C57.751 27.3434 57.7328 27.2825 57.7146 27.2246C57.7146 27.2215 57.7146 27.2154 57.7085 27.2093C57.6903 27.1545 57.6691 27.1087 57.6479 27.063C57.6479 27.0569 57.6418 27.0508 57.6388 27.0478C57.6176 27.0051 57.5933 26.9685 57.5691 26.935C57.5661 26.9289 57.56 26.9259 57.557 26.9198C57.5327 26.8862 57.5054 26.8588 57.4812 26.8344C57.4781 26.8314 57.4721 26.8253 57.469 26.8222C57.4418 26.7978 57.4145 26.7765 57.3872 26.7582L57.3751 26.7491C57.3478 26.7308 57.3175 26.7155 57.2902 26.7064C57.2841 26.7064 57.2811 26.7034 57.2781 26.7003C57.2478 26.6881 57.2205 26.679 57.1902 26.6729H57.1811C57.1508 26.6637 57.1174 26.6607 57.0871 26.6576C57.0598 26.6576 57.0356 26.6576 57.0113 26.6576C56.9962 26.6576 56.984 26.6576 56.9689 26.6576C56.9537 26.6576 56.9355 26.6607 56.9204 26.6637C56.9082 26.6637 56.8961 26.6668 56.881 26.6698C56.8658 26.6698 56.8506 26.6759 56.8355 26.679C56.8234 26.679 56.8112 26.6851 56.8021 26.6881C56.787 26.6912 56.7749 26.6973 56.7597 26.7003C56.7506 26.7003 56.7415 26.7064 56.7324 26.7094C56.7203 26.7125 56.7082 26.7186 56.696 26.7216C56.69 26.7216 56.6809 26.7277 56.6748 26.7308C56.6627 26.7338 56.6536 26.7399 56.6445 26.743C56.6384 26.743 56.6324 26.746 56.6294 26.7491C56.6203 26.7521 56.6142 26.7552 56.6081 26.7582H56.6021L56.593 26.7674C57.275 27.0904 57.1295 27.8372 56.7142 27.9104C56.6475 27.9225 56.5809 27.9256 56.5172 27.9286C56.5142 27.9286 56.5111 27.9286 56.5081 27.9286C56.4717 27.9286 56.4384 27.9256 56.402 27.9195C56.3868 27.9195 56.3687 27.9195 56.3505 27.9164C56.2959 27.9073 56.2444 27.8982 56.1928 27.8799C56.1837 27.8768 56.1746 27.8707 56.1625 27.8677C56.1231 27.8524 56.0807 27.8372 56.0413 27.8189C56.0231 27.8098 56.0079 27.7976 55.9897 27.7884C55.9594 27.7701 55.9291 27.7549 55.8988 27.7336C55.8806 27.7214 55.8624 27.7061 55.8442 27.6909C55.8169 27.6696 55.7897 27.6482 55.7624 27.6238C55.7442 27.6086 55.726 27.5873 55.7078 27.569C55.6836 27.5446 55.6593 27.5202 55.6351 27.4928C55.6169 27.4714 55.6017 27.4501 55.5835 27.4288C55.5593 27.4013 55.5381 27.3709 55.5138 27.3404C55.4986 27.316 55.4805 27.2916 55.4623 27.2672C55.441 27.2368 55.4198 27.2032 55.3986 27.1697C55.3834 27.1423 55.3653 27.1179 55.3501 27.0904C55.3289 27.0539 55.3077 27.0173 55.2895 26.9807C55.2804 26.9655 55.2743 26.9533 55.2652 26.938C55.047 26.5174 54.862 25.9901 54.6923 25.3866C54.1679 23.5304 53.4009 20.8421 52.0944 19.0803C51.8701 19.2053 51.6336 19.3028 51.4184 19.3669L51.4154 19.3699ZM38.5653 17.8886L38.5471 17.8733C38.5471 17.8733 38.5562 17.8825 38.5622 17.8886H38.5653ZM53.8496 13.4903C54.2012 13.786 54.5498 14.106 54.8984 14.4535C54.9045 14.4596 54.9106 14.4657 54.9166 14.4718C54.953 14.4047 54.9894 14.3377 55.0257 14.2737C55.1622 14.0329 55.2804 13.8256 55.2561 13.6366C55.244 13.5361 55.1834 13.4385 55.1046 13.3562C55.0712 13.3258 55.0348 13.2953 55.0015 13.2648C54.8772 13.1703 54.7287 13.1093 54.6226 13.1093C54.6226 13.1246 54.6256 13.1459 54.6317 13.1703L54.7226 13.5848H54.2982C54.1254 13.5848 53.9739 13.5513 53.8465 13.4903H53.8496ZM55.4956 26.6393C55.5623 26.5479 55.629 26.4565 55.6927 26.3589C55.7017 26.3467 55.7078 26.3345 55.7169 26.3254C55.7957 26.2065 55.8745 26.0816 55.9503 25.9566C55.9685 25.9261 55.9867 25.8956 56.0049 25.8652C56.0807 25.7371 56.1565 25.6061 56.2262 25.472C56.4869 24.9782 56.6203 24.5058 56.6779 24.0425C56.302 23.1372 55.8745 22.2594 55.3986 21.4121C55.3834 21.7931 55.3531 22.1771 55.0409 22.8781C54.9985 22.9726 54.9591 23.0641 54.9196 23.1525C54.9075 23.1799 54.8954 23.2073 54.8833 23.2347C54.853 23.3018 54.8257 23.3689 54.7984 23.4329C54.7741 23.4847 54.7529 23.5365 54.7317 23.5853C54.7165 23.6157 54.7044 23.6523 54.6893 23.6798C54.6589 23.7468 54.6317 23.8108 54.6044 23.8687C54.6044 23.8687 54.6044 23.8718 54.6044 23.8748C54.756 24.3808 54.8924 24.8624 55.0167 25.2952C55.1713 25.8469 55.3289 26.2919 55.4926 26.6363L55.4956 26.6393ZM38.5804 13.5818C38.3228 13.4446 38.053 13.3349 37.7892 13.2465C37.7983 13.216 37.8074 13.1855 37.8165 13.1551C37.8165 13.1459 37.8226 13.1368 37.8256 13.1276C37.8317 13.1032 37.8408 13.0789 37.8468 13.0545C37.8499 13.0453 37.8529 13.0331 37.8559 13.024C37.865 12.9996 37.8711 12.9752 37.8802 12.9508C37.8802 12.9417 37.8862 12.9356 37.8893 12.9265C37.8984 12.896 37.9105 12.8655 37.9226 12.835C37.9226 12.8289 37.9287 12.8228 37.9287 12.8167C37.9378 12.7924 37.9469 12.768 37.959 12.7466C37.962 12.7375 37.9681 12.7283 37.9711 12.7192C37.9802 12.6979 37.9893 12.6796 38.0014 12.6582C38.0045 12.6491 38.0105 12.643 38.0136 12.6339C38.0287 12.6064 38.0439 12.582 38.059 12.5577C38.0742 12.5302 38.0924 12.5058 38.1106 12.4845C38.1166 12.4784 38.1197 12.4723 38.1257 12.4662C38.1378 12.451 38.153 12.4357 38.1682 12.4205C38.1742 12.4144 38.1803 12.4083 38.1863 12.4022C38.2015 12.387 38.2197 12.3748 38.2379 12.3626C38.2439 12.3595 38.247 12.3534 38.253 12.3504C38.2773 12.3352 38.3015 12.323 38.3258 12.3077C38.3288 12.3077 38.3349 12.3047 38.341 12.3016C38.3622 12.2925 38.3864 12.2833 38.4107 12.2772C38.4198 12.2742 38.4289 12.2711 38.438 12.2711C38.4592 12.2651 38.4774 12.262 38.4986 12.259C38.5137 12.259 38.5259 12.2559 38.538 12.2529C38.5592 12.2529 38.5804 12.2529 38.6017 12.2529C38.6168 12.2529 38.632 12.2529 38.6471 12.2529C38.6714 12.2529 38.6987 12.259 38.7259 12.262C38.7381 12.262 38.7532 12.2651 38.7653 12.2681C38.8078 12.2772 38.8502 12.2864 38.8957 12.2986C38.9169 12.3047 38.9381 12.3108 38.9563 12.3108C38.9624 12.3108 38.9685 12.3108 38.9745 12.3108C38.9866 12.3108 38.9988 12.3108 39.0079 12.3108C39.0139 12.3108 39.0169 12.3077 39.023 12.3047C39.0321 12.3047 39.0412 12.2986 39.0473 12.2955C39.0533 12.2925 39.0564 12.2894 39.0624 12.2864C39.0685 12.2803 39.0745 12.2772 39.0806 12.2711C39.0836 12.2651 39.0897 12.262 39.0927 12.2559C39.0988 12.2498 39.1018 12.2437 39.1079 12.2346C39.1109 12.2285 39.114 12.2224 39.117 12.2163C39.12 12.2102 39.1261 12.201 39.1291 12.1919C39.1291 12.1858 39.1352 12.1767 39.1382 12.1706C39.1412 12.1614 39.1443 12.1523 39.1473 12.1431C39.1625 12.1035 39.1746 12.0578 39.1897 12.0121C39.1958 11.9907 39.2019 11.9724 39.211 11.9572C39.211 11.9511 39.217 11.9481 39.2201 11.942C39.2261 11.9298 39.2322 11.9176 39.2382 11.9023C39.2413 11.8962 39.2443 11.8902 39.2504 11.8841C39.2564 11.8719 39.2655 11.8597 39.2716 11.8505C39.2777 11.8444 39.2807 11.8383 39.2867 11.8322C39.2958 11.8231 39.3019 11.8109 39.314 11.8018C39.3201 11.7957 39.3262 11.7896 39.3322 11.7835C39.3413 11.7743 39.3534 11.7652 39.3656 11.7591C39.3747 11.753 39.3807 11.7469 39.3868 11.7438C39.4019 11.7347 39.4171 11.7286 39.4323 11.7195C39.4413 11.7164 39.4474 11.7134 39.4565 11.7073C39.4808 11.6981 39.508 11.689 39.5383 11.6829H39.5535C39.5535 11.6829 39.5626 11.6829 39.5687 11.6829C39.5717 11.6829 39.5778 11.6829 39.5808 11.6829C39.5869 11.6829 39.5929 11.6829 39.599 11.6829C39.605 11.6829 39.6111 11.6829 39.6172 11.6829C39.6263 11.6829 39.6323 11.6829 39.6414 11.6829C39.6475 11.6829 39.6566 11.6829 39.6626 11.6829H39.6899C39.6899 11.6829 39.7051 11.689 39.7142 11.692C39.7233 11.692 39.7324 11.692 39.7445 11.6981C39.7536 11.6981 39.7627 11.7042 39.7718 11.7042C39.7809 11.7042 39.793 11.7103 39.8021 11.7134C39.8112 11.7164 39.8203 11.7195 39.8324 11.7256C39.8415 11.7286 39.8536 11.7317 39.8627 11.7378C39.8718 11.7408 39.8839 11.7469 39.893 11.753C39.9021 11.756 39.9142 11.7621 39.9233 11.7682C39.9355 11.7743 39.9446 11.7804 39.9537 11.7896C39.9627 11.7957 39.9749 11.8018 39.984 11.8079C39.9931 11.817 40.0052 11.8261 40.0143 11.8353C40.0234 11.8444 40.0325 11.8505 40.0416 11.8597C40.0507 11.8688 40.0628 11.881 40.0719 11.8932C40.081 11.9023 40.087 11.9115 40.0961 11.9237C40.1052 11.9359 40.1143 11.9511 40.1234 11.9663C40.1295 11.9785 40.1386 11.9877 40.1446 11.9999C40.1537 12.0182 40.1598 12.0365 40.1689 12.0547C40.1719 12.0669 40.178 12.0761 40.184 12.0913C40.1931 12.1127 40.1962 12.137 40.2022 12.1614C40.2022 12.1736 40.2083 12.1858 40.2113 12.198C40.2174 12.2376 40.2234 12.2772 40.2265 12.323C40.5508 12.3809 40.7267 12.518 40.9025 12.64C41.0571 12.7466 42.4151 13.8256 42.6758 13.847C42.7243 13.85 42.7728 13.847 42.8183 13.847C42.8304 13.847 42.8426 13.847 42.8547 13.8439C42.888 13.8409 42.9184 13.8348 42.9487 13.8256C42.9608 13.8226 42.9759 13.8195 42.9881 13.8165C43.0275 13.8043 43.0608 13.789 43.0972 13.7738C43.0972 13.7738 43.1033 13.7738 43.1033 13.7708C43.1396 13.7525 43.176 13.7281 43.2094 13.7067C43.2185 13.7007 43.2306 13.6915 43.2397 13.6824C43.2639 13.6641 43.2882 13.6458 43.3094 13.6275C43.3215 13.6184 43.3306 13.6092 43.3428 13.597C43.364 13.5757 43.3852 13.5544 43.4094 13.533C43.4185 13.5239 43.4276 13.5147 43.4367 13.5056C43.464 13.4781 43.4913 13.4507 43.5186 13.4202C43.5186 13.4172 43.5246 13.4141 43.5277 13.4111C43.564 13.3715 43.5974 13.3318 43.6338 13.2922C43.658 13.2678 43.6792 13.2404 43.7035 13.216C43.7126 13.2038 43.7247 13.1947 43.7338 13.1825C43.755 13.1612 43.7793 13.1368 43.8005 13.1154C43.8126 13.1063 43.8217 13.0941 43.8338 13.085C43.8642 13.0575 43.8945 13.0331 43.9248 13.0057L43.9369 12.9966C43.9733 12.9691 44.0097 12.9448 44.046 12.9204C44.0551 12.9143 44.0673 12.9082 44.0763 12.9021C44.1067 12.8868 44.1339 12.8716 44.1643 12.8594C44.1794 12.8533 44.1915 12.8472 44.2067 12.8411C44.237 12.8289 44.2673 12.8198 44.3007 12.8106C44.3158 12.8106 44.331 12.8015 44.3461 12.7984C44.3795 12.7924 44.4159 12.7863 44.4522 12.7832C44.4704 12.7832 44.4856 12.7802 44.5038 12.7771C44.5583 12.7771 44.6159 12.7771 44.6766 12.7832C45.4647 12.8686 46.071 13.5513 46.7197 13.9536C47.4109 14.3834 47.7625 14.1152 48.5234 14.2493C48.5658 14.2554 48.6083 14.2676 48.6507 14.2828C48.6538 14.2828 48.6598 14.2859 48.6659 14.2859C48.7053 14.2981 48.7447 14.3163 48.7841 14.3346C48.7902 14.3346 48.7962 14.3407 48.8023 14.3438C48.8417 14.3621 48.8781 14.3834 48.9145 14.4047C48.9205 14.4078 48.9266 14.4139 48.9326 14.4169C48.969 14.4413 49.0054 14.4657 49.0387 14.4931C49.0448 14.4962 49.0478 14.4992 49.0539 14.5053C49.0903 14.5328 49.1236 14.5632 49.157 14.5937C49.157 14.5937 49.157 14.5937 49.16 14.5968C49.1933 14.6272 49.2237 14.6608 49.2509 14.6943C49.2509 14.6973 49.257 14.7004 49.26 14.7034C49.2873 14.737 49.3146 14.7705 49.3388 14.804C49.3419 14.8101 49.3479 14.8132 49.351 14.8193C49.3752 14.8528 49.3934 14.8863 49.4146 14.9198C49.4146 14.9259 49.4207 14.932 49.4237 14.9381C49.4419 14.9717 49.4571 15.0052 49.4692 15.0387C49.4692 15.0448 49.4722 15.0479 49.4753 15.054C49.4874 15.0875 49.4995 15.1241 49.5056 15.1545V15.1606C49.5147 15.1942 49.5177 15.2277 49.5177 15.2582C49.5177 15.2582 49.5177 15.2612 49.5177 15.2643C49.5177 15.2947 49.5147 15.3252 49.5056 15.3527C49.5056 15.3557 49.5056 15.3618 49.5025 15.3649C49.4935 15.3923 49.4813 15.4167 49.4662 15.4411C49.4662 15.4441 49.4601 15.4502 49.4571 15.4532C49.451 15.4624 49.4449 15.4685 49.4389 15.4776C49.4025 15.4685 49.3661 15.4593 49.3358 15.4502C48.9842 15.3527 48.9145 15.2399 48.9023 15.2033C48.8811 15.1423 48.9266 15.0753 48.9387 15.0601L48.9448 15.054C49.0084 14.9839 49.0024 14.8741 48.9326 14.8101C48.8629 14.7461 48.7538 14.7522 48.6901 14.8223C48.6234 14.8955 48.5325 15.054 48.5598 15.2338C48.5628 15.2612 48.5689 15.2887 48.578 15.313C48.6143 15.4228 48.6962 15.5203 48.8144 15.5995C48.8326 15.6117 48.8478 15.6239 48.869 15.6331C48.8599 15.6331 48.8569 15.6331 48.8478 15.6331C48.969 15.6879 49.0842 15.7428 49.1994 15.7946V15.7885C49.1994 15.7885 49.2055 15.7885 49.2085 15.7916C49.2176 15.7977 49.2297 15.8007 49.2388 15.8038C49.2934 15.8251 49.3479 15.8495 49.3995 15.8708C49.4055 15.8708 49.4146 15.8739 49.4207 15.88C49.4753 15.9013 49.5298 15.9196 49.5844 15.9348C49.5844 15.9348 49.5844 15.9348 49.5874 15.9348C49.642 15.9501 49.6966 15.9653 49.7511 15.9775C49.7602 15.9775 49.7693 15.9805 49.7754 15.9836C49.8269 15.9927 49.8815 16.0019 49.936 16.008C49.9451 16.008 49.9542 16.008 49.9663 16.008C50.0209 16.011 50.0755 16.0141 50.1331 16.011C50.1422 16.011 50.1482 16.011 50.1573 16.011C50.2149 16.011 50.2725 16.0019 50.3331 15.9897H50.3422C50.3695 15.9836 50.3968 15.9775 50.4211 15.9684C50.4332 15.9684 50.4483 15.9623 50.4605 15.9592C50.4999 15.947 50.5423 15.9348 50.5848 15.9196C50.9212 15.7641 51.2456 15.7398 51.4972 15.7916C51.9519 15.8861 52.1732 16.2366 51.8428 16.5658C51.7003 16.709 51.4517 16.8492 51.0698 16.962C51.1698 17.023 51.2638 17.0717 51.3517 17.1113H51.3547C51.3729 17.1205 51.3881 17.1266 51.4032 17.1357C51.4305 17.1479 51.4608 17.1601 51.4881 17.1693C51.5033 17.1754 51.5184 17.1784 51.5336 17.1845C51.5639 17.1936 51.5942 17.2058 51.6245 17.2119C51.6336 17.2119 51.6457 17.218 51.6548 17.2211C51.6942 17.2302 51.7337 17.2363 51.77 17.2424C51.7791 17.2424 51.7852 17.2424 51.7973 17.2424C51.8276 17.2455 51.8549 17.2485 51.8852 17.2485C51.8973 17.2485 51.9125 17.2485 51.9246 17.2485C51.9307 17.2485 51.9337 17.2485 51.9398 17.2485C52.1065 17.2485 52.2702 17.2089 52.4521 17.1418H52.4551C52.4551 17.1418 52.4672 17.1357 52.4733 17.1327C52.5248 17.1144 52.5794 17.0931 52.634 17.0687C52.6461 17.0626 52.6613 17.0565 52.6734 17.0534C52.7279 17.0291 52.7855 17.0047 52.8462 16.9772C52.8674 16.9681 52.8916 16.9559 52.9159 16.9437C52.925 16.9376 52.9371 16.9346 52.9462 16.9285C52.9614 16.9193 52.9765 16.9132 52.9917 16.9041C53.0129 16.8919 53.0341 16.8797 53.0584 16.8706C53.0705 16.8614 53.0826 16.8553 53.0978 16.8492C53.1129 16.8401 53.1281 16.834 53.1432 16.8248C53.1554 16.8187 53.1675 16.8126 53.1796 16.8065C53.1948 16.7974 53.2099 16.7913 53.2251 16.7822C53.2372 16.7761 53.2493 16.77 53.2615 16.7639C53.2766 16.7578 53.2918 16.7517 53.3069 16.7456C53.3191 16.7395 53.3312 16.7364 53.3433 16.7303C53.3585 16.7243 53.3736 16.7182 53.3888 16.7151C53.4009 16.7121 53.413 16.706 53.4252 16.7029C53.4403 16.6968 53.4555 16.6938 53.4706 16.6907C53.4828 16.6907 53.4949 16.6846 53.507 16.6816C53.5161 16.6816 53.5252 16.6816 53.5343 16.6785C53.5495 16.6785 53.5616 16.6755 53.5767 16.6755C53.5858 16.6755 53.5949 16.6755 53.6071 16.6755C53.6192 16.6755 53.6343 16.6755 53.6465 16.6785C53.6556 16.6785 53.6646 16.6816 53.6737 16.6846C53.6859 16.6877 53.698 16.6907 53.7132 16.6968C53.7222 16.6999 53.7313 16.7029 53.7404 16.709C53.7526 16.7151 53.7647 16.7212 53.7768 16.7273C53.7859 16.7334 53.792 16.7364 53.8011 16.7425C53.8132 16.7517 53.8253 16.7639 53.8344 16.773C53.8405 16.7822 53.8496 16.7883 53.8556 16.7944C53.8678 16.8096 53.8768 16.8248 53.889 16.8401C53.895 16.8492 53.9011 16.8553 53.9041 16.8645C53.9193 16.8919 53.9344 16.9193 53.9496 16.9559C54.2649 17.7209 53.122 18.5134 52.5309 18.6993C52.4582 18.7237 52.3854 18.739 52.3096 18.7542C52.3005 18.7542 52.2914 18.7573 52.2823 18.7603C52.2672 18.7603 52.249 18.7664 52.2338 18.7695C52.2096 18.7725 52.1853 18.7755 52.1611 18.7786C52.1277 18.7816 52.0974 18.7847 52.0641 18.7877C52.0398 18.7877 52.0156 18.7908 51.9883 18.7938C51.9549 18.7938 51.9186 18.7938 51.8852 18.7969C51.861 18.7969 51.8367 18.7969 51.8125 18.7969C51.7761 18.7969 51.7397 18.7969 51.7033 18.7938C51.6791 18.7938 51.6579 18.7938 51.6366 18.7908C51.5881 18.7877 51.5427 18.7816 51.4972 18.7755C51.4851 18.7755 51.473 18.7755 51.4578 18.7695C51.3972 18.7603 51.3396 18.7512 51.2789 18.739C51.2608 18.7359 51.2426 18.7298 51.2244 18.7237C51.185 18.7146 51.1425 18.7054 51.1031 18.6933C51.0789 18.6872 51.0577 18.678 51.0334 18.6719C50.997 18.6597 50.9637 18.6506 50.9273 18.6384C50.903 18.6292 50.8788 18.6201 50.8576 18.611C50.8242 18.5988 50.7909 18.5866 50.7606 18.5713C50.7363 18.5622 50.7151 18.55 50.6908 18.5378C50.6605 18.5226 50.6302 18.5073 50.5999 18.4921C50.5757 18.4799 50.5544 18.4677 50.5302 18.4555C50.5029 18.4403 50.4756 18.425 50.4514 18.4067C49.9815 17.4588 49.0539 16.7883 48.1748 16.7883C47.8565 16.7883 47.4473 16.9163 47.2472 17.2028C47.1593 17.3308 47.0744 17.5472 47.1866 17.8459C47.3078 18.169 47.7201 18.3976 48.0354 18.3123C48.196 18.2696 48.3506 18.1263 48.3415 17.8581C48.3415 17.8246 48.3385 17.7941 48.3324 17.7575C48.3173 17.663 48.2263 17.599 48.1354 17.6143C48.0414 17.6265 47.9778 17.7179 47.9929 17.8124C48.0172 17.9587 47.9656 17.9709 47.9444 17.977C47.8141 18.0105 47.5685 17.8916 47.5079 17.724C47.4594 17.596 47.4654 17.4923 47.5291 17.4009C47.6504 17.2272 47.9505 17.1327 48.1748 17.1327C48.9387 17.1327 49.7481 17.7392 50.1573 18.5866C50.1816 18.6384 50.2058 18.6902 50.227 18.7451C50.2392 18.7755 50.2634 18.8121 50.2634 18.8396C50.3968 19.3882 50.4241 20.0039 50.027 20.4672C49.9876 20.3605 49.9239 20.2508 49.8451 20.1502C49.8451 20.1502 49.8451 20.1502 49.8421 20.1471C49.8269 20.1258 49.8087 20.1075 49.7936 20.0862C49.7845 20.077 49.7784 20.0679 49.7693 20.0587C49.742 20.0313 49.7147 20.0008 49.6875 19.9765C49.6814 19.9704 49.6784 19.9673 49.6723 19.9612C49.6481 19.9399 49.6238 19.9185 49.5995 19.8972C49.5874 19.8881 49.5783 19.882 49.5662 19.8728C49.545 19.8576 49.5238 19.8423 49.5025 19.8271C49.4904 19.818 49.4783 19.8119 49.4662 19.8027C49.4449 19.7875 49.4237 19.7753 49.3995 19.7631C49.3874 19.757 49.3752 19.7479 49.3631 19.7418C49.3388 19.7296 49.3116 19.7174 49.2873 19.7052C49.2782 19.7021 49.2691 19.696 49.257 19.693C49.2206 19.6778 49.1842 19.6656 49.1509 19.6564C49.1418 19.6564 49.1357 19.6564 49.1297 19.6503C49.0994 19.6442 49.0721 19.6351 49.0418 19.632C49.0296 19.632 49.0175 19.629 49.0054 19.6259C48.9811 19.6259 48.9569 19.6198 48.9326 19.6198C48.9205 19.6198 48.9054 19.6198 48.8932 19.6198C48.869 19.6198 48.8447 19.6198 48.8205 19.6229C48.8084 19.6229 48.7962 19.6229 48.7841 19.6259C48.6719 19.6442 48.5628 19.6869 48.4658 19.7631C47.9535 20.1593 47.9353 20.6104 48.2961 21.0097C48.2566 21.0341 48.2172 21.0554 48.1748 21.0707C48.1657 21.0737 48.1536 21.0798 48.1414 21.0829C48.1081 21.0951 48.0717 21.1042 48.0384 21.1133C48.0323 21.1133 48.0263 21.1133 48.0202 21.1164C47.9747 21.1255 47.9292 21.1255 47.8868 21.1255C47.8777 21.1255 47.8686 21.1255 47.8595 21.1255C47.8171 21.1255 47.7716 21.1164 47.7292 21.1073C47.7231 21.1073 47.7171 21.1042 47.711 21.1012C47.6686 21.092 47.6291 21.0768 47.5897 21.0585C47.5837 21.0585 47.5776 21.0524 47.5715 21.0493C47.5291 21.0311 47.4867 21.0067 47.4473 20.9792C47.4382 20.9762 47.4291 20.967 47.423 20.964C47.3806 20.9366 47.3412 20.9061 47.3048 20.8756C47.3048 20.8726 47.2987 20.8695 47.2957 20.8665C47.2593 20.8329 47.2229 20.7994 47.1896 20.7628C47.1835 20.7567 47.1775 20.7506 47.1714 20.7415C47.135 20.7049 47.1017 20.6622 47.0714 20.6196C47.0653 20.6104 47.0592 20.6013 47.0501 20.5921C47.0168 20.5464 46.9865 20.5007 46.9562 20.455C46.5772 19.8393 46.6561 19.6808 45.8982 19.2449C45.3223 18.9127 44.2613 18.6171 43.652 18.9584C43.2821 19.1626 43.1245 19.4674 43.1548 19.7875C43.2185 20.013 43.3761 20.2386 43.6186 20.4367C43.5853 20.455 43.558 20.4702 43.5246 20.4885C43.564 20.5251 43.6034 20.5617 43.6459 20.5982C42.6092 21.2322 41.9907 20.2447 41.8604 19.4949C41.8543 19.4552 41.8483 19.4217 41.8452 19.3851C41.8452 19.3821 41.8452 19.376 41.8452 19.373C41.8452 19.3669 41.8452 19.3608 41.8452 19.3516C41.8452 19.3516 41.8452 19.3486 41.8452 19.3455C41.8452 19.312 41.8392 19.2785 41.8392 19.2449V19.2388C41.8392 19.2388 41.8392 19.2266 41.8392 19.2206V19.2145C41.8392 19.1809 41.8392 19.1444 41.8422 19.1108C41.8361 19.1748 41.8271 19.2327 41.8149 19.2907C41.8119 19.3089 41.8058 19.3242 41.7998 19.3394C41.7907 19.373 41.7816 19.4126 41.7664 19.4431C41.7604 19.4613 41.7482 19.4766 41.7391 19.4949C41.727 19.5223 41.7149 19.5497 41.6997 19.5711C41.6876 19.5863 41.6755 19.6016 41.6634 19.6168C41.6482 19.6381 41.633 19.6564 41.6149 19.6747C41.5997 19.6899 41.5845 19.7021 41.5694 19.7143C41.5512 19.7296 41.533 19.7479 41.5148 19.76C41.4997 19.7722 41.4815 19.7814 41.4633 19.7905C41.4451 19.8027 41.4239 19.8149 41.4027 19.8241C41.3845 19.8332 41.3633 19.8393 41.3451 19.8484C41.3238 19.8576 41.3026 19.8667 41.2814 19.8728C41.2602 19.8789 41.239 19.885 41.2177 19.8881C41.1965 19.8942 41.1723 19.9003 41.148 19.9033C41.1238 19.9063 41.0965 19.9094 41.0692 19.9124C41.048 19.9124 41.0268 19.9185 41.0025 19.9185C40.9752 19.9185 40.948 19.9185 40.9207 19.9185C40.8964 19.9185 40.8752 19.9185 40.854 19.9185C40.8267 19.9185 40.7994 19.9155 40.7691 19.9124C40.7479 19.9124 40.7236 19.9094 40.7024 19.9063C40.6721 19.9063 40.6448 19.8972 40.6175 19.8942C40.5933 19.8911 40.5721 19.8881 40.5478 19.885C40.5175 19.8789 40.4902 19.8728 40.4629 19.8667C40.4387 19.8606 40.4175 19.8576 40.3932 19.8515C40.3659 19.8454 40.3356 19.8362 40.3083 19.8301C40.2871 19.8241 40.2629 19.818 40.2386 19.8119C40.2113 19.8027 40.1871 19.7966 40.1598 19.7875C40.1355 19.7814 40.1143 19.7722 40.0901 19.7661C40.0658 19.757 40.0416 19.7509 40.0173 19.7418C39.9961 19.7326 39.9749 19.7265 39.9537 19.7174C39.9537 19.7174 39.9779 19.7143 39.9931 19.7113C39.9991 19.7113 40.0052 19.7082 40.0112 19.7082C40.0234 19.7082 40.0355 19.7052 40.0476 19.6991C40.0537 19.6991 40.0628 19.696 40.0688 19.693C40.081 19.6899 40.0931 19.6869 40.1083 19.6838C40.1173 19.6838 40.1234 19.6778 40.1325 19.6747C40.1446 19.6717 40.1568 19.6656 40.1689 19.6625C40.178 19.6595 40.1871 19.6564 40.1962 19.6534L40.2325 19.6381C40.2325 19.6381 40.2507 19.632 40.2629 19.6259C40.275 19.6198 40.2871 19.6168 40.2992 19.6107C40.3114 19.6046 40.3204 19.6016 40.3295 19.5955C40.3417 19.5894 40.3538 19.5833 40.3659 19.5802C40.378 19.5741 40.3871 19.5711 40.3962 19.565C40.4084 19.5589 40.4205 19.5528 40.4296 19.5467L40.4599 19.5284C40.4599 19.5284 40.4811 19.5162 40.4932 19.5101C40.5023 19.504 40.5145 19.4979 40.5236 19.4918C40.5326 19.4857 40.5417 19.4796 40.5539 19.4705C40.563 19.4644 40.5721 19.4583 40.5812 19.4492C40.5902 19.44 40.5993 19.4339 40.6084 19.4248C40.6175 19.4187 40.6266 19.4126 40.6327 19.4034C40.6418 19.3943 40.6509 19.3882 40.66 19.379C40.666 19.373 40.6751 19.3638 40.6842 19.3577C40.6933 19.3486 40.6994 19.3394 40.7054 19.3303C40.7115 19.3242 40.7176 19.315 40.7236 19.3059C40.7297 19.2968 40.7358 19.2876 40.7418 19.2785C40.7448 19.2693 40.7509 19.2632 40.757 19.2541C40.763 19.2419 40.7691 19.2327 40.7721 19.2206C40.7721 19.2145 40.7782 19.2053 40.7812 19.1992C40.7873 19.1809 40.7933 19.1626 40.7964 19.1444C40.7994 19.123 40.7994 19.0986 40.7994 19.0742C40.7994 19.0682 40.7994 19.0651 40.7994 19.0621C40.7994 19.0377 40.7964 19.0102 40.7934 18.9828V18.9676C40.7873 18.9371 40.7812 18.9097 40.7752 18.8761C40.7691 18.8396 40.76 18.806 40.7509 18.7725C40.7509 18.7695 40.7509 18.7664 40.7509 18.7603C40.7297 18.6841 40.7085 18.6018 40.6872 18.5195C40.6812 18.4921 40.6721 18.4647 40.666 18.4372C40.666 18.4281 40.66 18.4189 40.66 18.4098C40.6509 18.3763 40.6448 18.3458 40.6387 18.3123C40.6387 18.3031 40.6357 18.294 40.6327 18.2848C40.6266 18.2513 40.6206 18.2208 40.6145 18.1903C40.6145 18.1842 40.6145 18.1781 40.6115 18.172C40.6084 18.1416 40.6054 18.1141 40.6024 18.0867V18.0715C40.6024 18.041 40.6024 18.0136 40.6024 17.9861C40.6024 17.98 40.6024 17.9739 40.6024 17.9648C40.6024 17.9374 40.6084 17.913 40.6145 17.8886C40.6145 17.8825 40.6145 17.8794 40.6206 17.8733C40.6266 17.849 40.6357 17.8276 40.6478 17.8063C40.6478 17.8063 40.6478 17.8063 40.6478 17.8032C40.66 17.7819 40.6751 17.7636 40.6933 17.7453C40.6963 17.7423 40.6994 17.7392 40.7054 17.7362C40.7236 17.7209 40.7448 17.7057 40.7691 17.6935C40.7721 17.6935 40.7782 17.6905 40.7843 17.6874C40.8115 17.6752 40.8418 17.6661 40.8752 17.66C40.8752 17.66 40.8813 17.66 40.8843 17.66C40.9085 17.6569 40.9328 17.6539 40.957 17.6508C40.9661 17.6508 40.9783 17.6508 40.9874 17.6508C41.0086 17.6508 41.0328 17.6508 41.0571 17.6508C41.0692 17.6508 41.0813 17.6508 41.0935 17.6508C41.1177 17.6508 41.145 17.6569 41.1723 17.66C41.1844 17.66 41.1965 17.663 41.2117 17.6661C41.2511 17.6722 41.2935 17.6813 41.339 17.6935H41.3451C41.3451 17.6935 41.3451 17.6935 41.339 17.6935C41.2935 17.6813 41.2511 17.6691 41.2086 17.6569C41.1965 17.6539 41.1874 17.6508 41.1753 17.6447C41.142 17.6326 41.1086 17.6204 41.0783 17.6082C41.0722 17.6082 41.0662 17.6051 41.0631 17.6021C41.0298 17.5868 40.9995 17.5716 40.9722 17.5564C40.9661 17.5533 40.9601 17.5472 40.951 17.5442C40.9298 17.532 40.9085 17.5167 40.8934 17.5045C40.8904 17.5015 40.8843 17.4984 40.8782 17.4954C40.857 17.4771 40.8388 17.4619 40.8237 17.4436C40.8206 17.4405 40.8176 17.4375 40.8146 17.4314C40.8024 17.4161 40.7933 17.4009 40.7843 17.3857C40.7843 17.3826 40.7782 17.3765 40.7752 17.3735C40.7661 17.3552 40.757 17.3369 40.7539 17.3186V17.3125C40.7479 17.2973 40.7479 17.279 40.7479 17.2637C40.7479 17.2607 40.7479 17.2546 40.7479 17.2516C40.7479 17.215 40.76 17.1784 40.7752 17.1449L40.7812 17.1327C40.7812 17.1327 40.7994 17.1022 40.8085 17.09C40.8085 17.09 40.8115 17.087 40.8146 17.0839C40.8267 17.0687 40.8418 17.0534 40.857 17.0382L40.8661 17.0291C40.8661 17.0291 40.8934 17.0077 40.9085 16.9955C40.9116 16.9955 40.9176 16.9894 40.9207 16.9864C40.9389 16.9742 40.9601 16.965 40.9813 16.9529C40.9843 16.9529 40.9904 16.9498 40.9934 16.9468C41.0116 16.9376 41.0298 16.9315 41.048 16.9254C41.054 16.9254 41.0601 16.9224 41.0662 16.9193C41.0904 16.9132 41.1147 16.9071 41.1389 16.901C41.1389 16.901 41.142 16.901 41.145 16.901C41.1874 16.8919 41.2299 16.8888 41.2753 16.8888C41.2814 16.8888 41.2844 16.8888 41.2875 16.8888C41.3299 16.8888 41.3754 16.8949 41.4178 16.9041C41.4239 16.9041 41.4269 16.9041 41.433 16.9071C41.4784 16.9163 41.5239 16.9315 41.5694 16.9498C41.5724 16.9498 41.5785 16.9529 41.5815 16.9529C41.63 16.9742 41.6815 17.0016 41.73 17.0351C41.73 17.0351 41.73 17.0291 41.73 17.023L41.7361 17.0138C41.7361 17.0138 41.7422 17.0047 41.7452 16.9955C41.7452 16.9925 41.7513 16.9864 41.7543 16.9833C41.7604 16.9772 41.7634 16.9681 41.7695 16.962C41.7755 16.9559 41.7785 16.9498 41.7846 16.9437C41.7907 16.9346 41.7998 16.9254 41.8089 16.9163C41.8149 16.9102 41.821 16.901 41.8271 16.8949C41.8361 16.8858 41.8452 16.8736 41.8543 16.8645C41.8604 16.8553 41.8695 16.8492 41.8786 16.8401C41.8877 16.8279 41.8998 16.8187 41.9119 16.8065C41.921 16.7974 41.9271 16.7913 41.9362 16.7791C41.9483 16.7669 41.9604 16.7547 41.9726 16.7425C41.9817 16.7334 41.9907 16.7243 41.9998 16.7151C42.012 16.7029 42.0271 16.6907 42.0392 16.6755C42.0483 16.6663 42.0574 16.6572 42.0665 16.6481C42.0817 16.6359 42.0968 16.6206 42.112 16.6084C42.1211 16.5993 42.1302 16.5932 42.1393 16.584C42.1544 16.5688 42.1726 16.5566 42.1878 16.5444C42.1969 16.5383 42.206 16.5292 42.2151 16.5231C42.2363 16.5078 42.2575 16.4926 42.2787 16.4774C42.2848 16.4743 42.2878 16.4713 42.2909 16.4682C42.3151 16.4499 42.3424 16.4347 42.3697 16.4195C42.3757 16.4195 42.3818 16.4134 42.3848 16.4103C42.403 16.3981 42.4242 16.389 42.4424 16.3798C42.4515 16.3768 42.4606 16.3737 42.4697 16.3676C42.4849 16.3615 42.5 16.3554 42.5152 16.3494L42.5425 16.3433C42.5425 16.3433 42.5667 16.3372 42.5819 16.3341C42.6092 16.328 42.6334 16.328 42.6577 16.3341C42.5485 16.6237 42.4364 16.9498 42.4909 17.2759C42.4909 17.2759 42.6182 17.6539 43.3518 17.8429C43.4246 17.8612 43.4913 17.8764 43.5549 17.8855C43.564 17.8855 43.5762 17.8886 43.5853 17.8916C43.6459 17.9008 43.7005 17.9069 43.755 17.913C43.7671 17.913 43.7762 17.913 43.7884 17.913C43.8399 17.913 43.8914 17.916 43.9369 17.913C43.943 17.913 43.949 17.913 43.9551 17.913C44.0006 17.913 44.043 17.9038 44.0824 17.8977H44.0945C44.1521 17.8855 44.2037 17.8703 44.2522 17.852C44.2522 17.852 44.2582 17.852 44.2613 17.849C44.3037 17.8337 44.3461 17.8124 44.3825 17.791C44.3856 17.791 44.3886 17.788 44.3946 17.785C44.428 17.7636 44.4613 17.7423 44.4886 17.7209L44.4947 17.7148C44.525 17.6905 44.5492 17.6661 44.5735 17.6447C44.5977 17.6204 44.625 17.599 44.6553 17.5746C44.6644 17.5685 44.6766 17.5624 44.6887 17.5533C44.7129 17.5381 44.7342 17.5259 44.7584 17.5106C44.7705 17.5015 44.7857 17.4954 44.8008 17.4893C44.8251 17.4771 44.8494 17.468 44.8766 17.4558C44.8918 17.4497 44.91 17.4436 44.9251 17.4375C44.9524 17.4283 44.9827 17.4222 45.0131 17.4161C45.0282 17.4131 45.0464 17.407 45.0646 17.404C45.0767 17.404 45.0888 17.404 45.101 17.3979C45.1282 17.3948 45.1525 17.3948 45.1798 17.3918C45.1949 17.3918 45.2071 17.3918 45.2222 17.3918C45.2495 17.3918 45.2738 17.3948 45.301 17.3979C45.3132 17.3979 45.3253 17.3979 45.3374 17.4009C45.3738 17.407 45.4132 17.4192 45.4496 17.4314C45.4738 17.4405 45.4981 17.4466 45.5284 17.4466C45.5375 17.4466 45.5466 17.4466 45.5526 17.4466C45.5739 17.4466 45.5951 17.4466 45.6163 17.4405C45.6254 17.4405 45.6375 17.4405 45.6466 17.4375C45.6557 17.4375 45.6648 17.4344 45.6709 17.4314C45.686 17.4253 45.7012 17.4222 45.7163 17.4161C45.7254 17.4131 45.7315 17.41 45.7406 17.407C45.7557 17.4009 45.7739 17.3918 45.7891 17.3857C45.7951 17.3826 45.8042 17.3796 45.8103 17.3765C45.8558 17.3521 45.9012 17.3217 45.9407 17.2912C45.9467 17.2851 45.9528 17.279 45.9588 17.2759C45.971 17.2637 45.9831 17.2516 45.9952 17.2394C46.0013 17.2333 46.0073 17.2272 46.0134 17.2211C46.0255 17.2089 46.0346 17.1967 46.0437 17.1845C46.0498 17.1784 46.0528 17.1723 46.0589 17.1632C46.068 17.151 46.074 17.1357 46.0831 17.1235C46.0862 17.1174 46.0922 17.1113 46.0953 17.1053C46.1044 17.0839 46.1104 17.0656 46.1165 17.0443C46.1195 17.023 46.1225 17.0047 46.1195 16.9833C46.1195 16.9772 46.1195 16.9711 46.1195 16.965C46.1195 16.9498 46.1134 16.9376 46.1104 16.9254C46.1104 16.9163 46.1043 16.9102 46.1013 16.9041C46.0953 16.8919 46.0892 16.8797 46.0801 16.8675C46.074 16.8584 46.071 16.8523 46.0649 16.8462C46.0528 16.834 46.0407 16.8218 46.0255 16.8096C46.0195 16.8035 46.0134 16.7974 46.0043 16.7913C45.9801 16.773 45.9558 16.7578 45.9225 16.7425C45.3799 16.4743 45.6981 16.0415 45.2404 15.9653C44.6644 15.8708 44.0824 15.9897 43.5064 15.8434C42.9911 15.7123 42.2848 15.3923 41.6755 15.0661C41.2905 14.8589 41.1874 14.6516 40.957 14.4901C40.5478 14.2036 40.0234 14.3712 39.6172 14.6821C39.2504 14.9625 39.0927 15.3649 38.826 15.6971C38.7926 15.6148 38.7623 15.5051 38.7381 15.374C38.7017 15.2033 38.6714 15.0021 38.6471 14.7918C38.5168 14.3864 38.5562 13.9384 38.5592 13.5178L38.5804 13.5818ZM44.2734 14.356C44.2734 14.356 44.3431 14.9747 44.9858 15.185C45.0494 15.2064 45.1131 15.2246 45.1737 15.2429C45.1828 15.2429 45.1919 15.249 45.201 15.2521C45.2616 15.2704 45.3192 15.2856 45.3768 15.2978C45.3889 15.2978 45.398 15.3039 45.4102 15.3069C45.4678 15.3222 45.5254 15.3344 45.5799 15.3466C45.586 15.3466 45.5951 15.3466 45.6011 15.3496C45.6557 15.3588 45.7072 15.3709 45.7588 15.377C45.7648 15.377 45.7679 15.377 45.7739 15.377C45.8255 15.3862 45.874 15.3923 45.9225 15.3984C45.9316 15.3984 45.9407 15.3984 45.9467 15.4014C45.9922 15.4045 46.0346 15.4106 46.074 15.4136C46.0831 15.4136 46.0892 15.4136 46.0953 15.4136C46.1347 15.4136 46.1741 15.4167 46.2074 15.4136C46.2074 15.4136 46.2135 15.4136 46.2165 15.4136C46.2468 15.4136 46.2771 15.4106 46.3014 15.4045C46.3044 15.4045 46.3105 15.4045 46.3135 15.4045C46.3226 15.4045 46.3347 15.4014 46.3438 15.3984C46.3469 15.3984 46.3529 15.3984 46.359 15.3953C46.3711 15.3892 46.3832 15.3862 46.3923 15.3801C46.3923 15.3801 45.777 15.0479 45.4253 14.487C45.4041 14.4505 45.3798 14.42 45.3526 14.3925C45.3435 14.3834 45.3344 14.3773 45.3283 14.3682C45.3101 14.3499 45.2919 14.3346 45.2738 14.3194C45.2616 14.3102 45.2495 14.3042 45.2404 14.2981C45.2222 14.2859 45.204 14.2737 45.1858 14.2645C45.1737 14.2584 45.1586 14.2523 45.1464 14.2493C45.1282 14.2432 45.1101 14.234 45.0919 14.228C45.0767 14.2219 45.0646 14.2219 45.0494 14.2188C45.0312 14.2158 45.013 14.2097 44.9949 14.2097C44.9797 14.2097 44.9645 14.2097 44.9494 14.2066C44.9312 14.2066 44.913 14.2066 44.8948 14.2036C44.8797 14.2036 44.8645 14.2036 44.8494 14.2036C44.8312 14.2036 44.816 14.2036 44.7978 14.2036C44.7827 14.2036 44.7675 14.2066 44.7523 14.2097C44.7342 14.2097 44.719 14.2127 44.7038 14.2158C44.6887 14.2158 44.6735 14.2219 44.6584 14.2249C44.6463 14.228 44.6311 14.231 44.619 14.234C44.6038 14.2371 44.5887 14.2432 44.5735 14.2462C44.5614 14.2493 44.5492 14.2523 44.5371 14.2554C44.522 14.2615 44.5098 14.2645 44.4947 14.2676C44.4856 14.2706 44.4735 14.2737 44.4644 14.2767C44.4522 14.2798 44.4401 14.2859 44.428 14.2889C44.4189 14.292 44.4098 14.295 44.4007 14.3011C44.3886 14.3042 44.3795 14.3102 44.3704 14.3133C44.3643 14.3133 44.3552 14.3194 44.3492 14.3224C44.3401 14.3255 44.331 14.3316 44.3249 14.3346C44.3189 14.3346 44.3158 14.3407 44.3098 14.3407C44.3037 14.3438 44.3007 14.3468 44.2946 14.3468L44.2764 14.356H44.2734ZM32.3388 11.1099C32.5298 11.6616 32.2297 12.0304 31.7143 12.1949C32.2721 12.6796 33.0512 12.9661 33.9091 12.9295C35.5278 12.8625 36.7949 11.6737 36.7373 10.2717C36.7343 10.1619 36.7161 10.0553 36.6979 9.95163H36.704C36.6464 9.59807 36.5646 9.29632 36.4615 9.03114C36.413 8.90313 36.3584 8.7873 36.3008 8.67453C35.8643 7.81804 35.1822 7.36694 34.4335 6.69943C33.3816 5.76675 33.4058 4.91636 33.4058 4.91636C33.4058 4.91636 32.1114 5.72408 32.2478 6.79697C32.2751 7.00728 32.3115 7.18101 32.3509 7.33951C32.5874 8.10151 33.1057 8.50689 33.1997 8.57699L33.2149 8.58918L33.2482 8.61966C33.3664 8.75682 33.4271 8.84217 33.4452 8.91227C33.4543 8.95189 33.4483 8.98847 33.4331 9.02504L33.3877 9.12258L33.2725 9.12868C33.2149 9.12868 33.1573 9.11344 32.9269 8.93056C32.8693 8.88484 32.8087 8.83607 32.7298 8.76901C32.6662 8.7172 32.6086 8.66233 32.551 8.60442C32.1902 8.23866 32.0023 7.83024 31.9053 7.52239C31.7325 7.72356 31.4961 8.01921 31.293 8.3423C31.2445 8.47336 31.2081 8.59833 31.1869 8.72025C31.1626 8.84217 31.1505 8.95799 31.1505 9.06772C31.1444 9.77485 31.584 10.229 31.9356 10.5887C32.1205 10.7776 32.2812 10.9453 32.3388 11.1068V11.1099ZM36.2129 24.9294C36.2129 24.9294 34.4032 22.994 34.3729 22.2045C34.3274 21.0402 35.3884 20.0557 35.1368 18.8517C34.9822 18.108 34.2546 17.4192 33.5271 17.2241C33.0239 17.087 31.8083 17.218 32.6935 17.849C33.0451 18.0989 33.5786 18.0014 33.8605 18.358C34.2728 18.8792 33.9242 19.9521 33.6302 20.4245C32.5631 22.1283 33.0542 22.6556 33.2391 23.2226C33.3361 23.5274 33.6544 24.1583 33.5028 24.4875C33.321 24.8746 32.8238 24.9965 32.5904 24.5637C32.651 24.6764 32.3661 25.1275 32.6177 25.4811C32.8481 25.7981 33.4058 26.045 33.7939 25.9779C34.4123 25.8713 34.4183 25.2464 35.064 25.5024L35.6278 26.6454L36.2523 27.8555C36.3796 28.0749 36.51 28.2974 36.6464 28.52C36.7192 28.6388 36.7919 28.7546 36.8677 28.8705C36.8616 28.8857 36.8556 28.904 36.8525 28.9192C37.8984 30.5194 39.1534 31.7722 40.1931 32.1501C40.6206 32.3056 40.9934 32.3025 41.3026 32.1501C41.5451 31.6594 41.8604 31.4064 42.115 31.2814C42.5091 31.0833 42.9638 31.0772 43.3943 31.2601C43.8763 31.4643 44.0521 31.7935 44.1127 32.0343C44.2097 32.4122 44.0945 32.8481 43.7944 33.2321C43.4489 33.671 43.0214 33.7229 42.7729 33.5857C42.5728 33.476 42.4121 33.2108 42.5546 32.7932C42.6607 32.4793 42.8001 32.3056 42.979 32.2629C43.1124 32.2294 43.2336 32.2842 43.2973 32.3421L43.073 32.5982C43.0548 32.5982 42.9729 32.6256 42.8759 32.906C42.8123 33.0889 42.8365 33.2321 42.9365 33.287C43.0669 33.3602 43.3185 33.287 43.5277 33.0218C43.7611 32.7231 43.8551 32.397 43.7853 32.1227C43.7247 31.888 43.5459 31.699 43.2639 31.5801C42.9275 31.4369 42.5728 31.443 42.2666 31.5954C41.8634 31.7965 41.5664 32.2354 41.4087 32.8603C41.1389 33.921 41.3845 34.9116 42.0271 35.384C42.6273 35.826 43.4883 35.7559 44.3856 35.195C45.5648 34.4574 45.9861 32.7749 45.9861 31.4491C45.9861 29.9769 45.5163 28.7303 44.7887 28.2761C43.6095 27.5385 42.4242 27.8342 41.1632 29.1753C41.1116 29.2301 41.0177 29.2911 40.8661 29.285C40.3083 29.2606 39.0958 28.1969 37.9469 26.9807L37.9347 26.996C37.8559 26.9167 37.7771 26.8344 37.7013 26.7521C37.3467 26.3742 36.998 25.9749 36.6767 25.5665C36.604 25.475 36.2644 24.9843 36.222 24.9477L36.2129 24.9294ZM63.0923 35.1981C62.9832 34.9238 62.7982 34.7592 62.5739 34.7378C62.2647 34.7135 61.8464 34.9786 61.6312 35.64C61.3886 36.3746 61.7433 37.1 62.0889 37.8011C62.2677 38.1668 62.4375 38.5143 62.5284 38.8648C62.7073 38.7825 62.874 38.7459 63.0074 38.8252C62.9832 38.7094 62.9559 38.5966 62.9195 38.4838C62.9074 38.4442 62.8892 38.3863 62.868 38.3192C62.4466 37.0147 62.0828 35.6309 62.5618 35.2529C62.7225 35.1249 62.9225 35.1402 63.0953 35.1981H63.0923ZM33.5089 55.2416C33.612 55.1593 33.7666 54.7235 33.8515 54.4857C33.9515 54.2053 34.0455 53.9432 34.1516 53.7938C34.1849 53.7481 34.2364 53.7237 34.288 53.7237C34.3153 53.7237 34.3425 53.7298 34.3668 53.7451C34.4426 53.7847 34.4759 53.8731 34.4456 53.9554C33.9424 55.33 34.964 56.9637 36.2008 57.6922C36.5039 57.872 36.9677 57.9818 37.4133 57.9818C37.9105 57.9818 38.3076 57.8416 38.5046 57.5977C38.6562 57.4148 38.6987 57.1619 38.638 56.8479C38.5531 56.4303 38.1378 56.1499 37.8014 56.1499C37.5043 56.1499 37.3345 56.3511 37.3224 56.7169C37.3224 56.7839 37.2769 56.8449 37.2133 56.8693C37.1496 56.8936 37.0769 56.8784 37.0314 56.8266C36.3251 56.0798 36.3524 55.5647 36.3796 55.0161C36.3857 54.8698 36.3948 54.7174 36.3887 54.5589C35.8825 54.0864 35.4278 53.55 35.0428 52.9617C34.6184 52.3125 34.3122 51.6389 34.1152 50.9592C33.5998 51.8126 33.1573 52.9495 33.0997 53.87C33.0603 54.5101 33.1967 54.9734 33.5119 55.2477L33.5089 55.2416ZM33.7848 37.4445C33.9091 39.069 34.9913 40.1175 36.1159 41.1538C35.8037 41.166 35.4551 41.0014 35.1853 40.8612C34.9094 40.721 34.6821 40.404 34.3334 40.4802C34.1122 40.529 33.9181 40.8064 33.9576 41.035C34.0151 41.3672 34.485 41.7055 34.7336 41.8732C35.0004 42.05 35.1519 42.1201 35.4551 42.1566C35.7521 42.1902 36.0674 42.4005 36.3736 42.3578C35.6976 42.4492 34.5123 42.6717 34.8821 43.7233C35.1034 44.3542 35.5096 44.4091 35.9552 44.2841C36.8465 43.385 37.8893 42.815 38.9503 42.6748C40.2901 42.498 41.6421 42.8028 42.985 43.2874C42.4121 42.8577 41.8271 42.6352 41.1601 42.309C39.8021 41.6446 38.4076 41.0045 37.3436 39.892C36.219 38.7185 36.3554 37.5938 36.0462 36.079C35.6036 33.9027 33.6696 35.9083 33.7848 37.4445ZM31.8204 54.2632C30.2471 57.7989 24.539 56.281 22.0836 55.4367C24.5178 56.7717 27.2066 57.7044 30.0622 58.1494C33.1694 57.869 31.8204 54.2632 31.8204 54.2632ZM48.0202 42.1963C47.6473 42.1079 47.3654 42.6077 47.3533 42.9857C47.3078 44.659 48.7295 45.4759 49.5753 45.6679C50.0543 45.7746 50.7121 45.799 51.3608 45.6618C51.4032 45.6466 51.4457 45.6344 51.4851 45.6191C51.7791 45.4972 52.6309 44.7505 52.9098 43.705C52.9705 43.4795 52.9977 43.257 52.9977 43.0345C52.8159 43.5739 52.3308 43.9641 51.6124 44.1226C50.6908 44.3237 49.7602 43.5922 50.1876 42.6138C49.3358 42.6169 49.066 43.6136 49.5147 44.342C48.8084 44.2445 48.5658 43.7599 48.4628 43.0192C48.4203 42.7144 48.6022 42.3365 48.0172 42.1993L48.0202 42.1963ZM37.5194 62.4775C37.5679 62.4775 37.6195 62.4775 37.674 62.4806C37.6892 62.4806 37.7044 62.4806 37.7195 62.4806C37.7832 62.4806 37.8499 62.4806 37.9196 62.4806C37.9408 62.4806 37.9651 62.4806 37.9863 62.4806C38.0408 62.4806 38.0924 62.4806 38.15 62.4806H38.2106C38.3015 62.4806 38.3955 62.4806 38.4925 62.4806C38.5137 62.4806 38.535 62.4806 38.5562 62.4806C38.6532 62.4806 38.7502 62.4806 38.8502 62.4775C38.8714 62.4775 38.8957 62.4775 38.9169 62.4775C39.02 62.4775 39.1231 62.4714 39.2291 62.4684C39.2504 62.4684 39.2686 62.4684 39.2867 62.4684C39.3989 62.4654 39.5111 62.4593 39.6263 62.4562C39.6384 62.4562 39.6505 62.4562 39.6596 62.4562C39.7748 62.4501 39.89 62.444 40.0082 62.4379C40.0203 62.4379 40.0325 62.4379 40.0446 62.4379C40.1658 62.4318 40.2871 62.4227 40.4114 62.4166C40.4296 62.4166 40.4508 62.4166 40.472 62.4135C40.5933 62.4044 40.7145 62.3952 40.8358 62.3861C40.86 62.3861 40.8813 62.3831 40.9055 62.38C41.0268 62.3709 41.1541 62.3587 41.2784 62.3465C41.2996 62.3465 41.3238 62.3434 41.3451 62.3404C41.4724 62.3282 41.6027 62.316 41.7331 62.3008C41.7482 62.3008 41.7634 62.2977 41.7816 62.2947C41.918 62.2794 42.0574 62.2642 42.1969 62.2459C42.3363 62.2276 42.4758 62.2093 42.6152 62.191C42.6304 62.191 42.6455 62.188 42.6607 62.1849C42.7941 62.1666 42.9275 62.1453 43.0608 62.127C43.0821 62.127 43.1033 62.1209 43.1245 62.1179C43.2548 62.0965 43.3882 62.0752 43.5186 62.0539C43.5398 62.0508 43.561 62.0447 43.5822 62.0417C43.7156 62.0173 43.849 61.9929 43.9793 61.9685C43.9975 61.9655 44.0127 61.9624 44.0309 61.9594C44.1673 61.932 44.3037 61.9045 44.4401 61.874C44.4462 61.874 44.4553 61.874 44.4613 61.8679C44.6008 61.8375 44.7372 61.807 44.8736 61.7735C44.8827 61.7735 44.8888 61.7704 44.8948 61.7674C45.0282 61.7338 45.1616 61.7003 45.2919 61.6668C45.3071 61.6607 45.3253 61.6576 45.3404 61.6546C45.4678 61.6211 45.592 61.5845 45.7163 61.5479C45.7345 61.5418 45.7557 61.5357 45.7739 61.5296C47.0198 61.1547 48.1263 60.6396 48.8872 59.9416C48.8932 59.9386 48.8963 59.9325 48.9023 59.9294C48.9781 59.8593 49.0509 59.7831 49.1206 59.71C49.1297 59.7008 49.1388 59.6886 49.1479 59.6795C49.2146 59.6063 49.2752 59.5301 49.3358 59.4539C49.3449 59.4417 49.354 59.4296 49.3661 59.4143C49.4237 59.3381 49.4753 59.2589 49.5238 59.1766C49.5329 59.1644 49.5389 59.1522 49.548 59.137C49.5965 59.0547 49.642 58.9693 49.6814 58.884C49.6875 58.8748 49.6905 58.8626 49.6935 58.8535C49.736 58.762 49.7723 58.6676 49.8027 58.5731C49.8693 58.3689 50.0815 58.4207 49.8875 58.2043C49.6511 57.9361 49.2085 58.1403 49.0115 57.9543C48.8235 57.7776 48.9235 57.2137 48.7113 56.9485C48.4325 56.601 48.0263 56.3938 47.5655 56.3328C47.1199 56.2718 46.6591 56.2444 46.1923 56.2444C45.7891 56.2444 45.3798 56.2658 44.9736 56.3084L44.913 56.3145C44.8615 56.3206 44.813 56.3237 44.7614 56.3298C44.6553 56.3419 44.5462 56.3572 44.4401 56.3724C44.4037 56.3785 44.3704 56.3816 44.337 56.3877C44.1976 56.409 44.0582 56.4303 43.9187 56.4578C43.8823 56.4639 43.846 56.473 43.8096 56.4791C43.7065 56.5004 43.6034 56.5187 43.5004 56.5401C43.4519 56.5492 43.4034 56.5614 43.3549 56.5736C43.2639 56.5949 43.173 56.6163 43.0821 56.6376C43.0335 56.6498 42.985 56.662 42.9396 56.6742C42.8426 56.6986 42.7486 56.726 42.6516 56.7534C42.6152 56.7626 42.5758 56.7748 42.5394 56.7839C42.4091 56.8235 42.2787 56.8632 42.1544 56.9058C42.1332 56.9119 42.112 56.9211 42.0908 56.9272C41.9847 56.9637 41.8816 57.0003 41.7786 57.0369C41.7361 57.0521 41.6967 57.0674 41.6573 57.0826C41.5754 57.1131 41.4936 57.1466 41.4118 57.1801C41.3693 57.1984 41.3269 57.2137 41.2875 57.232C41.2056 57.2655 41.1268 57.3021 41.048 57.3386C41.0146 57.3539 40.9783 57.3722 40.9419 57.3874C40.8449 57.4331 40.7509 57.4819 40.66 57.5276C40.6478 57.5337 40.6327 57.5429 40.6175 57.549C40.5781 57.5703 40.5387 57.5916 40.5054 57.616C40.4932 57.6252 40.4841 57.6343 40.472 57.6404C40.4478 57.6556 40.4265 57.6739 40.4053 57.6892C40.3932 57.6983 40.3811 57.7105 40.369 57.7227C40.3508 57.7379 40.3326 57.7562 40.3174 57.7715C40.3053 57.7836 40.2962 57.7958 40.2841 57.808C40.2689 57.8263 40.2538 57.8416 40.2416 57.8568C40.2325 57.869 40.2234 57.8842 40.2144 57.8964C40.2022 57.9147 40.1901 57.93 40.181 57.9482C40.1719 57.9635 40.1658 57.9787 40.1598 57.9909C40.1568 57.997 40.1537 58.0031 40.1507 58.0122C40.1446 58.0244 40.1386 58.0366 40.1325 58.0458C40.1264 58.061 40.1204 58.0763 40.1143 58.0884C40.1083 58.1067 40.0992 58.125 40.0931 58.1464C40.087 58.1616 40.084 58.1768 40.081 58.1921C40.0749 58.2134 40.0688 58.2317 40.0658 58.25C40.0658 58.2652 40.0597 58.2835 40.0567 58.2988C40.0567 58.3201 40.0507 58.3384 40.0476 58.3597C40.0476 58.375 40.0476 58.3932 40.0446 58.4085C40.0446 58.4298 40.0416 58.4481 40.0416 58.4694C40.0416 58.4847 40.0416 58.503 40.0416 58.5182C40.0416 58.5396 40.0416 58.5609 40.0416 58.5792C40.0416 58.5944 40.0416 58.6127 40.0476 58.6279C40.0476 58.6493 40.0537 58.6706 40.0537 58.6919C40.0537 58.7072 40.0598 58.7255 40.0628 58.7407C40.0658 58.7621 40.0719 58.7834 40.0749 58.8047C40.0779 58.82 40.084 58.8382 40.087 58.8535C40.0931 58.8748 40.0992 58.8962 40.1052 58.9175C40.1113 58.9327 40.1173 58.951 40.1234 58.9663C40.1295 58.9876 40.1386 59.0089 40.1446 59.0303C40.1507 59.0455 40.1568 59.0608 40.1658 59.079C40.1749 59.1004 40.184 59.1217 40.1931 59.143C40.2022 59.1583 40.2083 59.1735 40.2174 59.1888C40.2265 59.2101 40.2386 59.2284 40.2507 59.2497C40.2598 59.265 40.2659 59.2802 40.275 59.2954C40.2871 59.3168 40.2992 59.3351 40.3114 59.3564C40.3204 59.3717 40.3295 59.3869 40.3417 59.4021C40.3538 59.4204 40.3659 59.4418 40.3811 59.46C40.3932 59.4753 40.4023 59.4905 40.4144 59.5027C40.4296 59.521 40.4417 59.5393 40.4569 59.5576C40.469 59.5728 40.4811 59.585 40.4902 59.6002C40.5054 59.6185 40.5205 59.6368 40.5387 59.6521C40.5508 59.6643 40.563 59.6764 40.5751 59.6917C40.5902 59.7069 40.6084 59.7252 40.6236 59.7405C40.6357 59.7526 40.6509 59.7648 40.663 59.777C40.6812 59.7923 40.6963 59.8075 40.7145 59.8228C40.7297 59.8349 40.7418 59.8471 40.757 59.8563C40.7752 59.8715 40.7934 59.8837 40.8115 59.8989C40.8267 59.9081 40.8418 59.9203 40.857 59.9294C40.8752 59.9416 40.8934 59.9538 40.9146 59.966C40.9298 59.9752 40.948 59.9843 40.9631 59.9965C40.9813 60.0056 41.0025 60.0178 41.0207 60.03C41.0359 60.0392 41.054 60.0483 41.0692 60.0544C41.0904 60.0635 41.1086 60.0727 41.1298 60.0818C41.148 60.091 41.1662 60.0971 41.1814 60.1032C41.2026 60.1123 41.2238 60.1184 41.245 60.1245C41.2632 60.1306 41.2814 60.1367 41.2996 60.1428C41.3208 60.1489 41.342 60.155 41.3633 60.158C41.3814 60.1611 41.3996 60.1672 41.4208 60.1702C41.4421 60.1733 41.4633 60.1794 41.4845 60.1824C41.5027 60.1855 41.5239 60.1885 41.5421 60.1916C41.5633 60.1916 41.5845 60.1946 41.6088 60.1977C41.627 60.1977 41.6482 60.1977 41.6664 60.2007C41.6997 60.2007 41.7361 60.2007 41.7695 60.2007C43.6156 60.0879 45.4102 59.1827 46.168 58.7499C46.3711 58.5548 46.5833 58.2744 46.4317 58.0549C46.1195 57.5977 44.5553 57.4697 42.8183 58.3109C42.6577 58.3871 42.5758 58.5091 42.6122 58.6096C42.6607 58.7499 42.9517 58.9053 43.5428 58.756C43.7914 58.695 43.9521 58.6432 44.0551 58.6005C44.043 58.6005 44.0309 58.6005 44.0157 58.5975L44.046 58.2591C44.1673 58.2713 44.5371 58.3018 44.5583 58.5517C44.5735 58.7681 44.3219 58.9144 43.6247 59.0882C43.4276 59.137 43.2548 59.1583 43.1033 59.1583C42.6304 59.1583 42.3727 58.948 42.2939 58.7255C42.212 58.4969 42.2969 58.186 42.6728 58.0031C44.5007 57.1161 46.268 57.2167 46.7106 57.8598C46.841 58.0488 46.9744 58.4481 46.4014 58.9937L46.3681 58.9602C45.2192 60.1946 38.9533 61.4778 35.9371 61.8923C35.8734 61.9015 35.8128 61.9045 35.7521 61.9076C35.737 61.9076 35.7218 61.9076 35.7067 61.9076C35.6915 61.9076 35.6764 61.9076 35.6612 61.9076C35.6339 61.9076 35.6066 61.9076 35.5824 61.9045C35.5551 61.9045 35.5278 61.9045 35.5005 61.9015C35.4611 61.9015 35.4217 61.8954 35.3793 61.8893C35.355 61.8893 35.3277 61.8832 35.3035 61.8801C35.2611 61.874 35.2156 61.8649 35.1701 61.8558C35.1489 61.8527 35.1277 61.8497 35.1064 61.8436C34.9761 61.8131 34.8458 61.7765 34.7184 61.7338C34.6972 61.7247 34.676 61.7186 34.6548 61.7095C34.6123 61.6942 34.5669 61.679 34.5244 61.6637L34.4486 61.6333C34.4092 61.618 34.3698 61.6028 34.3304 61.5875C34.3031 61.5753 34.2759 61.5662 34.2486 61.554C34.2092 61.5388 34.1697 61.5205 34.1303 61.5052C34.1 61.493 34.0697 61.4809 34.0424 61.4687C33.9879 61.4473 33.9363 61.4229 33.8818 61.4016C33.8454 61.3864 33.809 61.3711 33.7726 61.3559C33.7423 61.3437 33.709 61.3315 33.6787 61.3163C33.6453 61.301 33.6089 61.2888 33.5726 61.2736C33.5423 61.2614 33.5119 61.2492 33.4816 61.237C33.4452 61.2248 33.4089 61.2096 33.3755 61.1974C33.3452 61.1852 33.3179 61.1761 33.2876 61.1639C33.2512 61.1517 33.2118 61.1395 33.1755 61.1273C33.1482 61.1181 33.1209 61.109 33.0966 61.0999C33.0542 61.0877 33.0118 61.0755 32.9693 61.0633C32.9481 61.0572 32.9238 61.0511 32.9026 61.045C32.8359 61.0298 32.7723 61.0145 32.7086 61.0023C32.6844 60.9993 32.6571 60.9932 32.6298 60.9901C32.6177 60.9901 32.6056 60.9871 32.5965 60.984C32.5783 60.984 32.5601 60.9779 32.5419 60.9749C32.5298 60.9749 32.5146 60.9718 32.4995 60.9688C32.4813 60.9688 32.4631 60.9627 32.4419 60.9627C32.4267 60.9627 32.4115 60.9596 32.3964 60.9566C32.3752 60.9566 32.3539 60.9536 32.3327 60.9505C32.3176 60.9505 32.2994 60.9505 32.2842 60.9475C32.263 60.9475 32.2418 60.9444 32.2206 60.9414C32.2024 60.9414 32.1842 60.9414 32.169 60.9383C32.1478 60.9383 32.1236 60.9383 32.1023 60.9353C32.0842 60.9353 32.066 60.9353 32.0508 60.9353H31.9811C31.9629 60.9322 31.9447 60.9322 31.9265 60.9322C31.9023 60.9322 31.878 60.9322 31.8568 60.9322H31.7992C31.781 60.9322 31.7598 60.9322 31.7416 60.9322C31.7204 60.9322 31.7022 60.9322 31.681 60.9322C31.6628 60.9322 31.6446 60.9322 31.6264 60.9322C31.6082 60.9322 31.587 60.9322 31.5688 60.9353C31.5506 60.9353 31.5324 60.9353 31.5142 60.9383C31.4961 60.9383 31.4779 60.9414 31.4597 60.9444C31.4415 60.9444 31.4263 60.9475 31.4112 60.9505C31.393 60.9505 31.3748 60.9566 31.3566 60.9596C31.3415 60.9596 31.3263 60.9657 31.3111 60.9688C31.293 60.9688 31.2778 60.9749 31.2596 60.9779C31.2475 60.981 31.2323 60.984 31.2202 60.9871C31.202 60.9901 31.1838 60.9962 31.1687 61.0023C31.1596 61.0054 31.1475 61.0084 31.1384 61.0115C31.1141 61.0206 31.0899 61.0328 31.0686 61.0419C30.7261 61.2187 30.1956 61.6942 30.1532 62.0112C30.0895 62.4989 30.4199 62.9012 30.811 63.2853C30.8231 63.2975 30.8382 63.3096 30.8504 63.3218C30.8777 63.3462 30.9019 63.3706 30.9292 63.395C30.9413 63.4072 30.9565 63.4163 30.9686 63.4285C30.9989 63.4529 31.0292 63.4773 31.0595 63.4986C31.0747 63.5108 31.0929 63.523 31.1111 63.5352C31.1414 63.5565 31.1717 63.5748 31.202 63.5931C31.2202 63.6053 31.2384 63.6144 31.2596 63.6266C31.293 63.6449 31.3233 63.6602 31.3566 63.6754C31.3748 63.6845 31.396 63.6937 31.4142 63.7028C31.4506 63.7181 31.487 63.7303 31.5233 63.7425C31.5415 63.7486 31.5597 63.7547 31.5779 63.7607C31.6264 63.776 31.6749 63.7851 31.7264 63.7943C31.7325 63.7943 31.7386 63.7943 31.7446 63.7973C31.8022 63.8065 31.8598 63.8095 31.9174 63.8095C31.9235 63.8095 31.9295 63.8095 31.9356 63.8095C31.9932 63.8095 32.0508 63.8004 32.1084 63.7912C32.4024 63.7303 32.645 63.5535 32.3843 63.3645C32.169 63.2091 32.069 63.2761 31.8871 63.0384C31.8629 63.0048 31.8447 62.9774 31.8265 62.9469C31.8204 62.9378 31.8174 62.9317 31.8113 62.9226C31.7992 62.9012 31.7901 62.8829 31.781 62.8616C31.778 62.8524 31.7719 62.8464 31.7719 62.8372C31.7628 62.8159 31.7568 62.7945 31.7537 62.7732C31.7537 62.7701 31.7537 62.7641 31.7537 62.761C31.7507 62.7366 31.7477 62.7153 31.7507 62.694C31.7507 62.6879 31.7507 62.6818 31.7507 62.6757C31.7507 62.6604 31.7568 62.6482 31.7598 62.633C31.7598 62.6269 31.7628 62.6208 31.7659 62.6147C31.7719 62.5995 31.778 62.5873 31.7871 62.5751C31.7871 62.572 31.7901 62.5659 31.7962 62.5629C31.8083 62.5476 31.8235 62.5324 31.8386 62.5202C31.8416 62.5141 31.8477 62.5111 31.8538 62.508C31.8659 62.4989 31.878 62.4897 31.8932 62.4806C31.8992 62.4775 31.9083 62.4714 31.9144 62.4684C31.9295 62.4593 31.9447 62.4532 31.9629 62.444C31.969 62.444 31.9781 62.4379 31.9841 62.4349C32.0084 62.4257 32.0326 62.4166 32.0599 62.4074C32.066 62.4074 32.0751 62.4044 32.0811 62.4013C32.1023 62.3952 32.1236 62.3891 32.1478 62.3861C32.1569 62.3861 32.169 62.38 32.1812 62.38C32.2024 62.377 32.2236 62.3709 32.2478 62.3678C32.2569 62.3678 32.2691 62.3648 32.2782 62.3617C32.3115 62.3556 32.3418 62.3526 32.3752 62.3495C32.3812 62.3495 32.3903 62.3495 32.3934 62.3495C32.4206 62.3495 32.451 62.3434 32.4782 62.3434C32.4904 62.3434 32.5055 62.3434 32.5176 62.3434C32.5419 62.3434 32.5661 62.3434 32.5904 62.3434C32.6025 62.3434 32.6146 62.3434 32.6298 62.3434C32.6601 62.3434 32.6935 62.3434 32.7238 62.3434C32.7298 62.3434 32.7329 62.3434 32.7389 62.3434C32.7753 62.3434 32.8147 62.3434 32.8511 62.3434C32.8632 62.3434 32.8784 62.3434 32.8905 62.3434C32.9178 62.3434 32.9451 62.3434 32.9754 62.3434C32.9875 62.3434 32.9996 62.3434 33.0118 62.3434C33.0481 62.3434 33.0875 62.3495 33.1239 62.3495C33.133 62.3495 33.1391 62.3495 33.1482 62.3495C33.1785 62.3495 33.2088 62.3526 33.2361 62.3556C33.2482 62.3556 33.2603 62.3556 33.2725 62.3587C33.3028 62.3587 33.3301 62.3648 33.3604 62.3678C33.3664 62.3678 33.3755 62.3678 33.3816 62.3678C33.4149 62.3678 33.4483 62.3739 33.4816 62.377C33.4907 62.377 33.4968 62.377 33.5059 62.377C33.5301 62.377 33.5544 62.3831 33.5786 62.3861C33.5877 62.3861 33.5938 62.3861 33.6029 62.3892C33.6332 62.3922 33.6605 62.3983 33.6878 62.4013C33.7454 62.4105 33.7999 62.4227 33.8515 62.4349C33.8696 62.441 33.8848 62.4471 33.903 62.4501C33.9394 62.4623 33.9727 62.4745 34.0061 62.4867C34.0242 62.4928 34.0424 62.5019 34.0606 62.5111C34.094 62.5263 34.1243 62.5385 34.1546 62.5537C34.1728 62.5629 34.191 62.572 34.2061 62.5812C34.2395 62.5964 34.2698 62.6147 34.3001 62.633C34.3153 62.6421 34.3304 62.6513 34.3456 62.6604C34.385 62.6848 34.4244 62.7092 34.4638 62.7366C34.4759 62.7458 34.488 62.7519 34.5002 62.761C34.5365 62.7854 34.5729 62.8098 34.6123 62.8372C34.6517 62.8677 34.6942 62.8951 34.7366 62.9226C34.7518 62.9317 34.7639 62.9408 34.7791 62.95C34.8094 62.9713 34.8397 62.9927 34.873 63.0109C34.8882 63.0201 34.9064 63.0323 34.9215 63.0414C34.9518 63.0628 34.9852 63.081 35.0185 63.0993C35.0337 63.1085 35.0458 63.1146 35.061 63.1237C35.1065 63.1481 35.1519 63.1725 35.2004 63.1908H35.2065C35.255 63.2152 35.3065 63.2334 35.3581 63.2517C35.3732 63.2548 35.3884 63.2609 35.4035 63.2639C35.4399 63.2731 35.4793 63.2853 35.5187 63.2914C35.5369 63.2944 35.5581 63.3005 35.5793 63.3005C35.6157 63.3066 35.6521 63.3096 35.6915 63.3127C35.7127 63.3127 35.737 63.3127 35.7582 63.3157C35.8128 63.3157 35.8673 63.3157 35.928 63.3127H35.934C35.9977 63.3066 36.0613 63.2975 36.128 63.2822C36.1432 63.2792 36.1614 63.2761 36.1765 63.2731C36.2463 63.2578 36.316 63.2395 36.3887 63.2121C36.4251 63.1999 36.4645 63.1877 36.5039 63.1755C36.5161 63.1725 36.5282 63.1694 36.5433 63.1664C36.5736 63.1572 36.607 63.1481 36.6403 63.142C36.6555 63.139 36.6706 63.1359 36.6858 63.1329C36.7282 63.1237 36.7677 63.1176 36.8101 63.1115C36.8162 63.1115 36.8222 63.1115 36.8313 63.1085C36.8798 63.1024 36.9253 63.0993 36.9738 63.0993C36.9768 63.0993 36.9829 63.0993 36.9889 63.0993C37.0162 63.0993 37.0465 63.0993 37.0738 63.1024C37.0769 63.1024 37.0829 63.1024 37.086 63.1024C37.1163 63.1024 37.1466 63.1115 37.1739 63.1176C37.183 63.1176 37.189 63.1207 37.1981 63.1237C37.2284 63.1329 37.2587 63.1451 37.286 63.1572C37.5346 63.2914 37.3527 63.5443 37.571 63.6571C37.6043 63.6754 37.6377 63.6876 37.671 63.6998C37.6801 63.6998 37.6862 63.7059 37.6953 63.7089C37.7256 63.7181 37.7559 63.7242 37.7832 63.7303C37.7832 63.7303 37.8105 63.7303 37.8226 63.7303C37.8226 63.7303 37.8165 63.7303 37.8135 63.7303C37.8226 63.7303 37.8317 63.7303 37.8408 63.7303C37.8832 63.7303 37.9226 63.7211 37.956 63.7089C37.9711 63.7028 37.9863 63.6967 37.9984 63.6876C38.0045 63.6845 38.0105 63.6815 38.0166 63.6784C38.0348 63.6663 38.053 63.6541 38.0712 63.6358C38.0863 63.6205 38.1015 63.6022 38.1166 63.584C38.1197 63.5779 38.1257 63.5718 38.1287 63.5657C38.1378 63.5535 38.1469 63.5382 38.153 63.5261C38.1591 63.5169 38.1621 63.5108 38.1651 63.5017C38.1712 63.4864 38.1803 63.4742 38.1863 63.459C38.1894 63.4498 38.1924 63.4438 38.1954 63.4346C38.2015 63.4194 38.2076 63.4011 38.2106 63.3858C38.2106 63.3797 38.2167 63.3736 38.2167 63.3645C38.2288 63.3188 38.2379 63.27 38.2439 63.2243C38.2439 63.2182 38.2439 63.2121 38.2439 63.206C38.2439 63.1908 38.2439 63.1725 38.2439 63.1572C38.2439 63.1511 38.2439 63.142 38.2439 63.1359C38.2439 63.1207 38.2439 63.1085 38.2439 63.0932C38.2439 63.0871 38.2439 63.081 38.2439 63.0749C38.2439 63.0628 38.2439 63.0506 38.2409 63.0384C38.2409 63.0323 38.2409 63.0292 38.2409 63.0231C38.2409 63.0079 38.2349 62.9927 38.2318 62.9805C38.153 62.7366 37.6043 62.4654 37.2921 62.4532C37.3497 62.4532 37.4103 62.4562 37.4709 62.4593C37.4891 62.4593 37.5103 62.4593 37.5285 62.4593L37.5194 62.4775ZM56.6688 14.0115L56.6748 13.9902C56.6869 13.9293 56.693 13.8713 56.6991 13.8104V13.8012C56.7597 12.835 55.8382 11.7469 54.8651 11.7469C54.8075 11.7469 54.7499 11.753 54.6953 11.7591C54.6832 11.7591 54.6711 11.7621 54.6589 11.7652C54.6044 11.7743 54.5468 11.7865 54.4922 11.8018C53.892 11.9846 53.3403 13.2404 54.2982 13.2435C54.2406 12.9783 54.3285 12.835 54.4801 12.7863C54.4892 12.7832 54.4983 12.7802 54.5074 12.7771C54.5286 12.771 54.5528 12.768 54.5771 12.768C54.5862 12.768 54.5953 12.768 54.6044 12.768C54.6074 12.768 54.6135 12.768 54.6165 12.768C54.6438 12.768 54.6741 12.771 54.7044 12.7741H54.7256C54.762 12.7832 54.7954 12.7924 54.8317 12.8015H54.8348C54.8742 12.8137 54.9105 12.8289 54.9469 12.8442C54.956 12.8442 54.9621 12.8503 54.9681 12.8533C55.0045 12.8686 55.0409 12.8899 55.0773 12.9112C55.0833 12.9143 55.0894 12.9173 55.0955 12.9204C55.1288 12.9417 55.1622 12.963 55.1955 12.9874C55.1985 12.9905 55.2046 12.9935 55.2076 12.9966C55.241 13.024 55.2743 13.0514 55.3046 13.0819C55.3107 13.088 55.3168 13.0941 55.3228 13.1002C55.3531 13.1307 55.3834 13.1642 55.4107 13.1977C55.4107 13.2008 55.4168 13.2038 55.4198 13.2099C55.4441 13.2435 55.4653 13.277 55.4865 13.3105C55.4895 13.3166 55.4956 13.3227 55.4986 13.3318C55.5168 13.3684 55.535 13.405 55.5502 13.4446C55.5502 13.4538 55.5562 13.4599 55.5593 13.469C55.5714 13.5117 55.5835 13.5513 55.5896 13.597C55.6623 14.1731 55.0288 14.6486 55.0318 15.2338C55.0379 15.9318 55.7593 16.1421 55.9503 16.7517H55.9594C56.0534 17.1053 55.9867 17.4832 55.7745 17.785C55.5623 18.0837 55.241 18.2696 54.8833 18.297C54.5619 18.3214 54.4528 18.3001 54.3467 18.1141C54.3255 18.0745 54.2982 18.0288 54.2376 17.9678C54.1527 17.8855 54.1194 17.9038 54.1042 17.913C53.9708 17.9953 53.8829 18.3671 53.9314 18.5226C53.989 18.7024 54.089 18.8243 54.2376 18.8944C54.6347 19.0864 55.2592 18.8761 55.441 18.8091L55.5017 18.9676C55.7836 19.4613 55.5199 20.3056 55.4441 20.8116C57.5418 24.3777 58.7907 28.523 58.912 32.9883C58.9181 33.2047 58.9211 33.4211 58.9211 33.6345C58.9302 33.604 58.9393 33.5766 58.9514 33.5491C58.9605 33.7259 58.9757 33.9027 58.9999 34.0856C59.1879 35.4175 59.8699 36.7983 60.6005 37.8955C60.7581 37.8041 60.9491 37.7767 61.1613 37.8163C61.328 37.8498 61.5281 37.9352 61.7251 38.054C61.0522 36.4752 60.3216 34.4422 60.749 32.8237C60.9036 32.2415 61.4826 30.3518 62.483 30.5255C62.8073 30.5804 63.0347 30.7998 63.1014 31.126C63.1802 31.4917 63.0377 31.9063 62.7679 32.0891C62.5648 32.2263 62.3162 32.2172 62.0859 32.0617C62.0707 32.2537 62.1798 32.7445 62.3072 32.909C62.5315 33.1986 63.0377 33.2718 63.3469 33.1529C63.7501 33.0005 64.0926 32.5829 64.3079 31.9733C64.6292 31.0742 64.608 29.9403 64.2624 29.3368C64.0169 28.907 63.5652 28.6297 62.9922 28.5565C62.2101 28.4529 61.3341 28.7394 60.8127 29.2637C60.4671 29.6111 60.1731 29.9616 59.9245 30.3183C59.9033 30.1598 59.879 30.0013 59.8548 29.8428C59.3546 26.6637 58.3512 23.4877 56.884 20.7964C56.784 20.6135 56.6809 20.4336 56.5748 20.2538C56.7627 19.1291 57.7267 18.3945 57.5812 17.1967C57.5115 16.6084 57.0871 16.3006 56.8506 15.7702C56.5081 14.996 56.3292 14.9198 56.6112 14.2005C56.6354 14.1396 56.6506 14.0786 56.6657 14.0176L56.6688 14.0115ZM58.7725 47.1431C59.012 47.1188 59.2849 47.0883 59.5941 47.0365C61.9676 46.6341 62.9559 43.2996 63.0226 41.2941C63.0317 41.0228 62.9892 40.7576 62.9468 40.4802C62.9043 40.2029 62.8589 39.9133 62.8649 39.6146C62.874 39.2336 62.8407 39.1361 62.8225 39.1147C62.8164 39.1178 62.7376 39.1269 62.4648 39.2793L62.2405 39.4043L62.2132 39.1483C62.1707 38.752 61.5342 38.243 61.0885 38.1516C60.9855 38.1302 60.843 38.1241 60.7308 38.2095C60.6338 38.2826 60.5732 38.4137 60.555 38.5905L60.4883 39.2946L60.2306 38.6362C60.0609 38.1973 59.6638 37.8102 59.1939 37.987C58.9817 38.0693 58.8059 38.2735 58.7695 38.4869C58.7453 38.6332 58.7847 38.752 58.8938 38.8465L59.4 39.2854L58.7453 39.1452C58.4876 39.0904 58.2208 39.133 58.0511 39.258C57.9268 39.3494 57.8601 39.4775 57.8419 39.6451C57.8237 39.8463 57.8692 39.9651 58.1723 40.1084L58.7453 40.3766L58.1147 40.4345C57.8934 40.4559 57.657 40.6022 57.4872 40.8308C57.3448 41.0197 57.1265 41.4312 57.2508 42.053C57.2963 42.2907 57.4205 42.6108 57.5812 42.7418C57.5812 42.6382 57.5721 42.5407 57.563 42.4523C57.5388 42.1719 57.5054 41.7878 57.9935 41.733L58.2117 41.7086L58.1784 41.928C58.0723 42.5986 58.2026 43.1747 58.4906 43.3301C58.8938 43.5465 59.9184 43.6776 60.3125 43.2387C60.5156 43.0101 60.7157 42.6413 60.7672 42.3304C60.5823 42.4218 60.3125 42.4188 60.0882 42.373C59.9396 42.3426 59.591 42.2481 59.5304 42.0012C59.4425 41.6232 59.5637 41.2148 59.8487 40.9344C60.1064 40.6814 60.4489 40.5869 60.7915 40.6784C61.2068 40.7759 61.5129 41.0167 61.6736 41.3764C61.9282 41.9372 61.813 42.7754 61.3705 43.6166C60.8036 44.7017 60.5732 44.8632 59.494 44.9547C59.4091 44.9608 59.3182 44.9669 59.2242 44.973C58.1784 45.0431 56.596 45.1467 55.1864 47.1035C54.4043 48.2953 54.371 49.3438 54.3406 50.3557C54.3012 51.6176 54.2649 52.8124 52.7734 54.0468L52.5855 54.1687C50.9091 55.2599 49.1721 55.5099 47.4048 54.9216C46.9168 55.2843 46.3772 55.6226 45.8255 55.9091C45.9497 55.9061 46.071 55.903 46.1953 55.903C46.6864 55.903 47.1653 55.9335 47.614 55.9945C48.1809 56.0707 48.6538 56.3298 48.9781 56.7351C49.1448 56.9455 49.1812 57.2137 49.2115 57.4514C49.2206 57.5276 49.2358 57.6404 49.254 57.6983C49.2934 57.7044 49.357 57.7074 49.4025 57.7074C49.6086 57.7135 49.9209 57.7227 50.1452 57.9787C50.1846 58.0244 50.227 58.0793 50.2604 58.1403C50.609 58.0763 50.9606 57.994 51.3183 57.8842C56.6748 55.8756 56.8143 52.7789 56.7051 50.7367C56.696 50.5996 56.69 50.4685 56.6809 50.3435C56.6475 49.8467 56.6233 49.4535 56.693 49.167C57.1204 47.39 57.6085 47.2681 58.7725 47.1492V47.1431ZM65.5659 33.6832C65.5659 51.2427 51.4093 65.4798 33.9424 65.4798C16.4755 65.4798 2.32495 51.2396 2.32495 33.6802C2.32495 22.8964 7.66627 13.3684 15.8298 7.61992C15.9935 7.5041 16.1602 7.38828 16.327 7.2755C17.3728 6.9006 18.9158 6.48912 20.101 6.75125C20.3557 6.78173 20.6012 6.84269 20.8377 6.94327C21.1742 7.08653 21.4864 7.30293 21.7562 7.60773C22.2291 8.14418 22.2958 9.29022 21.9108 10.2168C22.1351 10.0979 22.3928 9.97297 22.6656 9.84495C23.4113 9.45786 24.1631 9.11039 24.8997 8.82388C25.0149 8.77816 25.1332 8.73853 25.2484 8.69586C25.2514 8.58918 25.2484 8.4886 25.2271 8.39106C25.1574 8.05274 24.9422 7.8089 24.6087 7.68698C24.2237 7.54677 23.6629 7.68698 23.4022 7.99178C23.2476 8.17161 23.2082 8.38497 23.278 8.60747C23.0809 8.72634 22.9081 8.72329 22.7475 8.59528C22.4019 8.32401 22.2352 7.57116 22.4231 7.15663C22.5959 6.78782 23.187 6.30929 23.7387 6.21176C23.7478 6.21176 23.7569 6.21176 23.766 6.20871C24.054 6.16299 24.2813 6.227 24.442 6.40073C24.5026 6.46474 24.5996 6.47388 24.6694 6.42207C24.7391 6.37025 24.7573 6.27576 24.7148 6.19956C24.348 5.57168 24.4814 5.14801 24.6209 4.69996C24.6542 4.59328 24.6875 4.48355 24.7148 4.37382C24.8209 4.50793 24.9149 4.65119 25.0119 4.79749C25.1574 5.01695 25.306 5.24554 25.506 5.45586C25.988 5.96792 26.1487 6.15994 26.2942 6.80002C26.3578 7.07433 26.3063 7.97349 26.1881 8.70196C26.1153 9.14696 25.888 9.82362 25.7425 10.0675C24.7906 10.3875 23.6205 10.8355 22.9293 11.1495L21.9987 11.5762C20.4466 12.0578 19.8919 11.6616 19.6524 11.4848C19.2341 11.2379 19.1219 10.6435 19.9192 10.3235C19.9343 10.3692 20.0647 10.7319 20.0344 10.7654C20.7255 10.0675 20.3223 9.3969 19.6645 9.3268C16.8241 9.01895 14.8901 14.0877 14.5536 17.1205L14.5415 17.1388C14.5991 17.3796 14.6688 17.5503 14.7294 17.6691C12.3558 20.5464 10.6098 23.9602 9.6973 27.6939C9.63971 26.9259 9.46692 26.4443 9.29716 26.1456L9.30625 26.1974C6.96905 26.0206 6.09904 25.6853 5.57764 25.0452C5.44426 24.8807 5.33209 24.6947 5.226 24.4875C4.52574 26.7003 4.07103 29.0198 3.89521 31.4125C3.88612 31.4216 3.87703 31.4308 3.86793 31.443C3.42838 31.9124 3.1889 32.7475 3.11311 33.3723C2.86454 35.4236 3.1889 37.9687 4.37417 39.514C4.39539 39.6177 4.41358 39.7213 4.4348 39.8249C4.45602 39.9286 4.48027 40.0322 4.50149 40.1358C4.53181 40.276 4.56212 40.4193 4.59547 40.5595C4.61972 40.6631 4.64397 40.7637 4.66822 40.8643C4.70156 41.0045 4.73491 41.1447 4.77129 41.2849C4.79554 41.3855 4.82282 41.4861 4.85313 41.5836C4.88951 41.7238 4.92892 41.864 4.96833 42.0042C4.99561 42.1018 5.02592 42.1993 5.05321 42.2968C5.09565 42.437 5.13505 42.5773 5.17749 42.7175C5.20781 42.815 5.23812 42.9095 5.26844 43.007C5.31391 43.1472 5.35635 43.2844 5.40485 43.4246C5.43819 43.5191 5.47154 43.6136 5.50488 43.7111L5.5261 43.769C5.37453 44.7108 5.49276 45.5826 5.87775 46.2318C6.19907 46.7774 6.58406 47.1279 7.00542 47.2711C7.0418 47.3443 7.07818 47.4175 7.11759 47.4906C7.16003 47.5729 7.20246 47.6552 7.2449 47.7375C7.31463 47.8716 7.38435 48.0027 7.4571 48.1368C7.49954 48.2191 7.54501 48.2983 7.59048 48.3776C7.66324 48.5086 7.73902 48.6427 7.81178 48.7738C7.85725 48.8531 7.90272 48.9323 7.94819 49.0085C8.02397 49.1396 8.10279 49.2706 8.18161 49.4017C8.22708 49.4779 8.27558 49.5541 8.32105 49.6303C8.39987 49.7614 8.48171 49.8894 8.56356 50.0174C8.61206 50.0936 8.66057 50.1667 8.70907 50.2399C8.79395 50.3679 8.87579 50.4959 8.96371 50.6239C8.97886 50.6483 8.99402 50.6727 9.01221 50.6971C9.04555 50.4807 9.08799 50.2826 9.16075 50.0936C9.42751 49.3986 10.058 48.8287 11.792 48.0118C11.792 47.9966 11.7981 47.9935 11.8132 48.0027C11.9557 47.9356 12.1073 47.8655 12.2649 47.7954L12.271 47.8198C12.5195 47.4967 12.5559 47.0273 12.5377 46.6798C16.1845 52.7941 22.3443 57.1649 29.6105 58.4207C28.9861 58.5304 28.1251 58.6676 27.8735 58.9998C28.8618 59.713 29.3347 61.2401 28.9558 62.0417C28.783 62.4074 28.5405 62.7031 28.2585 62.9347C28.0676 63.0902 27.8523 63.2152 27.625 63.3157C27.6674 63.3249 27.7129 63.334 27.7553 63.3432C27.8281 63.3584 27.9039 63.3767 27.9796 63.3919C28.1555 63.4285 28.3343 63.462 28.5132 63.4925C28.5799 63.5047 28.6435 63.5169 28.7102 63.5291C28.9194 63.5657 29.1285 63.5992 29.3377 63.6327C29.3741 63.6388 29.4105 63.6449 29.4468 63.651C29.6954 63.6876 29.944 63.7242 30.1926 63.7547C30.2077 63.7547 30.2259 63.7577 30.2411 63.7607C30.4745 63.7882 30.7049 63.8156 30.9383 63.84H30.9656C31.2141 64.0046 31.5355 64.1478 31.9053 64.1478C31.9962 64.1478 32.0902 64.1387 32.1781 64.1204C32.3388 64.0869 32.4752 64.029 32.5813 63.9589C32.651 63.9589 32.7207 63.9619 32.7905 63.965C32.9299 63.9711 33.0694 63.9772 33.2088 63.9802C33.327 63.9832 33.4452 63.9832 33.5635 63.9863C33.6878 63.9863 33.8151 63.9924 33.9424 63.9924C33.9545 63.9924 33.9636 63.9924 33.9757 63.9924C34.2486 63.9924 34.5184 63.9893 34.7912 63.9802C35.6097 63.9558 36.419 63.9009 37.2193 63.8156C37.2648 63.8735 37.3254 63.9314 37.4133 63.9771C37.5588 64.0503 37.7013 64.0899 37.8347 64.0899C38.056 64.0899 38.2561 63.9863 38.3925 63.8004C38.4258 63.7546 38.4501 63.7059 38.4743 63.6541C40.2932 63.3797 42.0574 62.9408 43.752 62.3587C46.1559 61.9228 48.6295 61.0968 49.7208 59.5271C50.4817 59.0547 51.2213 58.5517 51.9337 58.0183C55.0288 56.7443 56.2929 55.0557 56.784 53.4829C58.5543 51.4195 60.0488 49.1182 61.2189 46.6311C62.677 45.3814 63.3196 42.9339 63.3742 41.3123C63.3742 41.2361 63.3742 41.1599 63.3742 41.0868C63.4197 40.7027 63.45 40.3278 63.4561 39.959C63.9229 37.731 64.1442 35.4145 64.0957 33.0401C64.317 32.7963 64.5049 32.4793 64.6413 32.0922C64.999 31.0894 64.9687 29.8611 64.5686 29.1722C64.3624 28.8126 64.0411 28.5443 63.6379 28.3797C63.6319 28.3462 63.6258 28.3157 63.6228 28.2822C63.6046 28.1786 63.5834 28.0749 63.5621 27.9713C63.5349 27.8281 63.5076 27.6848 63.4803 27.5385C63.4591 27.4349 63.4348 27.3343 63.4136 27.2307C63.3833 27.0874 63.353 26.9441 63.3196 26.8039C63.2954 26.7034 63.2711 26.6028 63.2469 26.5022C63.2135 26.3589 63.1772 26.2187 63.1438 26.0755C63.1196 25.9779 63.0893 25.8773 63.065 25.7798C63.0286 25.6396 62.9892 25.4964 62.9498 25.3561C62.9225 25.2586 62.8922 25.1611 62.8649 25.0666C62.8225 24.9264 62.7831 24.7831 62.7376 24.6429C62.7316 24.6216 62.7255 24.5972 62.7164 24.5759C62.4314 24.1217 62.1192 23.5914 61.9616 23.2652C61.8524 23.0397 61.7039 22.8385 61.5341 22.6648C61.3674 22.4971 61.1795 22.3539 60.9794 22.2442C60.8187 22.1558 60.555 22.0796 60.358 22.1222C60.2913 22.1375 60.1155 22.1405 60.1912 22.2868C60.2367 22.3722 60.4156 22.3204 60.4944 22.3478C60.943 22.5032 60.9036 23.0793 60.5884 23.3536C60.1609 23.7255 59.5001 23.3475 59.2545 22.9665C59.0393 23.0915 59.0302 23.6676 58.8483 23.6706C58.4664 23.6767 58.6028 23.0153 58.6574 22.805C58.6968 22.6556 58.821 22.491 58.8453 22.3508C58.8908 22.0796 58.7301 21.8571 58.8574 21.5736C58.9817 21.2993 59.2182 21.1012 59.4971 20.9975C59.9851 20.8146 60.4095 20.8573 60.7854 21.028C60.0215 20.1075 59.0969 18.9889 58.0723 17.7545C58.0329 17.7057 57.9904 17.6569 57.948 17.6082C57.9601 17.4649 57.9571 17.3156 57.9359 17.1571C57.8813 16.7121 57.6661 16.3981 57.4751 16.1208C57.363 15.9592 57.2599 15.8068 57.1811 15.63C57.1144 15.4837 57.0568 15.3649 57.0052 15.2582C56.9507 15.1484 56.9113 15.0631 56.881 14.9869C57.2599 15.3618 57.6146 15.7306 57.951 16.0933C58.9059 17.1235 59.6941 18.1111 60.3398 19.0133C60.3398 19.0133 60.3337 19.0041 60.3307 18.998C60.2549 18.8609 60.1761 18.7207 60.1003 18.5835C60.0579 18.5104 60.0154 18.4403 59.976 18.3671C59.8942 18.23 59.8153 18.0898 59.7305 17.9556C59.688 17.8855 59.6456 17.8154 59.6031 17.7453C59.5183 17.6082 59.4334 17.471 59.3455 17.3369C59.303 17.2698 59.2606 17.2028 59.2151 17.1357C59.1272 16.9986 59.0363 16.8614 58.9453 16.7273L58.815 16.5353C58.721 16.3981 58.627 16.264 58.5331 16.1299C58.4906 16.0689 58.4452 16.0049 58.3997 15.944C58.3027 15.8099 58.2057 15.6757 58.1056 15.5416C58.0602 15.4807 58.0177 15.4228 57.9723 15.3649C57.8722 15.2307 57.7692 15.0966 57.6661 14.9656C57.6236 14.9077 57.5751 14.8528 57.5327 14.7949C57.4266 14.6608 57.3205 14.5297 57.2144 14.3986C57.1689 14.3438 57.1235 14.2889 57.078 14.234C57.0507 14.2036 57.0265 14.17 56.9992 14.1396C57.1356 13.6092 57.0083 12.9935 56.6415 12.454C56.205 11.8109 55.529 11.4116 54.8802 11.4116C54.7408 11.4116 54.6013 11.433 54.4649 11.4695C54.3861 11.3964 54.3043 11.3232 54.2255 11.2501C54.18 11.2074 54.1345 11.1678 54.089 11.1251C53.9557 11.0062 53.8193 10.8843 53.6859 10.7685C53.6404 10.7289 53.5949 10.6892 53.5495 10.6496C53.41 10.5307 53.2736 10.4149 53.1342 10.2991C53.0887 10.2625 53.0432 10.226 53.0008 10.1894C52.8583 10.0736 52.7158 9.95773 52.5733 9.84495C52.5279 9.80838 52.4854 9.77485 52.44 9.73827C52.2945 9.6255 52.1459 9.51272 52.0004 9.403C51.958 9.36947 51.9125 9.33594 51.867 9.30241C51.7185 9.18964 51.5669 9.07991 51.4154 8.97323C51.3729 8.94275 51.3274 8.90922 51.285 8.87874C51.2092 8.82388 51.1334 8.77206 51.0576 8.72025C51.2122 8.97323 51.3487 9.24145 51.479 9.51882C51.7064 9.99735 51.8549 10.3783 52.1156 10.7045C52.6794 11.0824 53.1978 11.5518 53.7192 12.0517C53.5343 12.3291 53.4312 12.6613 53.4706 12.9448C53.4888 13.0728 53.5373 13.1825 53.604 13.2739C53.5313 13.213 53.4555 13.1612 53.3827 13.1032C52.8916 12.8015 51.9004 12.4601 51.4123 12.4114C51.2001 12.39 50.8303 12.582 50.8576 12.8594C50.8697 13.0149 51.0061 13.1916 51.1547 13.2282C51.3881 13.2892 51.4426 12.6491 51.9307 13.1337C52.0792 13.28 52.0792 13.5117 51.9155 13.8134C51.5305 14.5267 50.4423 14.42 49.5692 13.9872C49.2631 13.7433 48.5477 13.1977 48.5628 13.2313C48.4052 13.1185 48.2445 13.0118 48.0869 12.9021C48.0778 12.899 48.0657 12.8929 48.0535 12.8899C47.9262 12.8015 47.7322 12.6735 47.5443 12.5485C47.4564 12.4906 47.3684 12.4296 47.2775 12.3748C47.1866 12.3199 47.0956 12.2651 47.0047 12.2102C46.8228 12.1005 46.6409 11.9938 46.459 11.8871C46.365 11.8322 46.268 11.7804 46.171 11.7256C46.0922 11.6829 46.0164 11.6402 45.9376 11.5975C45.5314 11.3781 45.1191 11.1708 44.7008 10.9758C44.0248 10.7045 43.1457 10.3875 42.3303 10.1345C42.3 10.0888 41.8149 9.41824 41.6906 8.82388C41.5421 8.10151 41.4572 7.2054 41.5088 6.92803C41.63 6.28186 41.7816 6.08374 42.2424 5.55339C42.4333 5.33394 42.5728 5.10229 42.7092 4.87369C42.8001 4.72129 42.8911 4.57499 42.9881 4.43783C43.0184 4.54756 43.0578 4.65424 43.0942 4.76091C43.2518 5.20287 43.4003 5.62045 43.0608 6.26357C43.0184 6.33977 43.0426 6.43731 43.1154 6.48607C43.1881 6.53484 43.2852 6.52265 43.3397 6.45559C43.4943 6.27576 43.7186 6.20261 44.0066 6.23614C44.0157 6.23614 44.0248 6.23614 44.0339 6.23919C44.5856 6.31539 45.198 6.76954 45.3859 7.13225C45.592 7.53763 45.4526 8.29658 45.1191 8.58004C44.9645 8.71415 44.7887 8.72329 44.5887 8.61357C44.6523 8.38802 44.6008 8.17771 44.4401 8.00397C44.1703 7.71441 43.6004 7.59249 43.2245 7.74794C42.8941 7.88205 42.691 8.13503 42.6334 8.47641C42.6182 8.57394 42.6152 8.67757 42.6243 8.78121C42.7425 8.81778 42.8608 8.85436 42.979 8.89398C43.176 8.96104 43.5792 9.07686 43.5792 9.07686C44.2825 9.34813 44.9706 9.64988 45.6466 9.97906C45.7163 9.97906 45.7861 9.96382 45.8558 9.94858C45.7527 9.77485 45.6678 9.59197 45.6133 9.40604C45.5284 9.12563 45.5072 8.83607 45.5375 8.55261C45.5678 8.26914 45.6557 7.99483 45.7952 7.7388C46.1074 7.16577 46.6743 6.70248 47.4473 6.53179C47.4806 6.5257 48.7932 6.44645 49.5268 6.64457C50.2392 6.83964 50.8 6.93108 51.7094 7.36694C52.4309 7.86071 53.1311 8.38192 53.8071 8.93361C60.9915 14.7614 65.5902 23.6828 65.5902 33.6893L65.5659 33.6832ZM50.7333 10.7563C50.3907 9.54625 49.1873 8.63185 48.2657 8.54956C47.9383 8.52213 47.6473 8.59528 47.4412 8.79949C47.1077 9.13172 47.3472 9.67427 47.7443 9.5493C47.8171 9.52491 47.6473 8.88484 48.1414 9.22621C48.29 9.32984 48.3658 9.46091 48.3961 9.60416C48.4779 9.98516 48.2203 10.4485 48.005 10.6466C47.8626 10.7776 47.7049 10.8386 47.5352 10.8569C47.5352 10.8874 47.5291 10.9239 47.5261 10.9575C47.999 11.244 48.8478 11.7926 49.1994 12.0304C49.2176 11.9724 49.2267 11.6463 49.4268 11.308C49.6996 10.8081 50.1846 10.5277 50.7363 10.7593L50.7333 10.7563ZM12.9076 17.8551C13.147 17.535 13.3926 17.2211 13.6472 16.9102C13.4684 14.4718 13.9503 12.5546 14.596 11.1099C14.787 10.6801 14.9931 10.293 15.1993 9.94554C14.5081 10.4972 13.8412 11.0824 13.2016 11.692C13.0531 12.0517 12.9318 12.4114 12.8378 12.768C12.2922 14.8436 12.6105 16.7578 12.9076 17.8551ZM10.2763 15.7519C10.44 17.3643 11.2373 18.7054 11.7981 19.4644C11.9648 19.2023 12.1376 18.9432 12.3164 18.6841C11.8981 17.8154 11.2585 16.2305 11.2039 14.5846V14.5724C11.1948 14.2798 11.2191 13.9963 11.2676 13.725C10.919 14.1243 10.5794 14.5328 10.252 14.9534C10.243 15.2277 10.252 15.4929 10.2793 15.755L10.2763 15.7519ZM8.33621 17.6966C8.37258 17.9099 8.42715 18.1385 8.509 18.3793C8.80607 19.2571 9.46388 20.2721 10.8523 21.0676C11.0038 20.7903 11.1584 20.5159 11.3191 20.2447C9.89434 19.376 9.42751 18.1263 9.25169 17.1997C9.19712 16.9102 9.16984 16.6541 9.15165 16.4499C8.86973 16.8584 8.59994 17.2729 8.33924 17.6966H8.33621ZM6.9448 20.202C6.97511 20.4123 7.0418 20.6501 7.16306 20.9C7.49651 21.5919 8.25436 22.3844 9.92769 22.9513C10.0338 22.7135 10.1429 22.4758 10.2581 22.2381C9.41538 21.8845 8.1331 21.1438 7.70264 19.818C7.62383 19.5741 7.5723 19.3089 7.56017 19.0255C7.34797 19.4126 7.14184 19.8027 6.9448 20.199V20.202ZM5.64736 23.2287C5.74133 23.4237 5.85956 23.5975 5.98991 23.7529C7.05393 24.9965 9.11527 25.0178 9.11527 25.0178C9.25775 24.6063 9.41235 24.1949 9.57302 23.7895C8.58175 23.6737 7.0994 23.3292 6.53556 22.3234C6.41127 22.1039 6.33245 21.8571 6.31123 21.5705C6.07479 22.1161 5.85349 22.6678 5.64736 23.2287ZM13.1016 49.7583C12.8681 49.4748 12.6529 49.2097 12.468 48.9719C12.3225 49.0268 10.4915 49.7614 9.94891 51.2579C9.88222 51.4408 9.83675 51.6328 9.8125 51.8401C9.85797 51.901 9.90041 51.9589 9.94588 52.0169C10.0368 52.1388 10.1308 52.2607 10.2248 52.3796C10.243 52.1845 10.2945 52.0016 10.3703 51.8279C10.8401 50.7459 12.2831 50.0692 13.1046 49.7583H13.1016ZM12.1012 53.9036C12.3043 52.4802 13.4926 51.4408 14.1322 50.9745C13.9655 50.7824 13.7988 50.5904 13.6381 50.3984C12.1709 51.3463 11.5525 52.2698 11.3282 53.0257C11.2676 53.23 11.2403 53.4189 11.2282 53.5957C11.2554 53.6292 11.2858 53.6628 11.313 53.6933C11.4161 53.8121 11.5192 53.9279 11.6253 54.0438C11.6798 54.1047 11.7374 54.1687 11.795 54.2297C11.889 54.3333 11.986 54.4339 12.08 54.5375C12.0648 54.3181 12.0739 54.1078 12.1012 53.9036ZM14.3323 56.6894C14.302 56.4974 14.2777 56.2779 14.2656 56.0402C14.2232 55.0709 14.4293 53.7816 15.6237 52.6051C15.4266 52.404 15.2084 52.1754 14.978 51.9254C13.8018 53.041 13.3714 54.1718 13.2683 55.1106C13.244 55.3178 13.238 55.5159 13.241 55.7019C13.2622 55.7263 13.2865 55.7445 13.3077 55.7659C13.4229 55.8726 13.5381 55.9792 13.6533 56.0859C13.7139 56.1408 13.7776 56.1987 13.8382 56.2536C13.9534 56.3602 14.0716 56.4639 14.1929 56.5675C14.2383 56.6071 14.2838 56.6498 14.3293 56.6864L14.3323 56.6894ZM17.0393 58.7681C16.9787 58.6127 16.9241 58.4542 16.8847 58.2866C16.8666 58.2165 16.8514 58.1464 16.8362 58.0763C16.4603 56.3663 16.7119 54.5802 16.8756 53.7512C16.6513 53.5591 16.43 53.3641 16.2148 53.1629C15.8935 53.9523 15.4054 55.5038 15.6388 57.1832C15.6691 57.4057 15.7146 57.6312 15.7722 57.8538C15.8086 57.8812 15.845 57.9086 15.8813 57.936C15.948 57.9848 16.0117 58.0336 16.0784 58.0823C16.2057 58.1768 16.333 58.2713 16.4634 58.3628C16.5301 58.4115 16.5968 58.4603 16.6634 58.506C16.7908 58.5975 16.9181 58.6828 17.0454 58.7712L17.0393 58.7681ZM21.7926 61.4199C21.5228 61.1547 21.2499 60.856 20.9771 60.5238C19.9646 59.2741 18.9946 57.5215 18.5338 55.077C18.2246 54.8515 17.9184 54.6137 17.6183 54.373C17.6062 55.4184 17.7517 57.4362 18.8521 59.3838C19.0097 59.6643 19.1856 59.9447 19.3856 60.219C19.425 60.2403 19.4675 60.2647 19.5069 60.286C19.5796 60.3257 19.6524 60.3683 19.7282 60.408C19.8676 60.4811 20.0071 60.5543 20.1465 60.6274C20.2223 60.667 20.2951 60.7067 20.3708 60.7432C20.5103 60.8164 20.6528 60.8834 20.7952 60.9535C20.871 60.9901 20.9468 61.0267 21.0226 61.0633C21.1651 61.1303 21.3075 61.1974 21.45 61.2644C21.5288 61.298 21.6046 61.3346 21.6834 61.3711C21.7198 61.3864 21.7562 61.4047 21.7926 61.4199ZM26.4124 59.4875C26.4518 59.5088 26.4276 59.8929 26.4245 59.9447C25.5121 59.8532 25.506 59.1735 25.9153 58.8382C23.8115 58.1616 21.7956 57.2167 19.9192 56.0219C21.353 58.7255 24.1358 61.9259 26.4488 60.9749C27.0611 60.7219 27.2642 59.966 26.4094 59.4875H26.4124ZM16.2481 19.3333C17.0636 19.6899 18.1215 19.5528 18.9249 19.2206C19.3068 18.2269 20.5436 17.2272 21.1984 16.8736L21.2196 16.8614C21.6471 16.6298 22.6444 16.0933 23.0779 16.6115C23.2931 16.8706 23.3265 17.2729 23.1597 17.6356C23.0233 17.9374 22.7869 18.1263 22.5444 18.1294C22.3837 18.1294 22.1503 18.0562 21.9654 17.6752C21.9259 17.5929 21.9593 17.4954 22.0411 17.4527C22.123 17.4131 22.22 17.4466 22.2624 17.5289C22.3109 17.6295 22.417 17.8002 22.5413 17.7971C22.6505 17.7971 22.7808 17.6722 22.8626 17.4954C22.9475 17.3064 22.99 17.0169 22.8263 16.8218C22.6535 16.6145 22.1654 16.7273 21.3773 17.151L21.356 17.1632C20.5679 17.5899 19.3311 18.6963 19.1583 19.5863C19.0067 20.1349 19.3038 20.3757 19.3644 20.4215C19.6857 20.6226 19.8889 20.4123 20.2011 20.2264C20.3163 20.9274 20.4163 21.5523 21.1833 21.851C21.7744 22.0796 22.6444 22.0003 22.9627 21.3663C22.1412 21.2871 21.0014 20.5647 21.6804 19.6107C21.9108 19.2907 22.5413 19.0041 22.8414 19.3608C23.093 19.6625 22.8687 20.5342 22.4231 20.4946C22.9112 20.8908 23.4416 20.6226 23.8448 20.2477C24.6087 19.5375 24.3511 18.8304 24.5875 17.98C24.8209 17.1357 25.8425 16.3646 26.5124 15.8678C27.2642 15.31 28.2131 14.9595 28.9254 14.3651C28.2888 14.4962 27.6159 14.7492 26.955 14.7217C27.2824 14.3651 27.7644 14.2005 28.1858 13.9933C28.7769 13.7037 29.3195 13.2892 29.8803 12.9661C28.7769 12.96 27.5552 13.6946 26.4579 13.4995C26.0032 13.4202 25.9335 13.1398 25.5788 12.9508C24.6875 12.4693 23.1809 13.2374 22.3594 13.6062C21.0559 14.1944 19.8131 14.9138 18.5459 15.5813C18.1125 15.8099 16.8484 16.139 16.4179 15.6544C16.3937 15.6697 16.3724 15.6849 16.3482 15.6971C16.5331 16.4987 16.912 17.215 17.7638 17.4802C16.8756 17.9404 15.9693 18.4982 14.9689 17.9038C15.4266 18.4494 15.5145 19.0163 16.2481 19.3364V19.3333ZM24.4844 14.2036C24.8573 13.6641 25.6515 14.1518 25.6515 14.1518C25.6515 14.1518 25.5606 14.7614 24.9058 14.932C24.248 15.0997 23.6114 15.1363 23.4811 15.0357C23.4811 15.0357 24.1146 14.7461 24.4875 14.2066L24.4844 14.2036Z" fill="#FFD59A"/>
</g>
<defs>
<filter id="filter0_d_10_11852" x="-2.57505" y="-1.08396" width="73.0652" height="71.4638" filterUnits="userSpaceOnUse" color-interpolation-filters="sRGB">
<feFlood flood-opacity="0" result="BackgroundImageFix"/>
<feColorMatrix in="SourceAlpha" type="matrix" values="0 0 0 0 0 0 0 0 0 0 0 0 0 0 0 0 0 0 127 0" result="hardAlpha"/>
<feOffset/>
<feGaussianBlur stdDeviation="2.45"/>
<feColorMatrix type="matrix" values="0 0 0 0 0.137255 0 0 0 0 0.121569 0 0 0 0 0.12549 0 0 0 0.82 0"/>
<feBlend mode="normal" in2="BackgroundImageFix" result="effect1_dropShadow_10_11852"/>
<feBlend mode="normal" in="SourceGraphic" in2="effect1_dropShadow_10_11852" result="shape"/>
</filter>
</defs>
</svg>
