<svg width="68" height="68" viewBox="0 0 68 68" fill="none" xmlns="http://www.w3.org/2000/svg">
<g filter="url(#filter0_d_36_1264)">
<path d="M34 59C49.464 59 62 46.464 62 31C62 15.536 49.464 3 34 3C18.536 3 6 15.536 6 31C6 46.464 18.536 59 34 59Z" fill="url(#paint0_linear_36_1264)"/>
</g>
<mask id="mask0_36_1264" style="mask-type:luminance" maskUnits="userSpaceOnUse" x="12" y="24" width="44" height="14">
<path d="M38.3736 24.5724V29.3884H29.5334V24.5724H25.2965V34.2133H16.5034V26.426C16.5034 24.0426 12.2664 24.6407 12.2664 24.6407V34.2805L12.2832 34.3097C12.235 34.8316 12.1275 37.3538 14.7013 37.3538H15.2221L15.2411 37.374H25.3603C25.599 37.4008 25.8407 37.3776 26.0699 37.3059C26.2992 37.2342 26.511 37.1156 26.6919 36.9575C26.8728 36.7995 27.0188 36.6056 27.1206 36.388C27.2224 36.1705 27.2779 35.9341 27.2834 35.694V37.374H29.5334V32.6117H38.3736V37.4333H55.644C55.644 37.4333 56.4504 34.2973 53.2349 34.2973C51.9323 34.2973 42.6688 34.2761 42.6688 34.2761V27.7207H53.1352C53.301 27.7212 53.4667 27.7114 53.6314 27.6916C56.2622 27.3825 55.5432 24.578 55.5432 24.578L42.8054 24.5724H40.7054H38.3736Z" fill="white"/>
</mask>
<g mask="url(#mask0_36_1264)">
<path d="M56.4504 24.0426H12.1275V37.4334H56.4504V24.0426Z" fill="white"/>
</g>
<mask id="mask1_36_1264" style="mask-type:luminance" maskUnits="userSpaceOnUse" x="12" y="24" width="44" height="14">
<path d="M55.7336 24.5724H12.2664V37.4333H55.7336V24.5724Z" fill="white"/>
</mask>
<g mask="url(#mask1_36_1264)">
<path d="M42.7013 27.7352V27.7207H53.1419C53.307 27.7206 53.4719 27.7109 53.6358 27.6916C56.2678 27.3813 55.5499 24.5813 55.5499 24.5813H38.4139V29.3973H25.3659V34.2133H12.3605V34.2805L12.3739 34.3052C12.3246 34.8271 12.2182 37.3482 14.7864 37.3482H15.3083L15.3285 37.3684H25.4275C25.6659 37.3947 25.9071 37.3711 26.1359 37.2992C26.3647 37.2273 26.576 37.1085 26.7565 36.9505C26.9369 36.7925 27.0825 36.5987 27.184 36.3814C27.2855 36.1642 27.3407 35.9281 27.3461 35.6884V37.3684H29.5928V32.6084H42.6968L42.7013 27.7352Z" fill="white"/>
</g>
<path d="M21.9589 45.0651V45.4839H25.3054C25.429 45.4805 25.5521 45.5015 25.6676 45.5457C25.783 45.59 25.8886 45.6565 25.9783 45.7416C26.068 45.8267 26.14 45.9287 26.1902 46.0417C26.2404 46.1547 26.2678 46.2765 26.2709 46.4001C26.2686 46.5241 26.2417 46.6464 26.1918 46.7599C26.1419 46.8734 26.0699 46.9759 25.9801 47.0614C25.8903 47.1469 25.7845 47.2138 25.6687 47.2581C25.5528 47.3024 25.4294 47.3233 25.3054 47.3196H21.9589V47.7351H25.3099C25.6721 47.7409 26.0221 47.6043 26.2846 47.3546C26.5471 47.1049 26.701 46.7622 26.7133 46.4001C26.7016 46.0379 26.5478 45.6948 26.2852 45.445C26.0226 45.1952 25.6723 45.0587 25.3099 45.0651H21.9589Z" fill="white"/>
<path d="M27.495 45.0638H27.056V47.735H27.495V45.0638Z" fill="white"/>
<path d="M29.231 45.065C28.8702 45.0613 28.5223 45.1991 28.2618 45.4489C28.0014 45.6986 27.8492 46.0405 27.8378 46.4011C27.8352 46.5842 27.8734 46.7656 27.9498 46.932C28.0647 47.1737 28.2458 47.3778 28.4719 47.5209C28.698 47.664 28.9601 47.7402 29.2277 47.7407H32.5877V46.1973H31.0925L31.3781 46.6128H32.1531V47.3229H29.231C28.9827 47.3259 28.7431 47.2312 28.564 47.0592C28.3848 46.8872 28.2805 46.6516 28.2734 46.4034C28.2758 46.2801 28.3024 46.1584 28.3518 46.0454C28.4012 45.9325 28.4725 45.8303 28.5614 45.7449C28.6504 45.6595 28.7553 45.5925 28.8702 45.5477C28.9851 45.5029 29.1077 45.4812 29.231 45.4839H32.591V45.065H29.231Z" fill="white"/>
<path d="M33.4848 45.0638H33.0458V47.735H33.4848V45.0638Z" fill="white"/>
<path d="M33.7894 45.065V45.4839H35.9454V47.7351H36.38V45.4839H38.5438V45.065H33.7894Z" fill="white"/>
<path d="M37.0061 47.7395H40.7234L40.3414 47.324H37.9715L39.4488 45.7056L39.5283 45.793C39.8834 46.1827 41.2912 47.7205 41.3102 47.7395H41.8904C41.2957 47.0832 39.7187 45.3539 39.4488 45.0683L37.0061 47.7395Z" fill="white"/>
<path d="M42.1558 45.065V47.7351H46.0411V47.3195H42.5915V45.065H42.1558Z" fill="white"/>
<defs>
<filter id="filter0_d_36_1264" x="0" y="0" width="68" height="68" filterUnits="userSpaceOnUse" color-interpolation-filters="sRGB">
<feFlood flood-opacity="0" result="BackgroundImageFix"/>
<feColorMatrix in="SourceAlpha" type="matrix" values="0 0 0 0 0 0 0 0 0 0 0 0 0 0 0 0 0 0 127 0" result="hardAlpha"/>
<feOffset dy="3"/>
<feGaussianBlur stdDeviation="3"/>
<feColorMatrix type="matrix" values="0 0 0 0 0 0 0 0 0 0 0 0 0 0 0 0 0 0 0.161 0"/>
<feBlend mode="normal" in2="BackgroundImageFix" result="effect1_dropShadow_36_1264"/>
<feBlend mode="normal" in="SourceGraphic" in2="effect1_dropShadow_36_1264" result="shape"/>
</filter>
<linearGradient id="paint0_linear_36_1264" x1="19.72" y1="9.328" x2="59.48" y2="46.848" gradientUnits="userSpaceOnUse">
<stop stop-color="#80353A"/>
<stop offset="0.485" stop-color="#FF8F97"/>
<stop offset="1" stop-color="#401B1D"/>
</linearGradient>
</defs>
</svg>
