<svg width="127" height="55" viewBox="0 0 127 55" fill="none" xmlns="http://www.w3.org/2000/svg">
<path d="M0.712036 52.2465V44.5472H2.27017V50.9389H6.14733V52.2465H0.712036Z" fill="#832A2E"/>
<path d="M8.3542 48.3359L7.01129 48.092C7.16286 47.5464 7.42052 47.1471 7.79035 46.885C8.16018 46.6229 8.70887 46.4918 9.43337 46.4918C10.0942 46.4918 10.5853 46.5711 10.9097 46.7265C11.231 46.885 11.4614 47.0831 11.5917 47.327C11.7221 47.5678 11.7888 48.0128 11.7888 48.6589L11.7736 50.3963C11.7736 50.8901 11.7979 51.2558 11.8433 51.4905C11.8918 51.7252 11.9797 51.9782 12.1101 52.2464H10.6459C10.6065 52.1489 10.5611 51.9995 10.5035 51.8075C10.4792 51.7191 10.461 51.6612 10.4489 51.6338C10.1973 51.8807 9.92446 52.0666 9.63648 52.1885C9.3485 52.3135 9.04233 52.3744 8.71494 52.3744C8.13897 52.3744 7.68426 52.219 7.35384 51.902C7.02342 51.5881 6.85669 51.1918 6.85669 50.7102C6.85669 50.3932 6.93247 50.1098 7.08404 49.8598C7.23561 49.6099 7.44478 49.4209 7.7176 49.2868C7.99043 49.1558 8.38148 49.0399 8.89379 48.9394C9.58494 48.8083 10.0639 48.6864 10.3307 48.5736V48.4242C10.3307 48.1377 10.2609 47.9335 10.1215 47.8116C9.98205 47.6897 9.71529 47.6287 9.32727 47.6287C9.06354 47.6287 8.85741 47.6805 8.7119 47.7842C8.56336 47.8878 8.44514 48.0707 8.3542 48.3328V48.3359ZM10.3337 49.5429C10.1458 49.6069 9.84261 49.6831 9.43337 49.7715C9.02414 49.8598 8.75434 49.9452 8.63006 50.0305C8.43605 50.1677 8.33905 50.3414 8.33905 50.5548C8.33905 50.7681 8.41482 50.9419 8.56943 51.0943C8.72403 51.2467 8.92107 51.3229 9.16055 51.3229C9.42731 51.3229 9.68195 51.2345 9.92446 51.0577C10.1033 50.9236 10.2215 50.759 10.2791 50.5639C10.3185 50.4359 10.3367 50.1951 10.3367 49.8385V49.5429H10.3337Z" fill="#832A2E"/>
<path d="M18.3335 52.2464H16.8542V49.3752C16.8542 48.7687 16.8208 48.3755 16.7602 48.1987C16.6966 48.0189 16.5935 47.8817 16.451 47.7842C16.3085 47.6866 16.1388 47.6348 15.9387 47.6348C15.6841 47.6348 15.4537 47.7049 15.2475 47.8482C15.0414 47.9914 14.905 48.1774 14.8292 48.409C14.7534 48.6407 14.7171 49.0735 14.7171 49.7014V52.2495H13.2377V46.6259H14.611V47.4519C15.099 46.8149 15.7144 46.4979 16.454 46.4979C16.7814 46.4979 17.0815 46.5558 17.3483 46.6747C17.6181 46.7936 17.8242 46.9429 17.9637 47.1289C18.1031 47.3117 18.2001 47.522 18.2547 47.7537C18.3093 47.9853 18.3365 48.3206 18.3365 48.7534V52.2495L18.3335 52.2464Z" fill="#832A2E"/>
<path d="M19.7007 52.6152L21.3922 52.8225C21.4195 53.0206 21.4862 53.1547 21.5862 53.2309C21.7257 53.3376 21.947 53.3894 22.2501 53.3894C22.6351 53.3894 22.9261 53.3315 23.1201 53.2157C23.2505 53.1364 23.3505 53.0115 23.4142 52.8408C23.4627 52.7158 23.4839 52.4903 23.4839 52.158V51.3381C23.0413 51.9447 22.4835 52.2495 21.8075 52.2495C21.0558 52.2495 20.4616 51.9294 20.022 51.2894C19.6795 50.7864 19.5067 50.1555 19.5067 49.4057C19.5067 48.4639 19.731 47.7415 20.1827 47.2447C20.6344 46.7479 21.1952 46.4979 21.8651 46.4979C22.5351 46.4979 23.1262 46.8027 23.5748 47.4154V46.6259H24.9602V51.6734C24.9602 52.3379 24.9056 52.8316 24.7965 53.1608C24.6874 53.49 24.5358 53.746 24.3388 53.935C24.1417 54.1209 23.878 54.2672 23.5506 54.3739C23.2232 54.4806 22.8079 54.5324 22.3047 54.5324C21.3559 54.5324 20.6859 54.3678 20.2888 54.0417C19.8917 53.7156 19.6916 53.301 19.6916 52.8012C19.6916 52.7524 19.6916 52.6914 19.6977 52.6213L19.7007 52.6152ZM21.0224 49.3143C21.0224 49.9117 21.1376 50.3475 21.368 50.6249C21.5984 50.9023 21.8803 51.0394 22.2168 51.0394C22.5775 51.0394 22.8837 50.8992 23.1353 50.6127C23.3869 50.3262 23.5081 49.9056 23.5081 49.3478C23.5081 48.79 23.3899 48.3328 23.1504 48.0493C22.911 47.7659 22.6109 47.6257 22.2441 47.6257C21.8773 47.6257 21.5953 47.7659 21.368 48.0433C21.1376 48.3206 21.0224 48.7443 21.0224 49.3112V49.3143Z" fill="#832A2E"/>
<path d="M29.4345 52.2466V44.4834H30.9926V47.5405H34.0483V44.4834H35.6064V52.2466H34.0483V48.8512H30.9926V52.2466H29.4345Z" fill="#832A2E"/>
<path d="M36.8705 49.3539C36.8705 48.8601 36.9918 48.3816 37.2313 47.9183C37.4738 47.455 37.8163 47.1045 38.262 46.8606C38.7076 46.6168 39.2017 46.4949 39.7504 46.4949C40.5961 46.4949 41.2903 46.7722 41.8299 47.3239C42.3695 47.8756 42.6423 48.5736 42.6423 49.4179C42.6423 50.2622 42.3695 50.9754 41.8238 51.5332C41.2782 52.094 40.5931 52.3714 39.7625 52.3714C39.2502 52.3714 38.7621 52.2556 38.2953 52.0209C37.8315 51.7892 37.4768 51.4448 37.2343 50.9967C36.9948 50.5456 36.8736 50.0001 36.8736 49.3539H36.8705ZM38.3862 49.4331C38.3862 49.9909 38.5166 50.4176 38.7803 50.7133C39.0441 51.0089 39.3684 51.1583 39.7564 51.1583C40.1444 51.1583 40.4658 51.0089 40.7265 50.7133C40.9902 50.4176 41.1206 49.9848 41.1206 49.4209C41.1206 48.8571 40.9902 48.4456 40.7265 48.1499C40.4658 47.8543 40.1414 47.7049 39.7564 47.7049C39.3714 47.7049 39.0471 47.8543 38.7803 48.1499C38.5166 48.4456 38.3862 48.8723 38.3862 49.4301V49.4331Z" fill="#832A2E"/>
<path d="M48.887 52.2464H47.4077V49.3752C47.4077 48.7687 47.3743 48.3755 47.3137 48.1987C47.25 48.0189 47.147 47.8817 47.0045 47.7842C46.862 47.6866 46.6922 47.6348 46.4922 47.6348C46.2375 47.6348 46.0071 47.7049 45.801 47.8482C45.5979 47.9884 45.4585 48.1774 45.3827 48.409C45.3069 48.6407 45.2705 49.0735 45.2705 49.7014V52.2495H43.7912V46.6259H45.1644V47.4519C45.6525 46.8149 46.2679 46.4979 47.0075 46.4979C47.3349 46.4979 47.635 46.5558 47.9018 46.6747C48.1716 46.7936 48.3777 46.9429 48.5171 47.1289C48.6566 47.3117 48.7536 47.522 48.8082 47.7537C48.8627 47.9853 48.89 48.3206 48.89 48.7534V52.2495L48.887 52.2464Z" fill="#832A2E"/>
<path d="M50.2511 52.6152L51.9426 52.8225C51.9699 53.0206 52.0366 53.1547 52.1366 53.2309C52.276 53.3376 52.4973 53.3894 52.8005 53.3894C53.1855 53.3894 53.4765 53.3315 53.6705 53.2157C53.8008 53.1364 53.9009 53.0115 53.9645 52.8408C54.013 52.7158 54.0343 52.4903 54.0343 52.158V51.3381C53.5917 51.9447 53.0339 52.2495 52.3579 52.2495C51.6061 52.2495 51.012 51.9294 50.5724 51.2894C50.2299 50.7864 50.0571 50.1555 50.0571 49.4057C50.0571 48.4639 50.2814 47.7415 50.7331 47.2447C51.1847 46.7479 51.7456 46.4979 52.4155 46.4979C53.0854 46.4979 53.6765 46.8027 54.1252 47.4154V46.6259H55.5105V51.6734C55.5105 52.3379 55.456 52.8316 55.3468 53.1608C55.2377 53.49 55.0862 53.746 54.8891 53.935C54.6921 54.1209 54.4283 54.2672 54.1009 54.3739C53.7736 54.4806 53.3583 54.5324 52.855 54.5324C51.9062 54.5324 51.2363 54.3678 50.8392 54.0417C50.4421 53.7156 50.242 53.301 50.242 52.8012C50.242 52.7524 50.242 52.6914 50.248 52.6213L50.2511 52.6152ZM51.5728 49.3143C51.5728 49.9117 51.688 50.3475 51.9183 50.6249C52.1487 50.9023 52.4307 51.0394 52.7671 51.0394C53.1279 51.0394 53.434 50.8992 53.6856 50.6127C53.9342 50.3292 54.0585 49.9056 54.0585 49.3478C54.0585 48.79 53.9403 48.3328 53.7008 48.0493C53.4613 47.7659 53.1612 47.6257 52.7944 47.6257C52.4276 47.6257 52.1457 47.7659 51.9183 48.0433C51.688 48.3206 51.5728 48.7443 51.5728 49.3112V49.3143Z" fill="#832A2E"/>
<path d="M64.9231 49.3905L66.4357 49.8721C66.2023 50.7194 65.8173 51.3473 65.2808 51.7588C64.7412 52.1702 64.0591 52.3745 63.2315 52.3745C62.2069 52.3745 61.3642 52.0209 60.7034 51.3168C60.0425 50.6127 59.7121 49.6496 59.7121 48.4273C59.7121 47.135 60.0425 46.1322 60.7064 45.4159C61.3703 44.6996 62.2403 44.343 63.3225 44.343C64.2683 44.343 65.0352 44.6234 65.6233 45.1843C65.975 45.5165 66.2387 45.992 66.4145 46.6138L64.8715 46.9856C64.7806 46.5833 64.5896 46.2663 64.2986 46.0316C64.0076 45.8 63.6559 45.6811 63.2437 45.6811C62.6707 45.6811 62.2069 45.8883 61.8492 46.2998C61.4946 46.7113 61.3157 47.3819 61.3157 48.3084C61.3157 49.2899 61.4915 49.9879 61.8432 50.4055C62.1948 50.823 62.6495 51.0303 63.2103 51.0303C63.6256 51.0303 63.9803 50.8992 64.2804 50.6341C64.5805 50.3689 64.7927 49.9513 64.9231 49.3844V49.3905Z" fill="#832A2E"/>
<path d="M67.4209 49.3539C67.4209 48.8601 67.5422 48.3816 67.7816 47.9183C68.0241 47.455 68.3667 47.1045 68.8123 46.8606C69.2579 46.6168 69.752 46.4949 70.3007 46.4949C71.1465 46.4949 71.8407 46.7722 72.3803 47.3239C72.9198 47.8756 73.1927 48.5736 73.1927 49.4179C73.1927 50.2622 72.9198 50.9754 72.3742 51.5332C71.8285 52.094 71.1434 52.3714 70.3128 52.3714C69.8005 52.3714 69.3125 52.2556 68.8456 52.0209C68.3818 51.7892 68.0272 51.4448 67.7847 50.9967C67.5452 50.5456 67.4239 50.0001 67.4239 49.3539H67.4209ZM68.9366 49.4331C68.9366 49.9909 69.0669 50.4176 69.3307 50.7133C69.5944 51.0089 69.9188 51.1583 70.3068 51.1583C70.6948 51.1583 71.0161 51.0089 71.2768 50.7133C71.5406 50.4176 71.6709 49.9848 71.6709 49.4209C71.6709 48.8571 71.5406 48.4456 71.2768 48.1499C71.0161 47.8543 70.6918 47.7049 70.3068 47.7049C69.9218 47.7049 69.5974 47.8543 69.3307 48.1499C69.0669 48.4456 68.9366 48.8723 68.9366 49.4301V49.4331Z" fill="#832A2E"/>
<path d="M74.2416 46.6198H75.6057V47.3879C76.0938 46.7905 76.6758 46.4918 77.3488 46.4918C77.7065 46.4918 78.0187 46.565 78.2824 46.7143C78.5462 46.8637 78.7614 47.0862 78.9311 47.3879C79.1767 47.0862 79.4404 46.8637 79.7254 46.7143C80.0103 46.565 80.3135 46.4918 80.6378 46.4918C81.0471 46.4918 81.3957 46.5741 81.6806 46.7418C81.9656 46.9094 82.1778 47.1563 82.3172 47.4794C82.4173 47.7202 82.4718 48.1073 82.4718 48.6437V52.2403H80.9895V49.0247C80.9895 48.4669 80.9379 48.1073 80.8379 47.9427C80.6985 47.7323 80.4893 47.6257 80.2043 47.6257C79.9982 47.6257 79.8012 47.6897 79.6193 47.8177C79.4344 47.9457 79.304 48.1316 79.2252 48.3755C79.1433 48.6224 79.1039 49.0095 79.1039 49.5368V52.2373H77.6246V49.1558C77.6246 48.6071 77.5973 48.2566 77.5458 48.0951C77.4943 47.9366 77.4124 47.8177 77.3003 47.7415C77.1881 47.6622 77.0396 47.6257 76.8486 47.6257C76.6182 47.6257 76.4151 47.6866 76.2332 47.8116C76.0483 47.9366 75.921 48.1133 75.8422 48.348C75.7633 48.5797 75.7239 48.9668 75.7239 49.5063V52.2403H74.2446V46.6168L74.2416 46.6198Z" fill="#832A2E"/>
<path d="M83.8329 46.6198H85.197V47.3879C85.6851 46.7905 86.2671 46.4918 86.9401 46.4918C87.2978 46.4918 87.61 46.565 87.8737 46.7143C88.1375 46.8637 88.3527 47.0862 88.5224 47.3879C88.768 47.0862 89.0317 46.8637 89.3167 46.7143C89.6016 46.565 89.9048 46.4918 90.2291 46.4918C90.6384 46.4918 90.987 46.5741 91.2719 46.7418C91.5569 46.9094 91.7691 47.1563 91.9085 47.4794C92.0085 47.7202 92.0631 48.1073 92.0631 48.6437V52.2403H90.5808V49.0247C90.5808 48.4669 90.5292 48.1073 90.4292 47.9427C90.2897 47.7323 90.0806 47.6257 89.7956 47.6257C89.5895 47.6257 89.3925 47.6897 89.2106 47.8177C89.0257 47.9457 88.8953 48.1316 88.8165 48.3755C88.7347 48.6224 88.6952 49.0095 88.6952 49.5368V52.2373H87.2159V49.1558C87.2159 48.6071 87.1886 48.2566 87.1371 48.0951C87.0856 47.9366 87.0037 47.8177 86.8916 47.7415C86.7794 47.6622 86.6309 47.6257 86.4399 47.6257C86.2095 47.6257 86.0064 47.6866 85.8245 47.8116C85.6396 47.9366 85.5123 48.1133 85.4335 48.348C85.3546 48.5797 85.3152 48.9668 85.3152 49.5063V52.2403H83.8359V46.6168L83.8329 46.6198Z" fill="#832A2E"/>
<path d="M93.1938 49.3539C93.1938 48.8601 93.3151 48.3816 93.5546 47.9183C93.7971 47.455 94.1396 47.1045 94.5852 46.8606C95.0309 46.6168 95.525 46.4949 96.0737 46.4949C96.9194 46.4949 97.6136 46.7722 98.1532 47.3239C98.6928 47.8756 98.9656 48.5736 98.9656 49.4179C98.9656 50.2622 98.6928 50.9754 98.1471 51.5332C97.6015 52.094 96.9164 52.3714 96.0858 52.3714C95.5735 52.3714 95.0854 52.2556 94.6186 52.0209C94.1548 51.7892 93.8001 51.4448 93.5576 50.9967C93.3181 50.5456 93.1969 50.0001 93.1969 49.3539H93.1938ZM94.7095 49.4331C94.7095 49.9909 94.8399 50.4176 95.1036 50.7133C95.3674 51.0089 95.6917 51.1583 96.0797 51.1583C96.4677 51.1583 96.7891 51.0089 97.0498 50.7133C97.3135 50.4176 97.4438 49.9848 97.4438 49.4209C97.4438 48.8571 97.3135 48.4456 97.0498 48.1499C96.7891 47.8543 96.4647 47.7049 96.0797 47.7049C95.6947 47.7049 95.3704 47.8543 95.1036 48.1499C94.8399 48.4456 94.7095 48.8723 94.7095 49.4301V49.4331Z" fill="#832A2E"/>
<path d="M105.256 52.2466H103.88V51.4206C103.649 51.7406 103.382 51.9814 103.07 52.1369C102.758 52.2923 102.446 52.3716 102.13 52.3716C101.488 52.3716 100.936 52.1125 100.478 51.5913C100.021 51.0701 99.7902 50.3447 99.7902 49.412C99.7902 48.4793 100.011 47.7325 100.457 47.2388C100.903 46.742 101.467 46.4951 102.149 46.4951C102.773 46.4951 103.313 46.7572 103.77 47.2784V44.4834H105.253V52.2466H105.256ZM101.306 49.3114C101.306 49.9119 101.388 50.3477 101.554 50.6159C101.794 51.003 102.127 51.1981 102.555 51.1981C102.897 51.1981 103.185 51.0518 103.425 50.7622C103.661 50.4696 103.783 50.0338 103.783 49.4577C103.783 48.8115 103.667 48.3452 103.437 48.0617C103.207 47.7783 102.909 47.635 102.546 47.635C102.182 47.635 101.9 47.7752 101.664 48.0556C101.427 48.3361 101.309 48.7567 101.309 49.3145L101.306 49.3114Z" fill="#832A2E"/>
<path d="M106.714 45.858V44.4803H108.193V45.858H106.714ZM106.714 52.2436V46.62H108.193V52.2436H106.714Z" fill="#832A2E"/>
<path d="M112.273 46.6199V47.8055H111.261V50.0732C111.261 50.5335 111.27 50.8017 111.288 50.8748C111.309 50.951 111.352 51.0151 111.419 51.0638C111.488 51.1126 111.573 51.137 111.67 51.137C111.807 51.137 112.007 51.0882 112.267 50.9937L112.395 52.1489C112.049 52.2983 111.661 52.3714 111.225 52.3714C110.958 52.3714 110.718 52.3257 110.503 52.2373C110.288 52.1459 110.133 52.03 110.033 51.8868C109.933 51.7435 109.863 51.5485 109.827 51.3077C109.794 51.1339 109.779 50.7865 109.779 50.2592V47.8086H109.1V46.6229H109.779V45.5073L111.264 44.6387V46.6229H112.276L112.273 46.6199Z" fill="#832A2E"/>
<path d="M113.301 45.858V44.4803H114.78V45.858H113.301ZM113.301 52.2436V46.62H114.78V52.2436H113.301Z" fill="#832A2E"/>
<path d="M119.537 50.4542L121.01 50.7041C120.822 51.2467 120.522 51.6612 120.113 51.9447C119.703 52.2281 119.191 52.3714 118.579 52.3714C117.606 52.3714 116.884 52.0513 116.42 51.4143C116.051 50.9023 115.866 50.2561 115.866 49.4758C115.866 48.5431 116.108 47.8147 116.593 47.2874C117.078 46.76 117.691 46.4949 118.43 46.4949C119.264 46.4949 119.919 46.7722 120.401 47.3239C120.883 47.8756 121.113 48.723 121.092 49.8629H117.384C117.393 50.3049 117.515 50.6462 117.742 50.8931C117.972 51.14 118.254 51.2619 118.597 51.2619C118.83 51.2619 119.024 51.1979 119.182 51.0729C119.34 50.9449 119.461 50.7407 119.54 50.4573L119.537 50.4542ZM119.622 48.9516C119.612 48.5218 119.5 48.1926 119.291 47.9701C119.082 47.7446 118.824 47.6318 118.521 47.6318C118.197 47.6318 117.933 47.7506 117.721 47.9884C117.512 48.2231 117.406 48.5462 117.409 48.9516H119.622Z" fill="#832A2E"/>
<path d="M121.774 50.6401L123.259 50.4115C123.323 50.7011 123.45 50.9206 123.644 51.0699C123.838 51.2193 124.108 51.2954 124.457 51.2954C124.839 51.2954 125.127 51.2254 125.321 51.0851C125.451 50.9876 125.515 50.8535 125.515 50.6889C125.515 50.5761 125.478 50.4816 125.408 50.4085C125.336 50.3384 125.169 50.2713 124.914 50.2134C123.72 49.9482 122.962 49.7075 122.644 49.488C122.204 49.1832 121.98 48.7626 121.98 48.2231C121.98 47.7354 122.171 47.327 122.553 46.9947C122.938 46.6625 123.529 46.4979 124.335 46.4979C125.142 46.4979 125.669 46.6229 126.042 46.8728C126.415 47.1228 126.67 47.4946 126.809 47.9853L125.415 48.2444C125.357 48.025 125.242 47.8573 125.075 47.7415C124.908 47.6257 124.672 47.5678 124.363 47.5678C123.975 47.5678 123.696 47.6226 123.526 47.7324C123.414 47.8116 123.356 47.9122 123.356 48.0341C123.356 48.1408 123.405 48.2292 123.502 48.3054C123.635 48.4029 124.096 48.5431 124.884 48.723C125.672 48.9028 126.221 49.1253 126.536 49.3844C126.845 49.6495 127 50.0183 127 50.4908C127 51.0059 126.785 51.4509 126.357 51.8197C125.93 52.1916 125.296 52.3744 124.457 52.3744C123.693 52.3744 123.092 52.219 122.647 51.9081C122.201 51.5972 121.913 51.1766 121.774 50.6432V50.6401Z" fill="#832A2E"/>
<path d="M102.873 27.5852C100.199 27.5852 81.1713 27.5242 81.1713 27.5242V9.29726H102.667C103.031 9.29726 103.367 9.26678 103.686 9.21497C109.09 8.35848 107.614 0.558693 107.614 0.558693L81.4533 0.546501C77.8732 0.546501 77.1396 0.546501 77.1396 0.546501L72.35 0.540405V13.9485H54.195V0.540405H45.4918V27.3596H27.4308V5.69455C27.4308 -0.934819 18.7307 0.72938 18.7307 0.72938V27.5486L18.764 27.6309C18.664 29.0817 18.4427 36.0982 23.7295 36.0982H24.7995L24.839 36.1531H45.6222C49.5721 36.1531 49.5721 31.4835 49.5721 31.4835V36.1531H54.1919V22.9035H72.347V36.3176H107.817C107.817 36.3176 109.472 27.5852 102.87 27.5852H102.873Z" fill="url(#paint0_linear_302_908)"/>
<path d="M81.2411 9.33995V9.30032H102.694C103.061 9.30032 103.395 9.2668 103.707 9.21803C109.103 8.3585 107.629 0.564801 107.629 0.564801L72.4349 0.549561V13.9455H45.6313V27.3474H18.9247V27.5334L18.9581 27.6157C18.858 29.0696 18.6367 36.0799 23.9113 36.0799H24.9784L25.0178 36.1348H45.7586C49.6994 36.1348 49.6994 31.4683 49.6994 31.4683V36.1348H54.3132V22.8943H81.235V9.33995H81.2411Z" fill="#231F20"/>
<defs>
<linearGradient id="paint0_linear_302_908" x1="18.7307" y1="18.429" x2="108.005" y2="18.429" gradientUnits="userSpaceOnUse">
<stop stop-color="#231F20"/>
<stop offset="0.39" stop-color="#3E3D3F"/>
<stop offset="0.77" stop-color="#545457"/>
<stop offset="1" stop-color="#5C5D60"/>
</linearGradient>
</defs>
</svg>
