<svg width="106" height="183" viewBox="0 0 106 183" fill="none" xmlns="http://www.w3.org/2000/svg">
<g clip-path="url(#clip0_270_3588)">
<path d="M93.0926 0H12.4398C5.31406 0 0 5.12114 0 11.4369V171.56C0 177.876 5.31406 182.997 12.4398 182.997H93.0926C100.222 182.997 105.997 177.876 105.997 171.56V11.4369C105.997 5.12114 100.218 0 93.0926 0ZM53 169.383C49.0561 169.383 45.8612 166.194 45.8612 162.258C45.8612 158.321 49.0561 155.132 53 155.132C56.9439 155.132 60.1388 158.321 60.1388 162.258C60.1388 166.194 56.9406 169.383 53 169.383ZM94.5412 148.686H11.4588V14.2961H94.538V148.686H94.5412Z" fill="white"/>
<path d="M26.9692 72.6718L26.374 69.6885C26.7861 69.7864 27.0967 69.8386 27.3028 69.8386C27.5088 69.8386 27.8358 69.7864 28.2642 69.6787L27.7475 72.662L30.4618 71.2324C30.4912 71.8721 30.671 72.4629 31.0013 73.0047L27.9797 73.3931L30.1217 75.531C29.5494 75.7888 29.0687 76.1674 28.6795 76.6636L27.3158 73.9088L25.9881 76.6505C25.5761 76.1642 25.0757 75.7921 24.4871 75.5408L26.6618 73.3931L23.6401 73.0047C23.9835 72.4857 24.1895 71.9047 24.2582 71.2552L26.9725 72.6718H26.9692Z" fill="white"/>
<path d="M37.1035 72.6718L36.5083 69.6885C36.9203 69.7864 37.231 69.8386 37.437 69.8386C37.6431 69.8386 37.9701 69.7864 38.3985 69.6787L37.8818 72.662L40.596 71.2324C40.6255 71.8721 40.8053 72.4629 41.1356 73.0047L38.114 73.3931L40.2559 75.531C39.6837 75.7888 39.2029 76.1674 38.8138 76.6636L37.4501 73.9088L36.1224 76.6505C35.7104 76.1642 35.21 75.7921 34.6214 75.5408L36.7961 73.3931L33.7744 73.0047C34.1178 72.4857 34.3238 71.9047 34.3925 71.2552L37.1067 72.6718H37.1035Z" fill="white"/>
<path d="M47.2343 72.6718L46.6392 69.6885C47.0512 69.7864 47.3619 69.8386 47.5679 69.8386C47.7739 69.8386 48.1009 69.7864 48.5293 69.6787L48.0126 72.662L50.7269 71.2324C50.7563 71.8721 50.9362 72.4629 51.2665 73.0047L48.2448 73.3931L50.3868 75.531C49.8145 75.7888 49.3338 76.1674 48.9446 76.6636L47.581 73.9088L46.2533 76.6505C45.8412 76.1642 45.3409 75.7921 44.7523 75.5408L46.9269 73.3931L43.9053 73.0047C44.2486 72.4857 44.4547 71.9047 44.5233 71.2552L47.2376 72.6718H47.2343Z" fill="white"/>
<path d="M57.3691 72.6718L56.7739 69.6885C57.186 69.7864 57.4966 69.8386 57.7027 69.8386C57.9087 69.8386 58.2357 69.7864 58.6641 69.6787L58.1474 72.662L60.8617 71.2324C60.8911 71.8721 61.0709 72.4629 61.4012 73.0047L58.3796 73.3931L60.5216 75.531C59.9493 75.7888 59.4686 76.1674 59.0794 76.6636L57.7157 73.9088L56.388 76.6505C55.976 76.1642 55.4757 75.7921 54.887 75.5408L57.0617 73.3931L54.04 73.0047C54.3834 72.4857 54.5894 71.9047 54.6581 71.2552L57.3724 72.6718H57.3691Z" fill="white"/>
<path d="M67.5034 72.6718L66.9082 69.6885C67.3202 69.7864 67.6309 69.8386 67.8369 69.8386C68.043 69.8386 68.37 69.7864 68.7984 69.6787L68.2817 72.662L70.9959 71.2324C71.0254 71.8721 71.2052 72.4629 71.5355 73.0047L68.5139 73.3931L70.6558 75.531C70.0836 75.7888 69.6028 76.1674 69.2137 76.6636L67.85 73.9088L66.5223 76.6505C66.1103 76.1642 65.6099 75.7921 65.0213 75.5408L67.196 73.3931L64.1743 73.0047C64.5177 72.4857 64.7237 71.9047 64.7924 71.2552L67.5066 72.6718H67.5034Z" fill="white"/>
<path d="M77.6347 72.6718L77.0395 69.6885C77.4516 69.7864 77.7623 69.8386 77.9683 69.8386C78.1743 69.8386 78.5013 69.7864 78.9297 69.6787L78.413 72.662L81.1273 71.2324C81.1567 71.8721 81.3366 72.4629 81.6669 73.0047L78.6452 73.3931L80.7872 75.531C80.2149 75.7888 79.7342 76.1674 79.345 76.6636L77.9814 73.9088L76.6537 76.6505C76.2416 76.1642 75.7413 75.7921 75.1526 75.5408L77.3273 73.3931L74.3057 73.0047C74.649 72.4857 74.8551 71.9047 74.9237 71.2552L77.638 72.6718H77.6347Z" fill="white"/>
<path d="M48.7714 53.0747H57.1169C57.4962 53.0747 57.8036 52.7678 57.8036 52.3892V45.6949C57.8036 45.3162 57.4962 45.0094 57.1169 45.0094H50.7989V44.2979C50.825 43.1588 51.7669 42.2547 52.9082 42.2775C53.8238 42.271 54.6381 42.852 54.9291 43.7169C55.0174 43.9976 55.315 44.1543 55.5962 44.0661C55.6322 44.0531 55.6682 44.04 55.7042 44.0205L55.9789 43.8605C56.198 43.7332 56.2993 43.4688 56.2176 43.2306C55.5734 41.4126 53.572 40.4627 51.7538 41.109C50.3934 41.5921 49.4679 42.8585 49.4287 44.3012V45.0127H48.7746C48.3953 45.0127 48.0879 45.3195 48.0879 45.6981V52.3925C48.0879 52.7711 48.3953 53.0779 48.7746 53.0779L48.7714 53.0747ZM52.2574 48.0221C52.2574 47.6434 52.5648 47.3366 52.9441 47.3366C53.3235 47.3366 53.6309 47.6434 53.6309 48.0221V50.0588C53.6309 50.4374 53.3235 50.7442 52.9441 50.7442C52.5648 50.7442 52.2574 50.4374 52.2574 50.0588V48.0221Z" fill="white"/>
<path d="M63.0394 37.4865C62.9675 37.4212 62.8857 37.369 62.7974 37.3331L62.405 37.1797C56.329 34.7643 49.5597 34.7643 43.4837 37.1797L43.3921 37.2156C42.7021 37.4897 42.2541 38.1556 42.2573 38.8965V53.754C42.2573 54.3089 42.532 54.8311 42.9931 55.1412L52.0679 61.2448C52.5944 61.6005 53.2844 61.6005 53.8109 61.2448L62.8595 55.1608C63.3403 54.8376 63.6248 54.2958 63.6248 53.7181V38.2568C63.6248 37.8977 63.3828 37.5811 63.0361 37.4897L63.0394 37.4865ZM43.827 38.8475C43.827 38.7855 43.8663 38.7268 43.9251 38.7039C49.7199 36.4028 56.1753 36.4028 61.9701 38.7039L62.0682 38.7431V53.7116C62.0682 53.7638 62.042 53.8128 61.9995 53.8389L53.0326 59.8674C52.9803 59.9033 52.9149 59.9033 52.8626 59.8674L43.8957 53.8389C43.8532 53.8095 43.827 53.7605 43.827 53.7116V38.8475Z" fill="white"/>
</g>
<defs>
<clipPath id="clip0_270_3588">
<rect width="106" height="183" fill="white"/>
</clipPath>
</defs>
</svg>
