<svg width="169" height="325" viewBox="0 0 169 325" fill="none" xmlns="http://www.w3.org/2000/svg">
<g clip-path="url(#clip0_270_5497)">
<mask id="mask0_270_5497" style="mask-type:luminance" maskUnits="userSpaceOnUse" x="0" y="0" width="169" height="169">
<path d="M14.4604 0H154.534C162.514 0 168.994 6.48071 168.994 14.4604V154.534C168.994 162.514 162.514 168.994 154.534 168.994H14.4604C6.48071 168.994 0 162.514 0 154.534V14.4604C0 6.48071 6.48071 0 14.4604 0Z" fill="white"/>
</mask>
<g mask="url(#mask0_270_5497)">
<path opacity="0.41" d="M14.4603 0.550781H154.534C162.211 0.550781 168.443 6.78351 168.443 14.4601V154.534C168.443 162.21 162.211 168.443 154.534 168.443H14.4603C6.78375 168.443 0.551025 162.21 0.551025 154.534V14.4601C0.551025 6.78351 6.78375 0.550781 14.4603 0.550781Z" fill="url(#paint0_linear_270_5497)"/>
<path d="M14.4603 0.550781H154.534C162.211 0.550781 168.443 6.78351 168.443 14.4601V154.534C168.443 162.21 162.211 168.443 154.534 168.443H14.4603C6.78375 168.443 0.551025 162.21 0.551025 154.534V14.4601C0.551025 6.78351 6.78375 0.550781 14.4603 0.550781Z" stroke="url(#paint1_linear_270_5497)" stroke-width="2" stroke-miterlimit="10"/>
<path opacity="0.2" d="M132.265 49.7788C144.637 49.7788 156.733 50.9526 168.449 53.19V14.4601C168.449 6.778 162.222 0.550781 154.54 0.550781H14.4603C6.77824 0.550781 0.551025 6.778 0.551025 14.4601V102.236C34.8834 69.7225 81.2458 49.7788 132.265 49.7788Z" fill="url(#paint2_linear_270_5497)"/>
<path opacity="0.72" d="M69.6566 176.473C110.476 176.473 143.568 172.881 143.568 168.45C143.568 164.018 110.476 160.426 69.6566 160.426C28.8367 160.426 -4.25439 164.018 -4.25439 168.45C-4.25439 172.881 28.8367 176.473 69.6566 176.473Z" fill="url(#paint3_radial_270_5497)"/>
<path opacity="0.61" d="M114.873 168.449C114.873 170.378 94.6261 171.938 69.6566 171.938C44.6871 171.938 24.4404 170.373 24.4404 168.449C24.4404 166.526 44.6871 164.961 69.6566 164.961C94.6261 164.961 114.873 166.526 114.873 168.449Z" fill="url(#paint4_radial_270_5497)"/>
<path opacity="0.61" d="M34.8117 4.95987C53.7334 4.95987 69.0724 2.98605 69.0724 0.551226C69.0724 -1.8836 53.7334 -3.85742 34.8117 -3.85742C15.8901 -3.85742 0.551025 -1.8836 0.551025 0.551226C0.551025 2.98605 15.8901 4.95987 34.8117 4.95987Z" fill="url(#paint5_radial_270_5497)"/>
</g>
</g>
<g clip-path="url(#clip1_270_5497)">
<path d="M90.1166 49.6655C90.111 49.5931 90.1054 49.4928 90.0999 49.3926C90.0999 49.3926 90.1054 49.5095 90.1166 49.6655Z" fill="#EEC17B"/>
<path d="M56.6344 104.667C56.0042 105.034 55.8982 105.502 55.4297 105.396C54.9556 105.291 55.0616 105.814 55.2735 107.229C55.4855 108.644 55.6918 109.111 56.4281 110.053C57.1587 110.994 57.2145 111.623 57.6328 111.412C57.6328 111.412 57.6719 111.428 57.7165 111.389C57.644 112.425 57.6719 113.601 57.5269 114.553C57.3707 115.6 57.2647 116.335 57.1587 117.121C57.0528 117.906 57.3149 118.797 57.6328 119.477C57.934 120.134 58.291 121.37 59.3898 123.281C59.3898 123.626 59.4176 123.977 59.4678 124.345C59.8862 125.704 60.6224 126.545 60.9347 127.592C61.2471 128.639 61.8773 131.151 61.9833 132.827C62.0893 134.504 62.4016 139.634 62.4016 146.022C62.4016 152.411 62.0893 165.6 62.2957 168.323C62.5076 171.047 63.2383 173.453 63.0319 175.336C62.82 177.218 61.671 179.836 61.8774 182.248C62.0893 184.659 63.1379 187.066 63.2383 188.948C63.3442 190.831 62.714 193.242 62.0837 194.813C61.4535 196.384 61.1411 196.384 61.3475 199.107C61.5594 201.831 62.1841 203.819 62.2901 204.866C62.3459 205.44 62.3124 205.791 62.4574 205.841C62.1395 206.331 61.3475 207.423 60.4551 207.746C59.3005 208.164 57.6774 208.375 57.6217 210.575C57.4097 210.887 57.0472 211.361 57.7276 211.834C59.5125 211.94 63.1267 212.62 66.0103 212.62C68.8939 212.62 69.7863 212.464 69.7863 211.99C70.4166 212.252 70.6285 212.252 70.6285 212.252C70.6285 212.252 72.2014 212.146 72.7759 211.99C73.3504 211.834 73.4062 211.467 73.3002 210.943C73.1998 210.436 73.3392 208.81 73.0213 208.275C73.0938 208.197 73.1552 207.88 73.4062 207.172C73.9305 205.707 75.3973 203.402 75.8157 202.043C76.234 200.684 76.234 199.742 75.5033 198.589C74.7727 197.436 74.7727 196.807 74.7727 195.136C74.7727 193.465 74.6667 190.112 74.7727 187.806C74.8786 185.5 74.979 180.688 75.085 177.547C75.191 174.406 75.5033 170.635 75.8212 167.911C76.1336 165.188 76.1336 159.846 76.7639 157.858C77.3941 155.869 77.8124 153.458 78.2307 151.469C78.6491 149.481 78.3367 147.91 78.967 145.499C79.5192 143.388 79.3463 142.324 79.5749 140.614C79.7088 139.99 79.9263 139.038 80.1215 138.325C80.1773 138.13 80.2275 137.913 80.2833 137.695C80.5566 136.865 80.7964 136.141 80.8578 134.922C80.9414 133.223 81.4434 131.251 82.0179 131.569C82.7486 132.098 83.3231 136.648 83.3231 136.648C83.3231 136.648 83.3342 136.581 83.3454 136.476C83.7023 138.848 84.0314 141.722 84.3214 144.234C84.8457 148.735 84.2155 158.788 85.0521 162.559C85.8887 166.329 85.9389 171.738 86.2569 174.773C86.5692 177.809 86.5246 186.119 86.625 189.466C86.7309 192.819 85.6824 196.902 85.8887 199.308C86.1007 201.714 86.9373 203.808 87.0433 205.173C87.1493 206.532 87.0433 207.791 87.0433 207.791C87.0433 207.791 87.127 207.791 87.2664 207.779C87.2664 207.779 87.2664 207.785 87.2608 207.791C86.9541 208.219 86.519 209.033 86.7309 209.991C86.7811 210.408 86.731 211.038 86.9931 211.3C87.2552 211.561 91.3994 212.191 91.3994 212.191L94.3889 211.667C94.3889 211.667 94.5451 212.035 94.9132 212.558C95.2813 213.082 96.1738 213.238 99.5816 213.188C102.99 213.138 107.39 212.614 108.757 212.352C110.118 212.09 110.542 211.361 110.224 210.832C109.911 210.308 109.961 209.629 109.331 209.049C108.701 208.476 107.864 208.314 106.503 208.314C105.276 208.314 102.7 208.86 100.435 205.63C100.446 205.596 100.413 205.49 100.128 205.167C100.061 205.061 100 204.956 99.933 204.844C99.682 202.672 100.926 202.661 100.619 201.224C100.301 199.759 100.212 197.72 99.6876 196.568C99.1633 195.415 99.7713 191.978 99.8717 189.678C99.9721 187.377 99.498 180.193 99.7099 176.322C99.9219 172.445 99.1856 166.268 99.498 163.233C99.8103 160.197 100.574 150.105 101.199 143.299C101.829 136.492 101.361 133.435 103.402 128.639C104.027 127.169 105.248 125.509 105.226 123.403C105.232 123.448 105.237 123.47 105.237 123.47C105.237 123.47 105.661 122.512 106.498 120.212C107.334 117.906 107.703 116.965 107.753 115.706C107.803 114.447 108.065 112.509 108.589 110.732C108.935 109.557 109.259 108.387 109.454 107.619C109.582 107.68 109.789 107.686 109.967 107.669C110.357 107.674 110.385 107.597 110.793 107.229C111.317 106.755 111.841 106.655 112.315 105.135C112.789 103.614 113.732 101.002 113.258 101.264C112.789 101.525 112.053 100.584 112.053 100.584C112.053 100.584 111.947 101.214 112.003 99.2753C112.053 97.337 112.053 93.5663 112.109 91.1602C112.159 88.7541 112.053 84.0421 111.267 77.8095C110.48 71.5825 109.75 66.2412 108.857 63.991C108.037 61.919 106.459 60.4653 103.676 59.0618C103.676 59.0228 103.67 58.9894 103.67 58.9615C102.465 58.1762 94.8073 54.8232 93.7085 54.2996C93.2902 54.1437 93.3404 54.4556 93.3404 54.4556L92.6041 54.0379C92.0296 53.4085 91.5555 50.8965 91.1874 50.3228C90.8249 49.7492 90.111 49.3927 90.1054 49.3927C90.111 49.4874 90.1165 49.5876 90.1221 49.6656C90.111 49.5097 90.1054 49.3927 90.1054 49.3927C90.044 48.3456 90.0775 46.1845 90.3508 45.8225C90.7691 44.9313 91.2934 43.9399 91.6615 42.5753C92.13 42.9429 93.0224 42.3692 93.4965 41.6842C93.9706 41.0047 94.6511 39.9576 94.3889 38.437C94.1268 36.9165 93.2344 36.8162 93.2344 36.8162C93.4463 36.1367 93.2344 34.4602 92.8161 33.1513C92.3978 31.8424 92.0296 30.7953 90.9309 29.4864C89.8321 28.1775 89.0958 27.8099 88.2034 27.3922C87.311 26.9745 86.3684 26.5512 85.476 26.3952C84.5836 26.2393 83.7972 26.0276 81.8562 26.0833C79.9152 26.1335 78.7606 27.3922 78.2921 28.0216C77.818 28.651 76.8252 29.2247 75.0962 31.9483C73.3671 34.6719 75.046 38.1251 75.1464 39.5899C74.4157 40.2193 75.2021 42.0518 75.3583 43.3105C75.5145 44.5693 76.3009 44.2518 76.6188 43.9399C77.2491 46.14 78.0857 46.9253 78.2977 47.6605C78.4483 48.1785 78.4092 49.9552 78.3758 50.9689C78.3758 51.0469 78.3758 51.1249 78.3702 51.1917C78.3535 51.0692 78.3758 50.9745 78.3758 50.9745C77.9073 51.0246 77.9296 51.7988 77.8236 52.6343C77.7176 53.4697 77.5614 54.2551 77.0874 55.5138C77.0929 55.5194 77.1041 55.5305 77.1097 55.5361C77.1097 55.5361 77.1041 55.5417 77.0985 55.5417C77.0985 55.5417 77.0929 55.5417 77.0874 55.5361C77.0874 55.525 77.0874 55.5138 77.0874 55.5138C77.0874 55.5138 74.0978 57.1346 72.1066 57.92C70.1154 58.7053 66.4454 60.6436 66.1274 61.0112C66.1274 61.0112 66.1386 61.1337 66.1665 61.3454C66.1386 61.3621 66.1107 61.3788 66.0884 61.3955C65.9267 61.4568 65.3354 61.6907 64.9785 62.0082C64.8781 62.0917 64.839 62.1641 64.839 62.2254C64.0303 62.8548 63.2941 63.6624 62.5132 65.0437C60.9403 67.8174 61.3084 69.8615 60.9403 73.1588C60.5722 76.4561 58.6312 86.7712 57.7444 91.9511C56.852 97.1365 56.852 103.313 56.9022 104.099C56.9245 104.444 56.997 104.528 57.0193 104.539C56.997 104.533 56.8966 104.522 56.64 104.672L56.6344 104.667ZM101.355 104.929C101.043 102.884 100.987 99.0135 100.725 96.134C100.463 93.2544 100.675 92.625 100.463 91.6336C100.251 90.6366 100.151 90.5364 100.519 89.4336C100.887 88.3363 101.305 87.6011 101.249 85.6629C101.238 85.3398 101.227 84.9388 101.21 84.4876C101.255 84.5879 101.288 84.6881 101.327 84.794C101.461 85.7018 101.562 85.8856 101.623 86.4983C101.668 86.9662 101.696 87.5733 101.707 88.1135C101.712 88.4756 101.718 88.8487 101.723 89.2219C101.723 89.35 101.723 89.4391 101.723 89.4781C101.723 89.5004 101.723 89.5004 101.729 89.4837C101.74 89.8123 101.751 90.1409 101.774 90.4695C101.93 92.7197 101.986 93.9228 102.404 94.8696C102.822 95.8109 102.722 97.4373 102.666 98.0611C102.616 98.6905 102.878 99.6318 102.616 99.9994C102.354 100.367 101.885 99.9994 101.885 99.9994C101.885 99.9994 101.885 100.417 102.092 101.676C102.303 102.935 102.354 103.247 102.51 104.188C102.666 105.129 102.616 106.07 102.722 106.544C102.739 106.616 102.766 106.683 102.8 106.75C102.889 107.056 103.62 107.524 103.62 107.524C103.62 107.524 103.597 107.312 103.558 106.967H103.564C103.77 108.688 103.971 111.829 103.821 112.62C103.609 113.723 103.14 114.77 102.51 115.394C102.053 115.845 101.818 116.09 101.818 116.09C101.818 116.09 101.852 116.146 101.907 116.235C101.729 115.985 101.556 115.751 101.406 115.545C100.251 113.974 100.463 112.297 100.463 111.568C100.463 111.334 100.396 111.039 100.307 110.755V110.732C100.173 110.331 100.006 109.952 99.9107 109.741C100.641 109.668 101.35 109.607 101.617 109.262C101.986 108.788 101.668 106.956 101.355 104.917V104.929ZM65.6534 103.831C65.8597 102.834 66.49 98.49 66.596 97.4986C66.7019 96.5071 66.278 96.3456 66.6462 95.1426C67.0143 93.9395 67.4828 94.3071 67.4828 92.9425C67.4828 91.5779 68.1633 91.3718 67.8509 90.5364C67.8398 90.503 67.8286 90.4807 67.8174 90.4473C67.8007 90.3414 67.784 90.2133 67.7673 90.0797C67.9959 90.6366 68.1911 90.8594 68.2692 91.5278C68.3752 92.419 68.1131 92.8367 68.0573 93.622C68.0071 94.4073 68.2135 94.9309 67.9513 95.5603C67.6892 96.1897 67.2708 96.5016 67.0087 97.6545C66.7466 98.8074 65.8542 104.305 65.804 105.402C65.7761 106.004 65.5753 106.856 65.3968 107.507C65.5028 106.594 65.5641 105.619 65.592 105.352C65.6422 104.878 65.4358 104.828 65.6422 103.831H65.6534ZM62.4016 110.949L62.3514 111.367C62.3514 111.367 63.4446 111.49 64.1028 111.2C64.153 111.183 64.1865 111.167 64.2088 111.144C64.259 111.117 64.3036 111.089 64.3482 111.055C64.9227 110.582 64.7665 109.797 65.0844 109.173C65.1514 109.039 65.2127 108.8 65.2629 108.516C65.4358 108.61 65.7816 108.777 66.2725 108.894C66.2334 108.994 66.2055 109.117 66.1832 109.273C66.1553 109.529 66.1219 109.735 66.0828 109.919C65.8263 110.983 65.3187 112.737 64.5044 114.091C64.0582 114.837 63.1992 115.673 62.3124 116.681C62.1674 116.469 61.9052 115.979 61.8327 115.188C61.7268 114.091 62.4072 110.949 62.4072 110.949H62.4016Z" fill="#EEC17B"/>
<path d="M110.787 317.04C110.38 316.673 110.352 316.595 109.962 316.6C109.783 316.584 109.577 316.589 109.448 316.651C109.253 315.882 108.93 314.707 108.584 313.537C108.06 311.755 107.798 309.817 107.747 308.563C107.697 307.305 107.329 306.363 106.492 304.057C105.65 301.757 105.232 300.799 105.232 300.799C105.232 300.799 105.232 300.821 105.221 300.866C105.243 298.761 104.022 297.101 103.397 295.63C101.355 290.835 101.824 287.777 101.194 280.971C100.563 274.165 99.8049 264.072 99.4926 261.037C99.1802 258.001 99.9109 251.824 99.7045 247.948C99.4925 244.077 99.9722 236.892 99.8663 234.592C99.7603 232.291 99.1523 228.855 99.6822 227.702C100.206 226.549 100.301 224.51 100.614 223.046C100.92 221.609 99.6766 221.597 99.9276 219.425C99.9945 219.314 100.056 219.202 100.123 219.102C100.402 218.774 100.435 218.673 100.43 218.64C102.688 215.409 105.271 215.955 106.498 215.955C107.859 215.955 108.701 215.799 109.326 215.22C109.956 214.646 109.9 213.961 110.218 213.438C110.531 212.914 110.112 212.179 108.751 211.917C107.39 211.655 102.984 211.132 99.5762 211.082C96.1683 211.026 95.2759 211.188 94.9078 211.711C94.5397 212.235 94.3835 212.602 94.3835 212.602L91.3939 212.079C91.3939 212.079 87.2498 212.708 86.9877 212.97C86.7255 213.232 86.7813 213.861 86.7255 214.279C86.5136 215.237 86.9486 216.05 87.2554 216.473C87.2554 216.473 87.2554 216.484 87.261 216.484C87.1215 216.473 87.0379 216.473 87.0379 216.473C87.0379 216.473 87.1438 217.732 87.0379 219.091C86.9319 220.456 86.0953 222.55 85.8833 224.956C85.6769 227.362 86.7255 231.45 86.6195 234.798C86.5136 238.151 86.5638 246.455 86.2514 249.491C85.9391 252.526 85.8889 257.934 85.0467 261.705C84.21 265.476 84.8347 275.524 84.316 280.03C84.0204 282.541 83.6969 285.415 83.3399 287.788C83.3288 287.682 83.3176 287.616 83.3176 287.616C83.3176 287.616 82.7487 292.166 82.0125 292.695C81.4324 293.013 80.936 291.041 80.8524 289.342C80.791 288.122 80.5512 287.398 80.2779 286.568C80.2221 286.351 80.1719 286.134 80.1161 285.939C79.9209 285.226 79.709 284.274 79.5695 283.65C79.3408 281.94 79.5137 280.876 78.9616 278.765C78.3313 276.359 78.6436 274.788 78.2253 272.794C77.807 270.806 77.3887 268.4 76.7584 266.406C76.1282 264.418 76.1282 259.076 75.8158 256.353C75.5035 253.629 75.1856 249.864 75.0796 246.717C74.9736 243.576 74.8676 238.758 74.7672 236.457C74.6613 234.152 74.7672 230.804 74.7672 229.128C74.7672 227.451 74.7672 226.822 75.4979 225.674C76.2341 224.521 76.2341 223.58 75.8102 222.221C75.3919 220.862 73.925 218.556 73.4007 217.091C73.1442 216.384 73.0884 216.067 73.0159 215.989C73.3394 215.454 73.1944 213.828 73.2948 213.321C73.4007 212.797 73.345 212.43 72.7705 212.274C72.196 212.118 70.6231 212.012 70.6231 212.012C70.6231 212.012 70.4112 212.012 69.7809 212.274C69.7809 211.806 68.8885 211.644 66.0049 211.644C63.1213 211.644 59.507 212.324 57.7222 212.43C57.0418 212.897 57.4043 213.371 57.6163 213.688C57.6664 215.888 59.2951 216.094 60.4496 216.518C61.3365 216.841 62.1285 217.938 62.452 218.423C62.307 218.473 62.346 218.824 62.2847 219.397C62.1787 220.444 61.554 222.433 61.3421 225.156C61.1357 227.88 61.448 227.88 62.0783 229.451C62.7086 231.021 63.3388 233.428 63.2329 235.316C63.1269 237.198 62.0783 239.61 61.8719 242.016C61.6656 244.428 62.8145 247.04 63.0265 248.928C63.2384 250.811 62.5022 253.222 62.2902 255.94C62.0783 258.664 62.3962 271.853 62.3962 278.242C62.3962 284.63 62.0839 289.76 61.9779 291.436C61.8719 293.113 61.2417 295.625 60.9293 296.672C60.617 297.719 59.8807 298.56 59.4624 299.919C59.4122 300.287 59.3899 300.638 59.3843 300.983C58.2856 302.893 57.9286 304.135 57.6274 304.787C57.3151 305.467 57.0529 306.358 57.1533 307.143C57.2593 307.928 57.3653 308.664 57.5214 309.711C57.6664 310.669 57.633 311.844 57.7111 312.874C57.6664 312.835 57.6274 312.852 57.6274 312.852C57.2091 312.64 57.1533 313.27 56.4227 314.211C55.692 315.152 55.48 315.626 55.2681 317.035C55.0561 318.45 54.9558 318.973 55.4243 318.867C55.8984 318.762 56.0043 319.235 56.629 319.597C56.8912 319.747 56.986 319.742 57.0083 319.731C56.986 319.747 56.9135 319.831 56.8912 320.171L65.7428 320.945C65.7037 320.733 65.6758 320.555 65.6479 320.432C65.436 319.435 65.6479 319.385 65.5977 318.912C65.5698 318.645 65.5029 317.67 65.4025 316.756C65.581 317.403 65.7818 318.255 65.8097 318.862C65.8264 319.213 65.9268 320.009 66.0662 320.973L100.987 324.025C101.082 322.215 101.177 320.483 101.355 319.335C101.668 317.291 101.986 315.459 101.618 314.991C101.35 314.651 100.642 314.584 99.9109 314.512C100.006 314.3 100.173 313.921 100.301 313.52V313.504H100.307C100.396 313.22 100.463 312.924 100.463 312.69C100.463 311.955 100.257 310.284 101.406 308.714C101.556 308.508 101.724 308.279 101.908 308.023C101.846 308.118 101.818 308.168 101.818 308.168C101.818 308.168 102.053 308.413 102.51 308.864C103.14 309.493 103.609 310.541 103.821 311.638C103.971 312.429 103.771 315.57 103.564 317.291H103.559C103.598 316.94 103.62 316.729 103.62 316.729C103.62 316.729 102.889 317.196 102.8 317.503C102.761 317.57 102.733 317.636 102.722 317.709C102.616 318.182 102.672 319.124 102.51 320.065C102.354 321.006 102.304 321.324 102.092 322.577C101.952 323.429 101.908 323.891 101.891 324.103L102.131 324.125C102.253 324.086 102.393 324.069 102.521 324.159L112.003 324.988C111.953 323.05 112.053 323.68 112.053 323.68C112.053 323.68 112.789 322.738 113.258 323C113.732 323.262 112.789 320.644 112.315 319.129C111.847 317.609 111.323 317.508 110.793 317.035L110.787 317.04ZM65.2519 315.759C65.1961 315.475 65.1404 315.241 65.0734 315.102C64.7555 314.473 64.9173 313.687 64.3372 313.22C64.2982 313.186 64.248 313.158 64.1978 313.131C64.1755 313.108 64.142 313.092 64.0918 313.075C63.4336 312.785 62.3404 312.908 62.3404 312.908L62.3906 313.325C62.3906 313.325 61.7102 310.184 61.8162 309.087C61.8887 308.296 62.1508 307.806 62.2958 307.594C63.1827 308.602 64.0416 309.443 64.4878 310.184C65.3021 311.538 65.8097 313.292 66.0662 314.356C66.0997 314.54 66.1388 314.746 66.1666 315.002C66.1834 315.158 66.2113 315.28 66.2559 315.381C65.7706 315.498 65.4248 315.665 65.2463 315.765L65.2519 315.759Z" fill="url(#paint6_linear_270_5497)"/>
<path d="M154.404 0H14.5965C6.54805 0 0 6.53888 0 14.576V154.193C0 162.23 6.54805 168.769 14.5965 168.769H17.2904V167.098H14.5965C7.47393 167.098 1.67327 161.311 1.67327 154.193V14.576C1.67327 7.45788 7.46835 1.67092 14.5965 1.67092H154.409C161.532 1.67092 167.332 7.45788 167.332 14.576V154.193C167.332 161.305 161.537 167.098 154.409 167.098H151.157V168.769H154.409C162.458 168.769 169.006 162.23 169.006 154.193V14.576C169.006 6.53888 162.458 0 154.409 0H154.404Z" fill="white"/>
</g>
<defs>
<linearGradient id="paint0_linear_270_5497" x1="84.4972" y1="168.449" x2="84.4972" y2="0.550781" gradientUnits="userSpaceOnUse">
<stop stop-color="white" stop-opacity="0.1"/>
<stop offset="0.72" stop-color="white"/>
<stop offset="1" stop-color="white" stop-opacity="0.24"/>
</linearGradient>
<linearGradient id="paint1_linear_270_5497" x1="4.23776" y1="4.23751" x2="164.762" y2="164.762" gradientUnits="userSpaceOnUse">
<stop stop-color="white" stop-opacity="0.2"/>
<stop offset="0.03" stop-color="#F1F1F1" stop-opacity="0.32"/>
<stop offset="0.12" stop-color="#CECECE" stop-opacity="0.61"/>
<stop offset="0.2" stop-color="#B5B5B5" stop-opacity="0.82"/>
<stop offset="0.26" stop-color="#A6A6A6" stop-opacity="0.95"/>
<stop offset="0.31" stop-color="#A1A1A1"/>
<stop offset="0.38" stop-color="#A7A7A7"/>
<stop offset="0.47" stop-color="#B8B8B8"/>
<stop offset="0.57" stop-color="#D5D5D5"/>
<stop offset="0.69" stop-color="white"/>
<stop offset="0.72" stop-color="#F4F4F4" stop-opacity="0.89"/>
<stop offset="0.77" stop-color="#E4E4E4" stop-opacity="0.71"/>
<stop offset="0.82" stop-color="#D6D6D6" stop-opacity="0.57"/>
<stop offset="0.87" stop-color="#CBCBCB" stop-opacity="0.45"/>
<stop offset="0.91" stop-color="#C3C3C3" stop-opacity="0.37"/>
<stop offset="0.96" stop-color="#BEBEBE" stop-opacity="0.32"/>
<stop offset="0.99" stop-color="#BDBDBD" stop-opacity="0.3"/>
</linearGradient>
<linearGradient id="paint2_linear_270_5497" x1="84.4972" y1="69.1714" x2="84.4972" y2="-6.80064" gradientUnits="userSpaceOnUse">
<stop stop-color="white"/>
<stop offset="1" stop-color="white" stop-opacity="0"/>
</linearGradient>
<radialGradient id="paint3_radial_270_5497" cx="0" cy="0" r="1" gradientUnits="userSpaceOnUse" gradientTransform="translate(69.5616 168.447) scale(73.9681 8.01625)">
<stop stop-color="white"/>
<stop offset="0.12" stop-color="white" stop-opacity="0.77"/>
<stop offset="0.25" stop-color="white" stop-opacity="0.56"/>
<stop offset="0.37" stop-color="white" stop-opacity="0.39"/>
<stop offset="0.5" stop-color="white" stop-opacity="0.25"/>
<stop offset="0.62" stop-color="white" stop-opacity="0.14"/>
<stop offset="0.75" stop-color="white" stop-opacity="0.06"/>
<stop offset="0.87" stop-color="white" stop-opacity="0.02"/>
<stop offset="1" stop-color="white" stop-opacity="0"/>
</radialGradient>
<radialGradient id="paint4_radial_270_5497" cx="0" cy="0" r="1" gradientUnits="userSpaceOnUse" gradientTransform="translate(69.5616 168.141) scale(45.2624 3.56748)">
<stop stop-color="white"/>
<stop offset="0.12" stop-color="white" stop-opacity="0.77"/>
<stop offset="0.25" stop-color="white" stop-opacity="0.56"/>
<stop offset="0.37" stop-color="white" stop-opacity="0.39"/>
<stop offset="0.5" stop-color="white" stop-opacity="0.25"/>
<stop offset="0.62" stop-color="white" stop-opacity="0.14"/>
<stop offset="0.75" stop-color="white" stop-opacity="0.06"/>
<stop offset="0.87" stop-color="white" stop-opacity="0.02"/>
<stop offset="1" stop-color="white" stop-opacity="0"/>
</radialGradient>
<radialGradient id="paint5_radial_270_5497" cx="0" cy="0" r="1" gradientUnits="userSpaceOnUse" gradientTransform="translate(35.1142 -0.348194) scale(34.1725 4.51335)">
<stop stop-color="white"/>
<stop offset="0.12" stop-color="white" stop-opacity="0.77"/>
<stop offset="0.25" stop-color="white" stop-opacity="0.56"/>
<stop offset="0.37" stop-color="white" stop-opacity="0.39"/>
<stop offset="0.5" stop-color="white" stop-opacity="0.25"/>
<stop offset="0.62" stop-color="white" stop-opacity="0.14"/>
<stop offset="0.75" stop-color="white" stop-opacity="0.06"/>
<stop offset="0.87" stop-color="white" stop-opacity="0.02"/>
<stop offset="1" stop-color="white" stop-opacity="0"/>
</radialGradient>
<linearGradient id="paint6_linear_270_5497" x1="84.2379" y1="425.099" x2="84.2379" y2="214.463" gradientUnits="userSpaceOnUse">
<stop stop-color="white" stop-opacity="0"/>
<stop offset="0.13" stop-color="#FEFDFA" stop-opacity="0.02"/>
<stop offset="0.29" stop-color="#FDF8ED" stop-opacity="0.08"/>
<stop offset="0.45" stop-color="#FAEFD7" stop-opacity="0.17"/>
<stop offset="0.62" stop-color="#F7E3B8" stop-opacity="0.31"/>
<stop offset="0.79" stop-color="#F3D491" stop-opacity="0.48"/>
<stop offset="0.97" stop-color="#EEC160" stop-opacity="0.7"/>
</linearGradient>
<clipPath id="clip0_270_5497">
<rect width="169" height="169" fill="white"/>
</clipPath>
<clipPath id="clip1_270_5497">
<rect width="169" height="325" fill="white"/>
</clipPath>
</defs>
</svg>
