<svg width="147" height="162" viewBox="0 0 147 162" fill="none" xmlns="http://www.w3.org/2000/svg">
<path d="M8.40691 151.815L6.90391 144.293C7.94445 144.54 8.72898 144.672 9.24925 144.672C9.76952 144.672 10.5954 144.54 11.6772 144.269L10.3724 151.79L17.2267 148.186C17.3011 149.799 17.7553 151.288 18.5894 152.654L10.9587 153.634L16.3679 159.024C14.9227 159.674 13.7087 160.629 12.726 161.88L9.28229 154.934L5.92943 161.847C4.88889 160.621 3.62537 159.682 2.13889 159.049L7.63063 153.634L0 152.654C0.867118 151.346 1.38739 149.881 1.56081 148.243L8.41517 151.815H8.40691Z" fill="white"/>
<path d="M33.9997 151.815L32.4967 144.293C33.5372 144.54 34.3218 144.672 34.842 144.672C35.3623 144.672 36.1881 144.54 37.27 144.269L35.9652 151.79L42.8195 148.186C42.8938 149.799 43.348 151.288 44.1821 152.654L36.5515 153.634L41.9607 159.024C40.5155 159.674 39.3015 160.629 38.3188 161.88L34.8751 154.934L31.5222 161.847C30.4817 160.621 29.2182 159.682 27.7317 159.049L33.2234 153.634L25.5928 152.654C26.4599 151.346 26.9802 149.881 27.1536 148.243L34.0079 151.815H33.9997Z" fill="white"/>
<path d="M59.5837 151.815L58.0807 144.293C59.1212 144.54 59.9058 144.672 60.426 144.672C60.9463 144.672 61.7721 144.54 62.8539 144.269L61.5491 151.79L68.4035 148.186C68.4778 149.799 68.932 151.288 69.7661 152.654L62.1355 153.634L67.5446 159.024C66.0994 159.674 64.8855 160.629 63.9027 161.88L60.4591 154.934L57.1062 161.847C56.0657 160.621 54.8021 159.682 53.3157 159.049L58.8074 153.634L51.1768 152.654C52.0439 151.346 52.5641 149.881 52.7376 148.243L59.5919 151.815H59.5837Z" fill="white"/>
<path d="M85.1755 151.815L83.6725 144.293C84.713 144.54 85.4975 144.672 86.0178 144.672C86.5381 144.672 87.3639 144.54 88.4457 144.269L87.1409 151.79L93.9953 148.186C94.0696 149.799 94.5238 151.288 95.3579 152.654L87.7273 153.634L93.1364 159.024C91.6912 159.674 90.4773 160.629 89.4945 161.88L86.0508 154.934L82.698 161.847C81.6574 160.621 80.3939 159.682 78.9074 159.049L84.3992 153.634L76.7686 152.654C77.6357 151.346 78.1559 149.881 78.3294 148.243L85.1837 151.815H85.1755Z" fill="white"/>
<path d="M110.767 151.815L109.264 144.293C110.305 144.54 111.089 144.672 111.61 144.672C112.13 144.672 112.956 144.54 114.038 144.269L112.733 151.79L119.587 148.186C119.661 149.799 120.116 151.288 120.95 152.654L113.319 153.634L118.728 159.024C117.283 159.674 116.069 160.629 115.086 161.88L111.643 154.934L108.29 161.847C107.249 160.621 105.986 159.682 104.499 159.049L109.991 153.634L102.36 152.654C103.227 151.346 103.748 149.881 103.921 148.243L110.776 151.815H110.767Z" fill="white"/>
<path d="M136.352 151.815L134.849 144.293C135.89 144.54 136.674 144.672 137.195 144.672C137.715 144.672 138.541 144.54 139.622 144.269L138.318 151.79L145.172 148.186C145.246 149.799 145.701 151.288 146.535 152.654L138.904 153.634L144.313 159.024C142.868 159.674 141.654 160.629 140.671 161.88L137.228 154.934L133.875 161.847C132.834 160.621 131.571 159.682 130.084 159.049L135.576 153.634L127.945 152.654C128.812 151.346 129.333 149.881 129.506 148.243L136.36 151.815H136.352Z" fill="white"/>
<path d="M51.7762 91.6673H95.0478C97.0147 91.6673 98.6086 90.079 98.6086 88.119V53.4635C98.6086 51.5035 97.0147 49.9152 95.0478 49.9152H62.2889V46.2317C62.4246 40.3347 67.3079 35.6543 73.2255 35.7725C77.9732 35.7388 82.1952 38.7464 83.7043 43.2241C84.1621 44.6772 85.7051 45.4882 87.1633 45.032C87.3498 44.9644 87.5363 44.8968 87.7229 44.7955L89.1471 43.9675C90.2832 43.3085 90.8088 41.9399 90.385 40.7064C87.0446 31.2949 76.6676 26.3779 67.24 29.7235C60.1864 32.2242 55.3878 38.7802 55.1844 46.2486V49.9321H51.7932C49.8263 49.9321 48.2324 51.5204 48.2324 53.4804V88.1359C48.2324 90.0959 49.8263 91.6842 51.7932 91.6842L51.7762 91.6673ZM69.8513 65.511C69.8513 63.551 71.4451 61.9627 73.412 61.9627C75.3789 61.9627 76.9728 63.551 76.9728 65.511V76.0546C76.9728 78.0146 75.3789 79.603 73.412 79.603C71.4451 79.603 69.8513 78.0146 69.8513 76.0546V65.511Z" fill="white"/>
<path d="M125.755 10.966C125.382 10.6281 124.958 10.3578 124.501 10.1719L122.466 9.37775C90.9616 -3.12592 55.8628 -3.12592 24.3586 9.37775L23.8838 9.5636C20.3061 10.9829 17.9831 14.4299 18.0001 18.2655V95.1799C18.0001 98.0524 19.4244 100.756 21.8152 102.361L68.868 133.958C71.5979 135.8 75.1756 135.8 77.9055 133.958L124.823 102.462C127.315 100.79 128.79 97.9848 128.79 94.994V14.9537C128.79 13.095 127.536 11.4561 125.738 10.9829L125.755 10.966ZM26.139 18.012C26.139 17.691 26.3424 17.3868 26.6476 17.2686C56.6936 5.3563 90.1647 5.3563 120.211 17.2686L120.719 17.4713V94.9602C120.719 95.2306 120.584 95.484 120.363 95.6192L73.87 126.828C73.5987 127.014 73.2596 127.014 72.9883 126.828L26.495 95.6192C26.2746 95.4671 26.139 95.2137 26.139 94.9602V18.012Z" fill="white"/>
</svg>
