<svg width="100" height="100" viewBox="0 0 100 100" fill="none" xmlns="http://www.w3.org/2000/svg">
<path d="M50 100C43.2513 100 36.7029 98.6771 30.5364 96.0699C24.5823 93.5518 19.2347 89.9463 14.6442 85.3558C10.0537 80.7653 6.44824 75.4177 3.93013 69.4636C1.32178 63.2971 0 56.7487 0 50C0 43.2513 1.32288 36.7029 3.93013 30.5364C6.44824 24.5823 10.0537 19.2347 14.6442 14.6442C19.2347 10.0537 24.5823 6.44824 30.5364 3.93014C36.7029 1.32178 43.2513 0 50 0C56.7487 0 63.2971 1.32289 69.4636 3.93014C75.4177 6.44824 80.7653 10.0537 85.3558 14.6442C89.9463 19.2347 93.5518 24.5823 96.0699 30.5364C98.6782 36.7029 100 43.2513 100 50C100 56.7487 98.6771 63.2971 96.0699 69.4636C93.5518 75.4177 89.9463 80.7653 85.3558 85.3558C80.7653 89.9463 75.4177 93.5518 69.4636 96.0699C63.2971 98.6782 56.7487 100 50 100Z" fill="#F9C112"/>
<path d="M49.6344 16.4756L99.4902 57.0866C99.4902 57.0866 97.3111 75.7127 83.2018 87.2422C72.9665 95.6066 66.6932 97.0373 66.6932 97.0373L49.0918 82.0696L49.6344 16.4756Z" fill="url(#paint0_linear_275_7145)"/>
<path d="M49.7372 72.3848H49.0923C46.596 72.3848 44.5723 74.4085 44.5723 76.9048V77.5497C44.5723 80.0461 46.596 82.0698 49.0923 82.0698H49.7372C52.2336 82.0698 54.2573 80.0461 54.2573 77.5497V76.9048C54.2573 74.4085 52.2336 72.3848 49.7372 72.3848Z" fill="white"/>
<path d="M54.2573 21.3181C54.2573 18.6437 52.0892 16.4756 49.4148 16.4756C46.7403 16.4756 44.5723 18.6437 44.5723 21.3181V63.8001C44.5723 66.4745 46.7403 68.6426 49.4148 68.6426C52.0892 68.6426 54.2573 66.4745 54.2573 63.8001V21.3181Z" fill="white"/>
<defs>
<linearGradient id="paint0_linear_275_7145" x1="27.393" y1="24.5042" x2="102.498" y2="96.6873" gradientUnits="userSpaceOnUse">
<stop stop-color="#BF9711"/>
<stop offset="1" stop-color="#F9C112"/>
</linearGradient>
</defs>
</svg>
