<svg width="108" height="108" viewBox="0 0 108 108" fill="none" xmlns="http://www.w3.org/2000/svg">
<path d="M33.7574 101.912L33.7576 101.912C40.1723 104.624 46.9857 106 54 106C61.014 106 67.8275 104.625 74.2426 101.912C80.4351 99.293 85.9982 95.5419 90.77 90.77C95.5419 85.9982 99.293 80.4351 101.912 74.2426L101.912 74.2424C104.624 67.8276 106 61.0142 106 54C106 46.986 104.625 40.1725 101.912 33.7574C99.293 27.5649 95.5419 22.0018 90.77 17.23C85.9982 12.4581 80.4351 8.70702 74.2426 6.0881L74.2424 6.08802C67.8277 3.37579 61.0142 2 54 2C46.986 2 40.1725 3.37456 33.7574 6.0881C27.5649 8.70702 22.0018 12.4581 17.23 17.23C12.4581 22.0018 8.70702 27.5649 6.08809 33.7574L6.08802 33.7576C3.37579 40.1723 2 46.9858 2 54C2 61.014 3.3746 67.8276 6.08814 74.2427C8.70706 80.4352 12.4582 85.9982 17.23 90.77C22.0018 95.5419 27.5649 99.293 33.7574 101.912Z" fill="#F9C112" stroke="#FFFEFE" stroke-width="4"/>
<path d="M53.6344 20.4753L103.49 61.0864C103.49 61.0864 101.311 79.7124 87.2018 91.242C76.9665 99.6063 70.6932 101.037 70.6932 101.037L53.0918 86.0693L53.6344 20.4753Z" fill="url(#paint0_linear_304_11316)"/>
<path d="M53.7372 76.385H53.0923C50.596 76.385 48.5723 78.4087 48.5723 80.9051V81.55C48.5723 84.0463 50.596 86.07 53.0923 86.07H53.7372C56.2336 86.07 58.2573 84.0463 58.2573 81.55V80.9051C58.2573 78.4087 56.2336 76.385 53.7372 76.385Z" fill="white"/>
<path d="M58.2573 25.3179C58.2573 22.6434 56.0892 20.4753 53.4148 20.4753C50.7403 20.4753 48.5723 22.6434 48.5723 25.3179V67.7999C48.5723 70.4743 50.7403 72.6424 53.4148 72.6424C56.0892 72.6424 58.2573 70.4743 58.2573 67.7999V25.3179Z" fill="white"/>
<defs>
<linearGradient id="paint0_linear_304_11316" x1="31.393" y1="28.504" x2="106.498" y2="100.687" gradientUnits="userSpaceOnUse">
<stop stop-color="#BF9711"/>
<stop offset="1" stop-color="#F9C112"/>
</linearGradient>
</defs>
</svg>
