<svg width="20" height="25" viewBox="0 0 20 25" fill="none" xmlns="http://www.w3.org/2000/svg">
<path d="M10 25C9.32439 24.9868 8.68169 24.7093 8.21293 24.2285C7.74416 23.7477 7.48763 23.1028 7.49961 22.4354H12.5019C12.5139 23.1031 12.2572 23.7482 11.7881 24.229C11.319 24.7099 10.6759 24.9872 10 25ZM20 21.1546H0V19.8723L2.49884 17.3092V10.9054C2.45793 9.06425 2.96858 7.25224 3.96666 5.69687C4.92855 4.24325 6.41576 3.20708 8.12471 2.79988V1.92925C8.11446 1.67965 8.15537 1.43057 8.24499 1.19698C8.33461 0.963383 8.47109 0.750088 8.64624 0.569901C8.82139 0.389713 9.03159 0.246349 9.26422 0.148415C9.49686 0.0504821 9.74712 0 10 0C10.2529 0 10.5031 0.0504821 10.7358 0.148415C10.9684 0.246349 11.1786 0.389713 11.3538 0.569901C11.5289 0.750088 11.6654 0.963383 11.755 1.19698C11.8446 1.43057 11.8855 1.67965 11.8753 1.92925V2.79988C13.5815 3.20949 15.066 4.24527 16.0272 5.69687C17.0256 7.24836 17.5378 9.05662 17.4996 10.8947V17.2986L19.9985 19.8616V21.1424L20 21.1546Z" fill="#734343"/>
</svg>
