<svg width="26" height="25" viewBox="0 0 26 25" fill="none" xmlns="http://www.w3.org/2000/svg">
<g clip-path="url(#clip0_301_166)">
<path d="M16.4068 2.90899L18.8576 3.59701C15.2498 13.9063 2.26756 14.4314 2.26756 14.4314C15.0825 15.3456 19.228 9.43836 21.717 4.74538L24.1473 5.62967L22.2001 0.117205L16.4068 2.90899Z" fill="#734343"/>
<path d="M24.6052 25C24.3655 25 24.1356 24.9197 23.966 24.7769C23.7965 24.634 23.7013 24.4403 23.7013 24.2383V7.48175C23.7013 7.27975 23.7965 7.08602 23.966 6.94318C24.1356 6.80034 24.3655 6.72009 24.6052 6.72009C24.845 6.72009 25.0749 6.80034 25.2444 6.94318C25.4139 7.08602 25.5092 7.27975 25.5092 7.48175V24.2383C25.5092 24.4403 25.4139 24.634 25.2444 24.7769C25.0749 24.9197 24.845 25 24.6052 25Z" fill="#734343"/>
<path d="M20.0856 25C19.8458 25 19.6159 24.9198 19.4464 24.7769C19.2769 24.6341 19.1816 24.4403 19.1816 24.2383V12.0518C19.1816 11.8498 19.2769 11.656 19.4464 11.5132C19.6159 11.3703 19.8458 11.2901 20.0856 11.2901C20.3253 11.2901 20.5552 11.3703 20.7247 11.5132C20.8943 11.656 20.9895 11.8498 20.9895 12.0518V24.2383C20.9895 24.4403 20.8943 24.6341 20.7247 24.7769C20.5552 24.9198 20.3253 25 20.0856 25Z" fill="#734343"/>
<path d="M15.5659 25C15.3262 25 15.0963 24.9197 14.9267 24.7769C14.7572 24.6341 14.662 24.4403 14.662 24.2383V15.0984C14.662 14.8964 14.7572 14.7027 14.9267 14.5598C15.0963 14.417 15.3262 14.3367 15.5659 14.3367C15.8057 14.3367 16.0356 14.417 16.2051 14.5598C16.3746 14.7027 16.4698 14.8964 16.4698 15.0984V24.2383C16.4698 24.4403 16.3746 24.6341 16.2051 24.7769C16.0356 24.9197 15.8057 25 15.5659 25Z" fill="#734343"/>
<path d="M11.0463 25C10.8065 25 10.5766 24.9197 10.4071 24.7769C10.2376 24.6341 10.1423 24.4403 10.1423 24.2383V17.3834C10.1423 17.1814 10.2376 16.9876 10.4071 16.8448C10.5766 16.702 10.8065 16.6217 11.0463 16.6217C11.286 16.6217 11.5159 16.702 11.6854 16.8448C11.855 16.9876 11.9502 17.1814 11.9502 17.3834V24.2383C11.9502 24.4403 11.855 24.6341 11.6854 24.7769C11.5159 24.9197 11.286 25 11.0463 25Z" fill="#734343"/>
<path d="M6.52661 25C6.28687 25 6.05696 24.9197 5.88744 24.7769C5.71792 24.634 5.62268 24.4403 5.62268 24.2383V19.6683C5.62268 19.4663 5.71792 19.2726 5.88744 19.1298C6.05696 18.9869 6.28687 18.9067 6.52661 18.9067C6.76635 18.9067 6.99627 18.9869 7.16579 19.1298C7.33531 19.2726 7.43054 19.4663 7.43054 19.6683V24.2383C7.43054 24.4403 7.33531 24.634 7.16579 24.7769C6.99627 24.9197 6.76635 25 6.52661 25Z" fill="#734343"/>
</g>
<defs>
<clipPath id="clip0_301_166">
<rect width="25" height="25" fill="white" transform="translate(0.50824)"/>
</clipPath>
</defs>
</svg>
