<svg width="29" height="29" viewBox="0 0 29 29" fill="none" xmlns="http://www.w3.org/2000/svg">
<path d="M18.4414 3.37422L21.2843 4.1723C17.0994 16.1309 2.04022 16.74 2.04022 16.74C16.9053 17.8004 21.7139 10.9482 24.6012 5.5044L27.4203 6.53016L25.1616 0.135804L18.4414 3.37422Z" fill="#5C5D60"/>
<path d="M27.9516 28.9992C27.6735 28.9992 27.4068 28.9061 27.2102 28.7404C27.0135 28.5747 26.9031 28.35 26.9031 28.1157V8.67843C26.9031 8.44411 27.0135 8.21939 27.2102 8.0537C27.4068 7.88801 27.6735 7.79492 27.9516 7.79492C28.2297 7.79492 28.4964 7.88801 28.693 8.0537C28.8897 8.21939 29.0002 8.44411 29.0002 8.67843V28.1157C29.0002 28.35 28.8897 28.5747 28.693 28.7404C28.4964 28.9061 28.2297 28.9992 27.9516 28.9992Z" fill="#5C5D60"/>
<path d="M22.7087 28.9992C22.4306 28.9992 22.1639 28.9061 21.9673 28.7404C21.7706 28.5747 21.6602 28.35 21.6602 28.1156V13.9795C21.6602 13.7451 21.7706 13.5204 21.9673 13.3547C22.1639 13.189 22.4306 13.0959 22.7087 13.0959C22.9868 13.0959 23.2535 13.189 23.4501 13.3547C23.6468 13.5204 23.7572 13.7451 23.7572 13.9795V28.1156C23.7572 28.35 23.6468 28.5747 23.4501 28.7404C23.2535 28.9061 22.9868 28.9992 22.7087 28.9992Z" fill="#5C5D60"/>
<path d="M17.466 28.9993C17.1879 28.9993 16.9212 28.9062 16.7246 28.7405C16.528 28.5748 16.4175 28.3501 16.4175 28.1158V17.5136C16.4175 17.2793 16.528 17.0546 16.7246 16.8889C16.9212 16.7232 17.1879 16.6301 17.466 16.6301C17.7441 16.6301 18.0108 16.7232 18.2075 16.8889C18.4041 17.0546 18.5146 17.2793 18.5146 17.5136V28.1158C18.5146 28.3501 18.4041 28.5748 18.2075 28.7405C18.0108 28.9062 17.7441 28.9993 17.466 28.9993Z" fill="#5C5D60"/>
<path d="M12.2233 28.9991C11.9453 28.9991 11.6786 28.9061 11.4819 28.7404C11.2853 28.5747 11.1748 28.35 11.1748 28.1156V20.164C11.1748 19.9297 11.2853 19.705 11.4819 19.5393C11.6786 19.3736 11.9453 19.2805 12.2233 19.2805C12.5014 19.2805 12.7681 19.3736 12.9648 19.5393C13.1614 19.705 13.2719 19.9297 13.2719 20.164V28.1156C13.2719 28.35 13.1614 28.5747 12.9648 28.7404C12.7681 28.9061 12.5014 28.9991 12.2233 28.9991Z" fill="#5C5D60"/>
<path d="M6.98067 28.9992C6.70258 28.9992 6.43588 28.9062 6.23924 28.7405C6.0426 28.5748 5.93213 28.3501 5.93213 28.1157V22.8147C5.93213 22.5803 6.0426 22.3556 6.23924 22.1899C6.43588 22.0242 6.70258 21.9312 6.98067 21.9312C7.25876 21.9312 7.52546 22.0242 7.7221 22.1899C7.91874 22.3556 8.02921 22.5803 8.02921 22.8147V28.1157C8.02921 28.3501 7.91874 28.5748 7.7221 28.7405C7.52546 28.9062 7.25876 28.9992 6.98067 28.9992Z" fill="#5C5D60"/>
</svg>
