<svg width="26" height="25" viewBox="0 0 26 25" fill="none" xmlns="http://www.w3.org/2000/svg">
<g clip-path="url(#clip0_301_161)">
<path fill-rule="evenodd" clip-rule="evenodd" d="M21.3805 12.2621C21.2823 12.2565 21.184 12.2723 21.0925 12.3083C21.0009 12.3443 20.9182 12.3997 20.8501 12.4707C20.7819 12.5417 20.7299 12.6265 20.6976 12.7195C20.6654 12.8124 20.6536 12.9113 20.6631 13.0092V23.4034H15.5426V19.1887C15.5478 19.0057 15.484 18.8275 15.3638 18.6895C15.2436 18.5515 15.0758 18.4638 14.8939 18.4439H11.1958C10.9954 18.4472 10.8037 18.526 10.6588 18.6645C10.5139 18.803 10.4266 18.991 10.4143 19.191V23.405H5.35471V13.3828C5.35827 13.2866 5.34254 13.1908 5.30846 13.1008C5.27438 13.0109 5.22264 12.9287 5.15629 12.8591C5.08993 12.7894 5.01031 12.7338 4.92211 12.6954C4.83392 12.657 4.73893 12.6367 4.64275 12.6356C4.54496 12.6308 4.44727 12.6471 4.35634 12.6834C4.26542 12.7197 4.1834 12.7753 4.11589 12.8462C4.04839 12.9171 3.99697 13.0017 3.96516 13.0943C3.93335 13.187 3.92189 13.2853 3.93157 13.3828V24.2459C3.92692 24.4399 3.999 24.6279 4.13216 24.7691C4.26531 24.9103 4.44879 24.9933 4.64275 25H11.1958C11.3775 24.9774 11.5441 24.8874 11.6625 24.7477C11.781 24.608 11.8425 24.4289 11.8351 24.2459V19.9421H14.1124V24.2467C14.1254 24.4471 14.2127 24.6355 14.3572 24.775C14.5018 24.9145 14.6931 24.995 14.8939 25.0008H21.3805C21.5701 24.9818 21.7464 24.8951 21.8772 24.7566C22.008 24.618 22.0844 24.437 22.0925 24.2467V13.0092C22.0961 12.9131 22.0803 12.8172 22.0462 12.7273C22.0122 12.6373 21.9604 12.5551 21.8941 12.4855C21.8277 12.4159 21.7481 12.3602 21.6599 12.3218C21.5717 12.2835 21.4767 12.2631 21.3805 12.2621ZM25.2928 12.8224C20.5943 7.76521 17.6761 4.67821 13.4747 0.276697C13.4303 0.20018 13.3684 0.135241 13.2941 0.0871654C13.2198 0.0390899 13.1352 0.00923765 13.0472 3.92003e-05C12.9377 -0.00111638 12.8295 0.0232914 12.7312 0.0713203C12.6328 0.119349 12.547 0.189673 12.4806 0.276697L0.724998 12.7318C0.595574 12.8906 0.521491 13.0873 0.513988 13.2921C0.50882 13.3808 0.525332 13.4694 0.562097 13.5503C0.598862 13.6312 0.654774 13.7019 0.724998 13.7563C0.77731 13.8422 0.850831 13.9132 0.938494 13.9624C1.02616 14.0117 1.12501 14.0375 1.22556 14.0375C1.32611 14.0375 1.42496 14.0117 1.51263 13.9624C1.60029 13.9132 1.67381 13.8422 1.72612 13.7563L13.0472 1.86943L24.3011 13.9439C24.3678 14.0067 24.4465 14.0556 24.5323 14.0877C24.6182 14.1198 24.7096 14.1344 24.8012 14.1307C24.953 14.1305 25.1012 14.0842 25.226 13.9979C25.3509 13.9116 25.4465 13.7893 25.5002 13.6473C25.5538 13.5053 25.5631 13.3504 25.5266 13.203C25.4901 13.0557 25.4097 12.9229 25.2959 12.8224" fill="#734343"/>
</g>
<defs>
<clipPath id="clip0_301_161">
<rect width="25" height="25" fill="white" transform="translate(0.513733)"/>
</clipPath>
</defs>
</svg>
