<svg width="25" height="25" viewBox="0 0 25 25" fill="none" xmlns="http://www.w3.org/2000/svg">
<g clip-path="url(#clip0_301_175)">
<mask id="mask0_301_175" style="mask-type:luminance" maskUnits="userSpaceOnUse" x="0" y="0" width="25" height="25">
<path d="M24.5089 0H0.502747V25H24.5089V0Z" fill="white"/>
</mask>
<g mask="url(#mask0_301_175)">
<path d="M11.8744 11.1501C11.9525 11.1185 12.0194 11.0643 12.0665 10.9944C12.1135 10.9245 12.1386 10.8422 12.1385 10.758V0.423324C12.1385 0.311195 12.094 0.203646 12.0148 0.124283C11.9356 0.0449201 11.8281 0.000228098 11.716 1.61322e-05C8.92123 -0.00483289 6.23539 1.08363 4.23249 3.03279C4.19252 3.07146 4.16058 3.11764 4.1385 3.16869C4.11641 3.21973 4.10462 3.27463 4.10381 3.33024C4.10299 3.38585 4.11316 3.44107 4.13373 3.49275C4.1543 3.54442 4.18487 3.59152 4.22369 3.63135L11.4127 11.0524C11.4714 11.1129 11.5467 11.1544 11.6291 11.1718C11.7115 11.1892 11.7972 11.1816 11.8753 11.1501M11.2927 9.7097L5.13112 3.34887C6.83353 1.82755 9.0115 0.944767 11.2927 0.851434V9.7097Z" fill="#734343"/>
<path d="M11.6816 12.9682C11.6875 12.9074 11.68 12.8461 11.6599 12.7885C11.6397 12.7309 11.6073 12.6783 11.5648 12.6345L4.37575 5.21337C4.33721 5.17337 4.29114 5.14139 4.24018 5.11928C4.18923 5.09717 4.13441 5.08536 4.07887 5.08453C3.96703 5.08438 3.85937 5.12704 3.77799 5.20376C1.93155 6.98998 0.786007 9.37851 0.548931 11.9366C0.311856 14.4946 0.99893 17.053 2.48566 19.1481C2.55079 19.2394 2.64939 19.3011 2.7599 19.3198C2.87041 19.3386 2.98384 19.3128 3.07541 19.2482L11.5056 13.2738C11.5555 13.2386 11.5972 13.193 11.6278 13.1401C11.6583 13.0872 11.677 13.0282 11.6824 12.9674M2.93778 18.3087C1.73076 16.4436 1.18599 14.2267 1.39107 12.0146C1.59615 9.80241 2.53915 7.72348 4.06847 6.112L10.6141 12.8689L2.93778 18.3087Z" fill="#734343"/>
<path d="M24.4113 12.5937C24.3878 12.4182 24.3611 12.244 24.3313 12.0711C24.2639 11.7007 24.1774 11.3339 24.072 10.9725C24.0272 10.8172 23.9776 10.6644 23.9264 10.5123C23.8143 10.1835 23.6863 9.85537 23.5415 9.53929C23.479 9.40006 23.4142 9.26402 23.3462 9.12799C23.1982 8.83431 23.0341 8.54144 22.8581 8.25576C22.7781 8.13173 22.7028 8.0093 22.618 7.89007C22.4164 7.59399 22.1979 7.30432 21.9683 7.02985C21.8776 6.92049 21.7842 6.81379 21.6882 6.70977C21.4777 6.47611 21.2505 6.24565 21.0136 6.02559C20.9096 5.92903 20.8029 5.83434 20.6935 5.74152C20.4535 5.53106 20.1942 5.32941 19.9349 5.14297C19.8173 5.05734 19.6949 4.97412 19.578 4.8957C19.2956 4.70765 19.0091 4.53561 18.7282 4.38517C18.597 4.31475 18.4634 4.24594 18.3281 4.18032C17.9825 4.01174 17.628 3.86188 17.2663 3.7314C17.1166 3.67699 16.967 3.62498 16.8149 3.57776C16.4593 3.46647 16.0982 3.37326 15.7331 3.29849C15.564 3.26435 15.3932 3.23368 15.2209 3.20647C14.8098 3.14372 14.3954 3.10445 13.9798 3.08884C13.8342 3.08324 13.6877 3.07764 13.5405 3.07764C13.3738 3.07764 13.214 3.14379 13.096 3.26157C12.9781 3.37935 12.9117 3.53913 12.9115 3.7058V13.7164L4.75265 19.4986C4.68463 19.5463 4.62672 19.6069 4.58229 19.6771C4.53785 19.7472 4.50777 19.8255 4.49378 19.9074C4.47979 19.9892 4.48217 20.073 4.50078 20.154C4.51939 20.2349 4.55387 20.3113 4.60221 20.3789L4.64302 20.4333C4.82067 20.6797 5.01672 20.9278 5.24558 21.1927C5.3392 21.3007 5.43282 21.4071 5.52885 21.5128C5.7401 21.74 5.97056 21.9665 6.21542 22.1857C6.32212 22.2812 6.43015 22.3746 6.53951 22.4658C6.84119 22.7163 7.12206 22.9291 7.39893 23.1172C7.49975 23.1852 7.60378 23.2492 7.70701 23.3132L7.76862 23.3508C8.05269 23.5269 8.34477 23.6917 8.64005 23.8406C8.77528 23.9078 8.91051 23.9742 9.04655 24.035C9.34583 24.1702 9.66511 24.2951 10.0244 24.4175C10.1756 24.4687 10.3285 24.5183 10.4813 24.5631C10.8422 24.6699 11.2084 24.7581 11.5784 24.8272C11.752 24.8584 11.9265 24.884 12.1009 24.9072C12.5659 24.97 13.0345 25.0026 13.5037 25.0049H13.5445C13.7422 25.0049 13.9382 24.9984 14.1335 24.988C14.656 24.9601 15.1759 24.8946 15.6891 24.792C15.9475 24.7408 16.2076 24.6776 16.4845 24.6007C17.277 24.3808 18.0421 24.0719 18.765 23.6797C20.6303 22.6599 22.1639 21.1263 23.1838 19.261C23.5759 18.538 23.8848 17.7729 24.1048 16.9804C24.1848 16.6995 24.2456 16.4395 24.2961 16.1842C24.3978 15.6709 24.4633 15.1511 24.4921 14.6286C24.5017 14.4333 24.5081 14.2381 24.5081 14.0404V14.006C24.5053 13.5337 24.4735 13.0619 24.4113 12.5937ZM23.6471 14.5798C23.6207 15.0617 23.5603 15.5412 23.4662 16.0145C23.4198 16.2482 23.3614 16.4891 23.2894 16.7491C23.0864 17.4799 22.8013 18.1854 22.4396 18.8521C21.4974 20.5746 20.0811 21.9909 18.3585 22.9331C17.6916 23.2946 16.9858 23.5794 16.2548 23.7821C15.9979 23.8534 15.7579 23.9118 15.521 23.959C15.0477 24.0532 14.5682 24.1134 14.0862 24.139C13.9062 24.1486 13.7261 24.1558 13.5445 24.1542H13.5157C13.0797 24.1524 12.6442 24.1222 12.2122 24.0638C12.0521 24.0422 11.8921 24.0198 11.732 23.991C11.3907 23.9283 11.0529 23.8482 10.7198 23.7509C10.5773 23.7093 10.4365 23.6637 10.2981 23.6165C9.96599 23.5037 9.67151 23.3876 9.39624 23.2636C9.26821 23.2068 9.14337 23.1452 9.02014 23.0844C8.74967 22.9483 8.4792 22.7955 8.21994 22.6322L8.15752 22.5938C8.0639 22.5354 7.96947 22.4778 7.87905 22.4162C7.62619 22.2441 7.36612 22.0481 7.08605 21.816C6.98522 21.7317 6.88546 21.6453 6.78677 21.5568C6.56111 21.3543 6.34826 21.1455 6.15221 20.9358C6.06259 20.8398 5.97536 20.7406 5.89054 20.6429C5.7185 20.4437 5.56646 20.2548 5.42722 20.0684L13.5893 14.2837C13.6445 14.2445 13.6896 14.1927 13.7206 14.1326C13.7516 14.0724 13.7678 14.0057 13.7678 13.938V3.92345L13.9566 3.93066C14.34 3.94493 14.7224 3.981 15.1017 4.03868C15.2617 4.06349 15.4218 4.0915 15.5746 4.1235C15.9114 4.19253 16.2444 4.27852 16.5725 4.38117C16.7117 4.42518 16.8501 4.47239 16.9878 4.52281C17.3208 4.64324 17.6473 4.78134 17.9656 4.93651C18.0899 4.99733 18.2132 5.06054 18.3353 5.12616C18.5938 5.2654 18.8571 5.42304 19.1187 5.59748C19.23 5.6703 19.3388 5.74632 19.4476 5.82474C19.6877 5.99758 19.9229 6.18323 20.1486 6.37768C20.2484 6.46357 20.3465 6.55133 20.4431 6.64095C20.6623 6.8442 20.872 7.05706 21.0656 7.27231C21.1536 7.36994 21.2401 7.46996 21.3249 7.57159C21.5361 7.82525 21.7386 8.09252 21.925 8.36699C22.0011 8.47822 22.0731 8.59105 22.1427 8.70388C22.3027 8.96634 22.4572 9.23681 22.5932 9.50808C22.6556 9.63211 22.7148 9.75775 22.7733 9.88658C22.9061 10.1795 23.0253 10.4811 23.1278 10.7844C23.1758 10.9244 23.2198 11.0645 23.2614 11.2093C23.3593 11.5425 23.4394 11.8807 23.5014 12.2224C23.5303 12.3824 23.5559 12.5425 23.5775 12.7025C23.6348 13.1347 23.6647 13.5701 23.6671 14.006V14.0348C23.6671 14.2181 23.6615 14.3997 23.6527 14.5782" fill="#734343"/>
</g>
</g>
<defs>
<clipPath id="clip0_301_175">
<rect width="24.0061" height="25" fill="white" transform="translate(0.502747)"/>
</clipPath>
</defs>
</svg>
