<svg width="25" height="25" viewBox="0 0 25 25" fill="none" xmlns="http://www.w3.org/2000/svg">
<g clip-path="url(#clip0_301_194)">
<mask id="mask0_301_194" style="mask-type:luminance" maskUnits="userSpaceOnUse" x="0" y="0" width="25" height="25">
<path d="M24.5503 0H0.49176V25H24.5503V0Z" fill="white"/>
</mask>
<g mask="url(#mask0_301_194)">
<path d="M12.2211 -1.03881e-05C10.4427 0.0706858 8.75794 0.816329 7.50978 2.0852C6.26162 3.35406 5.5438 5.05082 5.50238 6.8302C5.48798 7.96833 5.75462 9.09243 6.27864 10.1029C6.80267 11.1133 7.56789 11.9788 8.50648 12.6227C6.32004 13.381 4.39982 14.7559 2.97763 16.5815C1.55545 18.4071 0.692091 20.6054 0.49179 22.9109C0.480225 23.0413 0.495902 23.1726 0.537826 23.2966C0.57975 23.4206 0.647005 23.5346 0.735318 23.6312C0.82363 23.7278 0.931071 23.805 1.05081 23.8578C1.17056 23.9107 1.29998 23.9381 1.43087 23.9382C1.66272 23.9395 1.8866 23.8537 2.05816 23.6978C2.22971 23.5418 2.33642 23.3271 2.35713 23.0962C2.57117 20.5732 3.72385 18.2224 5.58737 16.5083C7.45088 14.7941 9.88962 13.8414 12.4216 13.8384C13.333 13.8295 14.2337 13.6406 15.0719 13.2826C15.9102 12.9245 16.6694 12.4044 17.306 11.7522C17.9427 11.0999 18.4442 10.3282 18.7817 9.48156C19.1193 8.6349 19.2863 7.72988 19.2731 6.8185C19.2599 5.90712 19.0667 5.00733 18.7048 4.1708C18.3428 3.33426 17.8192 2.57748 17.1639 1.9439C16.5087 1.31033 15.7347 0.812446 14.8864 0.47885C14.0382 0.145255 13.1324 -0.0174809 12.2211 -1.03881e-05ZM12.4208 11.9667C11.4216 11.9667 10.4447 11.6704 9.6139 11.1152C8.78306 10.5601 8.13549 9.77102 7.7531 8.84783C7.3707 7.92465 7.27065 6.9088 7.46559 5.92875C7.66054 4.94871 8.14172 4.04847 8.8483 3.3419C9.55487 2.63532 10.4551 2.15414 11.4352 1.9592C12.4152 1.76425 13.431 1.86431 14.3542 2.2467C15.2774 2.6291 16.0665 3.27666 16.6216 4.10751C17.1768 4.93835 17.4731 5.91516 17.4731 6.9144C17.4731 8.25435 16.9408 9.53942 15.9933 10.4869C15.0458 11.4344 13.7608 11.9667 12.4208 11.9667Z" fill="#734343"/>
<path d="M15.3976 19.2621C15.3976 19.9376 15.598 20.5979 15.9733 21.1596C16.3486 21.7213 16.882 22.1591 17.5061 22.4176C18.1302 22.6761 18.8169 22.7437 19.4795 22.6119C20.142 22.4802 20.7506 22.1549 21.2283 21.6772C21.7059 21.1995 22.0312 20.5909 22.163 19.9284C22.2948 19.2659 22.2272 18.5791 21.9687 17.955C21.7102 17.3309 21.2724 16.7975 20.7107 16.4222C20.149 16.0469 19.4887 15.8466 18.8132 15.8466C17.9076 15.8474 17.0393 16.2075 16.399 16.8479C15.7586 17.4882 15.3985 18.3565 15.3976 19.2621ZM21.1925 19.0544C21.2337 19.5251 21.1344 19.9975 20.9071 20.4118C20.6798 20.8261 20.3348 21.1637 19.9156 21.3818C19.4964 21.6 19.022 21.689 18.5522 21.6375C18.0825 21.586 17.6386 21.3963 17.2766 21.0925C16.9147 20.7887 16.651 20.3843 16.5189 19.9306C16.3868 19.4769 16.3922 18.9942 16.5344 18.5436C16.6767 18.0929 16.9493 17.6946 17.318 17.399C17.6866 17.1033 18.1347 16.9237 18.6054 16.8827C18.9179 16.8554 19.2327 16.8899 19.5318 16.9842C19.831 17.0786 20.1086 17.231 20.3488 17.4326C20.5891 17.6343 20.7872 17.8813 20.932 18.1596C21.0768 18.4378 21.1653 18.7419 21.1925 19.0544Z" fill="#734343"/>
<path d="M23.4957 21.1498L24.0571 21.1274C24.1256 21.1216 24.1909 21.0957 24.2447 21.0529C24.2985 21.0101 24.3385 20.9523 24.3594 20.8868L24.5447 19.9918C24.5515 19.9235 24.5379 19.8546 24.5057 19.794C24.4734 19.7333 24.4239 19.6836 24.3635 19.651L23.855 19.4048C23.7929 19.3703 23.7404 19.3208 23.7023 19.2609C23.6642 19.2009 23.6417 19.1324 23.6369 19.0615C23.6369 19.0615 23.6369 18.9958 23.6225 18.8418V18.7881C23.6144 18.7295 23.7027 18.6277 23.8109 18.5547L24.2921 18.2524C24.3484 18.213 24.3918 18.1579 24.4169 18.094C24.442 18.0301 24.4477 17.9602 24.4332 17.8931L24.1461 17.0278C24.118 16.9652 24.072 16.9123 24.014 16.8758C23.9559 16.8393 23.8883 16.8207 23.8197 16.8225L23.2536 16.8642C23.187 16.8684 23.1205 16.8559 23.06 16.8279C22.9995 16.7999 22.947 16.7572 22.9071 16.7038C22.8478 16.6068 22.7259 16.2675 22.7876 16.1513L23.0507 15.6508C23.0799 15.5888 23.0901 15.5194 23.0798 15.4516C23.0695 15.3838 23.0393 15.3205 22.9929 15.2699L22.3137 14.6612C22.258 14.6209 22.1917 14.5981 22.123 14.5955C22.0543 14.5929 21.9864 14.6108 21.9279 14.6468L21.4588 14.9676C21.4035 15.0043 21.34 15.0268 21.274 15.0329C21.2079 15.0391 21.1414 15.0288 21.0803 15.0029C20.9808 14.9483 20.7042 14.7142 20.6993 14.5827L20.6769 14.0213C20.671 13.9528 20.6451 13.8876 20.6023 13.8338C20.5595 13.78 20.5017 13.74 20.4363 13.719L19.5429 13.5337C19.4746 13.5265 19.4057 13.5398 19.345 13.572C19.2843 13.6041 19.2346 13.6536 19.2021 13.7141L18.9551 14.2234C18.9206 14.2855 18.8712 14.338 18.8112 14.3761C18.7513 14.4142 18.6827 14.4367 18.6119 14.4415C18.6119 14.4415 18.5469 14.4415 18.3921 14.4559L18.3384 14.4608C18.2799 14.468 18.178 14.3806 18.1058 14.2723L17.8035 13.7911C17.7645 13.7347 17.7096 13.6911 17.6458 13.6658C17.582 13.6406 17.5121 13.6348 17.445 13.6492L16.5773 13.9331C16.5147 13.9611 16.4617 14.0071 16.4252 14.0652C16.3887 14.1232 16.3702 14.1909 16.372 14.2595L16.4137 14.8256C16.4179 14.8922 16.4054 14.9587 16.3774 15.0192C16.3494 15.0797 16.3068 15.1322 16.2533 15.1721C16.1563 15.2314 15.8179 15.3533 15.7008 15.2916L15.2004 15.0285C15.1382 14.9993 15.0688 14.9891 15.0009 14.9992C14.933 15.0094 14.8696 15.0394 14.8186 15.0855L14.2108 15.7663C14.1704 15.8218 14.1475 15.8881 14.145 15.9566C14.1424 16.0251 14.1603 16.0929 14.1963 16.1513L14.5171 16.6204C14.5539 16.6757 14.5763 16.7392 14.5825 16.8052C14.5886 16.8713 14.5783 16.9378 14.5524 16.9989C14.4971 17.0984 14.2629 17.375 14.1314 17.3799L13.57 17.4023C13.5015 17.4081 13.4362 17.434 13.3824 17.4768C13.3286 17.5196 13.2887 17.5774 13.2677 17.6429L13.0792 18.5307C13.0725 18.5989 13.086 18.6676 13.1181 18.7283C13.1501 18.7889 13.1994 18.8387 13.2597 18.8715L13.7697 19.1177C13.8317 19.1522 13.8841 19.2017 13.922 19.2617C13.96 19.3216 13.9823 19.3901 13.987 19.4609C13.987 19.4609 13.987 19.5267 14.0015 19.6806L14.0071 19.7344C14.0143 19.7929 13.9269 19.8948 13.8178 19.9677L13.3366 20.2701C13.2804 20.3093 13.2371 20.3642 13.2119 20.428C13.1868 20.4918 13.1811 20.5615 13.1955 20.6286L13.4786 21.4963C13.5069 21.5586 13.553 21.6113 13.611 21.6476C13.669 21.684 13.7365 21.7025 13.805 21.7008L14.3712 21.6599C14.4376 21.6558 14.5039 21.6684 14.5642 21.6964C14.6246 21.7244 14.677 21.7669 14.7168 21.8203C14.7769 21.9173 14.898 22.2565 14.8371 22.3728L14.574 22.8732C14.5448 22.9354 14.5347 23.0049 14.545 23.0728C14.5553 23.1408 14.5855 23.2042 14.6318 23.2549L15.3118 23.8636C15.3676 23.9036 15.4339 23.9263 15.5025 23.9289C15.5711 23.9315 15.639 23.9138 15.6976 23.8781L16.1659 23.5573C16.2212 23.5207 16.2848 23.4984 16.3508 23.4923C16.4169 23.4863 16.4834 23.4968 16.5444 23.5228C16.6439 23.5773 16.9206 23.8115 16.9254 23.943L16.9478 24.5044C16.9536 24.5729 16.9795 24.6382 17.0223 24.692C17.0651 24.7458 17.1229 24.7857 17.1884 24.8067L18.0818 24.992C18.1501 24.9988 18.2188 24.9854 18.2795 24.9533C18.3401 24.9212 18.3899 24.8719 18.4226 24.8115L18.6696 24.3023C18.7042 24.2402 18.7537 24.1877 18.8136 24.1495C18.8735 24.1113 18.942 24.0886 19.0128 24.0834C19.0128 24.0834 19.0786 24.0834 19.2334 24.0697L19.2863 24.0649C19.3449 24.0577 19.4467 24.1451 19.5189 24.2534L19.8212 24.7345C19.8603 24.791 19.9151 24.8346 19.9789 24.8598C20.0427 24.8851 20.1126 24.8909 20.1797 24.8765L21.0474 24.5926C21.11 24.5645 21.1628 24.5185 21.1994 24.4604C21.2359 24.4024 21.2545 24.3348 21.2527 24.2662L21.211 23.7008C21.2073 23.6344 21.22 23.568 21.248 23.5076C21.276 23.4472 21.3183 23.3946 21.3714 23.3544C21.4684 23.2942 21.8076 23.1731 21.9239 23.2341L22.4243 23.4971C22.4865 23.5264 22.556 23.5365 22.624 23.5262C22.6919 23.5159 22.7553 23.4857 22.8061 23.4394L23.4148 22.7593C23.4548 22.7036 23.4775 22.6372 23.48 22.5686C23.4826 22.5 23.4649 22.4322 23.4292 22.3736L23.1084 21.9053C23.0717 21.85 23.0492 21.7865 23.0431 21.7204C23.0369 21.6544 23.0472 21.5878 23.0731 21.5267C23.1277 21.4273 23.3626 21.1506 23.4933 21.1458M18.8108 23.1507C18.0409 23.1507 17.2883 22.9224 16.6482 22.4946C16.0081 22.0668 15.5093 21.4588 15.2148 20.7474C14.9204 20.0361 14.8435 19.2534 14.9939 18.4984C15.1443 17.7433 15.5153 17.0499 16.0599 16.5057C16.6045 15.9616 17.2983 15.5912 18.0535 15.4413C18.8086 15.2915 19.5912 15.3691 20.3023 15.6641C21.0134 15.9592 21.621 16.4585 22.0483 17.099C22.4755 17.7394 22.7033 18.4922 22.7026 19.262C22.7016 20.2939 22.2912 21.2832 21.5615 22.0128C20.8319 22.7425 19.8426 23.1528 18.8108 23.1539" fill="#734343"/>
</g>
</g>
<defs>
<clipPath id="clip0_301_194">
<rect width="24.0585" height="25" fill="white" transform="translate(0.49176)"/>
</clipPath>
</defs>
</svg>
