<svg width="23" height="25" viewBox="0 0 23 25" fill="none" xmlns="http://www.w3.org/2000/svg">
<g clip-path="url(#clip0_36_856)">
<mask id="mask0_36_856" style="mask-type:luminance" maskUnits="userSpaceOnUse" x="0" y="0" width="23" height="25">
<path d="M22.4862 0H0V25H22.4862V0Z" fill="white"/>
</mask>
<g mask="url(#mask0_36_856)">
<path d="M3.03003 25H12.6088C12.8123 25.0058 13.0149 24.9708 13.2047 24.8969C13.3944 24.8231 13.5674 24.7119 13.7134 24.57C13.8595 24.4281 13.9755 24.2584 14.0548 24.0708C14.1341 23.8833 14.1749 23.6817 14.1749 23.4781C14.1749 23.2745 14.1341 23.073 14.0548 22.8854C13.9755 22.6979 13.8595 22.5281 13.7134 22.3862C13.5674 22.2443 13.3944 22.1332 13.2047 22.0593C13.0149 21.9855 12.8123 21.9504 12.6088 21.9563H3.04378V3.045H12.1688C12.5726 3.04467 12.9597 2.88395 13.245 2.59819C13.5303 2.31243 13.6904 1.92504 13.69 1.52125C13.6897 1.11746 13.529 0.730336 13.2432 0.445047C12.9575 0.159757 12.5701 -0.000331007 12.1663 5.13876e-07H3.03003C2.63191 -0.000163759 2.23767 0.0781297 1.86983 0.230406C1.50198 0.382683 1.16776 0.605956 0.886246 0.887467C0.604735 1.16898 0.381462 1.5032 0.229185 1.87105C0.0769088 2.23889 -0.00138472 2.63313 -0.00122045 3.03125V21.97C-0.00122048 22.368 0.0771942 22.7621 0.229544 23.1298C0.381894 23.4975 0.605194 23.8316 0.886688 24.113C1.16818 24.3944 1.50235 24.6175 1.87011 24.7697C2.23788 24.9219 2.63202 25.0002 3.03003 25Z" fill="#734343"/>
<path d="M15.755 6.32499C15.4494 6.58848 15.2608 6.96255 15.2308 7.365C15.2008 7.76744 15.3318 8.16534 15.595 8.47124L17.7538 10.9775H6.3088C6.10527 10.9717 5.90264 11.0067 5.7129 11.0806C5.52316 11.1544 5.35016 11.2656 5.20414 11.4075C5.05812 11.5494 4.94204 11.7191 4.86278 11.9067C4.78352 12.0942 4.74268 12.2958 4.74268 12.4994C4.74268 12.703 4.78352 12.9045 4.86278 13.0921C4.94204 13.2796 5.05812 13.4494 5.20414 13.5912C5.35016 13.7331 5.52316 13.8443 5.7129 13.9182C5.90264 13.992 6.10527 14.0271 6.3088 14.0212H17.7525L15.5938 16.5275C15.4632 16.6792 15.3638 16.8551 15.3012 17.0452C15.2386 17.2353 15.214 17.4359 15.229 17.6354C15.2439 17.835 15.298 18.0297 15.3881 18.2084C15.4783 18.3871 15.6027 18.5463 15.7544 18.6769C15.9061 18.8074 16.082 18.9069 16.2721 18.9695C16.4622 19.0321 16.6628 19.0566 16.8624 19.0417C17.062 19.0268 17.2567 18.9727 17.4353 18.8825C17.614 18.7924 17.7732 18.6679 17.9038 18.5162L22.0288 13.7162C22.32 13.3782 22.4802 12.9468 22.4802 12.5006C22.4802 12.0544 22.32 11.623 22.0288 11.285L17.9038 6.48499C17.6403 6.17932 17.2662 5.99076 16.8638 5.96076C16.4613 5.93076 16.0634 6.06176 15.7575 6.32499" fill="#734343"/>
</g>
</g>
<defs>
<clipPath id="clip0_36_856">
<rect width="22.4862" height="25" fill="white"/>
</clipPath>
</defs>
</svg>
