<svg width="26" height="25" viewBox="0 0 26 25" fill="none" xmlns="http://www.w3.org/2000/svg">
<g clip-path="url(#clip0_301_187)">
<path d="M14.2538 24.9992C11.4822 24.9992 8.71141 25.0014 5.93984 24.9992C3.25472 24.9962 1.09202 23.2134 0.586742 20.5808C0.525632 20.2633 0.502529 19.9346 0.501784 19.6111C0.497313 14.3558 0.495822 9.10119 0.499548 3.84733C0.500294 1.6799 2.16741 0.00438969 4.33011 0.00215369C9.5662 -0.00231831 14.8016 -8.23113e-05 20.0376 0.00140836C20.6279 0.00140836 21.034 0.370349 21.0318 0.896555C21.0296 1.42276 20.6249 1.78574 20.0309 1.78574C14.8135 1.78574 9.59676 1.78574 4.3793 1.78723C3.16753 1.78723 2.2628 2.68163 2.28516 3.8451C2.30453 4.87366 3.14368 5.74272 4.17361 5.79936C4.29434 5.80607 4.41507 5.80384 4.53654 5.80384C10.5999 5.80384 16.6639 5.80309 22.7272 5.80458C24.1738 5.80458 25.2536 6.72805 25.4735 8.14493C25.4988 8.3089 25.4973 8.47884 25.4973 8.64579C25.4988 13.1469 25.4988 17.6479 25.4973 22.149C25.4973 23.864 24.3638 24.9992 22.6512 24.9992C19.8521 24.9999 17.0529 24.9992 14.2538 24.9992ZM23.708 18.9866C23.5627 18.9866 23.4524 18.9866 23.3428 18.9866C21.6228 18.9851 19.902 19.0112 18.182 18.9731C16.3524 18.9329 14.8269 17.352 14.7852 15.523C14.7382 13.4666 16.3196 11.8306 18.3832 11.8179C20.0473 11.8075 21.7122 11.8157 23.3763 11.8157C23.4837 11.8157 23.5902 11.8157 23.7117 11.8157C23.7117 10.7387 23.7117 9.70715 23.7117 8.67561C23.7117 7.91611 23.3853 7.58891 22.6281 7.58891C16.5842 7.58891 10.5395 7.58891 4.49555 7.58742C4.27273 7.58742 4.0417 7.60158 3.8293 7.55015C3.31285 7.42345 2.80534 7.26171 2.28367 7.1119C2.28367 7.12382 2.28367 7.18494 2.28367 7.2468C2.28367 11.3938 2.28292 15.5409 2.28739 19.6879C2.28739 19.9272 2.3172 20.1716 2.37011 20.4057C2.74274 22.0618 4.16765 23.2096 5.86755 23.2111C11.4837 23.2156 17.1006 23.2126 22.7168 23.2126C22.7727 23.2126 22.8286 23.2141 22.8837 23.2096C23.3175 23.1731 23.6946 22.831 23.7013 22.3987C23.7184 21.2747 23.7072 20.1508 23.7072 18.9858L23.708 18.9866ZM23.7035 13.6328C23.661 13.6187 23.6439 13.6082 23.6267 13.6082C21.8233 13.6082 20.019 13.6 18.2155 13.6157C17.7058 13.6202 17.2847 13.8736 16.9732 14.2716C16.5223 14.8477 16.4299 15.4909 16.7429 16.1565C17.0537 16.8176 17.594 17.1888 18.331 17.1948C20.06 17.2089 21.7897 17.2007 23.5194 17.2C23.5798 17.2 23.6402 17.1829 23.7043 17.1732V13.6328H23.7035Z" fill="#734343"/>
<path d="M12.9973 2.90233C15.359 2.90233 17.7214 2.9001 20.0831 2.90382C20.7538 2.90457 21.1943 3.4904 20.9789 4.08741C20.8499 4.44443 20.5839 4.63971 20.209 4.68368C20.1263 4.69337 20.0421 4.68741 19.9579 4.68741C15.3172 4.68741 10.6774 4.68741 6.03671 4.68666C5.90704 4.68666 5.77364 4.6889 5.64918 4.65983C5.21023 4.55623 4.92108 4.14331 4.96579 3.70431C5.01051 3.26456 5.37344 2.91426 5.82729 2.9068C6.52484 2.89488 7.22239 2.90308 7.9192 2.90308C9.61165 2.90308 11.3041 2.90308 12.9966 2.90308L12.9973 2.90233Z" fill="#734343"/>
</g>
<defs>
<clipPath id="clip0_301_187">
<rect width="25" height="25" fill="white" transform="translate(0.497253)"/>
</clipPath>
</defs>
</svg>
